<?xml version="1.0" encoding="utf-8"?>
<!-- Generator: Adobe Illustrator 19.1.0, SVG Export Plug-In . SVG Version: 6.00 Build 0)  -->
<svg version="1.1" id="Layer_1" xmlns="http://www.w3.org/2000/svg" xmlns:xlink="http://www.w3.org/1999/xlink" x="0px" y="0px"
	 viewBox="0 0 500 500" style="enable-background:new 0 0 500 500;" xml:space="preserve">
<style type="text/css">
	.st0{fill:#F8B017;}
	.st1{fill:none;}
	.st2{fill:#F5AF19;}
	.st3{fill:#E5D7C8;}
	.st4{fill:#F4AE19;}
	.st5{fill:#F7AF17;}
	.st6{fill:#0FA2D4;}
</style>
<g>
	<g>
		<path class="st0" d="M373.6,280.7c-2.3-2.9-0.8-4.8,1.5-6.5c5.1-3.8,10.7-5.9,17-5.7c1,0,2.2,0.6,2.8,1.3
			c3.6,4.2,3.8,9.3,0.6,13.7c-0.9,1.2-2.2,2-3,2.7c2.3,3.4,5,6.9,7.2,10.8c1.8,3.2,1.3,3.6-2.3,3.7c-0.8,0-1.7-0.1-2.5,0
			c-3.4,0.3-6.1-0.5-8.8-2.9c-5.9-5.3-16.7-4.6-22.5,0.9c14.9-3.4,24.1-0.4,29.9,9.6c5.1,8.7,4,19.6-2.5,27.1
			c-6.7,7.6-17.4,10.1-26.5,6.1c-10.4-4.6-15-13.7-13.6-27.6c-4.2,1.8-8.6,1.3-12.9,3.2c-5.4,2.4-11.5,3.6-17.4,4.1
			c-15.2,1.2-30.4,1.6-45.6,2.3c-7.5,0.4-14.5-1.4-20.9-5.5c-1.3-0.8-3.2-1.1-4.8-1.1c-20.9,0-41.8-0.1-62.7,0.1
			c-6.2,0.1-10.2-2.1-13-7.8c-3.7-7.4-10.6-10-18.4-10.8c-3.4-0.3-7-0.2-10.4,0c-5.5,0.4-10,2.7-13.5,7.2c-4.2,5.3-13.1,6.7-18.9,3
			c-3-1.9-4-4.8-4.2-8.1c-6.8-1.2-9-2.9-8.9-6.6c0.1-4,2.4-5.4,10.7-6.3c0.4-3.2,0.8-6.4,1.3-9.9c-1.1-0.1-1.8-0.2-2.6-0.2
			c-2.6-0.1-4.1-1.5-4.2-4c-0.1-3.6-0.2-7.2,0-10.7c0.2-4.1,2.5-6.2,6.8-6.4c2.3-0.1,2.9-0.8,3.2-3c3-23.7,6.2-47.3,9.1-71
			c2.4-19,17.9-33,37-32.5c20.8,0.5,41.5,1.5,62.3,2.2c16.4,0.6,32.9,1.1,49.3,1.7c14.8,0.5,29.5,1,44.3,1.5
			c8,0.3,14.1,4.7,20.1,9.4c0.6,0.5,0.8,1.9,0.7,2.8c-0.3,3.3,0.8,6.2,2.4,9.1c9.8,17.7,19.5,35.4,29.1,53.2c1.1,2,1.6,4.4,1.7,6.6
			c0.2,13.9,0.2,27.8,0.2,41.8C370.7,280.1,370.8,281.5,373.6,280.7z M209.1,274.5c-0.1,1.2-0.2,2-0.2,2.8c0,7.1,0,14.1,0.1,21.2
			c0.1,5,1.7,6.6,6.7,6.6c11.9,0,23.9-0.1,35.8-0.2c5.3,0,6.9-1.7,6.9-6.9c0-7.2-0.1-14.5,0-21.7c0-0.9,0.9-2.4,1.4-2.4
			c2.7,0.1,2.7-1.5,2.7-3.5c-0.2-30.3-0.3-60.6-0.5-90.9c0-0.9,0-1.8,0-3.4c-23.8,1-47.4,1.9-70.9,2.9c-0.1,1.3-0.2,1.9-0.2,2.4
			c0.1,19.3,0.2,38.6,0.2,57.9c0,2.1,1.1,2.4,2.7,2.8c7.2,1.7,12,6.2,14.1,13.2c0.7,2.3,1.6,3.2,3.9,2.8c0.6-0.1,1.1,0,1.7,0
			c4.9,0.2,8.2,3.5,8.2,8.2c0,4.6-3.3,8-8.2,8.3C212,274.5,210.6,274.4,209.1,274.5z M311.6,309.8c0.5,0.2,0.7,0.3,1,0.3
			c3.9,0,7.7,0,11.6,0c2.4,0,3.5-1,3.8-3.4c3-22.8,4.4-45.7,4.1-68.6c-0.2-18.8-1.8-37.5-5.9-56c-0.5-2.4-1.2-4.1-4.2-4.2
			c-16.4-0.5-32.9-1.2-49.3-1.9c-2.6-0.1-3.4,0.7-3.4,3.3c0.2,12.2,0.2,24.5,0.2,36.7c0,0.9,0.1,1.8,0.2,2.7c7,1.3,8.9,3.6,8.9,10.6
			c0,1.3,0,2.6,0,4c0,7.3-1.6,9.3-9,11c0,4.2,0.2,8.5,0,12.8c-0.1,2.4,0.6,3.3,3.2,3.2c8.2-0.2,16.4-0.2,24.5-0.2
			c7.6,0,12.4,5.1,12.2,12.7c-0.1,1.9-0.8,2.5-2.5,2.4c-1.8-0.1-3.5,0-5.3,0c0,9.3,0.1,18.2,0.1,27.4c1.8,0,3.4,0,4.9,0
			c4.5,0,4.5,0,4.6,4.4C311.5,307.8,311.6,308.9,311.6,309.8z M115.6,308.1c0.6-1.8,0.9-2.7,1.2-3.6c4.2-11.4,11.7-19.3,23.8-22.4
			c6.2-1.6,12.5-1.7,18.8-0.9c6.5,0.8,13,2.1,18.6,6c6.7,4.7,10.5,11.4,12.9,19c1.3,4.2,1.9,4.6,6.2,4.6c17.6-0.1,35.2-0.2,52.8-0.2
			c2.3,0,4.8,0.9,6.8,2.1c5.7,3.5,11.5,6,18.3,5.6c16-0.8,32.1-1.6,48.1-2.6c6.6-0.4,13-1.8,18.5-6.1c7.4-5.9,12.1-13.6,15.6-22.1
			c6-14.7,8.7-30.1,10.5-45.7c0.2-2.1-0.9-2.3-2.5-2.3c-9.1,0.1-18.3,0.1-27.4,0.1c-2.1,0-2.7,0.9-2.7,2.9
			c-0.2,21.2-1.2,42.3-4,63.3c-0.8,5.8-2.1,7.2-7.9,7.2c-14.4,0.1-28.8,0.2-43.2,0.2c-6,0-7.6-1.6-7.7-7.8
			c-0.1-7.2-0.1-14.3-0.1-21.5c0-7.9,0-7.8-7.9-7.8c-2.4,0-3.1,0.9-3.1,3.1c0.1,6.5,0.2,13,0.1,19.5c-0.1,6-2.9,8.8-9,8.8
			c-12.2,0.1-24.5,0.2-36.7,0.2c-6.4,0-9-2.8-9.1-9.2c-0.1-11.7-0.1-23.3-0.2-35c0-1.6,0-2.9-2.3-3c-15.7-0.8-31.4-1.6-47-2.5
			c-12.5-0.7-25-1.2-37.5-1.9c-1.8-0.1-2.7,0.1-2.9,2.2c-1.1,9.1-2.4,18.3-3.5,27.4c-0.1,1.1,0.4,2.6,1.2,3.3
			c4,3.8,3.5,8.9-1.5,11.2c-1.8,0.9-2,2.1-1.3,3.3C112.4,305.1,113.9,306.3,115.6,308.1z M188.6,245.6c0-1.3,0-2.4,0-3.5
			c-0.1-11.9-0.1-23.9-0.2-35.8c0-7.7-0.1-15.4-0.1-23.1c0-2.2-0.6-3.3-3.1-3.1c-8.4,0.6-16.9,1.1-25.3,1.4
			c-4.4,0.1-7.5,1.3-8.5,6.1c-0.4,2.2-2,2.6-4.1,1.8c-5.8-2-11.6-3.9-17.4-5.9c-0.9-0.3-1.9-0.5-3.1-0.9c-0.3,1.2-0.6,2.1-0.8,3
			c-2.2,17.3-4.5,34.6-6.7,52c-0.5,4.2-0.3,4.4,3.8,4.6c18.5,1.1,37,2.1,55.5,3.1C181.9,245.4,185.1,245.4,188.6,245.6z
			 M324.8,175.4c0-3.5-0.1-7,0-10.5c0.1-5.3,0.1-5.4-5.1-6.4c-0.7-0.1-1.5-0.2-2.2-0.2c-5.4-0.2-10.7-0.4-16.1-0.6
			c-16.5-0.6-33.1-1.2-49.6-1.8c-11.7-0.4-23.3-0.8-35-1.2c-19-0.6-38-1.5-56.9-1.9c-14.6-0.3-27.3,8.9-32.1,22.6
			c-1.3,3.7-1.3,3.7,2.4,4.9c5.1,1.6,10.2,3.3,15.3,5c1,0.3,1.9,0.6,3.1,0.9c0.8-1.9,1.4-3.7,2.4-5.3c0.6-0.9,1.8-2,2.8-2.1
			c17.2-1.1,34.3-2.2,51.5-3.1c11.8-0.6,23.7-1.3,35.5-1.5c19.4-0.3,38.7-0.4,58.1-0.2C307.3,174,315.7,174.8,324.8,175.4z
			 M119.4,307.3c3.3,1.7,6.8,0.8,9.5-2.8c3-3.9,6.6-6.8,11.4-7.7c4.3-0.8,8.8-1.3,13.1-1.1c10.3,0.6,19,4.3,23.7,14.4
			c0.8,1.6,2.9,2.9,4.6,3.8c1.7,0.9,2.9,0,2.5-2.2c-2.1-11.1-7.1-20.6-20.4-23.9c-7.9-2-15.8-2.2-23.8-0.8
			C129.1,289,120.9,297.1,119.4,307.3z M367.7,233.4c-1-1.8-1.8-3.1-2.3-4.5c-1-2.5-2.7-3.4-5.5-3.3c-4.2,0.3-8.5,0.2-12.7,0.2
			c-3.6,0-5.5-1.6-6.2-5.2c-0.3-1.4-0.4-2.8-0.6-4.2c-1.6-12.2-3.1-24.4-4.8-36.6c-0.1-0.6-0.7-1.6-0.7-1.6
			c-1.9,0.6-3.7,1.1-5.2,2.1c-0.5,0.3-0.6,1.8-0.5,2.7c3.3,15.8,5.1,31.7,5.3,47.8c0,2.3,0.9,3,3.2,3c9-0.1,18-0.1,27.1-0.2
			C365.5,233.7,366.3,233.5,367.7,233.4z M274.7,275.5c0,8.7,0.1,17.1,0.1,25.4c0,1.7,1,1.7,2.2,1.7c5.4,0,10.7-0.1,16.1-0.1
			c1.7,0,2.3-0.6,2.3-2.3c-0.1-4.2-0.1-8.5-0.1-12.7c0-4,0-8-0.1-12.2C288.3,275.4,281.7,275.4,274.7,275.5z M117.4,253
			c29.4,1.5,58.7,3,88,4.5c-1-6.7-6.9-12.4-12.5-12.6c-0.1,0.5-0.2,1.1-0.3,1.6c-0.3,5.2-1,5.6-6.2,5.2c-10.4-0.7-20.8-1.2-31.2-1.8
			c-11-0.6-21.9-1.2-32.9-2C117.9,247.7,117.8,247.6,117.4,253z M373.6,333.6c7.4-0.1,13.4-6.1,13.4-13.5c0-7.4-6.2-13.7-13.7-13.6
			c-7.5,0.1-13.5,6.2-13.3,13.8C360.2,327.9,366.1,333.7,373.6,333.6z M339.2,180.6c-0.2,0.1-0.5,0.2-0.7,0.3c0.2,1.7,0.4,3.3,0.7,5
			c1.4,10.7,2.8,21.4,4.2,32.1c0.1,0.7,0.9,1.9,1.4,1.9c5.1,0.1,10.2,0,16,0C353.4,206.5,346.3,193.6,339.2,180.6z M265,224.9
			c0.1,14.9,0.1,29.7,0.3,44.6c0,1.1,0.7,2.3,1,3.4c0.3-1.2,0.9-2.3,0.9-3.5c-0.1-29.6-0.2-59.2-0.4-88.8c0-0.7,0.1-1.3-0.1-2
			c-0.1-0.6-0.6-1-0.9-1.5c-0.4,0.5-0.9,1-1.1,1.6c-0.2,0.7-0.1,1.5,0,2.2C264.8,195.5,264.9,210.2,265,224.9z M292.1,305.3
			c-4.9,0-9.8,0-14.7,0.1c-0.8,0-2.2,0.8-2.1,1.1c0.1,1.1,0.6,2.3,1.2,3.2c0.3,0.4,1.4,0.5,2.1,0.5c9.2,0,18.4-0.1,27.6-0.1
			c1.8,0,2.5-0.6,2.5-2.5c0-1.9-0.9-2.4-2.6-2.3C301.5,305.3,296.8,305.2,292.1,305.3z M306.5,269.3c-1.2-4.6-4.2-6.8-9.4-6.8
			c-7.9,0-15.8,0-23.7,0.1c-1.4,0-3-0.3-3,1.9c0,2.2,1.7,1.9,3,1.9c8.3,0,16.6,0,24.8-0.1C301.4,266.2,304.2,266.8,306.5,269.3z
			 M397,298.1c-2.6-7.9-7.4-11-15-9.9c-0.7,0.1-1.5,0.1-2.2,0.2c-4.1,0.6-8.1,1.7-11.5,4.1c1.1,0,2.1-0.2,3.1-0.4
			c6.2-1.1,12.2-0.2,16.9,4.1C391,298.6,393.7,298.5,397,298.1z M108.1,290.9c-0.7,0-1.5,0-2.2,0c-2.2,0.1-3.6,1-3.7,3.3
			c-0.1,2.5,1.5,3.4,3.8,3.5c0.7,0,1.5,0,2.2,0c4.2,0,5.6-0.9,5.7-3.3C113.9,291.8,112.3,290.8,108.1,290.9z M327.9,174.5
			c5.5-1.3,6.9-2.3,7-5.4c0.2-2.7-2.6-5.3-7.4-7c-0.1,0.6-0.2,1.1-0.2,1.6C327.5,167.3,327.7,170.8,327.9,174.5z M379.5,273.9
			c0,0.6,0,1.2,0,1.8c3.4,1,6.8,2.1,10.3,2.9c0.5,0.1,1.6-0.7,1.7-1.3c0.2-1.7,0.2-3.4,0-5c0-0.4-1.1-1.1-1.5-1
			C386.4,272.1,383,273,379.5,273.9z M209.3,263.9c-0.1,2.2-0.4,4.1,2.8,3.9c3.5-0.2,5.9-1.6,6-3.8c0-2.1-2.3-3.3-5.8-3.5
			C209.3,260.3,209,261.7,209.3,263.9z M298.6,276.6c-0.1,0-0.3,0-0.4,0c0,8.3,0.1,16.6,0.1,24.9c0.1,0,0.3,0,0.4,0
			C298.7,293.2,298.7,284.9,298.6,276.6z M107.1,262.5c2,0,4,0,6,0c0.2-1.1,0.3-2,0.4-2.9C109.6,258.6,108.1,259.3,107.1,262.5z"/>
		<path class="st0" d="M373.5,344.5c-3.2,0-6.4-0.7-9.5-2c-10.4-4.6-15.2-13.7-14.3-27c-1.7,0.5-3.3,0.8-5,1
			c-2.2,0.3-4.2,0.7-6.2,1.6c-5,2.2-11,3.6-17.8,4.1c-11.1,0.8-22.5,1.3-33.4,1.8c-4.1,0.2-8.2,0.3-12.2,0.5
			c-7.8,0.3-15-1.5-21.6-5.6c-1-0.6-2.5-0.9-4.2-0.9l-3.7,0c-19.4-0.1-39.3-0.1-59,0.1c-0.1,0-0.2,0-0.3,0c-6.6,0-10.9-2.6-13.7-8.4
			c-3-6.1-8.5-9.3-17.5-10.2c-2.9-0.3-6.1-0.3-10.2,0.1c-5.3,0.4-9.5,2.6-12.7,6.8c-4.5,5.7-14,7.3-20.3,3.3
			c-2.7-1.7-4.2-4.3-4.7-8.1c-5.8-1.1-9.1-2.8-9-7.6c0.2-5,3.6-6.4,10.8-7.2l1-8c-0.5,0-0.9-0.1-1.4-0.1c-3.2-0.1-5.1-2-5.2-5
			c-0.1-3.2-0.2-7.1,0-10.8c0.2-4.6,3-7.3,7.8-7.4c1.7,0,1.9-0.3,2.2-2.1c1.4-11.3,2.9-22.5,4.3-33.8c1.6-12.4,3.2-24.8,4.8-37.2
			c2.4-19.6,18-33.5,37.2-33.5c0.3,0,0.7,0,1,0c13.6,0.3,27.4,0.9,40.8,1.4c7.2,0.3,14.4,0.6,21.6,0.8c10.5,0.4,21,0.7,31.5,1.1
			l17.9,0.6c14.8,0.5,29.5,1,44.3,1.5c8.2,0.3,14.5,4.7,20.7,9.6c1.3,1,1.1,3.5,1.1,3.8c-0.2,2.7,0.4,5.1,2.3,8.4
			c10.7,19.3,20.2,36.7,29.1,53.2c1.1,2,1.7,4.6,1.8,7.1c0.2,11.2,0.2,22.7,0.2,33.7l0,6c0.6-1.2,1.7-2.1,2.6-2.9
			c5.5-4.1,11.3-6.1,17.7-5.9c1.3,0,2.8,0.8,3.6,1.7c3.9,4.6,4.2,10.2,0.7,15.1c-0.7,1-1.6,1.7-2.4,2.2c0.5,0.7,1,1.4,1.5,2.2
			c1.8,2.5,3.6,5.1,5.1,7.9c0.8,1.5,1.5,2.9,0.9,4c-0.7,1.1-2.2,1.2-4.1,1.3c-0.4,0-0.7,0-1,0c-0.5,0-1,0-1.5,0
			c-2.3,0.2-4.4-0.1-6.3-0.9c2.2,1.8,4.1,4,5.7,6.8c5.3,9.1,4.2,20.5-2.7,28.3C386.9,341.6,380.3,344.5,373.5,344.5z M350.9,312.8
			c0.2,0,0.4,0.1,0.6,0.2c0.3,0.2,0.5,0.6,0.4,1c-1.3,13.4,2.9,22.1,12.9,26.5c8.6,3.8,18.8,1.5,25.2-5.8c6.3-7.1,7.2-17.5,2.4-25.8
			c-5.6-9.6-14.2-12.4-28.8-9.1c-0.5,0.1-1-0.1-1.2-0.6c-0.2-0.4-0.1-1,0.2-1.3c6.4-6,17.8-6.4,24-0.9c2.4,2.2,4.9,2.9,8,2.7
			c0.6-0.1,1.1,0,1.7,0c0.3,0,0.6,0,0.9,0c1.7,0,2.2-0.2,2.3-0.2c0,0-0.1-0.3-0.9-1.8c-0.8-1.4-1.7-2.8-2.6-4.2
			c0.7,1.3,1.4,2.7,1.9,4.3c0.1,0.3,0.1,0.6-0.1,0.9c-0.2,0.3-0.5,0.5-0.8,0.5c-3.6,0.4-6.6,0.5-9.6-2.2c-4.1-3.7-9.5-5-16-3.8
			l-0.5,0.1c-0.9,0.2-1.8,0.4-2.8,0.3c-0.5,0-0.9-0.3-1-0.8c-0.1-0.4,0-0.9,0.4-1.2c4-2.8,8.5-3.8,12-4.3c0.4-0.1,0.9-0.1,1.3-0.1
			c0.3,0,0.6-0.1,1-0.1c5.6-0.8,10,0.7,13,4.4c-0.4-0.5-0.7-1.1-1.1-1.6c-0.7-1-1.4-2-2.1-3c-0.3-0.5-0.2-1.1,0.2-1.4
			c0.2-0.2,0.5-0.4,0.8-0.7c0.7-0.5,1.5-1.1,2-1.8c2.9-4,2.7-8.6-0.6-12.4c-0.4-0.5-1.4-0.9-2-1c-4.5-0.1-8.8,0.9-12.8,3.2l0,0
			l2.7-0.7c2.6-0.7,5.2-1.3,7.8-1.9c0.7-0.2,1.5,0.3,1.8,0.5c0.4,0.3,0.9,0.8,1,1.4c0.2,1.9,0.2,3.7,0,5.3c-0.1,0.8-0.9,1.4-1.3,1.7
			c-0.4,0.3-1.1,0.7-1.8,0.5c-2.7-0.7-5.3-1.5-7.9-2.2l-2.4-0.7c-0.5-0.1-0.8-0.6-0.8-1.1l0-1.8c0-0.3,0.1-0.5,0.3-0.7
			c-1,0.6-2,1.3-3,2c-1.4,1.1-2.1,1.9-2.2,2.7c-0.1,0.7,0.2,1.4,0.9,2.3c0.2,0.3,0.3,0.7,0.2,1c-0.1,0.3-0.4,0.6-0.7,0.7
			c-0.9,0.3-2.3,0.5-3.3-0.2c-1-0.8-1-2.2-1-3.2l0-8.1c0-11,0-22.5-0.2-33.7c0-2.1-0.6-4.4-1.5-6.1c-8.9-16.4-18.4-33.8-29.1-53.2
			c-1.4-2.6-2.9-5.8-2.5-9.7c0.1-0.9-0.1-1.7-0.3-1.9c-6.2-4.8-11.9-8.9-19.4-9.1c-14.8-0.5-29.5-1-44.3-1.5l-17.9-0.6
			c-10.5-0.3-21-0.7-31.5-1.1c-7.2-0.3-14.4-0.5-21.6-0.8c-13.4-0.5-27.2-1.1-40.7-1.4c-0.3,0-0.6,0-0.9,0
			c-18.1,0-32.7,13.2-35,31.6c-1.5,12.4-3.2,24.8-4.8,37.2c-1.5,11.3-2.9,22.5-4.3,33.8c-0.4,2.8-1.5,3.9-4.3,4
			c-3.7,0.1-5.5,1.8-5.7,5.3c-0.2,3.7-0.1,7.4,0,10.6c0.1,1.9,1.1,2.9,3.2,3c0.5,0,1,0.1,1.5,0.1l1.1,0.1c0.3,0,0.6,0.2,0.8,0.4
			c0.2,0.2,0.3,0.5,0.2,0.8l-1.3,9.9c-0.1,0.5-0.5,0.9-1,0.9c-8.6,0.9-9.6,2.3-9.7,5.2c-0.1,2.7,1.1,4.3,8,5.5
			c0.5,0.1,0.8,0.5,0.9,1c0.3,3.5,1.4,5.8,3.7,7.2c0.6,0.4,1.2,0.7,1.8,0.9l-0.1-0.1c-0.5-0.6-1-1-1.5-1.5c-1.1-1.1-2-2-2.7-3.2
			c-0.5-0.9-0.7-1.8-0.4-2.6c0.3-0.9,1-1.7,2.2-2.2c2-0.9,3.2-2.3,3.5-4c0.3-1.8-0.5-3.8-2.3-5.5c-1-1-1.7-2.9-1.5-4.2
			c0.6-4.7,1.2-9.3,1.8-13.9c0.6-4.5,1.2-9,1.7-13.5c0.4-3.1,2.2-3.2,4-3.2c7.9,0.5,15.7,0.9,23.6,1.3c4.6,0.2,9.2,0.5,13.8,0.7
			l15.7,0.8c10.4,0.6,20.9,1.1,31.3,1.6c3.3,0.2,3.3,2.5,3.3,4c0,9.7,0.1,19.4,0.1,29.2l0,5.9c0,5.9,2.3,8.1,8,8.2
			c11.7,0,23.7,0,36.7-0.2c5.4-0.1,7.8-2.4,7.9-7.8c0.1-6.8,0-13.6-0.1-19.4c0-1,0.1-2.3,0.9-3.2c1.3-1.3,3.3-1,4.6-1
			c3.4,0,5.2,0.1,6.3,1.3c1.3,1.3,1.3,3.4,1.3,7.6l0,5.9c0,5.2,0,10.4,0.1,15.6c0.1,5.5,1.2,6.7,6.5,6.7c0,0,0.1,0,0.1,0
			c14.4-0.1,28.8-0.1,43.2-0.2c5.1,0,6.1-1,6.8-6.3c2.5-18.8,3.7-38.8,4-63.1c0-1.7,0.4-4,3.8-4h0c8.4,0,16.8,0,25.3-0.1l2.1,0h0.1
			c1.1,0,2.2,0.1,2.9,0.9c0.6,0.6,0.8,1.5,0.6,2.6c-1.5,12.9-4,29.8-10.5,46c-4.1,10-9.1,17.2-15.9,22.6c-4.9,3.9-10.7,5.8-19.1,6.4
			c-13.3,0.8-26.8,1.5-39.8,2.2l-8.3,0.4c-0.4,0-0.9,0-1.3,0c-7.2,0-13.2-3.1-17.6-5.8c-1.9-1.2-4.3-1.9-6.2-1.9
			c-12.9-0.1-26,0-38.6,0.1l-14.2,0.1c-4.7,0.1-5.8-0.7-7.2-5.3c-2.6-8.3-6.6-14.3-12.5-18.5c-5.6-4-12.3-5.1-18.1-5.8
			c-6.5-0.8-12.7-0.5-18.4,0.9c-11.2,2.8-18.7,9.9-23,21.7c-0.2,0.4-0.3,0.9-0.5,1.5l-0.7,2c-0.1,0.4-0.4,0.6-0.8,0.7
			c0,0-0.1,0-0.2,0c5.2,1.7,11.6,0.1,14.8-4c3.6-4.6,8.4-7.1,14.3-7.6c4.3-0.3,7.6-0.3,10.6,0c9.6,0.9,15.9,4.7,19.2,11.4
			c2.5,5,6,7.1,11.8,7.1c0.1,0,0.2,0,0.3,0c19.7-0.2,39.6-0.2,59-0.1l3.7,0c1.2,0,3.6,0.2,5.4,1.3c6.3,3.9,12.9,5.7,20.3,5.3
			c4.1-0.2,8.2-0.4,12.2-0.5c11-0.5,22.3-0.9,33.4-1.8c6.4-0.5,12.3-1.9,17-4c2.3-1,4.6-1.4,6.8-1.7c2.1-0.3,4.1-0.7,6.1-1.5
			C350.6,312.9,350.7,312.8,350.9,312.8z M239.7,309.5c3.4,0,6.7,0,10.1,0c2.3,0,5.1,0.9,7.3,2.2c6.6,4,12.1,5.8,17.7,5.4l8.3-0.4
			c13.1-0.7,26.6-1.3,39.8-2.2c7.8-0.5,13.3-2.3,17.8-5.9c6.5-5.2,11.3-12.1,15.2-21.7c6.5-16,9-32.7,10.4-45.5
			c0.1-0.7-0.1-0.9-0.1-0.9c-0.1-0.1-0.3-0.2-1.3-0.2H365l-2.1,0c-8.4,0.1-16.8,0.1-25.3,0.1c0,0,0,0,0,0c-1.3,0-1.6,0.3-1.6,1.8
			c-0.2,24.4-1.5,44.6-4,63.4c-0.8,6.4-2.8,8.1-9,8.2c-14.4,0.1-28.8,0.2-43.2,0.2h-0.1c-6.5,0-8.6-2.2-8.7-8.8
			c-0.1-5.2-0.1-10.4-0.1-15.6l0-5.8c0-3.4,0-5.5-0.7-6.1c-0.6-0.6-2.6-0.6-5.9-0.6c-1.1,0-1.7,0.1-1.9,0.4
			c-0.2,0.2-0.3,0.8-0.3,1.7c0.1,5.8,0.2,12.7,0.1,19.5c-0.1,6.6-3.4,9.8-10,9.9c-13,0.2-25,0.2-36.7,0.2c-6.9,0-10.1-3.3-10.1-10.3
			l0-5.9c-0.1-9.7-0.1-19.4-0.1-29.2c0-1.7,0-1.8-1.2-1.9c-10.5-0.5-20.9-1.1-31.4-1.6l-15.7-0.8c-4.6-0.2-9.2-0.5-13.8-0.7
			c-7.9-0.4-15.8-0.8-23.6-1.2c-1.5-0.1-1.6,0-1.8,1.3c-0.5,4.5-1.1,9-1.7,13.5c-0.6,4.6-1.2,9.3-1.8,13.9c-0.1,0.7,0.4,1.9,0.9,2.4
			c2.3,2.2,3.3,4.9,2.9,7.4c-0.4,2.4-2,4.4-4.7,5.6c-0.6,0.3-0.9,0.6-1,0.9c-0.1,0.3,0.1,0.6,0.2,0.9c0.6,0.9,1.4,1.8,2.4,2.7
			c0.1,0.1,0.2,0.2,0.3,0.3l0.1-0.4c0.2-0.6,0.4-1.1,0.5-1.6c4.5-12.3,12.8-20.1,24.5-23.1c6-1.5,12.4-1.8,19.2-1
			c6.1,0.8,13.1,2,19.1,6.2c6.3,4.4,10.6,10.8,13.3,19.6c1.2,3.7,1.3,3.8,5.2,3.8l14.2-0.1C220.5,309.5,230.1,309.5,239.7,309.5z
			 M374.1,296.3c4.4,0,8.1,0.8,11.4,2.5c-0.1-0.1-0.1-0.1-0.2-0.2c-4.1-3.6-11-4.2-16.5-2C370.7,296.5,372.4,296.3,374.1,296.3z
			 M376,290.6c5.1,0,9.4,1.6,13,4.8c2,1.8,3.9,2,6.6,1.8c-2.5-6.4-6.6-8.9-13.4-7.9c-0.4,0.1-0.7,0.1-1.1,0.1
			c-0.4,0-0.8,0.1-1.1,0.1c-1.6,0.2-3.4,0.6-5.2,1.1C375.1,290.6,375.6,290.6,376,290.6z M380.5,274.9l1.7,0.5
			c2.5,0.8,5.2,1.6,7.8,2.2c-0.1-0.1,0.3-0.4,0.4-0.5c0.1-1.2,0.1-2.7,0-4.4c-0.1-0.1-0.3-0.3-0.5-0.3c-2.4,0.6-4.9,1.2-7.5,1.9
			L380.5,274.9z M373.5,334.7c-8.1,0-14.4-6.3-14.6-14.3c-0.1-4,1.4-7.8,4.2-10.6c2.7-2.8,6.4-4.3,10.2-4.3h0.1
			c3.9,0,7.5,1.5,10.3,4.3c2.8,2.8,4.3,6.5,4.3,10.4c-0.1,8-6.6,14.5-14.5,14.6l0,0C373.6,334.7,373.5,334.7,373.5,334.7z
			 M373.5,307.6L373.5,307.6c-3.4,0-6.5,1.3-8.8,3.7c-2.3,2.4-3.6,5.6-3.6,9.1c0.1,6.9,5.5,12.2,12.4,12.2c0,0,0.1,0,0.1,0h0
			c6.8-0.1,12.3-5.6,12.4-12.4c0-3.3-1.3-6.4-3.7-8.8C379.9,308.9,376.8,307.6,373.5,307.6z M183.1,315.3c-0.5,0-1.1-0.1-1.7-0.4
			c-1.7-0.9-4.2-2.3-5.1-4.3c-4.1-8.8-11.4-13.2-22.8-13.8c-3.7-0.2-7.8,0.1-12.9,1c-4.1,0.7-7.6,3.1-10.7,7.3c-3,4-7,5.1-10.9,3.1
			c-0.4-0.2-0.6-0.7-0.6-1.1c1.5-10.6,10.2-19.1,21.6-21.2c8.1-1.4,16.2-1.2,24.2,0.8c15.5,3.9,19.6,16,21.2,24.8
			c0.4,2-0.4,2.9-0.9,3.3C184.1,315.1,183.6,315.3,183.1,315.3z M151.4,294.6c0.7,0,1.5,0,2.2,0.1c12.1,0.7,20.2,5.6,24.7,15
			c0.7,1.6,3.3,2.8,4.1,3.2c0.5,0.2,0.8,0.2,0.9,0.2c0.1-0.1,0.2-0.4,0.1-1.2c-2.5-13.2-8.6-20.3-19.6-23.1
			c-7.7-1.9-15.6-2.2-23.3-0.8c-10.2,1.8-18,9.2-19.8,18.5c2.6,1,5.3,0.1,7.4-2.8c3.5-4.6,7.5-7.3,12.1-8.1
			C144.5,295,148.1,294.6,151.4,294.6z M324.3,311.2h-0.2c-2.4-0.1-4.7,0-7.1,0c-1.5,0-3,0-4.5,0c-0.4,0-0.7-0.1-1-0.2l-0.4-0.1
			c-0.4-0.1-0.7-0.5-0.7-1l-0.1-0.9c0-0.7-0.1-1.4-0.1-2.2c0-3.3,0-3.4-3.5-3.3l-4.9,0h0c-0.6,0-1.1-0.5-1.1-1.1l-0.1-27.3
			c0-0.6,0.5-1.1,1.1-1.1l1.7,0c1.3,0,2.5,0,3.7,0c0.6,0,0.9,0,1.1-0.2c0.1-0.1,0.3-0.4,0.3-1.2c0.1-3.5-0.9-6.4-2.9-8.5
			c-2-2-4.8-3.1-8.2-3.1h0h-3.8c-6.8,0-13.8,0-20.7,0.2c-1.2,0-2.4-0.1-3.3-1c-0.9-0.9-1-2.3-0.9-3.4c0.1-3.1,0.1-6.2,0-9.2
			c0-1.2,0-2.4,0-3.6c0-0.5,0.3-1,0.8-1.1c6.9-1.5,8.2-3.1,8.1-9.9l0-3.9c0-6.5-1.6-8.3-8-9.5c-0.5-0.1-0.9-0.5-0.9-1l-0.1-0.9
			c0-0.6-0.1-1.2-0.1-1.9l0-10.5c0-8.7-0.1-17.5-0.2-26.2c0-1.1,0.1-2.5,1-3.5c0.6-0.6,1.4-0.8,2.2-0.9c-3,0-6.1,0-9.1,0
			c0.1,0.1,0.2,0.1,0.3,0.2c0.2,0.2,0.3,0.5,0.3,0.8l0.1,29.4c0.1,21.6,0.2,43.3,0.3,64.9c0,1.4,0,2.8-0.9,3.7
			c-0.6,0.6-1.4,0.9-2.5,0.9c-0.2,0.3-0.6,1-0.6,1.3c-0.1,5.3,0,10.6,0,15.9l0,5.9c0,5.9-2.1,8-8,8c-12,0.1-23.9,0.1-35.9,0.2h-0.1
			c-5.5,0-7.6-2.1-7.6-7.6c-0.1-5.5-0.1-11.1-0.1-16.6l0-4.5c0-0.6,0.1-1.2,0.1-1.9l0.1-1c0-0.6,0.5-1,1.1-1h1.4c1,0,1.9,0,2.8,0
			c4.3-0.2,7.2-3.1,7.2-7.2c0-4.1-2.8-6.9-7.1-7.1l-0.3,0c-0.4,0-0.8,0-1.2,0c-3.4,0.4-4.5-1.5-5.1-3.6c-2-6.6-6.5-10.8-13.3-12.5
			c-1.5-0.3-3.5-0.8-3.5-3.8c0-13.2-0.1-26.4-0.1-39.6l-0.1-18.3c0-0.4,0-0.8,0.1-1.4l0.1-1.1c0.1-0.5,0.5-0.9,1-1l67.2-2.7
			c-5.9,0-11.7,0.1-17.4,0.2c-10.6,0.2-21.4,0.8-31.9,1.3l-3.6,0.2c-16.4,0.9-33.7,1.9-51.5,3.1c-0.5,0-1.5,0.8-2,1.6
			c-0.6,1-1.1,2.2-1.6,3.4c-0.2,0.6-0.5,1.1-0.7,1.7c-0.2,0.5-0.8,0.7-1.3,0.6l-1.1-0.3c-0.7-0.2-1.3-0.4-2-0.6l-5.5-1.8
			c-3.2-1.1-6.5-2.1-9.7-3.2c-2.1-0.7-3.2-1-3.7-2c-0.5-1-0.1-2.1,0.6-4.2c4.9-14.1,17.8-23.4,32.4-23.4c0.3,0,0.5,0,0.8,0
			c13,0.3,26.3,0.8,39.1,1.3c6,0.2,11.9,0.4,17.9,0.6l14.6,0.5c6.8,0.2,13.6,0.4,20.4,0.7c11.8,0.4,23.7,0.8,35.5,1.3l14.1,0.5
			c5.4,0.2,10.7,0.4,16.1,0.6c0.8,0,1.6,0.1,2.4,0.3c5.6,1.1,6.1,1.7,5.9,7.5c-0.1,2.4,0,4.7,0,7.1l0,3.3c0,0.3-0.1,0.6-0.3,0.8
			c-0.2,0.2-0.5,0.3-0.8,0.3c-2.9-0.2-5.7-0.4-8.4-0.5c-6-0.4-11.7-0.8-17.5-0.9c-8.6-0.1-17.2-0.1-25.5-0.1
			c18.2,0.8,34.2,1.4,48.8,1.9c4.1,0.1,4.7,3.1,5.2,5c3.7,16.8,5.6,35.1,5.9,56.2c0.3,23-1.1,46.2-4.1,68.8
			C328.7,309.8,327.2,311.2,324.3,311.2z M320.2,309c1.4,0,2.7,0,4.1,0c0,0,0.1,0,0.1,0c1.7,0,2.3-0.6,2.6-2.5
			c3-22.5,4.3-45.5,4.1-68.5c-0.3-20.9-2.2-39.1-5.8-55.8c-0.5-2.3-0.9-3.3-3.1-3.3c-14.8-0.5-30.9-1.1-49.3-1.9
			c-0.9-0.1-1.6,0.1-1.8,0.3c-0.3,0.3-0.4,0.9-0.4,1.9c0.1,8.7,0.2,17.5,0.2,26.2l0,10.5c0,0.6,0.1,1.1,0.1,1.7v0.1
			c6.8,1.4,8.9,4.2,9,11.5l0,3.9c0,7.5-1.8,10.1-9,11.8c0,0.9,0,1.8,0,2.7c0,3,0.1,6.2,0,9.3c0,0.9,0.1,1.5,0.3,1.8
			c0.2,0.2,0.9,0.3,1.7,0.3c6.9-0.2,13.9-0.2,20.7-0.2h3.8h0c4,0,7.4,1.3,9.7,3.8c2.4,2.5,3.6,6,3.5,10.1c0,0.8-0.2,1.9-1,2.7
			c-0.8,0.8-1.9,0.8-2.7,0.8c-1.2-0.1-2.4,0-3.6,0h-0.6l0.1,25.2l3.9,0c0.1,0,0.2,0,0.3,0c4.9,0,5.3,0.5,5.4,5.4
			c0,0.7,0.1,1.4,0.1,2.1l0,0.2c0.1,0.1,0.4,0,0.6,0C315.5,309.1,317.9,309,320.2,309z M210.1,275.5L210.1,275.5
			c-0.1,0.7-0.1,1.2-0.1,1.7l0,4.5c0,5.5,0,11.1,0.1,16.6c0.1,4.3,1.2,5.5,5.4,5.5h0.1c11.9,0,23.9-0.1,35.8-0.2
			c4.7,0,5.9-1.2,5.9-5.8l0-5.8c0-5.3-0.1-10.6,0-15.9c0-1,0.7-2.4,1.3-3c0.4-0.3,0.8-0.4,1.1-0.5c0.6,0,1.1-0.1,1.3-0.3
			c0.3-0.3,0.3-1.2,0.3-2.1c-0.1-21.7-0.2-43.3-0.3-65l-0.1-28.3l-68.8,2.8l0,0.2c-0.1,0.5-0.1,0.8-0.1,1.1l0.1,18.3
			c0.1,13.2,0.1,26.4,0.1,39.6c0,1.2,0.3,1.4,1.8,1.8c7.6,1.8,12.6,6.5,14.9,13.9c0.6,2,1.2,2.3,2.7,2.1c0.6-0.1,1.1,0,1.6,0l0.3,0
			c5.5,0.3,9.2,4,9.2,9.3c0,5.2-3.8,9.1-9.2,9.3c-1,0.1-1.9,0.1-2.9,0H210.1z M159.2,153.8c-13.7,0-25.8,8.7-30.3,21.9
			c-0.4,1.1-0.8,2.3-0.7,2.6c0.2,0.2,1.2,0.5,2.3,0.9c3.4,1.1,6.6,2.2,9.9,3.2l5.5,1.8c0.6,0.2,1.2,0.4,1.9,0.6l0.2,0.1
			c0.1-0.3,0.2-0.5,0.3-0.8c0.5-1.3,1.1-2.6,1.8-3.8c0.8-1.2,2.2-2.5,3.7-2.6c17.8-1.2,35.1-2.2,51.5-3.1l3.6-0.2
			c10.5-0.6,21.3-1.2,31.9-1.3c18.6-0.3,38.1-0.3,58.1-0.2c5.8,0.1,11.5,0.4,17.6,0.9c2.4,0.2,4.8,0.3,7.2,0.5l0-2.2
			c0-2.4-0.1-4.8,0-7.2c0.1-4.5,0.1-4.5-4.2-5.3c-0.7-0.1-1.4-0.2-2.1-0.2c-5.3-0.2-10.7-0.4-16.1-0.6l-14.1-0.5
			c-11.8-0.4-23.7-0.9-35.5-1.3c-6.8-0.2-13.6-0.5-20.4-0.7l-14.6-0.5c-6-0.2-11.9-0.4-17.9-0.6c-12.8-0.5-26-1-39-1.3
			C159.7,153.8,159.4,153.8,159.2,153.8z M278.6,311.2c-1.1,0-2.4-0.1-3-0.9c-0.7-1-1.3-2.3-1.4-3.7c0-0.3,0.1-0.8,0.3-1
			c0.5-0.6,1.9-1.3,2.8-1.3c3.6-0.1,7.2-0.1,10.9-0.1l8.1,0c3.3,0,6.6,0,9.8-0.1c1,0,2,0.1,2.8,0.8c0.6,0.6,0.9,1.4,0.9,2.6
			c0,0.8-0.1,1.9-0.9,2.7c-0.8,0.8-1.9,0.9-2.7,0.9c-5,0-10.1,0-15.2,0C286.9,311.1,282.8,311.2,278.6,311.2z M277.4,308.9
			c0.1,0,0.5,0.1,1.2,0.1c4.1,0,8.3,0,12.4,0c5.1,0,10.2-0.1,15.2,0c0.8,0,1.1-0.1,1.2-0.2c0.2-0.2,0.2-0.6,0.2-1.1
			c0-0.5-0.1-0.9-0.2-1.1c-0.1-0.1-0.5-0.2-1.3-0.2c-3.3,0.1-6.6,0.1-9.9,0.1l-4.2,0l0,0l-3.8,0c-3.6,0-7.2,0-10.8,0.1
			c-0.2,0-0.7,0.2-1,0.4C276.6,307.6,277,308.4,277.4,308.9L277.4,308.9z M276.8,303.7c-0.8,0-1.7-0.1-2.4-0.7
			c-0.5-0.5-0.7-1.2-0.7-2.1c0-6.3,0-12.7-0.1-19.2l0-6.3c0-0.3,0.1-0.6,0.3-0.8c0.2-0.2,0.5-0.3,0.8-0.3l20.6-0.1h0
			c0.6,0,1.1,0.5,1.1,1.1l0.1,16.3c0,2.9,0,5.7,0.1,8.6c0,0.7,0,1.8-0.8,2.6c-0.7,0.7-1.8,0.8-2.5,0.8h-0.1c-4.4-0.1-8.8,0-13.2,0
			l-2.8,0C277,303.7,276.9,303.7,276.8,303.7z M275.8,276.5l0,5.2c0,6.5,0.1,12.8,0.1,19.2c0,0.4,0.1,0.5,0.1,0.5
			c0.1,0.1,0.3,0.1,1.1,0.1l2.8,0c4.4,0,8.9-0.1,13.3,0h0c0.7,0,0.9-0.1,0.9-0.1c0.1-0.1,0.2-0.3,0.2-1c-0.1-2.9-0.1-5.8-0.1-8.6
			l-0.1-15.2L275.8,276.5z M298.8,302.6h-0.4c-0.6,0-1.1-0.5-1.1-1.1l-0.1-24.9c0-0.3,0.1-0.6,0.3-0.8c0.2-0.2,0.5-0.3,0.8-0.3h0.4
			c0.6,0,1.1,0.5,1.1,1.1l0.1,24.9c0,0.3-0.1,0.6-0.3,0.8C299.3,302.5,299.1,302.6,298.8,302.6z M107.2,298.8c-0.4,0-0.9,0-1.3,0
			c-4.3-0.1-4.9-2.9-4.9-4.6c0.1-2.7,1.8-4.3,4.8-4.4c0.6,0,1.1,0,1.7,0h0.6c0.1,0,0.1,0,0.2,0c2.9,0,4.5,0.4,5.6,1.5
			c0.7,0.8,1.1,1.8,1.1,3.1c-0.1,3.8-3.3,4.4-6.7,4.4C107.9,298.8,107.5,298.8,107.2,298.8z M106.9,292c-0.4,0-0.7,0-1.1,0
			c-2.3,0.1-2.6,1.2-2.6,2.3c0,1.2,0.3,2.3,2.7,2.4c0.7,0,1.5,0,2.2,0c4.6,0,4.6-1.1,4.6-2.3c0-0.9-0.2-1.3-0.4-1.5
			c-0.6-0.6-1.9-0.9-4-0.9c-0.1,0-0.1,0-0.2,0h0h-0.6C107.3,292,107.1,292,106.9,292z M266.2,273.9c-0.5,0-0.9-0.3-1-0.8
			c-0.1-0.3-0.2-0.7-0.4-1c-0.3-0.8-0.7-1.7-0.7-2.7c-0.1-12.6-0.2-25.1-0.2-37.7l-0.3-50.8c0-0.2,0-0.4,0-0.6
			c0-0.6-0.1-1.2,0.1-1.9c0.2-0.6,0.5-1.1,0.9-1.5c0.1-0.1,0.2-0.3,0.3-0.4c0.2-0.3,0.6-0.5,0.9-0.5c0.4,0,0.7,0.2,0.9,0.5
			c0.1,0.1,0.2,0.3,0.3,0.4c0.3,0.4,0.6,0.8,0.7,1.4c0.2,0.6,0.1,1.2,0.1,1.7l0,0.5l0.1,11.1c0.1,25.9,0.3,51.9,0.3,77.8
			c0,1-0.3,1.9-0.6,2.7c-0.1,0.3-0.2,0.7-0.3,1C267.2,273.5,266.7,273.9,266.2,273.9C266.3,273.9,266.3,273.9,266.2,273.9z
			 M306.5,270.4c-0.3,0-0.6-0.1-0.8-0.4c-1.7-1.9-3.8-2.7-7.1-2.7c-0.1,0-0.2,0-0.3,0c-7.6,0.1-15.3,0.1-22.9,0.1l-2.4,0
			c-0.9,0.1-2,0.1-2.8-0.7c-0.5-0.5-0.8-1.3-0.8-2.3c0-1,0.3-1.8,0.8-2.3c0.8-0.8,1.9-0.8,2.8-0.7l0.5,0l2,0
			c7.2-0.1,14.5-0.1,21.7-0.1c5.6,0,9,2.5,10.4,7.6c0.1,0.5-0.1,1-0.5,1.2C306.8,270.3,306.6,270.4,306.5,270.4z M298.6,265.2
			c1.6,0,3.3,0.1,5.1,0.8c-1.4-1.7-3.6-2.4-6.6-2.4c-7.3,0-14.5,0-21.7,0.1l-2,0l-0.5,0c-0.4,0-1.1,0-1.3,0.1c0,0-0.1,0.2-0.1,0.7
			c0,0.4,0.1,0.6,0.1,0.6c0.2,0.2,0.9,0.2,1.3,0.2l2.4,0c7.6,0,15.3,0,22.9-0.1C298.3,265.2,298.5,265.2,298.6,265.2z M211.7,268.9
			c-1.2,0-2-0.3-2.6-0.9c-1-1-0.9-2.4-0.8-3.8l0-0.3c-0.2-1.1-0.3-2.5,0.6-3.5c0.7-0.8,1.8-1.1,3.5-1c4.3,0.3,6.9,2,6.9,4.6
			c-0.1,2.8-2.7,4.6-7,4.9C212,268.9,211.8,268.9,211.7,268.9z M211.8,261.5c-0.6,0-1.1,0.1-1.3,0.3c-0.2,0.2-0.3,0.6-0.1,1.8
			c0,0.1,0,0.2,0,0.2l0,0.4c-0.1,0.9-0.1,1.9,0.2,2.2c0.2,0.2,0.7,0.3,1.4,0.2c2.4-0.2,4.9-1,5-2.8c0-1.5-2.5-2.3-4.8-2.4
			C212,261.5,211.9,261.5,211.8,261.5z M107.1,263.6c-0.3,0-0.7-0.2-0.9-0.4c-0.2-0.3-0.3-0.6-0.2-1c1.3-4.3,3.9-4.6,7.8-3.7
			c0.6,0.1,0.9,0.7,0.8,1.2l-0.4,2.9c-0.1,0.5-0.5,0.9-1.1,0.9L107.1,263.6L107.1,263.6z M110.8,260.2c-1.1,0-1.7,0.4-2.1,1.2l3.5,0
			l0.1-1C111.8,260.3,111.2,260.2,110.8,260.2z M205.5,258.5C205.5,258.5,205.4,258.5,205.5,258.5l-88.1-4.5c-0.3,0-0.6-0.1-0.8-0.4
			c-0.2-0.2-0.3-0.5-0.3-0.8c0.2-2.8,0.3-4.4,1.2-5.3c1-1,2.3-0.9,4.8-0.7c9.1,0.6,18,1.1,27,1.6l6,0.3c3.5,0.2,6.9,0.4,10.4,0.6
			c6.9,0.4,13.9,0.7,20.8,1.2c2.2,0.2,3.6,0.2,4.2-0.3c0.5-0.5,0.7-1.9,0.8-3.9c0-0.4,0.1-0.8,0.2-1.3l0.1-0.5
			c0.1-0.5,0.5-0.9,1.1-0.9h0c6.3,0.2,12.5,6.3,13.6,13.5c0,0.3-0.1,0.6-0.3,0.9C206.1,258.4,205.8,258.5,205.5,258.5z M118.6,251.9
			l85.6,4.4c-1.3-5.2-5.7-9.6-10.3-10.3c0,0.2-0.1,0.3-0.1,0.5c-0.1,2.7-0.4,4.4-1.6,5.4c-1.2,1.1-3.2,1-5.8,0.9
			c-6.9-0.5-13.9-0.9-20.8-1.2c-3.5-0.2-6.9-0.4-10.4-0.6l-6-0.3c-9-0.5-17.9-1-26.9-1.6c-1.6-0.1-3-0.2-3.2,0.1
			C118.8,249.4,118.7,250.6,118.6,251.9z M188.6,246.7L188.6,246.7l-3.3-0.1c-2.3-0.1-4.5-0.2-6.7-0.3c-18.5-1-37-2.1-55.5-3.1
			c-2.1-0.1-3.6-0.2-4.5-1.2c-0.8-1-0.7-2.3-0.4-4.6c2.2-17.3,4.4-34.6,6.7-52c0.1-0.7,0.3-1.3,0.5-2c0.1-0.3,0.2-0.7,0.3-1.1
			c0.1-0.3,0.3-0.5,0.5-0.7c0.3-0.1,0.6-0.2,0.8-0.1l1.2,0.3c0.7,0.2,1.4,0.4,2,0.6l3.8,1.3c4.5,1.5,9,3,13.5,4.6
			c0.9,0.3,1.7,0.4,2.1,0.1c0.3-0.2,0.5-0.6,0.6-1.2c1.1-5.9,5.4-6.9,9.5-7c8.5-0.3,17.1-0.8,25.3-1.4c1.4,0,2.5,0.2,3.2,0.9
			c1,0.9,1.1,2.3,1.1,3.3c0,5.6,0,11.3,0.1,17l0.2,45.6c0,0.3-0.1,0.6-0.3,0.8C189.2,246.6,188.9,246.7,188.6,246.7z M127.6,183.9
			C127.6,183.9,127.6,183.9,127.6,183.9c-0.2,0.7-0.4,1.2-0.4,1.8c-2.2,17.3-4.5,34.6-6.7,52c-0.1,1-0.3,2.7-0.1,3
			c0.2,0.3,1.9,0.4,2.9,0.4c18.5,1.1,37,2.1,55.5,3.1c2.2,0.1,4.3,0.2,6.6,0.3l2.1,0.1l-0.2-44.4c0-5.7-0.1-11.3-0.1-17
			c0-0.9-0.1-1.5-0.4-1.8c-0.3-0.3-1-0.3-1.5-0.3c-8.2,0.5-16.8,1.1-25.4,1.4c-4.7,0.2-6.7,1.6-7.4,5.2c-0.2,1.2-0.8,2.1-1.7,2.6
			c-1,0.6-2.3,0.6-3.9,0c-4.5-1.6-9-3.1-13.5-4.6l-3.8-1.3c-0.6-0.2-1.2-0.4-1.8-0.5L127.6,183.9z M337.5,234.9c-1,0-2.2-0.1-3-0.9
			c-1-0.9-1.1-2.2-1.1-3.2c-0.2-15.8-2-31.8-5.2-47.6c-0.1-0.6-0.4-3.1,0.9-3.9c1.5-0.9,3.3-1.5,4.9-2l0.5-0.2c0.5-0.1,1,0,1.3,0.5
			c0.2,0.3,0.8,1.3,0.9,2c1.3,10.2,2.7,20.3,4,30.5l0.9,7.1c0.1,1,0.3,2,0.5,3.1c0.6,3.1,2.1,4.3,5.2,4.3l2.6,0c3.3,0,6.7,0,10-0.2
			c0.2,0,0.4,0,0.7,0c2.9,0,4.8,1.3,5.9,4c0.3,0.8,0.8,1.7,1.4,2.7c0.3,0.5,0.6,1.1,0.9,1.7c0.2,0.3,0.2,0.7,0,1
			c-0.2,0.3-0.5,0.5-0.9,0.6l-1.2,0.1c-0.7,0.1-1.3,0.1-1.8,0.1l-8,0c-6.3,0-12.7,0-19,0.1C337.6,234.9,337.5,234.9,337.5,234.9z
			 M334.4,179.6c-1.5,0.5-2.9,0.9-4.1,1.7c0,0.1-0.1,1,0,1.5c3.3,15.9,5.1,32.1,5.3,48c0,0.8,0.1,1.4,0.4,1.6
			c0.3,0.2,0.9,0.4,1.7,0.3c6.4-0.1,12.7-0.1,19-0.1l8,0c0.4,0,0.8,0,1.3-0.1c-0.1-0.1-0.1-0.2-0.1-0.2c-0.6-1-1.1-1.9-1.5-2.9
			c-0.8-2-2.1-2.8-4.4-2.6c-3.4,0.2-6.8,0.2-10.1,0.2l-2.6,0c-4.1,0-6.5-2-7.3-6.1c-0.2-1.1-0.3-2.1-0.5-3.2l-0.9-7.1
			c-1.3-10.2-2.6-20.3-4-30.5C334.5,180,334.5,179.8,334.4,179.6z M350.8,221.1c-2,0-4,0-6-0.1c-1.3,0-2.3-1.9-2.5-2.9
			c-1.1-8-2.1-16.1-3.2-24.1l-1.7-12.9c-0.1-0.5,0.2-1,0.7-1.1l0.7-0.3c0.5-0.2,1.1,0,1.4,0.5l21.6,39.3c0.2,0.3,0.2,0.7,0,1.1
			c-0.2,0.3-0.5,0.5-0.9,0.5l-4,0C354.7,221.1,352.7,221.1,350.8,221.1z M345,218.8c3.8,0.1,7.7,0.1,11.7,0l2.2,0L340,184.4l1.2,9.4
			c1,8,2.1,16.1,3.2,24.1C344.5,218.1,344.8,218.6,345,218.8z M327.9,175.6c-0.2,0-0.5-0.1-0.7-0.2c-0.3-0.2-0.4-0.5-0.4-0.8l-0.1-1
			c-0.2-3.4-0.3-6.6-0.5-9.8c0-0.4,0.1-0.9,0.1-1.3l0.1-0.5c0-0.3,0.2-0.6,0.5-0.8c0.3-0.2,0.6-0.2,0.9-0.1c5.2,1.8,8.3,4.8,8.1,8.1
			c-0.2,4-2.5,5.2-7.9,6.4C328.1,175.6,328,175.6,327.9,175.6z M328.5,163.6L328.5,163.6c0.1,3.2,0.3,6.3,0.4,9.5
			c4.3-1.1,4.8-2,4.9-4.1C334,167.1,331.9,165,328.5,163.6z"/>
	</g>
	<g>
		<path class="st0" d="M126.4,325.4c-0.1-13.7,10.5-24.7,24.2-24.9c13.5-0.2,24.9,11,24.9,24.6c0,13.5-11,24.7-24.5,24.8
			C137.4,350,126.5,339.1,126.4,325.4z M165.5,325.1c0-8.2-6.6-14.7-14.7-14.7c-8.1,0-14.7,6.7-14.6,14.8c0,8.1,6.7,14.7,14.8,14.6
			C159.1,339.8,165.5,333.3,165.5,325.1z"/>
		<path class="st0" d="M150.8,351c-14.2,0-25.5-11.2-25.6-25.5c-0.1-14.4,11-25.8,25.3-26c0.1,0,0.3,0,0.4,0c6.7,0,13,2.6,17.8,7.4
			c5,4.9,7.7,11.4,7.8,18.3c0,14.2-11.4,25.8-25.5,25.8H150.8z M127.4,325.4c0.1,13.1,10.4,23.4,23.4,23.4h0.1
			c12.9-0.1,23.4-10.7,23.4-23.7c0-6.3-2.5-12.3-7.1-16.8c-4.4-4.4-10.2-6.7-16.3-6.7c-0.1,0-0.2,0-0.4,0
			C137.5,301.8,127.3,312.3,127.4,325.4z M150.8,341c-4.2,0-8.2-1.6-11.1-4.6c-3-3-4.7-6.9-4.7-11.1c0-8.7,7-15.9,15.7-15.9h0.1
			c4.2,0,8.1,1.6,11.1,4.6c3,3,4.6,6.9,4.6,11.2l0,0c0,4.3-1.6,8.3-4.5,11.3C159.1,339.3,155.2,340.9,150.8,341
			C150.9,341,150.9,341,150.8,341z M150.8,311.5L150.8,311.5c-7.6,0-13.7,6.2-13.6,13.8c0,3.6,1.4,7,4,9.6c2.6,2.5,6,4,9.6,4h0.1
			c3.7,0,7.1-1.4,9.6-4c2.5-2.6,3.9-6,3.9-9.7l0,0c0-3.7-1.4-7.1-4-9.7C157.8,312.9,154.4,311.5,150.8,311.5z"/>
	</g>
	<g>
		<path class="st0" d="M140.8,269.6c0-1.5-0.1-3,0-4.5c0.2-3.5,1.9-5,5.5-4.9c7.1,0.3,14.3,0.6,21.4,0.9c4.3,0.2,5.5,1.5,5.5,5.7
			c0,2.8,0,5.7-0.2,8.5c-0.3,3.5-1.6,4.7-5.1,4.6c-7.8-0.3-15.6-0.6-23.4-1c-2.6-0.1-4-1.8-4-4.5
			C140.5,272.8,140.7,271.2,140.8,269.6z M156.9,263.6L156.9,263.6c-3.6-0.1-7.1-0.3-10.7-0.5c-1.8-0.1-2.6,0.6-2.6,2.4
			c0,2.5-0.1,5.1-0.4,7.6c-0.2,2.2,0.6,3.1,2.8,3.2c7.2,0.2,14.4,0.5,21.7,0.8c1.6,0.1,2.4-0.6,2.4-2.3c0-2.8,0-5.6,0.1-8.4
			c0-1.7-0.8-2.3-2.4-2.3C164.2,264,160.6,263.8,156.9,263.6z"/>
		<path class="st0" d="M168.3,281c-0.2,0-0.3,0-0.5,0c-8.5-0.3-17-0.7-23.4-1c-3.1-0.2-5-2.3-5-5.6c0-1.1,0.1-2.2,0.2-3.3l0.1-1.5
			l0-1.3c0-1.1,0-2.1,0-3.2c0.2-3.9,2.2-5.9,6.1-5.9c0.2,0,0.3,0,0.5,0l21.4,0.9c4.9,0.2,6.6,2,6.5,6.8l0,1.4c0,2.3,0,4.7-0.2,7.1
			C173.7,279.4,172.1,281,168.3,281z M145.7,261.3c-2.7,0-3.7,1.1-3.9,3.9c-0.1,1,0,2,0,3.1l0,1.4v0.1l-0.1,1.6
			c-0.1,1.1-0.2,2.1-0.2,3.2c0,2.2,1,3.3,3,3.4c6.4,0.3,14.8,0.7,23.4,1c2.9,0.2,3.7-0.6,3.9-3.6c0.2-2.3,0.2-4.6,0.2-6.9l0-1.5
			c0-3.6-0.8-4.4-4.5-4.6l-21.4-0.9C146,261.3,145.9,261.3,145.7,261.3z M167.9,278.2c-0.1,0-0.2,0-0.3,0
			c-7.2-0.3-14.4-0.6-21.6-0.8c-1.4,0-2.4-0.4-3-1.2c-0.7-0.7-0.9-1.8-0.8-3.2c0.2-2.4,0.3-5,0.4-7.5c0-1.2,0.3-2.1,1-2.7
			c0.6-0.6,1.5-0.9,2.7-0.8c2.6,0.2,5.2,0.3,7.7,0.4l2.6,0.1c0.1-0.1,0.2-0.1,0.4-0.1l3.5,0.2c2.5,0.1,5,0.2,7.5,0.3
			c2.9,0.1,3.5,1.9,3.5,3.4c-0.1,2.8-0.1,5.6-0.1,8.4c0,1.1-0.3,2-0.9,2.6C169.8,277.9,169,278.2,167.9,278.2z M145.9,264.1
			c-0.4,0-0.7,0.1-0.8,0.2c-0.2,0.2-0.3,0.6-0.3,1.2c0,2.6-0.1,5.2-0.4,7.7c-0.1,0.8,0,1.3,0.3,1.6c0.2,0.3,0.7,0.4,1.5,0.4
			c7.2,0.2,14.4,0.5,21.7,0.8c0.6,0,0.9-0.1,1.1-0.2c0.2-0.2,0.3-0.5,0.3-1c0-2.8,0-5.6,0.1-8.5c0-0.9-0.1-1.2-1.4-1.2
			c-2.5-0.1-5-0.2-7.5-0.3l-3.1-0.1c-0.1,0-0.3,0.1-0.4,0.1l-2.9-0.2c-2.6-0.1-5.2-0.3-7.8-0.4C146,264.1,145.9,264.1,145.9,264.1z"
			/>
	</g>
	<g>
		<path class="st0" d="M350.3,255.2c-0.8,0-1.7,0-2.5,0c-4.9,0-7.2-2.4-7.3-7.6c-0.1-3.9,2.4-6.3,6.9-6.4c2.5-0.1,5.1-0.2,7.6,0.1
			c3.7,0.3,5.8,2.7,5.7,6.1c-0.2,5.1-2.1,7.6-6.2,7.9C353.1,255.2,351.7,255.2,350.3,255.2L350.3,255.2z M353.2,244.1
			c0,2,0,3.9,0,5.8c3.1,0.3,4.7-0.7,4.8-2.7C358.2,245.1,356.6,244,353.2,244.1z"/>
		<path class="st0" d="M348.3,256.3c-0.2,0-0.3,0-0.5,0c-5.5,0-8.2-2.9-8.3-8.7c-0.1-4.5,2.9-7.3,7.9-7.5c2.9-0.1,5.3-0.2,7.7,0.1
			c4.1,0.4,6.8,3.2,6.7,7.2c-0.2,5.6-2.6,8.6-7.2,8.9c-1,0.1-1.9,0-2.9,0l-1.2,0c-0.1,0-0.1,0-0.1,0l-1.1,0
			C349,256.3,348.6,256.3,348.3,256.3z M351.3,242.2c-1.2,0-2.4,0-3.8,0.1c-2.7,0.1-5.9,1.1-5.9,5.3c0.1,4.6,1.9,6.5,6.2,6.5l2.3,0
			c0,0,0.1,0,0.2,0l1.4,0c0.9,0,1.9,0,2.8,0c2.3-0.1,5-1,5.2-6.8c0.1-2.8-1.7-4.7-4.7-4.9C353.7,242.2,352.5,242.2,351.3,242.2z
			 M354.2,251c-0.3,0-0.7,0-1.1-0.1c-0.6,0-1-0.5-1-1.1l0-5.8c0-0.6,0.5-1.1,1.1-1.1c2.4,0,4,0.4,5,1.4c0.7,0.7,1,1.7,1,2.7
			c-0.1,1.1-0.5,2-1.2,2.7C357.1,250.6,355.8,251,354.2,251z M354.3,245.2l0,3.6c1.2,0,1.9-0.3,2.2-0.6c0.3-0.3,0.5-0.6,0.5-1.2
			c0-0.7-0.2-1-0.3-1.1C356.2,245.5,355.4,245.3,354.3,245.2z"/>
	</g>
	<g>
		<path class="st0" d="M379.4,320c0.1,3.4-2.6,6.2-5.9,6.2c-3.2,0-5.9-2.7-6-5.9c-0.1-3.4,2.6-6.2,6-6.2
			C376.8,314.1,379.4,316.7,379.4,320z M373.9,316.6c-1.9-0.2-3.8,1.3-3.9,3.2c-0.1,2,0.9,3.5,3,3.7c2.2,0.3,3.6-0.9,4-3
			C377.4,318.7,375.8,316.8,373.9,316.6z"/>
		<path class="st0" d="M373.5,327.2c-3.8,0-7-3.1-7.1-7c-0.1-1.9,0.7-3.8,2-5.2c1.3-1.4,3.1-2.1,5-2.1c3.9,0,7,3,7,6.9l0,0
			c0,2-0.7,3.8-2.1,5.2C377.1,326.5,375.4,327.2,373.5,327.2L373.5,327.2z M373.5,315.2c-1.3,0-2.6,0.5-3.5,1.5
			c-0.9,1-1.4,2.2-1.4,3.6c0.1,2.7,2.3,4.8,4.9,4.8h0c1.3,0,2.5-0.5,3.4-1.4c0.9-1,1.5-2.3,1.4-3.6l0,0
			C378.3,317.3,376.2,315.2,373.5,315.2z M373.6,324.7c-0.3,0-0.5,0-0.8-0.1c-2.6-0.3-4.1-2.1-4-4.8c0-1.2,0.6-2.3,1.5-3.1
			c1-0.9,2.4-1.3,3.6-1.1l0,0c1.3,0.1,2.5,0.8,3.3,1.9c0.7,1,1,2.2,0.8,3.3C377.6,323.2,376,324.7,373.6,324.7z M373.5,317.7
			c-0.6,0-1.2,0.2-1.7,0.6c-0.5,0.4-0.8,1-0.8,1.5c-0.1,1.6,0.6,2.4,2.1,2.6c1.7,0.2,2.5-0.5,2.8-2.1c0.1-0.5,0-1.1-0.4-1.6
			c-0.4-0.6-1.1-1-1.8-1.1l0,0C373.7,317.7,373.6,317.7,373.5,317.7z"/>
	</g>
	<g>
		<path class="st0" d="M157.1,325.2c0,3.6-2.6,6.2-6.2,6.2c-3.5,0-6.3-2.7-6.3-6.2c0-3.6,2.8-6.5,6.4-6.4
			C154.4,318.9,157.1,321.7,157.1,325.2z M154.7,325.1c-0.1-2-1.8-3.8-3.8-3.8c-2.1,0-4,1.9-3.9,4c0.1,2,1.8,3.7,3.8,3.8
			C152.9,329.1,154.8,327.2,154.7,325.1z"/>
		<path class="st0" d="M150.8,332.5c-4.1,0-7.3-3.2-7.4-7.2c0-2,0.7-3.9,2.2-5.4c1.4-1.4,3.2-2.1,5.2-2.1h0.1c4,0.1,7.2,3.3,7.2,7.4
			h-1.1h1.1C158.1,329.4,155,332.5,150.8,332.5L150.8,332.5z M150.8,319.9c-1.4,0-2.7,0.5-3.7,1.5c-1,1-1.5,2.4-1.5,3.8
			c0,2.9,2.3,5.1,5.2,5.1h0c3,0,5.1-2.2,5.1-5.1l0,0C156,322.2,153.8,320,150.8,319.9C150.9,319.9,150.9,319.9,150.8,319.9z
			 M150.8,330.1L150.8,330.1c-2.6,0-4.9-2.2-4.9-4.8c0-1.3,0.5-2.6,1.4-3.6c0.9-1,2.2-1.5,3.5-1.5h0c2.6,0,4.8,2.2,4.9,4.8l0,0
			c0,1.3-0.5,2.6-1.4,3.6C153.4,329.6,152.1,330.1,150.8,330.1z M150.8,322.4c-0.7,0-1.4,0.3-2,0.9c-0.6,0.6-0.9,1.3-0.8,2
			c0,1.4,1.4,2.7,2.8,2.7h0c0.7,0,1.4-0.3,2-0.9c0.6-0.6,0.8-1.3,0.8-2l0,0C153.6,323.7,152.3,322.4,150.8,322.4L150.8,322.4z"/>
	</g>
</g>
</svg>
