<?xml version="1.0" encoding="utf-8"?>
<!-- Generator: Adobe Illustrator 19.1.0, SVG Export Plug-In . SVG Version: 6.00 Build 0)  -->
<svg version="1.1" id="Layer_1" xmlns="http://www.w3.org/2000/svg" xmlns:xlink="http://www.w3.org/1999/xlink" x="0px" y="0px"
	 viewBox="0 0 500 500" style="enable-background:new 0 0 500 500;" xml:space="preserve">
<style type="text/css">
	.st0{fill:#F8B017;}
	.st1{fill:none;}
	.st2{fill:#F5AF19;}
	.st3{fill:#E5D7C8;}
	.st4{fill:#F4AE19;}
	.st5{fill:#F7AF17;}
	.st6{fill:#0FA2D4;}
</style>
<g>
	<g>
		<g>
			<g>
				<path class="st0" d="M232.5,388.8c-1,0-2.2-0.2-3.4-0.6c-1-0.3-1.8-1.3-2-2.4c-0.2-1.5,0.4-3.2,1.6-4c1.9-1.4,5-3.4,9-3.5
					c0.5,0,1.4-0.5,1.8-0.8c1.1-0.6,2.1-1.3,3.1-2c0.5-0.3,1-0.7,1.5-1c-0.3-1.2-0.4-2.5-0.4-3.8c0-0.3,0-0.4-0.4-0.7
					c-1.5-1.1-1.6-2.3-1.5-2.9c0.1-0.5,0.3-1.3,1.2-2c-0.2-0.2-0.5-0.4-0.7-0.6c-0.9-0.8-1.7-1.5-2.7-1.7c-1.1-0.3-1.6-1.3-1.9-2.2
					c-0.1-0.2-0.2-0.4-0.2-0.6c-0.2-0.3-0.2-0.6-0.3-0.8c-3.6-1.8-5.6-4.8-7.7-7.7c-0.5-0.8-1.1-1.6-1.6-2.3l-9.5-12.6l-0.1,0
					c-3.3,0.7-6.6,1.3-9.9,1.9c-0.3,0.1-0.7,0.2-1.2,0c-0.1,0-0.2-0.1-0.3-0.1c0,0.1,0,0.1,0,0.2c-0.2,1.3-1.8,2-2.8,1.9
					c-0.2,0-0.4,0-0.5-0.1c-1.3-0.1-2.7-0.3-4.2-1.3c-0.5-0.4-1.3-0.6-2-0.9c-0.8-0.3-1.7-0.6-2.5-1.2c-1.3-0.9-2.8-1.5-4.3-2.1
					c-0.6-0.3-1.2-0.5-1.8-0.8c-0.6-0.3-1.1-0.8-1.3-1.4c-0.8-2.2-2.7-3.4-5-4.7c-0.8-0.5-1.4-1.1-1.9-1.7l-0.2-0.3
					c-0.3-0.3-0.5-0.6-0.6-0.9c-0.1-0.1-0.2-0.3-0.2-0.4c-2.8-1.7-4.1-4.2-5.3-6.7l-0.4-0.8c-0.7-1.3-1.3-2.7-2.3-3.6
					c-1.6-1.7-2.3-3.6-2.9-5.5c-0.3-1-0.7-2-1-3c-0.6-1.8-1.2-3.6-1.8-5.4c-0.3-1.1-0.4-2.2-0.5-3.2c-0.1-0.6-0.1-1.2-0.2-1.8
					c-0.1-0.5-0.2-1-0.4-1.5c-0.2-0.7-0.4-1.5-0.5-2.3c-0.1-0.9-0.1-1.8-0.1-2.6c0-0.8,0-1.5-0.1-2.3c-0.2-2.2-0.6-4.5-0.9-6.6
					l-0.1-0.6c-0.1-0.3-0.1-0.7-0.2-1c-2.1,0.8-4.3,1-6.6,0.8c-0.1,0-0.4,0.1-0.6,0.1c-0.2,0.1-0.4,0.1-0.6,0.2
					c-0.8,0.2-3.3,0.7-4.9-1.4c-1.1-0.1-1.9-0.8-2.5-1.2c-0.3-0.3-0.7-0.5-0.9-0.6c-0.2,0-0.6-0.2-0.9-0.5c-0.2-0.2-0.5-0.5-0.8-0.8
					c-0.9-0.8-1.9-1.7-2.2-2.9c-0.2-1.2-0.3-2.4-0.4-3.6l-0.1-0.8c-0.2-1.6,1.9-2.8,2.7-3.1c1.3-0.5,2.6-0.9,3.9-1.2
					c0.6-0.2,1.2-0.3,1.8-0.5l0.1,0c0.1,0,0.2-0.1,0.3-0.1c2.2-2.1,4.7-2.1,7-2.2c0.7,0,1.4,0,2.1-0.1c0.4-0.1,0.9-0.1,1.4-0.1
					c0.4,0,0.8-0.1,1.2-0.1c1.3-0.2,1.3-0.4,1.3-1c0.1-1.2,0.7-2.4,1.2-3.4c0.1-0.2,0.2-0.4,0.3-0.6c0.4-0.9,1.4-1.4,1.9-1.6
					c0.6-0.2,1.1-0.4,1.7-0.6c0.7-0.2,1.3-0.4,2-0.7c0.5-0.2,1.1-0.5,1.6-0.9c0.4-0.2,0.8-0.5,1.3-0.7c0.4-0.2,0.8-0.4,1.3-0.5
					c0.7-0.2,1.5-0.4,2.2-0.6c0.8-0.2,1.6-0.4,2.4-0.7c0.2,0,0.3-0.1,0.5-0.2c1.1-0.4,1.7-1.2,1.9-2.3c0.2-1.4,1-2.5,2.4-3.1
					c1.1-0.5,2.1-1.2,3.3-1.8c0.4-0.3,0.9-0.5,1.3-0.8c1.1-2.2,3-3.3,4.7-4.3c0.6-0.4,1.2-0.7,1.8-1.2c0.1-0.1,0.3-0.2,0.4-0.3
					c0.1-0.1,0.2-0.1,0.2-0.1c1.7-1.8,3.7-3,5.7-4.1l0.5-0.3c2.4-1.3,4.9-2.4,7.3-3.5c1.6-0.7,3.2-1.4,4.7-2.2
					c1.3-0.6,2.5-1.4,3.8-2.1c0.4-0.2,0.8-0.5,1.3-0.7c1.2-0.7,2.4-1.4,3.6-2.1c1.7-1,3.4-2,5.1-3c0.1-0.1,0.1-0.1,0.1-0.1l0,0
					c0,0,0-0.1,0-0.5c-0.2-1.5-0.2-3-0.3-4.4c0-0.6,0-1.2,0-1.8c0-1.1,0-2.1-0.1-3.1c0,0-0.2-0.3-0.3-0.4c-0.2-0.3-0.5-0.7-0.7-1.1
					c-0.3-0.7-0.4-1.3-0.5-1.9c0-0.2-0.1-0.3-0.1-0.5c-0.2-0.7-0.3-1.4-0.5-2.1c-0.2,0.2-0.5,0.5-0.7,0.7c-0.4,0.3-0.7,0.7-1.1,1.1
					c-1.2,1.2-2.5,2.6-4.7,3.1c-0.3,0.1-0.7,0.5-1.1,0.8c-0.4,0.4-0.9,0.8-1.5,1.2c-1.3,0.7-2.7,1.4-4,2.1c-2.3,1.2-4.7,2.4-6.8,3.9
					c-2.6,1.8-5.6,2.8-9.3,3.3l-1.4,0.2c-2.7,0.4-5.4,0.7-8.2,0.9c-1.4,0.1-2.8-0.1-4.2-0.2c-1.4-0.2-2.6-0.3-3.8-0.2
					c-1.5,0.1-3.6,0.2-5.6-0.7c-0.2,0.2-0.4,0.6-0.5,0.9c-0.8,3.9-1.6,8-2.4,12c-0.1,0.5-0.3,0.9-0.5,1.1c0,0.1-0.1,0.2-0.1,0.2
					l-0.6,1.2l-2.5-0.8c-0.4,0.3-0.7,0.5-1,0.7c-0.4,0.3-0.9,0.7-1.4,1.2l-0.4,0.4l-0.6,0.1c-0.9,0.1-1.8-0.1-2.5-0.2
					c-1.5-0.3-1.9-0.3-2.4,0.5l-1.2,1.7l-1.3-1.6c-1.3-1.7-2.5-5-2.5-7.8c-1.9,0.6-4.4,1.4-6.9-1.3l-1.4-1.5l1.9-0.9
					c0.2-0.1,0.5-0.2,0.7-0.3c0.5-0.2,0.9-0.4,1.3-0.6c1-0.4,2-0.8,3-1.2c1.6-0.7,3.3-1.3,4.9-2l0,0c0.7-1.3,1.3-2.7,2-4l0.6-1.2
					c0.5-1,0.8-1.6,0.7-2.4c-0.2-1.3,0.7-2.7,1.5-3.7c0.5-0.7,2-2.3,3.5-2.4c0.8-0.1,1.6-0.1,2.4-0.2c2.4-0.2,4.9-0.4,7.4-0.3
					c2.3,0.1,4.5-0.1,6.6-0.5c0.9-0.2,1.9-0.4,2.8-0.7c2.8-0.7,5.7-1.4,8.7-1.7c3.2-0.3,5.6-2,8.1-3.9c0.3-0.2,0.5-0.4,0.8-0.6
					c0.7-0.5,1.4-1,2.2-1.5c1.6-1.1,3-2.1,4.4-3.3c1.7-1.4,3.2-3.1,4.4-5l0.1-0.1c3.2-4.8,6.5-9.8,12.6-12.4
					c0.4-0.2,0.7-0.3,1.1-0.5c1.3-0.6,2.8-1.3,4.9-1.2c0.4,0,0.7,0,1,0.1c1.5,0.1,3,0.2,4.6,0.7c2.7,0.9,4.7,0.7,6.3-0.7
					c0.5-0.4,1.3-0.7,1.3-0.8c1.1-0.4,2.1-2.1,2.2-3.4c-0.5,0-0.9,0-1.4,0.1c-0.7,0-1.5,0.1-2.2,0c-1.3-0.1-2.3-0.6-2.9-1.4
					c-0.6-0.8-0.8-1.9-0.6-3.3c0.4-2.4,0-4.8-0.4-7.3l-0.1-0.8c-0.1-0.9-0.5-2.9,1.4-4.4c0.2-0.1,0.2-0.2,0.2-0.2
					c0-0.2-0.1-0.7-0.2-1c-0.2-0.6-0.7-2.7,0-4.6c0.2-0.5,0.4-1.1,0.5-1.8c0.1-0.6,0.3-1.1,0.5-1.7c0.5-1.4,1.3-2.6,2-3.7l0.2-0.4
					c0.7-1,1.3-1.8,2.1-2.3c0.6-0.4,1.3-0.7,2-1c0.2-0.1,0.4-0.2,0.7-0.3c0,0,0.1-0.1,0.1-0.1l0-0.1l1.1-0.5
					c0.2-0.1,0.3-0.1,0.4-0.2c0.4-0.2,0.7-0.4,1.1-0.5c2.2-0.9,4.4-0.9,6.5-0.8c0.5,0,1,0,1.4,0c0.1,0,0.2,0,0.4-0.1
					c0.2-0.1,0.5-0.1,0.9-0.2c0.1,0,0.3,0,0.4,0c0.7-0.1,1.6-0.2,2.4,0.3c0.2,0.1,0.5,0.3,0.7,0.4c1.5,0.8,3.1,1.7,4.3,3.1
					c0.1,0.1,0.3,0.3,0.4,0.4c0.7,0.7,1.5,1.7,1.7,2.8c0.2,1.1,0.7,2.3,1.2,3.5c0.8,1.9,1.8,4.1,1.6,6.6c-0.1,1-0.2,2-0.4,2.9
					c-0.1,0.6-0.2,1.2-0.3,1.9c-0.1,0.5-0.6,4.2-0.8,4.8l-0.1,0.6c0.2,0.2,0.4,0.5,0.5,0.7l0.1,0.1l0.7,1l-0.6,0.6
					c0,0.3,0,0.4-0.5,2c-0.2,0.6-0.4,1.2-0.4,1.4l-0.1,0c0.4,0.5,0.8,1,1.2,1.5c0,0,0,0,0,0l0.8-0.3l1.6,1.8l-2.7,5.2l3,0.1
					l-4.8,2.7c0,0-0.1,0.1-0.1,0.1c0,0,0.1,0,0.1,0c1.8-1.3,3.7-1.5,5.4-1.8c0.6-0.1,1.3-0.2,1.8-0.3c1.8-0.4,3.5-1.2,5.1-2.1
					c2.8-1.5,5.8-3.2,9.1-5.2c0.5-0.3,0.9-0.8,1.4-1.3c0.3-0.3,0.6-0.6,1-0.9c1.1-0.9,2.1-1.8,3.2-2.8c2.3-2,4.7-4.1,7-6.2
					c1-0.9,1.7-2,2.2-3.1c1.2-2.7,2.3-5.6,3.4-8.3c0.8-1.9,1.6-3.9,2.4-5.9c0.4-1,0.9-1.9,1.3-2.7c0.5-1.1,1.1-2.1,1.4-3.2
					c0.8-2.2,1.5-4.5,2.2-6.8c0.4-1.3,0.8-2.5,1.2-3.8l0.3-1c0.5-1.6,1.1-3.3,1.8-5c0.5-1.2,2-4.7,6.7-4.5c1,0.1,2,0.1,2.9,0.2
					c4.7,0.2,9.6,0.5,14.4,2.1c2.4,0.8,4.9,1.2,7.2,1.1c0.9,0,1.5,0.3,2.1,0.5c0.1,0.1,0.3,0.1,0.4,0.2l2.1,0.9l-1.6,1.6
					c-2,2.1-4.3,1.8-6.2,1.7c-0.2,0-0.3,0-0.5,0l4.6,6.5l-1.2,3.1l-0.7,0.2c-2.1,0.6-3.6-0.5-4.7-1.4c-2-1.5-4.5-3.3-7.1-4.5
					c-0.9-0.4-2.1-0.5-3.4-0.6c-0.6,0-1.2-0.1-1.9-0.2c-1.3-0.2-2.7,0-4.2,0.4c-0.1,0.5-0.2,1-0.3,1.6c-0.4,1.9-0.7,3.8-1,5.6
					c-0.1,0.6-0.1,1.3-0.2,2c-0.1,0.8-0.1,1.6-0.3,2.5c-0.2,0.9-0.4,1.8-0.6,2.7c-0.2,0.8-0.4,1.6-0.6,2.3
					c-0.7,3.9-2.1,7.6-3.5,11.2c-0.5,1.3-1,2.7-1.5,4.1c-0.5,1.5-1.1,3.1-1.6,4.3c-0.2,0.5-0.6,1.2-0.9,1.6
					c-1.2,1.5-2.2,2.6-3.1,3.7c-1.3,1.5-2.7,3.1-4,4.6c-1.2,1.4-2.4,2.8-3.6,4.1c-0.5,0.5-0.9,1.1-1.4,1.6c-0.8,0.9-1.5,1.8-2.4,2.7
					c-0.6,0.6-1.2,1.2-1.9,1.8c-0.7,0.6-1.3,1.2-1.9,1.9c-3.4,3.8-7.6,6.5-11.6,9.1c-0.5,0.3-1.1,0.7-1.6,1c-3.5,2.3-6.1,5.6-8,10.4
					c-0.8,1.9-1.6,3.9-3.1,5.7c-0.4,0.5-0.7,1.2-1,2c-0.1,0.3-0.2,0.6-0.4,0.9c-0.6,1.5-1.3,3-1.8,4.6c-0.2,0.6-0.4,1.2-0.6,1.8
					c-0.2,0.6-0.3,1.2-0.5,1.7c-0.2,0.7-0.5,1.4-0.7,2c-0.3,0.8-0.6,1.6-0.8,2.3c-0.1,0.2-0.1,0.6-0.1,0.9c0,0.3-0.1,0.6-0.1,1
					c0,0.3-0.1,0.5-0.1,0.8c-0.2,1-0.4,2.1-0.7,3.2c-0.1,0.3-0.3,0.6-0.5,0.9c0.3,0.5,0.5,1.1,0.5,1.6c0,2.5,0.8,4.9,1.5,6.7
					l0.3,0.7c0.7,1.8,1.4,3.5,2.6,4.9c1.3,1.4,1.7,3.3,1.3,5.5c-0.2,1.1-0.1,2.4,0,3.7c0,0.4,0.1,0.8,0.1,1.3
					c0.3,6.2-2.2,11.5-7.3,15.7c-0.8,0.7-1.5,1.5-2.3,2.3c-0.2,0.2-0.4,0.4-0.5,0.6c0.1,0.4,0.1,0.7,0.2,1.1
					c0.1,0.9,0.3,1.8,0.4,2.7c0,0.7-0.2,1.3-0.5,1.9c0,0.1,0,0.1-0.1,0.2c0.2,0.6,0.3,1.3,0.2,1.9c0.6,0.2,1.2,0.6,1.5,1.3
					c0.1,0.2,0.1,0.3,0.2,0.5c0.3,0,0.6,0,0.8,0.1c0.5,0.1,1.4,0.6,1.9,2c0.3,1,0.4,2.2,0.5,3.1l0.1,1c0.2,2.3,0.3,4.8,0.4,7.2
					c0,1.6-0.1,3.4-0.3,5.4c-0.1,1.2-1.4,2-2.2,2.3c-0.4,0.1-0.6,0.3-0.8,0.9c-0.4,0.9-1.1,1.6-2,2c-1,0.4-2.1,0.3-3.1-0.2
					c-0.9-0.5-1.7-0.8-2.4-0.9c-2.5-0.3-4.5-2.3-4.9-4.8c-0.6-4.1,0.1-7.9,0.8-11.7c0.1-0.5,0.2-1.1,0.3-1.6
					c0.3-1.9,1.6-3.6,2.8-5.2c0.8-1.1,1-2,0.5-3.1l-0.1-0.1c0,0,0-0.1,0-0.1c-1.1,1.1-2.3,1.8-3.7,2.3c-0.8,0.3-1.6,0.6-2.5,0.9
					c-2.3,0.9-4.8,1.8-7.3,2.4c-1.2,0.3-1.5,0.8-1.9,2.1c-0.1,0.3-0.1,0.6-0.2,1c0,0.2,0,0.4-0.1,0.6l0,0.3
					c-0.2,1.6-0.5,3.4-1.4,5.1c-0.6,1.1-1.3,2.5-1.2,4.1c0.2,2.6-0.9,4.9-3.5,7c-0.8,0.7-1,1.2-1,1.7c0,0.3-0.1,0.6-0.2,0.9
					c-0.9,1.7-0.8,2.8,0.3,4c1.1,1.2,0.5,3.3,0.2,4.4c-0.5,1.4-1.2,2.7-2,3.9l0,0.1l0,0c1.9,0.1,3.3,1.1,4.3,2.8
					c0.1,0.2,0.5,0.5,0.8,0.8l0.1,0.1c1.5,1.3,2,2.8,1.7,4.4c0.6,1,1.1,2,1.7,3c1,1.7,2,3.6,2.9,5.4c1,1.9,2,3.9,2.9,5.8
					c1,2,2,4,3.1,6c0.1,0.3,0.4,0.6,0.7,0.9c0.3,0.3,0.6,0.7,0.9,1.1c0.6,1,1.3,2.1,1.9,3.4c0.4,0.9,0.9,1.7,1.3,2.6
					c0.5,1,1,1.9,1.5,2.9c0.2-0.1,0.6-0.3,1-0.4l0.1,0c0.9-0.2,2.2-0.4,3,0.5c0.9,1,0.9,2.4,0.9,2.9c0,1.1-0.1,2.1-0.2,3.1h1.4
					l-0.2,1.7c0,0.1,0,0.1,0,0.2c0,0.3,0,0.8-0.3,1.3c-0.2,0.3-0.3,0.6,0,1.4c0.5,1,0.9,2,1.2,3.2c0.2,0.5,0.1,1,0.1,1.5
					c0,0.2,0,0.4,0,0.5c0.1,0.7,0.2,1.2,0.3,1.7c0.1,0.5,0.3,1,0.5,1.5c0.2,0.5,0.4,1.1,0.5,1.6c0.6,1.9-0.2,3.5-0.9,4.7
					c-0.2,0.3-0.3,0.6-0.4,0.9c-0.4,1-1.6,1.1-2,1.1c-4.2,0.3-8,0.4-11.9-0.6c-2.1-0.6-4.4-0.2-7,1.2c-1.9,1-4.2,1.3-5.9,1.4
					c-2.1,0.2-3.9,0.4-5.8,1C233.7,388.7,233.1,388.8,232.5,388.8z M230.1,385.3c1.4,0.4,2.6,0.6,3.3,0.3c2.1-0.6,4.1-0.9,6.4-1.1
					c1.5-0.1,3.4-0.4,4.8-1.1c3.3-1.7,6.3-2.2,9.1-1.4c3.4,0.9,6.7,0.8,10.7,0.6c0.1-0.1,0.1-0.3,0.2-0.4c0.6-1.1,0.9-1.7,0.6-2.4
					c-0.1-0.5-0.3-1-0.5-1.5c-0.2-0.5-0.4-1.1-0.6-1.7c-0.2-0.6-0.3-1.3-0.4-2.2c0-0.3,0-0.7,0-0.9c0-0.2,0-0.4,0-0.5
					c-0.3-1-0.6-1.9-1-2.7c-0.5-1-0.6-1.9-0.5-2.8h-1l0.1-1.6c0-0.5,0.1-0.9,0.1-1.4c0.1-1.1,0.2-2.1,0.2-3.2c0-0.1,0-0.3,0-0.4
					c-0.1,0-0.2,0-0.3,0l-0.1,0c0,0-0.1,0.1-0.2,0.1c-0.3,0.2-0.7,0.4-1.2,0.4c-0.7,0.1-2-0.1-2.6-1.1c-0.6-1.2-1.2-2.4-1.8-3.5
					c-0.4-0.9-0.8-1.7-1.3-2.6c-0.6-1.2-1.2-2.2-1.8-3.1c-0.2-0.2-0.4-0.5-0.6-0.8c-0.4-0.4-0.8-0.9-1.1-1.5c-1-2-2.1-4-3.1-6
					c-1-1.9-1.9-3.8-2.9-5.7c-0.9-1.8-1.9-3.6-2.9-5.3c-0.6-1.1-1.2-2.2-1.8-3.2c-0.3-0.5-0.4-1.1-0.2-1.7c0.1-0.5,0-1-0.7-1.7
					l-0.1-0.1c-0.4-0.4-1-0.9-1.4-1.5c-0.6-1-1.1-1.3-2.1-1.4c-1.1,0-2-0.6-2.5-1.4c-0.5-0.9-0.4-2.1,0.2-3.2l0-0.1
					c0.7-1.1,1.3-2.2,1.7-3.4c0.2-0.7,0.3-1.3,0.3-1.6c-1.8-2.1-2-4.4-0.7-7.1c0.1-1.9,1.2-3,2.1-3.7c1.8-1.5,2.5-2.9,2.4-4.5
					c-0.2-2.4,0.7-4.3,1.6-5.8c0.7-1.2,0.9-2.5,1.1-4l0-0.3c0-0.2,0-0.3,0.1-0.5c0.1-0.5,0.1-1,0.3-1.6c0.5-1.8,1.4-3.5,4.1-4.2
					c2.3-0.6,4.7-1.4,6.9-2.3c0.8-0.3,1.7-0.6,2.5-0.9c1.5-0.5,2.7-1.5,3.7-2.9c0.4-0.5,0.8-1,1.2-1.4c0.2-0.2,0.3-0.3,0.5-0.5
					l0.8-0.8l1.5,0.8c0-0.1,0-0.2-0.1-0.4c-0.1-0.7,0.2-1.4,0.6-1.9c0.3-0.3,0.5-0.5,0.8-0.8c0.8-0.9,1.6-1.8,2.6-2.6
					c4.4-3.6,6.4-8,6.2-13.3c0-0.4,0-0.8-0.1-1.2c-0.1-1.4-0.2-2.9,0.1-4.4c0.2-1.3,0-2.3-0.6-3c-1.6-1.8-2.4-3.8-3.2-5.8l-0.3-0.7
					c-0.8-1.9-1.6-4.4-1.7-7.2c-0.1,0-0.1,0-0.2,0l-1.7,0.4l-0.1-1.8c-0.1-1.9,1.2-2.4,2-2.6c0,0,0.1-0.1,0.2-0.1
					c0.3-0.8,0.4-1.7,0.6-2.6c0-0.3,0.1-0.5,0.1-0.8c0-0.2,0.1-0.5,0.1-0.7c0-0.5,0.1-1,0.3-1.5c0.3-0.8,0.6-1.7,0.9-2.5
					c0.2-0.6,0.5-1.3,0.7-1.9c0.2-0.5,0.3-1,0.5-1.6c0.2-0.7,0.4-1.4,0.6-2c0.6-1.6,1.2-3.2,1.9-4.7c0.1-0.3,0.2-0.5,0.3-0.8
					c0.3-0.9,0.7-2,1.5-2.8c1.2-1.4,1.9-3.1,2.6-4.9c2.2-5.4,5.1-9.2,9.2-11.8c0.5-0.3,1.1-0.7,1.6-1c3.9-2.5,7.9-5.1,11-8.5
					c0.7-0.8,1.4-1.4,2.1-2.1c0.6-0.6,1.2-1.1,1.7-1.7c0.8-0.8,1.5-1.7,2.2-2.6c0.5-0.6,0.9-1.1,1.4-1.7c1.2-1.4,2.4-2.8,3.6-4.1
					c1.3-1.5,2.7-3.1,4-4.6c0.9-1,1.9-2.2,3-3.6c0.1-0.2,0.4-0.6,0.5-0.8c0.5-1.2,1-2.7,1.6-4.2c0.5-1.4,1-2.8,1.5-4.1
					c1.4-3.6,2.7-7,3.3-10.7c0.2-0.9,0.4-1.7,0.6-2.6c0.2-0.8,0.4-1.6,0.6-2.4c0.1-0.7,0.2-1.4,0.2-2.2c0-0.7,0.1-1.5,0.2-2.3
					c0.3-1.9,0.7-3.8,1-5.7c0.2-0.8,0.3-1.6,0.5-2.4l0.2-0.9l0.8-0.3c2.2-0.8,4.4-1,6.4-0.8c0.5,0.1,1.1,0.1,1.7,0.1
					c1.5,0.1,3,0.2,4.5,0.8c2.9,1.3,5.5,3.1,7.6,4.8c0.7,0.5,1.1,0.8,1.4,0.9l0,0l-6.3-9l1.8-0.6c-0.4-0.1-0.8-0.2-1.2-0.4
					c-4.4-1.5-8.9-1.7-13.6-1.9c-1,0-2-0.1-3-0.2c-1.8-0.1-2.8,0.6-3.7,2.6c-0.6,1.5-1.2,3.1-1.7,4.7l-0.3,1
					c-0.4,1.2-0.8,2.5-1.2,3.8c-0.7,2.3-1.5,4.6-2.3,6.9c-0.4,1.2-1,2.4-1.6,3.5c-0.4,0.9-0.9,1.7-1.2,2.5c-0.8,1.9-1.6,3.9-2.3,5.8
					c-1.1,2.8-2.2,5.6-3.4,8.4c-0.7,1.5-1.6,2.9-2.9,4.1c-2.3,2.2-4.7,4.3-7.1,6.3c-1.1,0.9-2.1,1.8-3.1,2.7
					c-0.3,0.2-0.5,0.5-0.8,0.8c-0.6,0.6-1.2,1.2-2,1.7c-3.4,2.1-6.4,3.8-9.3,5.3c-1.7,0.9-3.8,1.9-5.9,2.3c-0.7,0.2-1.4,0.2-2.1,0.3
					c-1.6,0.2-3,0.4-4.2,1.3c-1.2,0.9-3.3,0.4-4.3-0.3c-0.6-0.5-1-1.2-0.9-2c0-0.4,0.2-0.9,0.4-1.3c-0.4-0.7-0.3-1.5-0.2-2
					c0-0.2,0-0.4,0-0.5l-0.1-5.6l1.7,2.9l0.4-2.6c-0.1-0.2-0.3-0.4-0.4-0.5c-0.4-0.6-0.7-1.4-0.7-2.1l0.3,0c0-0.2,0.1-0.4,0.4-1.6
					l-1.9-0.2l1.3-4.8l0.3,0.2l-0.4-2.3l1,0.4c0.2-1.2,0.4-2.6,0.4-2.8c0.1-0.6,0.2-1.3,0.3-1.9c0.1-0.9,0.3-1.8,0.4-2.7
					c0.2-1.7-0.6-3.4-1.3-5.1c-0.6-1.3-1.2-2.6-1.4-4.1c-0.1-0.3-0.7-1-1-1.3c-0.2-0.2-0.3-0.4-0.5-0.5c-0.8-1-2.2-1.7-3.5-2.4
					c-0.2-0.1-0.5-0.2-0.7-0.4c-0.1,0-0.4,0-0.6,0.1c-0.2,0-0.4,0.1-0.6,0.1c-0.1,0-0.2,0-0.4,0.1c-0.3,0.1-0.7,0.2-1.1,0.2
					c-0.5,0-1,0-1.5,0c-1.9,0-3.7-0.1-5.3,0.6c-0.2,0.1-0.4,0.2-0.5,0.2l0,0.2l-1.2,0.5v0.4l-1.1,0.2c-0.3,0.1-0.6,0.2-0.8,0.3
					c-0.6,0.2-1,0.4-1.4,0.6c-0.4,0.3-0.9,0.8-1.3,1.5l-0.3,0.4c-0.7,1.1-1.4,2-1.7,3.1c-0.2,0.4-0.3,0.9-0.4,1.4
					c-0.2,0.7-0.4,1.4-0.7,2.2c-0.2,0.6-0.2,1.6,0.1,2.5c0.4,1.1,0.9,3-1,4.5c-0.3,0.2-0.5,0.3-0.3,1.5l0.1,0.8
					c0.5,2.7,1,5.4,0.4,8.4c-0.1,0.6,0,0.8,0,0.9c0,0.1,0.3,0.2,0.7,0.2c0.6,0,1.2,0,1.8,0c0.6,0,1.2-0.1,1.8-0.1
					c0.6,0,2.3,0.4,2.7,1.7c0.7,2.7-1.2,6.4-3.9,7.5c-0.2,0.1-0.5,0.2-0.5,0.3c-2.5,2-5.6,2.5-9.2,1.2c-1.2-0.4-2.5-0.5-3.8-0.6
					c-0.4,0-0.7,0-1.1-0.1c-1.2-0.1-2.2,0.3-3.3,0.9c-0.4,0.2-0.8,0.4-1.2,0.5c-5.2,2.2-8.1,6.6-11.2,11.3l-0.1,0.1
					c-1.4,2.1-3,4-5,5.6c-1.5,1.3-3.1,2.4-4.6,3.4c-0.7,0.5-1.4,1-2.1,1.5c-0.3,0.2-0.5,0.4-0.8,0.6c-2.8,2-5.6,4.1-9.7,4.4
					c-2.7,0.2-5.5,0.9-8.2,1.6c-1,0.2-1.9,0.5-2.9,0.7c-2.4,0.6-4.9,0.8-7.4,0.6c-2.3-0.1-4.6,0.1-7,0.3c-0.8,0.1-1.6,0.1-2.4,0.2
					c-0.7,0.2-2.1,2-2.2,2.6c0.2,1.7-0.4,3-0.9,4.1l-0.6,1.2c-0.7,1.3-1.3,2.7-2.1,4.1c-0.3,0.6-0.9,1.1-1.5,1.3
					c-1.5,0.6-3,1.2-4.5,1.8c0.5-0.1,1-0.2,1.6-0.2l2.5-0.1l-1.1,2.2c-0.5,1.1-0.1,3.8,0.8,5.8c1.4-0.8,2.9-0.4,3.9-0.2
					c0.4,0.1,0.7,0.2,1,0.2c0.5-0.6,1.1-1,1.7-1.3c0.9-0.5,2.5-1.8,3-2.3l0.7-0.8c0.6-3.2,1.3-6.3,1.9-9.4c0.3-1.3,1.3-2.7,2.4-3.3
					c0.7-0.3,1.4-0.3,2.1,0c1,0.6,2.3,0.7,4.3,0.6c1.5-0.1,3,0,4.5,0.2c1.3,0.1,2.5,0.3,3.7,0.2c2.7-0.2,5.4-0.5,8-0.9l1.4-0.2
					c3.3-0.4,5.8-1.3,8.1-2.8c2.3-1.5,4.7-2.8,7.1-4c1.3-0.7,2.6-1.4,3.9-2.1c0.3-0.2,0.6-0.5,1-0.8c0.6-0.6,1.4-1.2,2.4-1.5
					c1.3-0.3,2.2-1.3,3.2-2.3c0.4-0.4,0.8-0.8,1.2-1.2c0.5-0.5,1-1,1.6-1.6c0.3-0.3,0.6-0.6,0.9-1l2-2l0.9,4.4
					c0.3,1.2,0.5,2.2,0.7,3.3c0,0.2,0.1,0.4,0.1,0.5c0.1,0.5,0.2,1,0.4,1.4c0.1,0.1,0.2,0.3,0.3,0.5c0.3,0.5,0.7,1,0.8,1.8
					c0.1,1.2,0.2,2.3,0.2,3.4c0,0.6,0,1.1,0,1.7c0.1,1.4,0.1,2.8,0.3,4.2c0.1,0.7,0.3,2.4-1.6,3.5c-1.7,1-3.4,2-5.1,3
					c-1.2,0.7-2.4,1.4-3.6,2.1c-0.4,0.2-0.8,0.5-1.2,0.7c-1.3,0.8-2.6,1.6-4,2.3c-1.6,0.8-3.3,1.5-4.9,2.2c-2.4,1-4.8,2.1-7,3.4
					l-0.5,0.3c-1.9,1-3.6,2-5,3.5c-0.3,0.3-0.6,0.5-0.8,0.7c-0.1,0-0.1,0.1-0.2,0.1c-0.7,0.5-1.4,0.9-2,1.3c-1.6,1-3,1.8-3.7,3.3
					c-0.3,0.6-0.7,0.8-1,1c-0.5,0.3-0.9,0.6-1.4,0.8c-1.1,0.7-2.3,1.4-3.5,2c-0.6,0.3-0.6,0.5-0.7,0.8c-0.3,2.3-1.6,3.9-3.8,4.7
					c-0.2,0.1-0.5,0.2-0.7,0.2c-0.8,0.2-1.7,0.5-2.5,0.7c-0.7,0.2-1.5,0.4-2.2,0.6c-0.3,0.1-0.6,0.2-0.8,0.3
					c-0.4,0.2-0.8,0.4-1.1,0.6c-0.6,0.4-1.3,0.7-2,1c-0.7,0.3-1.5,0.6-2.2,0.8c-0.5,0.2-1.1,0.3-1.6,0.5c-0.1,0.1-0.2,0.1-0.3,0.2
					c-0.1,0.2-0.2,0.3-0.2,0.5c-0.4,0.8-0.8,1.6-0.8,2.3c-0.3,3.3-3,3.6-4,3.8c-0.4,0.1-0.9,0.1-1.3,0.1c-0.4,0-0.8,0.1-1.2,0.1
					c-0.8,0.1-1.6,0.1-2.4,0.1c-2,0.1-3.7,0.1-5,1.4c-0.5,0.5-1.1,0.6-1.5,0.8l-0.1,0c-0.6,0.2-1.2,0.4-1.8,0.5
					c-1.3,0.4-2.5,0.7-3.7,1.2c-0.2,0.1-0.5,0.3-0.7,0.4l0,0.4c0.1,1.1,0.2,2.2,0.4,3.3c0.1,0.3,0.8,0.9,1.2,1.3
					c0.3,0.2,0.5,0.5,0.8,0.7c0.7,0.3,1.2,0.7,1.7,1c0.7,0.5,0.9,0.7,1.2,0.6c0.7-0.1,1.3,0.2,1.7,1c0.3,0.5,0.6,0.8,1.9,0.5
					c0.1,0,0.3-0.1,0.4-0.1c0.5-0.1,1.1-0.3,1.8-0.2c2,0.2,3.8,0,5.6-0.8l-0.3-1.3l2.2,0.7c0.4,0.1,0.7,0.3,0.9,0.5l0.8,0.9
					l-0.3,0.5c0,0.1,0,0.2,0.1,0.3c0.2,0.7,0.3,1.3,0.4,2l0.1,0.6c0.3,2.2,0.7,4.5,0.9,6.8c0.1,0.9,0.1,1.7,0.1,2.6
					c0,0.8,0,1.6,0.1,2.3c0.1,0.6,0.2,1.2,0.4,1.8c0.2,0.6,0.3,1.2,0.4,1.8c0.1,0.7,0.2,1.4,0.2,2.1c0.1,1,0.2,1.9,0.4,2.7
					c0.5,1.8,1.1,3.5,1.7,5.2c0.4,1,0.7,2.1,1.1,3.1c0.6,1.7,1.1,3.2,2.2,4.4c1.2,1.3,2,2.8,2.8,4.3l0.4,0.8
					c1.1,2.2,2.2,4.3,4.2,5.5c0.7,0.4,1,1,1.3,1.5c0.1,0.2,0.2,0.4,0.3,0.4l0.2,0.3c0.4,0.4,0.8,0.9,1.1,1.1c2.1,1.2,5,2.8,6.3,6.1
					c0.5,0.2,1,0.4,1.5,0.6c1.6,0.7,3.2,1.4,4.8,2.4c0.5,0.3,1.2,0.6,1.9,0.9c0.9,0.3,1.8,0.7,2.6,1.3c0.8,0.6,1.7,0.7,2.8,0.8
					c0.1,0,0.1,0,0.2,0c0.2-0.8,0.6-1.3,1.2-1.7c1-0.6,2-0.4,2.6-0.3l0,0c3.3-0.6,6.5-1.3,9.9-1.9l1.9-0.4l10.6,14.2
					c0.6,0.8,1.1,1.6,1.7,2.4c1.9,2.8,3.8,5.5,6.9,6.9c0.8,0.4,1.1,1.2,1.2,1.7c0,0.1,0.1,0.2,0.1,0.3c0.1,0.2,0.2,0.5,0.3,0.8
					c0.1,0.1,0.2,0.4,0.2,0.5c1.5,0.5,2.6,1.4,3.6,2.3c0.4,0.4,0.9,0.8,1.3,1c0.8,0.5,1.2,1.3,1.1,2.1c0,0.5-0.3,1.4-1.6,2
					c-0.1,0-0.2,0.1-0.2,0.1c0,0,0.1,0.1,0.2,0.1c1.1,0.8,1.6,1.9,1.6,3.2c0,1,0.1,2.1,0.3,3c0.4,1.3,0,2.4-1.1,3.1
					c-0.6,0.4-1.1,0.7-1.7,1.1c-1.1,0.7-2.1,1.4-3.3,2.1c-1,0.6-2.1,1.2-3.3,1.2c-2.4,0.1-4.7,1-7.3,2.9
					C230.1,384.4,230,385.1,230.1,385.3z M263.3,282.3c-0.2,0.4-0.5,0.8-0.8,1.2c-1,1.4-2,2.7-2.2,3.9c-0.1,0.6-0.2,1.1-0.3,1.7
					c-0.7,3.7-1.3,7.1-0.8,10.7c0.2,1.2,1.1,2.1,2.3,2.2c1,0.1,2.2,0.5,3.4,1.2c0.2,0.1,0.5,0.1,0.7,0.1c0.2-0.1,0.2-0.2,0.3-0.2
					c0.3-0.9,1-2.2,2.7-2.7c0,0,0.1,0,0.2-0.1c0.2-1.7,0.3-3.2,0.2-4.6c-0.1-2.3-0.2-4.7-0.4-7l-0.1-1c-0.1-0.8-0.1-1.5-0.3-2.2
					c-0.2,0.2-0.5,0.3-0.7,0.5c-0.1,0.1-0.3,0.2-0.4,0.3l-3.3,2.1l1-3.8c0.1-0.4,0.3-0.8,0.4-1.1c0-0.1,0.1-0.2,0.1-0.3
					c-0.1,0-0.2-0.1-0.3-0.1c-0.3-0.1-0.7-0.2-1-0.4L263.3,282.3z M263.1,276.8c0,0.1,0.1,0.3,0.2,0.4l0.1,0.2
					c0,0.1,0.1,0.2,0.1,0.3c0.1-0.2,0.2-0.4,0.3-0.6c0.1-0.2,0.2-0.4,0.2-0.5c0-0.2,0-0.5-0.1-0.7
					C263.8,276.2,263.6,276.6,263.1,276.8z"/>
			</g>
		</g>
		<g>
			<g>
				<path class="st0" d="M163.9,228.7c-0.6,0-1.3-0.2-2-0.6c-0.8-0.5-1.8-1.6-2-2.8c-0.4-2.4,0.8-4,1.8-5.4c0.1-0.2,0.3-0.4,0.4-0.6
					c1-1.4,3.5-1.9,4.9-1c0.8,0.5,1.2,1.6,1.2,2.5c-0.1,1.4-0.2,2.9-0.4,4.3c0,0.5-0.1,1-0.1,1.6l-0.1,1l-1.6,0.4
					c-0.5,0.1-0.9,0.3-1.4,0.4C164.4,228.7,164.2,228.7,163.9,228.7z M165.2,220.9c-0.2,0-0.5,0.1-0.6,0.2c-0.1,0.2-0.3,0.4-0.4,0.6
					c-0.9,1.2-1.4,2.1-1.3,3.2c0.1,0.3,0.7,0.8,1,0.9c0.3-0.1,0.6-0.2,1-0.3c0-0.2,0-0.4,0.1-0.5C165,223.5,165.1,222.2,165.2,220.9
					z"/>
			</g>
		</g>
	</g>
	<g>
		<g>
			<path class="st0" d="M163.8,276.2l-0.5-3c6.9-1.1,14.4-3.7,14.6-5.9c0.1-1.5,0.3-3.9,32.9-18.3c15.7-6.9,31.6-13.4,31.8-13.4
				l0.5-0.2l0.5,0.2c0.1,0,15.3,4.8,25.6-3.8l1.9,2.3c-10.6,8.9-25,5.4-28,4.5c-28.8,11.7-60.1,25.7-62.3,29.2
				C180.1,273.2,167.6,275.6,163.8,276.2z"/>
		</g>
	</g>
	<g>
		<g>
			<path class="st0" d="M246.4,283.3c-2.9,0-5.5-0.7-8-2c-13.9-7.6-16-33.9-16.1-35l3-0.2c0,0.3,2.1,25.8,14.5,32.6
				c4.9,2.6,10.8,2.1,17.7-1.7l1.4,2.6C254.5,282.1,250.3,283.3,246.4,283.3z"/>
		</g>
	</g>
	<g>
		<g>
			<polygon class="st0" points="212.9,336.2 207.1,334 205.5,330 196.5,326.7 195.2,318.9 188.1,314.1 186.4,306.3 179.6,299.9 
				178.3,292.5 173.5,285.3 171.5,272.9 174.4,272.4 176.4,284.1 181.2,291.4 182.4,298.4 189.2,304.8 190.7,312.3 198,317.1 
				199.2,324.5 207.8,327.6 209.4,331.6 214,333.4 			"/>
		</g>
	</g>
	<g>
		<g>
			
				<rect x="250.4" y="353.8" transform="matrix(0.2785 0.9604 -0.9604 0.2785 529.0051 18.9232)" class="st0" width="3" height="15.5"/>
		</g>
	</g>
	<g>
		<g>
			
				<rect x="253.3" y="363.4" transform="matrix(0.2348 0.9721 -0.9721 0.2348 557.0234 37.2519)" class="st0" width="3" height="17.9"/>
		</g>
	</g>
	<g>
		<g>
			<path class="st0" d="M249.6,367.2c-1.7,0-3.2-1.4-3.2-3.2s1.4-3.2,3.2-3.2s3.2,1.4,3.2,3.2S251.3,367.2,249.6,367.2z
				 M249.6,362.7c-0.7,0-1.4,0.6-1.4,1.4s0.6,1.4,1.4,1.4s1.4-0.6,1.4-1.4S250.3,362.7,249.6,362.7z"/>
		</g>
	</g>
	<g>
		<g>
			<path class="st0" d="M247.8,374.2c-1.7,0-3.2-1.4-3.2-3.2c0-1.7,1.4-3.2,3.2-3.2s3.2,1.4,3.2,3.2
				C250.9,372.8,249.5,374.2,247.8,374.2z M247.8,369.7c-0.7,0-1.4,0.6-1.4,1.4s0.6,1.4,1.4,1.4s1.4-0.6,1.4-1.4
				S248.5,369.7,247.8,369.7z"/>
		</g>
	</g>
	<g>
		<g>
			<path class="st0" d="M254.3,373.4c-1.7,0-3.2-1.4-3.2-3.2c0-1.7,1.4-3.2,3.2-3.2s3.2,1.4,3.2,3.2
				C257.5,372,256,373.4,254.3,373.4z M254.3,368.9c-0.7,0-1.4,0.6-1.4,1.4c0,0.7,0.6,1.4,1.4,1.4s1.4-0.6,1.4-1.4
				C255.7,369.5,255,368.9,254.3,368.9z"/>
		</g>
	</g>
	<g>
		<g>
			<path class="st0" d="M261.1,371.4c-1.7,0-3.2-1.4-3.2-3.2c0-1.7,1.4-3.2,3.2-3.2s3.2,1.4,3.2,3.2
				C264.3,370,262.9,371.4,261.1,371.4z M261.1,366.9c-0.7,0-1.4,0.6-1.4,1.4c0,0.7,0.6,1.4,1.4,1.4s1.4-0.6,1.4-1.4
				C262.5,367.5,261.9,366.9,261.1,366.9z"/>
		</g>
	</g>
	<g>
		<g>
			<path class="st0" d="M257.8,364.5c-1.7,0-3.2-1.4-3.2-3.2c0-1.7,1.4-3.2,3.2-3.2s3.2,1.4,3.2,3.2
				C261,363.1,259.5,364.5,257.8,364.5z M257.8,360c-0.7,0-1.4,0.6-1.4,1.4c0,0.7,0.6,1.4,1.4,1.4s1.4-0.6,1.4-1.4
				C259.2,360.6,258.6,360,257.8,360z"/>
		</g>
	</g>
	<g>
		<g>
			
				<rect x="167.8" y="257.6" transform="matrix(0.662 0.7495 -0.7495 0.662 253.4305 -44.3285)" class="st0" width="16" height="2.4"/>
		</g>
	</g>
	<g>
		<g>
			
				<rect x="177.6" y="252.9" transform="matrix(0.5454 0.8382 -0.8382 0.5454 297.1359 -39.6136)" class="st0" width="15.1" height="2.4"/>
		</g>
	</g>
	<g>
		<g>
			<path class="st0" d="M180.8,254.9c-1.9,0-3.5-1.6-3.5-3.5c0-1.9,1.6-3.5,3.5-3.5s3.5,1.6,3.5,3.5
				C184.3,253.4,182.7,254.9,180.8,254.9z M180.8,250.4c-0.6,0-1.1,0.5-1.1,1.1s0.5,1.1,1.1,1.1s1.1-0.5,1.1-1.1
				S181.4,250.4,180.8,250.4z"/>
		</g>
	</g>
	<g>
		<g>
			<path class="st0" d="M185.8,263.1c-2.1,0-3.8-1.7-3.8-3.8s1.7-3.8,3.8-3.8c2.1,0,3.8,1.7,3.8,3.8S187.9,263.1,185.8,263.1z
				 M185.8,257.8c-0.8,0-1.4,0.6-1.4,1.4s0.6,1.4,1.4,1.4c0.8,0,1.4-0.6,1.4-1.4S186.6,257.8,185.8,257.8z"/>
		</g>
	</g>
	<g>
		<g>
			<path class="st0" d="M178.5,262.2c-1.8,0-3.2-1.4-3.2-3.2c0-1.8,1.4-3.2,3.2-3.2s3.2,1.4,3.2,3.2
				C181.7,260.7,180.2,262.2,178.5,262.2z M178.5,258.1c-0.4,0-0.8,0.4-0.8,0.8c0,0.4,0.4,0.8,0.8,0.8s0.8-0.4,0.8-0.8
				C179.3,258.5,178.9,258.1,178.5,258.1z"/>
		</g>
	</g>
	<g>
		<g>
			<path class="st0" d="M173.3,256c-1.8,0-3.2-1.4-3.2-3.2s1.4-3.2,3.2-3.2c1.8,0,3.2,1.4,3.2,3.2S175,256,173.3,256z M173.3,252
				c-0.4,0-0.8,0.4-0.8,0.8s0.4,0.8,0.8,0.8c0.4,0,0.8-0.4,0.8-0.8S173.7,252,173.3,252z"/>
		</g>
	</g>
	<g>
		<g>
			<path class="st0" d="M219.9,328.1c-0.4-0.5-10.5-13.6-8.9-30.3c0.6-6.6,2.9-13.5,5.5-19.6l-33.5,47.9l-2-1.4l44.2-63.2l2,1.3
				c-0.1,0.2-12.3,19.2-13.8,35.1c-1.5,15.8,8.3,28.5,8.4,28.6L219.9,328.1z"/>
		</g>
	</g>
	<g>
		<g>
			
				<rect x="193" y="235.2" transform="matrix(0.5658 0.8245 -0.8245 0.5658 307.0019 -42.8601)" class="st0" width="2.4" height="69.8"/>
		</g>
	</g>
	<g>
		<g>
			
				<rect x="197.1" y="243.5" transform="matrix(0.7149 0.6993 -0.6993 0.7149 253.8729 -58.214)" class="st0" width="2.4" height="77.4"/>
		</g>
	</g>
	<g>
		<g>
			
				<rect x="291.8" y="169.2" transform="matrix(0.124 0.9923 -0.9923 0.124 431.7896 -148.2428)" class="st0" width="16.2" height="2.4"/>
		</g>
	</g>
	<g>
		<g>
			
				<rect x="207.2" y="196.2" transform="matrix(0.5982 0.8014 -0.8014 0.5982 243.991 -91.8828)" class="st0" width="12.9" height="2.4"/>
		</g>
	</g>
	<g>
		<g>
			
				<rect x="211.6" y="191.7" transform="matrix(0.6254 0.7803 -0.7803 0.6254 232.6084 -98.8218)" class="st0" width="15.2" height="2.4"/>
		</g>
	</g>
	<g>
		<g>
			
				<rect x="298" y="164.6" transform="matrix(0.124 0.9923 -0.9923 0.124 432.6572 -158.4484)" class="st0" width="16.2" height="2.4"/>
		</g>
	</g>
	<g>
		<g>
			<path class="st0" d="M227.7,196l-1.6-1.8c0.6-0.6,16.1-14.6,47.7-19.8l0.4,2.4C243.2,181.9,227.9,195.9,227.7,196z"/>
		</g>
	</g>
	<g>
		<g>
			
				<rect x="240" y="178.1" transform="matrix(0.4819 0.8762 -0.8762 0.4819 283.7609 -121.3882)" class="st0" width="9.2" height="2.4"/>
		</g>
	</g>
	<g>
		<g>
			<polygon class="st0" points="251.5,201.2 246.8,197.5 244.4,172.8 246.8,172.5 249.1,196.3 251.6,198.2 256.7,195.2 272.2,173 
				274.2,174.3 258.4,197 			"/>
		</g>
	</g>
	<g>
		<g>
			<path class="st0" d="M251.5,206.9c-4,0-7.2-3.2-7.2-7.2s3.2-7.2,7.2-7.2s7.2,3.2,7.2,7.2S255.5,206.9,251.5,206.9z M251.5,194.9
				c-2.7,0-4.8,2.2-4.8,4.8s2.2,4.8,4.8,4.8s4.8-2.2,4.8-4.8S254.2,194.9,251.5,194.9z"/>
		</g>
	</g>
	<g>
		<g>
			<path class="st0" d="M251.5,203.9c-2.3,0-4.2-1.9-4.2-4.2s1.9-4.2,4.2-4.2s4.2,1.9,4.2,4.2S253.9,203.9,251.5,203.9z
				 M251.5,197.9c-1,0-1.8,0.8-1.8,1.8s0.8,1.8,1.8,1.8s1.8-0.8,1.8-1.8S252.5,197.9,251.5,197.9z"/>
		</g>
	</g>
	<g>
		<g>
			<path class="st0" d="M270.2,227.9l-2.4-0.3c1.4-12.8,11.4-51.4,11.8-53l2.3,0.6C281.9,175.5,271.7,215.2,270.2,227.9z"/>
		</g>
	</g>
	<g>
		<g>
			<path class="st0" d="M247.3,247.9c-1,0-1.9-0.1-2.8-0.3c-5.9-1.1-8.3-5.5-8.4-5.7l2.1-1.1c0.1,0.1,2,3.6,6.8,4.5
				c6,1.1,14-2.4,23-10l1.6,1.8C261.1,244.3,253.6,247.9,247.3,247.9z"/>
		</g>
	</g>
	<g>
		<g>
			<path class="st0" d="M249.4,260.1c-2.5,0-4.8-0.4-7-1.2c-10.7-4-13.5-16.3-13.6-16.8l2.3-0.5l0,0l0,0c0,0.2,2.7,11.6,12.1,15.1
				c7.9,3,18.3-0.2,30.8-9.4l1.4,1.9C265.5,256.5,256.8,260.1,249.4,260.1z"/>
		</g>
	</g>
	<g>
		<g>
			<path class="st0" d="M252.9,272c-1.9,0-3.7-0.3-5.5-0.8c-15-4.4-21.7-25.8-21.9-26.7l2.3-0.7c0.1,0.2,6.5,21,20.3,25.1
				c6.9,2,14.7-0.5,23.1-7.6l1.6,1.8C265.8,269.1,259.2,272,252.9,272z"/>
		</g>
	</g>
	<g>
		<g>
			
				<rect x="196.1" y="236.1" transform="matrix(0.9922 0.1249 -0.1249 0.9922 31.3358 -25.1083)" class="st0" width="39.5" height="2.4"/>
		</g>
	</g>
	<g>
		<g>
			<polygon class="st0" points="249.4,346.7 216.9,335 219,328.3 214.5,326.6 212.9,322.6 203.9,319.3 202.7,311.4 195.5,306.7 
				193.8,298.9 187,292.5 185.8,285.1 181,277.9 178.9,265.5 181.9,265 183.8,276.7 188.6,283.9 189.8,291 196.6,297.4 198.2,304.8 
				205.4,309.7 206.6,317.1 215.2,320.2 216.8,324.2 222.7,326.5 220.6,333.1 250.4,343.8 			"/>
		</g>
	</g>
	<g>
		<g>
			<path class="st0" d="M267.3,230.7c-7.1-18.7-36.7-14.2-37-14.1l-0.5-3c1.3-0.2,32.3-4.9,40.3,16L267.3,230.7z"/>
		</g>
	</g>
	<g>
		<g>
			
				<rect x="268.2" y="176.9" transform="matrix(0.8844 0.4666 -0.4666 0.8844 123.7746 -102.9381)" class="st0" width="3" height="43.2"/>
		</g>
	</g>
</g>
</svg>
