<?xml version="1.0" encoding="utf-8"?>
<!-- Generator: Adobe Illustrator 19.1.0, SVG Export Plug-In . SVG Version: 6.00 Build 0)  -->
<svg version="1.1" id="Layer_1" xmlns="http://www.w3.org/2000/svg" xmlns:xlink="http://www.w3.org/1999/xlink" x="0px" y="0px"
	 viewBox="0 0 500 500" style="enable-background:new 0 0 500 500;" xml:space="preserve">
<style type="text/css">
	.st0{fill:#F8B017;}
	.st1{fill:none;}
	.st2{fill:#F5AF19;}
	.st3{fill:#E5D7C8;}
	.st4{fill:#F4AE19;}
	.st5{fill:#F7AF17;}
	.st6{fill:#0FA2D4;}
</style>
<g>
	<g>
		<g>
			<path class="st2" d="M250,340.6c-5.6,0-11.2-1.4-16.7-4.2c-0.9-0.5-2.1-0.5-3.4-0.6c-0.7-0.1-1.4-0.1-2-0.2l-2.9-0.5l2.1-2.1
				c5.9-5.7,5.5-12.3,5.1-20c-0.2-3.3-0.4-6.7-0.1-10.2c-2,1.3-3.7,1.8-5.2,1.6c-2.7-0.4-4.2-3-5.6-5.5l-0.6-1
				c-5.4-9.3-0.4-15.2,4.5-19.4c1.3-1.1,2.4-2.5,3.6-3.9c0.3-0.4,0.7-0.8,1-1.2l-0.5-0.9l-10.7,2.7l-10-15.3l0-0.5
				c0.2-2.3,0.3-4.7,0.3-7c0.2-5.4,0.3-11,2.1-16.1c2.4-6.9,1.3-11.5-4-17.1c-2.1-2.2-4.4-3.4-6.7-3.4h0c-2.3,0-4.6,1.2-6.7,3.4
				c-1.9,2-5.9,4.5-8.9,3.9c-14.1-3.2-28.4-6.8-42.2-10.3l-17-4.3l4-1.7c1.7-0.7,3.5-1.7,5.2-2.6c4-2.2,8-4.4,12.4-4.4
				c7.2,0.2,14.4,1.4,21.3,2.7c4,0.7,8.2,1.5,12.3,2c3,0.4,6,0.2,9.2,0c1.5-0.1,2.9-0.2,4.4-0.2l10.3-1.2l9.3-2.4l-2.4-5.7l3.1,1.1
				c13.5,4.7,27,4.4,43.2,3.5c5.7-0.3,11.6-0.3,17.2-0.2c2.6,0,5.2,0.1,7.7,0l14.3,2.7l7.3,5.2l-1.2,1.2c-1.1,1.2-2.2,2.4-3.3,3.6
				c-2.5,2.7-5,5.5-7.8,7.9c-5.4,4.8-6.9,10-4.3,15.3c4.5,9.3,4.5,17.9-0.1,26.4l-6,7.7l-10.7,4.2c6.7,6.9,12.8,13.6,8.6,23.9
				c-1,2.6-3.2,5.8-5.9,7.1c-1.6,0.8-3.2-0.7-5.6-2.8c-0.1-0.1-0.2-0.2-0.3-0.2l2.4,33.3l-0.8,0.5
				C262.9,338.8,256.4,340.6,250,340.6z M231.2,332.9c1.2,0.1,2.4,0.3,3.5,0.9c10.6,5.4,21.3,5.1,32.8-0.7l-2.8-38.1l2.6,2
				c1.1,0.8,2.1,1.8,3.1,2.6c0.9,0.8,2.1,1.9,2.7,2.2c1.8-1,3.3-3.4,4.2-5.4c3.6-8.8-1.8-14.4-8.7-21.4l-2.4-2.5l14.1-5.5l5.3-6.9
				c4.1-7.5,4.1-15.1,0-23.5c-3.2-6.6-1.5-13.1,5-18.8c2.7-2.4,5.2-5.1,7.6-7.7c0.7-0.8,1.5-1.6,2.2-2.4l-4.2-3l-13.1-2.4
				c-2.3,0-4.9,0-7.5,0c-5.6-0.1-11.4-0.1-17,0.2c-15.3,0.8-28.3,1.1-41.2-2.7l1.2,2.9l-12.8,3.3l-10.7,1.2c-1.6,0-3,0.1-4.4,0.2
				c-3.2,0.2-6.5,0.4-9.8,0c-4.2-0.5-8.4-1.3-12.5-2c-6.8-1.2-13.9-2.5-20.9-2.6c-3.5-0.1-7.1,1.9-10.9,4c-0.6,0.3-1.2,0.6-1.7,0.9
				l8.9,2.2c13.8,3.5,28.1,7.1,42.2,10.3c1.4,0.3,4.4-1.2,6.1-3c2.6-2.8,5.7-4.3,8.8-4.3h0c3.1,0,6.2,1.5,8.9,4.3
				c6,6.4,7.4,12.2,4.6,20.1c-1.6,4.6-1.8,9.8-1.9,15.2c-0.1,2.2-0.1,4.5-0.3,6.7l8.3,12.7L231,269l2.4,4.8l-0.7,0.7
				c-0.6,0.6-1.1,1.3-1.6,1.9c-1.2,1.5-2.5,3-4,4.3c-6.3,5.2-7.4,9.6-3.9,15.6l0.6,1.1c1.1,2,2.2,3.9,3.5,4.1
				c0.9,0.1,2.6-0.3,5.7-3.2l3.3-3.1l-0.8,4.4c-0.9,4.5-0.6,9-0.4,13.3C235.5,320,235.9,326.8,231.2,332.9z"/>
			<path class="st2" d="M250,341.9c-5.8,0-11.6-1.5-17.3-4.3c-0.7-0.3-1.8-0.4-2.9-0.5c-0.7-0.1-1.4-0.1-2.1-0.2l-3-0.5
				c-0.5-0.1-0.9-0.4-1.1-0.9c-0.2-0.5,0-1,0.3-1.4l2.1-2.1c5.5-5.3,5.1-11.3,4.7-18.9c-0.1-2.6-0.3-5.3-0.2-8
				c-1.4,0.6-2.7,0.8-4,0.6c-3.4-0.5-5.1-3.5-6.6-6.2l-0.6-1c-6-10.3-0.1-16.9,4.8-21.1c1.1-0.9,2-2,3-3.1l-8.2,2.1
				c-0.6,0.2-1.1-0.1-1.4-0.6l-10-15.3c-0.2-0.3-0.2-0.5-0.2-0.8l0-0.5c0.2-2.3,0.3-4.7,0.3-7c0.2-5.6,0.3-11.3,2.2-16.5
				c2.2-6.4,1.3-10.5-3.7-15.7c-3.7-3.9-7.8-3.9-11.5,0c-2,2.1-6.5,5.1-10.2,4.2c-14.3-3.2-29.2-7-42.3-10.3l-17-4.3
				c-0.6-0.1-1-0.6-1-1.2c0-0.6,0.3-1.1,0.8-1.3l4-1.7c1.7-0.7,3.5-1.7,5.1-2.6l0.4-0.2c3.9-2.1,7.9-4.3,12.4-4.3c0.1,0,0.2,0,0.3,0
				c7.2,0.1,14.4,1.4,21.3,2.7l0.6,0.1c3.9,0.7,7.9,1.4,11.9,1.9c2.9,0.4,5.8,0.2,9,0c1.5-0.1,3-0.2,4.5-0.2l10.2-1.2l7.6-2
				l-1.8-4.3c-0.2-0.5-0.1-1.1,0.3-1.4c0.3-0.4,0.9-0.5,1.4-0.3l3.1,1.1c13.3,4.6,26.6,4.3,42.7,3.4c5.7-0.3,11.4-0.3,16.9-0.2h0.4
				c2.6,0,5.2,0.1,7.7,0l14.6,2.8c0.2,0,0.4,0.1,0.5,0.2l7.3,5.2c0.3,0.2,0.5,0.6,0.6,1c0,0.4-0.1,0.8-0.4,1.1l-1.2,1.2
				c-1.1,1.2-2.2,2.4-3.3,3.5c-2.4,2.6-5,5.5-7.9,8c-5,4.4-6.3,8.9-3.9,13.7c4.7,9.7,4.7,18.8-0.2,27.7l-6.1,7.9
				c-0.1,0.2-0.3,0.3-0.6,0.4l-8.9,3.5c5.9,6.2,11.8,13.3,7.5,23.9c-0.6,1.4-2.7,5.9-6.6,7.8c-1.7,0.8-3.2,0.1-4.9-1.2l2.2,30.1
				c0,0.5-0.2,1-0.7,1.3l-0.8,0.5C263.4,340,256.6,341.9,250,341.9z M227.8,334.2l0.3,0.1c0.6,0.1,1.3,0.1,1.9,0.2
				c1.4,0.1,2.7,0.2,3.9,0.8c11.5,5.8,22.9,5.4,35.1-1.2l0.1,0l-2.4-32.4c0-0.5,0.3-1.1,0.7-1.3c0.5-0.2,1.1-0.2,1.5,0.2l0.3,0.2
				c1.9,1.7,3.4,3,4.1,2.6c2.4-1.2,4.3-4.1,5.3-6.4c3.7-9.1-1.1-15-8.4-22.5c-0.3-0.3-0.4-0.8-0.3-1.2c0.1-0.4,0.4-0.8,0.8-1
				l10.4-4.1l5.7-7.4c4.3-7.9,4.3-16.2,0-25c-2-4.1-2.8-10.4,4.6-16.9c2.8-2.5,5.4-5.3,7.7-7.8c1.1-1.2,2.2-2.4,3.3-3.6l0.1-0.1
				l-5.8-4.1l-14-2.7c-2.3,0-4.9,0-7.5,0H275c-5.5-0.1-11.2-0.1-16.7,0.2c-16.4,0.9-30,1.2-43.7-3.6l-0.3-0.1l1.2,2.9
				c0.1,0.4,0.1,0.8,0,1.1c-0.2,0.3-0.5,0.6-0.9,0.7l-9.3,2.4l-10.5,1.2c-1.5,0.1-3,0.1-4.4,0.2c-3.3,0.2-6.4,0.4-9.5,0
				c-4-0.5-8.1-1.2-12-1.9l-0.4-0.1c-7-1.3-14.1-2.5-21.1-2.7c0,0-0.2,0-0.2,0c-3.8,0-7.4,1.9-11.1,4l-0.4,0.2
				c-1.6,0.9-3.5,1.9-5.3,2.7l-0.4,0.1l13.1,3.3c13.1,3.3,27.9,7.1,42.2,10.3c2.4,0.6,6-1.7,7.7-3.5c4.7-5,10.7-4.9,15.3,0
				c5.6,5.9,6.8,11.1,4.3,18.5c-1.7,4.8-1.9,10.3-2,15.6c-0.1,2.5-0.1,4.9-0.3,7.3l0,0.1l9.2,14.1l9.7-2.4c0.6-0.2,1.2,0.1,1.5,0.7
				l0.5,0.9c0.3,0.5,0.2,1.1-0.2,1.5c-0.3,0.4-0.7,0.8-1,1.2c-1.2,1.4-2.4,2.9-3.8,4.1c-4.8,4-9.1,9.3-4.2,17.7l0.6,1
				c1.3,2.4,2.6,4.6,4.7,4.9c1.3,0.2,2.6-0.3,4.3-1.4c0.4-0.3,1-0.3,1.4,0c0.4,0.3,0.7,0.8,0.7,1.3c-0.3,3.4-0.1,6.7,0.1,9.9
				c0.5,7.8,0.9,15-5.5,21.1L227.8,334.2z M250,338.9c-5.4,0-10.7-1.3-16-4c-1-0.5-2.1-0.6-3-0.7c-0.5,0-0.9-0.4-1.1-0.8
				c-0.2-0.5-0.1-1,0.2-1.4c4.4-5.7,4.1-12.2,3.7-19.1c-0.2-4.4-0.5-8.9,0.4-13.6l0.1-0.4l-0.3,0.3c-2.8,2.6-5,3.9-6.8,3.6
				c-2-0.3-3.2-2.5-4.5-4.7L222,297c-3.8-6.6-2.6-11.6,4.2-17.3c1.4-1.2,2.6-2.6,3.8-4c0.6-0.8,1.2-1.4,1.8-2.1l0.1-0.1l-1.5-3.1
				l-9.9,2.5c-0.6,0.2-1.1-0.1-1.4-0.6l-8.3-12.7c-0.2-0.3-0.2-0.5-0.2-0.8c0.2-2.2,0.2-4.4,0.3-6.6c0.2-5.5,0.3-10.8,2-15.6
				c2.6-7.5,1.4-12.7-4.3-18.7c-4.8-5.1-10.9-5.1-15.7,0c-1.9,2-5.4,3.9-7.4,3.4c-13.9-3.2-28.1-6.7-41.7-10.2l-9.3-2.3
				c-0.5-0.1-0.9-0.6-1-1.1c-0.1-0.6,0.2-1.1,0.7-1.4l2.2-1.2c3.7-2,7.2-3.9,10.8-3.9c0.1,0,0.3,0,0.4,0c6.9,0.1,14,1.4,20.8,2.6
				c4.1,0.7,8.4,1.5,12.6,2c3.1,0.4,6.3,0.2,9.5,0c1.5-0.1,2.9-0.2,4.5-0.2l10.6-1.2l11.1-2.9l-0.6-1.4c-0.2-0.5-0.1-1,0.2-1.4
				c0.3-0.4,0.9-0.5,1.4-0.4c12.8,3.8,25.5,3.5,40.8,2.6c5.5-0.3,11.2-0.3,16.7-0.2l1.5,0c2.2,0,4.4,0,6.3,0l13.4,2.4
				c0.2,0,0.4,0.1,0.5,0.2l4.2,3c0.3,0.2,0.5,0.6,0.6,1c0,0.4-0.1,0.8-0.3,1l-2.1,2.2c-2.6,2.9-5.2,5.6-7.9,8
				c-6,5.3-7.6,11.1-4.6,17.2c4.3,8.8,4.3,16.9,0,24.8l-5.5,7.1c-0.1,0.2-0.3,0.3-0.6,0.4l-12.2,4.8l1,1c6.9,7.1,12.9,13.2,9,22.9
				c-0.9,2.1-2.6,4.8-4.7,6.1c-0.4,0.2-0.9,0.2-1.3,0c-0.6-0.4-1.6-1.2-2.9-2.4c-0.9-0.8-2-1.7-3-2.5l-0.2-0.2l2.6,35.2
				c0,0.5-0.3,1-0.7,1.3C261.9,337.4,255.9,338.9,250,338.9z M233.5,331.9c0.6,0.2,1.2,0.4,1.8,0.7c10,5,20.1,4.9,30.8-0.3
				l-2.7-37.3c0-0.5,0.2-1,0.7-1.3c0.5-0.3,1-0.2,1.5,0.1l2.6,2c1.1,0.8,2.2,1.8,3.1,2.7c0.4,0.4,1.2,1.1,1.8,1.6
				c1.2-1,2.3-2.8,2.9-4.3c3.3-8-1.6-13-8.4-20l-2.4-2.5c-0.3-0.3-0.4-0.8-0.3-1.2c0.1-0.4,0.4-0.8,0.8-1l13.8-5.4l5.1-6.6
				c3.8-7,3.7-14.1-0.2-22.1c-3.5-7.2-1.7-14.2,5.3-20.4c2.6-2.3,5.1-5,7.5-7.6l1.2-1.3l-2.7-2l-12.8-2.3c-1.7,0.1-3.9,0-6.1,0
				l-1.5,0c-5.5-0.1-11.1-0.1-16.6,0.2c-14.5,0.8-26.7,1.1-39-2l0.1,0.3c0.1,0.4,0.1,0.8,0,1.1c-0.2,0.3-0.5,0.6-0.9,0.7l-12.8,3.3
				l-10.9,1.2c-1.6,0.1-3.1,0.1-4.5,0.2c-3.3,0.2-6.7,0.4-10,0c-4.3-0.5-8.7-1.3-12.6-2c-6.9-1.2-13.9-2.5-20.6-2.6
				c-2.7-0.1-5.8,1.4-9,3.1l6,1.5c13.7,3.4,27.8,7,41.7,10.2c0.8,0.1,3.2-0.9,4.9-2.6c5.8-6.1,13.7-6.2,19.6,0
				c6.4,6.7,7.8,13.1,4.9,21.5c-1.6,4.5-1.7,9.5-1.9,14.8c-0.1,2.1-0.1,4.2-0.3,6.3l7.5,11.5l10-2.5c0.6-0.2,1.3,0.1,1.5,0.7
				l2.4,4.8c0.2,0.5,0.2,1.1-0.2,1.5l-0.7,0.7c-0.6,0.6-1.1,1.2-1.6,1.9c-1.3,1.6-2.6,3.1-4.2,4.4c-5.8,4.8-6.7,8.5-3.6,13.9
				l0.6,1.1c0.7,1.2,1.9,3.3,2.6,3.4c0.1,0,1.4,0.1,4.6-2.9l3.3-3.1c0.4-0.4,1-0.5,1.6-0.2c0.5,0.3,0.8,0.8,0.7,1.4l-0.8,4.4
				c-0.8,4.4-0.6,8.7-0.3,12.9C236.8,319.2,237.2,325.9,233.5,331.9z"/>
		</g>
	</g>
	<g>
		<g>
			<path class="st2" d="M249.8,363.6c-7.5,0-14.9-2-21.9-5.9c-4.4-2.4-6.3-9.4-7.8-14.6c-0.8-2.8-1-5.8-1.2-8.7
				c-0.3-3.5-0.5-6.7-1.7-9.6c-3.6-9.3-7.7-18.6-11.5-27.6c-4.3-9.9-8.7-20.2-12.7-30.5c-2-5.2-2.7-10.8-3.3-16.3
				c-0.3-2.1-0.5-4.3-0.8-6.4c-3.5-0.6-7.1-1.1-10.6-1.6c-8.8-1.2-17.8-2.5-26.5-4.8c-14-3.6-22.5-15.1-30.6-26.2l-1.2-1.6l10.3-3.4
				l13.2,3.3c13.8,3.5,28.1,7.1,42.2,10.3c1.4,0.3,4.4-1.2,6.1-3c2.6-2.8,5.7-4.3,8.8-4.3h0c3.1,0,6.2,1.5,8.9,4.3
				c6,6.4,7.4,12.2,4.6,20.1c-1.6,4.6-1.8,9.8-1.9,15.2c-0.1,2.4-0.1,4.8-0.4,7.2l-0.1,1.3l-9.1,0c1.7,7.8,6.2,12.9,12.4,14.1
				c0.3-0.1,1.3-0.9,1.9-1.5c0.6-0.5,1.1-1,1.7-1.4l0.5-0.2l11.9-3l2.4,4.8l-0.7,0.7c-0.6,0.6-1.1,1.3-1.6,1.9c-1.2,1.5-2.5,3-4,4.3
				c-6.3,5.2-7.4,9.6-3.9,15.6l0.6,1.1c1.1,2,2.2,3.9,3.5,4.1c0.9,0.1,2.6-0.3,5.7-3.2l3.3-3.1l-0.8,4.4c-0.9,4.5-0.6,9-0.4,13.3
				c0.5,8,0.9,15.6-6,22.3c-2.9,3.3-4.1,7.5-2.9,10.5c0.9,2.2,2.8,3.6,5.5,3.9c13.2,1.5,26.9,0.6,37.4-0.4c1.5-0.1,4.6-4.7,5.5-8.7
				c-0.2-0.5-2.4-2.2-3.7-3.2c-1.1-0.8-2.1-1.6-3-2.4l-0.4-0.4l-2.9-39.7l2.6,2c1.1,0.8,2.1,1.8,3.1,2.6c0.9,0.8,2.1,1.9,2.7,2.2
				c1.8-1,3.3-3.4,4.2-5.4c3.6-8.8-1.8-14.4-8.7-21.4l-2.4-2.5l16.4-6.4l0.6,9.4c9.8-2.6,13.7-6.6,14.5-14.9l-13.7,2.4l1.5-2.7
				c4.2-7.7,4.2-15.2,0.1-23.7c-3.2-6.6-1.5-13.1,5-18.8c2.7-2.4,5.2-5.1,7.6-7.7c1.1-1.2,2.2-2.4,3.4-3.6l1.4-1.4l0.8,1.3l1.5,0.2
				c0.5,0.2,0.9,0.3,1.4,0.4l0.9,0.2l0.2,0.9c0.2,1,0.3,2,0.5,2.9c0.3,2.2,0.7,4.3,1.5,6.1c0.6,1.4,2.8,3,3.5,3l0,0
				c5.9-1.1,11.9-2.5,17.6-3.9c3.7-0.9,7.4-1.8,11.2-2.6c6.6-1.4,13.3-2.7,19.7-4c2.9-0.6,5.7-1.1,8.6-1.7l0.2,0l9.6,1l-1.1,1.9
				c-9.6,17.5-23.5,27.3-42.3,30.1c-3,0.4-6,0.7-9,0.9c-3.7,0.3-7.5,0.5-11.2,1.3c-2.5,0.5-5.7,3.1-5.8,4.1
				c-0.8,15.9-7.3,30-13.5,43.5c-2.8,6-5.6,12.2-7.9,18.4c-0.8,2.1-1.8,4.2-2.8,6.2c-1.4,2.8-2.7,5.5-3.4,8.3
				c-1.7,6.4-2.5,12.3-2.3,17.4c0.3,6.8-0.8,13.6-9.8,17.7C263.8,362,256.7,363.6,249.8,363.6z M225.4,349.7c1,2.4,2.3,4.6,4,5.5
				c12.5,7,26.1,7.3,40.4,0.9c7.1-3.2,8.4-8.1,8.1-14.9c-0.2-5.4,0.6-11.5,2.4-18.2c0.8-3.1,2.2-6,3.6-8.8c0.9-1.9,1.9-4,2.7-6
				c2.3-6.4,5.2-12.6,8-18.7c6.1-13.3,12.5-27.1,13.2-42.5c0.2-3.1,5.4-6.3,8.2-6.8c3.8-0.8,7.7-1,11.5-1.3c2.9-0.2,5.9-0.4,8.8-0.8
				c17.2-2.5,29.9-11.3,39-26.7l-4.7-0.5c-2.8,0.6-5.6,1.1-8.4,1.7c-6.5,1.3-13.1,2.6-19.7,4c-3.7,0.8-7.4,1.7-11.1,2.6
				c-5.8,1.4-11.8,2.8-17.8,3.9c-2.4,0.4-5.7-2.5-6.7-4.7c-1-2.2-1.4-4.6-1.7-6.9c-0.1-0.6-0.2-1.3-0.3-1.9
				c-0.2-0.1-0.4-0.1-0.6-0.2l-1.4-0.2c-0.9,0.9-1.7,1.9-2.6,2.8c-2.5,2.7-5,5.5-7.8,7.9c-5.4,4.8-6.9,10-4.3,15.3
				c4,8.3,4.4,16.1,1.1,23.8l11.5-2l-0.1,1.8c-0.5,11.5-5.5,16.9-18.6,20l-1.7,0.4l-0.6-8.9l-8.5,3.3c6.7,6.9,12.8,13.6,8.6,23.9
				c-1,2.6-3.2,5.8-5.9,7.1c-1.6,0.8-3.2-0.7-5.6-2.8c-0.1-0.1-0.2-0.2-0.3-0.2l2.3,31.7c0.7,0.6,1.5,1.2,2.3,1.8
				c2.9,2.2,5.3,4,4.8,6.1c-0.8,3.7-4.2,10.7-8.1,11c-10.6,1-24.5,1.9-38,0.4C229,352.2,226.9,351.2,225.4,349.7z M124.8,211.3
				c7.5,10.2,15.4,20.3,27.8,23.5c8.5,2.2,17.5,3.5,26.2,4.7c3.9,0.6,7.8,1.1,11.7,1.7l1,0.2l0.2,1c0.4,2.5,0.7,5.1,1,7.6
				c0.7,5.5,1.3,10.8,3.1,15.6c3.9,10.2,8.3,20.5,12.6,30.4c3.9,9,7.9,18.4,11.6,27.7c1.3,3.3,1.6,7,1.9,10.5c0.2,2.6,0.4,5.2,1,7.6
				c0.3-3,1.7-6.1,4.1-8.8c6-5.8,5.6-12.4,5.2-20.1c-0.2-3.3-0.4-6.7-0.1-10.2c-2,1.3-3.7,1.8-5.2,1.6c-2.7-0.4-4.2-3-5.6-5.5
				l-0.6-1c-5.4-9.3-0.4-15.2,4.5-19.4c1.3-1.1,2.4-2.5,3.6-3.9c0.3-0.4,0.7-0.8,1-1.2l-0.5-0.9l-9.4,2.4c-0.4,0.3-0.8,0.6-1.2,1
				c-1.4,1.2-2.8,2.5-4.4,2.1c-7.9-1.6-13.4-8.2-15.1-18.3l-0.3-1.7l9.9,0c0.1-1.9,0.2-3.8,0.2-5.7c0.2-5.4,0.3-11,2.1-16.1
				c2.4-6.9,1.3-11.5-4-17.1c-2.1-2.2-4.4-3.4-6.7-3.4h0c-2.3,0-4.6,1.2-6.7,3.4c-1.9,2-5.9,4.5-8.9,3.9
				c-14.1-3.2-28.4-6.8-42.2-10.3l-12.3-3.1L124.8,211.3z"/>
			<path class="st2" d="M249.8,365c-7.8,0-15.3-2-22.5-6c-4.8-2.7-6.9-10-8.4-15.3c-0.8-3-1.1-6-1.3-8.9c-0.3-3.5-0.5-6.6-1.6-9.4
				c-3.5-9-7.4-18.1-11.2-26.9l-0.3-0.7c-4-9.3-8.6-19.9-12.7-30.5c-2-5.3-2.7-11.1-3.4-16.6c-0.2-1.8-0.4-3.6-0.7-5.4
				c-2.8-0.4-5.6-0.8-8.4-1.2l-1.3-0.2c-8.8-1.2-17.9-2.5-26.7-4.8c-14.5-3.7-23-15.4-31.3-26.7l-1.2-1.7c-0.3-0.3-0.3-0.8-0.2-1.2
				c0.1-0.4,0.5-0.7,0.8-0.9l10.3-3.5c0.2-0.1,0.5-0.1,0.8,0l13.6,3.4c13.7,3.4,27.8,7,41.7,10.2c0.8,0.1,3.2-0.9,4.9-2.6
				c5.8-6.1,13.7-6.2,19.6,0c6.4,6.7,7.8,13.1,4.9,21.5c-1.6,4.5-1.7,9.5-1.9,14.8c-0.1,2.5-0.2,4.9-0.4,7.3L213,261
				c-0.1,0.7-0.6,1.2-1.3,1.2h-7.4c1.8,6.2,5.5,10.2,10.5,11.4c0.2-0.2,0.8-0.7,1.1-1c0.7-0.6,1.4-1.2,1.9-1.6l0.7-0.3l12.2-3.1
				c0.6-0.2,1.3,0.1,1.5,0.7l2.4,4.8c0.2,0.5,0.2,1.1-0.2,1.5l-0.7,0.7c-0.6,0.6-1.1,1.2-1.6,1.9c-1.3,1.6-2.6,3.1-4.2,4.4
				c-5.8,4.8-6.7,8.5-3.6,13.9l0.6,1.1c0.7,1.2,1.9,3.3,2.6,3.4c0.1,0,1.4,0.1,4.6-2.9l3.3-3.1c0.4-0.4,1-0.5,1.6-0.2
				c0.5,0.3,0.8,0.8,0.7,1.4l-0.8,4.4c-0.8,4.4-0.6,8.7-0.3,12.9c0.5,8,1,16.2-6.4,23.4c-2.5,2.8-3.5,6.5-2.5,9.1
				c0.7,1.7,2.2,2.8,4.4,3c13.1,1.5,26.7,0.6,37.1-0.4c0.7-0.3,3.2-3.6,4.1-7c-0.6-0.6-2.4-1.9-3.1-2.4c-1.1-0.8-2.2-1.7-3-2.5
				l-0.4-0.4c-0.3-0.2-0.4-0.5-0.4-0.9l-2.9-39.7c0-0.5,0.2-1,0.7-1.3c0.5-0.3,1-0.2,1.5,0.1l2.6,2c1.1,0.8,2.2,1.8,3.1,2.7
				c0.4,0.4,1.2,1.1,1.8,1.6c1.2-1,2.3-2.8,2.9-4.3c3.3-8-1.6-13-8.4-20l-2.4-2.5c-0.3-0.3-0.4-0.8-0.3-1.2c0.1-0.4,0.4-0.8,0.8-1
				l16.4-6.4c0.4-0.2,0.8-0.1,1.2,0.1c0.4,0.2,0.6,0.6,0.6,1l0.5,7.7c7.4-2.3,10.7-5.5,11.7-11.6l-11.9,2.1c-0.5,0.1-1-0.1-1.3-0.5
				c-0.3-0.4-0.3-1-0.1-1.4l1.5-2.7c4-7.3,4-14.5,0.1-22.5c-3.5-7.2-1.7-14.2,5.3-20.4c2.7-2.4,5.2-5.2,7.5-7.6
				c1.1-1.2,2.3-2.4,3.4-3.6l1.4-1.4c0.3-0.3,0.7-0.4,1.1-0.4c0.4,0.1,0.8,0.3,1,0.7l0.4,0.8l0.8,0.1c0.7,0.2,1.1,0.3,1.5,0.4
				l0.9,0.2c0.5,0.1,0.9,0.5,1,1l0.2,0.9c0.2,1,0.4,2,0.5,3c0.3,2,0.6,4.1,1.4,5.8c0.4,0.9,1.8,1.9,2.3,2.2
				c5.9-1.1,11.9-2.5,17.3-3.8c3.7-0.9,7.5-1.8,11.2-2.6c6.6-1.4,13.3-2.7,19.8-4l8.6-1.7c0.1,0,0.4-0.1,0.6-0.1l9.6,1
				c0.4,0,0.8,0.3,1,0.7c0.2,0.4,0.2,0.9,0,1.3l-1.1,1.9c-9.9,17.9-24,27.9-43.3,30.8c-2.9,0.4-5.9,0.6-8.8,0.9
				c-4,0.3-7.7,0.5-11.3,1.3c-1.9,0.4-4.5,2.4-4.8,3.1c-0.8,16-7.3,30.1-13.6,43.8c-2.7,6-5.6,12.1-7.9,18.3
				c-0.8,2.3-1.9,4.4-2.8,6.4c-1.3,2.7-2.6,5.3-3.3,8c-1.7,6.3-2.4,12-2.2,17c0.3,6.9-0.8,14.6-10.6,19
				C264.2,363.3,256.9,365,249.8,365z M122.2,210.5l0.1,0.1c8,11,16.3,22.2,29.9,25.7c8.6,2.2,17.6,3.5,26.4,4.7l1.3,0.2
				c3.1,0.4,6.2,0.9,9.4,1.4c0.6,0.1,1,0.5,1.1,1.1c0.3,2.1,0.6,4.3,0.9,6.5c0.6,5.4,1.3,11,3.2,16c4.1,10.5,8.6,21.1,12.6,30.4
				l0.3,0.7c3.8,8.8,7.7,17.9,11.2,26.9c1.2,3.1,1.5,6.5,1.7,10c0.2,2.9,0.5,5.8,1.2,8.5c1.4,4.9,3.3,11.6,7.1,13.8
				c13,7.2,27.1,7.6,41.8,0.9c7.9-3.5,9.3-9.1,9.1-16.4c-0.2-5.2,0.6-11.2,2.3-17.8c0.8-3,2.2-5.8,3.5-8.5c0.9-1.9,1.9-4,2.7-6.1
				c2.3-6.3,5.2-12.5,8-18.5c6.2-13.4,12.6-27.3,13.4-43c0.1-1.9,4.2-4.8,6.9-5.3c3.7-0.7,7.6-1,11.3-1.3c3.1-0.2,6-0.5,8.9-0.9
				c18.4-2.7,31.9-12.3,41.3-29.4l0.1-0.2l-7.4-0.8l-8.6,1.7c-6.5,1.2-13.2,2.6-19.7,4c-3.7,0.8-7.4,1.7-11.1,2.6
				c-5.4,1.3-11.6,2.8-17.6,3.9c-0.1,0-0.2,0-0.3,0c-1.5,0-4-2.2-4.7-3.8c-0.9-2-1.3-4.3-1.6-6.5c-0.1-1-0.3-1.9-0.5-2.9l-0.1-0.1
				c-0.5-0.1-1-0.3-1.5-0.4l-1.2-0.1c-0.3-0.1-0.6-0.2-0.8-0.5l-0.1,0.2c-1.1,1.2-2.3,2.4-3.4,3.6c-2.3,2.5-4.9,5.4-7.7,7.8
				c-6,5.3-7.6,11.1-4.6,17.2c4.3,8.9,4.3,16.8-0.1,25l-0.1,0.2l10.9-1.9c0.4-0.1,0.8,0.1,1.1,0.3c0.3,0.3,0.5,0.7,0.4,1.1
				c-0.9,8.9-5.2,13.4-15.5,16.1c-0.4,0.1-0.8,0-1.1-0.2c-0.3-0.2-0.5-0.6-0.6-1l-0.5-7.6l-12.8,5l1,1c6.9,7.1,12.9,13.2,9,22.9
				c-0.9,2.1-2.6,4.8-4.7,6.1c-0.4,0.2-0.9,0.2-1.3,0c-0.6-0.4-1.6-1.2-2.9-2.4c-0.9-0.8-2-1.7-3-2.5l-0.2-0.2l2.7,36.2
				c0.8,0.7,1.8,1.5,2.8,2.3c3,2.3,3.9,3.1,4.1,3.7c0.1,0.3,0.1,0.5,0.1,0.8c-0.8,3.7-4,9.5-6.6,9.7c-10.6,1-24.4,1.9-37.7,0.4
				c-3.2-0.4-5.6-2-6.6-4.7c-1.4-3.6-0.1-8.2,3.1-11.9c6.5-6.3,6.1-13.3,5.6-21.3c-0.2-4.4-0.5-8.9,0.4-13.6l0.1-0.4l-0.3,0.3
				c-2.8,2.6-5,3.9-6.8,3.6c-2-0.3-3.2-2.5-4.5-4.7L222,297c-3.8-6.6-2.6-11.6,4.2-17.3c1.4-1.2,2.6-2.6,3.8-4
				c0.6-0.8,1.2-1.4,1.8-2.1l0.1-0.1l-1.5-3.1l-11.1,2.9c-0.3,0.2-0.8,0.7-1.4,1.1c-1.5,1.3-2.1,1.7-2.6,1.8c-0.2,0-0.3,0-0.5,0
				c-6.7-1.3-11.6-6.9-13.4-15.1c-0.1-0.4,0-0.8,0.3-1.1c0.3-0.3,0.6-0.5,1-0.5l7.9-0.1c0.2-2.3,0.3-4.7,0.4-7
				c0.2-5.6,0.3-10.9,2-15.7c2.6-7.5,1.4-12.7-4.3-18.7c-4.8-5.1-10.9-5.1-15.7,0c-1.9,2-5.4,3.9-7.4,3.4
				c-13.9-3.2-28.1-6.7-41.7-10.2l-13.2-3.3L122.2,210.5z M249.8,362c-7.3,0-14.3-1.9-21.1-5.7c-1.7-1-3.2-3-4.6-6.1
				c-0.3-0.6,0-1.3,0.5-1.6c0.5-0.4,1.2-0.3,1.7,0.2c1.3,1.3,3.1,2.1,5.2,2.4c13.3,1.5,27.2,0.6,37.7-0.3c2.8-0.3,6.1-6.2,6.9-10
				c0.3-1.3-2-3-4.3-4.8c-0.8-0.6-1.7-1.3-2.4-1.9c-0.3-0.2-0.4-0.6-0.5-0.9l-2.3-31.7c0-0.5,0.3-1.1,0.7-1.3
				c0.5-0.2,1.1-0.2,1.5,0.2l0.3,0.2c1.9,1.7,3.4,3,4.1,2.6c2.4-1.2,4.3-4.1,5.3-6.4c3.7-9.1-1.1-15-8.4-22.5
				c-0.3-0.3-0.4-0.8-0.3-1.2c0.1-0.4,0.4-0.8,0.8-1l8.5-3.3c0.4-0.2,0.8-0.1,1.2,0.1c0.4,0.2,0.6,0.6,0.6,1l0.5,7.3l0.2,0
				c12.5-2.9,17.1-7.8,17.6-18.7l0-0.2l-9.8,1.7c-0.4,0.1-1-0.1-1.3-0.5c-0.3-0.4-0.4-0.9-0.2-1.4c3.1-7.3,2.8-14.7-1.1-22.7
				c-2-4.1-2.8-10.4,4.6-16.9c2.8-2.5,5.4-5.3,7.7-7.8l0.5-0.6c0.7-0.8,1.4-1.5,2.1-2.2c0.3-0.3,0.7-0.5,1.1-0.4l1.4,0.2
				c0.5,0.1,0.6,0.2,0.8,0.2c0.5,0.1,0.9,0.6,1,1.1l0.3,1.9c0.4,2.3,0.7,4.6,1.6,6.6c0.9,1.9,3.8,4.3,5.3,3.9
				c6.1-1.1,12.3-2.6,17.7-3.9l1.2-0.3c3.3-0.8,6.6-1.6,10-2.3c6.2-1.3,12.4-2.6,18.6-3.8l9.5-1.9c0.1,0,0.3,0,0.4,0l4.7,0.5
				c0.5,0,0.8,0.3,1,0.7c0.2,0.4,0.2,0.9,0,1.3c-9.3,15.8-22.4,24.7-40,27.3c-2.9,0.4-5.8,0.6-8.9,0.8l-0.4,0
				c-3.6,0.3-7.3,0.5-10.9,1.3c-2.6,0.5-7,3.4-7.1,5.6c-0.8,15.6-7.2,29.5-13.3,42.9c-2.7,5.8-5.6,12.2-8,18.6
				c-0.7,2-1.7,3.9-2.6,5.8l-1.4-0.2l1.2,0.6c-1.3,2.7-2.7,5.5-3.4,8.4c-1.7,6.6-2.5,12.6-2.3,17.8c0.3,7.2-1.1,12.7-8.9,16.2
				C263.3,360.4,256.5,362,249.8,362z M229.2,353.4c0.3,0.3,0.5,0.5,0.8,0.6c12.2,6.8,25.3,7,39.2,0.8c3.5-1.6,5.5-3.6,6.5-6.2
				c-1.6,2.5-3.7,4.6-6.1,4.8c-10.7,1-24.7,1.9-38.3,0.3C230.6,353.7,229.9,353.6,229.2,353.4z M271.7,332.5
				c0.6,0.5,1.2,0.9,1.8,1.4c1.1,0.9,2.2,1.7,3.1,2.5c0.3-4.3,1-8.9,2.3-13.8c0.8-3.2,2.2-6.1,3.6-8.9l0.2-0.4
				c0.9-1.8,1.8-3.7,2.5-5.6c2.4-6.5,5.4-13,8-18.8c6.1-13.3,12.4-26.9,13.1-41.9c0.2-3.9,6.1-7.5,9.2-8.1c3.7-0.7,7.5-1,11.2-1.3
				l0.4,0c3-0.2,5.9-0.4,8.7-0.8c16.1-2.4,28.2-10.3,37-24.2l-2.4-0.3l-9.3,1.8c-6.1,1.2-12.4,2.4-18.5,3.8
				c-3.3,0.7-6.6,1.5-9.9,2.3l-1.2,0.3c-5.5,1.3-11.7,2.8-17.8,3.9c-3.2,0.6-7-2.9-8.2-5.5c-1.1-2.3-1.5-4.8-1.8-7.1l-0.2-1.2
				l-0.3,0c-0.5,0.6-1.1,1.2-1.6,1.7l-0.5,0.6c-2.4,2.6-5,5.5-7.9,8c-5,4.4-6.3,8.9-3.9,13.7c3.8,7.9,4.5,15.3,2,22.6l9.1-1.6
				c0.4-0.1,0.8,0,1.1,0.3c0.3,0.3,0.5,0.6,0.5,1.1l-0.1,1.8c-0.5,12.1-6,18-19.6,21.2l-1.7,0.4c-0.4,0.1-0.8,0-1.1-0.2
				c-0.3-0.2-0.5-0.6-0.5-1l-0.5-7l-4.9,1.9c5.9,6.2,11.8,13.3,7.5,23.9c-0.6,1.4-2.7,5.9-6.6,7.8c-1.7,0.8-3.2,0.1-4.9-1.2
				L271.7,332.5z M222.9,343.2c-0.6,0-1.2-0.4-1.3-1c-0.6-2.5-0.8-5.4-1-7.8c-0.3-3.5-0.5-7-1.8-10.1c-3.5-9-7.4-18.1-11.2-26.8
				l-0.4-0.8c-4-9.4-8.6-20-12.6-30.4c-1.9-5-2.5-10.3-3.2-15.9c-0.3-2.6-0.6-5.1-1-7.6l-0.1-0.1c-3.5-0.6-7-1.1-10.6-1.6l-1.1-0.2
				c-8.7-1.2-17.7-2.5-26.4-4.7c-12.4-3.2-20.2-12.8-28.5-24c-0.3-0.3-0.3-0.8-0.2-1.2c0.1-0.4,0.5-0.7,0.8-0.9l5.6-1.9
				c0.2-0.1,0.5-0.1,0.8,0l12.3,3.1c13.1,3.3,27.9,7.1,42.2,10.3c2.4,0.6,6-1.7,7.7-3.5c4.7-5,10.7-4.9,15.3,0
				c5.6,5.9,6.8,11.1,4.3,18.5c-1.7,4.8-1.9,10.3-2,15.5c-0.1,2-0.1,4-0.2,5.9c0,0.7-0.6,1.3-1.3,1.3l0,0l-8.3,0l0,0.2
				c1.5,9.4,6.6,15.7,14,17.2c1,0.1,2.1-0.8,3.3-1.8c0.5-0.4,0.9-0.8,1.3-1.1c0.1-0.1,0.3-0.2,0.5-0.2l9.4-2.4
				c0.6-0.2,1.2,0.1,1.5,0.7l0.5,0.9c0.3,0.5,0.2,1.1-0.2,1.5c-0.3,0.4-0.7,0.8-1,1.2c-1.2,1.4-2.4,2.9-3.8,4.1
				c-4.8,4-9.1,9.3-4.2,17.7l0.6,1c1.3,2.4,2.6,4.6,4.7,4.9c1.3,0.2,2.6-0.3,4.3-1.4c0.4-0.3,1-0.3,1.4,0c0.4,0.3,0.7,0.8,0.7,1.3
				c-0.3,3.4-0.1,6.7,0.1,9.9c0.5,7.8,0.9,15-5.6,21.2c-2.1,2.4-3.4,5.2-3.7,7.9C224.2,342.6,223.6,343.1,222.9,343.2L222.9,343.2z
				 M126.9,212c7.6,10.2,14.9,18.7,25.9,21.5c8.5,2.2,17.4,3.4,26.1,4.7l1.1,0.2c3.5,0.5,7.1,1,10.6,1.6l1,0.2
				c0.6,0.1,1,0.5,1.1,1.1l0.2,1c0.4,2.5,0.7,5.1,1,7.7c0.7,5.5,1.3,10.6,3.1,15.3c4,10.4,8.6,21,12.6,30.3l0.4,0.8
				c3.8,8.8,7.7,17.9,11.2,26.9c1.4,3.5,1.7,7.2,1.9,10.8c0.1,0.6,0.1,1.3,0.2,1.9c0.7-1.3,1.6-2.6,2.6-3.8
				c5.6-5.4,5.3-11.5,4.8-19.1c-0.1-2.6-0.3-5.3-0.2-8c-1.4,0.6-2.7,0.8-4,0.6c-3.4-0.5-5.1-3.5-6.6-6.2l-0.6-1
				c-6-10.3-0.1-16.9,4.8-21.1c1.1-0.9,2-2,3-3.1l-6.7,1.7c-0.3,0.2-0.6,0.5-0.9,0.8c-1.6,1.4-3.4,2.9-5.6,2.4
				c-8.5-1.7-14.4-8.8-16.1-19.4l-0.3-1.7c-0.1-0.4,0-0.8,0.3-1.1c0.3-0.3,0.6-0.5,1-0.5l0,0l8.6,0c0.1-1.5,0.1-3,0.2-4.4
				c0.2-5.6,0.3-11.3,2.2-16.5c2.2-6.4,1.3-10.5-3.7-15.7c-3.7-3.9-7.8-3.9-11.5,0c-2,2.1-6.5,5.1-10.2,4.2
				c-14.3-3.2-29.2-7-42.3-10.3l-12-3L126.9,212z"/>
		</g>
	</g>
	<g>
		<g>
			<path class="st2" d="M313.1,223c-2.3,0-5.3-2.7-6.2-4.8c-1-2.2-1.4-4.6-1.7-6.9c-0.1-0.9-0.3-1.9-0.5-2.8l-0.3-1.5l1.5-0.3
				c4.4-0.7,8.8-1.5,13.2-2.3c10.7-2,21.7-4,32.7-4.9c3.9-0.3,15.5-1.3,20.1,9.2l0.7,1.7l-1.8,0.4c-2.9,0.6-5.7,1.1-8.6,1.7
				c-6.5,1.3-13.1,2.6-19.7,4c-3.7,0.8-7.4,1.7-11.1,2.6c-5.8,1.4-11.8,2.8-17.8,3.9C313.4,223,313.3,223,313.1,223z M307.8,209.4
				c0.1,0.5,0.2,1,0.2,1.4c0.3,2.2,0.7,4.3,1.5,6.1c0.6,1.4,2.8,3,3.5,3l0,0c5.9-1.1,11.9-2.5,17.6-3.9c3.7-0.9,7.4-1.8,11.2-2.6
				c6.6-1.4,13.3-2.7,19.7-4c2.2-0.4,4.5-0.9,6.7-1.3c-2.8-4.7-7.9-6.5-16.3-5.8c-10.9,0.9-21.8,2.9-32.4,4.8
				C315.7,208,311.7,208.7,307.8,209.4z"/>
			<path class="st2" d="M313.1,224.3c-3,0-6.4-3.2-7.4-5.5c-1.1-2.3-1.5-4.8-1.8-7.1l-0.1-0.6c-0.1-0.7-0.2-1.5-0.4-2.2l-0.3-1.5
				c-0.1-0.4,0-0.7,0.2-1c0.2-0.3,0.5-0.5,0.9-0.6l1.5-0.2c4.4-0.7,8.8-1.5,13.1-2.3c10.8-2,21.9-4,32.9-4.9
				c4.1-0.3,16.5-1.3,21.4,10l0.7,1.7c0.2,0.4,0.1,0.8-0.1,1.2c-0.2,0.4-0.5,0.6-0.9,0.7l-11.5,2.3c-6.1,1.2-12.4,2.4-18.5,3.8
				c-3.3,0.7-6.6,1.5-9.9,2.3l-1.2,0.3c-5.5,1.3-11.7,2.8-17.8,3.9C313.6,224.3,313.3,224.3,313.1,224.3z M305.9,208.1l0,0.1
				c0.2,0.8,0.3,1.6,0.4,2.4l0.1,0.5c0.4,2.3,0.7,4.6,1.6,6.6c0.8,1.7,3.4,4,5,4c0.1,0,0.2,0,0.2,0c6.2-1.2,12.4-2.6,17.8-3.9
				l1.2-0.3c3.3-0.8,6.6-1.6,10-2.3c6.2-1.3,12.4-2.6,18.6-3.8l9.9-2l-0.1-0.1c-3.7-8.6-12.4-8.9-18.7-8.4
				c-10.9,0.9-21.9,2.9-32.5,4.8c-4.6,0.8-9,1.6-13.4,2.4L305.9,208.1z M313.1,221.4c-1.5,0-4-2.2-4.7-3.8c-0.9-2-1.3-4.3-1.6-6.5
				l-0.2-1.4c-0.1-0.4,0-0.7,0.2-1c0.2-0.3,0.5-0.5,0.9-0.5c3.9-0.7,7.8-1.4,11.7-2.1c10.8-2,21.7-4,32.6-4.8
				c8.9-0.7,14.5,1.3,17.5,6.4c0.2,0.4,0.3,0.8,0.1,1.2s-0.5,0.7-1,0.8l-6.7,1.3c-6.5,1.2-13.2,2.6-19.7,4
				c-3.7,0.8-7.4,1.7-11.1,2.6c-5.4,1.3-11.6,2.8-17.6,3.9C313.3,221.3,313.2,221.4,313.1,221.4z M309.3,210.5l0,0.1
				c0.3,2.1,0.6,4.1,1.4,5.8c0.4,0.9,1.8,1.9,2.3,2.2c5.9-1.1,11.9-2.5,17.3-3.8c3.7-0.9,7.5-1.8,11.2-2.6c6.6-1.4,13.3-2.7,19.8-4
				l4.6-0.9c-2.7-3-7.1-4.1-13.8-3.5c-10.7,0.9-21.6,2.8-32.1,4.8C316.3,209.3,312.8,209.9,309.3,210.5z"/>
		</g>
	</g>
	<g>
		<g>
			<path class="st2" d="M302.4,210.4l-1.1-2.2l-5.3-3.8l-15.4-2.8l12.1-16.4c3-3.4,6-6.7,8.9-9.9c1.8-4.3,3.6-8.7,5.4-13l2.3-11.2
				l-0.7-5c-0.3-2.4-0.7-4.9-1.1-7.7l-0.3-2.1l2.1,0.5c8.3,1.9,9.7,7.7,11,12.8c0.5,1.9,0.9,3.6,1.6,5.1l0.2,0.4l-1.9,21.9l-1.9,3.8
				c-3.1,6.3-6.2,12.6-9.4,18.9l-3.8,6.4c-0.5,0.8-1,1.5-1.5,2.3L302.4,210.4z M285.7,199.6l11.7,2.3l4.9,3.5
				c0.2-0.3,0.3-0.5,0.5-0.8l3.7-6.2c3.1-6.2,6.2-12.5,9.3-18.9l1.8-3.6l1.6-20.3c-0.8-1.7-1.2-3.5-1.7-5.3c-1.1-4.3-2-8.1-6.7-10
				c0.3,1.9,0.5,3.7,0.8,5.4l0.8,5.5l-2.5,11.9c-1.9,4.7-3.8,9.1-5.6,13.5l-0.3,0.4c-3,3.3-6,6.7-9,10L285.7,199.6z"/>
			<path class="st2" d="M302.4,211.8L302.4,211.8c-0.6,0-1-0.3-1.2-0.7l-1-1.9l-4.8-3.4l-15.1-2.8c-0.5-0.1-0.8-0.4-1-0.8
				c-0.2-0.4-0.1-0.9,0.2-1.3l12.1-16.4l1.8-2c2.4-2.6,4.7-5.2,7-7.8c1.8-4.2,3.6-8.5,5.4-12.8l2.2-10.7l-2.1-14.6
				c-0.1-0.4,0.1-0.9,0.4-1.2c0.3-0.3,0.8-0.4,1.2-0.3l2.1,0.5c9.1,2.1,10.7,8.6,12,13.8c0.5,1.8,0.9,3.5,1.5,4.9l0.2,0.4
				c0.1,0.2,0.1,0.5,0.1,0.7l-1.9,21.9c0,0.2-0.1,0.3-0.1,0.5l-1.9,3.8c-3.1,6.3-6.2,12.6-9.4,18.9l-3.8,6.4c-0.5,0.8-1,1.6-1.5,2.3
				l-1.4,2.1C303.3,211.6,302.9,211.8,302.4,211.8z M282.9,200.7l13.3,2.4c0.2,0,0.4,0.1,0.5,0.2l5.3,3.8c0.2,0.1,0.3,0.3,0.4,0.5
				l0.1,0.2l0.1-0.2c0.5-0.7,1-1.5,1.5-2.2l3.7-6.3c3.1-6.2,6.2-12.6,9.3-18.9l1.8-3.6l1.8-21.3l0,0c-0.8-1.6-1.3-3.5-1.7-5.3
				c-1.3-5-2.5-10.1-10-11.8l-0.2,0l1.8,12.9c0,0.2,0,0.3,0,0.5l-2.3,11.2c-1.9,4.6-3.7,8.9-5.5,13.2c-0.1,0.1-0.1,0.3-0.2,0.4
				c-2.4,2.7-4.8,5.3-7.2,8l-1.7,1.9L282.9,200.7z M302.3,206.7c-0.3,0-0.5-0.1-0.8-0.3l-4.6-3.3l-11.4-2.2c-0.5-0.1-0.8-0.4-1-0.8
				c-0.2-0.4-0.1-0.9,0.2-1.3l9.2-12.5c3.1-3.4,6.1-6.8,9.1-10.1l0.1-0.2c1.7-4.2,3.6-8.6,5.5-13.3l2.4-11.5l-1.5-10.7
				c-0.1-0.5,0.1-0.9,0.5-1.2c0.4-0.3,0.9-0.4,1.3-0.2c5.3,2.1,6.4,6.6,7.5,10.9c0.5,1.8,0.9,3.5,1.6,5.1c0.1,0.2,0.1,0.4,0.1,0.7
				l-1.6,20.3c0,0.2-0.1,0.3-0.1,0.5L307.7,199l-3.7,6.3c-0.2,0.3-0.3,0.6-0.5,0.8c-0.2,0.3-0.5,0.5-0.9,0.6
				C302.5,206.7,302.4,206.7,302.3,206.7z M288.1,198.7l9.6,1.9c0.2,0,0.4,0.1,0.5,0.2l3.7,2.6l3.4-5.7l10.9-22.1l1.6-19.7
				c-0.7-1.7-1.2-3.4-1.6-5.1c-0.8-3.3-1.5-6.1-3.7-7.9l1.2,8.2c0,0.2,0,0.3,0,0.5l-2.5,11.9c-2,4.9-3.8,9.3-5.7,13.7l-0.4,0.6
				c-3.1,3.5-6.1,6.8-9.1,10.2L288.1,198.7z"/>
		</g>
	</g>
	<g>
		<g>
			<path class="st2" d="M193.7,207.1l-0.4-1c-1.5-3.7-3.1-7.5-4.6-11.2c-2-3.8-4.1-7.8-6.2-11.7l-2.3-4.4c-0.5-1.4-0.9-2.6-1.4-3.8
				c-1.1-2.8-2.3-5.7-1.9-8.6c0.7-4.8,2.4-9.4,4-13.9c0.7-1.8,1.3-3.6,1.9-5.5l0.4-1.1l6.5,0.4l2.7,15.6l5.9,13.1l8.8,12.1
				c2.8,3,5.7,6.1,8.7,9.2l0.3,0.4l2.5,5.8l-4.3,1.1c-3,0.8-5.7,1.5-8.5,2.2c-3.5,0.4-6.9,0.8-10.3,1.2L193.7,207.1z M185.2,148.9
				c-0.5,1.5-1,3-1.6,4.5c-1.6,4.5-3.2,8.8-3.9,13.3c-0.3,2.1,0.7,4.5,1.7,7.1c0.5,1.3,1,2.5,1.4,3.8l2.2,4.2
				c2.1,4,4.2,7.9,6.2,11.9c1.5,3.5,2.9,6.9,4.3,10.3c3.1-0.3,6.2-0.7,9.3-1.1c2.6-0.7,5.4-1.4,8.3-2.2l1-0.3l-1-2.4
				c-2.9-3.1-5.7-6.1-8.6-9.2l-9.1-12.6l-6.2-13.8l-2.3-13.5L185.2,148.9z"/>
			<path class="st2" d="M193.7,208.4c-0.5,0-1-0.3-1.2-0.8l-0.4-1c-1.5-3.7-3.1-7.5-4.6-11.2l-8.5-16.1c-0.5-1.6-1-2.8-1.5-3.9
				c-1.2-2.9-2.5-6.1-2-9.3c0.7-4.9,2.4-9.6,4.1-14.1c0.6-1.8,1.3-3.6,1.9-5.4l0.4-1.1c0.2-0.6,0.7-1,1.4-0.9l6.5,0.4
				c0.6,0,1.1,0.5,1.2,1.1l2.6,15.4l5.9,13l8.6,11.8l9,9.7l2.6,6c0.1,0.4,0.1,0.8,0,1.1c-0.2,0.3-0.5,0.6-0.9,0.7l-4.3,1.1
				c-3,0.8-5.7,1.5-8.6,2.2c-3.7,0.5-7.1,0.8-10.4,1.2l-1.5,0.2C193.8,208.4,193.8,208.4,193.7,208.4z M184.1,147.2l0,0.1
				c-0.6,1.8-1.3,3.7-1.9,5.5c-1.6,4.4-3.2,9-3.9,13.6c-0.4,2.5,0.7,5.3,1.8,7.9c0.5,1.2,1,2.4,1.4,3.9l8.4,16
				c1.6,3.9,3.1,7.6,4.7,11.3l0,0.1l0.5-0.1c3.4-0.4,6.7-0.7,10.2-1.2c2.6-0.7,5.4-1.4,8.4-2.2l2.8-0.7l-2-4.6l-8.5-9l-8.9-12.2
				l-6.1-13.3c0-0.1-0.1-0.2-0.1-0.3l-2.5-14.5L184.1,147.2z M195.6,205.2c-0.5,0-1-0.3-1.2-0.8c-1.4-3.4-2.8-6.8-4.2-10.3
				c-2-3.8-4.1-7.8-6.2-11.8l-2.2-4.2c-0.5-1.5-1-2.7-1.5-3.9c-1.1-2.7-2.2-5.3-1.8-7.8c0.7-4.6,2.3-9,3.9-13.5
				c0.5-1.5,1.1-3,1.6-4.5c0.2-0.6,0.6-0.8,1.3-0.9l1.9,0.1c0.6,0,1.1,0.5,1.2,1.1l2.3,13.3l6.1,13.6l9,12.4c2.8,2.9,5.6,6,8.5,9
				c0.1,0.1,0.2,0.3,0.3,0.4l1,2.4c0.1,0.4,0.1,0.8,0,1.1c-0.2,0.3-0.5,0.6-0.9,0.7l-1,0.3c-2.9,0.8-5.7,1.5-8.3,2.2
				c-3.3,0.4-6.4,0.7-9.5,1.1L195.6,205.2z M186,150.7c-0.4,1-0.7,2.1-1.1,3.1c-1.6,4.5-3.1,8.7-3.8,13c-0.3,1.7,0.6,4,1.6,6.4
				c0.5,1.3,1.1,2.6,1.5,3.9l2.1,3.9c2.1,4,4.2,7.9,6.2,11.9c1.4,3.3,2.7,6.4,3.9,9.5c2.8-0.3,5.5-0.6,8.3-0.9
				c2.3-0.6,4.9-1.3,7.7-2l-0.3-0.8c-2.8-3-5.6-6-8.4-9l-9.2-12.7l-6.3-14c0-0.1-0.1-0.2-0.1-0.3L186,150.7z"/>
		</g>
	</g>
	<g>
		<g>
			<path class="st3" d="M302.6,207.5c0.5-0.7,1-1.4,1.4-2.2c0.2,0.8,0.3,1.6,0.5,2.4C303.9,207.7,303.3,207.6,302.6,207.5z"/>
			<path class="st2" d="M304.5,209.1l-0.2,0l-1.9-0.2c-0.5-0.1-0.9-0.3-1.1-0.8c-0.2-0.4-0.2-0.9,0.1-1.3l1.4-2.2
				c0.3-0.5,0.8-0.6,1.4-0.6c0.5,0.1,1,0.5,1.1,1.1l0.5,2.4c0.1,0.4,0,0.9-0.3,1.2C305.3,208.9,304.9,209.1,304.5,209.1z"/>
		</g>
	</g>
	<g>
		<g>
			<path class="st2" d="M247,353.1c-5.1,0-10.4-0.2-15.5-0.8c-3.8-0.4-6.6-2.4-7.8-5.6c-1.6-4.1-0.3-9.3,3.5-13.5
				c0.3-0.3,0.8-0.5,1.2-0.4c0.6,0.1,1.2,0.1,1.8,0.2c1.5,0.1,3.1,0.2,4.5,0.9c10.9,5.5,22,5.1,33.7-1.2c0.5-0.3,1.1-0.2,1.5,0.2
				c0.8,0.7,1.8,1.5,2.8,2.2c2.9,2.2,5.2,4,4.8,6c-0.8,3.6-4.2,10.6-8,10.9C262.9,352.6,255.2,353.1,247,353.1z M228.7,335.5
				c-2.7,3.3-3.7,7.3-2.5,10.2c0.9,2.2,2.9,3.6,5.6,3.9c13.2,1.5,27,0.6,37.4-0.4c1.7-0.2,4.8-5.1,5.6-8.8c-0.2-0.5-2.4-2.3-3.8-3.3
				c-0.8-0.6-1.5-1.2-2.2-1.8c-12.3,6.3-23.9,6.6-35.4,0.8c-0.9-0.5-2.2-0.6-3.5-0.7C229.5,335.6,229.1,335.5,228.7,335.5z"/>
		</g>
	</g>
	<g>
		<g>
			<path class="st2" d="M214.9,277.8c-0.2,0-0.3,0-0.5-0.1c-7.9-1.6-13.3-8.2-14.9-18.1c-0.1-0.4,0-0.8,0.3-1.1
				c0.3-0.3,0.6-0.5,1-0.5h9.5c0.5,0,0.9,0.2,1.1,0.6l9.1,14c0.4,0.6,0.2,1.4-0.4,1.8c-0.5,0.3-0.9,0.7-1.4,1.2
				C217.5,276.7,216.3,277.8,214.9,277.8z M202.4,260.7c1.7,7.9,6.2,13.1,12.5,14.4c0.4,0,1.5-1,2.1-1.5c0.2-0.2,0.4-0.4,0.6-0.5
				l-8-12.4H202.4z"/>
		</g>
	</g>
	<g>
		<g>
			<path class="st2" d="M281.7,278.5c-0.3,0-0.6-0.1-0.8-0.3c-0.3-0.2-0.5-0.6-0.5-1l-0.6-9.1c0-0.3,0.1-0.6,0.3-0.9l5.6-7.2
				c0.2-0.3,0.5-0.4,0.8-0.5l12.5-2.2c0.4,0,0.8,0,1.1,0.3c0.3,0.3,0.5,0.7,0.5,1.1c-0.5,11.4-5.5,16.8-18.5,19.8
				C281.9,278.5,281.8,278.5,281.7,278.5z M282.5,268.5l0.5,7c10-2.6,14-6.7,14.8-15.3l-10.3,1.8L282.5,268.5z"/>
		</g>
	</g>
</g>
</svg>
