<?xml version="1.0" encoding="utf-8"?>
<!-- Generator: Adobe Illustrator 19.1.0, SVG Export Plug-In . SVG Version: 6.00 Build 0)  -->
<svg version="1.1" id="Layer_1" xmlns="http://www.w3.org/2000/svg" xmlns:xlink="http://www.w3.org/1999/xlink" x="0px" y="0px"
	 viewBox="0 0 500 500" style="enable-background:new 0 0 500 500;" xml:space="preserve">
<style type="text/css">
	.st0{fill:#F8B017;}
	.st1{fill:none;}
	.st2{fill:#F5AF19;}
	.st3{fill:#E5D7C8;}
	.st4{fill:#F4AE19;}
	.st5{fill:#F7AF17;}
	.st6{fill:#0FA2D4;}
</style>
<g>
	<g>
		<path class="st2" d="M47.2,291.3c0.2-0.8,0.3-1.6,0.6-3c3,0,6,0,9,0c2.1,0,3.8-0.6,5.3-2.4c2-2.5,5.5-2.4,7.5,0
			c1.4,1.8,3.3,2.3,5.3,2.3c3.3,0.1,6.5,0,10,0c0,27.5,0,54.4,0,81.8c-5.4,0-10.7,0-16,0c-6.2,0-12.3-0.1-18.5-0.1
			c-1.1,0-2.1-0.3-3.2-0.5C47.2,343.3,47.2,317.3,47.2,291.3z M49.8,290.9c0,25.8,0,51.3,0,76.8c2.3,0,4.5,0,7,0
			c0-4.2-0.2-8.3,0.1-12.3c0.2-2,1-4.2,2.2-5.7c2.6-3.3,6.4-3.9,10.3-2.7c4,1.2,5.8,4.3,6,8.2c0.2,4.2,0,8.4,0,12.6
			c2.8,0,4.9,0,7.1,0c0-25.7,0-51.3,0-76.8c-4,0-7.7,0-11.4,0c-0.8,7.5-0.8,7.6-5.7,7.6c-1.2,0-3.2-0.1-3.5-0.7c-1-2.1-1.3-4.5-2-7
			C56.8,290.9,53.4,290.9,49.8,290.9z M73.7,367.7c-0.4-4.6-0.6-8.9-1.2-13.1c-0.4-2.9-3-4.9-5.9-5c-3-0.2-6.1,1.6-6.6,4.4
			c-0.7,4.5-0.9,9.1-1.3,13.7C63.9,367.7,68.6,367.7,73.7,367.7z M68.7,295.2c-0.2-2.3-0.4-4.3-0.5-6.4c-0.1-1.7-1.3-1.9-2.5-1.6
			c-0.8,0.2-2,1-2.1,1.7c-0.4,2-0.3,4.1-0.5,6.3C64.9,295.2,66.5,295.2,68.7,295.2z"/>
		<path class="st2" d="M75,370.6c-2,0-4.1,0-6.1,0c-6.3,0-12.4,0-18.5-0.1c-0.8,0-1.6-0.2-2.3-0.3c-0.3-0.1-0.7-0.1-1-0.2
			c-0.3,0-0.5-0.3-0.5-0.6v-78.1c0,0,0-0.1,0-0.1l0.6-3.1c0-0.3,0.3-0.5,0.6-0.5l2.7,0c2.1,0,4.2,0,6.3,0c2.2,0,3.7-0.7,4.9-2.1
			c1.1-1.3,2.6-2.1,4.2-2.1h0c1.6,0,3.1,0.8,4.2,2.1c1.1,1.4,2.6,2.1,4.9,2.1c2.3,0,4.5,0,6.9,0l3.1,0c0.3,0,0.6,0.3,0.6,0.6V370
			c0,0.3-0.3,0.6-0.6,0.6l-5,0C78.3,370.6,76.6,370.6,75,370.6z M47.8,368.9c0.2,0,0.4,0.1,0.6,0.1c0.7,0.2,1.4,0.3,2.1,0.3
			c6.1,0.1,12.2,0.1,18.5,0.1c3.7,0,7.3,0,11,0l4.4,0v-80.6l-2.5,0c-2.3,0-4.6,0-6.9,0c-1.9,0-4-0.4-5.8-2.5c-0.8-1-2-1.7-3.3-1.7h0
			c-1.3,0-2.4,0.6-3.3,1.6c-1.4,1.8-3.2,2.5-5.7,2.6c-2.1,0-4.2,0-6.3,0l-2.2,0l-0.5,2.5V368.9z M73.7,368.3H58.8
			c-0.2,0-0.3-0.1-0.4-0.2c-0.1-0.1-0.2-0.3-0.1-0.4c0.1-1.4,0.2-2.7,0.3-4.1c0.2-3.2,0.5-6.5,1-9.7c0.5-3.1,3.7-4.9,6.8-4.9
			c0.1,0,0.3,0,0.4,0c3.3,0.2,6,2.5,6.4,5.5c0.4,3,0.6,6,0.8,9.1c0.1,1.3,0.2,2.7,0.3,4c0,0.2,0,0.3-0.2,0.4
			C74,368.2,73.8,368.3,73.7,368.3z M59.4,367.2h13.7c-0.1-1.2-0.2-2.3-0.3-3.4c-0.2-3.1-0.5-6.1-0.8-9.1c-0.3-2.5-2.6-4.4-5.3-4.5
			c-0.1,0-0.2,0-0.4,0c-2.5,0-5.2,1.4-5.6,3.9c-0.5,3.2-0.8,6.4-1,9.6C59.6,364.9,59.5,366,59.4,367.2z M82.6,368.3h-7.1
			c-0.3,0-0.6-0.3-0.6-0.6c0-1.3,0-2.5,0-3.8c0-2.9,0.1-5.8-0.1-8.7c-0.2-4-2.1-6.6-5.6-7.7c-2.8-0.8-6.8-1.1-9.7,2.5
			c-1.1,1.4-1.9,3.5-2.1,5.4c-0.2,2.8-0.2,5.6-0.1,8.6c0,1.2,0,2.5,0,3.7c0,0.3-0.3,0.6-0.6,0.6h-7c-0.3,0-0.6-0.3-0.6-0.6v-76.8
			c0-0.3,0.3-0.6,0.6-0.6h10.1c0.3,0,0.5,0.2,0.6,0.4c0.2,0.7,0.4,1.4,0.5,2.1c0.4,1.7,0.8,3.3,1.5,4.8l0,0c0,0,0.4,0.4,2.7,0.4
			c0.1,0,0.2,0,0.3,0c4.4,0,4.4,0,5.1-7.1c0-0.3,0.3-0.5,0.6-0.5h11.4c0.3,0,0.6,0.3,0.6,0.6v76.8C83.2,368,82.9,368.3,82.6,368.3z
			 M76.1,367.1h5.9v-75.6H71.7c-0.7,7-0.9,7.6-6.2,7.6c-0.1,0-0.2,0-0.3,0c-2.9,0-3.5-0.5-3.8-1c-0.7-1.6-1.1-3.2-1.5-5
			c-0.1-0.5-0.3-1.1-0.4-1.7h-9.1v75.7h5.9c0-1,0-2.1,0-3.1c0-3-0.1-5.8,0.1-8.7c0.2-2.1,1.1-4.4,2.4-6c2.6-3.3,6.4-4.2,10.9-2.9
			c4,1.2,6.2,4.2,6.4,8.7c0.1,2.9,0.1,5.9,0.1,8.8C76.1,365,76.1,366,76.1,367.1z M68.7,295.8H63c-0.2,0-0.3-0.1-0.4-0.2
			c-0.1-0.1-0.2-0.3-0.2-0.4c0-0.6,0.1-1.2,0.1-1.8c0.1-1.6,0.1-3.1,0.4-4.5c0.2-1,1.6-1.9,2.5-2.1c0.9-0.3,1.7-0.2,2.3,0.2
			c0.5,0.4,0.9,1,0.9,1.9c0.1,1.4,0.2,2.8,0.3,4.3l0.2,2.1c0,0.2,0,0.3-0.2,0.4C69,295.8,68.8,295.8,68.7,295.8z M63.7,294.7H68
			l-0.1-1.5c-0.1-1.5-0.2-2.9-0.3-4.3c0-0.5-0.2-0.8-0.4-1c-0.4-0.3-1-0.2-1.3-0.1c-0.8,0.2-1.7,0.9-1.7,1.3
			c-0.3,1.4-0.3,2.8-0.4,4.4C63.7,293.8,63.7,294.2,63.7,294.7z"/>
	</g>
	<g>
		<path class="st2" d="M47.2,281.7c2.2-6.6,4.4-13.2,6.6-19.8c1.6-5,1.6-5,6.9-5.1c4.6-0.1,9.3-0.3,13.9-0.3c0.8,0,2,0.7,2.2,1.3
			c2.7,8.4,5.2,16.9,7.8,25.3c0.1,0.4,0,0.8,0,1.9c-4.3,0.1-8.7,0.2-13,0.2c-0.5,0-1.1-0.9-1.4-1.5c-0.9-1.5-1.7-3.1-2.7-4.6
			c-0.8-1.2-1.8-1.2-2.6,0c-0.8,1.1-1.6,2.2-2,3.5c-0.8,2.3-2.3,3-4.6,2.8c-3.7-0.3-7.4-0.3-11.1-0.5
			C47.2,283.7,47.2,282.7,47.2,281.7z M49.4,283.3c3,0,5.5-0.1,7.9,0c1.8,0.1,2.9-0.8,3.8-2.4c0.8-1.5,1.8-3.1,3-4.4
			c1.4-1.6,3.1-1.5,4.6,0c0.6,0.7,1.4,1.4,1.6,2.2c1.3,4.5,4.6,5.1,8.6,4.5c0.3-0.1,0.7-0.1,1-0.1c1.8,0,2.4-0.6,1.9-2.5
			c-2.2-6.8-4.2-13.6-6.6-20.4c-0.3-0.9-1.9-2-3-2c-4.5-0.2-8.9-0.2-13.4,0c-0.8,0-1.9,1-2.1,1.8c-1.3,3.5-2.3,7-3.4,10.6
			C52,274.7,50.8,278.7,49.4,283.3z"/>
		<path class="st2" d="M59,285.8c-0.2,0-0.5,0-0.7,0c-2.6-0.2-5.2-0.3-7.8-0.4c-1.1,0-2.2-0.1-3.3-0.1c-0.3,0-0.6-0.3-0.6-0.6v-3
			c0-0.1,0-0.1,0-0.2l6.6-19.8c1.7-5.2,1.9-5.4,7.5-5.5l1.6,0c3.9-0.1,8-0.2,12-0.2c0.1,0,0.2,0,0.4,0c0.9,0,2.5,0.7,2.8,1.7
			c2.5,7.9,5,16,7.3,23.8l0.5,1.6c0.1,0.3,0.1,0.7,0.1,1.1c0,0.2,0,0.5,0,0.9c0,0.3-0.3,0.6-0.6,0.6l-2.9,0.1
			c-3.3,0.1-6.7,0.1-10.1,0.1c-0.7,0-1.3-0.8-1.9-1.8c-0.4-0.7-0.8-1.4-1.2-2.1c-0.5-0.8-0.9-1.7-1.4-2.5c-0.3-0.4-0.6-0.6-0.8-0.6
			h0c-0.3,0-0.6,0.2-0.9,0.6l-0.3,0.4c-0.7,0.9-1.3,1.9-1.7,2.9C62.7,284.8,61.3,285.8,59,285.8z M47.8,284.1c0.9,0,1.8,0.1,2.7,0.1
			c2.6,0.1,5.2,0.2,7.8,0.4c2.2,0.2,3.3-0.5,4-2.4c0.4-1.2,1.1-2.2,1.8-3.2l0.3-0.4c0.6-0.9,1.3-1.1,1.8-1.1c0,0,0,0,0,0
			c0.5,0,1.2,0.2,1.8,1.2c0.5,0.8,1,1.7,1.5,2.5c0.4,0.7,0.8,1.4,1.2,2.1c0.2,0.3,0.7,1.2,1,1.3c3.3,0,6.7-0.1,10-0.1l2.4,0
			c0-0.2,0-0.3,0-0.4c0-0.3,0-0.6,0-0.7l-0.5-1.6c-2.4-7.8-4.8-15.9-7.3-23.8c-0.1-0.3-1.1-0.9-1.7-0.9c-0.1,0-0.2,0-0.4,0
			c-4,0-8,0.1-11.9,0.2l-1.6,0c-4.9,0.1-4.9,0.1-6.4,4.7l-6.6,19.7V284.1z M76.4,284.1c-2.8,0-5.5-1-6.7-5.1
			c-0.2-0.7-0.8-1.3-1.4-1.9c-0.7-0.7-1.4-1.1-2-1.1l0,0c-0.6,0-1.2,0.3-1.8,1c-1,1.1-2,2.6-2.9,4.3c-1,1.8-2.3,2.7-4.1,2.7
			c-0.1,0-0.1,0-0.2,0c-1.7,0-3.3,0-5.2,0c-0.9,0-1.8,0-2.7,0c-0.2,0-0.4-0.1-0.5-0.2c-0.1-0.1-0.1-0.3-0.1-0.5l1.3-4.4
			c0.9-2.9,1.7-5.5,2.5-8.2l0.5-1.7c0.9-2.9,1.9-6,2.9-8.9c0.3-0.9,1.6-2.1,2.6-2.1c5.1-0.2,9.4-0.2,13.5,0c1.2,0.1,3.1,1.2,3.5,2.4
			c1.5,4.5,3,9,4.4,13.4c0.7,2.3,1.5,4.6,2.2,7c0.3,1.1,0.3,1.9-0.1,2.4c-0.4,0.5-1.1,0.8-2.2,0.8c-0.1,0-0.2,0-0.3,0
			c-0.2,0-0.5,0-0.7,0.1C78.2,284,77.3,284.1,76.4,284.1z M66.3,274.8c1,0,1.9,0.5,2.8,1.4c0.7,0.8,1.5,1.5,1.8,2.5
			c1.1,3.6,3.5,4.8,8,4.1c0.3-0.1,0.7-0.1,1.1-0.1c0.8,0,1.2-0.1,1.4-0.3c0.2-0.2,0.1-0.7-0.1-1.4c-0.7-2.3-1.5-4.6-2.2-7
			c-1.4-4.4-2.8-9-4.4-13.4c-0.2-0.7-1.6-1.6-2.5-1.6c-4-0.2-8.3-0.2-13.4,0c-0.5,0-1.4,0.8-1.6,1.4c-1.1,2.9-2,5.9-2.9,8.9
			l-0.5,1.7c-0.8,2.7-1.7,5.4-2.5,8.2l-1.1,3.6c1.5,0,2.9,0,4.2,0c1,0,2,0,3,0c1.5,0,2.4-0.6,3.3-2.1c0.9-1.8,2-3.3,3-4.5
			C64.4,275.3,65.3,274.9,66.3,274.8L66.3,274.8z"/>
	</g>
	<g>
		<path class="st2" d="M224.1,217.3c5,0,9.7,0,14.3,0c1.9,0,3.4-0.5,4.9-2.1c3.3-3.6,10.1-3.3,13.6,0c1.1,1,2.8,1.8,4.3,1.9
			c4.7,0.2,9.4,0.1,14.4,0.1c0,51.1,0,101.7,0,152.3c-0.2,0.1-0.5,0.2-0.8,0.2c-15.9,0-31.7,0-47.6,0.1c-2.4,0-3.2-0.7-3.2-3.2
			c0.1-36.4,0-72.8,0-109.2c0-12.6,0.1-25.2,0.1-37.8C224.1,219.2,224.1,218.7,224.1,217.3z M273.7,220c-4.8,0-9.4,0-13.9,0
			c-1.4,7-4.2,10.5-8.9,10.4c-2.2-0.1-4.5-0.8-6.4-1.9c-3.1-1.8-3.6-5.2-3.7-8.5c-5,0-9.8,0-14.5,0c0,49.3,0,98.5,0,147.7
			c3.4,0,6.6,0,10.1,0c0-1.1,0-2.1,0-3.1c0.1-9.5,0.1-19.1,0.5-28.6c0.3-6.8,6.3-11.8,13.5-11.7c6.9,0.1,12.5,5,12.8,11.8
			c0.4,8,0.3,16,0.4,24.1c0,2.5,0,5,0,7.6c3.5,0,6.8,0,10.1,0C273.7,318.4,273.7,269.3,273.7,220z M261.5,366.8
			c-0.4-10.6-0.7-21.1-1.3-31.5c-0.3-5.2-4.3-8.2-10.1-8.2c-5.9,0-9.9,2.9-10.2,8.3c-0.6,10.3-0.7,20.6-1,30.9
			c0,0.1,0.1,0.3,0.3,0.6C246.3,366.8,253.5,366.8,261.5,366.8z M243.3,221.3c0,3.4,3.5,7.2,6.6,7.1c3.3-0.1,6.8-3.5,6.8-6.9
			c0.1-3.7-2.9-6.8-6.6-6.8C246.4,214.6,243.3,217.6,243.3,221.3z"/>
		<path class="st2" d="M227.1,370.5c-1.4,0-2.3-0.3-2.8-0.8c-0.6-0.6-0.9-1.5-0.9-2.9c0-24.6,0-49.2,0-73.9c0-11.8,0-23.6,0-35.3
			c0-9,0-18,0.1-27l0-13.3c0-0.3,0.3-0.6,0.6-0.6h4.1c3.5,0,6.9,0,10.2,0c1.9,0,3.3-0.6,4.5-1.9c1.5-1.7,3.8-2.6,6.5-2.7
			c2.9-0.1,6,0.9,7.9,2.8c1,1,2.7,1.7,4,1.8c3.4,0.2,6.7,0.1,10.2,0.1c1.4,0,2.7,0,4.1,0c0.3,0,0.6,0.3,0.6,0.6v152.3
			c0,0.3-0.2,0.5-0.4,0.6l-0.1,0c-0.2,0.1-0.5,0.2-0.8,0.2c-5.3,0-10.6,0-15.9,0C248.4,370.4,237.8,370.4,227.1,370.5L227.1,370.5z
			 M224.7,217.9l0,12.7c0,9-0.1,18-0.1,27c0,11.8,0,23.6,0,35.3c0,24.6,0,49.2,0,73.9c0,1.1,0.2,1.7,0.5,2.1c0.3,0.3,1,0.5,2,0.5
			h0.1c10.6-0.1,21.2-0.1,31.8-0.1c5.3,0,10.6,0,15.9,0c0.1,0,0.1,0,0.2,0V217.9c-1.2,0-2.4,0-3.5,0c-3.5,0-6.9,0.1-10.3-0.1
			c-1.6-0.1-3.5-0.9-4.7-2.1c-1.7-1.6-4.3-2.5-7.1-2.4c-2.4,0.1-4.4,0.9-5.7,2.4c-1.4,1.5-3,2.2-5.3,2.2c-3.3,0-6.7,0-10.2,0H224.7z
			 M273.7,368.3h-10.1c-0.3,0-0.6-0.3-0.6-0.6l0-2.5c0-1.7,0-3.4,0-5.1c0-2.2-0.1-4.4-0.1-6.6c-0.1-5.7-0.1-11.6-0.4-17.4
			c-0.3-6.3-5.5-11.2-12.2-11.2c0,0-0.1,0-0.1,0c-6.9,0-12.5,4.9-12.8,11.2c-0.3,6.7-0.4,13.5-0.4,20.1c0,2.8,0,5.7-0.1,8.5
			c0,0.7,0,1.4,0,2.1v1c0,0.3-0.3,0.6-0.6,0.6h-10.1c-0.3,0-0.6-0.3-0.6-0.6V220c0-0.3,0.3-0.6,0.6-0.6h14.5c0.3,0,0.6,0.2,0.6,0.6
			c0.1,3.7,0.8,6.4,3.4,8c1.9,1.1,4.1,1.7,6.1,1.8c0.1,0,0.2,0,0.3,0c4.2,0,6.8-3.2,8.1-9.9c0.1-0.3,0.3-0.5,0.6-0.5h13.9
			c0.3,0,0.6,0.3,0.6,0.6v147.7C274.3,368,274,368.3,273.7,368.3z M264.2,367.1h9V220.5h-12.9c-1.5,7-4.4,10.4-9.1,10.4
			c-0.1,0-0.2,0-0.3,0c-2.2-0.1-4.6-0.8-6.6-2c-3.1-1.8-3.8-5.1-4-8.4h-13.4v146.6h8.9v-0.4c0-0.8,0-1.5,0-2.2
			c0-2.8,0.1-5.7,0.1-8.5c0.1-6.6,0.1-13.4,0.4-20.1c0.3-6.9,6.4-12.3,13.9-12.3c0,0,0.1,0,0.1,0c7.3,0.1,13.1,5.4,13.4,12.3
			c0.3,5.8,0.3,11.7,0.4,17.5c0,2.2,0,4.4,0.1,6.6c0,1.7,0,3.4,0,5.2L264.2,367.1z M261.5,367.4h-22.3c-0.2,0-0.4-0.1-0.5-0.3
			c0-0.1-0.1-0.1-0.1-0.2c-0.1-0.2-0.2-0.4-0.2-0.6c0.1-2.9,0.2-5.8,0.2-8.8c0.2-7.3,0.3-14.8,0.8-22.1c0.3-5.4,4.4-8.8,10.7-8.8
			c0,0,0.1,0,0.1,0c6.2,0,10.3,3.4,10.6,8.7c0.5,7.4,0.7,14.9,1,22.2c0.1,3.1,0.2,6.2,0.3,9.3c0,0.2-0.1,0.3-0.2,0.4
			S261.6,367.4,261.5,367.4z M239.4,366.2h21.4c-0.1-2.9-0.2-5.8-0.3-8.7c-0.3-7.3-0.5-14.8-1-22.2c-0.3-4.8-3.8-7.6-9.5-7.7
			c0,0-0.1,0-0.1,0c-5.7,0-9.3,2.9-9.6,7.7c-0.4,7.4-0.6,14.9-0.8,22.1C239.6,360.4,239.5,363.3,239.4,366.2z M249.8,229
			c-1.5,0-3.1-0.8-4.5-2.2c-1.6-1.6-2.6-3.7-2.6-5.6l0,0c0-4,3.3-7.2,7.3-7.2c0,0,0.1,0,0.1,0c2,0,3.8,0.8,5.1,2.2
			c1.4,1.4,2.1,3.3,2,5.2C257.2,225.2,253.5,228.9,249.8,229C249.9,229,249.8,229,249.8,229z M243.9,221.3c0,1.5,0.8,3.4,2.2,4.7
			c1.2,1.2,2.5,1.8,3.7,1.8h0.1c3-0.1,6.2-3.3,6.3-6.4c0-1.7-0.6-3.2-1.7-4.4c-1.1-1.2-2.7-1.8-4.3-1.8c0,0,0,0-0.1,0
			C246.7,215.2,243.9,217.9,243.9,221.3L243.9,221.3z"/>
	</g>
	<g>
		<path class="st2" d="M411,311.1c0,19.5,0,38.9,0,58.6c-0.6,0.1-1.4,0.2-2.1,0.2c-41.1,0-82.3,0-123.4,0c-6.8,0-6,0.3-6-5.9
			c0-17,0.2-34,0.3-50.9c0-0.6,0.1-1.2,0.1-1.9C323.6,311.1,367.3,311.1,411,311.1z M409,313.2c-42.4,0-84.6,0-126.9,0
			c0,18.3,0,36.4,0,54.5c4.8,0,9.4,0,13.8,0c0.2-4.7,0.2-9.3,0.8-13.8c0.6-4.8,4.6-7.7,9.3-7.5c4.8,0.2,8.5,3.5,8.9,8.3
			c0.3,3.4,0.3,6.9,0.4,10.4c0,0.9,0,1.8,0,2.6c7,0,13.7,0,20.5,0c0-2.3,0-4.4,0-6.5c0.1-2.1,0.2-4.2,0.4-6.3
			c0.4-4.8,3.9-8.2,8.8-8.5c5.1-0.3,8.6,2.3,9.6,7.4c0.3,1.5,0.4,3,0.4,4.5c0.1,3.1,0,6.2,0,9.3c7.1,0,13.9,0,20.5,0
			c0.2-4.8,0.2-9.4,0.8-13.8c0.7-5,4.3-7.6,9.5-7.3c5.1,0.2,8.3,3.3,8.7,8.4c0.3,4.3,0.4,8.5,0.6,12.8c4.7,0,9.3,0,13.9,0
			C409,349.4,409,331.4,409,313.2z M312.1,367.3c0-4.4,0.3-8.4-0.1-12.5c-0.3-3.1-3.1-5.2-6.1-5.3c-3-0.1-5.9,1.7-6.4,4.7
			c-0.7,4.4-0.8,9-1.2,13.7C303.2,367.7,307.7,367.5,312.1,367.3z M391.6,367.3c0-4.4,0.2-8.5-0.1-12.6c-0.2-3-3-5-6-5.1
			c-3.1-0.1-6.1,1.9-6.5,4.9c-0.6,4.4-0.8,8.8-1.1,13.3c0.9,0,1.4,0.1,1.9,0.1C383.7,367.7,387.7,367.5,391.6,367.3z M351.9,367.3
			c0-4.3,0.2-8.5-0.1-12.6c-0.1-2.5-2.9-4.8-5.5-5.2c-2.8-0.4-6.2,1.1-6.7,3.8c-0.9,4.7-1.2,9.5-1.8,14.6
			C343,367.7,347.5,367.5,351.9,367.3z"/>
		<path class="st2" d="M349.6,370.4c-21.4,0-42.8,0-64.1,0h-0.9c-2.9,0-4.2,0-5-0.8c-0.7-0.7-0.7-1.8-0.6-3.9c0-0.5,0-1.1,0-1.8
			c0-12.6,0.1-25.4,0.2-37.7l0.1-13.2c0-0.4,0-0.8,0.1-1.3l0-0.7c0-0.3,0.3-0.5,0.6-0.5H411c0.3,0,0.6,0.3,0.6,0.6v58.6
			c0,0.3-0.2,0.6-0.5,0.6c-0.2,0-0.4,0-0.6,0.1c-0.5,0.1-1,0.1-1.5,0.1l-23.5,0C373.5,370.4,361.6,370.4,349.6,370.4z M285.5,369.2
			c33.3,0,66.6,0,99.9,0l23.5,0c0.5,0,0.9,0,1.4-0.1c0,0,0.1,0,0.1,0v-57.5h-130l0,0.2c0,0.4-0.1,0.8-0.1,1.2l-0.1,13.2
			c-0.1,12.4-0.2,25.2-0.2,37.7c0,0.7,0,1.3,0,1.8c0,1.7,0,2.7,0.3,3.1c0.4,0.4,1.7,0.4,4.1,0.4H285.5z M337.9,368.5
			c-0.2,0-0.3-0.1-0.4-0.2c-0.1-0.1-0.2-0.3-0.2-0.5c0.2-1.5,0.3-3,0.4-4.4c0.3-3.5,0.6-6.9,1.3-10.2c0.6-3,4.3-4.6,7.4-4.3
			c2.8,0.4,5.9,2.7,6,5.7c0.2,2.9,0.1,5.7,0.1,8.7c0,1.3,0,2.5,0,3.8c0,0.3-0.2,0.6-0.5,0.6L337.9,368.5L337.9,368.5z M345.5,350.1
			c-2.3,0-4.9,1.3-5.3,3.4c-0.7,3.3-1,6.6-1.3,10.1c-0.1,1.2-0.2,2.5-0.4,3.8l12.8-0.6c0-1.1,0-2.2,0-3.3c0-3,0.1-5.8-0.1-8.7
			c-0.1-2.1-2.5-4.3-5-4.6C346,350.1,345.7,350.1,345.5,350.1z M298.3,368.5c-0.2,0-0.3-0.1-0.4-0.2c-0.1-0.1-0.2-0.3-0.2-0.4
			c0.1-1.4,0.2-2.8,0.3-4.2c0.2-3.3,0.4-6.4,0.9-9.6c0.5-3,3.3-5.2,6.7-5.2c0.1,0,0.2,0,0.2,0c3.5,0.1,6.4,2.6,6.7,5.8
			c0.2,2.8,0.2,5.6,0.1,8.6c0,1.3,0,2.6,0,3.9c0,0.3-0.2,0.6-0.5,0.6L298.3,368.5L298.3,368.5z M305.7,350.1c-2.4,0-5.2,1.4-5.6,4.2
			c-0.5,3.1-0.7,6.2-0.9,9.5c-0.1,1.2-0.2,2.3-0.3,3.5l12.6-0.6c0-1.2,0-2.3,0-3.4c0-2.9,0.1-5.7-0.1-8.5c-0.2-2.6-2.6-4.7-5.6-4.8
			C305.8,350.1,305.7,350.1,305.7,350.1z M379.5,368.4c-0.3,0-0.5,0-0.9,0c-0.2,0-0.5,0-0.8,0c-0.2,0-0.3-0.1-0.4-0.2
			c-0.1-0.1-0.2-0.3-0.1-0.4c0.1-1.4,0.2-2.7,0.3-4.1c0.2-3.1,0.4-6.2,0.8-9.3c0.4-3,3.4-5.4,6.9-5.4c0.1,0,0.2,0,0.3,0
			c3.4,0.1,6.3,2.6,6.6,5.7c0.2,2.9,0.2,5.7,0.1,8.7c0,1.3,0,2.6,0,3.9c0,0.3-0.2,0.6-0.5,0.6l-1.8,0.1c-3.3,0.1-6.7,0.3-10,0.4
			C379.7,368.4,379.6,368.4,379.5,368.4z M378.5,367.2c0.1,0,0.2,0,0.3,0c0.4,0,0.7,0.1,1,0c3.4-0.1,6.7-0.3,10-0.4l1.3-0.1
			c0-1.2,0-2.3,0-3.4c0-3,0.1-5.8-0.1-8.6c-0.2-2.8-2.9-4.5-5.5-4.6c-0.1,0-0.1,0-0.2,0c-2.6,0-5.3,1.6-5.7,4.4
			c-0.4,3-0.6,6-0.8,9.2C378.6,364.9,378.5,366,378.5,367.2z M335.8,368.3h-20.5c-0.3,0-0.6-0.3-0.6-0.6l0-0.8c0-0.6,0-1.2,0-1.8
			c0-1-0.1-2-0.1-3c-0.1-2.4-0.1-4.9-0.3-7.3c-0.4-4.5-3.8-7.6-8.4-7.8c-0.1,0-0.3,0-0.4,0c-4.4,0-7.8,2.8-8.3,7
			c-0.4,3.1-0.5,6.2-0.6,9.4c0,1.4-0.1,2.9-0.2,4.3c0,0.3-0.3,0.5-0.6,0.5h-13.8c-0.3,0-0.6-0.3-0.6-0.6v-54.5
			c0-0.3,0.3-0.6,0.6-0.6H409c0.3,0,0.6,0.3,0.6,0.6v54.5c0,0.3-0.3,0.6-0.6,0.6h-13.9c-0.3,0-0.6-0.2-0.6-0.5
			c-0.1-1.3-0.1-2.7-0.2-4c-0.1-2.9-0.2-5.9-0.5-8.8c-0.3-4.8-3.3-7.6-8.1-7.9c-5.1-0.3-8.3,2.2-8.9,6.9c-0.4,3.1-0.5,6.2-0.6,9.4
			c0,1.4-0.1,2.9-0.2,4.4c0,0.3-0.3,0.5-0.6,0.5h-20.5c-0.3,0-0.6-0.3-0.6-0.6l0-2.7c0-2.2,0-4.4,0-6.5c0-1.8-0.2-3.2-0.4-4.4
			c-0.9-4.7-4-7.2-9-6.9c-4.5,0.3-7.8,3.5-8.2,8c-0.2,2.2-0.3,4.3-0.4,6.3c0,1.4,0,2.9,0,4.4l0,2.1
			C336.4,368,336.1,368.3,335.8,368.3z M315.9,367.1h19.3l0-1.5c0-1.5,0-3,0-4.4c0.1-2,0.2-4.1,0.4-6.3c0.4-5.1,4.2-8.7,9.3-9
			c5.4-0.3,9.1,2.6,10.1,7.8c0.3,1.3,0.4,2.8,0.4,4.6c0,2.2,0,4.4,0,6.6l0,2.2h19.4c0.1-1.3,0.1-2.6,0.1-3.8
			c0.1-3.3,0.2-6.4,0.6-9.5c0.7-5.2,4.5-8.1,10.1-7.8c5.4,0.3,8.8,3.6,9.2,8.9c0.2,2.9,0.3,5.9,0.5,8.8c0,1.2,0.1,2.3,0.1,3.5h12.8
			v-53.3H282.6v53.3h12.7c0.1-1.3,0.1-2.5,0.1-3.8c0.1-3.3,0.2-6.4,0.6-9.5c0.6-4.8,4.5-8,9.4-8c0.2,0,0.3,0,0.5,0
			c5.2,0.2,9,3.8,9.5,8.8c0.2,2.5,0.3,5,0.3,7.4c0,1,0,2,0.1,3c0,0.6,0,1.2,0,1.8V367.1z"/>
	</g>
	<g>
		<path class="st2" d="M88.8,369.7c0-19.9,0-39.1,0-58.6c43.8,0,87.4,0,131.1,0c0,19.4,0,38.9,0,58.7
			C176.4,369.7,132.7,370.7,88.8,369.7z M184.4,367.7c0.2-4.8,0.3-9.2,0.8-13.7c0.4-4,2.9-6.6,6.6-7.4c4.1-0.9,8.8,0.5,10.4,3.9
			c1,2,1.4,4.5,1.5,6.8c0.2,3.4,0.1,6.9,0.1,10.4c4.9,0,9.5,0,14.1,0c0-18.3,0-36.4,0-54.5c-42.4,0-84.7,0-126.9,0
			c0,18.3,0,36.3,0,54.4c4.7,0,9.3,0,13.9,0c0.2-4.5,0.3-8.9,0.7-13.3c0.4-4.1,3.4-7.1,7.2-7.8c4.2-0.8,8.6,1.1,10.3,4.7
			c0.8,1.9,1.1,4.1,1.2,6.1c0.2,3.4,0.1,6.9,0.1,10.2c7.1,0,13.8,0,20.7,0c0-2.1,0-4,0-6c0-2,0-4.1,0.1-6.1c0.3-5.5,4.1-9.2,9.4-9.2
			c5.4-0.1,8.8,3.1,9.3,8.9c0.3,4.1,0.4,8.2,0.6,12.4C171.1,367.7,177.7,367.7,184.4,367.7z M122.1,367.7c-0.3-4.4-0.5-8.4-0.9-12.4
			c-0.3-3.3-2.9-5.6-6.1-5.7c-3.3-0.2-6.1,1.7-6.6,5c-0.7,4.3-0.8,8.7-1.2,13.2C112.4,367.7,117.1,367.7,122.1,367.7z M201.6,367.9
			c-0.3-4.4-0.4-8.6-0.9-12.7c-0.3-3.1-2.9-5.4-5.9-5.6c-3.3-0.2-6.2,1.6-6.7,4.8c-0.7,4.4-0.9,8.8-1.3,13.4c1,0.1,1.5,0.1,2,0.1
			C192.9,367.9,197.1,367.9,201.6,367.9z M162,367.7c-0.4-4.6-0.6-9-1.3-13.4c-0.4-3-3.2-4.8-6.3-4.8c-3,0-5.9,2-6.3,4.9
			c-0.6,4.4-0.7,8.8-1.1,13.3C152.2,367.7,156.9,367.7,162,367.7z"/>
		<path class="st2" d="M132.8,370.7c-14.6,0-29.4-0.1-44-0.4c-0.3,0-0.6-0.3-0.6-0.6v-58.6c0-0.3,0.3-0.6,0.6-0.6H220
			c0.3,0,0.6,0.3,0.6,0.6v58.7c0,0.2-0.1,0.3-0.2,0.4c-0.1,0.1-0.3,0.2-0.4,0.2h0c-16.7-0.1-33.6,0-50,0.1
			C157.7,370.6,145.3,370.7,132.8,370.7z M89.4,369.2c26.9,0.6,54.2,0.4,80.5,0.3c16.2-0.1,33-0.2,49.5-0.1v-57.6h-130V369.2z
			 M201.6,368.4l-12.8,0c-0.3,0-0.7,0-1.2,0l-0.8,0c-0.2,0-0.3-0.1-0.4-0.2c-0.1-0.1-0.2-0.3-0.1-0.4c0.1-1.4,0.2-2.7,0.3-4.1
			c0.2-3.2,0.5-6.3,0.9-9.3c0.5-3.4,3.6-5.5,7.4-5.3c3.4,0.2,6.1,2.8,6.5,6.1c0.3,2.9,0.5,5.7,0.6,8.7c0.1,1.3,0.2,2.6,0.2,4
			c0,0.2,0,0.3-0.2,0.4C202,368.4,201.8,368.4,201.6,368.4z M187.5,367.2l0.3,0c0.5,0,0.8,0,1.1,0l12.2,0c-0.1-1.1-0.1-2.3-0.2-3.4
			c-0.2-3-0.3-5.8-0.6-8.6c-0.3-2.7-2.6-4.9-5.4-5.1c-0.2,0-0.4,0-0.5,0c-2.9,0-5.2,1.7-5.6,4.4c-0.5,3-0.7,6-0.9,9.2
			C187.6,364.9,187.6,366,187.5,367.2z M184.4,368.3h-20.1c-0.3,0-0.6-0.2-0.6-0.5c-0.1-1.3-0.1-2.6-0.2-3.9
			c-0.1-2.9-0.2-5.7-0.4-8.6c-0.4-5.4-3.4-8.4-8.5-8.4c0,0-0.1,0-0.1,0c-5,0-8.6,3.5-8.9,8.7c-0.1,1.6-0.1,3.2-0.1,4.8l0,1.3
			c0,1.3,0,2.5,0,3.9l0,2.1c0,0.3-0.3,0.6-0.6,0.6h-20.7c-0.3,0-0.6-0.3-0.6-0.6c0-1,0-2,0-3c0-2.4,0.1-4.8-0.1-7.2
			c-0.1-1.9-0.3-4.1-1.1-5.9c-1.5-3.3-5.5-5.1-9.7-4.4c-3.7,0.7-6.3,3.6-6.7,7.3c-0.3,3-0.4,6-0.5,9.1c-0.1,1.4-0.1,2.8-0.2,4.2
			c0,0.3-0.3,0.5-0.6,0.5H91c-0.3,0-0.6-0.3-0.6-0.6v-54.4c0-0.3,0.3-0.6,0.6-0.6h126.9c0.3,0,0.6,0.3,0.6,0.6v54.5
			c0,0.3-0.3,0.6-0.6,0.6h-14.1c-0.3,0-0.6-0.3-0.6-0.6c0-1.1,0-2.1,0-3.2c0-2.5,0.1-4.8-0.1-7.2c-0.1-1.8-0.4-4.5-1.5-6.6
			c-1.5-3-5.7-4.5-9.8-3.6c-3.6,0.8-5.8,3.3-6.2,6.9c-0.3,3.1-0.4,6.1-0.6,9.3c-0.1,1.4-0.1,2.9-0.2,4.3
			C185,368.1,184.7,368.3,184.4,368.3z M164.9,367.2h19c0.1-1.3,0.1-2.5,0.2-3.8c0.1-3.2,0.3-6.3,0.6-9.4c0.4-4.1,3-7,7-7.9
			c4.6-1,9.4,0.7,11.1,4.2c1.1,2.3,1.5,4.9,1.6,7c0.2,2.4,0.1,4.9,0.1,7.3c0,0.9,0,1.7,0,2.6h13v-53.3H91.6v53.3h12.7
			c0.1-1.2,0.1-2.4,0.2-3.6c0.1-3.2,0.2-6.1,0.5-9.2c0.4-4.2,3.4-7.6,7.6-8.3c4.6-0.8,9.2,1.3,10.9,5.1c0.9,2,1.1,4.3,1.2,6.3
			c0.1,2.4,0.1,4.9,0.1,7.3c0,0.8,0,1.6,0,2.4h19.6l0-1.5c0-1.3,0-2.6,0-3.9l0-1.3c0-1.6,0-3.2,0.1-4.8c0.3-5.8,4.3-9.7,10-9.8
			c0,0,0.1,0,0.1,0c5.7,0,9.2,3.4,9.7,9.4c0.2,2.9,0.3,5.8,0.4,8.6C164.8,365,164.9,366.1,164.9,367.2z M162,368.3h-14.9
			c-0.2,0-0.3-0.1-0.4-0.2s-0.2-0.3-0.2-0.4c0.1-1.4,0.2-2.7,0.3-4c0.2-3.1,0.4-6.2,0.8-9.3c0.4-3,3.3-5.3,6.8-5.3h0
			c3.5,0,6.3,2.2,6.8,5.3c0.5,3.1,0.7,6.1,0.9,9.3c0.1,1.4,0.2,2.7,0.3,4.1c0,0.2,0,0.3-0.1,0.4C162.3,368.2,162.2,368.3,162,368.3z
			 M147.8,367.2h13.6c-0.1-1.2-0.2-2.3-0.3-3.5c-0.2-3.2-0.5-6.2-0.9-9.2c-0.4-2.5-2.7-4.3-5.7-4.3h0c-2.9,0-5.4,1.9-5.7,4.4
			c-0.4,3-0.6,6-0.8,9.2C147.9,364.9,147.8,366,147.8,367.2z M122.1,368.3h-14.8c-0.2,0-0.3-0.1-0.4-0.2c-0.1-0.1-0.2-0.3-0.2-0.4
			c0.1-1.4,0.2-2.7,0.3-4.1c0.2-3.1,0.4-6.1,0.9-9.1c0.5-3.3,3.3-5.5,6.8-5.5c0.1,0,0.3,0,0.4,0c3.5,0.2,6.3,2.7,6.6,6.2
			c0.3,2.8,0.5,5.6,0.6,8.5c0.1,1.3,0.2,2.6,0.3,3.9c0,0.2,0,0.3-0.2,0.4C122.4,368.2,122.3,368.3,122.1,368.3z M107.9,367.1h13.6
			c-0.1-1.1-0.1-2.2-0.2-3.3c-0.2-2.9-0.3-5.7-0.6-8.5c-0.3-2.9-2.6-5.1-5.5-5.2c-3.1-0.1-5.6,1.7-6,4.5c-0.5,3-0.7,5.9-0.9,9
			C108.1,364.8,108,366,107.9,367.1z"/>
	</g>
	<g>
		<path class="st2" d="M414.9,288.3c3.4,0,6.5,0,9.6,0c2.3,0,4.4-0.4,6-2.5c1.8-2.3,5.4-2.2,7.3,0.1c1.4,1.8,3.2,2.3,5.3,2.4
			c3,0,6,0,9.2,0c0,27.5,0,54.4,0,81.8c-5.1,0-10,0-15,0c-6.3,0-12.7,0-19-0.1c-3.5-0.1-3.5-0.2-3.5-3.6c0-19.2,0-38.3,0-57.5
			c0-5.7,0.1-11.5,0.1-17.2C414.9,290.7,414.9,289.8,414.9,288.3z M450.2,367.8c0-25.8,0-51.3,0-76.9c-3.6,0-7.1,0-10.6,0
			c-0.2,2.1,0,4.3-0.7,6.1c-0.9,2.5-3.5,1.4-5.4,1.6c-6.2,0.5-3.9-4.6-4.7-7.6c-3.9,0-7.7,0-11.4,0c0,25.7,0,51.2,0,76.8
			c2.3,0,4.5,0,7.1,0c0-4.3-0.2-8.5,0.1-12.6c0.1-1.8,0.9-3.8,2-5.3c2.4-3.2,6.7-4.2,10.5-2.9c4.1,1.3,5.8,4.5,6,8.5
			c0.2,4.1,0,8.2,0,12.4C445.8,367.8,447.9,367.8,450.2,367.8z M440.2,367.3c0-4.3,0.1-8.3,0-12.2c-0.1-3-2.9-5.3-5.9-5.5
			c-3-0.2-6.3,1.7-6.7,4.6c-0.7,4.4-0.8,9-1.3,13.7C431.2,367.7,435.7,367.5,440.2,367.3z M431.3,295.2c2.1,0,3.8,0,5.6,0
			c-0.1-2.1-0.3-4.1-0.4-6c-0.1-1.4-0.7-2.1-2.2-2c-1.4,0-2.5,0.2-2.6,1.9C431.7,291.1,431.5,293,431.3,295.2z"/>
		<path class="st2" d="M443.7,370.6c-2.1,0-4.3,0-6.4,0l-4.6,0c-4.7,0-9.6,0-14.4-0.1c-3.7-0.1-4.1-0.4-4.1-4.2
			c0-19.2,0-38.3,0-57.5c0-3.8,0-7.7,0.1-11.5l0-9.1c0-0.3,0.3-0.6,0.6-0.6l3.1,0c2.3,0,4.4,0,6.6,0c2.3,0,4.1-0.4,5.6-2.3
			c0.9-1.2,2.4-1.9,3.9-1.9h0c1.6,0,3.2,0.7,4.2,2.1c1.2,1.5,2.6,2.1,4.9,2.1c2,0,4.1,0,6.2,0l3,0c0.3,0,0.6,0.3,0.6,0.6V370
			c0,0.3-0.3,0.6-0.6,0.6H448C446.6,370.6,445.1,370.6,443.7,370.6z M415.5,288.8l0,8.5c0,3.8-0.1,7.7-0.1,11.5
			c0,19.2,0,38.3,0,57.5c0,3,0,3,3,3c4.8,0.1,9.6,0.1,14.3,0.1l4.6,0c3.5,0,7.1,0,10.6,0h3.8v-80.6l-2.4,0c-2.1,0-4.1,0-6.2,0
			c-2.6,0-4.3-0.8-5.7-2.6c-0.8-1-2-1.6-3.3-1.6c0,0,0,0,0,0c-1.2,0-2.3,0.5-3,1.5c-1.9,2.4-4.2,2.7-6.4,2.7c-2.2,0-4.3,0-6.6,0
			L415.5,288.8z M426.3,368.5c-0.2,0-0.3-0.1-0.4-0.2c-0.1-0.1-0.2-0.3-0.2-0.4c0.1-1.5,0.2-2.9,0.3-4.3c0.2-3.3,0.5-6.4,0.9-9.5
			c0.5-3.3,4.2-5.2,7.3-5.1c3.4,0.2,6.3,3,6.4,6.1c0.1,2.7,0.1,5.5,0.1,8.3c0,1.3,0,2.6,0,3.9c0,0.3-0.2,0.6-0.5,0.6L426.3,368.5
			L426.3,368.5z M433.8,350.1c-2.5,0-5.3,1.6-5.7,4.1c-0.5,3.1-0.7,6.1-0.9,9.4c-0.1,1.2-0.2,2.4-0.3,3.7l12.7-0.6
			c0-1.1,0-2.3,0-3.4c0-2.9,0.1-5.6-0.1-8.3c-0.1-2.6-2.5-4.8-5.4-5C434.1,350.1,433.9,350.1,433.8,350.1z M450.2,368.3h-7.1
			c-0.3,0-0.6-0.3-0.6-0.6c0-1.3,0-2.5,0-3.8c0-2.8,0.1-5.7-0.1-8.6c-0.2-4.2-2-6.8-5.6-8c-3.8-1.2-7.7-0.1-9.9,2.7
			c-1.1,1.4-1.8,3.3-1.9,5c-0.2,2.9-0.2,5.8-0.1,8.8c0,1.2,0,2.5,0,3.7c0,0.3-0.3,0.6-0.6,0.6h-7.1c-0.3,0-0.6-0.3-0.6-0.6v-76.8
			c0-0.3,0.3-0.6,0.6-0.6h11.4c0.3,0,0.5,0.2,0.6,0.4c0.2,0.9,0.2,1.9,0.2,2.9c0,1.5,0,3,0.8,3.7c0.6,0.6,1.6,0.8,3.1,0.6
			c0.5,0,1.1,0,1.6,0c1.7,0.1,2.8,0.1,3.3-1.3c0.4-1.2,0.5-2.5,0.5-3.9c0-0.7,0.1-1.3,0.1-2c0-0.3,0.3-0.5,0.6-0.5h10.6
			c0.3,0,0.6,0.3,0.6,0.6v76.9C450.7,368.1,450.5,368.3,450.2,368.3z M443.7,367.2h5.9v-75.8h-9.5c0,0.5-0.1,1-0.1,1.4
			c-0.1,1.4-0.1,2.9-0.6,4.3c-0.8,2.3-2.9,2.1-4.5,2c-0.5,0-1-0.1-1.4,0c-1.8,0.1-3.1-0.2-4-0.9c-1.2-1.1-1.2-2.9-1.2-4.6
			c0-0.8,0-1.5-0.1-2.1h-10.4v75.6h5.9c0-1.1,0-2.1,0-3.1c0-3.1-0.1-6,0.1-8.9c0.1-1.9,0.9-4,2.1-5.6c2.4-3.3,6.9-4.5,11.2-3.1
			c4,1.3,6.2,4.3,6.4,9c0.1,2.9,0.1,5.8,0.1,8.6C443.7,365,443.7,366.1,443.7,367.2z M436.9,295.7h-5.6c-0.2,0-0.3-0.1-0.4-0.2
			c-0.1-0.1-0.2-0.3-0.2-0.4l0.1-1.9c0.1-1.4,0.2-2.8,0.3-4.2c0.1-2.5,2.1-2.5,3.2-2.5h0c1.8,0,2.7,0.9,2.8,2.6
			c0.1,1.4,0.2,2.8,0.3,4.3l0.1,1.7c0,0.2,0,0.3-0.2,0.4C437.3,295.7,437.1,295.7,436.9,295.7z M432,294.6h4.4l-0.1-1.1
			c-0.1-1.5-0.2-2.9-0.3-4.3c-0.1-1.1-0.5-1.5-1.6-1.5h0c-1.5,0-1.9,0.2-2,1.4c-0.1,1.4-0.2,2.8-0.3,4.2L432,294.6z"/>
	</g>
	<g>
		<path class="st2" d="M279.5,288.8c44.3,0,87.8,0,131.5,0c0,6.1,0,12,0,18.1c-0.9,0-1.7,0.1-2.6,0.1c-32.4,0.1-64.7,0.2-97.1,0.3
			c-9.2,0-18.4-0.2-27.6-0.3c-4.2-0.1-4.3-0.1-4.3-4.3C279.5,298.1,279.5,293.6,279.5,288.8z M282,304.8c42.5,0,84.7,0,127,0
			c0-4.7,0-9.3,0-13.9c-42.4,0-84.6,0-127,0C282,295.6,282,300.1,282,304.8z"/>
		<path class="st2" d="M310.5,307.8c-7.2,0-14.5-0.1-21.5-0.2l-5.2-0.1c-4.5-0.1-4.8-0.4-4.8-4.8c0-3,0-6,0-9.1v-4.8
			c0-0.3,0.3-0.6,0.6-0.6H411c0.3,0,0.6,0.3,0.6,0.6v18.1c0,0.3-0.2,0.6-0.5,0.6l-0.9,0c-0.6,0-1.2,0.1-1.7,0.1l-22.1,0.1
			c-25,0.1-50,0.2-75,0.2C311.1,307.8,310.8,307.8,310.5,307.8z M280,289.3v4.2c0,3.1,0,6.1,0,9.1c0,3.6,0,3.6,3.7,3.7l5.2,0.1
			c7.3,0.1,14.9,0.2,22.4,0.2c25,0,50-0.1,75-0.2l22.1-0.1c0.5,0,1.1,0,1.6-0.1l0.3,0v-17H280z M408.9,305.3H282
			c-0.3,0-0.6-0.3-0.6-0.6v-13.9c0-0.3,0.3-0.6,0.6-0.6h127c0.3,0,0.6,0.3,0.6,0.6v13.9C409.5,305.1,409.3,305.3,408.9,305.3z
			 M282.6,304.2h125.8v-12.7H282.6V304.2z"/>
	</g>
	<g>
		<path class="st2" d="M220,288.9c0,6,0,11.9,0,17.7c-4.6,1.1-127.7,0.7-131.2-0.4c0-5.7,0-11.4,0-17.3
			C132.5,288.9,176.1,288.9,220,288.9z M218,291c-42.5,0-84.7,0-127,0c0,4.8,0,9.3,0,13.9c42.4,0,84.6,0,127,0
			C218,300.1,218,295.6,218,291z"/>
		<path class="st2" d="M170.2,307.9c-36.3,0-79.4-0.4-81.5-1.1c-0.2-0.1-0.4-0.3-0.4-0.5v-17.3c0-0.3,0.3-0.6,0.6-0.6H220
			c0.3,0,0.6,0.3,0.6,0.6v17.7c0,0.3-0.2,0.5-0.4,0.6C218.1,307.7,195.8,307.9,170.2,307.9z M89.4,305.7
			c8.3,1.1,120.9,1.4,130.1,0.4v-16.7H89.4V305.7z M218,305.4H91c-0.3,0-0.6-0.3-0.6-0.6V291c0-0.3,0.3-0.6,0.6-0.6h127
			c0.3,0,0.6,0.3,0.6,0.6v13.9C218.6,305.1,218.3,305.4,218,305.4z M91.6,304.2h125.8v-12.7H91.6V304.2z"/>
	</g>
	<g>
		<path class="st2" d="M249.6,201.1c-2.3,3.9-4.6,7.4-6.5,11.2c-1,1.9-2.1,2.6-4.3,2.5c-3.5-0.2-6.9,0.1-10.4,0
			c-3.2-0.1-3.8-0.9-3-4.2c2-7.8,4-15.7,6.1-23.5c0.8-3,1.9-5.9,2.7-8.9c0.4-1.6,1.2-2.5,2.9-2.5c8.4-0.1,16.7-0.2,25.1-0.2
			c2,0,3.3,1.1,3.8,3.1c3,11.3,6,22.6,9,33.9c0.5,1.8-0.3,2.4-1.9,2.4c-4.6,0-9.1,0-13.7-0.1c-0.7,0-1.5-0.9-1.9-1.6
			c-2.2-3.5-4.3-7.1-6.4-10.6C250.9,202.1,250.5,201.9,249.6,201.1z M273.2,212.6c-3.2-11.7-6.1-22.5-9.1-33.3
			c-0.2-0.6-1.5-1.2-2.2-1.2c-7.9-0.1-15.7,0-23.6-0.1c-1.8,0-2.4,0.7-2.9,2.3c-2.4,9-4.8,17.9-7.2,26.8c-0.4,1.6-0.8,3.2-1.3,5.5
			c4.1,0,7.8-0.1,11.5,0c1.4,0,2.1-0.5,2.7-1.7c1.5-2.8,3-5.5,4.6-8.1c3.3-5.3,5.3-5.2,8.6,0.1c1.6,2.7,3.1,5.4,4.7,8.1
			c0.4,0.7,1.3,1.5,2,1.5C264.9,212.7,268.8,212.6,273.2,212.6z"/>
		<path class="st2" d="M230.1,215.4c-0.6,0-1.2,0-1.8,0c-1.6,0-2.8-0.3-3.4-1.1c-0.7-0.9-0.5-2.2-0.1-3.8c2.1-8.4,4.3-16.6,6.1-23.5
			c0.4-1.6,0.9-3.2,1.4-4.8c0.4-1.4,0.9-2.8,1.3-4.2c0.3-1.3,1.1-2.9,3.5-3c3.1,0,6.2-0.1,9.3-0.1c5.3-0.1,10.5-0.1,15.8-0.1h0
			c2.2,0,3.7,1.2,4.3,3.5l2.2,8.3c2.3,8.5,4.5,17.1,6.8,25.6c0.3,1,0.2,1.7-0.2,2.3c-0.4,0.5-1.1,0.8-2.2,0.8h0H271
			c-3.8,0-7.7,0-11.6-0.1c-1.2,0-2.3-1.6-2.4-1.8c-1.4-2.3-2.8-4.5-4.2-6.8c-0.8-1.3-1.5-2.5-2.3-3.8c-0.1-0.1-0.3-0.3-0.6-0.5
			c-0.1-0.1-0.2-0.2-0.3-0.3c-0.6,1-1.2,1.9-1.7,2.9c-1.6,2.6-3.1,5.1-4.4,7.7c-1.1,2.2-2.4,2.9-4.8,2.9c-1.8-0.1-3.7-0.1-5.6,0
			C232.2,215.3,231.2,215.4,230.1,215.4z M262.2,175.9L262.2,175.9c-5.3,0-10.5,0.1-15.8,0.1c-3.1,0-6.2,0.1-9.3,0.1
			c-1.3,0-2,0.6-2.4,2.1c-0.4,1.4-0.8,2.8-1.3,4.2c-0.5,1.5-1,3.1-1.4,4.7c-1.8,6.9-4,15-6.1,23.5c-0.4,1.6-0.4,2.4-0.1,2.9
			c0.3,0.4,1.1,0.6,2.5,0.6c1.6,0,3.2,0,4.7,0c1.9,0,3.8-0.1,5.7,0c1.9,0.1,2.8-0.5,3.7-2.2c1.4-2.6,2.9-5.1,4.5-7.7
			c0.7-1.1,1.4-2.3,2.1-3.4c0.1-0.2,0.2-0.3,0.4-0.3c0.2,0,0.3,0,0.5,0.2c0.3,0.3,0.6,0.5,0.8,0.7c0.4,0.3,0.6,0.5,0.8,0.8
			c0.8,1.3,1.5,2.5,2.3,3.8c1.4,2.3,2.7,4.5,4.2,6.8c0.4,0.7,1.1,1.3,1.5,1.3c3.8,0.1,7.7,0.1,11.5,0.1h2.1h0c0.5,0,1.1-0.1,1.3-0.4
			c0.2-0.3,0.1-0.9,0-1.3c-2.3-8.5-4.5-17.1-6.8-25.6l-2.2-8.3C265.2,177.4,264.3,175.9,262.2,175.9z M238.6,213.3
			c-0.1,0-0.1,0-0.2,0c-2.6-0.1-5.2-0.1-8-0.1c-1.1,0-2.3,0-3.5,0c-0.2,0-0.3-0.1-0.4-0.2c-0.1-0.1-0.2-0.3-0.1-0.5
			c0.2-0.8,0.3-1.4,0.5-2.1c0.3-1.3,0.5-2.4,0.8-3.4c0.9-3.2,1.7-6.3,2.6-9.5c1.6-5.8,3.1-11.5,4.7-17.3c0.4-1.7,1.2-2.7,3.3-2.7
			c0,0,0.1,0,0.1,0c7.8,0.1,15.7,0,23.6,0.1c0.9,0,2.5,0.7,2.8,1.6c2.5,9,5,18,7.6,27.6l1.5,5.7c0,0.2,0,0.4-0.1,0.5
			c-0.1,0.1-0.3,0.2-0.5,0.2c-2.3,0-4.4,0-6.5,0c-1.9,0-3.8,0-5.7-0.1c-1,0-2-1.1-2.4-1.8c-0.9-1.4-1.7-2.8-2.5-4.2
			c-0.7-1.3-1.5-2.6-2.2-3.9c-1.6-2.6-2.8-3.8-3.8-3.8h0c-1,0-2.2,1.2-3.8,3.7c-1.7,2.7-3.2,5.5-4.6,8.1
			C240.9,212.7,240,213.3,238.6,213.3z M233.6,212.1c1.6,0,3.2,0,4.8,0.1c0,0,0.1,0,0.1,0c1,0,1.5-0.3,2.1-1.4
			c1.4-2.6,2.9-5.5,4.6-8.2c1.8-2.9,3.3-4.2,4.8-4.2h0c1.5,0,3,1.3,4.8,4.3c0.8,1.3,1.5,2.6,2.3,3.9c0.8,1.4,1.6,2.8,2.4,4.2
			c0.4,0.6,1.1,1.2,1.5,1.2c2.8,0.1,5.7,0.1,8.7,0.1c0.9,0,1.8,0,2.7,0l-1.3-4.9c-2.6-9.6-5-18.6-7.6-27.6c-0.1-0.3-1.1-0.8-1.7-0.8
			c-7.9-0.1-15.7,0-23.6-0.1c0,0-0.1,0-0.1,0c-1.5,0-1.9,0.5-2.2,1.9c-1.5,5.8-3.1,11.5-4.7,17.3c-0.9,3.2-1.7,6.3-2.6,9.5
			c-0.3,1.1-0.5,2.1-0.8,3.4c-0.1,0.4-0.2,0.9-0.3,1.4C229.7,212.1,231.7,212.1,233.6,212.1z"/>
	</g>
	<g>
		<path class="st2" d="M250.5,159.1c3.6,0,6.5,0,9.5,0c0.2-3.9,0.4-7.6,0.6-11.4c0.3,0,0.7,0,1,0c0.7,8.1,1.4,16.2,2.1,24.5
			c-1.3,0.2-1.9,0.3-2.6,0.3c-7.2,0-14.3,0-21.5,0.1c-2.1,0-3.3-0.6-3.1-2.8c0.3-3.7,0.7-7.3,1-11c0.2-1.9,0.3-3.9,0.5-5.8
			c0.2-1.8,0.3-3.6,0.5-5.4c0.3,0,0.6,0,0.9,0c0.2,3.7,0.4,7.4,0.6,11.3c3,0,5.9,0,9.5,0c0-9.8,0-19.5,0-29.2c0.4,0,0.7,0,1.1,0
			C250.5,139.5,250.5,149.2,250.5,159.1z M260.9,170.3c0-2.9,0-5.6,0-8.3c-7.4,0-14.6,0-22,0c0,2.8,0,5.5,0,8.3
			C246.3,170.3,253.6,170.3,260.9,170.3z"/>
		<path class="st2" d="M239.4,173.2c-1.3,0-2.2-0.3-2.8-0.9c-0.5-0.6-0.8-1.4-0.7-2.5c0.2-2.4,0.4-4.7,0.6-7.1
			c0.1-1.3,0.3-2.6,0.4-3.9c0.1-1.1,0.2-2.1,0.3-3.2c0.1-0.9,0.1-1.7,0.2-2.6c0.1-1.1,0.2-2.2,0.3-3.3l0.2-2c0-0.3,0.3-0.5,0.6-0.5
			h0l0.9,0c0.3,0,0.5,0.2,0.6,0.5l0.6,10.8h8.4v-28.6c0-0.3,0.3-0.6,0.6-0.6h1.1c0.3,0,0.6,0.3,0.6,0.6v28.7h8.4l0.6-10.8
			c0-0.3,0.3-0.5,0.6-0.5l1,0h0c0.3,0,0.5,0.2,0.6,0.5l2.1,24.5c0,0.3-0.2,0.6-0.5,0.6c-0.5,0.1-0.9,0.1-1.2,0.2
			c-0.6,0.1-1,0.1-1.4,0.1c-2.3,0-4.6,0-6.8,0c-4.8,0-9.8,0-14.7,0.1C239.6,173.2,239.5,173.2,239.4,173.2z M238.9,149.3l0,0.5
			c-0.1,1.1-0.2,2.2-0.3,3.3c-0.1,0.9-0.1,1.7-0.2,2.6c-0.1,1.1-0.2,2.1-0.3,3.2c-0.1,1.3-0.2,2.6-0.4,3.9c-0.2,2.3-0.5,4.7-0.6,7
			c-0.1,0.8,0.1,1.3,0.4,1.6c0.4,0.4,1,0.5,2.2,0.6c4.9-0.1,9.9-0.1,14.7-0.1c2.3,0,4.6,0,6.8,0c0.4,0,0.8-0.1,1.3-0.1
			c0.2,0,0.4-0.1,0.7-0.1l-2-22.9l-0.5,10.3c0,0.3-0.3,0.5-0.6,0.5h-9.5c-0.3,0-0.5-0.2-0.6-0.5c-0.1,0.2-0.3,0.4-0.6,0.4h-9.5
			c-0.3,0-0.6-0.2-0.6-0.5L238.9,149.3z M260.9,170.8h-22c-0.3,0-0.6-0.3-0.6-0.6V162c0-0.3,0.3-0.6,0.6-0.6h22
			c0.3,0,0.6,0.3,0.6,0.6v8.3C261.5,170.6,261.2,170.8,260.9,170.8z M239.5,169.7h20.8v-7.2h-20.8V169.7z"/>
	</g>
	<g>
		<path class="st2" d="M414.7,285.1c1.1-4.2,1.9-7.5,2.9-10.7c1.6-5.3,3.4-10.6,5-15.9c0.5-1.7,1.3-2.4,3.2-2.3
			c5.6,0.3,11.3,0.3,17,0.6c0.8,0,1.9,0.7,2.1,1.4c2.6,7.7,5,15.5,7.4,23.3c0.9,2.9,0.4,3.4-2.7,3.5c-3.1,0.1-6.3,0.2-9.4,0
			c-0.9-0.1-2-0.8-2.6-1.6c-0.9-1.1-1.3-2.5-2.1-3.7c-1.5-2.3-2.3-2.2-3.8,0.1c-0.8,1.3-1.4,2.7-2.2,4c-0.4,0.6-1,1.3-1.6,1.3
			C423.9,285.2,419.7,285.1,414.7,285.1z M450.2,283.4c0-0.8,0.1-1.1,0-1.4c-2.3-7.4-4.6-14.8-7-22.1c-0.2-0.7-1.6-1.4-2.4-1.4
			c-4.5-0.2-9.1-0.2-13.7-0.4c-1.6-0.1-2.2,0.5-2.6,1.9c-1.3,4.2-2.6,8.3-3.9,12.5c-1.1,3.4-2.2,6.9-3.4,10.8c3,0,5.6,0.2,8.1-0.1
			c1.1-0.1,2.3-1.1,3.2-2c0.9-1,1.3-2.3,2.1-3.4c2.3-3.2,4.6-3.2,6.7,0.1c0.9,1.3,1.5,2.8,2.4,4.1c0.4,0.6,1.2,1.3,1.9,1.3
			C444.4,283.5,447.2,283.4,450.2,283.4z"/>
		<path class="st2" d="M444.6,285.8c-1.4,0-2.9,0-4.3-0.1c-1.1-0.1-2.4-1-3.1-1.8c-0.5-0.7-0.9-1.4-1.3-2.2
			c-0.3-0.6-0.5-1.1-0.9-1.6c-0.6-0.9-1.1-1.4-1.4-1.4l0,0c-0.3,0-0.8,0.5-1.5,1.5c-0.4,0.6-0.7,1.3-1.1,2c-0.3,0.7-0.7,1.3-1.1,2
			c-0.1,0.2-1,1.5-2,1.6c-3.2,0.1-6.4,0.1-9.8,0.1l-3.5,0c-0.2,0-0.3-0.1-0.5-0.2c-0.1-0.1-0.1-0.3-0.1-0.5c0.4-1.4,0.7-2.6,1-3.9
			c0.7-2.5,1.2-4.7,1.9-6.8c0.8-2.7,1.7-5.3,2.5-8c0.8-2.6,1.7-5.3,2.5-7.9c0.6-2,1.7-2.8,3.8-2.7c2.9,0.1,5.9,0.2,8.8,0.3
			c2.7,0.1,5.5,0.1,8.2,0.3c0.9,0,2.4,0.9,2.7,1.8c2.5,7.4,4.9,15.1,7.4,23.4c0.4,1.5,0.6,2.5,0.1,3.3c-0.5,0.8-1.7,0.9-3.3,1
			C448.1,285.7,446.3,285.8,444.6,285.8z M433.7,277.5c1,0,1.7,0.9,2.4,1.9c0.4,0.5,0.6,1.1,0.9,1.7c0.3,0.7,0.7,1.4,1.1,2
			c0.5,0.6,1.5,1.4,2.2,1.4c3.1,0.2,6.2,0.1,9.3,0c1,0,2.1-0.1,2.4-0.5c0.3-0.4,0-1.4-0.2-2.3c-2.6-8.3-5-15.9-7.4-23.3
			c-0.1-0.4-1-1-1.6-1c-2.7-0.1-5.4-0.2-8.2-0.3c-2.9-0.1-5.9-0.1-8.8-0.3c-1.6-0.1-2.2,0.4-2.6,1.9c-0.8,2.7-1.7,5.3-2.5,8
			c-0.8,2.6-1.7,5.3-2.5,7.9c-0.7,2.1-1.2,4.3-1.9,6.8c-0.3,1-0.5,2-0.8,3.1l2.8,0c3.4,0,6.6,0,9.8-0.1c0.2,0,0.7-0.4,1.1-1
			c0.4-0.6,0.7-1.3,1-1.9c0.4-0.7,0.7-1.4,1.2-2.1C432,278.5,432.7,277.5,433.7,277.5L433.7,277.5z M445.6,284c-1.4,0-2.7,0-4.1-0.1
			c-0.9,0-1.8-0.8-2.3-1.6c-0.5-0.7-0.9-1.5-1.3-2.2c-0.4-0.6-0.7-1.3-1.1-1.9c-1-1.5-1.9-2.2-2.8-2.2l0,0c-0.9,0-1.9,0.7-2.9,2.1
			c-0.3,0.4-0.6,0.9-0.8,1.4c-0.4,0.7-0.8,1.5-1.3,2.1c-0.7,0.7-2.1,2-3.5,2.1c-1.8,0.2-3.7,0.2-5.6,0.1c-0.8,0-1.7,0-2.6,0
			c-0.2,0-0.4-0.1-0.5-0.2c-0.1-0.1-0.1-0.3-0.1-0.5l4.6-14.4c0.9-3,1.9-5.9,2.8-8.9c0.4-1.5,1.2-2.5,3.2-2.3
			c2.3,0.1,4.6,0.2,6.9,0.2c2.2,0,4.5,0.1,6.8,0.2c0.9,0,2.6,0.8,2.9,1.8c2.1,6.2,4.1,12.6,6,18.8l1,3.4c0.1,0.3,0.1,0.6,0.1,0.9
			c0,0.2,0,0.4,0,0.7c0,0.3-0.3,0.6-0.6,0.6c-0.8,0-1.5,0-2.3,0C447.1,284,446.3,284,445.6,284z M433.9,274.8
			C433.9,274.8,433.9,274.8,433.9,274.8c1.4,0,2.6,0.9,3.8,2.7c0.4,0.6,0.8,1.3,1.2,2c0.4,0.8,0.8,1.5,1.3,2.1c0.4,0.6,1,1,1.4,1.1
			c2.1,0.1,4.1,0.1,6.3,0.1c0.6,0,1.2,0,1.8,0c0-0.1,0-0.1,0-0.2c0-0.3,0-0.4,0-0.5l-1-3.4c-1.9-6.2-3.9-12.5-6-18.8
			c-0.1-0.4-1.2-1-1.9-1c-2.3-0.1-4.5-0.2-6.8-0.2c-2.3,0-4.6-0.1-6.9-0.2c-1.2-0.1-1.7,0.3-2,1.5c-0.9,3-1.8,6-2.8,8.9l-4.3,13.7
			c0.6,0,1.2,0,1.8,0c1.9,0,3.7,0.1,5.5-0.1c0.8-0.1,1.8-0.7,2.8-1.8c0.5-0.5,0.8-1.1,1.2-1.8c0.3-0.5,0.6-1.1,0.9-1.6
			C431.3,275.7,432.6,274.8,433.9,274.8z"/>
	</g>
	<g>
		<path class="st2" d="M407,284.5c-10.4,0.9-20.3,0.9-30.5,0c0.3-1.3,0.4-2.1,0.7-3c1.8-5.8,3.7-11.5,5.4-17.3
			c0.4-1.3,0.9-1.9,2.4-1.9c4.5,0.1,8.9,0,13.4,0.1c0.6,0,1.7,0.6,1.8,1.1C402.5,270.3,404.6,277.1,407,284.5z M391.4,283.2
			c3.2,0,6.4,0,9.6,0c2,0,2.8-0.8,2.2-2.8c-1.5-4.7-2.9-9.5-4.5-14.2c-0.2-0.6-1.2-1.3-1.9-1.3c-3.5-0.1-6.9-0.1-10.4,0
			c-0.7,0-1.7,0.8-1.9,1.4c-1.6,4.7-2.9,9.5-4.4,14.2c-0.6,1.9,0.1,2.7,2,2.7C385.1,283.2,388.2,283.2,391.4,283.2z"/>
		<path class="st2" d="M391.5,285.8c-5,0-10-0.2-15.1-0.6c-0.2,0-0.3-0.1-0.4-0.2c-0.1-0.1-0.1-0.3-0.1-0.5c0.1-0.4,0.2-0.8,0.3-1.2
			c0.1-0.7,0.3-1.3,0.5-1.9c0.7-2.1,1.3-4.2,2-6.3c1.2-3.7,2.3-7.3,3.4-11c0.4-1.4,1.1-2.3,2.8-2.3c0,0,0.1,0,0.1,0
			c2.3,0.1,4.6,0,6.9,0c2.2,0,4.3,0,6.5,0c0.8,0,2.1,0.7,2.4,1.5c1.8,5.3,3.4,10.6,5.2,16.2l1.5,4.8c0.1,0.2,0,0.3-0.1,0.5
			c-0.1,0.1-0.3,0.2-0.4,0.3C401.8,285.5,396.7,285.8,391.5,285.8z M377.2,284c9.8,0.8,19.3,0.8,29,0l-1.3-4.1
			c-1.8-5.6-3.4-10.9-5.2-16.2c-0.1-0.2-0.8-0.7-1.3-0.7c-2.1,0-4.3,0-6.5,0c-2.3,0-4.6,0-6.9,0c-1.2,0-1.5,0.3-1.8,1.5
			c-1.1,3.7-2.3,7.4-3.4,11c-0.7,2.1-1.3,4.2-2,6.3c-0.2,0.5-0.3,1.1-0.4,1.8C377.3,283.7,377.2,283.9,377.2,284z M401.1,283.8
			C401,283.8,401,283.8,401.1,283.8c-2.3,0-4.6,0-6.8,0l-2.9,0l0,0c-3.1,0-6.2,0-9.4,0h0c-1.2,0-2-0.3-2.4-0.9
			c-0.4-0.6-0.5-1.4-0.1-2.6c0.6-2,1.2-3.9,1.8-5.9c0.8-2.7,1.7-5.6,2.6-8.3c0.3-0.8,1.5-1.7,2.4-1.8c3.4-0.1,6.9-0.1,10.4,0
			c0.9,0,2.1,0.8,2.4,1.7c1,3,2,6.1,2.9,9.1c0.5,1.7,1,3.4,1.6,5.1c0.4,1.2,0.3,2-0.1,2.6C403.1,283.5,402.3,283.8,401.1,283.8z
			 M397.1,282.6c1.3,0,2.6,0,3.9,0c0,0,0.1,0,0.1,0c0.8,0,1.4-0.2,1.6-0.4c0.3-0.4,0.1-1.1,0-1.6c-0.5-1.7-1.1-3.4-1.6-5.1
			c-0.9-3-1.9-6.1-2.9-9.1c-0.1-0.3-0.9-0.9-1.4-0.9c-3.5-0.1-7-0.1-10.3,0c-0.4,0-1.3,0.6-1.4,1c-0.9,2.7-1.8,5.6-2.6,8.3
			c-0.6,2-1.2,3.9-1.8,5.9c-0.2,0.5-0.3,1.2,0,1.5c0.3,0.3,0.9,0.4,1.5,0.4h0c3.1,0,6.2,0,9.4,0l2.9,0
			C395.2,282.6,396.2,282.6,397.1,282.6z"/>
	</g>
	<g>
		<path class="st2" d="M123.1,284.6c-9.9,0.8-19.8,0.8-30.1-0.1c2.4-7.7,4.7-14.9,7-22.2c5.3,0,10.4,0,15.6,0c0.5,0,1.3,0.5,1.5,1
			c2.1,6.7,4.2,13.5,6.2,20.2C123.3,283.8,123.2,284,123.1,284.6z M101.4,264.8c-1.8,5.7-3.6,11.7-5.5,17.7c0.4,0.3,0.6,0.5,0.7,0.5
			c7.3,0.1,14.6,0.1,22,0.1c1.5,0,1.8-1,1.4-2.3c-1.5-4.9-3-9.8-4.5-14.7c-0.2-0.6-1-1.3-1.5-1.3
			C109.9,264.8,105.8,264.8,101.4,264.8z"/>
		<path class="st2" d="M108.5,285.8c-5.1,0-10.3-0.2-15.6-0.6c-0.2,0-0.3-0.1-0.4-0.3c-0.1-0.1-0.1-0.3-0.1-0.5l7-22.2
			c0.1-0.2,0.3-0.4,0.5-0.4l3.4,0c4.1,0,8.1,0,12.2,0c0.7,0,1.8,0.6,2,1.4c1.9,5.9,3.7,11.9,5.5,17.7l0.8,2.6c0.1,0.2,0,0.4,0,0.7
			c0,0.1-0.1,0.3-0.1,0.6c0,0.3-0.3,0.5-0.5,0.5C118.3,285.6,113.4,285.8,108.5,285.8z M93.8,284c9.9,0.8,19.3,0.8,28.9,0
			c0-0.1,0-0.1,0-0.2c0-0.1,0-0.1,0-0.2l-0.8-2.4c-1.8-5.8-3.6-11.8-5.5-17.7c-0.1-0.2-0.6-0.6-0.9-0.6c-4-0.1-8.1,0-12.2,0l-3,0
			L93.8,284z M118,283.7c-6.1,0-12.1-0.1-18.2-0.1l-3.1,0c-0.3,0-0.5-0.2-0.7-0.3c-0.1-0.1-0.2-0.2-0.4-0.3
			c-0.2-0.1-0.3-0.4-0.2-0.6l5.5-17.7c0.1-0.2,0.3-0.4,0.5-0.4l3.1,0c3.3,0,6.4,0,9.5,0.1c0.8,0,1.8,0.9,2,1.7
			c1.2,3.8,2.4,7.7,3.5,11.4l1,3.3c0.4,1.2,0.1,1.9-0.2,2.3c-0.3,0.3-0.8,0.8-1.8,0.8C118.4,283.7,118.2,283.7,118,283.7z
			 M96.8,282.4l3,0c6.3,0.1,12.6,0.1,18.8,0.1c0.3,0,0.7,0,0.9-0.3c0.2-0.2,0.2-0.7,0-1.2l-1-3.3c-1.1-3.7-2.3-7.6-3.5-11.4
			c-0.1-0.4-0.8-0.9-1-0.9c-3.1-0.1-6.2-0.1-9.5-0.1l-2.7,0l-5.2,16.9C96.7,282.3,96.7,282.4,96.8,282.4L96.8,282.4z"/>
	</g>
	<g>
		<path class="st2" d="M76.1,253.7c-6.5,0-12,0.1-17.6-0.1c-0.6,0-1.4-1-1.6-1.7c-0.3-1-0.3-2.2-0.1-3.3c0.6-3.2,1.4-6.4,2.6-9.6
			c0.2,0.9,0.4,1.7,0.5,2.6c0.2,3.6,0.2,3.6,3.8,3.5c0.5,0,1-0.1,2-0.1c0-4.4,0-8.7,0-13c0.3,0,0.7,0,1,0c0,4.2,0,8.5,0,13.1
			c1.4,0,2.4-0.1,3.4,0c1.9,0.2,2.6-0.7,2.5-2.5c0-1.2,0.2-2.4,0.3-3.5c0.3,0,0.6,0,0.9,0C74.6,243.8,75.3,248.5,76.1,253.7z
			 M66.2,247.8L66.2,247.8c-1.9,0.1-3.7-0.1-5.5,0.2c-0.6,0.1-1.3,1.2-1.3,1.9c0,0.5,0.9,1.5,1.4,1.5c3.6,0.1,7.2,0.2,10.9,0
			c0.6,0,1.7-1.2,1.6-1.6c-0.2-0.8-1-1.8-1.7-1.9C69.8,247.6,68,247.8,66.2,247.8z"/>
		<path class="st2" d="M67.9,254.3c-3.2,0-6.3,0-9.4-0.1c-0.9,0-1.9-1.3-2.2-2.1c-0.3-1-0.3-2.3-0.1-3.5c0.7-3.9,1.6-6.9,2.6-9.7
			c0.1-0.2,0.3-0.4,0.6-0.4c0.3,0,0.5,0.2,0.5,0.5c0,0.3,0.1,0.5,0.2,0.8c0.1,0.6,0.3,1.2,0.3,1.9c0.1,3,0.1,3,3.2,3
			c0.3,0,0.6,0,1-0.1l0.4,0v-12.4c0-0.3,0.3-0.6,0.6-0.6h1c0.3,0,0.6,0.3,0.6,0.6v12.5c0.6,0,1.2,0,1.7,0c0.4,0,0.8,0,1.2,0
			c0.7,0.1,1.2,0,1.5-0.3c0.3-0.3,0.4-0.8,0.4-1.6c0-0.9,0.1-1.7,0.2-2.5c0.1-0.4,0.1-0.7,0.1-1.1c0-0.3,0.3-0.5,0.6-0.5l0.9,0h0
			c0.3,0,0.5,0.2,0.6,0.5l2.2,14.6c0,0.2,0,0.3-0.1,0.5c-0.1,0.1-0.3,0.2-0.4,0.2l-4.3,0C70.4,254.3,69.1,254.3,67.9,254.3z
			 M59.2,241.3c-0.7,2.2-1.3,4.6-1.9,7.6c-0.2,1-0.2,2.1,0.1,3c0.2,0.5,0.8,1.2,1.1,1.2c4.3,0.1,8.6,0.1,13.2,0.1l3.7,0l-2-13.2
			c0,0.1,0,0.3,0,0.4c-0.1,0.8-0.2,1.6-0.2,2.3c0,1.2-0.2,2-0.8,2.5c-0.5,0.5-1.3,0.7-2.4,0.6c-0.6-0.1-1.2,0-2,0
			c-0.4,0-0.8,0-1.3,0c-0.3,0-0.5-0.2-0.5-0.4c-0.1,0.1-0.3,0.2-0.4,0.3l-0.9,0.1c-0.9,0.1-1.4,0.1-2,0.1c-3.1,0-3.3-0.5-3.5-4
			C59.3,241.6,59.3,241.4,59.2,241.3z M66.5,252c-1.9,0-3.8,0-5.7-0.1c-0.6,0-1.3-0.7-1.4-0.9c-0.3-0.3-0.6-0.8-0.5-1.2
			c0.1-0.9,0.9-2.3,1.8-2.4c1.4-0.2,2.7-0.2,4.1-0.1c0.4,0,0.9,0,1.3,0c0.1,0,0.2-0.1,0.2-0.1c0.5,0,1,0,1.5,0
			c1.3,0,2.6-0.1,3.9,0.1c1,0.2,1.9,1.5,2.2,2.3c0.1,0.3,0,0.6-0.3,1c-0.4,0.5-1.1,1.2-1.8,1.3C69.9,252,68.2,252,66.5,252z
			 M63.1,248.4c-0.8,0-1.6,0-2.4,0.1c-0.2,0.1-0.8,0.9-0.9,1.4c0,0.2,0.6,0.8,0.9,0.9c3.8,0.1,7.3,0.1,10.8,0c0.2,0,0.9-0.6,1-0.9
			c-0.2-0.6-0.9-1.3-1.2-1.4c-1.2-0.2-2.4-0.2-3.7-0.1c-0.4,0-0.9,0-1.3,0c-0.1,0-0.2,0.1-0.3,0.1c-0.5,0-1,0-1.6,0
			C64.1,248.4,63.6,248.4,63.1,248.4z"/>
	</g>
	<g>
		<path class="st2" d="M427,239.2c0.1,0.9,0.4,1.7,0.4,2.6c0.2,3.4,0.1,3.4,3.6,3.4c0.5,0,1,0,2.1-0.1c0-4.3,0-8.6,0-12.9
			c0.4,0,0.7,0,1.1,0c0,4.2,0,8.5,0,12.5c6.3,2.3,6-2.1,6.2-5.9c0.3,0.1,0.6,0.2,1,0.3c0.7,4.7,1.4,9.4,2.2,14.6
			c-6.4,0-12.1,0-17.7-0.1c-0.5,0-1.2-0.9-1.5-1.5c-0.3-0.5-0.3-1.2-0.2-1.7c0.6-3.7,1.3-7.5,2-11.2
			C426.5,239.2,426.7,239.2,427,239.2z M433.6,251.7c1.9-0.1,3.8-0.1,5.6-0.4c0.6-0.1,1.5-1,1.5-1.5c-0.1-0.7-0.8-1.9-1.3-1.9
			c-3.8-0.2-7.6-0.1-11.4,0c-0.5,0-1.2,1.1-1.2,1.7c0,0.6,0.8,1.5,1.3,1.6C429.9,251.6,431.8,251.6,433.6,251.7z"/>
		<path class="st2" d="M435.5,254.3c-3.3,0-6.4,0-9.6-0.1c-0.9,0-1.6-1.1-2-1.8c-0.4-0.8-0.3-1.8-0.3-2.1c0.5-2.9,1-5.9,1.6-8.8
			l0.4-2.4c0-0.3,0.3-0.5,0.5-0.5l0.7,0c0.4,0,0.5,0.2,0.6,0.5c0,0.3,0.1,0.5,0.2,0.8c0.1,0.6,0.3,1.2,0.3,1.9
			c0.1,2.9,0.1,2.9,3.1,2.8c0.3,0,0.6,0,1.1,0l0.4,0v-12.4c0-0.3,0.3-0.6,0.6-0.6l1.1,0c0.1,0.1,0.3,0.1,0.4,0.2
			c0.1,0.1,0.2,0.3,0.2,0.4v12.1c1.7,0.6,3,0.6,3.7,0.1c1.1-0.7,1.2-2.8,1.3-4.7l0-0.9c0-0.2,0.1-0.3,0.3-0.4
			c0.2-0.1,0.3-0.1,0.5-0.1l1,0.3c0.2,0.1,0.3,0.2,0.4,0.5l2.2,14.6c0,0.2,0,0.3-0.1,0.5c-0.1,0.1-0.3,0.2-0.4,0.2l-4.3,0
			C438,254.3,436.7,254.3,435.5,254.3z M426.6,240.3l-0.3,1.4c-0.5,2.9-1.1,5.8-1.6,8.8c-0.1,0.5,0,1.1,0.1,1.4
			c0.4,0.8,0.9,1.2,1,1.2c4.3,0.1,8.7,0.1,13.4,0.1l3.6,0l-2-13.1c-0.1,2.2-0.3,4.3-1.8,5.3c-1.1,0.8-2.8,0.7-5.1-0.2
			c-0.2-0.1-0.3-0.2-0.3-0.3v0.2c0,0.3-0.2,0.6-0.5,0.6l-1,0.1c-0.7,0-1.2,0-1.7,0.1c-3.2,0-3.5-0.4-3.7-3.9
			C426.8,241.3,426.7,240.8,426.6,240.3z M433.6,252.3L433.6,252.3c-0.5,0-1-0.1-1.5-0.1c-1.3-0.1-2.7-0.1-4-0.3
			c-0.8-0.1-1.8-1.3-1.8-2.2c0-0.8,0.9-2.3,1.8-2.3c3.9-0.2,7.8-0.2,11.4,0c0.9,0,1.8,1.7,1.8,2.5c0.1,0.8-1.1,1.9-2,2.1
			c-1.3,0.2-2.7,0.3-4.1,0.3C434.7,252.2,434.1,252.2,433.6,252.3L433.6,252.3z M434.1,248.4c-2,0-4,0-6,0.1
			c-0.2,0.1-0.7,0.8-0.7,1.2c0,0.3,0.6,1,0.9,1c1.3,0.2,2.6,0.3,3.9,0.3c0.5,0,1,0,1.5,0.1c0.5,0,1.1,0,1.6-0.1
			c1.4-0.1,2.7-0.1,3.9-0.3c0.3-0.1,0.9-0.6,1-0.9c0-0.4-0.6-1.3-0.8-1.4C437.6,248.4,435.9,248.4,434.1,248.4z"/>
	</g>
	<g>
		<path class="st2" d="M392.2,243.3c0.1,2.7,0.2,5.5,0.3,8.2c0,1.3,0.2,2.6,1.9,2.3c0.7-0.1,1.6-0.8,1.8-1.5c0.4-1.1,0.3-2.3,1-3.7
			c0.3,0.7,0.7,1.3,0.8,2c0.4,2.2,0.6,4.3,0.9,6.5c0.2,2.1-0.7,3.2-2.9,3.1c-2.8-0.1-5.6,0-8.4,0c-3.6-0.1-5-2.5-3.5-5.9
			c0.7-1.6,1.2-3.2,1.7-4.4c1,3.8,1.1,3.9,5.2,3.6c0-3.4,0-6.9,0-10.3C391.3,243.3,391.7,243.3,392.2,243.3z M386.6,257.2
			c3.2,0.8,6.5,1.2,9.6-0.4C392.9,255.3,389.7,255.7,386.6,257.2z"/>
		<path class="st2" d="M396,260.9c-0.1,0-0.1,0-0.2,0c-1.5,0-3,0-4.5,0c-1.3,0-2.6,0-3.8,0c-2.5,0-3.6-1-4.1-1.9
			c-0.8-1.2-0.8-2.9,0.1-4.8c0.5-1.1,0.9-2.2,1.3-3.2c0.2-0.4,0.3-0.8,0.4-1.2c0.1-0.2,0.3-0.3,0.6-0.4c0.2,0,0.5,0.2,0.5,0.4
			c0.9,3.2,0.9,3.4,4.1,3.2v-9.8c0-0.3,0.3-0.6,0.6-0.6l1.2,0c0.4,0.1,0.6,0.2,0.6,0.6l0.3,8.2c0,0.7,0.1,1.4,0.4,1.6
			c0.2,0.1,0.4,0.2,0.8,0.1c0.5-0.1,1.2-0.7,1.4-1.1c0.1-0.4,0.2-0.8,0.3-1.3c0.1-0.7,0.3-1.5,0.7-2.4c0.1-0.2,0.3-0.3,0.5-0.3
			c0.2,0,0.4,0.1,0.5,0.3c0.1,0.2,0.2,0.4,0.3,0.6c0.2,0.5,0.5,1,0.6,1.5c0.3,1.9,0.6,3.9,0.9,6.6c0.1,1.2-0.1,2.2-0.7,2.8
			C398.1,260.6,397.2,260.9,396,260.9z M392.9,259.8c1,0,2,0,3.1,0c1,0,1.6-0.2,1.9-0.6c0.4-0.4,0.5-1,0.4-1.9
			c-0.3-2.6-0.5-4.6-0.8-6.5c0-0.2-0.1-0.4-0.2-0.6c-0.1,0.3-0.1,0.6-0.2,0.8c-0.1,0.5-0.2,1-0.4,1.5c-0.3,0.8-1.3,1.7-2.2,1.8
			c-0.7,0.1-1.3,0-1.7-0.3c-0.7-0.6-0.8-1.6-0.8-2.5l-0.3-7.7l-0.1,0v9.8c0,0.3-0.2,0.6-0.5,0.6c-3.7,0.2-4.5,0.1-5.3-2.4
			c-0.3,0.9-0.7,1.9-1.1,2.8c-0.7,1.5-0.7,2.8-0.2,3.7c0.5,0.9,1.6,1.3,3.2,1.3c1.3,0,2.5,0,3.8,0
			C391.8,259.8,392.4,259.8,392.9,259.8z M391.4,258.4c-1.7,0-3.4-0.3-5-0.7c-0.2-0.1-0.4-0.3-0.4-0.5c0-0.2,0.1-0.5,0.3-0.6
			c3.6-1.7,6.9-1.8,10.1-0.4c0.2,0.1,0.3,0.3,0.3,0.5c0,0.2-0.1,0.4-0.3,0.5C394.8,258.1,393.1,258.4,391.4,258.4z M388.5,257
			c2.2,0.4,4.2,0.4,6-0.2C392.7,256.2,390.7,256.3,388.5,257z"/>
	</g>
	<g>
		<path class="st2" d="M103.4,248.9c0.1,1.1,0,2.2,0.4,3.2c0.3,0.7,1.1,1.6,1.8,1.8c1.4,0.4,1.9-0.7,2-1.9c0-2,0-4.1,0.1-6.1
			c0-0.9,0.3-1.7,0.5-2.6c0.3,0,0.5,0,0.8,0c0.2,3.5,0.3,6.9,0.5,10.4c3.6,0.4,4,0.1,4.9-3.8c0.5,1.4,1.3,2.9,1.6,4.5
			c0.3,1.7,0.3,3.5,0.4,5.9c-4.8,0-9.3,0-13.8-0.1c-0.4,0-1.2-0.9-1.2-1.3c0.3-3.4,0.7-6.7,1-10.1
			C102.7,248.8,103,248.8,103.4,248.9z M113.4,257.4c-2.7-2-8.1-2.1-9.8-0.2C107,258.4,110.2,257.9,113.4,257.4z"/>
		<path class="st2" d="M110.3,260.8c-2.7,0-5.3,0-7.9-0.1c-0.5,0-0.9-0.4-1.1-0.7c-0.2-0.2-0.6-0.8-0.6-1.3c0.2-2.6,0.5-5.2,0.8-7.8
			l0.3-2.3c0-0.3,0.3-0.5,0.6-0.5l1.1,0.1c0.3,0,0.5,0.2,0.5,0.5c0,0.3,0.1,0.7,0.1,1c0,0.7,0.1,1.4,0.3,2c0.2,0.6,0.9,1.3,1.4,1.4
			c0.3,0.1,0.6,0.1,0.8,0c0.3-0.2,0.4-0.7,0.4-1.3c0-0.8,0-1.5,0-2.3c0-1.3,0-2.5,0.1-3.8c0-0.7,0.2-1.3,0.3-1.9
			c0.1-0.3,0.1-0.5,0.2-0.8c0.1-0.3,0.4-0.4,0.6-0.5l0.8,0c0.3,0,0.5,0.3,0.6,0.5l0.4,9.9c2.8,0.3,3,0.1,3.8-3.4
			c0.1-0.2,0.3-0.4,0.5-0.4c0.2,0,0.5,0.1,0.6,0.4c0.2,0.4,0.3,0.8,0.5,1.3c0.4,1,0.9,2.1,1.1,3.3c0.2,1.2,0.3,2.4,0.3,3.8
			c0,0.7,0,1.4,0.1,2.2c0,0.2,0,0.3-0.2,0.4c-0.1,0.1-0.3,0.2-0.4,0.2l-3,0C112.2,260.8,111.3,260.8,110.3,260.8z M102.8,249.4
			l-0.2,1.8c-0.3,2.5-0.6,5.1-0.8,7.7c0,0.2,0.5,0.7,0.7,0.7c3.5,0.1,7,0.1,10.7,0.1l2.4,0c0-0.6,0-1.1-0.1-1.6
			c0-1.4-0.1-2.5-0.3-3.6c-0.2-0.9-0.5-1.9-0.9-2.8c-0.8,2.6-1.8,2.9-5.1,2.5c-0.3,0-0.5-0.3-0.5-0.5l-0.4-9
			c-0.1,0.4-0.2,0.8-0.2,1.2c-0.1,1.2-0.1,2.5-0.1,3.7c0,0.8,0,1.6,0,2.3c0,1-0.3,1.8-0.9,2.2c-0.3,0.2-0.9,0.5-1.8,0.2
			c-1-0.3-1.8-1.3-2.2-2.1c-0.3-0.8-0.3-1.6-0.4-2.4C102.9,249.7,102.9,249.5,102.8,249.4L102.8,249.4z M108.1,258.5
			c-1.5,0-3.1-0.2-4.7-0.8c-0.2-0.1-0.3-0.2-0.3-0.4c0-0.2,0-0.4,0.1-0.5c1.9-2.1,7.6-2.1,10.6,0.1c0.2,0.1,0.3,0.4,0.2,0.6
			c-0.1,0.2-0.2,0.4-0.5,0.4l-0.3,0C111.5,258.2,109.8,258.5,108.1,258.5z M104.8,256.9c2.3,0.6,4.5,0.4,6.8,0.1
			C109.4,256.2,106.5,256.1,104.8,256.9z"/>
	</g>
	<g>
		<path class="st2" d="M56.6,328.6c0.5-2.4-1-5,1.8-6.8c0.5-0.3,0.4-1.6,0.5-2.4c0.2-2.9,0.2-5.9,0.5-8.8c0.3-3.1,2.5-4.2,5.2-2.7
			c1.2,0.6,2,0.6,3.2,0c2.7-1.5,4.8-0.4,5.2,2.7c0.3,2.2,0.3,4.4,0.4,6.6c0.1,2,0.2,3.8,1.6,5.7c1,1.4,0.7,3.7,1,5.8
			C69.5,328.6,63.3,328.6,56.6,328.6z M66.4,324.2c-2.1,0-4.2-0.1-6.3,0.1c-0.6,0-1.1,0.9-1.7,1.4c0.5,0.4,1,1.2,1.6,1.2
			c4.2,0.1,8.4,0.1,12.6,0c0.5,0,1.1-0.8,1.6-1.2c-0.6-0.5-1.1-1.4-1.7-1.4C70.4,324.1,68.4,324.2,66.4,324.2z M71.8,322.3
			c-0.2-4-0.4-7.7-0.7-11.3c0-0.5-0.9-1-1.3-1.5c-0.5,0.5-1.3,0.9-1.3,1.5c-0.3,3.7-0.5,7.5-0.7,11.3
			C69.3,322.3,70.3,322.3,71.8,322.3z M64.7,322.3c-0.2-3.9-0.4-7.6-0.7-11.2c0-0.6-0.8-1-1.2-1.6c-0.5,0.4-1.4,0.9-1.4,1.3
			c-0.3,3.8-0.5,7.6-0.7,11.5C62.2,322.3,63.2,322.3,64.7,322.3z"/>
		<path class="st2" d="M76.1,329.2H56.6c-0.2,0-0.3-0.1-0.4-0.2c-0.1-0.1-0.2-0.3-0.1-0.5c0.1-0.7,0.1-1.4,0.1-2.1
			c-0.1-1.7-0.2-3.6,2-5c0.2-0.2,0.2-1,0.2-1.5l0-0.5c0.1-1.1,0.1-2.2,0.2-3.3c0.1-1.8,0.1-3.7,0.3-5.6c0.2-1.7,0.9-2.9,2-3.5
			c1.1-0.6,2.6-0.5,4.1,0.3c1,0.5,1.6,0.5,2.7,0c1.9-1,3.2-0.7,4-0.4c1.1,0.6,1.8,1.8,2.1,3.5c0.3,1.9,0.3,3.8,0.4,5.7l0,0.9
			c0.1,2.1,0.2,3.7,1.4,5.3c0.8,1.1,0.9,2.5,1,4.1c0,0.7,0.1,1.3,0.2,2c0,0.2,0,0.3-0.1,0.5C76.4,329.1,76.2,329.2,76.1,329.2z
			 M57.3,328.1h18.2c0-0.5-0.1-1-0.1-1.4c-0.1-1.4-0.2-2.7-0.7-3.5c-1.4-1.9-1.6-3.8-1.7-6l0-0.9c-0.1-1.8-0.1-3.7-0.4-5.6
			c-0.2-1.3-0.7-2.2-1.5-2.6c-0.8-0.4-1.8-0.3-2.9,0.3c-1.4,0.7-2.4,0.7-3.7,0c-1.2-0.6-2.2-0.7-3-0.3c-0.8,0.4-1.2,1.3-1.4,2.6
			c-0.2,1.8-0.3,3.7-0.3,5.5c0,1.1-0.1,2.2-0.2,3.3l0,0.4c0,1-0.1,2-0.7,2.4c-1.6,1-1.6,2.4-1.5,4C57.3,326.9,57.3,327.5,57.3,328.1
			z M66.4,327.6c-2.2,0-4.3,0-6.4-0.1c-0.6,0-1.1-0.5-1.5-0.9c-0.1-0.2-0.3-0.3-0.4-0.4c-0.1-0.1-0.2-0.3-0.2-0.4
			c0-0.2,0.1-0.3,0.2-0.4c0.2-0.1,0.3-0.3,0.5-0.5c0.5-0.5,0.9-1,1.6-1c1.5-0.1,3.1-0.1,4.6-0.1c1.1,0,2.3,0,3.4,0
			c1.5,0,3,0,4.4,0.1c0.6,0.1,1.1,0.6,1.5,1.1c0.2,0.2,0.3,0.3,0.5,0.5c0.1,0.1,0.2,0.3,0.2,0.4c0,0.2-0.1,0.3-0.2,0.4
			c-0.2,0.1-0.3,0.3-0.5,0.4c-0.4,0.4-0.9,0.9-1.5,0.9C70.5,327.5,68.4,327.6,66.4,327.6z M59.2,325.7
			C59.2,325.7,59.2,325.7,59.2,325.7c0.3,0.3,0.6,0.6,0.8,0.7c4.1,0.1,8.3,0.1,12.5,0c0.1,0,0.5-0.4,0.7-0.6l0.1-0.1
			c0,0-0.1-0.1-0.1-0.1c-0.2-0.3-0.6-0.7-0.8-0.7c-1.4-0.1-2.9-0.1-4.3-0.1c-1.1,0-2.3,0-3.4,0c-1.5,0-3,0-4.5,0.1
			c-0.2,0-0.6,0.4-0.8,0.7C59.3,325.6,59.2,325.6,59.2,325.7z M64.7,322.9h-4c-0.2,0-0.3-0.1-0.4-0.2s-0.2-0.3-0.2-0.4l0.1-2.5
			c0.2-2.9,0.3-6,0.6-9c0.1-0.6,0.6-1,1.1-1.3c0.2-0.1,0.3-0.2,0.5-0.4c0.1-0.1,0.3-0.1,0.4-0.1c0.2,0,0.3,0.1,0.4,0.2
			c0.1,0.2,0.3,0.3,0.4,0.4c0.4,0.4,0.9,0.9,0.9,1.4c0.2,2.7,0.4,5.4,0.5,8.2l0.2,3.1c0,0.2,0,0.3-0.2,0.4
			C65,322.8,64.8,322.9,64.7,322.9z M61.3,321.7h2.8l-0.1-2.5c-0.2-2.8-0.3-5.5-0.5-8.1c0-0.2-0.3-0.5-0.6-0.7c0,0-0.1-0.1-0.1-0.1
			c0,0-0.1,0.1-0.1,0.1c-0.2,0.2-0.6,0.4-0.6,0.5c-0.2,2.9-0.4,5.8-0.6,8.9L61.3,321.7z M71.8,322.8h-4.1c-0.2,0-0.3-0.1-0.4-0.2
			c-0.1-0.1-0.2-0.3-0.2-0.4l0.2-2.8c0.2-2.9,0.3-5.7,0.5-8.5c0.1-0.6,0.6-1,1-1.4c0.2-0.1,0.3-0.3,0.5-0.4c0.1-0.1,0.3-0.2,0.4-0.2
			l0,0c0.2,0,0.3,0.1,0.4,0.2c0.1,0.1,0.3,0.3,0.5,0.4c0.5,0.4,1,0.8,1,1.4c0.2,2.8,0.4,5.5,0.6,8.5l0.2,2.9c0,0.2,0,0.3-0.2,0.4
			C72.1,322.8,72,322.8,71.8,322.8z M68.4,321.7h2.9l-0.1-2.2c-0.2-2.9-0.3-5.7-0.6-8.4c0-0.1-0.4-0.4-0.6-0.6c0,0-0.1-0.1-0.1-0.1
			c0,0-0.1,0.1-0.1,0.1c-0.2,0.2-0.6,0.5-0.6,0.6c-0.2,2.8-0.4,5.6-0.5,8.5L68.4,321.7z"/>
	</g>
	<g>
		<path class="st2" d="M263.6,269.7c3.9,0.6,3.9,0.6,4,4.5c0,2,0,4.1,0,6.1c0,1.3-0.5,1.8-1.8,1.8c-10.6,0-21.1,0-31.7,0
			c-1.3,0-1.8-0.4-1.8-1.8c0.1-2.4,0.1-4.9,0-7.3c-0.1-2.7,1.5-3.2,4-3c0-4.1,0-8.1,0-12c0-3.2,0.1-6.4,0.3-9.6c0.1-3,2-4.8,4.6-5.8
			c2.6-1,4.8-0.2,6.7,1.7c0.6,0.6,1.2,1.1,1.9,1.8c0.9-0.8,1.6-1.6,2.5-2.2c2.1-1.7,4.4-2.1,6.9-1.2c2.5,0.9,4.1,2.7,4.1,5.5
			c0.1,6.2,0.2,12.5,0.3,18.7C263.6,267.7,263.6,268.7,263.6,269.7z M235,279.3c10,0,19.9,0,29.9,0c0-2.3,0-4.4,0-6.7
			c-10,0-19.9,0-29.9,0C235,274.9,235,277,235,279.3z M247.4,269.8c0-6.5,0-12.8,0-19c0-1.1-0.2-2.2-0.5-3.2c-0.5-2-1.9-3-3.9-2.9
			c-2,0.1-3.7,1.2-3.7,3.2c-0.2,7.3-0.1,14.6-0.1,22C241.8,269.8,244.5,269.8,247.4,269.8z M261.1,269.8c0-3.5,0.1-6.7,0-9.9
			c-0.1-3.9-0.2-7.8-0.5-11.6c-0.1-2.1-1.4-3.5-3.6-3.6c-2.2-0.1-3.7,0.9-4.2,3.2c-0.2,1.1-0.4,2.2-0.4,3.3c-0.1,4.2,0,8.4-0.1,12.7
			c0,2,0,4,0,6C255.5,269.8,258.2,269.8,261.1,269.8z"/>
		<path class="st2" d="M234.1,282.6c-0.5,0-1.3-0.1-1.8-0.6c-0.4-0.4-0.6-1-0.5-1.8c0.1-2.5,0.1-4.9,0-7.3c-0.1-1.3,0.2-2.2,0.9-2.8
			c0.8-0.8,2-0.9,3.1-0.8l0-3.2c0-2.8,0-5.5,0-8.2c0-3,0.1-6.1,0.3-9.6c0.1-3,1.8-5.1,4.9-6.3c2.6-1,5-0.4,7.3,1.8
			c0.4,0.4,0.9,0.8,1.3,1.2l0.2,0.2l0.4-0.4c0.6-0.5,1.1-1,1.7-1.5c2.2-1.9,4.8-2.3,7.4-1.3c2.9,1.1,4.5,3.2,4.5,6
			c0.1,4.5,0.1,8.9,0.2,13.4l0.1,5.4c0,0.7,0,1.3,0,2l0,0.4c3.7,0.6,3.9,1,4,5c0,0.8,0,1.7,0,2.5c0,1.2,0,2.4,0,3.6
			c0,0.8-0.1,1.4-0.5,1.8c-0.5,0.5-1.3,0.6-1.8,0.6h0C255.3,282.6,244.7,282.6,234.1,282.6L234.1,282.6z M235.4,270.4
			c-0.9,0-1.6,0.2-1.9,0.5c-0.4,0.4-0.6,1-0.5,1.9c0.1,2.4,0,4.9,0,7.4c0,0.5,0.1,0.8,0.2,0.9c0.2,0.2,0.5,0.2,1,0.2c0,0,0,0,0,0
			c10.6,0,21.1,0,31.7,0h0c0.5,0,0.8-0.1,1-0.2c0.2-0.2,0.2-0.5,0.2-0.9c0-1.2,0-2.4,0-3.6c0-0.8,0-1.6,0-2.5c0-3.4,0-3.4-3.5-3.9
			c-0.3,0-0.5-0.3-0.5-0.6l0-0.9c0-0.6,0-1.3,0-2l-0.1-5.4c-0.1-4.5-0.1-8.9-0.2-13.4c0-2.4-1.3-4-3.8-5c-2.3-0.9-4.4-0.5-6.3,1.1
			c-0.6,0.5-1.1,1-1.6,1.5l-0.8,0.8c-0.2,0.2-0.6,0.2-0.8,0l-0.6-0.5c-0.5-0.4-0.9-0.8-1.3-1.3c-2-1.9-4-2.4-6.1-1.6
			c-2.7,1.1-4.1,2.8-4.2,5.3c-0.1,3.5-0.2,6.6-0.3,9.6c0,2.7,0,5.4,0,8.2l0,3.8c0,0.2-0.1,0.3-0.2,0.4c-0.1,0.1-0.3,0.2-0.4,0.1
			C236,270.4,235.7,270.4,235.4,270.4z M265,279.9H235c-0.3,0-0.6-0.3-0.6-0.6v-6.7c0-0.3,0.3-0.6,0.6-0.6H265
			c0.3,0,0.6,0.3,0.6,0.6v6.7C265.5,279.6,265.3,279.9,265,279.9z M235.6,278.7h28.8v-5.6h-28.8V278.7z M247.4,270.4h-8.1
			c-0.3,0-0.6-0.3-0.6-0.6c0-2,0-4.1,0-6.1c0-5.2,0-10.6,0.1-15.9c0-2.1,1.7-3.6,4.2-3.7c2.3-0.1,3.9,1.1,4.5,3.3
			c0.3,1.2,0.5,2.3,0.5,3.4c0,4.6,0,9.2,0,13.9l0,5.1C248,270.1,247.8,270.4,247.4,270.4z M239.9,269.3h7l0-4.6c0-4.7,0-9.3,0-13.9
			c0-0.9-0.2-2-0.4-3.1c-0.4-1.7-1.6-2.6-3.3-2.5c-1.5,0.1-3.1,0.8-3.2,2.6c-0.1,5.3-0.1,10.7-0.1,15.9
			C239.9,265.6,239.9,267.4,239.9,269.3z M261.1,270.4h-8.7c-0.3,0-0.6-0.3-0.6-0.6l0-8.8c0-3.3,0-6.6,0-9.9c0-1,0.1-2.1,0.4-3.4
			c0.5-2.4,2.1-3.7,4.5-3.7c0.1,0,0.2,0,0.3,0c2.4,0.1,3.9,1.7,4.1,4.1c0.3,4.1,0.4,8.2,0.5,11.7c0.1,2.2,0,4.4,0,6.8
			c0,1,0,2.1,0,3.2C261.7,270.1,261.5,270.4,261.1,270.4z M253,269.2h7.5c0-0.9,0-1.8,0-2.6c0-2.3,0-4.5,0-6.7
			c-0.1-3.5-0.2-7.5-0.5-11.6c-0.1-1.9-1.2-3-3-3.1c-0.1,0-0.2,0-0.3,0c-1.3,0-2.9,0.5-3.3,2.8c-0.2,1.2-0.3,2.2-0.4,3.2
			c0,3.3,0,6.6,0,9.8L253,269.2z"/>
	</g>
	<g>
		<path class="st2" d="M250.1,216.7c0.3,3.1,1.5,5.3,4.7,6.3c-2,1-3.6,0.2-4.7-0.9C248.7,220.6,248.8,218.7,250.1,216.7z"/>
		<path class="st2" d="M253,224.1c-1.2,0-2.3-0.5-3.3-1.5c-1.6-1.6-1.7-3.8-0.1-6.2c0.1-0.2,0.4-0.3,0.6-0.2
			c0.2,0.1,0.4,0.3,0.4,0.5c0.3,3.2,1.6,5,4.3,5.8c0.2,0.1,0.4,0.3,0.4,0.5c0,0.2-0.1,0.5-0.3,0.6
			C254.4,223.9,253.7,224.1,253,224.1z M249.9,218.5c-0.4,1.2-0.2,2.3,0.7,3.2c0.8,0.8,1.7,1.1,2.5,1.2
			C251.4,222,250.4,220.6,249.9,218.5z"/>
	</g>
	<g>
		<path class="st2" d="M399,328.8c1.8,0,3.4,0,5.4,0c0,3.1,0.1,6.2-0.1,9.2c0,0.4-0.8,1-1.4,1.2c-0.6,0.2-1.3,0.1-2,0.1
			c-37,0-74,0-111,0c-1.1,0-2.1,0-3.3,0c0-3.6,0-6.9,0-10.3c1.7,0,3.4,0,5.5,0c0-1.7,0-3.1,0-4.6c0.2-5,2.4-6.3,6.8-3.9
			c4.2-2.4,6.5-1.1,6.7,3.7c0.1,1.4,0,2.9,0,4.7c1.6,0,3.1,0,4.6,0c1.5,0,3,0,4.7,0c0.1-2.2,0.2-4.2,0.4-6.2c0.3-3,2.5-4.3,5.2-2.9
			c1.1,0.6,1.8,0.5,2.9-0.1c2.3-1.2,4.6,0.1,5,2.7c0.2,1.1,0.2,2.2,0.3,3.3c0,1,0,2,0,3.1c3.2,0,6.1,0,9.5,0c0-1.4,0-2.8,0-4.2
			c0.1-5.2,2.3-6.5,6.9-4.1c4-2.4,6.4-1.1,6.7,3.6c0.1,1.5,0,3,0,4.7c3.2,0,6.2,0,9.3,0c0.1-2,0.2-4.1,0.4-6.1c0.3-2.8,2.4-4.2,5-3
			c1.2,0.5,1.9,0.7,3.1,0c2.2-1.3,4.6,0.2,5,2.7c0.2,2.1,0.3,4.2,0.4,6.3c3.3,0,6.5,0,10,0c0.1-1.6,0.1-3.2,0.2-4.7
			c0.3-4.8,2.3-5.9,6.8-3.5c0.5-0.3,1-0.7,1.6-0.9c2.3-0.9,4.5,0.3,4.8,2.7C398.8,324.3,398.8,326.4,399,328.8z M401.6,331.5
			c-37.5,0-74.9,0-112.4,0c0,1.8,0,3.4,0,5.3c1.2,0,2.3,0,3.4,0c35,0,69.9,0,104.9,0c4.8,0,4.8,0,4.3-4.9
			C401.8,331.8,401.7,331.7,401.6,331.5z M339.5,325c0.8,1.8-0.3,4,2.5,3.8c2.5-0.1,1.8-2.1,1.6-3.4c-0.2-1.4,0.5-3.7-1.7-3.9
			C341.2,321.5,340.3,323.8,339.5,325z M366.7,325.9c-0.1-1.4,0-2.2-0.2-2.8c-0.3-0.7-1-1.2-1.5-1.8c-0.5,0.5-1.3,1-1.5,1.6
			c-0.3,1.4-0.5,2.8-0.4,4.2c0,0.5,0.7,1.3,1.2,1.5c0.6,0.2,1.8,0,2-0.4C366.8,327.4,366.7,326.3,366.7,325.9z M320.6,325.7
			c-0.1-1,0.1-1.9-0.2-2.6c-0.3-0.7-1-1.2-1.5-1.7c-0.5,0.5-1.3,1-1.5,1.7c-0.3,1.4-0.5,2.8-0.4,4.2c0.1,0.6,1.1,1.4,1.7,1.5
			c0.6,0,1.4-0.8,1.8-1.4C320.8,326.9,320.6,326.2,320.6,325.7z M303.9,325.7c-0.1-1.2,0.1-2.1-0.3-2.8c-0.3-0.6-1.3-1.6-1.6-1.5
			c-2.5,1.1-1.5,3.6-1.8,5.5c-0.2,1.4,0.6,2.1,2,1.8c0.6-0.1,1.3-0.8,1.6-1.4C304.1,326.8,303.9,326.1,303.9,325.7z M293.2,325.5
			c0.8,1.3,1.3,3,2.2,3.2c2.8,0.6,2.4-1.7,2.1-3.3c-0.3-1.4,0.6-3.9-1.9-3.9C294.9,321.5,294.2,323.8,293.2,325.5z M322.9,324.9
			c0.2,0.1,0.3,0.2,0.5,0.3c0,0.7-0.2,1.5,0.1,2c0.4,0.6,1.2,1.5,1.8,1.4c0.6,0,1.4-0.8,1.8-1.5c0.3-0.5,0.2-1.4,0-2
			c-0.4-1.4,0.4-3.7-1.8-3.7C324.4,321.5,323.6,323.7,322.9,324.9z M390.6,325.8c-0.1-1.2,0.1-2.1-0.3-2.8c-0.3-0.6-1.3-1.6-1.6-1.5
			c-2.5,1.1-1.5,3.6-1.8,5.5c-0.3,1.6,0.8,2.2,2.2,1.9c0.6-0.1,1.2-0.8,1.4-1.3C390.8,326.8,390.6,326.1,390.6,325.8z M373.2,325.4
			c-0.1-0.5-0.1-1.6-0.5-2.6c-0.2-0.6-0.9-1.4-1.4-1.4c-0.5,0-1.3,0.8-1.5,1.3c-0.3,1-0.3,2.2-0.3,3.3c0,1.3-0.4,2.8,1.8,2.8
			C373.4,328.8,373.2,327.4,373.2,325.4z M350,326c-0.1-1.3,0.1-2.2-0.2-2.9c-0.3-0.7-1-1.1-1.6-1.7c-0.5,0.6-1.3,1.1-1.4,1.7
			c-0.3,1.4-0.5,2.9-0.4,4.2c0.1,0.6,1.1,1.4,1.8,1.4c0.6,0,1.3-0.8,1.8-1.5C350.2,326.8,350,326.1,350,326z M392.7,325.4
			c0.8,1.3,1.3,3.1,2.1,3.3c2.8,0.6,2.4-1.7,2.2-3.2c-0.2-1.5,0.5-3.9-1.9-3.9C394.4,321.5,393.6,323.8,392.7,325.4z"/>
		<path class="st2" d="M402.1,339.9c-0.2,0-0.4,0-0.7,0c-0.2,0-0.4,0-0.6,0H286.6c-0.3,0-0.6-0.3-0.6-0.6v-10.3
			c0-0.3,0.3-0.6,0.6-0.6h4.9c0-0.3,0-0.7,0-1c0-1.1,0-2,0-3c0.1-2.7,0.8-4.4,2.1-5.2c1.3-0.7,3-0.5,5.3,0.7
			c2.1-1.2,3.8-1.4,5.1-0.7c1.3,0.7,2.1,2.4,2.2,5.1c0,1,0,1.9,0,3c0,0.3,0,0.7,0,1.1h8.2c0-0.5,0.1-0.9,0.1-1.4
			c0.1-1.5,0.2-2.9,0.3-4.3c0.2-1.7,0.9-2.9,2-3.6c1.1-0.6,2.5-0.6,4,0.2c0.9,0.5,1.4,0.5,2.4-0.1c1.2-0.7,2.5-0.7,3.6-0.2
			c1.2,0.6,2,1.8,2.2,3.2c0.2,1.1,0.2,2.2,0.3,3.2c0,0.8,0,1.5,0,2.2l0,0.5h8.3l0-0.8c0-1,0-1.9,0-2.9c0.1-2.8,0.7-4.6,2-5.3
			c1.2-0.7,3-0.6,5.4,0.6c2.1-1.2,3.8-1.4,5-0.7c1.3,0.7,2.1,2.4,2.2,4.9c0.1,1,0,2.1,0,3.2c0,0.3,0,0.6,0,1h8.2
			c0-0.5,0-0.9,0.1-1.4c0.1-1.4,0.1-2.8,0.3-4.2c0.2-1.6,0.9-2.8,2-3.5c1.1-0.6,2.4-0.6,3.8,0.1c1.1,0.5,1.6,0.6,2.6,0
			c1.2-0.7,2.5-0.7,3.6-0.2c1.2,0.6,2,1.8,2.2,3.3c0.2,1.4,0.2,2.8,0.3,4.3c0,0.5,0.1,1,0.1,1.5h8.9l0-0.8c0-1.1,0.1-2.2,0.2-3.4
			c0.2-2.6,0.8-4.2,2.1-4.9c1.2-0.7,2.9-0.5,5.3,0.7c0,0,0.1-0.1,0.1-0.1c0.4-0.2,0.8-0.5,1.3-0.7c1.3-0.5,2.6-0.5,3.7,0.2
			c1.1,0.6,1.8,1.7,1.9,3c0.2,1.4,0.3,2.9,0.4,4.4c0,0.5,0.1,1.1,0.1,1.6h4.8c0.3,0,0.6,0.3,0.6,0.6l0,2.3c0,2.4,0,4.6-0.1,6.9
			c0,0.8-1.2,1.5-1.8,1.8C402.8,339.9,402.5,339.9,402.1,339.9z M287.2,338.7h113.7c0.2,0,0.4,0,0.7,0c0.4,0,0.9,0.1,1.2,0
			c0.5-0.2,1-0.6,1-0.8c0.1-2.2,0.1-4.5,0.1-6.8l0-1.7H399c-0.3,0-0.5-0.2-0.6-0.5c-0.1-0.7-0.1-1.5-0.2-2.2c-0.1-1.5-0.2-3-0.4-4.4
			c-0.1-1-0.6-1.8-1.4-2.2c-0.8-0.4-1.7-0.5-2.7-0.1c-0.4,0.2-0.7,0.4-1.1,0.6c-0.2,0.1-0.3,0.2-0.5,0.3c-0.2,0.1-0.4,0.1-0.6,0
			c-2.1-1.1-3.6-1.4-4.5-0.9c-0.9,0.5-1.3,1.8-1.5,4c-0.1,1.1-0.1,2.2-0.2,3.3l-0.1,1.4c0,0.3-0.3,0.5-0.6,0.5h-10
			c-0.3,0-0.6-0.2-0.6-0.5c0-0.7-0.1-1.4-0.1-2.1c-0.1-1.5-0.2-2.9-0.3-4.3c-0.1-1.1-0.7-2-1.6-2.4c-0.8-0.4-1.7-0.4-2.5,0.1
			c-1.4,0.8-2.4,0.6-3.7,0c-1-0.5-2-0.5-2.8-0.1c-0.8,0.4-1.3,1.4-1.4,2.6c-0.1,1.4-0.2,2.7-0.3,4.1c0,0.6-0.1,1.3-0.1,1.9
			c0,0.3-0.3,0.5-0.6,0.5h-9.3c-0.3,0-0.6-0.3-0.6-0.6c0-0.5,0-1,0-1.6c0-1.1,0-2.1,0-3.1c-0.1-2.1-0.7-3.5-1.6-4
			c-1-0.5-2.4-0.2-4.2,0.9c-0.2,0.1-0.4,0.1-0.6,0c-2.1-1.1-3.7-1.3-4.6-0.8c-0.9,0.6-1.4,2-1.5,4.4c0,0.9,0,1.9,0,2.8l0,1.3
			c0,0.3-0.3,0.6-0.6,0.6h-9.5c-0.3,0-0.6-0.3-0.6-0.6l0-1.1c0-0.7,0-1.4,0-2c0-1.1-0.1-2.2-0.3-3.2c-0.2-1.1-0.7-1.9-1.6-2.4
			c-0.8-0.4-1.7-0.3-2.6,0.1c-1.3,0.7-2.2,0.7-3.4,0.1c-1.1-0.5-2.1-0.6-2.9-0.2c-0.8,0.4-1.3,1.4-1.5,2.7c-0.1,1.4-0.2,2.8-0.3,4.2
			c0,0.6-0.1,1.3-0.1,1.9c0,0.3-0.3,0.5-0.6,0.5h-9.3c-0.3,0-0.6-0.3-0.6-0.6c0-0.6,0-1.1,0-1.7c0-1.1,0-2,0-3
			c-0.1-2.2-0.6-3.6-1.6-4.1c-0.9-0.5-2.4-0.2-4.3,0.9c-0.2,0.1-0.4,0.1-0.6,0c-2-1.1-3.5-1.4-4.5-0.8c-0.9,0.5-1.4,2-1.5,4.2
			c0,0.4,0,0.8,0,1.1c0-0.1,0-0.2,0.1-0.3c0.3-0.5,0.6-1.1,0.9-1.7c0.7-1.5,1.2-2.5,2-2.5c0.8,0,1.4,0.2,1.8,0.6
			c0.7,0.7,0.7,1.7,0.6,2.6c0,0.4,0,0.8,0,1.1c0.2,1,0.5,2.6-0.4,3.5c-0.5,0.5-1.3,0.6-2.4,0.4c-0.8-0.2-1.3-1.1-1.8-2.1
			c-0.2-0.4-0.4-0.9-0.7-1.3c-0.1-0.1-0.1-0.2-0.1-0.3c0,0.6,0,1.2,0,1.8c0,0.5,0,1.1,0,1.6c0,0.3-0.3,0.6-0.6,0.6h-4.9V338.7z
			 M293.9,325.5c0.2,0.4,0.4,0.7,0.6,1.1c0.3,0.6,0.7,1.5,1,1.5c0.5,0.1,1.1,0.2,1.4-0.1c0.5-0.4,0.2-1.8,0.1-2.5
			c-0.1-0.4-0.1-0.9-0.1-1.3c0-0.7,0-1.5-0.3-1.8c-0.2-0.2-0.5-0.2-0.9-0.3c-0.2,0.1-0.7,1.2-1,1.9
			C294.4,324.5,294.2,325,293.9,325.5z M397.5,337.3H289.2c-0.3,0-0.6-0.3-0.6-0.6v-5.3c0-0.3,0.3-0.6,0.6-0.6h112.4
			c0.2,0,0.4,0.1,0.5,0.3l0.1,0.2c0.1,0.1,0.2,0.3,0.2,0.5c0.3,2.6,0.4,3.9-0.3,4.7C401.3,337.3,400,337.3,397.5,337.3z
			 M289.7,336.2h107.7c2.1,0,3.3,0,3.7-0.4c0.4-0.4,0.3-1.7,0.1-3.7H289.7V336.2z M371.3,329.4c-0.8,0-1.4-0.2-1.8-0.6
			c-0.6-0.6-0.5-1.5-0.5-2.3c0-0.2,0-0.3,0-0.5l0-0.5c0-1,0-2,0.3-2.9c0.2-0.7,1.2-1.7,2-1.7c0,0,0,0,0,0c0.8,0,1.7,1,1.9,1.8
			c0.3,0.8,0.4,1.7,0.4,2.3c0,0.2,0,0.3,0,0.4c0,0,0,0,0,0.1l0,0.5c0,1.2,0.1,2.2-0.6,2.9C372.8,329.2,372.2,329.4,371.3,329.4
			L371.3,329.4z M371.3,322c-0.2,0-0.8,0.5-0.9,0.9c-0.2,0.8-0.2,1.7-0.3,2.6l0,0.5c0,0.2,0,0.4,0,0.5c0,0.6-0.1,1.2,0.2,1.4
			c0.2,0.2,0.6,0.3,1,0.3c0.5,0,0.9-0.1,1-0.3c0.3-0.3,0.3-1.1,0.3-2l0-0.5c0-0.1,0-0.3,0-0.4c-0.1-0.5-0.1-1.3-0.4-2
			C372,322.6,371.5,322,371.3,322z M388.5,329.4c-0.6,0-1.2-0.2-1.6-0.6c-0.3-0.3-0.7-1-0.5-2.1c0.1-0.5,0.1-1,0-1.6
			c0-1.5-0.1-3.4,2.1-4.3c0.9-0.3,2.1,1.2,2.3,1.8c0.3,0.6,0.3,1.2,0.3,2c0,0.3,0,0.7,0,1.1v0c0,0.1,0,0.2,0,0.3
			c0,0.4,0.1,1-0.1,1.6c-0.3,0.7-1,1.5-1.8,1.7C389,329.4,388.7,329.4,388.5,329.4z M388.8,322c-1.2,0.6-1.3,1.6-1.2,3.2
			c0,0.6,0,1.2-0.1,1.8c-0.1,0.3-0.1,0.8,0.2,1c0.3,0.2,0.7,0.3,1.3,0.2c0.3-0.1,0.8-0.6,1-1c0.1-0.3,0.1-0.7,0-1c0-0.1,0-0.3,0-0.4
			c0-0.4,0-0.8,0-1.1c0-0.6,0-1.2-0.2-1.5C389.6,322.8,389.1,322.2,388.8,322z M301.6,329.4c-0.6,0-1.1-0.2-1.4-0.5
			c-0.5-0.5-0.7-1.2-0.6-2c0.1-0.5,0.1-1,0.1-1.6c0-1.5-0.1-3.4,2-4.3c0.1-0.1,0.3-0.1,0.6,0c0.6,0.2,1.5,1.1,1.8,1.8
			c0.3,0.6,0.3,1.3,0.3,2c0,0.3,0,0.7,0,1v0c0,0.1,0,0.2,0,0.3c0.1,0.5,0.1,1.1-0.1,1.6c-0.4,0.7-1.2,1.5-2,1.7
			C302.1,329.4,301.9,329.4,301.6,329.4z M302.1,322c-1.2,0.6-1.3,1.6-1.2,3.2c0,0.6,0,1.2-0.1,1.8c-0.1,0.5,0,0.8,0.2,1
			c0.2,0.2,0.6,0.3,1.1,0.2c0.4-0.1,1-0.6,1.2-1.1c0.1-0.2,0.1-0.7,0-1c0-0.2,0-0.3,0-0.4c0-0.4,0-0.7,0-1.1c0-0.6,0-1.1-0.2-1.5
			C302.9,322.7,302.4,322.2,302.1,322z M341.8,329.4c-2.2,0-2.3-1.5-2.4-2.6c-0.1-0.5-0.1-1.1-0.3-1.6c-0.1-0.2-0.1-0.4,0-0.6
			c0.2-0.4,0.5-0.8,0.7-1.3c0.7-1.3,1.4-2.5,2.2-2.4c2.2,0.1,2.2,2,2.2,3.3c0,0.4,0,0.7,0,1c0,0.2,0,0.3,0.1,0.5
			c0.2,0.9,0.4,2-0.3,2.8c-0.4,0.5-1.1,0.8-2,0.8C342,329.4,341.9,329.4,341.8,329.4z M340.2,325.1c0.2,0.6,0.3,1.1,0.3,1.6
			c0.1,1.2,0.2,1.6,1.5,1.5c0.6,0,0.9-0.2,1.1-0.4c0.3-0.4,0.2-1.2,0-1.8c0-0.2-0.1-0.4-0.1-0.5c0-0.4,0-0.8,0-1.2
			c0-1.6-0.1-2.1-1.1-2.2c-0.2,0.1-0.8,1.2-1.1,1.8C340.6,324.3,340.4,324.7,340.2,325.1z M395.7,329.4c-0.3,0-0.6,0-1-0.1
			c-0.8-0.2-1.3-1.1-1.8-2.2c-0.2-0.4-0.4-0.9-0.7-1.3c-0.1-0.2-0.1-0.4,0-0.6c0.3-0.5,0.6-1.1,0.9-1.7c0.7-1.4,1.2-2.5,2.1-2.5h0
			c2.4,0,2.4,2.1,2.4,3.4c0,0.4,0,0.7,0,1l0,0.2c0.1,1.1,0.3,2.5-0.5,3.3C396.7,329.2,396.2,329.4,395.7,329.4z M393.3,325.4
			c0.2,0.4,0.4,0.8,0.6,1.1c0.3,0.6,0.7,1.5,1,1.6c0.5,0.1,1.1,0.2,1.3-0.1c0.4-0.4,0.3-1.5,0.2-2.3l0-0.2c0-0.4,0-0.8,0-1.2
			c0-1.6-0.1-2.2-1.3-2.2c-0.2,0.1-0.7,1.2-1,1.8C393.8,324.4,393.6,324.9,393.3,325.4z M364.9,329.3c-0.3,0-0.5,0-0.7-0.1
			c-0.7-0.2-1.6-1.2-1.7-2c-0.1-1.5,0.1-3,0.4-4.4c0.1-0.6,0.7-1.1,1.1-1.4c0.2-0.1,0.4-0.3,0.5-0.5c0.1-0.1,0.3-0.2,0.4-0.2
			c0.2,0,0.3,0.1,0.4,0.2c0.1,0.2,0.3,0.3,0.5,0.5c0.4,0.4,0.9,0.9,1.1,1.4c0.2,0.5,0.2,1.1,0.2,1.9c0,0.3,0,0.7,0,1.2
			c0,0,0,0.1,0,0.1c0,0.1,0,0.2,0,0.3c0,0.6,0,1.4-0.4,2.2C366.6,329.1,365.7,329.3,364.9,329.3z M365,322.1c-0.1,0-0.1,0.1-0.2,0.1
			c-0.3,0.3-0.7,0.6-0.8,0.8c-0.3,1.3-0.4,2.7-0.4,4.1c0,0.3,0.5,0.9,0.8,1c0.4,0.1,1.2,0,1.4-0.2c0.2-0.5,0.2-1.2,0.3-1.7
			c0-0.2,0-0.3,0-0.4c0-0.5,0-0.8,0-1.2c0-0.6,0-1.1-0.2-1.4c-0.2-0.4-0.5-0.7-0.9-1.1C365.1,322.2,365,322.2,365,322.1z
			 M318.8,329.3C318.7,329.3,318.7,329.3,318.8,329.3c-0.9,0-2.2-1.1-2.3-2c-0.1-1.3,0-2.8,0.4-4.4c0.2-0.6,0.7-1.1,1.1-1.5
			c0.2-0.2,0.3-0.3,0.5-0.5c0.1-0.1,0.3-0.2,0.4-0.2c0.1,0,0.3,0.1,0.4,0.2c0.2,0.2,0.3,0.3,0.5,0.5c0.4,0.4,0.9,0.8,1.1,1.4
			c0.2,0.6,0.2,1.3,0.2,1.9c0,0.3,0,0.6,0,0.9v0c0,0.1,0,0.3,0,0.4c0.1,0.5,0.1,1.1-0.2,1.5C320.8,327.9,319.8,329.3,318.8,329.3z
			 M318.8,322.1c0,0-0.1,0.1-0.1,0.1c-0.3,0.3-0.7,0.6-0.8,0.9c-0.4,1.5-0.5,2.9-0.3,4c0,0.3,0.8,0.9,1.2,1h0c0.2,0,0.8-0.4,1.3-1.2
			c0.1-0.1,0-0.5,0-0.8c0-0.2,0-0.4,0-0.5c0-0.3,0-0.6,0-0.9c0-0.6,0-1.1-0.2-1.5c-0.1-0.3-0.5-0.7-0.9-1
			C318.9,322.2,318.9,322.2,318.8,322.1z M325.2,329.3c-0.9,0-1.8-1-2.2-1.7c-0.3-0.5-0.2-1.1-0.2-1.7c0-0.1,0-0.2,0-0.3l-0.2-0.2
			c-0.3-0.2-0.3-0.5-0.2-0.8c0.2-0.4,0.5-0.8,0.7-1.3c0.6-1.3,1.2-2.4,2.1-2.4c2.2,0,2.2,1.8,2.3,2.9c0,0.5,0,0.9,0.1,1.2
			c0.1,0.5,0.4,1.6,0,2.4C327.1,328.2,326.2,329.3,325.2,329.3C325.2,329.3,325.2,329.3,325.2,329.3z M323.6,324.8L323.6,324.8
			c0.2,0.2,0.3,0.3,0.3,0.5c0,0.2,0,0.5,0,0.7c0,0.4-0.1,0.8,0,1c0.4,0.6,1,1.2,1.2,1.2h0c0.3,0,0.9-0.5,1.3-1.2
			c0.2-0.3,0.1-0.9-0.1-1.5c-0.1-0.5-0.2-1-0.2-1.5c0-1.5-0.2-1.8-1.1-1.8c-0.2,0.1-0.7,1.1-1,1.8
			C324,324.2,323.8,324.5,323.6,324.8z M348.2,329.3L348.2,329.3c-0.9,0-2.3-1-2.4-1.9c-0.1-1.3,0-2.8,0.4-4.4
			c0.1-0.6,0.7-1.1,1.1-1.5c0.2-0.2,0.3-0.3,0.5-0.5c0.1-0.1,0.2-0.2,0.4-0.2c0.2,0,0.3,0.1,0.4,0.2c0.2,0.2,0.3,0.3,0.5,0.5
			c0.5,0.4,0.9,0.8,1.2,1.4c0.2,0.6,0.2,1.2,0.3,2c0,0.3,0,0.7,0,1.1v0c0.1,0.5,0.2,1.1-0.1,1.6
			C350.3,327.8,349.3,329.3,348.2,329.3z M348.2,322.1c0,0-0.1,0.1-0.1,0.1c-0.3,0.3-0.7,0.6-0.8,0.9c-0.4,1.5-0.5,2.9-0.3,4
			c0.1,0.3,0.8,0.9,1.2,0.9l0,0c0.2,0,0.8-0.5,1.3-1.2c0.1-0.1,0.1-0.3,0-0.7c0-0.1,0-0.2,0-0.2l0,0c0-0.4,0-0.8,0-1.2
			c0-0.7,0-1.2-0.2-1.6c-0.1-0.3-0.5-0.6-0.9-1C348.3,322.2,348.3,322.2,348.2,322.1z"/>
	</g>
	<g>
		<path class="st2" d="M138.8,328.7c3.1,0,6,0,9.4,0c0-1.9-0.1-3.7,0-5.5c0.4-3.7,2.4-4.8,5.8-3.4c0.5,0.2,1.4,0.2,1.9,0
			c3-1.4,5.2-0.3,5.6,2.9c0.2,1.9,0,3.8,0,5.9c3.3,0,6.3,0,9.4,0c0.1-1.9,0.2-3.8,0.4-5.6c0.4-3.6,2.5-4.7,5.8-3.1
			c0.3,0.2,0.6,0.3,0.9,0.4c4.2-2.4,6.3-1.3,6.7,3.5c0.1,1.5,0,3,0,4.7c3.3,0,6.3,0,9.6,0c0-1.8-0.2-3.7,0-5.5
			c0.4-3.7,2.4-4.7,5.8-3.3c0.5,0.2,1.4,0.2,1.9-0.1c2.9-1.3,5-0.3,5.6,2.8c0.2,1,0.2,2,0.2,3c0,1,0,2,0,3.2c1.9,0,3.6,0,5.4,0
			c0,3.5,0,6.8,0,10.5c-0.9,0-1.8,0-2.7,0c-37.3,0-74.6,0-112,0.1c-2.5,0-3.3-0.7-3-3.1c0.2-2.3,0-4.7,0-7.4c1.9,0,3.6,0,5.4,0
			c0.1-1.9,0.1-3.5,0.3-5.1c0.5-4.7,2.4-5.6,6.8-3.3c0.3-0.1,0.6-0.3,1-0.5c2.8-1.6,5.3-0.4,5.6,2.8c0.2,1.9,0.2,3.8,0.3,5.9
			c3.4,0,6.6,0,10,0c0.1-2,0.2-4,0.4-6c0.3-2.9,2.4-4.2,5-3c1.2,0.5,1.9,0.7,3.1,0c2.2-1.3,4.7,0.1,5,2.7
			C138.6,324.4,138.7,326.5,138.8,328.7z M210.9,331.5c-37.7,0-75.1,0-112.6,0c-0.8,5.3-0.8,5.3,4.2,5.3c35,0,70.1,0,105.1,0
			c1.1,0,2.1,0,3.3,0C210.9,334.8,210.9,333.2,210.9,331.5z M137,326.2c-0.2-1.1-0.2-2.2-0.5-3.2c-0.2-0.6-1-1.1-1.5-1.7
			c-0.5,0.6-1.3,1.1-1.5,1.7c-0.3,1-0.2,2.2-0.2,3.3c-0.1,1.3-0.1,2.6,1.8,2.5C137,328.8,137,327.6,137,326.2z M159.9,326.1
			c-0.1-1.4,0-2.3-0.2-3.1c-0.3-0.7-1-1.2-1.5-1.7c-0.5,0.5-1.3,1-1.5,1.6c-0.3,1.2-0.4,2.5-0.5,3.7c-0.1,1.3,0.3,2.1,1.8,2.1
			c1.5,0,2-0.7,1.9-2C159.9,326.4,159.9,326,159.9,326.1z M206.1,325.7c-0.1-1.1-0.1-2.2-0.4-3.2c-0.2-0.5-0.9-1-1.5-1.1
			c-0.4-0.1-1.2,0.5-1.3,0.9c-0.3,1.7-0.5,3.5-0.5,5.2c0,0.4,0.8,1.1,1.3,1.2C206.3,329.2,206.1,327.4,206.1,325.7z M196.2,324.8
			c0,1-0.1,1.2-0.1,1.5c-0.1,1.3-0.1,2.6,1.8,2.5c1.9,0,2-1.2,1.8-2.6c-0.1-1.2-0.1-2.4-0.5-3.5c-0.2-0.6-1-1.4-1.4-1.3
			c-0.5,0-1.3,0.8-1.5,1.4C196.1,323.6,196.2,324.6,196.2,324.8z M178.7,325.5c0.8,1.3,1.3,3,2.2,3.2c2.8,0.6,2.4-1.7,2.1-3.3
			c-0.2-1.5,0.6-3.9-1.9-3.9C180.3,321.5,179.6,323.8,178.7,325.5z M130.5,326.2c-0.1-1.4,0.1-2.3-0.2-2.9c-0.3-0.7-1.1-1.3-1.6-1.9
			c-0.5,0.6-1.3,1.1-1.4,1.7c-0.3,1.4-0.4,2.8-0.4,4.3c0,0.5,0.6,1.3,1.1,1.4c0.6,0.2,1.8,0.1,2.1-0.3
			C130.5,327.6,130.4,326.5,130.5,326.2z M109.4,325.6c0,0.3,0,0.5,0,0.8c-0.1,1.3-0.1,2.6,1.8,2.5c1.9,0,1.9-1.3,1.8-2.6
			c-0.1-1.1-0.1-2.2-0.4-3.2c-0.2-0.6-1-1.1-1.5-1.7c-0.5,0.6-1.3,1.1-1.5,1.7C109.3,323.8,109.5,324.7,109.4,325.6z M106.6,325.4
			c0-0.5,0.1-1.4-0.2-2.2c-0.3-0.7-1.1-1.2-1.7-1.9c-0.5,0.6-1.3,1.1-1.4,1.8c-0.3,1.4-0.5,2.9-0.3,4.2c0.1,0.6,1.2,1.3,1.8,1.3
			c0.5,0.1,1.3-0.7,1.6-1.3C106.8,327,106.6,326.3,106.6,325.4z M149.9,325.5L149.9,325.5c0,0.3,0,0.7,0,1c0,1.3,0,2.4,1.8,2.4
			c1.9,0,2.1-1.1,1.9-2.5c-0.1-1.3-0.2-2.5-0.5-3.7c-0.1-0.5-0.9-1.2-1.3-1.2c-0.5,0-1.3,0.6-1.5,1.1
			C150,323.4,150.1,324.5,149.9,325.5z M176.6,325.8c-0.1-1.1,0.1-2-0.2-2.7c-0.3-0.7-1-1.2-1.5-1.8c-0.5,0.5-1.3,1-1.5,1.6
			c-0.3,1.4-0.5,2.9-0.3,4.2c0.1,0.6,1.2,1.4,1.9,1.5c0.5,0.1,1.2-1,1.6-1.6C176.8,326.7,176.6,326.1,176.6,325.8z"/>
		<path class="st2" d="M98.5,339.9c-1.5,0-2.4-0.3-3-0.9c-0.6-0.6-0.7-1.5-0.6-2.9c0.1-1.6,0.1-3.2,0.1-4.9c0-0.8,0-1.6,0-2.4
			c0-0.3,0.3-0.6,0.6-0.6h4.9c0-0.4,0-0.8,0-1.2c0-1.2,0.1-2.3,0.2-3.4c0.3-2.6,1-4.1,2.2-4.7c1.2-0.6,2.8-0.4,5.1,0.8l0.7-0.4
			c1.6-0.9,3.1-1,4.3-0.4c1.2,0.6,1.9,1.9,2.1,3.6c0.1,1.3,0.2,2.7,0.2,4.1c0,0.4,0,0.9,0,1.3h8.9c0-0.4,0-0.9,0.1-1.3
			c0.1-1.4,0.2-2.8,0.3-4.2c0.2-1.6,0.9-2.9,2-3.5c1.1-0.6,2.4-0.6,3.8,0.1c1.1,0.5,1.6,0.6,2.6,0c1.2-0.7,2.5-0.7,3.6-0.2
			c1.2,0.6,2,1.8,2.2,3.3c0.2,1.5,0.2,2.9,0.3,4.4c0,0.5,0,0.9,0.1,1.4h8.2c0-0.4,0-0.8,0-1.1c0-1.3-0.1-2.6,0.1-3.8
			c0.2-2,0.9-3.3,2-4c1.2-0.7,2.7-0.6,4.6,0.2c0.4,0.2,1.1,0.2,1.4,0c1.7-0.8,3.3-0.9,4.4-0.2c1.1,0.6,1.8,1.9,2,3.6
			c0.2,1.3,0.1,2.7,0.1,4.1c0,0.4,0,0.9,0,1.3h8.3c0-0.4,0-0.8,0.1-1.3c0.1-1.3,0.1-2.6,0.3-3.8c0.2-2,0.9-3.3,2-4
			c1.2-0.7,2.7-0.5,4.6,0.4l0.6,0.3c2.2-1.2,3.8-1.4,5-0.8c1.3,0.7,2,2.3,2.2,4.9c0.1,1,0.1,2.1,0,3.2c0,0.3,0,0.7,0,1h8.5
			c0-0.4,0-0.7,0-1.1c0-1.3-0.1-2.6,0.1-3.8c0.2-2,0.9-3.3,2-4c1.1-0.7,2.7-0.6,4.6,0.2c0.4,0.2,1,0.1,1.5-0.1
			c1.6-0.7,3.1-0.8,4.2-0.2c1.1,0.6,1.9,1.8,2.2,3.4c0.2,0.9,0.2,1.7,0.2,2.6l0,0.5c0,0.7,0,1.4,0,2.1v0.5h4.8
			c0.3,0,0.6,0.3,0.6,0.6v10.5c0,0.3-0.3,0.6-0.6,0.6h-23.5C159.9,339.8,129,339.8,98.5,339.9C98.6,339.9,98.5,339.9,98.5,339.9z
			 M96.2,329.4c0,0.6,0,1.2,0,1.8c0,1.7,0.1,3.4-0.1,5c-0.1,1,0,1.7,0.3,2c0.3,0.4,1,0.5,2.1,0.5c0,0,0,0,0,0
			c30.4-0.1,61.3-0.1,91.2-0.1h22.9v-9.4h-4.8c-0.3,0-0.6-0.3-0.6-0.6l0-1.1c0-0.7,0-1.4,0-2l0-0.5c0-0.8,0-1.6-0.2-2.4
			c-0.2-1.3-0.8-2.2-1.6-2.6c-0.8-0.4-1.9-0.3-3.2,0.2c-0.7,0.3-1.7,0.4-2.4,0.1c-1.6-0.7-2.8-0.8-3.6-0.3c-0.8,0.5-1.3,1.5-1.4,3.1
			c-0.1,1.2-0.1,2.5-0.1,3.7c0,0.6,0,1.2,0,1.7c0,0.3-0.3,0.6-0.6,0.6h-9.6c-0.3,0-0.6-0.3-0.6-0.6c0-0.5,0-1.1,0-1.6
			c0-1.1,0-2.1,0-3.1c-0.2-2.2-0.7-3.5-1.6-4c-0.9-0.5-2.3-0.2-4.2,0.9c-0.2,0.1-0.4,0.1-0.5,0l-0.9-0.4c-1.5-0.7-2.7-0.9-3.5-0.4
			c-1,0.6-1.3,2-1.5,3.1c-0.1,1.2-0.2,2.5-0.2,3.8c0,0.6-0.1,1.2-0.1,1.8c0,0.3-0.3,0.5-0.6,0.5h-9.4c-0.3,0-0.6-0.3-0.6-0.6
			c0-0.7,0-1.3,0-1.9c0-1.4,0.1-2.6-0.1-3.9c-0.2-1.4-0.7-2.3-1.5-2.7c-0.8-0.5-2-0.4-3.4,0.3c-0.7,0.3-1.7,0.3-2.4,0
			c-1.5-0.6-2.7-0.7-3.5-0.2c-0.8,0.5-1.3,1.5-1.5,3.1c-0.1,1.2-0.1,2.4-0.1,3.7c0,0.6,0,1.2,0,1.7c0,0.3-0.3,0.6-0.6,0.6h-9.4
			c-0.3,0-0.6-0.2-0.6-0.5c0-0.7-0.1-1.3-0.1-2c-0.1-1.5-0.1-2.9-0.3-4.3c-0.1-1.1-0.7-2-1.6-2.4c-0.8-0.4-1.7-0.4-2.5,0.1
			c-1.4,0.8-2.4,0.6-3.7,0c-1-0.5-2-0.5-2.7-0.1c-0.8,0.4-1.3,1.4-1.4,2.6c-0.1,1.4-0.2,2.8-0.3,4.1c0,0.6-0.1,1.3-0.1,1.9
			c0,0.3-0.3,0.5-0.6,0.5h-10c-0.3,0-0.6-0.2-0.6-0.5c0-0.6,0-1.3-0.1-1.9c0-1.4-0.1-2.7-0.2-4c-0.1-1.3-0.7-2.3-1.5-2.7
			c-0.9-0.5-2-0.3-3.3,0.3l-1,0.5c-0.2,0.1-0.4,0.1-0.6,0c-2-1.1-3.4-1.4-4.3-0.9c-0.8,0.4-1.4,1.7-1.6,3.8
			c-0.1,1.1-0.2,2.1-0.2,3.3c0,0.6,0,1.2-0.1,1.8c0,0.3-0.3,0.5-0.6,0.5H96.2z M210.9,337.3H102.5c-2.6,0-3.9,0-4.6-0.8
			c-0.7-0.8-0.5-2.2-0.1-5.1c0-0.3,0.3-0.5,0.6-0.5h112.6c0.3,0,0.6,0.3,0.6,0.6v5.3C211.5,337.1,211.2,337.3,210.9,337.3z
			 M98.8,332c-0.3,2.1-0.4,3.3-0.1,3.7c0.4,0.4,1.6,0.4,3.7,0.4h107.8V332H98.8z M158.1,329.4c0,0-0.1,0-0.1,0
			c-0.8,0-1.4-0.3-1.8-0.7c-0.4-0.5-0.6-1.1-0.5-2c0-0.3,0-0.6,0.1-0.9c0.1-1,0.1-2,0.4-3c0.2-0.6,0.7-1,1.1-1.4
			c0.2-0.1,0.3-0.3,0.5-0.4c0.1-0.1,0.3-0.2,0.4-0.2h0c0.2,0,0.3,0.1,0.4,0.2c0.1,0.2,0.3,0.3,0.5,0.5c0.4,0.4,0.9,0.9,1.1,1.4
			c0.2,0.6,0.2,1.2,0.2,2c0,0.4,0,0.8,0,1.2v0c0,0,0,0.1,0,0.1c0,0.1,0,0.4,0,0.6c0,0.9-0.1,1.5-0.6,2
			C159.5,329.2,158.9,329.4,158.1,329.4z M158.1,322.1c0,0-0.1,0.1-0.1,0.1c-0.3,0.3-0.7,0.6-0.8,0.9c-0.2,0.9-0.3,1.8-0.4,2.7
			c0,0.3,0,0.6-0.1,0.9c0,0.6,0,1,0.2,1.2c0.2,0.2,0.5,0.3,1,0.3c0.6,0,0.9-0.1,1.1-0.3c0.2-0.2,0.3-0.6,0.3-1.1c0-0.3,0-0.6,0-0.8
			c0-0.5,0-0.9,0-1.2c0-0.7,0-1.2-0.2-1.6c-0.1-0.3-0.5-0.7-0.8-1C158.2,322.2,158.2,322.2,158.1,322.1z M135,329.4
			c-0.8,0-1.4-0.2-1.8-0.6c-0.6-0.6-0.6-1.6-0.5-2.5c0-0.3,0-0.6,0-0.9c0-0.8,0-1.7,0.2-2.5c0.2-0.6,0.7-1.1,1.1-1.5
			c0.2-0.2,0.4-0.3,0.5-0.5c0.1-0.1,0.3-0.2,0.4-0.2l0,0c0.2,0,0.3,0.1,0.4,0.2c0.1,0.2,0.3,0.3,0.5,0.5c0.5,0.4,0.9,0.8,1.1,1.4
			c0.3,0.8,0.4,1.6,0.4,2.4c0,0.3,0.1,0.6,0.1,0.9c0,0,0,0.1,0,0.1l-0.6,0l0.6,0.1c0,1.3,0,3.1-2.5,3.1
			C135.1,329.4,135,329.4,135,329.4z M135,322.1c-0.1,0-0.1,0.1-0.2,0.1c-0.3,0.3-0.7,0.6-0.8,0.9c-0.2,0.7-0.2,1.4-0.2,2.2
			c0,0.3,0,0.7,0,1c0,0.7-0.1,1.4,0.2,1.7c0.2,0.2,0.5,0.3,1,0.3c1.3,0,1.3-0.5,1.3-2l0,0c0-0.3-0.1-0.6-0.1-1
			c-0.1-0.8-0.1-1.5-0.4-2.1c-0.1-0.3-0.4-0.6-0.8-0.9C135.1,322.2,135.1,322.2,135,322.1z M111.1,329.4c-0.8,0-1.4-0.2-1.8-0.6
			c-0.6-0.6-0.6-1.6-0.6-2.5l0-0.8c0-0.2,0-0.5,0-0.7c0-0.6,0-1.3,0.2-2c0.2-0.6,0.7-1,1.1-1.4c0.2-0.2,0.3-0.3,0.5-0.5
			c0.1-0.1,0.3-0.2,0.4-0.2l0,0c0.2,0,0.3,0.1,0.4,0.2c0.1,0.2,0.3,0.3,0.5,0.5c0.5,0.4,0.9,0.8,1.1,1.4c0.3,0.9,0.4,1.9,0.4,2.8
			l0,0.6c0.1,0.9,0.1,1.8-0.5,2.5c-0.4,0.5-1,0.7-1.9,0.7C111.2,329.4,111.2,329.4,111.1,329.4z M111.2,322.1c0,0-0.1,0.1-0.1,0.1
			c-0.4,0.3-0.7,0.7-0.8,1c-0.2,0.4-0.2,1-0.2,1.5c0,0.3,0,0.5,0,0.8l0,0l0,0.8c0,0.7-0.1,1.4,0.2,1.7c0.2,0.2,0.6,0.3,1,0.3
			c0.5,0,0.9-0.1,1-0.3c0.3-0.3,0.3-1,0.2-1.7l0-0.6c-0.1-0.9-0.1-1.8-0.4-2.5c-0.1-0.3-0.4-0.6-0.8-0.9
			C111.2,322.2,111.2,322.2,111.2,322.1z M197.8,329.4c-0.8,0-1.4-0.2-1.8-0.6c-0.6-0.6-0.6-1.6-0.6-2.5l0.1-1.5v0v-0.2
			c0-0.4,0-1.3,0.2-2c0.3-0.8,1.2-1.7,2-1.7c0,0,0,0,0.1,0c0.8,0,1.7,1,1.9,1.7c0.3,1,0.4,2,0.5,3l0,0.6c0.1,0.9,0.1,1.8-0.5,2.5
			c-0.4,0.5-1,0.7-1.9,0.7C197.9,329.4,197.9,329.4,197.8,329.4z M196.7,324.8l-0.1,1.5c0,0.8-0.1,1.4,0.2,1.7
			c0.2,0.2,0.6,0.2,1,0.3c0.5,0,0.9-0.1,1.1-0.3c0.3-0.3,0.3-0.9,0.2-1.6l0-0.6c-0.1-1-0.1-1.9-0.4-2.8c-0.1-0.4-0.7-0.9-0.9-0.9
			c-0.2,0-0.8,0.6-1,1c-0.2,0.6-0.2,1.3-0.2,1.6C196.7,324.7,196.7,324.8,196.7,324.8L196.7,324.8z M151.7,329.4
			c-0.8,0-1.4-0.2-1.8-0.6c-0.6-0.6-0.6-1.6-0.6-2.4l0-0.3c0-0.2,0-0.3,0-0.5c0-0.1,0-0.2,0-0.2c0-0.3,0.1-0.6,0.1-0.9
			c0.1-0.7,0.1-1.5,0.4-2.2c0.3-0.7,1.3-1.4,2-1.4h0c0.8,0,1.7,0.9,1.9,1.6c0.3,1.1,0.4,2.2,0.5,3.2l0.1,0.6
			c0.1,0.8,0.1,1.8-0.5,2.4C153.3,329.2,152.6,329.4,151.7,329.4L151.7,329.4z M150.5,325.3c0,0,0,0.1,0,0.1c0,0.2,0,0.5,0,0.7
			l0,0.3c0,0.7,0,1.3,0.2,1.5c0.2,0.2,0.5,0.3,0.9,0.3h0c0.5,0,0.9-0.1,1.1-0.3c0.2-0.3,0.3-0.7,0.2-1.5l-0.1-0.6
			c-0.1-1.1-0.2-2.1-0.4-3c-0.1-0.3-0.6-0.7-0.8-0.7h0c-0.2,0-0.8,0.4-0.9,0.7c-0.2,0.6-0.2,1.2-0.3,1.9
			C150.6,324.8,150.6,325.1,150.5,325.3z M204.5,329.4c-0.3,0-0.5,0-0.8-0.1c-0.7-0.1-1.8-1-1.8-1.8c0-1.7,0.2-3.4,0.5-5.3
			c0.1-0.5,0.5-0.8,0.8-1c0.2-0.2,0.7-0.4,1.2-0.4c0.7,0.1,1.7,0.8,1.9,1.5c0.2,0.8,0.3,1.6,0.4,2.4c0,0.3,0,0.6,0.1,0.9
			c0,0,0,0,0,0l0,0.3c0,1.1,0.1,2.2-0.7,2.9C205.6,329.2,205.1,329.4,204.5,329.4z M204.1,322c-0.1,0-0.5,0.3-0.6,0.5
			c-0.3,1.8-0.5,3.5-0.5,5.1c0.1,0.1,0.6,0.6,0.8,0.6c0.5,0.1,1.1,0.1,1.3-0.1c0.4-0.3,0.3-1.2,0.3-2l0-0.3c0-0.3-0.1-0.6-0.1-1
			c-0.1-0.8-0.1-1.5-0.3-2.1C205,322.4,204.5,322,204.1,322z M128.7,329.3c-0.4,0-0.7,0-0.9-0.1c-0.7-0.2-1.5-1.2-1.5-1.9
			c0-1.6,0.1-3.1,0.4-4.4c0.1-0.6,0.6-1.1,1.1-1.5c0.2-0.2,0.3-0.3,0.5-0.5c0.1-0.1,0.3-0.2,0.4-0.2h0c0.2,0,0.3,0.1,0.4,0.2
			c0.2,0.2,0.3,0.4,0.5,0.5c0.5,0.5,0.9,0.9,1.2,1.5c0.2,0.5,0.2,1.1,0.2,1.9c0,0.4,0,0.8,0,1.3c0,0,0,0.1,0,0.1c0,0.1,0,0.2,0,0.3
			c0,0.5-0.1,1.4-0.5,2.1C130.2,329.2,129.4,329.3,128.7,329.3z M128.6,322.2c0,0-0.1,0.1-0.1,0.1c-0.3,0.3-0.7,0.6-0.7,0.9
			c-0.3,1.2-0.4,2.6-0.3,4.1c0,0.3,0.5,0.8,0.7,0.8c0.5,0.1,1.3,0,1.5-0.1c0.2-0.5,0.3-1.2,0.3-1.6c0-0.1,0-0.2,0-0.3
			c0-0.5,0-0.9,0-1.3c0-0.6,0-1.1-0.1-1.4c-0.2-0.4-0.6-0.8-1-1.2C128.7,322.2,128.7,322.2,128.6,322.2z M181.6,329.3
			c-0.3,0-0.6,0-0.9-0.1c-0.8-0.2-1.3-1.1-1.8-2.1c-0.2-0.4-0.4-0.9-0.7-1.3c-0.1-0.2-0.1-0.4,0-0.6c0.3-0.5,0.6-1.2,0.9-1.7
			c0.7-1.5,1.2-2.5,2-2.5c0.7,0,1.4,0.2,1.8,0.6c0.7,0.7,0.7,1.7,0.7,2.7c0,0.4,0,0.8,0,1.1c0.2,1.2,0.4,2.7-0.4,3.5
			C182.8,329.2,182.3,329.3,181.6,329.3z M179.3,325.5c0.2,0.4,0.4,0.7,0.6,1.1c0.3,0.6,0.7,1.5,1,1.5c0.5,0.1,1.1,0.1,1.3-0.1
			c0.4-0.4,0.2-1.6,0.1-2.4c-0.1-0.5-0.1-0.9-0.1-1.4c0-0.7,0-1.5-0.3-1.9c-0.2-0.2-0.4-0.3-0.9-0.3c-0.2,0.1-0.7,1.2-1,1.9
			C179.8,324.5,179.6,325,179.3,325.5z M104.9,329.3c0,0-0.1,0-0.1,0c-0.8-0.1-2.2-0.9-2.4-1.8c-0.2-1.3-0.1-2.8,0.3-4.4
			c0.1-0.6,0.6-1.1,1-1.5c0.2-0.2,0.3-0.3,0.5-0.5c0.1-0.1,0.3-0.2,0.4-0.2c0.2,0,0.3,0.1,0.4,0.2c0.2,0.2,0.4,0.3,0.5,0.5
			c0.5,0.4,1,0.9,1.2,1.5c0.3,0.6,0.3,1.4,0.2,1.9c0,0.2,0,0.3,0,0.4v0c0,0.3,0,0.6,0,0.8c0,0.6,0.1,1.1-0.2,1.6
			C106.7,328.3,105.8,329.3,104.9,329.3z M104.7,322.2c0,0-0.1,0.1-0.1,0.1c-0.3,0.3-0.7,0.7-0.7,1c-0.3,1.5-0.4,2.9-0.3,4.1
			c0.1,0.2,0.8,0.8,1.3,0.9c0.2,0,0.8-0.5,1.1-1c0.1-0.1,0-0.5,0-0.9c0-0.3,0-0.6,0-0.9c0-0.1,0-0.3,0-0.5c0-0.5,0-1-0.2-1.4
			c-0.2-0.4-0.6-0.7-1-1.1C104.8,322.2,104.8,322.2,104.7,322.2z M175,329.3c0,0-0.1,0-0.1,0c-0.9-0.1-2.3-1-2.4-2
			c-0.2-1.3-0.1-2.7,0.4-4.4c0.1-0.6,0.7-1.1,1.2-1.5c0.2-0.1,0.3-0.3,0.5-0.4c0.1-0.1,0.3-0.2,0.4-0.2h0c0.2,0,0.3,0.1,0.4,0.2
			c0.1,0.2,0.3,0.3,0.5,0.5c0.4,0.4,0.9,0.9,1.1,1.4c0.2,0.6,0.2,1.3,0.2,2c0,0.3,0,0.6,0,0.9v0c0,0.1,0,0.1,0,0.2
			c0,0.4,0.1,0.9-0.1,1.4C176.1,329,175.4,329.3,175,329.3z M174.9,322.1c0,0-0.1,0.1-0.1,0.1c-0.3,0.3-0.7,0.6-0.8,0.8
			c-0.4,1.6-0.5,2.9-0.3,4c0,0.3,0.9,0.9,1.4,1c0,0,0.4-0.3,1-1.3c0.1-0.1,0-0.4,0-0.6c0-0.1,0-0.3,0-0.3c0-0.3,0-0.7,0-1
			c0-0.6,0-1.2-0.2-1.6c-0.1-0.3-0.5-0.7-0.8-1C174.9,322.2,174.9,322.2,174.9,322.1z"/>
	</g>
	<g>
		<path class="st2" d="M443.6,328.7c-6.7,0-12.9,0-19.4,0c0.3-2.4-1-5,1.8-6.9c0.5-0.3,0.4-1.6,0.5-2.4c0.2-2.9,0.1-5.9,0.5-8.8
			c0.4-3.1,2.5-4.2,5.2-2.7c1.2,0.6,2,0.7,3.2,0c2.9-1.5,4.9-0.4,5.3,2.9c0.3,2.2,0.1,4.6,0.5,6.8c0.3,1.7,1.1,3.3,1.5,5.1
			C443,324.6,443.2,326.6,443.6,328.7z M433.9,324.2c-2.1,0-4.2-0.1-6.3,0.1c-0.6,0-1.1,0.9-1.7,1.4c0.5,0.4,1.1,1.2,1.6,1.2
			c4.2,0.1,8.4,0.1,12.6,0c0.5,0,1-0.8,1.6-1.2c-0.6-0.5-1.1-1.3-1.7-1.4C437.9,324.1,435.9,324.2,433.9,324.2z M439.4,322.2
			c-0.2-3.9-0.4-7.5-0.7-11.1c-0.1-0.6-0.9-1.1-1.4-1.7c-0.4,0.5-1.2,1-1.3,1.5c-0.3,3.7-0.5,7.5-0.7,11.3
			C436.8,322.2,437.9,322.2,439.4,322.2z M432.2,322.3c-0.2-3.9-0.4-7.5-0.7-11c-0.1-0.6-0.9-1.2-1.3-1.7c-0.5,0.6-1.3,1.1-1.4,1.7
			c-0.3,3.6-0.4,7.3-0.6,11.1C429.6,322.3,430.7,322.3,432.2,322.3z"/>
		<path class="st2" d="M443.6,329.3h-19.4c-0.2,0-0.3-0.1-0.4-0.2c-0.1-0.1-0.2-0.3-0.1-0.4c0.1-0.6,0-1.3,0-1.9
			c-0.1-1.8-0.2-3.8,2-5.3c0.2-0.2,0.2-1.1,0.2-1.5l0-0.4c0.1-1.1,0.1-2.2,0.1-3.3c0.1-1.8,0.1-3.7,0.3-5.6c0.3-2.1,1.2-3.1,2-3.5
			c1.1-0.6,2.5-0.5,4,0.3c1.1,0.6,1.6,0.6,2.7,0c2-1,3.3-0.8,4.1-0.4c0.8,0.4,1.8,1.4,2.1,3.7c0.1,1.1,0.2,2.1,0.2,3.2
			c0,1.2,0.1,2.4,0.3,3.6c0.1,0.9,0.5,1.8,0.8,2.7c0.3,0.8,0.6,1.5,0.7,2.3c0.3,1.3,0.5,2.7,0.7,4.1c0.1,0.6,0.2,1.3,0.3,2
			c0,0.2,0,0.3-0.1,0.5C443.9,329.2,443.7,329.3,443.6,329.3z M424.8,328.1h18.1c-0.1-0.4-0.1-0.9-0.2-1.3c-0.2-1.4-0.4-2.7-0.7-4
			c-0.2-0.7-0.4-1.4-0.7-2.2c-0.3-0.9-0.7-1.9-0.8-2.9c-0.2-1.2-0.2-2.5-0.3-3.7c0-1-0.1-2.1-0.2-3.1c-0.2-1.5-0.7-2.4-1.5-2.8
			c-0.7-0.4-1.8-0.3-3,0.4c-1.3,0.7-2.3,0.7-3.7,0c-1.2-0.6-2.2-0.7-3-0.3c-0.8,0.4-1.2,1.3-1.4,2.6c-0.2,1.8-0.3,3.7-0.3,5.5
			c0,1.1-0.1,2.2-0.1,3.3l0,0.4c0,0.9-0.1,2-0.7,2.4c-1.7,1.2-1.6,2.6-1.5,4.3C424.8,327.1,424.8,327.6,424.8,328.1z M433.6,327.6
			c-2,0-4,0-6.1-0.1c-0.6,0-1.1-0.5-1.5-0.9c-0.1-0.1-0.3-0.3-0.4-0.4c-0.1-0.1-0.2-0.3-0.2-0.4c0-0.2,0.1-0.3,0.2-0.4
			c0.2-0.1,0.3-0.3,0.5-0.5c0.4-0.5,0.9-1,1.5-1.1c1.5-0.1,3.1-0.1,4.6-0.1c1.1,0,2.3,0,3.4,0c1.4,0,2.9,0,4.4,0.1
			c0.6,0.1,1.1,0.6,1.6,1c0.2,0.2,0.3,0.3,0.5,0.5c0.1,0.1,0.2,0.3,0.2,0.4c0,0.2-0.1,0.3-0.2,0.4c-0.1,0.1-0.3,0.3-0.4,0.4
			c-0.4,0.4-0.9,0.9-1.5,0.9C437.9,327.5,435.8,327.6,433.6,327.6z M426.7,325.7L426.7,325.7c0.3,0.3,0.6,0.6,0.8,0.6
			c4.3,0.1,8.5,0.1,12.5,0c0.1,0,0.5-0.4,0.7-0.6c0,0,0.1-0.1,0.1-0.1c0,0-0.1-0.1-0.1-0.1c-0.3-0.3-0.6-0.7-0.8-0.7
			c-1.4-0.1-2.9-0.1-4.3-0.1c-1.1,0-2.3,0-3.4,0c-1.5,0-3,0-4.5,0.1c-0.2,0-0.5,0.4-0.8,0.7C426.8,325.6,426.8,325.7,426.7,325.7z
			 M432.2,322.8h-4c-0.2,0-0.3-0.1-0.4-0.2c-0.1-0.1-0.2-0.3-0.2-0.4l0.1-2.8c0.1-2.9,0.2-5.5,0.5-8.3c0.1-0.6,0.6-1.1,1-1.5
			c0.2-0.2,0.3-0.3,0.5-0.5c0.1-0.1,0.3-0.2,0.4-0.2h0c0.2,0,0.3,0.1,0.4,0.2c0.1,0.2,0.3,0.3,0.5,0.5c0.4,0.4,0.9,0.9,1,1.5
			c0.2,2.7,0.4,5.3,0.5,8.1l0.2,3c0,0.2,0,0.3-0.2,0.4C432.5,322.8,432.4,322.8,432.2,322.8z M428.8,321.7h2.8l-0.1-2.4
			c-0.1-2.8-0.3-5.4-0.5-8c0-0.2-0.4-0.6-0.7-0.8c0,0-0.1-0.1-0.1-0.1c0,0-0.1,0.1-0.1,0.1c-0.3,0.2-0.7,0.6-0.7,0.8
			c-0.2,2.7-0.3,5.4-0.5,8.2L428.8,321.7z M439.4,322.8h-4c-0.2,0-0.3-0.1-0.4-0.2c-0.1-0.1-0.2-0.3-0.2-0.4l0.2-3
			c0.1-2.7,0.3-5.5,0.5-8.3c0.1-0.6,0.6-1,1-1.4c0.2-0.1,0.3-0.3,0.4-0.4c0.1-0.1,0.3-0.2,0.4-0.2h0c0.2,0,0.3,0.1,0.4,0.2
			c0.1,0.2,0.3,0.3,0.5,0.5c0.5,0.4,1,0.9,1,1.5c0.2,2.7,0.4,5.3,0.5,8.2l0.2,3c0,0.2,0,0.3-0.2,0.4
			C439.7,322.8,439.5,322.8,439.4,322.8z M435.9,321.7h2.8l-0.1-2.4c-0.1-2.8-0.3-5.5-0.5-8.1c0-0.2-0.4-0.5-0.7-0.8
			c-0.1,0-0.1-0.1-0.2-0.1c0,0-0.1,0.1-0.1,0.1c-0.2,0.2-0.6,0.5-0.6,0.7c-0.2,2.7-0.4,5.5-0.5,8.2L435.9,321.7z"/>
	</g>
</g>
</svg>
