<?xml version="1.0" encoding="utf-8"?>
<!-- Generator: Adobe Illustrator 19.1.0, SVG Export Plug-In . SVG Version: 6.00 Build 0)  -->
<svg version="1.1" id="Layer_1" xmlns="http://www.w3.org/2000/svg" xmlns:xlink="http://www.w3.org/1999/xlink" x="0px" y="0px"
	 viewBox="0 0 500 500" style="enable-background:new 0 0 500 500;" xml:space="preserve">
<style type="text/css">
	.st0{fill:#F8B017;}
	.st1{fill:none;}
	.st2{fill:#F5AF19;}
	.st3{fill:#E5D7C8;}
	.st4{fill:#F4AE19;}
	.st5{fill:#F7AF17;}
	.st6{fill:#0FA2D4;}
</style>
<g>
	<g>
		<g>
			<g>
				<path class="st0" d="M255.3,406.1h-23.2c-0.2,0-0.4-0.2-0.4-0.4v-27.6c0-0.1,0-0.1,0-0.2l11.6-30.8c0.1-0.2,0.2-0.3,0.4-0.3h0
					c0.2,0,0.4,0.1,0.4,0.3l11.6,30.6c0,0.1,0,0.1,0,0.2v27.8C255.8,405.9,255.6,406.1,255.3,406.1z M232.5,405.2h22.3v-27.3
					l-11.2-29.4l-11.2,29.6V405.2z"/>
				<path class="st0" d="M255.3,406.5h-23.2c-0.5,0-0.8-0.4-0.8-0.8v-27.6c0-0.1,0-0.2,0.1-0.3l11.6-30.8c0.1-0.3,0.4-0.5,0.8-0.5
					c0.3,0,0.7,0.2,0.8,0.5l11.6,30.6c0,0.1,0.1,0.2,0.1,0.3v27.8C256.2,406.1,255.8,406.5,255.3,406.5z M243.8,347.2L232,378.1
					l0,27.6l23.3,0.1c0,0,0.1,0,0.1-0.1v-27.8L243.8,347.2z M255.3,405.6h-23.1l0-27.6l11.5-30.6l11.6,30.5V405.6z M232.9,404.8
					h21.5V378l-10.8-28.4l-10.8,28.6V404.8z"/>
			</g>
		</g>
		<g>
			<g>
				<rect x="242.8" y="381.4" class="st0" width="0.9" height="24.4"/>
				<path class="st0" d="M244.1,406.3h-1.7V381h1.7V406.3z M243.2,405.5h0.1v-23.6h-0.1V405.5z"/>
			</g>
		</g>
		<g>
			<g>
				<path class="st0" d="M255,382.3l-11.3-11.8l-11.3,11.8l-0.6-0.6l11.6-12.1c0.2-0.2,0.5-0.2,0.6,0l11.6,12.1L255,382.3z"/>
				<path class="st0" d="M232.4,382.9l-1.2-1.2l11.9-12.4c0.2-0.2,0.4-0.3,0.6-0.3h0c0.2,0,0.5,0.1,0.6,0.3l11.9,12.4l-1.2,1.2
					l-11.3-11.8L232.4,382.9z M243.7,370l11.3,11.8l0.1-0.1l-11.3-11.8l-11.4,11.8l0.1,0.1L243.7,370z"/>
			</g>
		</g>
		<g>
			<g>
				<path class="st0" d="M234.7,372.3l-0.7-0.6l9.4-10.6c0.2-0.2,0.5-0.2,0.7,0l9.4,10.6l-0.7,0.6l-9-10.2L234.7,372.3z"/>
				<path class="st0" d="M252.7,372.9l-9-10.1l-9,10.1l-1.3-1.1l9.6-10.8c0.2-0.2,0.4-0.3,0.6-0.3l0,0c0.2,0,0.5,0.1,0.6,0.3
					l9.6,10.8L252.7,372.9z M234.6,371.7L234.6,371.7l9.1-10.1l9.1,10.2l0.1-0.1l-9.1-10.3L234.6,371.7z"/>
			</g>
		</g>
		<g>
			<g>
				<path class="st0" d="M251.1,405.9h-0.9v-24h-13.9v24h-0.9v-24.4c0-0.2,0.2-0.4,0.4-0.4h14.7c0.2,0,0.4,0.2,0.4,0.4V405.9z"/>
				<path class="st0" d="M251.5,406.3h-1.7v-24h-13.1v24H235v-24.8c0-0.5,0.4-0.8,0.8-0.8h14.7c0.5,0,0.8,0.4,0.8,0.8V406.3z
					 M250.6,405.5h0.1v-24l-14.8,0l0,24.1h0.1v-24h14.6V405.5z"/>
			</g>
		</g>
	</g>
	<g>
		<g>
			<g>
				<path class="st0" d="M225.5,406.1h-23.2c-0.2,0-0.4-0.2-0.4-0.4v-27.6c0-0.1,0-0.1,0-0.2l11.6-30.8c0.1-0.2,0.2-0.3,0.4-0.3h0
					c0.2,0,0.4,0.1,0.4,0.3l11.6,30.6c0,0.1,0,0.1,0,0.2v27.8C225.9,405.9,225.7,406.1,225.5,406.1z M202.7,405.2H225v-27.3
					l-11.2-29.4l-11.2,29.6V405.2z"/>
				<path class="st0" d="M225.5,406.5h-23.2c-0.5,0-0.8-0.4-0.8-0.8v-27.6c0-0.1,0-0.2,0-0.3l11.6-30.8c0.1-0.3,0.4-0.5,0.8-0.5
					c0.3,0,0.7,0.2,0.8,0.5l11.6,30.6c0,0.1,0.1,0.2,0.1,0.3v27.8C226.3,406.1,225.9,406.5,225.5,406.5z M213.9,347.2l-11.7,30.8
					l0,27.6l23.3,0.1c0,0,0,0,0-0.1v-27.8L213.9,347.2z M225.4,405.6h-23.1l0-27.6l11.5-30.6l11.6,30.5V405.6z M203.1,404.8h21.5
					V378l-10.8-28.4l-10.8,28.6V404.8z"/>
			</g>
		</g>
		<g>
			<g>
				<rect x="213" y="381.4" class="st0" width="0.9" height="24.4"/>
				<path class="st0" d="M214.2,406.3h-1.7V381h1.7V406.3z M213.3,405.5h0.1v-23.6h-0.1V405.5z"/>
			</g>
		</g>
		<g>
			<g>
				<path class="st0" d="M225.1,382.3l-11.3-11.8l-11.3,11.8l-0.6-0.6l11.6-12.1c0.2-0.2,0.5-0.2,0.6,0l11.6,12.1L225.1,382.3z"/>
				<path class="st0" d="M225.1,382.9l-11.3-11.8l-11.3,11.8l-1.2-1.2l11.9-12.4c0.3-0.3,0.9-0.3,1.2,0l11.9,12.4L225.1,382.9z
					 M202.5,381.7L202.5,381.7l11.4-11.7l11.3,11.8l0.1-0.1l-11.3-11.8L202.5,381.7z"/>
			</g>
		</g>
		<g>
			<g>
				<path class="st0" d="M222.9,372.3l-9-10.2l-9,10.2l-0.7-0.6l9.4-10.6c0.2-0.2,0.5-0.2,0.7,0l9.4,10.6L222.9,372.3z"/>
				<path class="st0" d="M222.9,372.9l-9-10.1l-9,10.1l-1.3-1.1l9.6-10.8c0.3-0.4,0.9-0.4,1.3,0l9.6,10.8L222.9,372.9z M213.9,361.5
					l9.1,10.2l0.1-0.1l-9.1-10.3l-9.2,10.3l0.1,0.1L213.9,361.5z"/>
			</g>
		</g>
		<g>
			<g>
				<path class="st0" d="M221.2,405.9h-0.9v-24h-13.9v24h-0.9v-24.4c0-0.2,0.2-0.4,0.4-0.4h14.7c0.2,0,0.4,0.2,0.4,0.4V405.9z"/>
				<path class="st0" d="M221.6,406.3h-1.7v-24h-13.1v24h-1.7v-24.8c0-0.5,0.4-0.8,0.8-0.8h14.7c0.5,0,0.8,0.4,0.8,0.8V406.3z
					 M220.7,405.5h0.1v-24l-14.8,0l-0.1,24.1h0.1v-24h14.6V405.5z"/>
			</g>
		</g>
	</g>
	<g>
		<g>
			<g>
				<path class="st0" d="M196,405.7h-0.9v-27.7L184,348.5l-11.2,29.6v27.3h-0.9v-27.4c0-0.1,0-0.1,0-0.2l11.6-30.8
					c0.1-0.2,0.2-0.3,0.4-0.3h0c0.2,0,0.4,0.1,0.4,0.3l11.6,30.6c0,0.1,0,0.1,0,0.2V405.7z"/>
				<path class="st0" d="M196.4,406.1h-1.7v-28L184,349.6l-10.8,28.6v27.6h-1.7v-27.8c0-0.1,0-0.2,0.1-0.3l11.6-30.8
					c0.1-0.3,0.4-0.5,0.8-0.5c0.3,0,0.7,0.2,0.8,0.5l11.6,30.6c0,0.1,0.1,0.2,0.1,0.3V406.1z M195.6,405.3h0.1v-27.4L184,347.2
					l-11.7,30.8l0,27h0.1l0-27.1l11.5-30.6l11.6,30.5V405.3z"/>
			</g>
		</g>
		<g>
			<g>
				<rect x="183.1" y="381.4" class="st0" width="0.9" height="24.4"/>
				<path class="st0" d="M184.4,406.3h-1.7V381h1.7V406.3z M183.5,405.5h0.1v-23.6h-0.1V405.5z"/>
			</g>
		</g>
		<g>
			<g>
				<path class="st0" d="M195.3,382.3L184,370.5l-11.3,11.8l-0.6-0.6l11.6-12.1c0.2-0.2,0.5-0.2,0.6,0l11.6,12.1L195.3,382.3z"/>
				<path class="st0" d="M172.7,382.9l-1.2-1.2l11.9-12.4c0.3-0.3,0.9-0.3,1.2,0l11.9,12.4l-1.2,1.2L184,371.1L172.7,382.9z
					 M184,370l11.3,11.8l0.1-0.1L184,369.9l-11.4,11.8l0.1,0.1L184,370z"/>
			</g>
		</g>
		<g>
			<g>
				<path class="st0" d="M193,372.3l-9-10.2l-9,10.2l-0.7-0.6l9.4-10.6c0.2-0.2,0.5-0.2,0.7,0l9.4,10.6L193,372.3z"/>
				<path class="st0" d="M193,372.9l-9-10.1l-9,10.1l-1.3-1.1l9.6-10.8c0.2-0.2,0.4-0.3,0.6-0.3l0,0c0.2,0,0.5,0.1,0.6,0.3l9.6,10.8
					L193,372.9z M174.9,371.7L174.9,371.7l9.1-10.1l9.1,10.2l0.1-0.1l-9.1-10.3L174.9,371.7z"/>
			</g>
		</g>
		<g>
			<g>
				<path class="st0" d="M191.4,405.9h-0.9v-24h-13.9v24h-0.9v-24.4c0-0.2,0.2-0.4,0.4-0.4h14.7c0.2,0,0.4,0.2,0.4,0.4V405.9z"/>
				<path class="st0" d="M191.8,406.3h-1.7v-24H177v24h-1.7v-24.8c0-0.5,0.4-0.8,0.8-0.8h14.7c0.5,0,0.8,0.4,0.8,0.8V406.3z
					 M190.9,405.5h0.1v-24l-14.8,0l0,24.1h0.1v-24h14.6V405.5z"/>
			</g>
		</g>
	</g>
	<g>
		<g>
			<g>
				<path class="st0" d="M197.4,344.3h-17.9c-0.2,0-0.4-0.2-0.4-0.4v-24.1c0-0.1,0-0.2,0.1-0.3l8.9-12.2c0.1-0.1,0.2-0.2,0.4-0.2h0
					c0.1,0,0.3,0.1,0.4,0.2l8.9,12.1c0.1,0.1,0.1,0.2,0.1,0.3v24.3C197.8,344.1,197.6,344.3,197.4,344.3z M180,343.4h17v-23.7
					l-8.5-11.5l-8.5,11.6V343.4z"/>
				<path class="st0" d="M197.4,344.7h-17.9c-0.5,0-0.8-0.4-0.8-0.8v-24.1c0-0.2,0.1-0.4,0.2-0.5l8.9-12.2c0.3-0.4,1-0.4,1.4,0
					l8.9,12.1c0.1,0.2,0.2,0.3,0.2,0.5v24.3C198.2,344.3,197.9,344.7,197.4,344.7z M188.5,307.5l-9,12.2l0,24.2l17.9,0c0,0,0,0,0,0
					v-24.3L188.5,307.5z M197.3,343.8h-17.8v-24.1l8.9-12.1l8.9,12V343.8z M180.4,343h16.2v-23.2l-8.1-10.9l-8.1,11.1V343z"/>
			</g>
		</g>
		<g>
			<g>
				<path class="st0" d="M197.1,323.7l-8.6-9.9l-8.6,9.9l-0.7-0.6l8.9-10.3c0.2-0.2,0.5-0.2,0.7,0l8.9,10.3L197.1,323.7z"/>
				<path class="st0" d="M179.9,324.2l-1.3-1.1l9.2-10.6c0.3-0.4,1-0.4,1.3,0l9.2,10.6l-1.3,1.1l-8.6-9.8L179.9,324.2z M188.5,313.2
					l8.6,9.9l0.1-0.1l-8.7-10l-8.8,10l0.1,0.1L188.5,313.2z"/>
			</g>
		</g>
		<g>
			<g>
				<rect x="188" y="313.1" class="st0" width="0.9" height="30.7"/>
				<path class="st0" d="M189.3,344.2h-1.7v-31.5h1.7V344.2z M188.4,343.4h0.1v-29.9h-0.1V343.4z"/>
			</g>
		</g>
	</g>
	<g>
		<g>
			<g>
				<path class="st0" d="M222.8,344.3h-17.9c-0.2,0-0.4-0.2-0.4-0.4v-24.1c0-0.1,0-0.2,0.1-0.3l8.9-12.2c0.1-0.1,0.2-0.2,0.4-0.2h0
					c0.1,0,0.3,0.1,0.4,0.2l8.9,12.1c0.1,0.1,0.1,0.2,0.1,0.3v24.3C223.2,344.1,223,344.3,222.8,344.3z M205.4,343.4h17v-23.7
					l-8.5-11.5l-8.5,11.6V343.4z"/>
				<path class="st0" d="M222.8,344.7h-17.9c-0.5,0-0.8-0.4-0.8-0.8v-24.1c0-0.2,0.1-0.4,0.2-0.5l8.9-12.2c0.3-0.4,1-0.4,1.4,0
					l8.9,12.1c0.1,0.2,0.2,0.3,0.2,0.5v24.3C223.6,344.3,223.2,344.7,222.8,344.7z M213.9,307.5l-9,12.2l0,24.2l17.9,0c0,0,0,0,0,0
					v-24.3L213.9,307.5z M222.7,343.8H205v-24.1l8.9-12.1l8.9,12V343.8z M205.8,343h16.2v-23.2l-8.1-10.9l-8.1,11.1V343z"/>
			</g>
		</g>
		<g>
			<g>
				<path class="st0" d="M222.4,323.7l-8.6-9.9l-8.6,9.9l-0.7-0.6l8.9-10.3c0.2-0.2,0.5-0.2,0.7,0l8.9,10.3L222.4,323.7z"/>
				<path class="st0" d="M222.4,324.2l-8.6-9.8l-8.6,9.8l-1.3-1.1l9.2-10.6c0.3-0.4,1-0.4,1.3,0l9.2,10.6L222.4,324.2z M205.1,323.1
					L205.1,323.1l8.7-9.9l8.6,9.9l0.1-0.1l-8.7-10L205.1,323.1z"/>
			</g>
		</g>
		<g>
			<g>
				<rect x="213.4" y="313.1" class="st0" width="0.9" height="30.7"/>
				<path class="st0" d="M214.7,344.2H213v-31.5h1.7V344.2z M213.8,343.4h0.1v-29.9h-0.1V343.4z"/>
			</g>
		</g>
	</g>
	<g>
		<g>
			<g>
				<path class="st0" d="M311.5,289.8h-17.9c-0.2,0-0.4-0.2-0.4-0.4v-24.1c0-0.1,0-0.2,0.1-0.3l8.9-12.2c0.1-0.1,0.2-0.2,0.4-0.2h0
					c0.1,0,0.3,0.1,0.4,0.2l8.9,12.1c0.1,0.1,0.1,0.2,0.1,0.3v24.3C311.9,289.6,311.7,289.8,311.5,289.8z M294,288.9h17v-23.7
					l-8.5-11.5l-8.5,11.6V288.9z"/>
				<path class="st0" d="M311.5,290.2h-17.9c-0.5,0-0.8-0.4-0.8-0.8v-24.1c0-0.2,0.1-0.4,0.2-0.5l8.9-12.2c0.3-0.4,1-0.4,1.4,0
					l8.9,12.1c0.1,0.1,0.2,0.3,0.2,0.5v24.3C312.3,289.8,311.9,290.2,311.5,290.2z M302.6,252.9l-9,12.2l0,24.2l17.9,0
					c0,0,0.1,0,0.1,0V265L302.6,252.9z M311.4,289.3h-17.8v-24.1l8.9-12.1l8.9,12V289.3z M294.4,288.5h16.2v-23.2l-8.1-10.9
					l-8.1,11.1V288.5z"/>
			</g>
		</g>
		<g>
			<g>
				<path class="st0" d="M311.1,269.2l-8.6-9.9l-8.6,9.9l-0.7-0.6l8.9-10.3c0.2-0.2,0.5-0.2,0.7,0l8.9,10.3L311.1,269.2z"/>
				<path class="st0" d="M294,269.7l-1.3-1.1l9.2-10.6c0.3-0.4,1-0.4,1.3,0l9.2,10.6l-1.3,1.1l-8.6-9.8L294,269.7z M302.5,258.7
					l8.6,9.9l0.1-0.1l-8.7-10l-8.8,10l0.1,0.1L302.5,258.7z"/>
			</g>
		</g>
		<g>
			<g>
				<rect x="302.1" y="258.6" class="st0" width="0.9" height="30.7"/>
				<path class="st0" d="M303.4,289.7h-1.7v-31.5h1.7V289.7z M302.5,288.9h0.1V259h-0.1V288.9z"/>
			</g>
		</g>
	</g>
	<g>
		<g>
			<g>
				<path class="st0" d="M248.2,344.3h-17.9c-0.2,0-0.4-0.2-0.4-0.4v-24.1c0-0.1,0-0.2,0.1-0.3l8.9-12.2c0.1-0.1,0.2-0.2,0.4-0.2h0
					c0.1,0,0.3,0.1,0.4,0.2l8.9,12.1c0.1,0.1,0.1,0.2,0.1,0.3v24.3C248.6,344.1,248.4,344.3,248.2,344.3z M230.7,343.4h17v-23.7
					l-8.5-11.5l-8.5,11.6V343.4z"/>
				<path class="st0" d="M248.2,344.7h-17.9c-0.5,0-0.8-0.4-0.8-0.8v-24.1c0-0.2,0.1-0.4,0.2-0.5l8.9-12.2c0.3-0.4,1-0.4,1.4,0
					l8.9,12.1c0.1,0.2,0.2,0.3,0.2,0.5v24.3C249,344.3,248.6,344.7,248.2,344.7z M239.3,307.5l-9,12.2l0,24.2l17.9,0
					c0,0,0.1,0,0.1,0v-24.3L239.3,307.5z M248.1,343.8h-17.8v-24.1l8.9-12.1l8.9,12V343.8z M231.1,343h16.2v-23.2l-8.1-10.9
					l-8.1,11.1V343z"/>
			</g>
		</g>
		<g>
			<g>
				<path class="st0" d="M247.8,323.7l-8.6-9.9l-8.6,9.9l-0.7-0.6l8.9-10.3c0.2-0.2,0.5-0.2,0.7,0l8.9,10.3L247.8,323.7z"/>
				<path class="st0" d="M230.7,324.2l-1.3-1.1l9.2-10.6c0.3-0.4,1-0.4,1.3,0l9.2,10.6l-1.3,1.1l-8.6-9.8L230.7,324.2z M239.2,313.2
					l8.6,9.9l0.1-0.1l-8.7-10l-8.7,10l0.1,0.1L239.2,313.2z"/>
			</g>
		</g>
		<g>
			<g>
				<rect x="238.8" y="313.1" class="st0" width="0.9" height="30.7"/>
				<path class="st0" d="M240.1,344.2h-1.7v-31.5h1.7V344.2z M239.2,343.4h0.1v-29.9h-0.1V343.4z"/>
			</g>
		</g>
	</g>
	<g>
		<g>
			<path class="st0" d="M223.2,302.9h-18.7c-0.2,0-0.4-0.2-0.4-0.4v-5.7c0-0.1,0-0.2,0.1-0.3l9.5-13.2c0.1-0.1,0.2-0.2,0.4-0.2h0
				c0.1,0,0.3,0.1,0.4,0.2l9.2,13.3c0.1,0.1,0.1,0.2,0.1,0.3v5.7C223.6,302.7,223.4,302.9,223.2,302.9z M204.9,302h17.8v-5.1
				l-8.8-12.6l-9,12.6V302z"/>
			<path class="st0" d="M223.2,303.3h-18.7c-0.5,0-0.8-0.4-0.8-0.8v-5.7c0-0.2,0.1-0.3,0.2-0.5l9.5-13.2c0.3-0.4,1.1-0.4,1.4,0
				l9.2,13.3c0.1,0.1,0.2,0.3,0.2,0.5v5.7C224,302.9,223.6,303.3,223.2,303.3z M214,283.5l-9.6,13.2l0,5.8l18.8,0c0,0,0.1,0,0.1,0
				v-5.7L214,283.5z M223.1,302.4h-18.6v-5.7l0.1-0.1l9.3-13l0.3,0.5l8.9,12.7V302.4z M205.3,301.6h17V297l-8.4-12.1l-8.6,12V301.6z
				"/>
		</g>
	</g>
	<g>
		<g>
			<g>
				<rect x="213.4" y="262.6" class="st0" width="0.9" height="14.1"/>
				<path class="st0" d="M214.6,277.1H213v-14.9h1.7V277.1z M213.8,276.3h0.1V263h-0.1V276.3z"/>
			</g>
		</g>
		<g>
			<g>
				<rect x="209.7" y="264.8" class="st0" width="8.3" height="0.9"/>
				<path class="st0" d="M218.3,266.1h-9.1v-1.7h9.1V266.1z M210.1,265.3h7.5v-0.1h-7.5V265.3z"/>
			</g>
		</g>
	</g>
	<g>
		<g>
			<g>
				<rect x="301.6" y="336.8" class="st0" width="0.9" height="14.1"/>
				<path class="st0" d="M302.9,351.3h-1.7v-14.9h1.7V351.3z M302,350.5h0.1v-13.3H302V350.5z"/>
			</g>
		</g>
		<g>
			<g>
				<rect x="298" y="338.9" class="st0" width="8.3" height="0.9"/>
				<path class="st0" d="M306.6,340.2h-9.1v-1.7h9.1V340.2z M298.3,339.4h7.5v-0.1h-7.5V339.4z"/>
			</g>
		</g>
	</g>
	<g>
		<g>
			<g>
				<rect x="301.5" y="93.3" class="st0" width="0.9" height="14.1"/>
				<path class="st0" d="M302.8,107.7h-1.7V92.9h1.7V107.7z M301.9,106.9h0.1V93.6h-0.1V106.9z"/>
			</g>
		</g>
		<g>
			<g>
				<rect x="297.8" y="95.4" class="st0" width="8.3" height="0.9"/>
				<path class="st0" d="M306.5,96.7h-9.1V95h9.1V96.7z M298.2,95.9h7.5v-0.1h-7.5V95.9z"/>
			</g>
		</g>
	</g>
	<g>
		<g>
			<path class="st0" d="M259.7,315.7L213.5,249L168,315.7l-0.7-0.5l45.9-67.2c0.1-0.1,0.2-0.2,0.4-0.2c0.2,0,0.3,0.1,0.4,0.2
				l46.6,67.2L259.7,315.7z"/>
			<path class="st0" d="M168.1,316.3l-1.4-1l0.2-0.3l45.9-67.2c0.2-0.2,0.4-0.4,0.7-0.4c0.3,0,0.5,0.1,0.7,0.4l46.8,67.6l-1.4,1
				l-0.2-0.3l-45.9-66.2L168.1,316.3z M213.5,248.3l46.3,66.9l0.1-0.1l-46.4-66.9l0,0c0,0,0,0-0.1,0l-45.6,66.9l0.1,0.1L213.5,248.3
				z"/>
		</g>
	</g>
	<g>
		<g>
			<path class="st0" d="M166.7,405.9h-12.3c-0.2,0-0.4-0.2-0.4-0.4V284.4l5.8-36.3c0-0.2,0.2-0.4,0.4-0.4h0c0.2,0,0.4,0.2,0.4,0.4
				l6.5,36.4l0,120.9C167.2,405.7,167,405.9,166.7,405.9z M154.9,405h11.4V284.6l-6-33.7l-5.4,33.6L154.9,405z"/>
			<path class="st0" d="M166.7,406.3h-12.3c-0.5,0-0.8-0.4-0.8-0.8V284.4l5.8-36.3c0.1-0.4,0.4-0.7,0.8-0.7s0.8,0.3,0.8,0.7
				l6.5,36.4l0,121C167.6,406,167.2,406.3,166.7,406.3z M160.2,248.2l-5.8,36.3l0,121l12.3,0.1c0,0,0.1,0,0.1-0.1l0-120.9l-6.5-36.3
				H160.2z M166.7,405.4h-12.2l0-121l5.8-36l6.4,36L166.7,405.4z M155.3,404.7h10.6v-120l-5.6-31.4l-5,31.3L155.3,404.7z"/>
		</g>
	</g>
	<g>
		<g>
			<g>
				<rect x="160.4" y="337.1" class="st0" width="0.9" height="14.1"/>
				<path class="st0" d="M161.7,351.6H160v-14.9h1.7V351.6z M160.8,350.8h0.1v-13.3h-0.1V350.8z"/>
			</g>
		</g>
		<g>
			<g>
				<rect x="156.7" y="339.2" class="st0" width="8.3" height="0.9"/>
				<path class="st0" d="M165.4,340.5h-9.1v-1.7h9.1V340.5z M157.1,339.7h7.5v-0.1h-7.5V339.7z"/>
			</g>
		</g>
	</g>
	<g>
		<g>
			<g>
				<rect x="160.4" y="366.1" class="st0" width="0.9" height="14.1"/>
				<path class="st0" d="M161.7,380.6H160v-14.9h1.7V380.6z M160.8,379.8h0.1v-13.3h-0.1V379.8z"/>
			</g>
		</g>
		<g>
			<g>
				<rect x="156.7" y="368.3" class="st0" width="8.3" height="0.9"/>
				<path class="st0" d="M165.4,369.6h-9.1v-1.7h9.1V369.6z M157.1,368.8h7.5v-0.1h-7.5V368.8z"/>
			</g>
		</g>
	</g>
	<g>
		<g>
			
				<rect x="154.4" y="284.1" transform="matrix(0.9998 1.817881e-002 -1.817881e-002 0.9998 5.1989 -2.8719)" class="st0" width="12.3" height="0.9"/>
			<path class="st0" d="M167.1,285.5l-13.1-0.2l0-1.7l13.1,0.2L167.1,285.5z M154.8,284.5l11.5,0.2v-0.1l-11.5-0.2L154.8,284.5z"/>
		</g>
	</g>
	<g>
		<g>
			<rect x="154.4" y="299.3" class="st0" width="12.3" height="0.9"/>
			<path class="st0" d="M167.1,300.6H154v-1.7h13.1V300.6z M154.8,299.8h11.5v-0.1h-11.5V299.8z"/>
		</g>
	</g>
	<g>
		<g>
			<rect x="154.4" y="314.1" class="st0" width="12.3" height="0.9"/>
			<path class="st0" d="M167.1,315.3H154v-1.7h13.1V315.3z M154.8,314.6h11.5v-0.1h-11.5V314.6z"/>
		</g>
	</g>
	<g>
		<g>
			<path class="st0" d="M163.3,328.5h-0.9v-6.3c-0.4-0.8-1-1.7-1.8-1.7c-0.8,0-1.7,1.2-1.9,1.7v6.3h-0.9v-6.4c0-0.1,0-0.1,0-0.2
				c0.1-0.2,1.2-2.3,2.8-2.3c1,0,1.9,0.8,2.6,2.3c0,0.1,0,0.1,0,0.2V328.5z"/>
			<path class="st0" d="M163.7,328.9H162v-6.6c-0.5-0.9-1-1.4-1.4-1.4c-0.5,0-1.2,0.8-1.5,1.4v6.6h-1.7v-6.8c0-0.1,0-0.3,0.1-0.4
				c0.1-0.3,1.3-2.5,3.1-2.5c1.1,0,2.1,0.9,3,2.5c0.1,0.1,0.1,0.2,0.1,0.4V328.9z M162.8,328.1h0.1v-6c-0.7-1.4-1.5-2.1-2.3-2.1
				c-1.4,0-2.4,2-2.4,2.1l0,6h0.1v-6l0-0.1c0.1-0.2,1.1-1.9,2.3-1.9c0.8,0,1.5,0.6,2.1,1.9l0,0.2V328.1z"/>
		</g>
	</g>
	<g>
		<g>
			<path class="st0" d="M269,327.6h-0.9v-6.3c-0.4-0.8-1-1.7-1.8-1.7c-0.8,0-1.7,1.2-1.9,1.7v6.3h-0.9v-6.4c0-0.1,0-0.1,0-0.2
				c0.1-0.2,1.2-2.3,2.8-2.3c1,0,1.9,0.8,2.6,2.3c0,0.1,0,0.1,0,0.2V327.6z"/>
			<path class="st0" d="M269.4,328h-1.7v-6.6c-0.5-0.9-1-1.4-1.4-1.4c-0.5,0-1.2,0.8-1.6,1.4v6.6h-1.7v-6.8c0-0.1,0-0.3,0.1-0.4
				c0.1-0.3,1.3-2.5,3.1-2.5c1.1,0,2.1,0.9,3,2.5c0.1,0.1,0.1,0.3,0.1,0.4V328z M268.5,327.2h0.1v-6c-0.7-1.4-1.5-2.1-2.3-2.1
				c-1.4,0-2.4,2-2.4,2.1l0,6h0.1v-6l0-0.1c0.1-0.2,1.1-1.9,2.3-1.9c0.8,0,1.5,0.6,2.1,1.9l0,0.2V327.2z"/>
		</g>
	</g>
	<g>
		<g>
			<g>
				<path class="st0" d="M160.4,389h-0.9v-5.7c-0.4-0.7-0.9-1.5-1.6-1.5c-0.7,0-1.5,1-1.7,1.5v5.7h-0.9v-5.8c0-0.1,0-0.1,0-0.2
					c0.1-0.2,1.1-2.1,2.6-2.1c0.9,0,1.7,0.7,2.4,2.1c0,0.1,0,0.1,0,0.2V389z"/>
				<path class="st0" d="M160.8,389.4h-1.7v-6c-0.4-0.8-0.8-1.2-1.2-1.2c-0.4,0-1,0.7-1.3,1.2v6H155v-6.2c0-0.1,0-0.3,0.1-0.4
					c0.2-0.4,1.2-2.3,2.9-2.3c1.1,0,2,0.8,2.8,2.3c0.1,0.1,0.1,0.2,0.1,0.4V389.4z M159.9,388.6h0.1v-5.4c-0.6-1.3-1.3-1.9-2.1-1.9
					c-1.3,0-2.2,1.8-2.2,1.9l0,5.4h0.1l0-5.5c0.1-0.2,1-1.7,2.1-1.7c0.7,0,1.3,0.6,1.9,1.7l0,0.2V388.6z"/>
			</g>
		</g>
		<g>
			<g>
				<path class="st0" d="M165.8,389h-0.9v-5.7c-0.4-0.7-0.9-1.5-1.6-1.5c-0.7,0-1.5,1-1.7,1.5v5.7h-0.9v-5.8c0-0.1,0-0.1,0-0.2
					c0.1-0.2,1.1-2.1,2.6-2.1c0.9,0,1.7,0.7,2.4,2.1c0,0.1,0,0.1,0,0.2V389z"/>
				<path class="st0" d="M166.2,389.4h-1.7v-6c-0.4-0.8-0.8-1.2-1.2-1.2c-0.4,0-1,0.7-1.3,1.2v6h-1.7v-6.2c0-0.1,0-0.3,0.1-0.4
					c0.2-0.4,1.2-2.3,2.9-2.3c1.1,0,2,0.8,2.8,2.3c0.1,0.1,0.1,0.2,0.1,0.4V389.4z M165.3,388.6h0.1v-5.4c-0.6-1.3-1.3-1.9-2.1-1.9
					c-1.3,0-2.2,1.8-2.2,1.9l0,5.4h0.1l0-5.5c0.1-0.2,1-1.7,2.1-1.7c0.7,0,1.3,0.6,1.9,1.7l0,0.2V388.6z"/>
			</g>
		</g>
	</g>
	<g>
		<g>
			<g>
				<path class="st0" d="M266.4,389h-0.9v-5.7c-0.4-0.7-0.9-1.5-1.6-1.5h0c-0.7,0-1.4,1-1.7,1.5v5.7h-0.9v-5.8c0-0.1,0-0.1,0-0.2
					c0.1-0.2,1.1-2.1,2.6-2.1c0.9,0,1.7,0.7,2.4,2.1c0,0.1,0,0.1,0,0.2V389z"/>
				<path class="st0" d="M266.8,389.4h-1.7v-6c-0.4-0.8-0.8-1.2-1.2-1.2c-0.4,0-1,0.6-1.3,1.2v6h-1.7v-6.2c0-0.1,0-0.3,0.1-0.4
					c0.2-0.4,1.2-2.3,2.9-2.3c1.1,0,2,0.8,2.8,2.3c0.1,0.1,0.1,0.2,0.1,0.4V389.4z M265.9,388.6h0.1v-5.4c-0.6-1.3-1.3-1.9-2.1-1.9
					c-1.3,0-2.2,1.8-2.2,1.9l0,5.4h0.1l0-5.5c0.2-0.3,1-1.7,2.1-1.7c0.7,0,1.3,0.6,1.9,1.7l0,0.2V388.6z"/>
			</g>
		</g>
		<g>
			<g>
				<path class="st0" d="M271.7,389h-0.9v-5.7c-0.4-0.7-0.9-1.5-1.6-1.5c-0.7,0-1.5,1-1.7,1.5v5.7h-0.9v-5.8c0-0.1,0-0.1,0-0.2
					c0.1-0.2,1.1-2.1,2.6-2.1c0.9,0,1.7,0.7,2.4,2.1c0,0.1,0,0.1,0,0.2V389z"/>
				<path class="st0" d="M272.1,389.4h-1.7v-6c-0.4-0.8-0.8-1.2-1.2-1.2c-0.4,0-1,0.7-1.3,1.2v6h-1.7v-6.2c0-0.1,0-0.3,0.1-0.4
					c0.2-0.4,1.2-2.3,2.9-2.3c1.1,0,2,0.8,2.8,2.3c0.1,0.1,0.1,0.3,0.1,0.4V389.4z M271.2,388.6h0.1v-5.4c-0.6-1.3-1.3-1.9-2.1-1.9
					c-1.3,0-2.2,1.8-2.2,1.9l0,5.4h0.1l0-5.5c0.2-0.3,1-1.7,2.1-1.7c0.7,0,1.3,0.6,1.9,1.7l0,0.2V388.6z"/>
			</g>
		</g>
	</g>
	<g>
		<g>
			<rect x="152.1" y="388.6" class="st0" width="17" height="4.7"/>
			<path class="st0" d="M169.5,393.7h-17.8v-5.4h17.8V393.7z M152.5,392.9h16.2V389h-16.2V392.9z"/>
		</g>
	</g>
	<g>
		<g>
			<rect x="154.1" y="358" class="st0" width="12.6" height="4.7"/>
			<path class="st0" d="M167.1,363.1h-13.4v-5.4h13.4V363.1z M154.5,362.3h11.8v-3.9h-11.8V362.3z"/>
		</g>
	</g>
	<g>
		<g>
			<rect x="152.1" y="327.6" class="st0" width="17" height="4.7"/>
			<path class="st0" d="M169.5,332.7h-17.8v-5.4h17.8V332.7z M152.5,331.9h16.2V328h-16.2V331.9z"/>
		</g>
	</g>
	<g>
		<g>
			<path class="st0" d="M272.4,406.4L272.4,406.4l-12.3-0.1c-0.2,0-0.4-0.2-0.4-0.4V284.4l5.4-36.3c0-0.2,0.2-0.4,0.4-0.4
				c0.2,0,0.4,0.2,0.4,0.4l6.9,36.4l0,121.4c0,0.1,0,0.2-0.1,0.3C272.6,406.4,272.5,406.4,272.4,406.4z M260.5,405.5l11.4,0V284.6
				l-6.4-33.7l-5,33.6L260.5,405.5z"/>
			<path class="st0" d="M272.4,406.8L272.4,406.8l-12.3-0.1c-0.5,0-0.8-0.4-0.8-0.8V284.4l5.4-36.3c0.1-0.4,0.4-0.7,0.8-0.7
				c0.4,0,0.8,0.3,0.8,0.7l6.9,36.4l0,121.5c0,0.2-0.1,0.4-0.2,0.6C272.8,406.7,272.6,406.8,272.4,406.8z M265.6,248.2l-5.5,36.3
				l0,121.5l12.3,0.1v0.4V406c0,0,0,0,0,0l0-121.5L265.6,248.2z M272.3,405.9l-12.2-0.1l0-121.4l5.4-36l6.8,36L272.3,405.9z
				 M260.9,405.1l10.6,0V284.6l-5.9-31.4l-4.7,31.3L260.9,405.1z"/>
		</g>
	</g>
	<g>
		<g>
			<g>
				<rect x="266.1" y="337.1" class="st0" width="0.9" height="14.1"/>
				<path class="st0" d="M267.4,351.6h-1.7v-14.9h1.7V351.6z M266.5,350.8h0.1v-13.3h-0.1V350.8z"/>
			</g>
		</g>
		<g>
			<g>
				<rect x="262.4" y="339.2" class="st0" width="8.3" height="0.9"/>
				<path class="st0" d="M271.1,340.5H262v-1.7h9.1V340.5z M262.8,339.7h7.5v-0.1h-7.5V339.7z"/>
			</g>
		</g>
	</g>
	<g>
		<g>
			<g>
				<rect x="266.1" y="366.1" class="st0" width="0.9" height="14.1"/>
				<path class="st0" d="M267.4,380.6h-1.7v-14.9h1.7V380.6z M266.5,379.8h0.1v-13.3h-0.1V379.8z"/>
			</g>
		</g>
		<g>
			<g>
				<rect x="262.4" y="368.3" class="st0" width="8.3" height="0.9"/>
				<path class="st0" d="M271.1,369.6H262v-1.7h9.1V369.6z M262.8,368.8h7.5v-0.1h-7.5V368.8z"/>
			</g>
		</g>
	</g>
	<g>
		<g>
			
				<rect x="260.1" y="284.1" transform="matrix(0.9998 1.817881e-002 -1.817881e-002 0.9998 5.2163 -4.7928)" class="st0" width="12.3" height="0.9"/>
			<path class="st0" d="M272.8,285.5l-13.1-0.2l0-1.7l13.1,0.2L272.8,285.5z M260.5,284.5l11.5,0.2l0-0.1l-11.5-0.2V284.5z"/>
		</g>
	</g>
	<g>
		<g>
			<rect x="260.1" y="299.3" class="st0" width="12.3" height="0.9"/>
			<path class="st0" d="M272.8,300.6h-13.1v-1.7h13.1V300.6z M260.5,299.8H272v-0.1h-11.5V299.8z"/>
		</g>
	</g>
	<g>
		<g>
			<rect x="260.1" y="314.1" class="st0" width="12.3" height="0.9"/>
			<path class="st0" d="M272.8,315.3h-13.1v-1.7h13.1V315.3z M260.5,314.6H272v-0.1h-11.5V314.6z"/>
		</g>
	</g>
	<g>
		<g>
			<rect x="257.7" y="388.6" class="st0" width="17" height="4.7"/>
			<path class="st0" d="M275.1,393.7h-17.8v-5.4h17.8V393.7z M258.1,392.9h16.2V389h-16.2V392.9z"/>
		</g>
	</g>
	<g>
		<g>
			<rect x="260" y="358" class="st0" width="12.6" height="4.7"/>
			<path class="st0" d="M273,363.1h-13.4v-5.4H273V363.1z M260.4,362.3h11.8v-3.9h-11.8V362.3z"/>
		</g>
	</g>
	<g>
		<g>
			<rect x="257.7" y="327.6" class="st0" width="17" height="4.7"/>
			<path class="st0" d="M275.1,332.7h-17.8v-5.4h17.8V332.7z M258.1,331.9h16.2V328h-16.2V331.9z"/>
		</g>
	</g>
	<g>
		<g>
			<path class="st0" d="M341.7,327.6h-1v-6.3c-0.4-0.8-1.1-1.7-1.9-1.7c-0.9,0-1.8,1.2-2.1,1.7v6.3h-1v-6.4c0-0.1,0-0.1,0.1-0.2
				c0.1-0.2,1.3-2.3,3-2.3c1.1,0,2,0.8,2.8,2.3c0,0.1,0.1,0.1,0.1,0.2V327.6z"/>
			<path class="st0" d="M342.1,328h-1.8v-6.6c-0.5-0.9-1.1-1.4-1.5-1.4c-0.6,0-1.3,0.8-1.7,1.4v6.6h-1.8v-6.8c0-0.1,0-0.3,0.1-0.4
				c0.2-0.4,1.5-2.5,3.4-2.5c1.2,0,2.3,0.8,3.2,2.5c0.1,0.1,0.1,0.3,0.1,0.4V328z M341.1,327.2h0.2v-6c-0.8-1.4-1.6-2.1-2.5-2.1
				c-1.5,0-2.6,1.9-2.7,2.1v6h0.2v-6l0.1-0.1c0.2-0.3,1.2-1.9,2.5-1.9c0.8,0,1.6,0.6,2.3,1.9l0,0.2V327.2z"/>
		</g>
	</g>
	<g>
		<g>
			<g>
				<path class="st0" d="M338.9,389h-1v-5.7c-0.4-0.7-1-1.5-1.7-1.5h0c-0.8,0-1.6,1-1.9,1.5v5.7h-1v-5.8c0-0.1,0-0.1,0.1-0.2
					c0.1-0.2,1.2-2.1,2.8-2.1c1,0,1.9,0.7,2.6,2.1c0,0.1,0.1,0.1,0.1,0.2V389z"/>
				<path class="st0" d="M339.3,389.4h-1.8v-6c-0.5-0.8-0.9-1.2-1.3-1.2c-0.5,0-1.1,0.7-1.5,1.2v6H333v-6.2c0-0.1,0-0.3,0.1-0.4
					c0.2-0.4,1.3-2.3,3.1-2.3c1.1,0,2.1,0.8,3,2.3c0.1,0.1,0.1,0.3,0.1,0.4V389.4z M338.3,388.6h0.2v-5.4c-0.7-1.3-1.5-1.9-2.3-1.9
					c-1.4,0-2.3,1.7-2.4,1.9l0,5.4h0.2v-5.4l0.1-0.1c0.2-0.3,1.1-1.7,2.2-1.7c0.7,0,1.4,0.6,2,1.7l0,0.2V388.6z"/>
			</g>
		</g>
		<g>
			<g>
				<path class="st0" d="M344.7,389h-1v-5.7c-0.4-0.7-1-1.5-1.7-1.5c-0.8,0-1.6,1-1.9,1.5v5.7h-1v-5.8c0-0.1,0-0.1,0.1-0.2
					c0.1-0.2,1.2-2.1,2.8-2.1c1,0,1.9,0.7,2.6,2.1c0,0.1,0.1,0.1,0.1,0.2V389z"/>
				<path class="st0" d="M345.1,389.4h-1.8v-6c-0.5-0.8-0.9-1.2-1.3-1.2c-0.5,0-1.1,0.7-1.5,1.2v6h-1.8v-6.2c0-0.1,0-0.3,0.1-0.4
					c0.2-0.4,1.3-2.3,3.1-2.3c1.1,0,2.1,0.8,3,2.3c0.1,0.1,0.1,0.3,0.1,0.4V389.4z M344.1,388.6h0.2v-5.4c-0.7-1.3-1.4-1.9-2.3-1.9
					c-1.4,0-2.3,1.7-2.4,1.9v5.4h0.2v-5.4l0.1-0.1c0.2-0.3,1.1-1.7,2.2-1.7c0.7,0,1.4,0.6,2,1.7l0,0.2V388.6z"/>
			</g>
		</g>
	</g>
	<g>
		<g>
			<path class="st0" d="M345.4,406.7L345.4,406.7l-13.3-0.1c-0.3,0-0.5-0.2-0.5-0.4V284.5l5.9-36.3c0-0.2,0.2-0.4,0.5-0.4
				c0.2,0,0.4,0.2,0.5,0.4l7.5,36.5l0,121.7c0,0.1-0.1,0.2-0.1,0.3C345.6,406.7,345.5,406.7,345.4,406.7z M332.5,405.8l12.4,0V284.7
				l-6.9-33.8l-5.5,33.6L332.5,405.8z"/>
			<path class="st0" d="M345.4,407.1L345.4,407.1l-13.3,0c-0.5,0-0.9-0.4-0.9-0.8V284.5l5.9-36.4c0.1-0.4,0.4-0.7,0.9-0.7
				c0,0,0,0,0.1,0c0.4,0,0.7,0.3,0.8,0.7l7.4,36.5l0,121.8c0,0.2-0.1,0.4-0.3,0.6C345.8,407.1,345.6,407.1,345.4,407.1z
				 M337.9,248.2l-6,36.4l0,121.7c0,0,0,0.1,0.1,0.1l13.3,0l0,0.4v-0.4c0,0,0.1,0,0.1,0l0-121.7L337.9,248.2L337.9,248.2z
				 M345.3,406.3l-13.2-0.1l0-121.6l5.8-35.8l7.3,35.9L345.3,406.3z M332.9,405.4l11.6,0V284.7l-6.5-31.6l-5.1,31.5L332.9,405.4z"/>
		</g>
	</g>
	<g>
		<g>
			<g>
				<rect x="338.5" y="337.1" class="st0" width="1" height="14.1"/>
				<path class="st0" d="M339.9,351.6h-1.8v-14.9h1.8V351.6z M338.9,350.8h0.2v-13.3h-0.2V350.8z"/>
			</g>
		</g>
		<g>
			<g>
				<rect x="334.5" y="339.2" class="st0" width="9" height="0.9"/>
				<path class="st0" d="M343.9,340.5h-9.8v-1.7h9.8V340.5z M334.9,339.7h8.2v-0.1h-8.2V339.7z"/>
			</g>
		</g>
	</g>
	<g>
		<g>
			<g>
				<rect x="338.5" y="366.1" class="st0" width="1" height="14.1"/>
				<path class="st0" d="M339.9,380.6h-1.8v-14.9h1.8V380.6z M338.9,379.8h0.2v-13.3h-0.2V379.8z"/>
			</g>
		</g>
		<g>
			<g>
				<rect x="334.5" y="368.3" class="st0" width="9" height="0.9"/>
				<path class="st0" d="M343.9,369.6h-9.8v-1.7h9.8V369.6z M334.9,368.8h8.2v-0.1h-8.2V368.8z"/>
			</g>
		</g>
	</g>
	<g>
		<g>
			<polygon class="st0" points="345.4,285.1 332,284.9 332.1,284 345.4,284.2 			"/>
			<path class="st0" d="M345.8,285.5l-14.1-0.2l0-1.7l14.1,0.2L345.8,285.5z M332.4,284.5l12.5,0.2v-0.1l-12.5-0.2L332.4,284.5z"/>
		</g>
	</g>
	<g>
		<g>
			<rect x="332" y="299.3" class="st0" width="13.3" height="0.9"/>
			<path class="st0" d="M345.8,300.6h-14.1v-1.7h14.1V300.6z M332.4,299.8H345v-0.1h-12.5V299.8z"/>
		</g>
	</g>
	<g>
		<g>
			<rect x="332" y="314.1" class="st0" width="13.3" height="0.9"/>
			<path class="st0" d="M345.8,315.3h-14.1v-1.7h14.1V315.3z M332.4,314.6H345v-0.1h-12.5V314.6z"/>
		</g>
	</g>
	<g>
		<g>
			<rect x="329.5" y="388.6" class="st0" width="18.4" height="4.7"/>
			<path class="st0" d="M348.3,393.7h-19.2v-5.4h19.2V393.7z M329.9,392.9h17.6V389h-17.6V392.9z"/>
		</g>
	</g>
	<g>
		<g>
			<rect x="331.9" y="358" class="st0" width="13.7" height="4.7"/>
			<path class="st0" d="M346,363.1h-14.5v-5.4H346V363.1z M332.3,362.3h12.9v-3.9h-12.9V362.3z"/>
		</g>
	</g>
	<g>
		<g>
			<rect x="329.5" y="327.6" class="st0" width="18.4" height="4.7"/>
			<path class="st0" d="M348.3,332.7h-19.2v-5.4h19.2V332.7z M329.9,331.9h17.6V328h-17.6V331.9z"/>
		</g>
	</g>
	<g>
		<g>
			<path class="st0" d="M282.5,405.9h-0.9v-21.3c-0.8-2.1-1.7-3.2-2.5-3.2h0c-1.2,0-2.5,2.3-2.8,3.2v21.3h-0.9v-21.4
				c0-0.1,0-0.1,0-0.2c0.2-0.4,1.6-3.9,3.7-3.9h0c1.3,0,2.4,1.3,3.4,3.9c0,0.1,0,0.1,0,0.2V405.9z"/>
			<path class="st0" d="M282.9,406.3h-1.7v-21.6c-1-2.6-1.8-2.9-2.1-2.9c-0.8,0-1.9,1.7-2.5,2.9v21.6H275v-21.8c0-0.1,0-0.2,0.1-0.3
				c0.2-0.4,1.7-4.1,4.1-4.1c1.5,0,2.7,1.4,3.8,4.1c0,0.1,0.1,0.2,0.1,0.3V406.3z M282,405.5h0.1v-21c-0.9-2.4-1.9-3.6-3-3.6
				c-1.9,0-3.3,3.5-3.3,3.6l0,21h0.1l0-21c0.1-0.1,1.5-3.5,3.2-3.5c1.1,0,2,1.2,2.9,3.5l0,0.1V405.5z"/>
		</g>
	</g>
	<g>
		<g>
			<path class="st0" d="M323,406.2h-0.9v-21.7c0-0.1,0-0.1,0-0.2c0.2-0.4,1.6-3.9,3.7-3.9h0c1.3,0,2.4,1.3,3.4,3.9
				c0,0.1,0,0.1,0,0.2v21.6h-0.9v-21.5c-0.8-2.1-1.7-3.2-2.5-3.2h0c-1.2,0-2.5,2.3-2.8,3.2V406.2z"/>
			<path class="st0" d="M323.4,406.6h-1.7v-22.1c0-0.1,0-0.2,0.1-0.3c0.3-0.7,1.8-4.1,4.1-4.1c1.5,0,2.7,1.4,3.8,4.1
				c0,0.1,0.1,0.2,0.1,0.3v22h-1.7v-21.8c-1-2.6-1.8-2.9-2.1-2.9c-0.8,0-1.9,1.7-2.5,2.9V406.6z M322.5,405.8h0.1l0-21.4
				c0.1-0.1,1.5-3.5,3.2-3.5c1,0,2,1.2,2.9,3.5l0,0.1v21.1h0.1v-21.2c-0.9-2.4-1.9-3.6-3-3.6c-1.5,0-2.8,2.3-3.3,3.6L322.5,405.8z"
				/>
		</g>
	</g>
	<g>
		<g>
			<path class="st0" d="M313.5,406.2h-0.9V382c-1.1-6.2-8.9-13.2-10.5-14.5c-6.7,5.3-10.2,14.1-10.5,15v23.4h-0.9v-23.5
				c0-0.1,0-0.1,0-0.2c0-0.1,3.7-10,11.1-15.7c0.2-0.1,0.4-0.1,0.6,0c0.4,0.3,9.9,8.1,11.1,15.4L313.5,406.2z"/>
			<path class="st0" d="M313.9,406.6h-1.7V382c-1-5.7-8.1-12.3-10.1-14c-6.2,5.1-9.6,13.3-10.1,14.5v23.7h-1.7v-23.9
				c0-0.1,0-0.2,0.1-0.3c0.2-0.4,3.9-10.2,11.2-15.8c0.3-0.2,0.7-0.2,1,0c0.4,0.3,10,8.2,11.2,15.6L313.9,406.6z M313,405.8h0.1
				l0-23.9c-1.2-7-10.6-14.7-11-15c-7.2,5.5-10.9,15.1-11,15.5l0,23.1h0.1l0-23.2c0.4-1,3.9-9.8,10.6-15.1l0.3-0.2l0.2,0.2
				c1.6,1.4,9.6,8.4,10.6,14.7L313,405.8z"/>
		</g>
	</g>
	<g>
		<g>
			<path class="st0" d="M319.1,405.9h-0.9v-43.9l-16.5-36.6l-15.9,36.6v44h-0.9v-44c0-0.1,0-0.1,0-0.2l16.3-37.6
				c0.1-0.2,0.2-0.3,0.4-0.3h0c0.2,0,0.3,0.1,0.4,0.3l17,37.6c0,0.1,0,0.1,0,0.2V405.9z"/>
			<path class="st0" d="M319.5,406.3h-1.7V362l-16.1-35.7L286.2,362v44.3h-1.7v-44.4c0-0.1,0-0.2,0.1-0.3l16.3-37.6
				c0.3-0.6,1.3-0.6,1.5,0l17,37.6c0,0.1,0.1,0.2,0.1,0.3V406.3z M318.6,405.5h0.1v-43.7l-17-37.6l-16.4,37.6l0,43.7h0.1l0-43.7
				l16.2-37.4l16.9,37.6V405.5z"/>
		</g>
	</g>
	<g>
		<g>
			<path class="st0" d="M319,362.9l-0.8-0.5l6.5-10.7c0.1-0.1,0.2-0.2,0.4-0.2h0c0.2,0,0.3,0.1,0.4,0.2l6.4,10.7l-0.8,0.5l-6-10
				L319,362.9z"/>
			<path class="st0" d="M319.1,363.4l-1.4-0.9l0.2-0.3l6.5-10.7c0.3-0.5,1.1-0.5,1.4,0l6.6,11l-1.4,0.9l-0.2-0.3l-5.7-9.5
				L319.1,363.4z M318.8,362.3L318.8,362.3l6.3-10.2l6.1,10.3l0.1-0.1l-6.2-10.3L318.8,362.3z"/>
		</g>
	</g>
	<g>
		<g>
			<path class="st0" d="M285.3,363.1h-13c-0.2,0-0.3-0.1-0.4-0.2c-0.1-0.1-0.1-0.3,0-0.5l6.5-10.7c0.2-0.3,0.6-0.3,0.8,0l6.5,10.7
				c0.1,0.1,0.1,0.3,0,0.5C285.6,363,285.5,363.1,285.3,363.1z M273.2,362.2h11.4l-5.7-9.4L273.2,362.2z"/>
			<path class="st0" d="M285.3,363.5h-13c-0.3,0-0.6-0.2-0.7-0.4c-0.1-0.3-0.1-0.6,0-0.8l6.5-10.7c0.3-0.5,1.1-0.5,1.4,0l6.5,10.7
				c0.2,0.3,0.2,0.6,0,0.9C285.9,363.3,285.6,363.5,285.3,363.5z M278.9,352l-6.6,10.7l13,0.1c0,0,0,0,0,0L278.9,352z M285.2,362.6
				h-12.8l6.4-10.5L285.2,362.6z M273.9,361.8h10l-5-8.2L273.9,361.8z"/>
		</g>
	</g>
	<g>
		<g>
			<rect x="272.4" y="343.7" class="st0" width="20.6" height="0.9"/>
			<path class="st0" d="M293.4,345H272v-1.7h21.4V345z M272.8,344.2h19.8v-0.1h-19.8V344.2z"/>
		</g>
	</g>
	<g>
		<g>
			<rect x="272.4" y="339.8" class="st0" width="22.2" height="0.9"/>
			<path class="st0" d="M294.9,341.1H272v-1.7h22.9V341.1z M272.8,340.3h21.4v-0.1h-21.4V340.3z"/>
		</g>
	</g>
	<g>
		<g>
			<rect x="308.9" y="339.8" class="st0" width="22.6" height="0.9"/>
			<path class="st0" d="M331.9,341.1h-23.4v-1.7h23.4V341.1z M309.3,340.3h21.8v-0.1h-21.8V340.3z"/>
		</g>
	</g>
	<g>
		<g>
			<rect x="310.8" y="343.7" class="st0" width="20.7" height="0.9"/>
			<path class="st0" d="M331.9,345h-21.5v-1.7h21.5V345z M311.2,344.2h19.9v-0.1h-19.9V344.2z"/>
		</g>
	</g>
	<g>
		<g>
			<path class="st0" d="M332,340.7h-12.9c-0.1,0-0.2,0-0.3-0.1c-0.1-0.1-0.1-0.2-0.1-0.3l0.1-42.9c0-0.1,0-0.2,0.1-0.2l6.1-10.1
				c0.1-0.1,0.2-0.2,0.4-0.2c0.2,0,0.3,0.1,0.4,0.2l6.7,10.1c0,0.1,0.1,0.2,0.1,0.2v42.9C332.5,340.5,332.3,340.7,332,340.7z
				 M319.6,339.8h11.9v-42.3l-6.2-9.4l-5.6,9.4L319.6,339.8z"/>
			<path class="st0" d="M332,341.1h-12.9c-0.2,0-0.4-0.1-0.6-0.2c-0.2-0.2-0.3-0.4-0.3-0.6l0.1-42.9c0-0.2,0-0.3,0.1-0.4l6.1-10.1
				c0.2-0.3,0.4-0.4,0.7-0.4c0.3,0,0.6,0.1,0.7,0.4l6.7,10.1c0.1,0.1,0.1,0.3,0.1,0.5v42.9C332.9,340.7,332.5,341.1,332,341.1z
				 M324.9,287l0.3,0.2l-6.1,10.1l-0.1,42.9l12.9,0.1c0,0,0.1,0,0.1,0v-42.9l-6.7-10.1L324.9,287z M332,340.2h-12.7v-0.4l0.1-42.4
				l6-10l6.6,10V340.2z M320,339.4h11.1v-41.8l-5.8-8.8l-5.3,8.8L320,339.4z"/>
		</g>
	</g>
	<g>
		<g>
			<path class="st0" d="M327.9,340.7h-5.3c-0.2,0-0.4-0.2-0.4-0.4v-14.6l0-0.1l2.8-22c0-0.2,0.2-0.4,0.4-0.4h0
				c0.2,0,0.4,0.2,0.4,0.4l2.5,22l0,14.6C328.3,340.5,328.1,340.7,327.9,340.7z M323,339.8h4.4v-14.1l-2.1-18.3l-2.3,18.3V339.8z"/>
			<path class="st0" d="M327.9,341.1h-5.3c-0.5,0-0.8-0.4-0.8-0.8l0-14.7l2.8-22c0.1-0.4,0.4-0.7,0.8-0.7c0.4,0,0.8,0.3,0.8,0.8
				l2.5,22l0,14.7C328.7,340.7,328.3,341.1,327.9,341.1z M325.3,303.6l-2.8,22v14.6l5.4,0c0,0,0,0,0,0l0-14.7l-2.5-22H325.3z
				 M327.8,340.2h-5.2v-14.5l2.8-21.6l2.5,21.6L327.8,340.2z M323.4,339.4h3.6v-13.8l-1.7-15l-1.9,15.1L323.4,339.4z"/>
		</g>
	</g>
	<g>
		<g>
			<path class="st0" d="M285.3,340.7h-13c-0.2,0-0.4-0.2-0.4-0.4V298c0-0.1,0-0.2,0.1-0.2l6.5-10.2c0.1-0.1,0.2-0.2,0.4-0.2h0
				c0.2,0,0.3,0.1,0.4,0.2l6.4,10.1c0,0.1,0.1,0.2,0.1,0.2v42.3C285.8,340.5,285.6,340.7,285.3,340.7z M272.8,339.8h12.1v-41.7
				l-6-9.4l-6.1,9.5V339.8z"/>
			<path class="st0" d="M285.3,341.1h-13c-0.5,0-0.8-0.4-0.8-0.8V298c0-0.2,0-0.3,0.1-0.5l6.5-10.2c0.3-0.5,1.1-0.5,1.4,0l6.4,10.1
				c0.1,0.1,0.1,0.3,0.1,0.5v42.3C286.2,340.7,285.8,341.1,285.3,341.1z M279,287.8l-6.6,10.2l0,42.3l13,0c0,0,0.1,0,0.1,0V298
				L279,287.8z M285.3,340.2h-12.9V298l6.5-10.1l6.4,10V340.2z M273.2,339.4h11.3v-41.2l-5.6-8.8l-5.7,8.8V339.4z"/>
		</g>
	</g>
	<g>
		<g>
			<path class="st0" d="M281.7,340.7h-5.3c-0.2,0-0.4-0.2-0.4-0.4v-14l0,0l2.8-22.1c0-0.2,0.2-0.4,0.4-0.4h0c0.2,0,0.4,0.2,0.4,0.4
				l2.5,22l0,14.1C282.2,340.5,282,340.7,281.7,340.7z M276.8,339.8h4.4v-13.6l-2.1-18.3l-2.3,18.3V339.8z"/>
			<path class="st0" d="M281.7,341.1h-5.3c-0.5,0-0.8-0.4-0.8-0.8v-14l2.8-22.1c0.1-0.4,0.4-0.7,0.8-0.7c0.4,0,0.8,0.3,0.8,0.7
				l2.5,22l0,14.1C282.6,340.7,282.2,341.1,281.7,341.1z M278.8,304.1l0.4,0l-2.8,22.1l0,14l5.4,0c0,0,0,0,0,0l0-14.1l-2.5-22
				L278.8,304.1z M281.7,340.2h-5.2v-13.9l2.8-21.6l2.5,21.6L281.7,340.2z M277.2,339.4h3.6v-13.2l-1.7-15l-1.9,15.1L277.2,339.4z"
				/>
		</g>
	</g>
	<g>
		<g>
			<g>
				<path class="st0" d="M296.3,320.4H289c-0.2,0-0.4-0.2-0.4-0.4v-12.5c0-0.1,0-0.2,0.1-0.3l4-5.8c0.1-0.1,0.2-0.2,0.4-0.2
					c0.2,0,0.3,0.1,0.4,0.2l3.3,5.8c0,0.1,0.1,0.1,0.1,0.2V320C296.7,320.2,296.5,320.4,296.3,320.4z M289.4,319.5h6.4v-11.9
					l-2.9-5.1l-3.5,5.1V319.5z"/>
				<path class="st0" d="M296.3,320.8H289c-0.5,0-0.8-0.4-0.8-0.8v-12.5c0-0.2,0.1-0.3,0.2-0.5l4-5.8c0.2-0.3,0.5-0.4,0.8-0.4
					c0.2,0,0.5,0.2,0.6,0.4l3.3,5.8c0.1,0.1,0.1,0.3,0.1,0.4V320C297.1,320.4,296.7,320.8,296.3,320.8z M293,301.7l-4.1,5.8l0,12.5
					l7.3,0c0,0,0.1,0,0.1,0v-12.5L293,301.7z M296.2,319.9H289v-12.4l4-5.7l3.2,5.7V319.9z M289.8,319.1h5.6v-11.4l-2.5-4.4
					l-3.1,4.5V319.1z"/>
			</g>
		</g>
		<g>
			<g>
				
					<rect x="292.4" y="301.8" transform="matrix(0.9997 2.538244e-002 -2.538244e-002 0.9997 7.9856 -7.3331)" class="st0" width="0.9" height="18.2"/>
				<path class="st0" d="M293.5,320.4l-1.7,0l0.5-18.9l1.7,0L293.5,320.4z M292.6,319.6l0.1,0l0.4-17.4l-0.1,0L292.6,319.6z"/>
			</g>
		</g>
	</g>
	<g>
		<g>
			<g>
				<path class="st0" d="M305.7,320.4h-7.3c-0.2,0-0.4-0.2-0.4-0.4v-12.5c0-0.1,0-0.2,0.1-0.3l4-5.8c0.1-0.1,0.2-0.2,0.4-0.2
					c0.2,0,0.3,0.1,0.4,0.2l3.3,5.8c0,0.1,0.1,0.1,0.1,0.2V320C306.2,320.2,306,320.4,305.7,320.4z M298.9,319.5h6.4v-11.9l-2.9-5.1
					l-3.5,5.1V319.5z"/>
				<path class="st0" d="M305.7,320.8h-7.3c-0.5,0-0.8-0.4-0.8-0.8v-12.5c0-0.2,0.1-0.3,0.2-0.5l4-5.8c0.2-0.3,0.5-0.4,0.8-0.4
					c0.3,0,0.5,0.2,0.6,0.4l3.3,5.8c0.1,0.1,0.1,0.3,0.1,0.4V320C306.6,320.4,306.2,320.8,305.7,320.8z M302.5,301.7l-4.1,5.8
					l0,12.5l7.3,0c0,0,0.1,0,0.1,0v-12.5L302.5,301.7z M305.7,319.9h-7.2v-12.4l4-5.7l3.2,5.7V319.9z M299.3,319.1h5.6v-11.4
					l-2.5-4.4l-3.1,4.5V319.1z"/>
			</g>
		</g>
		<g>
			<g>
				
					<rect x="301.8" y="301.9" transform="matrix(0.9999 1.367060e-002 -1.367060e-002 0.9999 4.2788 -4.1023)" class="st0" width="0.9" height="18.1"/>
				<path class="st0" d="M302.9,320.4l-1.7,0l0.3-18.9l1.7,0L302.9,320.4z M302,319.6h0.1l0.2-17.3h-0.1L302,319.6z"/>
			</g>
		</g>
	</g>
	<g>
		<g>
			<g>
				<path class="st0" d="M315.5,320.4h-7.3c-0.2,0-0.4-0.2-0.4-0.4v-12.5c0-0.1,0-0.2,0.1-0.3l4-5.8c0.1-0.1,0.2-0.2,0.4-0.2
					c0.2,0,0.3,0.1,0.4,0.2l3.3,5.8c0,0.1,0.1,0.1,0.1,0.2V320C315.9,320.2,315.7,320.4,315.5,320.4z M308.6,319.5h6.4v-11.9
					l-2.9-5.1l-3.5,5.1V319.5z"/>
				<path class="st0" d="M315.5,320.8h-7.3c-0.5,0-0.8-0.4-0.8-0.8v-12.5c0-0.2,0-0.3,0.1-0.5l4-5.8c0.2-0.3,0.5-0.4,0.8-0.4
					c0.2,0,0.5,0.2,0.6,0.4l3.3,5.8c0.1,0.1,0.1,0.3,0.1,0.4V320C316.3,320.4,315.9,320.8,315.5,320.8z M312.1,301.6l-4,5.8l0,12.5
					l7.3,0c0,0,0,0,0,0v-12.5L312.1,301.6z M315.4,319.9h-7.2v-12.4l4-5.7l3.2,5.7V319.9z M309,319.1h5.6v-11.4l-2.5-4.4l-3.1,4.5
					V319.1z"/>
			</g>
		</g>
		<g>
			<g>
				
					<rect x="311.5" y="301.9" transform="matrix(0.9998 1.952753e-002 -1.952753e-002 0.9998 6.1311 -6.0329)" class="st0" width="0.9" height="18.1"/>
				<path class="st0" d="M312.6,320.4l-1.7,0l0-0.4l0.4-18.5l1.7,0l0,0.4L312.6,320.4z M311.8,319.6l0.1,0l0.3-17.3h-0.1
					L311.8,319.6z"/>
			</g>
		</g>
	</g>
	<g>
		<g>
			<rect x="282.7" y="164.9" class="st0" width="0.9" height="82.8"/>
			<path class="st0" d="M283.9,248.1h-1.7v-83.6h1.7V248.1z M283,247.3h0.1v-82H283V247.3z"/>
		</g>
	</g>
	<g>
		<g>
			<rect x="321.5" y="164.9" class="st0" width="0.9" height="81.6"/>
			<path class="st0" d="M322.8,246.9h-1.7v-82.4h1.7V246.9z M321.9,246.1h0.1v-80.8h-0.1V246.1z"/>
		</g>
	</g>
	<g>
		<g>
			<path class="st0" d="M321.6,199.5l-19.3-36.3l-18.8,35.2l-0.8-0.4l19.2-36c0.1-0.1,0.2-0.2,0.4-0.2h0c0.2,0,0.3,0.1,0.4,0.2
				l19.7,37.1L321.6,199.5z"/>
			<path class="st0" d="M321.4,200l-19.1-36l-18.7,34.9l-1.5-0.8l0.2-0.3l19.2-36c0.3-0.6,1.2-0.6,1.5,0l19.8,37.4L321.4,200z
				 M302.3,162.3l0.3,0.7l19.1,36l0.1,0l-19.5-36.7l-19.1,35.6l0.1,0L302.3,162.3z"/>
		</g>
	</g>
	<g>
		<g>
			<path class="st0" d="M322,185L322,185l-7.9-0.1c-0.2,0-0.4-0.2-0.4-0.4L302,109.1l-11.2,75.5c0,0.2-0.2,0.4-0.4,0.4h-7.3
				c-0.1,0-0.3-0.1-0.4-0.2c-0.1-0.1-0.1-0.2-0.1-0.4l18.9-78.4c0-0.1,0-0.1,0.1-0.2h0l0,0l0,0l0,0l0,0c0,0,0-0.1,0-0.1
				c0.1-0.1,0.2-0.1,0.3-0.1c0.1,0,0.2,0,0.3,0.1v0l0,0l0,0l0,0l0,0l0,0c0,0.1,0.1,0.1,0.1,0.2l20,78.4c0,0.1,0,0.3-0.1,0.4
				C322.2,184.9,322.1,185,322,185z M283.7,184.1h6.3l10.1-68.1L283.7,184.1z M314.5,184l6.9,0.1l-17.6-68.8L314.5,184z"/>
			<path class="st0" d="M322,185.4L322,185.4l-7.9-0.1c-0.4,0-0.8-0.3-0.8-0.7L302,111.8l-10.8,72.9c-0.1,0.4-0.4,0.7-0.8,0.7h-7.3
				c-0.3,0-0.5-0.1-0.7-0.3c-0.2-0.2-0.2-0.5-0.2-0.7l18.9-78.4c0-0.1,0.1-0.2,0.1-0.3l0.2-0.2c0.1-0.1,0.3-0.2,0.5-0.2h0
				c0.1,0,0.3,0,0.4,0.1l0.1,0l0.1,0.1c0.1,0.1,0.1,0.2,0.2,0.3l20,78.4c0.1,0.3,0,0.5-0.2,0.7C322.5,185.3,322.2,185.4,322,185.4z
				 M302,106.5l12.1,78l7.9,0.2l0,0.4v-0.4l0,0l-20-78.5l0,0l0,0l-0.1,0.1L283,184.5l7.3,0.1L302,106.5z M290.3,184.5h-7.2
				l16.5-68.6l0.8,0.2L290.3,184.5z M284.2,183.7h5.5l8.7-59.1L284.2,183.7z M321.9,184.5l-7.8-0.1l0-0.3l-10.6-68.7l0.8-0.2
				L321.9,184.5z M314.8,183.6l6.1,0.1l-15.4-60.4L314.8,183.6z"/>
		</g>
	</g>
	<g>
		<g>
			<rect x="283.1" y="240.9" class="st0" width="38.9" height="0.9"/>
			<path class="st0" d="M322.4,242.1h-39.7v-1.7h39.7V242.1z M283.5,241.3h38.1v-0.1h-38.1V241.3z"/>
		</g>
	</g>
	<g>
		<g>
			<rect x="283.3" y="247.8" class="st0" width="37.7" height="0.9"/>
			<path class="st0" d="M321.4,249.1h-38.5v-1.7h38.5V249.1z M283.7,248.3h36.9v-0.1h-36.9V248.3z"/>
		</g>
	</g>
	<g>
		<g>
			<rect x="287" y="241.3" class="st0" width="0.9" height="6.9"/>
			<path class="st0" d="M288.3,248.6h-1.7v-7.7h1.7V248.6z M287.4,247.8h0.1v-6.1h-0.1V247.8z"/>
		</g>
	</g>
	<g>
		<g>
			<rect x="290.7" y="241.3" class="st0" width="0.9" height="6.9"/>
			<path class="st0" d="M292,248.6h-1.7v-7.7h1.7V248.6z M291.1,247.8h0.1v-6.1h-0.1V247.8z"/>
		</g>
	</g>
	<g>
		<g>
			<rect x="294.4" y="241.3" class="st0" width="0.9" height="6.9"/>
			<path class="st0" d="M295.7,248.6H294v-7.7h1.7V248.6z M294.8,247.8h0.1v-6.1h-0.1V247.8z"/>
		</g>
	</g>
	<g>
		<g>
			<rect x="298.1" y="241.3" class="st0" width="0.9" height="6.9"/>
			<path class="st0" d="M299.4,248.6h-1.7v-7.7h1.7V248.6z M298.5,247.8h0.1v-6.1h-0.1V247.8z"/>
		</g>
	</g>
	<g>
		<g>
			<rect x="301.8" y="241.3" class="st0" width="0.9" height="6.9"/>
			<path class="st0" d="M303,248.6h-1.7v-7.7h1.7V248.6z M302.1,247.8h0.1v-6.1h-0.1V247.8z"/>
		</g>
	</g>
	<g>
		<g>
			<rect x="305.4" y="241.3" class="st0" width="0.9" height="6.9"/>
			<path class="st0" d="M306.7,248.6H305v-7.7h1.7V248.6z M305.8,247.8h0.1v-6.1h-0.1V247.8z"/>
		</g>
	</g>
	<g>
		<g>
			<rect x="309.1" y="241.3" class="st0" width="0.9" height="6.9"/>
			<path class="st0" d="M310.4,248.6h-1.7v-7.7h1.7V248.6z M309.5,247.8h0.1v-6.1h-0.1V247.8z"/>
		</g>
	</g>
	<g>
		<g>
			<rect x="312.8" y="241.3" class="st0" width="0.9" height="6.9"/>
			<path class="st0" d="M314.1,248.6h-1.7v-7.7h1.7V248.6z M313.2,247.8h0.1v-6.1h-0.1V247.8z"/>
		</g>
	</g>
	<g>
		<g>
			<rect x="316.5" y="241.3" class="st0" width="0.9" height="6.9"/>
			<path class="st0" d="M317.8,248.6h-1.7v-7.7h1.7V248.6z M316.9,247.8h0.1v-6.1h-0.1V247.8z"/>
		</g>
	</g>
	<g>
		<g>
			<path class="st0" d="M306.7,241.3h-0.9v-12.1l-2.9-5.9l-3.5,6.1v11.8h-0.9v-12c0-0.1,0-0.2,0.1-0.2l4-6.9
				c0.1-0.1,0.2-0.2,0.4-0.2c0.2,0,0.3,0.1,0.4,0.2l3.4,6.7c0,0.1,0,0.1,0,0.2V241.3z"/>
			<path class="st0" d="M307.1,241.7h-1.7v-12.4l-2.6-5.1l-3.1,5.4v12.1H298v-12.3c0-0.2,0-0.3,0.1-0.4l4-6.9
				c0.2-0.3,0.5-0.5,0.8-0.4c0.3,0,0.6,0.2,0.7,0.5l3.4,6.7c0.1,0.1,0.1,0.2,0.1,0.4V241.7z M306.2,240.9h0.1v-11.8l-3.4-6.7
				l-4.1,6.9l0,11.6h0.1v-11.5l0.1-0.1l3.9-6.7l3.3,6.7V240.9z"/>
		</g>
	</g>
	<g>
		<g>
			<path class="st0" d="M331.5,294.9h-1.9V294h1.4v-42.8l-5.8-9l-5.5,9V294h1.2v0.9h-1.7c-0.2,0-0.4-0.2-0.4-0.4V251
				c0-0.1,0-0.2,0.1-0.2l6-9.7c0.1-0.1,0.2-0.2,0.4-0.2c0.2,0,0.3,0.1,0.4,0.2l6.3,9.7c0,0.1,0.1,0.2,0.1,0.2v43.4
				C331.9,294.7,331.7,294.9,331.5,294.9z"/>
			<path class="st0" d="M331.5,295.3h-2.3v-1.7h1.4v-42.3l-5.4-8.4l-5.2,8.4v42.3h1.2v1.7h-2.1c-0.5,0-0.8-0.4-0.8-0.8V251
				c0-0.2,0-0.3,0.1-0.4l6-9.7c0.2-0.2,0.4-0.4,0.7-0.4c0.2,0,0.5,0.1,0.7,0.4l6.3,9.7c0.1,0.1,0.1,0.3,0.1,0.5v43.4
				C332.3,294.9,331.9,295.3,331.5,295.3z M330,294.5h1.5c0,0,0,0,0,0V251l-6.3-9.7l-6.1,9.7l0,43.4l1.3,0v-0.1h-1.2V251l5.9-9.6
				l6.2,9.6v43.4H330V294.5z"/>
		</g>
	</g>
	<g>
		<g>
			<path class="st0" d="M272.4,295c-0.1,0-0.2,0-0.3-0.1c-0.1-0.1-0.1-0.2-0.1-0.3l0.6-43.5c0-0.1,0-0.2,0.1-0.2l6-9.7
				c0.1-0.1,0.2-0.2,0.4-0.2c0.2,0,0.3,0.1,0.4,0.2l6.3,9.7c0,0.1,0.1,0.2,0.1,0.2v43.4c0,0.2-0.2,0.4-0.4,0.4h-1.9V294h1.4v-42.8
				l-5.8-9l-5.5,9l-0.6,42.9l1.8-0.1l0,0.9L272.4,295L272.4,295z"/>
			<path class="st0" d="M272.4,295.4L272.4,295.4c-0.3,0-0.5-0.1-0.6-0.2c-0.2-0.2-0.3-0.4-0.3-0.6l0.6-43.5c0-0.1,0-0.3,0.1-0.4
				l6-9.7c0.2-0.2,0.4-0.4,0.7-0.4c0.3,0,0.5,0.1,0.7,0.4l6.3,9.7c0.1,0.1,0.1,0.3,0.1,0.5v43.4c0,0.5-0.4,0.8-0.8,0.8h-2.3v-1.7
				h1.4v-42.3l-5.4-8.4l-5.2,8.4l-0.5,42.4l1.7-0.1l0.1,1.7L272.4,295.4z M279,241.3l-6.1,9.7l-0.6,43.6l0.1,0.1l1.8-0.1l0-0.1
				l-1.8,0.1l0-0.4l0.6-43l0.1-0.1l5.9-9.5l6.2,9.6v43.4h-1.4v0.1h1.5l0-43.5L279,241.3z"/>
		</g>
	</g>
	<g>
		<g>
			<rect x="285.2" y="294" class="st0" width="34" height="0.9"/>
			<path class="st0" d="M319.6,295.3h-34.8v-1.7h34.8V295.3z M285.6,294.5h33.2v-0.1h-33.2V294.5z"/>
		</g>
	</g>
	<g>
		<g>
			<path class="st0" d="M273.6,250.4h-8.1c-0.2,0-0.4-0.2-0.4-0.4v-28.4l4.9-37.7c0-0.2,0.2-0.4,0.4-0.4c0.2,0,0.4,0.2,0.4,0.4
				l4.7,37.6l0,0v25.9c0,0.1,0,0.2-0.1,0.2l-1.5,2.4C273.9,250.4,273.7,250.4,273.6,250.4z M265.9,249.6h7.4l1.3-2.1v-25.8
				l-4.3-34.1l-4.5,34.2L265.9,249.6z"/>
			<path class="st0" d="M273.6,250.8h-8.1c-0.5,0-0.8-0.4-0.8-0.8v-28.4l4.9-37.8c0-0.2,0.2-0.4,0.3-0.6c0.2-0.1,0.4-0.2,0.6-0.2
				c0.4,0,0.7,0.3,0.8,0.7l4.7,37.6l0,26c0,0.2,0,0.3-0.1,0.4l-1.5,2.4C274.1,250.7,273.9,250.8,273.6,250.8z M270.3,183.9
				l-4.9,37.8l0,28.3l8.2,0c0,0,0,0,0,0l1.5-2.4l0-26L270.3,183.9L270.3,183.9z M273.5,249.9h-8l0-28.3l4.9-37.3l4.6,37.2l0,25.9
				L273.5,249.9z M266.3,249.2h6.8l1.1-1.8v-25.7l-3.9-31l-4.1,31.1L266.3,249.2z"/>
		</g>
	</g>
	<g>
		<g>
			<path class="st0" d="M275.1,222.6h-9.6c-0.2,0-0.3-0.1-0.4-0.2c-0.1-0.1-0.1-0.3,0-0.4l5-10.4c0.1-0.2,0.2-0.3,0.4-0.3
				c0.2,0,0.3,0.1,0.4,0.3l4.6,10.4c0.1,0.1,0,0.3,0,0.4S275.2,222.6,275.1,222.6z M266.2,221.7h8.2l-3.9-8.9L266.2,221.7z"/>
			<path class="st0" d="M275.1,223h-9.6c-0.3,0-0.6-0.2-0.7-0.4c-0.1-0.2-0.2-0.6,0-0.8l5-10.4c0.1-0.3,0.5-0.5,0.8-0.5
				c0.3,0,0.6,0.2,0.7,0.5l4.6,10.4c0.1,0.3,0.1,0.6-0.1,0.8C275.6,222.9,275.3,223,275.1,223z M270.5,211.8l-5.1,10.4l9.7,0.1l0,0
				L270.5,211.8z M275,222.1h-9.4l4.9-10.2L275,222.1z M266.8,221.4h7l-3.3-7.5L266.8,221.4z"/>
		</g>
	</g>
	<g>
		<g>
			<path class="st0" d="M338.4,250.4h-7.6c-0.2,0-0.3-0.1-0.4-0.2l-1.7-2.7c0-0.1-0.1-0.2-0.1-0.2l-0.3-25.7l0-0.1l4.7-37.6
				c0-0.2,0.2-0.4,0.4-0.4h0c0.2,0,0.4,0.2,0.4,0.4l4.9,37.6l0,28.4C338.8,250.2,338.6,250.4,338.4,250.4z M331.1,249.6h6.9v-27.9
				l-4.5-34.1l-4.3,34.1l0.3,25.5L331.1,249.6z"/>
			<path class="st0" d="M338.4,250.8h-7.6c-0.3,0-0.6-0.1-0.7-0.4l-1.7-2.7c-0.1-0.1-0.1-0.3-0.1-0.5l-0.3-25.7l0-0.1l4.7-37.6
				c0.1-0.4,0.4-0.7,0.8-0.7c0.4,0,0.8,0.3,0.8,0.7l4.9,37.6l0,28.5C339.2,250.5,338.9,250.8,338.4,250.8z M333,183.9l0.4,0
				l-4.7,37.6l0.3,25.7l1.7,2.7l7.6,0c0,0,0.1,0,0.1,0l0-28.4l-4.9-37.6L333,183.9z M338.3,249.9h-7.5l-1.7-2.6v-0.1l-0.3-25.5
				l4.6-37.3l4.9,37.2L338.3,249.9z M331.3,249.2h6.3v-27.5l-4.1-31l-3.9,31.1l0.3,25.4L331.3,249.2z"/>
		</g>
	</g>
	<g>
		<g>
			<path class="st0" d="M338.4,222.6h-9.6c-0.2,0-0.3-0.1-0.4-0.2c-0.1-0.1-0.1-0.3,0-0.4l5-10.4c0.1-0.2,0.2-0.3,0.4-0.3
				c0.2,0,0.3,0.1,0.4,0.3l4.6,10.4c0.1,0.1,0,0.3,0,0.4S338.5,222.6,338.4,222.6z M329.5,221.7h8.2l-3.9-8.9L329.5,221.7z"/>
			<path class="st0" d="M338.4,223h-9.6c-0.3,0-0.6-0.1-0.7-0.4c-0.2-0.3-0.2-0.6,0-0.8l5-10.4c0.1-0.3,0.5-0.5,0.8-0.5
				c0.3,0,0.6,0.2,0.7,0.5l4.6,10.4c0.1,0.3,0.1,0.6-0.1,0.8C338.9,222.9,338.7,223,338.4,223z M333.9,211.8l-5.1,10.4l9.7,0.1l0,0
				L333.9,211.8z M338.3,222.1h-9.4l4.9-10.2L338.3,222.1z M330.1,221.4h7l-3.3-7.5L330.1,221.4z"/>
		</g>
	</g>
	<g>
		<g>
			<rect x="269.8" y="229.5" class="st0" width="0.9" height="10.4"/>
			<path class="st0" d="M271.1,240.2h-1.7v-11.1h1.7V240.2z M270.2,239.4h0.1v-9.6h-0.1V239.4z"/>
		</g>
	</g>
	<g>
		<g>
			<rect x="267.8" y="231.4" class="st0" width="4.9" height="0.9"/>
			<path class="st0" d="M273.1,232.7h-5.7V231h5.7V232.7z M268.2,231.9h4.1v-0.1h-4.1V231.9z"/>
		</g>
	</g>
	<g>
		<g>
			<rect x="333.2" y="230.2" class="st0" width="0.9" height="10.4"/>
			<path class="st0" d="M334.5,241h-1.7v-11.1h1.7V241z M333.6,240.2h0.1v-9.6h-0.1V240.2z"/>
		</g>
	</g>
	<g>
		<g>
			<rect x="331.2" y="232.2" class="st0" width="4.9" height="0.9"/>
			<path class="st0" d="M336.5,233.4h-5.7v-1.7h5.7V233.4z M331.6,232.7h4.1v-0.1h-4.1V232.7z"/>
		</g>
	</g>
	<g>
		<g>
			<path class="st0" d="M302,204c-3.9,0-7.1-3.2-7.1-7.1s3.2-7.1,7.1-7.1s7.1,3.2,7.1,7.1S305.9,204,302,204z M302,190.6
				c-3.4,0-6.3,2.8-6.3,6.3c0,3.4,2.8,6.3,6.3,6.3c3.4,0,6.3-2.8,6.3-6.3C308.2,193.4,305.4,190.6,302,190.6z"/>
			<path class="st0" d="M302,204.4c-4.2,0-7.5-3.4-7.5-7.5c0-4.2,3.4-7.5,7.5-7.5c4.2,0,7.5,3.4,7.5,7.5
				C309.5,201,306.1,204.4,302,204.4z M302,190.1c-3.7,0-6.8,3-6.8,6.8c0,3.7,3,6.8,6.8,6.8c3.7,0,6.8-3,6.8-6.8
				C308.7,193.1,305.7,190.1,302,190.1z M302,203.5c-3.7,0-6.7-3-6.7-6.7c0-3.7,3-6.6,6.7-6.6c3.7,0,6.6,3,6.6,6.6
				C308.6,200.5,305.6,203.5,302,203.5z M302,191c-3.2,0-5.9,2.6-5.9,5.9s2.6,5.9,5.9,5.9s5.9-2.6,5.9-5.9S305.2,191,302,191z"/>
		</g>
	</g>
	<g>
		<g>
			<path class="st0" d="M332.1,406.7L332.1,406.7l-177.6-0.7l0-0.9l177.2,0.7V251h0.9v155.2c0,0.1,0,0.2-0.1,0.3
				C332.3,406.6,332.2,406.7,332.1,406.7z"/>
			<path class="st0" d="M332.1,407.1L332.1,407.1l-178-0.7l0-1.7l0.4,0l176.8,0.7V250.6h1.7v155.6c0,0.2-0.1,0.4-0.2,0.6
				C332.5,407,332.3,407.1,332.1,407.1z M154.8,405.5l177.2,0.7c0,0,0,0,0,0l0-154.9H332v154.8l-0.4,0l-176.8-0.7L154.8,405.5z"/>
		</g>
	</g>
	<g>
		<g>
			<rect x="265.4" y="247.2" class="st0" width="9.6" height="0.9"/>
			<path class="st0" d="M275.5,248.5h-10.4v-1.7h10.4V248.5z M265.8,247.7h8.8v-0.1h-8.8V247.7z"/>
		</g>
	</g>
	<g>
		<g>
			<rect x="329.3" y="247.2" class="st0" width="9.2" height="0.9"/>
			<path class="st0" d="M338.9,248.5h-10v-1.7h10V248.5z M329.7,247.7h8.4v-0.1h-8.4V247.7z"/>
		</g>
	</g>
</g>
</svg>
