<?xml version="1.0" encoding="utf-8"?>
<!-- Generator: Adobe Illustrator 19.1.0, SVG Export Plug-In . SVG Version: 6.00 Build 0)  -->
<svg version="1.1" id="Layer_1" xmlns="http://www.w3.org/2000/svg" xmlns:xlink="http://www.w3.org/1999/xlink" x="0px" y="0px"
	 viewBox="0 0 500 500" style="enable-background:new 0 0 500 500;" xml:space="preserve">
<style type="text/css">
	.st0{fill:#F8B017;}
	.st1{fill:none;}
	.st2{fill:#F5AF19;}
	.st3{fill:#E5D7C8;}
	.st4{fill:#F4AE19;}
	.st5{fill:#F7AF17;}
	.st6{fill:#0FA2D4;}
</style>
<g>
	<path class="st0" d="M364.9,236.8c-1.8-0.9-1.6-2.3-1.5-4c0-0.4,0.1-0.7,0.1-1.1c0-0.7,0.3-1.5,0.7-2.5c0.2-0.5,0.4-1.2,0.7-1.9
		l0.1-0.3l-0.2-0.2c-0.4-0.4-0.8-1-1.2-1.6c-1.3-1.9-2.9-4.3-6.7-3.7c-0.2,0-0.9-0.6-1.2-1.1c-1.3-2.7-3.1-2.3-5.2-1.8l-0.3,0.1
		c-2.9,0.7-6,0.8-9,0.9c-0.9,0-1.8,0.1-2.5,0.1c-0.2-0.1-0.5-0.6-0.6-0.9c-0.2-2.4-0.3-4.7-0.5-7.3l-0.1-2.1c1.1,0,2.2,0,3.3,0
		c3,0,5.9,0,8.8,0.1c2.6,0.1,3.9-0.8,4.5-3.1c0.3-1.1,0.8-2.2,1.2-3.2c0.3-0.6,0.5-1.2,0.8-1.8c0.1-0.3,0.2-0.5,0.3-0.8
		c0.6-1.3,1.4-3-0.9-4.7c-0.2-0.2-0.4-0.6-0.4-1.2c-0.1-1.9,0.9-5.1,2-6.1l0.4-0.3l-0.3-0.4c-0.5-0.5-0.9-1.2-1.3-1.8
		c-1.5-2.2-3.2-4.6-7-4.1c-0.2,0-0.9-0.7-1.3-1.4c-0.8-1.4-2-2.2-3.2-2.3c-1.2,0-2.3,0.7-3.1,2c-0.1,0.2-0.2,0.4-0.3,0.6
		c-0.1,0.3-0.3,0.7-0.5,0.7c-2.4,1-4.8,1.9-7.4,2.9l-2.2,0.8l-4.4-8.6c0.4-0.1,0.8-0.1,1.1-0.2c1.5-0.2,2.7-0.3,3.2-1.2
		c1.9-3.5,3.2-6.8,3.9-9.9c0.2-1.1-0.3-2.3-0.7-3.4c-0.3-0.8-0.7-1.6-0.8-2.4c-0.1-0.8,0.3-1.8,0.7-2.9c0.2-0.6,0.4-1.3,0.7-2
		l0.1-0.3l-0.2-0.2c-0.3-0.4-0.7-0.9-1-1.4c-1.3-2-3-4.5-6.9-3.9c-0.1-0.1-0.4-0.4-0.6-0.7c-0.3-0.3-0.5-0.7-0.8-0.9
		c-0.2-0.1-0.4-0.3-0.6-0.5c-0.8-0.7-1.6-1.4-2.5-1.4h0c-0.9,0-1.8,0.8-2.5,1.5c-0.2,0.2-0.3,0.3-0.5,0.5c-0.3,0.3-0.6,0.7-0.8,1
		c-0.1,0.2-0.3,0.4-0.4,0.5c-4.1-0.6-5.9,2-7.6,4.5c-0.4,0.6-0.8,1.2-1.3,1.7c-0.6-0.4-1.1-0.9-1.7-1.3c-2.2-1.6-4.4-3.3-6.5-5.1
		c-0.2-0.2-0.3-1.2-0.1-1.9c0.1-0.3,0.2-0.6,0.3-0.9c0.5-1.3,1.1-2.9-1-4.5c-0.2-0.2-0.4-0.6-0.4-1.2c-0.1-1.9,0.9-5.1,2-6.2
		l0.3-0.3l-0.3-0.4c-0.4-0.5-0.8-1.1-1.2-1.7c-1.6-2.3-3.3-4.9-7.3-4.3c-0.1-0.1-0.4-0.4-0.5-0.7c-0.3-0.4-0.5-0.8-0.9-1
		c-0.1-0.1-0.3-0.2-0.5-0.4c-0.8-0.7-1.6-1.4-2.6-1.4c-0.8-0.1-1.6,0.6-2.3,1.3c-0.2,0.2-0.4,0.3-0.5,0.5c-0.3,0.3-0.6,0.6-0.9,0.9
		c-0.2,0.3-0.6,0.7-0.7,0.8c-3.8-0.5-5.5,1.9-7,4c-0.4,0.6-0.8,1.2-1.2,1.7l-0.2,0.3l1.9,3.6l-2.7-0.5c-4.6-0.9-8.7-1.8-12.8-2.7
		c-0.4-0.1-0.8-0.3-0.9-0.6c-0.8-1.2,0.1-5.9,1.6-7.3l0.4-0.4l-0.4-0.4c-0.6-0.6-1.1-1.3-1.5-2c-1.5-2.2-3.2-4.6-7.1-4
		c-0.2,0-0.8-0.6-1.2-1.2c-0.9-1.5-2.1-2.3-3.3-2.3c-1.2,0-2.3,0.8-3.2,2.2c-0.4,0.7-1,1.2-1.1,1.3c-4-0.6-5.7,1.9-7.2,4.1
		c-0.4,0.6-0.9,1.3-1.4,1.9l-0.3,0.4l0.4,0.3c1.5,1.4,2.4,6,1.6,7.3c-0.1,0.2-0.4,0.3-0.7,0.5c-0.1,0.1-0.2,0.1-0.3,0.2
		c-0.1,0-0.4,0-0.5,0l-15.4,3.3l1.8-4l-0.2-0.2c-0.4-0.5-0.8-1-1.2-1.6c-1.4-2-3-4.5-6.9-3.9c-0.1-0.1-0.4-0.4-0.6-0.7
		c-0.3-0.3-0.5-0.7-0.8-0.9c-0.2-0.2-0.4-0.3-0.6-0.5c-0.8-0.7-1.5-1.4-2.4-1.4h0c-0.9,0-1.7,0.7-2.5,1.4c-0.2,0.2-0.4,0.3-0.6,0.5
		c-0.3,0.2-0.6,0.6-0.8,0.9c-0.2,0.2-0.5,0.6-0.5,0.7c-4-0.6-5.7,1.9-7.3,4.2c-0.4,0.6-0.9,1.3-1.3,1.8l-0.3,0.4l0.4,0.3
		c2.5,2.3,2.3,6,0.8,8.4c-0.7,1.1-0.1,3.1,0.3,4.2c0.7,1.6,0.5,2.4-0.9,3.3c-1.1,0.7-2.2,1.5-3.2,2.4c-0.3,0.3-0.6,0.5-1,0.8
		c-0.9,0.7-1.7,1.4-2.6,2.1l-0.7,0.6c-0.2-0.4-0.4-0.7-0.6-1.1c-1.8-3.1-3.7-6.2-8.4-5.7c-0.1-0.1-0.3-0.4-0.4-0.5
		c-0.2-0.3-0.5-0.7-0.8-1c-0.2-0.1-0.3-0.3-0.5-0.4c-0.8-0.7-1.6-1.5-2.5-1.5h0c-0.9,0-1.7,0.7-2.5,1.4c-0.2,0.2-0.4,0.4-0.6,0.5
		c-0.3,0.2-0.5,0.6-0.8,0.9c-0.2,0.3-0.5,0.7-0.7,0.7c-4.8,0.9-5.9,1.7-8.3,6.2l-0.2,0.3l0.3,0.3c2.1,1.9,2.3,5.7,0.5,8.1
		c-0.4,0.6-0.6,1.6-0.4,2.4c0.2,0.9,0.6,1.8,1,2.7l0.3,0.6c0.2,0.6,0.4,1.1,0.7,1.7c1,2.8,2.1,5.9,6.8,5l-5,9.9l-0.8-0.5
		c-1-0.6-2-1.2-3-1.8c-0.1-0.1-0.3-0.2-0.4-0.3c-0.5-0.3-1.1-0.7-1.7-0.7h0c-2.3,0.1-3.5-0.6-4.5-2.4c-0.5-0.9-1.3-1.4-2.3-1.4
		l-0.1,0c-1.2,0-2.4,0.8-3.2,2l-0.1,0.2c-0.2,0.4-0.9,1.4-1,1.5c-4.1-0.7-5.9,1.9-7.5,4.2c-0.4,0.6-0.8,1.2-1.3,1.7l-0.3,0.3
		l0.3,0.3c2.2,2.5,2.5,5.9,0.5,8.5c-0.3,0.4-0.7,1-0.5,1.6l0.3,0.9c1.2,3,2.4,6.2,3.9,9.1c0.4,0.7,1.7,0.8,3.1,0.9
		c2.9,0,5.8,0,8.9,0l3,0c0,0.7-0.1,1.3-0.1,1.9c-0.1,2.2-0.1,4.2-0.4,6.2c0,0.3-1.1,1.2-1.5,1.2h0c-1.1-0.1-2.2,0-3.3,0
		c-2.6,0.1-5.1,0.2-7.5-1.4c-1.1-0.7-2-0.6-2.5-0.4c-1.4,0.5-2.2,2.3-2.5,3.5c-4.9-1-7.1,2.5-9,5.6l-0.4,0.7l0.3,0.3
		c2.3,2.3,2.5,5.7,0.6,8.3c-1.1,1.5,1,6.6,1.9,8.4c0.9,1.8,2.2,4,3.4,4.1l0.9,0c4.2,0.1,8.6,0.3,12.9-0.2c1.6-0.2,3.1-3,3.5-4.5
		c0.2-0.7,0.6-1.4,1-2.1c1-1.7,2.1-3.6,0.4-5.9c-1.2-1.6-0.8-6.4,1.2-8l0.4-0.3l-3.8-5.1h3.4l6.3,31.4c-0.5,0.2-1,0.5-1.6,0.7
		c-2,0.9-4.3,1.9-6.6,2.8c-0.2,0.1-0.6,0-1-0.1c-0.4-0.1-0.9-0.2-1.3-0.1l-0.4,0.1c-1.7,0.3-2.9,0.6-3.2,1.4
		c-0.4,1.3-1.2,1.5-2.3,1.8c-0.5,0.1-1,0.2-1.4,0.4c-1.8,0.8-3.4,2.2-4.9,3.5c-0.7,0.6-1.3,1.1-2,1.7l-0.5,0.4l0.5,0.4
		c2.9,2.7,2.9,6.5,1.3,8.8c-0.5,0.7-0.6,1.9-0.3,2.7c0.9,2.5,1.9,5.2,3.1,7.8c0.5,1,1.9,2,3,2c3.1,0.1,6.2,0.1,9.2,0.1
		c1.1,0,2.2,0,3.3,0c0.1,0,0.2,0,0.3,0c3-0.3,3.5-2.6,3.9-4.4c0.1-0.5,0.2-1,0.4-1.4c0.2-0.5,0.5-1,0.9-1.5c1-1.4,2.2-3.2,0.1-5.4
		c-0.5-0.6-0.8-1.7-0.8-3.1c0.1-1.9,0.8-3.8,1.8-4.7l0.3-0.3l-0.2-0.4c-1.8-3.4-4.2-7-9.5-6.3l0-0.1l9.1-3.8l17.5,26
		c-0.9,0.7-1.6,1.6-2.5,2.5c-1.8,2-3.6,4-6.6,5.2c-1.5,0.6-3.1,1.4-4.7,2.3c-1.1,0.6-2.2,1.2-3.3,1.7c-1.3,0.6-2.1,1.9-3,3.1
		c-0.4,0.5-0.7,1.1-1.1,1.5l-0.3,0.3l0.3,0.3c2.4,3.1,2.5,7,0.1,9.3l-0.2,0.2l0.1,0.3c3.3,11.2,3.5,11.4,14.9,11.4
		c0.1,0,0.3,0,0.4,0c0.3,0,0.5,0,0.8,0c4.1,0.7,6.6-0.9,7.4-5c0.1-0.7,0.5-1.4,0.8-2.1c0.3-0.7,0.7-1.5,0.9-2.3
		c0.2-1-0.1-2.4-0.7-3.4c-1.1-1.6-0.4-6.3,1.4-7.9l0.4-0.4l-0.4-0.4c-0.6-0.6-1.1-1.4-1.6-2.1c-1.4-2.1-3-4.5-6.9-4
		c-0.3,0-1-0.3-1.1-0.5c-0.1-0.3,0.2-1.1,0.5-1.4c1.7-1.8,3.4-3.5,4.9-5l1.3-1.3l27,17.8c-0.2,0.7-0.5,1.4-0.7,2.1
		c-0.7,2.1-1.4,4.4-2.9,6c-0.4,0.4-0.8,0.9-1.2,1.5c-1.4,1.8-2.9,3.7-5.9,3.9c-1.7,0.1-3.1,1.7-4.6,3.2c-0.6,0.6-1.2,1.3-1.9,1.8
		l-0.4,0.4l0.4,0.4c1.4,1.4,2.2,3.3,2.2,5.1c0,1.7-0.7,3.2-1.9,4.2l-0.3,0.2l0.1,0.3c0.3,0.8,0.6,1.5,1,2.3c0.7,1.7,1.5,3.5,2,5.3
		c0.8,3,2.7,4.2,5.7,3.7c0.6-0.1,1.3-0.1,2.1,0c0.2,0,0.5,0,0.7,0l-1,3.5c-0.7,2.4-1.4,4.7-2.1,7c-0.8,2.8-1.7,5.5-2.5,8.3
		c-2.1,6.8-4.2,13.8-6.2,20.7c0,0.1-0.1,0.3-0.1,0.4l-0.2,0.7h3.1l0.1-0.4c0.1-0.7,0.3-1.4,0.5-2.2c1.2-3.9,2.4-7.8,3.5-11.7
		c2.3-7.7,4.7-15.6,7-23.4c0.8-2.6,1.7-3.3,3.8-2.9c3.3,0.6,5.3-0.7,6.1-4.1c0.2-0.8,0.5-1.5,0.9-2.2c0.3-0.6,0.6-1.2,0.8-1.9
		c0.1-0.3,0.2-0.6,0.4-0.9c0.6-1.2,1.3-2.8-1-4.3c-0.1-0.1-0.3-0.3-0.3-0.9c-0.2-2,0.9-5.5,2-6.6l0.4-0.4l-0.5-0.4
		c-4.7-3.8-3.2-7.5-1.7-11.5c0.6-1.5,1.2-3.1,1.4-4.7c1.5,0.3,3,0.6,4.4,0.8c4,0.8,7.8,1.5,11.7,2.1c2.3,0.4,4.7,0.5,6.8,0.5
		c0.8,0,1.3,0.2,1.6,0.5c0.3,0.3,0.4,0.9,0.4,1.8c-0.2,3-1.7,4.1-4.6,5c-1.8,0.6-3.2,1.9-4.8,3.3c-0.7,0.6-1.4,1.3-2.2,1.9l-0.5,0.4
		l0.5,0.4c2.8,2.3,3.1,6.6,1.5,8.5c-0.4,0.5-0.5,1.3-0.6,1.9l0,0.2c-0.1,0.4,0.1,0.6,0.3,0.9c0,0.1,0.1,0.2,0.1,0.2
		c3.4,9.4,3.7,9.5,13.9,9.4c6.9-0.1,7.2-0.3,9.7-6.8c0.1-0.4,0.3-0.8,0.5-1.2c0.8-1.6,1.9-3.6-0.7-5.8c-0.1-0.1-0.3-0.3-0.3-1
		c-0.1-1.9,1-5.1,2.1-6.2l0.4-0.4l-0.3-0.4c-0.5-0.6-1-1.2-1.5-1.9c-1.5-2.1-3.1-4.3-6.9-3.9c-0.5,0.1-1.4-0.6-2.1-1.7
		c-1.1-1.6-1.8-3.6-1.4-4.3c0.2-0.4,0.8-0.8,1.2-0.8c6.3-0.9,12.6-1.7,19.1-2.5l4.6-0.6c0.3,0.9,0.5,1.7,0.8,2.7
		c1,3,1.9,6.1,2.6,9.3c0.1,0.6-0.6,1.6-1.2,2.5c-0.3,0.5-0.7,1-1,1.5l-0.2,0.3l0.2,0.3c2.2,2.5,2.3,5.1,0.2,8.3
		c-0.9,1.5,2,8.6,3.7,11.1c0.7,1,1.2,1.4,1.8,1.3c4.3-0.8,4.9,1.6,5.7,4.6c0.1,0.4,0.2,0.9,0.4,1.3c2.3,7.7,4.6,15.5,6.9,23.2
		c1.1,3.7,2.2,7.4,3.3,11.1l0.2,0.6h3.2l-0.2-0.7c-3.6-11.5-7.1-23.3-10.5-34.7l-1.4-4.6c0-0.1,0-0.2,0-0.4l0,0l0.2,0
		c0.4-0.1,0.8-0.1,1.2-0.2c0.7-0.1,1.4-0.1,2.2,0c1.9,0,3.7,0,4.4-1c1.6-2.1,2.5-4.7,3.4-7.2c0.3-0.8,0.6-1.7,0.9-2.5
		c0.3-0.7-0.4-1.6-0.6-1.8c-1.9-2.5-1.6-6.3,0.6-8.1l0.4-0.3l-0.3-0.4c-0.4-0.5-0.7-1-1.1-1.5c-1.6-2.4-3.5-5.1-7.6-4.5
		c-0.1,0-0.2,0-0.2,0c-0.5-0.5-1.1-1-1.7-1.4c-1.4-1.1-2.7-2.2-3.5-3.5c-1.2-2-2-4.2-2.8-6.3c-0.3-0.7-0.5-1.4-0.8-2.1l26.6-17.8
		c0.4,0.4,0.8,0.9,1.3,1.4c1.5,1.6,3.1,3.4,4.7,5.2c0.6,0.7,0.7,1.4,0.6,1.7c-0.2,0.3-0.7,0.3-1,0.3c-3.9-0.5-5.6,1.9-7.1,4
		c-0.4,0.6-0.9,1.2-1.4,1.8l-0.3,0.3l0.3,0.3c2.4,2.9,2.3,7.2-0.1,9.2l-0.3,0.2l0.6,1.6c0.4,1.1,0.8,2.1,1.2,3.2
		c2.7,6.6,2.9,6.9,9.8,6.9c0.2,0,0.3,0,0.5,0c9.6,0,9.9-0.2,13.3-9.2c0.2-0.5,0.3-0.9,0.5-1.4l0.3-1l-0.3-0.2
		c-1.1-1-1.8-2.6-1.8-4.3c0-1.8,0.7-3.5,1.9-4.6l0.4-0.3l-0.3-0.4c-0.5-0.6-1-1.3-1.5-2c-1.5-2.2-3.2-4.6-7.1-4c-0.1,0-0.2,0-0.2,0
		c-0.1,0-0.2,0-0.2,0c-1.6-2-3.7-3.4-5.8-4.7c-2.6-1.6-5-3.2-6.3-6l17.8-26.7l9,3.7l0,0.1c-5.3-0.7-7.7,3.1-9.4,6l-0.2,0.3l0.3,0.3
		c2.4,2.8,2.4,6.9,0,9.1l-0.2,0.2l0.1,0.4c0,0.2,0,0.4,0.1,0.6c1.4,3.1,2.8,6.2,4.2,9.2l0.5,1.1l2,0c4.4,0,8.9,0.1,13.3,0.1
		c0,0,1.1,0,1.3-0.6c0.4-0.9,0.8-1.8,1.2-2.7c1.1-2.5,2.3-5.1,2.9-7.7c0.3-1.1-0.2-2.3-0.7-3.5c-0.3-0.8-0.6-1.6-0.7-2.4
		c-0.1-0.8,0.2-1.6,0.6-2.7c0.2-0.6,0.4-1.2,0.6-1.9l0.1-0.3l-0.2-0.2c-0.3-0.4-0.7-0.9-1-1.4c-1.3-2-2.9-4.5-7-3.9
		c-0.1,0-0.5-0.4-0.6-0.6c-0.2-0.3-0.5-0.5-0.7-0.7c-0.3-0.2-0.5-0.5-0.8-0.7c-0.8-0.8-1.6-1.6-2.4-1.4c-2.9,0.7-5.2-0.5-7.4-1.6
		c-1.3-0.7-2.5-1.3-3.9-1.6l6.1-30.8h3.9l-3.6,4.7l0.3,0.3c1.8,2.2,1.5,3.9,1,6.4c-0.1,0.8-0.3,1.7-0.4,2.7
		c-0.3,2.7,1.3,5.5,2.8,8.2c0.6,1.2,1.3,2.4,1.8,3.5l0.1,0.3l14.8,0c0.2,0,0.6,0,0.7-0.4c1.3-3,2.5-6,3.8-9l1.1-2.7L364.9,236.8z
		 M140.2,225.5c0.9-0.5,1.7-1,2.5-1c3.3-0.3,6.6-0.3,9.7,0c0.9,0.1,1.9,0.6,2.8,1.1c0.3,0.2,0.6,0.3,0.9,0.5l-0.1,0.3h-16.6
		l-0.1-0.3C139.6,225.8,139.9,225.6,140.2,225.5z M153.6,232c0-0.4-0.1-0.8,0-0.9c0.3-0.5,0.7-0.9,1.1-1.3c0.1-0.1,0.1-0.1,0.2-0.2
		c0.1,0.1,0.1,0.1,0.2,0.2c0.4,0.3,0.8,0.7,0.8,1c0.3,1.3,0.3,2.7,0,3.9c-0.1,0.3-0.5,0.7-0.9,1.1c-0.1,0.1-0.2,0.2-0.3,0.3
		c-0.1-0.1-0.1-0.1-0.2-0.2c-0.4-0.4-0.8-0.7-0.9-1.1c-0.1-0.3-0.1-0.8-0.1-1.2c0-0.2,0-0.5,0-0.7
		C153.6,232.4,153.6,232.2,153.6,232z M151.1,236.4c-0.8-0.1-1.6-0.2-2.3-0.3c-1.7-0.2-3.3-0.3-3.8-1c-0.8-1.1-0.5-4,0.4-5.6
		c0.4-0.5,3.8-0.6,4.2-0.2c0.7,1.3,0.9,2.9,1.1,4.9C150.9,234.9,151,235.7,151.1,236.4z M139.5,231.7c-0.1-0.4-0.1-0.9,0-1.5
		c0-0.2,0.1-0.4,0.1-0.6c0.9-0.3,1.6-0.2,2,0.1c0.4,0.4,0.4,1.2,0.3,1.8c-0.1,0.6,0,1.3,0.1,2c0.1,0.8,0.3,1.7,0,2.1
		c-0.2,0.2-0.6,0.4-1.2,0.4c-0.4,0-1,0-1.3-0.3c-0.3-0.3-0.2-1.1-0.1-1.9C139.6,233.1,139.7,232.4,139.5,231.7z M156.6,240.6
		c-0.6,1.6-1.2,3.2-1.9,4.6c-0.2,0.4-1.1,0.9-1.8,1c-1.4,0.1-2.8,0.1-4.1,0.1c-0.5,0-1.1,0-1.6,0c-6.7,0-7.2-0.3-8.5-7.1h18.5
		C156.9,239.6,156.7,240.1,156.6,240.6z M147.9,187.1c0.9-0.6,1.8-1.1,2.6-1.1c3.7,0,7.6,0.4,11.3,0.8l0.2,0c0.5,0.1,1,0.4,1.6,0.8
		c0.1,0.1,0.3,0.2,0.4,0.3l0,0.1h-16.8l-0.1-0.3C147.3,187.5,147.6,187.3,147.9,187.1z M158.9,191.2c-0.1,0.6-0.2,1.2-0.3,1.8
		c-0.2,1.7-0.4,3.3-1.2,4.6c-0.1,0.1-1,0.3-2.3,0.3c-1.2-0.1-1.9-0.3-1.9-0.4c-0.9-1.6-1.2-4.5-0.4-5.6c0.5-0.7,2.1-0.9,3.6-1
		c0.6-0.1,1.3-0.1,1.9-0.2L158.9,191.2z M147.2,193.2c0.2-0.8,0.3-1.6,0.6-2.2c0.4,0,1.2,0.1,1.6,0.2c0.1,1.9,0.1,4-0.1,6.1
		c-0.4,0.1-1,0.2-1.3,0.1c-0.3-0.7-0.5-1.6-0.7-2.4c-0.1-0.3-0.1-0.6-0.2-0.8C147.1,193.9,147.1,193.6,147.2,193.2z M163.6,202
		c-0.2,1.4-0.4,2.8-0.9,4c-0.3,0.7-1.4,1.5-2.2,1.6c-1.4,0.1-2.8,0.1-4.1,0.1c-1.3,0-2.7,0-4.1,0.1c-2.6,0.2-3.9-0.7-4.5-3.1
		c-0.2-1-0.6-1.9-1.1-3c-0.1-0.3-0.3-0.6-0.4-0.9h17.6C163.7,201.2,163.7,201.6,163.6,202z M163.9,195.3c-0.1,0.8-0.2,1.6-0.4,2
		c-0.2,0.1-0.8,0-1.2,0c-0.2,0-0.3,0-0.5,0l0-0.4c0-1.9-0.1-3.8,0-5.7c0.5-0.1,1.2-0.1,1.5-0.1c0.3,0.7,0.4,1.5,0.5,2.2
		c0,0.3,0.1,0.6,0.1,0.9C164,194.6,163.9,195,163.9,195.3z M151.3,285.7c-2.3-0.1-3.9-1.3-4.9-7.1h18.3
		C163.1,286,162.5,286.1,151.3,285.7z M147.6,275.3c-0.1-2-0.1-4.1,0-6.1c0.3-0.1,1-0.2,1.3-0.2c0.3,0.8,0.6,1.7,0.8,2.6
		c0.1,0.3,0.2,0.6,0.2,0.9c-0.1,0.3-0.2,0.6-0.3,0.9c-0.2,0.8-0.4,1.5-0.8,2.1C148.6,275.6,148,275.4,147.6,275.3z M158.5,272.3
		c0.3,1.4,0.2,2.2-0.2,2.7c-0.4,0.5-1.3,0.8-2.7,0.8c-1.3,0-2.1-0.2-2.5-0.6c-0.5-0.5-0.6-1.4-0.7-3.1c0-1.5,0.2-2.3,0.6-2.7
		c0.4-0.4,1.3-0.7,2.6-0.7h0c1.4,0,2.2,0.2,2.6,0.7c0.4,0.5,0.5,1.3,0.2,2.6V272.3L158.5,272.3z M161.4,270.4c0-0.4,0-0.9,0-1.3
		c1-0.3,1.7-0.3,2.1,0c0.3,0.3,0.5,0.9,0.4,1.8c0,0.5,0,1.1,0,1.6c0,0.7,0,1.5-0.1,2.1c-0.1,0.3-0.8,0.8-1.2,0.8h0
		c-0.3,0-1.1-0.6-1.1-0.8C161.3,273.3,161.3,271.9,161.4,270.4z M160.4,263.9c0.9,0.1,1.8,0.6,2.7,1.1c0.3,0.2,0.6,0.4,0.9,0.5
		l-0.1,0.3h-16.6c0.6-1.4,1.5-2,3.2-2c0.1,0,0.1,0,0.2,0c1.3,0,2.6,0,3.9,0C156.5,263.8,158.5,263.8,160.4,263.9z M174.3,318.5
		l-0.6,0c-3.3,0-3.8-1.7-4.5-3.9c-0.3-1-0.7-2.2-1.3-3.1h18.8C184.6,318.3,184.3,318.4,174.3,318.5z M169.1,306.9
		c0-1.5-0.1-2.8,0.1-4.2v0c0-0.3,0.8-1,1.3-1c0.3,0,1,0.7,1.1,1.2c0.1,1.3,0.1,2.6,0.1,4c0,0.4,0,0.8,0,1.2h-2.5
		C169.1,307.7,169.1,307.3,169.1,306.9z M175,301.9c0.4-0.5,3.7-0.8,4.2-0.4c0.8,1.3,1,2.8,1.3,4.9c0.1,0.7,0.2,1.4,0.4,2.2
		c-0.9-0.1-1.7-0.1-2.5-0.2c-1.7-0.1-3.2-0.2-3.7-0.8C173.9,306.5,174.2,303.6,175,301.9z M183.2,304.1c0-0.6-0.1-1.1,0.1-1.5
		c0.1-0.4,0.7-0.8,0.9-0.9c0.5,0.1,1.3,0.5,1.3,0.8c0.3,1.3,0.3,2.7,0.1,3.9c-0.1,0.5-0.5,0.9-0.9,1.4c-0.1,0.1-0.1,0.2-0.2,0.2
		c0-0.1-0.1-0.1-0.1-0.2c-0.4-0.5-0.8-1-1.1-1.6c-0.1-0.1,0-0.5,0-0.8l0,0l0.1-0.5C183.2,304.7,183.2,304.4,183.2,304.1z
		 M182.4,296.7c0.8,0.1,1.6,0.6,2.5,1.1c0.3,0.2,0.6,0.4,0.9,0.5l-0.1,0.3H169l-0.1-0.3c0.3-0.2,0.6-0.3,0.9-0.5
		c0.9-0.5,1.8-1,2.6-1.1C175.7,296.4,179.1,296.4,182.4,296.7z M313.8,304.3c-0.1-0.6-0.1-1.1,0.1-1.4c0.2-0.5,1-1.1,1.5-1.2
		c0.2,0,0.9,0.7,1,1c0.3,1.2,0.3,2.5,0,3.5c-0.2,0.8-0.8,1.8-1.2,2c-0.4,0.1-0.7,0.1-0.9,0c-0.4-0.3-0.4-1.4-0.4-1.8
		c0-0.2,0-0.5,0-0.7l0-0.5C313.8,304.9,313.8,304.6,313.8,304.3z M326.9,318.5c-11.4,0.6-12.5,0.1-13.8-7.1h18
		C330.7,315.3,328.9,318.3,326.9,318.5z M319.4,308.1v-6.2c2.8-0.4,4.6-0.6,5.2-0.1c0.6,0.6,0.4,2.6,0,6.2l0,0.1H319.4z
		 M330.5,306.1c-0.2,0.8-0.4,1.5-0.7,2.1c-0.3,0-1.2-0.1-1.6-0.2c-0.1-2-0.1-4.1,0-6.1c0.4-0.1,1.2-0.2,1.6-0.2
		c0.3,0.7,0.5,1.5,0.7,2.4c0.1,0.3,0.1,0.6,0.2,0.9C330.7,305.4,330.6,305.7,330.5,306.1z M327.1,296.7c0.8,0.1,1.7,0.6,2.6,1.1
		c0.3,0.2,0.6,0.3,0.9,0.5c0,0.1-0.1,0.2-0.1,0.3h-16.6l-0.2-0.3c0.3-0.1,0.5-0.3,0.8-0.5c0.9-0.5,1.7-1,2.5-1.1
		C320.4,296.4,323.8,296.4,327.1,296.7z M353.2,279.3c-0.7,1.8-1.4,3.5-2.2,5c-0.1,0.2-0.8,0.4-1.8,0.5c-0.8,0-1.7,0.1-2.5,0.1
		c-1.1,0-2.1,0-3.2,0c-6.6,0-6.9,0-8.3-6.9h18.5C353.5,278.4,353.4,278.8,353.2,279.3z M336,269.8c0-0.4,0-0.9,0-1.4l2.5-0.2
		c0,0.5,0,0.9,0,1.3c0,1.5,0,2.9-0.1,4.3c0,0.3-0.7,0.9-0.9,0.9c-0.6-0.1-1.4-0.7-1.4-1C335.9,272.5,336,271.2,336,269.8z
		 M341.1,268.5h6.4c-0.1,0.6-0.1,1.1-0.1,1.7c-0.1,1.7-0.2,3.4-0.9,4.6c-0.2,0.2-1.2,0.4-2.5,0.3c-1.2,0-1.7-0.3-1.8-0.4
		c-0.7-1.1-0.8-2.6-0.9-4.4C341.2,269.8,341.2,269.2,341.1,268.5z M350.1,269.7c0-0.4,0-0.9,0-1.3h2.7c0,0.4,0,0.8,0,1.2
		c0,1.4,0.1,2.7-0.1,3.9c-0.1,0.4-0.8,1-1.5,1.2c-0.3-0.2-0.9-0.9-1-1.3C350,272.3,350.1,271.1,350.1,269.7z M349.3,263.2
		c0.9,0.1,1.8,0.6,2.7,1.1c0.3,0.2,0.6,0.4,0.9,0.5c0,0.1-0.1,0.2-0.1,0.3c-0.1,0-0.2,0-0.2,0c-0.4,0.1-0.8,0.1-1.1,0.1
		c-4.1,0-8.1,0-12.2,0l-3.3,0l-0.2-0.6c0.3-0.2,0.6-0.3,0.9-0.5c1-0.5,1.9-1,2.8-1.1C342.9,263,346.1,263,349.3,263.2z M336.2,186.7
		c0.5-0.3,0.9-0.6,1.3-0.7c4-0.4,8.6-0.8,13.1-0.9h0c0.3,0,0.9,0.6,1.3,1.1c0.2,0.2,0.3,0.4,0.5,0.5L336.2,186.7
		C336.2,186.8,336.2,186.8,336.2,186.7z M352.4,195c0,0.4,0,0.9,0,1.3H350c0-0.4,0-0.8,0-1.2c0-1.4-0.1-2.7,0.1-3.9
		c0-0.3,0.5-0.6,0.9-1c0.1-0.1,0.2-0.2,0.3-0.3c0.1,0.1,0.2,0.2,0.3,0.2c0.4,0.3,0.8,0.7,0.8,0.9C352.5,192.4,352.5,193.6,352.4,195
		z M347,193.3c0.3,1.2,0.3,2,0,2.4c-0.4,0.6-1.6,0.8-3.2,0.9c-1.1,0.1-1.8-0.1-2.2-0.4c-0.5-0.4-0.5-1.3-0.5-2.3
		c0-0.4,0-0.9-0.1-1.3c-0.1-1.1,0-1.8,0.4-2.2c0.4-0.5,1.2-0.7,2.8-0.7c0.1,0,0.2,0,0.3,0c1.3,0,2.1,0.2,2.5,0.7
		c0.4,0.5,0.4,1.4,0.1,2.6l0,0.1L347,193.3z M335.9,191.4c0.1-0.4,0.6-0.7,1-1.1c0.1-0.1,0.2-0.2,0.3-0.2c0.1,0.1,0.2,0.1,0.2,0.2
		c0.4,0.3,0.8,0.7,0.8,0.9c0.2,1.2,0.1,2.5,0.1,3.8c0,0.4,0,0.9,0,1.3c-1,0.3-1.7,0.3-2.1,0.1c-0.4-0.3-0.5-0.9-0.4-1.9
		c0-0.4,0-0.9,0-1.3C335.8,192.4,335.8,191.8,335.9,191.4z M331.3,197c2.1,7.6,4.1,14.8,3.7,22.7c-0.3,0-0.6,0-0.9,0.1
		c-0.9,0.1-1.7,0.1-2.5,0.1c-4.3,0-8.6,0-13,0c-8.7,0-17.8,0-26.7,0.1c-2.6,0.1-3.5-0.5-3.5-3.2c0-1.6-0.4-3.2-0.8-4.7
		c-0.3-1-0.5-2.1-0.7-3.1c-0.1-0.7,0.4-1.8,0.6-1.9c11.6-4.9,23-9.7,35.1-14.8l6.7-2.8C330,192,330.7,194.5,331.3,197z M330.6,168.5
		c-0.5,1.7-1.1,3.3-2,4.3c-0.8,0.8-3.8,0.8-4.7,0.1c-1.3-1.1-2.3-2.6-3.4-4.4c-0.3-0.5-0.7-1.1-1-1.6h11.7
		C331,167.3,330.8,167.9,330.6,168.5z M327.6,159.5c0-0.6-0.1-1.2,0.1-1.8c0.1-0.2,0.7-0.6,1.1-0.7h0c0.4,0,1,0.3,1.1,0.4
		c0.2,1.9,0.2,3.7,0,5.5c-0.1,0.2-0.8,0.6-1,0.6c-0.5-0.1-1.1-0.5-1.3-0.9c-0.2-0.4-0.1-0.9-0.1-1.5c0-0.1,0-0.2,0-0.3l0-0.5
		C327.6,160.1,327.6,159.8,327.6,159.5z M323.6,152l0.2,0c0.4,0,0.8-0.1,1.2-0.1c2-0.2,4-0.4,5.1,2.1h-10.7
		C320.1,152.2,321.8,152.1,323.6,152z M319,157.7c0.5-0.6,1.6-0.7,3.1-0.8l0.1,0c1.1-0.1,1.9,0.1,2.3,0.5c0.6,0.6,0.5,1.8,0.3,3.3
		l0,0.1l0,0.1c0.3,1,0.3,1.7,0,2.1c-0.5,0.7-1.8,0.8-3.3,0.9c-1.1,0.1-1.8-0.1-2.2-0.4c-0.5-0.4-0.5-1.3-0.5-2.2
		c0-0.5,0-0.9-0.1-1.4C318.5,158.8,318.6,158.1,319,157.7z M315.7,157.7v4.8l-2.5-2.7L315.7,157.7z M320.3,173.4
		c-5.4,0.9-5.4,0.7-7.4-5.8l-0.3-0.8C315.8,166.5,317.9,168.3,320.3,173.4z M309.1,164.7c-0.4,1.1,0.1,2.2,0.6,3.1
		c0.1,0.2,0.2,0.4,0.3,0.6c0.1,0.3,0.2,0.6,0.4,0.9l0.3,0.7c2.4,6,2.8,6.5,8.6,6.5c0.3,0,0.6,0,1,0c2,0,3,0.6,3.7,2.2
		c0.9,2,2,3.9,3,6c0.4,0.8,0.8,1.5,1.2,2.3l-42.5,17.8l-6.6-9.9L309.1,164.7z M251.6,229.7l1.6,3.4l-1.8,0.4v-3.7L251.6,229.7z
		 M251.5,212.7v-0.3c0-1,0-2.1,0.1-3.2h0c0.5,0,1.1,0,1.6,0l-1.5,3.5L251.5,212.7z M253.4,237.4c0.5-0.3,1-0.6,1.6-0.9l6.2,19.3
		l-10,1.8c0-1.6,0-3.1,0-4.6c0-4.9-0.1-9.5,0.2-14.1C251.4,238.6,252.5,237.9,253.4,237.4z M259.3,209.1l-2.4-1.6l8-19.5l9.2,6.2
		L259.3,209.1z M276.8,196.9l6.1,9c-1.8,0.8-3.5,1.5-5.2,2.2c-4.4,1.8-8.6,3.6-12.7,5.4c-1.6,0.7-2,0.1-2.6-1
		c-0.1-0.3-0.3-0.5-0.5-0.8L276.8,196.9z M258.3,219.8l-0.1-0.3l3.5-1.7l0.2,1.7L258.3,219.8z M260.6,227.3l-1,1.6l-2.8-2.7l0.2-0.3
		L260.6,227.3z M257.4,211.4l-2.7,2.2l1-3.2L257.4,211.4z M257.4,230.9L256,232l-1.5-3.6l0.2-0.1L257.4,230.9z M258,235.4
		c-0.1-0.3,0.4-1.1,0.8-1.6c0.1-0.2,0.2-0.4,0.4-0.5l15,15l-9.2,6.2c-0.5-1.4-1.1-2.8-1.6-4.2C261.5,245.1,259.6,240.2,258,235.4z
		 M261.9,230.9c0.4-1,0.8-1.7,1.4-1.9c0.7-0.3,1.7-0.1,3.1,0.5c3.8,1.7,7.7,3.3,11.8,4.9c1.6,0.6,3.1,1.3,4.8,1.9l-6.1,9.2
		L261.9,230.9z M264.7,225.9c-0.1-1.2,0-2.1,0.5-2.6c0.5-0.5,1.3-0.7,2.9-0.7c4.2,0.1,8.4,0.1,12.8,0.1c1.7,0,3.5,0,5.3,0l-2.1,11
		L264.7,225.9z M282,219.9c-5.5,0-10.6,0-15.7-0.1c-0.3,0-1.1-0.9-1.3-1.6c-0.1-0.6,0.2-1.8,0.5-1.9c4.7-2.1,9.6-4.1,14.7-6.2
		l3.9-1.6l2.3,11.4L282,219.9z M296.8,139.4c0,0.6,0.1,1.1-0.1,1.5v0c-0.2,0.5-0.9,1-1.2,1h0c-0.4,0-1.1-0.6-1.1-0.9
		c-0.2-1-0.3-2.4,0-3.9c0.1-0.4,0.5-0.9,0.9-1.4c0.1-0.1,0.1-0.2,0.2-0.2c0,0.1,0.1,0.1,0.1,0.2c0.4,0.5,0.8,1,1.1,1.6
		c0.1,0.1,0,0.5,0,0.7l0,0h-0.1v0.5C296.8,138.9,296.8,139.1,296.8,139.4z M281.1,148.9c0.2-1.8,0.4-3.7,2.7-4.1
		c0.6-0.1,1.1-0.1,1.7-0.1c3.6,0,6.4,2,9.4,4.1l0.8,0.5c0.4,0.3,0.4,0.8,0.3,1.1c-0.2,0.7-0.9,1.5-1.8,1.6c-1.3,0.1-2.6,0.1-3.9,0.1
		c-0.6,0-1.2,0-1.8,0l-0.5,0c-0.3,0-0.7,0-1,0c-1,0-2,0-3,0.1c-1,0.1-1.8-0.1-2.4-0.7c-0.4-0.5-0.6-1.1-0.5-1.9L281.1,148.9z
		 M280.5,138.1c-0.2-0.3-0.2-1.2,0-2.6h2.2l-0.4,3C281.3,138.4,280.6,138.3,280.5,138.1z M288.4,131c0.3-0.4,1-0.7,2-0.7
		c0.4,0,0.8,0,1.3-0.1c2.2-0.2,4-0.3,5.2,2h-8.7C288.1,131.7,288.2,131.3,288.4,131z M288.9,135.1c1.2-0.1,2,0.2,2.4,0.6
		c0.4,0.5,0.5,1.3,0.3,2.7c-0.1,0.5-0.1,1,0,1.5c0,0.7,0.1,1.5-0.3,1.8c-0.3,0.3-1,0.3-1.5,0.2l-0.2,0c-2.4-0.3-4-0.7-4-3.1
		C285.6,136.5,286.1,135.2,288.9,135.1z M285.3,130.4c-0.6,2.4-1.9,2.3-3.7,2.1c-0.4,0-0.8-0.1-1.3-0.1
		C281.1,130.1,282.9,130.1,285.3,130.4z M278.9,153.8c0.4,0.1,0.9,0.2,1.3,0.3c1.2,0.3,2.2,0.6,3.3,0.6c1.5,0.1,3,0.1,4.5,0.1
		c1.2,0,2.5,0,3.8,0l0.5,0c2.6,0.1,5.6,0.3,6.3-3.9l10,8.2l-32.8,32.6l-9.8-6.6L278.9,153.8z M261.1,139.8c0.3-1.3,0.8-2.2,1.5-2.6
		c0.8-0.5,1.9-0.5,3.4,0c1.8,0.6,3.7,1,5.5,1.5c1.5,0.4,2.9,0.7,4.4,1.2c1.2,0.3,1.5,0.7,1.6,0.9c0.1,0.3-0.2,0.9-0.8,1.5
		c-0.7,0.7-0.7,2.5-0.2,3.5c1.1,2.3,1.1,4.3-0.1,7.1c-3,6.9-5.8,13.9-8.6,20.7c-1.1,2.8-2.3,5.6-3.5,8.4c-0.3,0.6-0.5,1.2-0.8,1.8
		l-0.1,0.2c-0.9-0.2-1.8-0.3-2.7-0.4c-2.8-0.5-5.5-0.9-8.1-1.4c-0.5-0.1-1.3-0.9-1.3-1.2c-0.1-9.6-0.1-19.2-0.1-28.5l0-5.3
		c0.1-0.1,0.2-0.1,0.3-0.2c0.1,0,0.1-0.1,0.1-0.1C256.7,147.8,259.9,145.5,261.1,139.8z M258.2,131.9c0,0.5,0,1,0,1.5
		c-0.3-0.1-0.7-0.2-1-0.3c-0.5-0.2-1.2-0.4-1.4-0.5c-0.1-1.3,0-2.6,0.1-4.1c0-0.3,0.1-0.7,0.1-1c0.2,0,0.4,0.1,0.6,0.1
		c0.5,0.1,1.4,0.3,1.5,0.4C258.2,129.2,258.2,130.4,258.2,131.9z M251.9,122.2c1.8-1,4.4,0,6.1,2c-0.4,0-0.7,0-1,0
		c-1.7,0-3.2,0-4.6-0.1c-0.3,0-0.9-0.5-0.9-0.8C251.3,123.1,251.6,122.4,251.9,122.2z M252,127.8l1,1.9l-0.4,0.2v0.3
		c0,0.2,0,0.5,0,0.7c0,0.5,0,1-0.1,1.4c0,0.1-0.3,0.4-0.4,0.5c-0.4-0.1-0.8-0.4-0.9-0.6c-0.2-0.6-0.3-1.3-0.2-1.8
		C251.4,129.5,251.7,128.7,252,127.8z M251.5,137.2c0.5-0.5,1.9-0.5,4.5-0.5h2.3h1c-0.3,0.7-0.5,1.3-0.7,1.9
		c-0.6,1.8-1.2,3.4-2.2,4.6c-0.7,0.8-3.3,0.6-4.4,0.6c-0.3-0.2-0.8-1.4-0.9-2.2C251.1,139,251,137.7,251.5,137.2z M251.2,190.1
		c0-1.7,0-3.5,0-5.4l11.2,2.2l-7.9,19.3c-1.3,0.1-2.1-0.1-2.6-0.5c-0.5-0.5-0.7-1.3-0.7-2.7C251.2,198.8,251.2,194.6,251.2,190.1z
		 M248.3,130.9c0,0.5,0.1,1-0.1,1.3c-0.1,0.2-0.5,0.5-0.8,0.6c-0.1,0-0.5-0.4-0.5-0.5c-0.2-0.7-0.2-1.4-0.1-1.9
		c0.2-0.9,0.5-1.7,0.8-2.5l1,1.8l-0.4,0.2v0.3C248.3,130.4,248.3,130.7,248.3,130.9z M246.7,122.2c0.2,0,0.5,0.1,0.7,0.1
		c0.2,0.1,0.5,0.7,0.8,1.1c0.1,0.2,0.2,0.4,0.4,0.6h-7C242.7,121.7,244.6,121.9,246.7,122.2z M241.4,128.2c0.1-1,0.7-1.2,1-1.3
		c0.1,0,0.1,0,0.2,0c0.4,0,0.6,0.1,0.6,0.2c0.7,1.6,0.6,3.8,0.4,5.5c-0.2,0.2-0.9,0.4-1.4,0.6c-0.3,0.1-0.6,0.2-1,0.3
		c0-0.6,0-1.2,0-1.7C241.4,130.4,241.3,129.3,241.4,128.2z M248.1,136.8v6.9c-5.2,0.5-6.6-0.8-7.4-6.9H248.1z M222,141.5
		c0.2-0.6,0.6-1.2,0.7-1.3c4-1.1,8.3-2.2,13.5-3.4c0.1,0,0.5,0.1,1.2,0.8c0.2,0.2,0.3,0.6,0.4,0.9l0.3,0.8c1,2.9,2,5.8,4.5,7
		c1.5,0.7,3.3,0.7,5.6,0l0,7.6c0,6.6,0,12.8,0,19c0,0.9,0.1,1.8,0.2,2.7c0.2,2,0.4,4.2-0.5,5.4c-0.7,1-2.7,1.2-4.6,1.5
		c-1,0.1-1.9,0.3-2.8,0.5c-1.1,0.3-2.1,0.6-3.2,0.9l-1.3,0.4c-0.1-0.2-0.2-0.3-0.3-0.5c-0.3-0.6-0.6-1.2-0.9-1.8l-2.2-5.2
		c-3.5-8.3-7.1-16.9-10.6-25.4c-0.5-1.2-0.3-2.7-0.1-4.2c0.1-0.5,0.3-0.9,0.5-1.4C223.2,144.6,224,143,222,141.5z M248,229.7l0.1,0
		v3.7l-1.7-0.1L248,229.7z M246.4,209.4l1.6-0.6v3.8l-0.2,0L246.4,209.4z M246.4,206.2c-0.4,0.2-0.8,0.4-1.1,0.6L237,187l11.3-2.2
		c0,1.5,0,3.1,0,4.6c0,5.5,0,10.7-0.2,15.8C248.1,205.4,247.1,205.9,246.4,206.2z M242.1,207.5c-0.2,0.6-0.9,1.1-2,1.6l-14.5-15
		l8.8-6l5.6,13.3c0.2,0.4,0.3,0.7,0.4,1.1c0.3,0.8,0.6,1.7,1.1,2.5C242.1,206,242.3,206.9,242.1,207.5z M243.7,210.4l1.3,3.6
		l-0.3,0.2l-2.5-2.7L243.7,210.4z M237.6,211.5c-0.3,1-0.7,1.7-1.3,1.9c-0.7,0.3-1.8,0.2-3.3-0.5c-3.8-1.7-7.7-3.3-11.8-4.9
		c-1.5-0.6-3.1-1.3-4.7-1.9l6.3-9.3L237.6,211.5z M241.3,219.8c-0.2,0-0.4,0-0.6,0c-1,0-2-0.1-3-0.2c0-0.2,0-0.6-0.1-1
		c0-0.2,0-0.5,0-0.7l3.7,1.7L241.3,219.8z M241.3,223l-3.5,1.7c0-0.2,0-0.4,0-0.7c0-0.3,0-0.8,0-1c1-0.2,2-0.2,3-0.3l0.5,0
		L241.3,223z M219.5,210.4c5,2,9.7,4,14.3,6c0.4,0.2,0.9,1.2,0.8,1.8c-0.1,0.6-0.9,1.6-1.2,1.6c-5.1,0.1-10.3,0.1-15.7,0.1l-4.3,0
		l2.2-11.2L219.5,210.4z M217.3,222.7c5.7,0,11.1,0,16.5,0.1c0.3,0.1,0.8,1,0.9,1.6c0.1,0.6-0.2,1.6-0.5,1.7
		c-4.8,2.1-9.7,4.2-14.9,6.3l-3.7,1.6l-2.2-11.3L217.3,222.7z M220.9,234.9c5-2.1,9.7-4.1,14.5-6c0.3-0.1,1.3,0.7,1.8,1.1
		c0.2,0.2,0.5,0.4,0.7,0.6l-15,15l-6.2-9C218.1,236.1,219.5,235.5,220.9,234.9z M240.5,233.1c0.1,0.2,0.2,0.5,0.4,0.7
		c0.4,0.8,0.8,1.5,0.6,2c-1.5,4.7-3.2,9.3-5,14.3c-0.5,1.5-1.1,2.9-1.6,4.5l-9.6-6.4L240.5,233.1z M239,215.2l1.1-1.7l2.6,2.9
		l-0.1,0.1L239,215.2z M245,228.3L245,228.3l-1.2,3.8l-1.7-1.1L245,228.3z M218.8,132.4C218.8,132.4,218.8,132.4,218.8,132.4
		c-0.5,0-1.1,0-1.6,0.1c-1.8,0.2-3,0.3-3.7-1.7C215.9,129.7,217.1,129.8,218.8,132.4z M217.7,138.7c-0.1,0-0.2,0.1-0.3,0.1l-1.5-3.3
		l2.6-0.1c0,0.2,0,0.4,0,0.6c0,0.9,0.1,1.7-0.1,2.4C218.4,138.4,218,138.6,217.7,138.7z M218,149.6c-0.2,1.7-1.1,2.5-2.8,2.5
		c-0.1,0-0.2,0-0.3,0c-0.6,0-1.3,0-1.9,0c-0.7,0-1.3,0-2,0c-1.7,0-3.4,0.1-5-0.1c-0.8-0.1-1.5-0.6-2.3-1.1c-0.3-0.2-0.5-0.4-0.8-0.5
		l0.2-0.5c0.9-0.5,1.8-1.1,2.6-1.7c2.8-1.9,5.4-3.6,9.1-3.3c0.6,0.1,1.4,0.6,2.1,1.5C217.7,147.4,218.1,148.6,218,149.6z
		 M213.5,139.3c-0.1,2.3-1.6,2.5-4.1,2.7c-0.8,0.1-1.4,0-1.7-0.3c-0.4-0.4-0.3-1.2-0.2-2c0-0.5,0.1-1,0-1.5
		c-0.2-1.4-0.1-2.4,0.4-2.8c0.4-0.3,1-0.4,1.9-0.2c1.2,0,2.1,0.4,2.8,1.1C213.3,137,213.6,138.1,213.5,139.3z M207.3,130.3
		c0.3,0,0.7,0.1,1,0.1c0.7,0,1.4,0.6,2.1,1.1c0.2,0.2,0.5,0.3,0.7,0.5l-0.1,0.2h-8.6C203.3,129.8,205.3,130,207.3,130.3z
		 M202.2,137.6c0.2-0.8,0.3-1.6,0.6-2.2h0c0.4,0,1.1,0.1,1.5,0.2c0.1,1.9,0.1,4-0.1,6.1c-0.4,0.1-1,0.1-1.3,0.1
		c-0.3-0.7-0.5-1.6-0.7-2.4c-0.1-0.3-0.1-0.6-0.2-0.8C202,138.3,202.1,138,202.2,137.6z M205,145l-3,1.9l-0.7-1.9H205z M200.4,151.4
		c1.3,3.9,4.4,3.7,6.8,3.5c1.3-0.1,2.7-0.1,4,0c1.3,0,2.6,0,4,0c1.2-0.1,2.3-0.3,3.6-0.6c0.5-0.1,0.9-0.2,1.4-0.3l13.2,31.4
		l-9.8,6.7l-32.7-32.6L200.4,151.4z M183.3,157.5c1.3,0.6,2,1.2,2.2,1.8c0.2,0.8-0.5,2-2.2,3.6V157.5z M186.4,166.9
		c-0.6,3.7-1.2,5.4-2.3,6.2c-0.9,0.7-2.3,0.8-4.7,0.4C181.2,169,183.7,166.7,186.4,166.9z M180.4,160.2l0,0.4
		c0.1,1.4-0.1,2.2-0.5,2.6c-0.4,0.4-1.2,0.6-2.5,0.6c-0.1,0-0.1,0-0.2,0c-1.5,0-2.4-0.3-2.8-0.8c-0.4-0.5-0.4-1.3-0.1-2.4l0-0.1
		l0-0.1c-0.3-1.3-0.3-2.2,0.1-2.7c0.4-0.5,1.3-0.8,2.9-0.9h0c0.1,0,0.2,0,0.3,0C180.2,156.8,180.3,157.9,180.4,160.2z M173.8,151.9
		c2.4-0.2,4.7,0.6,6.2,2h-10.7C170.3,152.8,171.9,152.1,173.8,151.9z M169,157.2c1-0.3,1.7-0.3,2.1,0c0.3,0.3,0.5,0.9,0.4,1.8
		c0,0.5,0,1.1,0,1.6c0,0.8,0,1.5-0.1,2.1c-0.1,0.3-0.8,0.9-1.1,0.9c-0.3,0-1.1-0.6-1.1-0.8c-0.1-1.4-0.1-2.8-0.1-4.3
		C169,158.1,169,157.7,169,157.2z M172.5,173.7c-0.1,0-0.1,0-0.2,0c-1.9-0.1-2.7-1-4.2-7h11.8C178.2,171.1,175.4,173.7,172.5,173.7z
		 M172.5,184.9c1.3-2.6,2.5-5,4-7.2c0.6-0.8,2.7-1.3,3.9-1.1c4.3,0.6,6.7-1,7.6-5.2c0.1-0.6,0.4-1.1,0.6-1.7
		c0.1-0.3,0.3-0.6,0.4-0.9c0.1-0.3,0.2-0.6,0.4-0.9c0.7-1.4,1.5-3.3-0.9-4.7c0-0.1,0-0.4,0-0.6l32.2,32.2l-6.8,10.3l-42.7-17.5
		C171.6,186.6,172,185.7,172.5,184.9z M167.2,201.7c1-3.7,2-7.6,2.5-11.6l43,17.6c-0.2,1-0.3,1.9-0.4,2.9c-0.4,2.8-0.8,5.4-1.5,8
		c-0.1,0.5-1.6,1.4-2.5,1.4c-6.2,0.1-12.5,0.1-18.6,0.1l-5.6,0l-3.8,0c-4.1,0-8.3,0-12.5,0c-0.8,0-1.5-0.1-2.3-0.1
		c-0.3,0-0.5,0-0.8-0.1C164.1,213.5,165.6,207.7,167.2,201.7z M164.7,222.9c0.1,0,0.3,0,0.4,0c0.6-0.1,1.2-0.1,1.8-0.1
		c4.2,0,8.4,0,12.6,0c9.1,0,18.4,0,27.7-0.1c2.9,0,3.9,0.5,4,3.4c0.1,2.1,0.6,4.2,1.2,6.4c0.2,0.9,0.5,1.7,0.7,2.6l-42.2,17.7
		C167.2,246.4,163.9,230.5,164.7,222.9z M171.8,255.5l42.2-17.7l6.7,9.8L188.1,280C181.9,274.2,174.6,263.2,171.8,255.5z M191,282.8
		l32.5-32.3l10,6.7l-17.3,42.2C210,297.9,195.7,288.5,191,282.8z M203,320.4c0.6-0.5,1.2-1.1,1.8-1.2c2.9-0.2,5.8-0.1,8.7-0.1
		c1,0,2,0,2.9,0l0.2,0.5c-0.2,0.1-0.4,0.3-0.6,0.5c-0.6,0.5-1.2,1-1.7,1c-2.9,0.2-5.9,0.1-8.8,0.1c-1,0-2,0-3,0l-0.1-0.3
		C202.5,320.7,202.8,320.5,203,320.4z M202.5,325.4c0-0.2,0.6-0.6,1-0.9c0.1-0.1,0.3-0.2,0.4-0.3c0.1,0.1,0.2,0.2,0.3,0.3
		c0.4,0.3,0.8,0.7,0.8,1c0.2,1.2,0.1,2.4,0.1,3.8c0,0.4,0,0.9,0,1.3h-2.6c0-0.4,0-0.8,0-1.2C202.3,328,202.3,326.7,202.5,325.4z
		 M208.2,340.9c-4.3,0.2-6-1.5-6.5-7.1h9.9C211.7,337.8,210.3,340.8,208.2,340.9z M208,330.5v-6.3h5.2c0.8,3,0.8,4.7,0,5.6
		C212.5,330.7,210.8,330.9,208,330.5z M217.5,340c-0.9,0.7-2.2,0.9-4.2,0.6c0.5-3.5,1.1-5.9,2.3-6.7c0.8-0.5,2-0.5,4.1,0
		C219.4,337.3,218.7,339.1,217.5,340z M219.2,328.2c0,0.1,0,0.2,0,0.3c0,0.6,0,1.1-0.2,1.4c-0.2,0.4-0.9,0.8-1.3,0.8l0,0
		c-0.3,0-1-0.6-1.1-0.8c0.3-1.8,0.8-3.7,1.4-5.3c0.1-0.1,0.5-0.3,0.6-0.3l0,0c0.1,0,0.4,0.4,0.5,0.7c0.1,0.6,0.1,1.3,0.1,1.9
		c0,0.3,0,0.6,0,0.8L219.2,328.2L219.2,328.2z M220,307.7c-0.2,0.5-0.3,1-0.5,1.5c-0.5,1.6-1,3.2-1.4,4.9c-0.2,1.1-0.7,1.9-1.3,2.2
		c-0.5,0.2-1,0.2-1.7-0.2c-0.7-0.4-1.3-2.5-1-3.6c0.6-2.2,1.5-4.3,2.5-6.5c0.3-0.8,0.7-1.6,1-2.4c1.6,0.3,2.7,0.6,2.9,1
		C220.8,305.1,220.4,306.1,220,307.7z M221.7,301.8l-2.9-1.1l12.3-30.1L221.7,301.8z M248.1,306.5c-8.2,0-15.9-1.3-23.7-3.8
		l13.2-44.1l10.4,1.8V306.5z M238.4,255.8l6-18.3c1.6-0.2,2.7,0,3.3,0.6c0.6,0.5,0.8,1.5,0.7,3.1c-0.2,3.8-0.1,7.6-0.1,11.6
		c0,1.5,0,3.1,0,4.8L238.4,255.8z M253,324.4v6.1h-5.4c-0.8-2.7-0.9-4.4-0.1-5.3C248.3,324.3,250,324,253,324.4z M245.1,319.1
		c0.9-0.3,1.9-0.2,2.6,0.2c0.2,0.1,0.5,0.7,0.5,0.9c-0.1,0.4-0.6,0.9-0.8,0.9c-0.8,0.1-1.7,0.1-2.6,0.1c-0.8,0-1.6,0-2.5,0
		C242.9,320.1,244,319.4,245.1,319.1z M243.2,324.1c0.3,0.1,1,0.6,1.1,0.9c0.2,0.5,0.1,1.1,0.1,1.7c0,0.3,0,0.6,0,0.9l0.1,0.5
		c0,0.1,0,0.3,0,0.4c0,0.6,0,1.2-0.2,1.7c-0.1,0.1-0.7,0.3-1,0.4c-0.1,0-0.2,0-0.2,0.1c-0.1-0.4-0.2-0.7-0.3-1
		c-0.3-1.3-0.7-2.6-0.8-4C242,325.3,242.5,324.7,243.2,324.1z M255.3,340.9c-11.1,0.8-12.7,0.1-14.2-7.1h18.1
		C258.9,337.7,257.3,340.8,255.3,340.9z M258.5,329.2c0,0.4,0,0.9,0,1.3c-1,0.3-1.7,0.3-2.1,0c-0.3-0.3-0.5-0.9-0.4-1.9
		c0-0.5,0-1,0-1.5c0-0.7-0.1-1.3,0.1-1.9c0.1-0.4,0.9-1,1.4-1.1c0.3,0,0.9,0.7,0.9,1C258.5,326.4,258.5,327.8,258.5,329.2z
		 M251.4,320.6c0.2-0.6,0.5-1.2,0.8-1.3c2.2-1,4.7-0.2,6.1,1.7h-7C251.2,320.9,251.3,320.7,251.4,320.6z M251.1,306.5l0-18.6
		c0-8.1,0-16.5-0.1-24.8c0-2.4,0.6-3.1,2.8-3.2c1.9-0.1,3.8-0.4,5.7-0.8c0.7-0.1,1.5-0.3,2.2-0.4l13.3,44.1
		C266.7,305.4,259,306.6,251.1,306.5z M267.3,266.8l14.1,33.7l-3.5,1.4L267.3,266.8z M284.1,341c-0.9-0.4-1.8-2.9-3-7
		c1.7-0.3,2.6-0.3,3.2,0.1c1,0.7,1.5,2.7,2,6.5C285.3,341,284.6,341.2,284.1,341z M281.9,326c0-0.2,0-0.5,0-0.7
		c0.1,0.2,0.2,0.5,0.2,0.7c0.4,1,0.7,2.1,0.9,3.1c0.1,0.3-0.1,0.7-0.3,1.1l0,0c-0.4-0.3-0.8-0.7-0.8-1
		C281.8,328.2,281.9,327.1,281.9,326z M287.2,327.4l0-0.2c0-1.4,0.1-2.2,0.6-2.7c0.4-0.5,1.3-0.7,2.6-0.7h0.1c1.2,0,2,0.2,2.4,0.7
		c0.4,0.5,0.5,1.3,0.3,2.8l0,0.1l0,0.1c0.2,1.2,0.1,2-0.2,2.4c-0.4,0.5-1.3,0.8-2.8,0.8C287.3,330.9,287.3,329.8,287.2,327.4z
		 M294.3,340.9c-5.1,0.1-5.8-0.2-6.5-7.1h11.5C298.9,337.1,297.8,340.9,294.3,340.9z M296,324.9c0-0.2,0-0.4,0-0.6
		c1.1-0.3,1.8-0.3,2.2,0.1c0.5,0.4,0.4,1.5,0.3,2.3c-0.1,0.5,0,1.1,0.1,1.7c0.1,0.8,0.2,1.6-0.1,1.9c-0.2,0.2-0.7,0.3-1.3,0.3
		c-0.5,0-0.8-0.1-1-0.3c-0.3-0.4-0.2-1.1-0.1-1.8c0.1-0.6,0.1-1.2,0-1.7v0C296,326.1,296,325.5,296,324.9z M297,319.3
		c0.5,0,1.2,0.5,1.8,0.9c0.2,0.1,0.3,0.2,0.5,0.3l-0.5,0.7c-1.1,0-2.2,0-3.3,0c-3.6,0-7.3,0-10.9-0.1c-0.3,0-0.7-0.6-1.1-1
		c-0.1-0.2-0.3-0.4-0.4-0.5l0.2-0.3c1.1,0,2.3,0,3.4,0C290,319.2,293.5,319.2,297,319.3z M286.7,313.4c0.2,0.8-0.3,2.5-0.5,2.7
		c-0.3,0.1-0.6,0.1-0.9,0.2c-1.8,0.4-2.9,0.6-3.4-1.1c-0.8-2.4-1.5-4.8-2.2-7.4c-0.3-1-0.6-2-0.9-3c1.9-0.9,2.9-1.4,3.5-1.2
		c0.5,0.2,1,1.3,1.7,3c0.3,0.7,0.6,1.3,0.9,2C285.5,310.1,286.3,311.7,286.7,313.4z M284,299.4L266.3,257l9.9-6.7l32.5,32.6
		C301.7,289.8,293.7,295.2,284,299.4z M311.4,280L279,247.4l6.6-9.9l42.3,17.3C326,261.7,317.9,274,311.4,280z M329.4,252.3
		l-42.5-17.4l0.4-2.5c0.5-3,1-5.9,1.5-8.7c0.1-0.2,0.9-0.8,1.3-0.8c12.7-0.1,25.2-0.1,38.4-0.1h6.7
		C335.1,232.6,333.3,242,329.4,252.3z M337,205.2c-0.6-1.3-0.9-2.7-1.3-4.2c-0.1-0.4-0.2-0.9-0.3-1.3h18.2c-0.2,0.5-0.4,1-0.6,1.5
		c-0.7,1.7-1.2,3.2-2,4.6c-0.2,0.4-1.1,0.9-1.8,0.9c-4.1,0.2-7.2,0.2-10.1,0C338.4,206.5,337.3,205.8,337,205.2z M344.7,225.7
		c0.9-0.6,1.7-1.1,2.6-1.2c3-0.3,6.3-0.3,9.7,0c0.9,0.1,1.9,0.5,2.9,1c0.3,0.2,0.7,0.3,1,0.5c-0.1,0.1-0.1,0.3-0.1,0.4H344l-0.1-0.2
		h0C344.2,226,344.5,225.9,344.7,225.7z M360.7,233.7c0.1,0.6,0.1,1.1-0.1,1.5c-0.2,0.4-0.9,0.8-1.4,0.8c-0.2,0-0.9-0.5-0.9-0.7
		c-0.3-1.5-0.3-2.8-0.1-3.9c0.2-0.8,0.8-1.8,1.2-1.9c0.1,0,0.3-0.1,0.5-0.1c0.2,0,0.3,0,0.4,0.1c0.3,0.3,0.3,1.2,0.3,1.9
		c0,0.4,0,0.7,0,1.1h-0.1v0.5C360.6,233.2,360.6,233.5,360.7,233.7z M355.3,232.9c0.3,1.3,0.2,2.1-0.2,2.6c-0.4,0.5-1.3,0.8-2.7,0.8
		h-0.1c-1.2,0-2-0.2-2.5-0.6c-0.4-0.4-0.6-1.2-0.6-2.7c0-1.6,0.1-2.5,0.7-3.1c0.4-0.4,1.2-0.6,2.4-0.6c0.1,0,0.1,0,0.2,0
		c1.3,0,2.2,0.3,2.6,0.8c0.4,0.5,0.5,1.3,0.2,2.7l0,0.1L355.3,232.9z M344.1,233.3c0.1-0.6,0.3-1.3,0.2-1.9c0-0.3,0.4-0.9,0.8-1.4
		c0.1-0.1,0.2-0.3,0.3-0.4c0.1,0,0.1,0.1,0.2,0.1c0.4,0.3,0.8,0.6,1,0.9c0.2,0.4,0.1,0.9,0.1,1.5c0,0.1,0,0.2,0,0.3l0,0.5
		c0,0.2,0,0.5,0.1,0.8c0,0.5,0.1,0.9,0,1.2c-0.3,0.5-1.1,1.1-1.3,1.1h0C343.7,235.6,343.8,234.8,344.1,233.3z M357.3,246.2
		c-11.1,0.8-12.1,0.4-14.1-7.1h18.3C360.8,243.4,359.3,246.1,357.3,246.2z"/>
</g>
</svg>
