<?xml version="1.0" encoding="UTF-8" standalone="no"?>
<!-- Created with Inkscape (http://www.inkscape.org/) -->

<svg
   xmlns:dc="http://purl.org/dc/elements/1.1/"
   xmlns:cc="http://creativecommons.org/ns#"
   xmlns:rdf="http://www.w3.org/1999/02/22-rdf-syntax-ns#"
   xmlns:svg="http://www.w3.org/2000/svg"
   xmlns="http://www.w3.org/2000/svg"
   version="1.1"
   width="694.61316"
   height="694.61316"
   viewBox="12 5 28.005039 23.104157"
   id="svg2">
  <metadata
     id="metadata250">
    <rdf:RDF>
      <cc:Work
         rdf:about="">
        <dc:format>image/svg+xml</dc:format>
        <dc:type
           rdf:resource="http://purl.org/dc/dcmitype/StillImage" />
        <dc:title></dc:title>
      </cc:Work>
    </rdf:RDF>
  </metadata>
  <defs
     id="defs248" />
  <g
     transform="translate(-3.4e-7,1.0495587)"
     id="g3227">
    <polygon
       points="26,9 24,7 26,5 28,7 "
       transform="translate(0.00251984,-3.4974802)"
       id="polygon4"
       style="fill:none;stroke:#ffffff;stroke-width:0.001" />
    <path
       d="m 26.00252,5.5025198 c -4,-4 4,-4 0,0"
       id="path6"
       style="fill:none;stroke:#000000;stroke-width:0.2" />
    <ellipse
       cx="26.007999"
       cy="7"
       rx="0.167"
       ry="0.167"
       transform="translate(0.00251984,-3.4974802)"
       id="ellipse8"
       style="fill:#000000;stroke:none" />
    <ellipse
       cx="26.007999"
       cy="7"
       rx="0.167"
       ry="0.167"
       transform="translate(0.00251984,-3.4974802)"
       id="ellipse10"
       style="fill:none;stroke:#000000;stroke-width:0.2" />
    <ellipse
       cx="26.007999"
       cy="7"
       rx="0.167"
       ry="0.167"
       transform="translate(0.00251984,-3.4974802)"
       id="ellipse12"
       style="fill:none;stroke:#000000;stroke-width:0.001" />
    <polygon
       points="26,13 24,11 26,9 28,11 "
       transform="translate(0.00251984,-3.4974802)"
       id="polygon14"
       style="fill:none;stroke:#ffffff;stroke-width:0.001" />
    <path
       d="m 26.00252,9.5025198 c -1.333,-1.333 -1.333,-2.667 0,-4 1.333,1.333 1.333,2.667 0,4"
       id="path16"
       style="fill:none;stroke:#000000;stroke-width:0.2" />
    <ellipse
       cx="26.007999"
       cy="11"
       rx="0.167"
       ry="0.167"
       transform="translate(0.00251984,-3.4974802)"
       id="ellipse18"
       style="fill:#000000;stroke:none" />
    <ellipse
       cx="26.007999"
       cy="11"
       rx="0.167"
       ry="0.167"
       transform="translate(0.00251984,-3.4974802)"
       id="ellipse20"
       style="fill:none;stroke:#000000;stroke-width:0.2" />
    <ellipse
       cx="26.007999"
       cy="11"
       rx="0.167"
       ry="0.167"
       transform="translate(0.00251984,-3.4974802)"
       id="ellipse22"
       style="fill:none;stroke:#000000;stroke-width:0.001" />
    <polygon
       points="26,17 24,15 26,13 28,15 "
       transform="translate(0.00251984,-3.4974802)"
       id="polygon24"
       style="fill:none;stroke:#ffffff;stroke-width:0.001" />
    <path
       d="m 26.00252,9.5025198 c -1.333,1.3330002 -0.667,0.6670002 -2,2.0000002 1.333,1.333 2.667,1.333 4,0 -0.667,-0.667 -1.333,-1.333 -2,-2.0000002"
       id="path26"
       style="fill:none;stroke:#000000;stroke-width:0.2" />
    <ellipse
       cx="26.007999"
       cy="15"
       rx="0.167"
       ry="0.167"
       transform="translate(0.00251984,-3.4974802)"
       id="ellipse28"
       style="fill:#000000;stroke:none" />
    <ellipse
       cx="26.007999"
       cy="15"
       rx="0.167"
       ry="0.167"
       transform="translate(0.00251984,-3.4974802)"
       id="ellipse30"
       style="fill:none;stroke:#000000;stroke-width:0.2" />
    <ellipse
       cx="26.007999"
       cy="15"
       rx="0.167"
       ry="0.167"
       transform="translate(0.00251984,-3.4974802)"
       id="ellipse32"
       style="fill:none;stroke:#000000;stroke-width:0.001" />
    <polygon
       points="22,13 20,11 22,9 24,11 "
       transform="translate(0.00251984,-3.4974802)"
       id="polygon34"
       style="fill:none;stroke:#ffffff;stroke-width:0.001" />
    <path
       d="m 22.00252,9.5025198 c -4,-4 4,-4 0,0"
       id="path36"
       style="fill:none;stroke:#000000;stroke-width:0.2" />
    <ellipse
       cx="22.007999"
       cy="11"
       rx="0.167"
       ry="0.167"
       transform="translate(0.00251984,-3.4974802)"
       id="ellipse38"
       style="fill:#000000;stroke:none" />
    <ellipse
       cx="22.007999"
       cy="11"
       rx="0.167"
       ry="0.167"
       transform="translate(0.00251984,-3.4974802)"
       id="ellipse40"
       style="fill:none;stroke:#000000;stroke-width:0.2" />
    <ellipse
       cx="22.007999"
       cy="11"
       rx="0.167"
       ry="0.167"
       transform="translate(0.00251984,-3.4974802)"
       id="ellipse42"
       style="fill:none;stroke:#000000;stroke-width:0.001" />
    <polygon
       points="22,17 20,15 22,13 24,15 "
       transform="translate(0.00251984,-3.4974802)"
       id="polygon44"
       style="fill:none;stroke:#000000;stroke-width:0.2" />
    <ellipse
       cx="22.007999"
       cy="15"
       rx="0.167"
       ry="0.167"
       transform="translate(0.00251984,-3.4974802)"
       id="ellipse46"
       style="fill:#000000;stroke:none" />
    <ellipse
       cx="22.007999"
       cy="15"
       rx="0.167"
       ry="0.167"
       transform="translate(0.00251984,-3.4974802)"
       id="ellipse48"
       style="fill:none;stroke:#000000;stroke-width:0.2" />
    <ellipse
       cx="22.007999"
       cy="15"
       rx="0.167"
       ry="0.167"
       transform="translate(0.00251984,-3.4974802)"
       id="ellipse50"
       style="fill:none;stroke:#000000;stroke-width:0.001" />
    <polygon
       points="18,17 20,15 18,13 16,15 "
       transform="translate(0.00251984,-3.4974802)"
       id="polygon52"
       style="fill:none;stroke:#ffffff;stroke-width:0.001" />
    <path
       d="m 20.00252,11.50252 c -4,-4.0000002 -4,4 0,0"
       id="path54"
       style="fill:none;stroke:#000000;stroke-width:0.2" />
    <ellipse
       cx="17.992001"
       cy="15"
       rx="0.167"
       ry="0.167"
       transform="translate(0.00251984,-3.4974802)"
       id="ellipse56"
       style="fill:#000000;stroke:none" />
    <ellipse
       cx="17.992001"
       cy="15"
       rx="0.167"
       ry="0.167"
       transform="translate(0.00251984,-3.4974802)"
       id="ellipse58"
       style="fill:none;stroke:#000000;stroke-width:0.2" />
    <ellipse
       cx="17.992001"
       cy="15"
       rx="0.167"
       ry="0.167"
       transform="translate(0.00251984,-3.4974802)"
       id="ellipse60"
       style="fill:none;stroke:#000000;stroke-width:0.001" />
    <polygon
       points="30,17 28,15 30,13 32,15 "
       transform="translate(0.00251984,-3.4974802)"
       id="polygon62"
       style="fill:none;stroke:#000000;stroke-width:0.2" />
    <ellipse
       cx="30.007999"
       cy="15"
       rx="0.167"
       ry="0.167"
       transform="translate(0.00251984,-3.4974802)"
       id="ellipse64"
       style="fill:#000000;stroke:none" />
    <ellipse
       cx="30.007999"
       cy="15"
       rx="0.167"
       ry="0.167"
       transform="translate(0.00251984,-3.4974802)"
       id="ellipse66"
       style="fill:none;stroke:#000000;stroke-width:0.2" />
    <ellipse
       cx="30.007999"
       cy="15"
       rx="0.167"
       ry="0.167"
       transform="translate(0.00251984,-3.4974802)"
       id="ellipse68"
       style="fill:none;stroke:#000000;stroke-width:0.001" />
    <polygon
       points="30,13 28,11 30,9 32,11 "
       transform="translate(0.00251984,-3.4974802)"
       id="polygon70"
       style="fill:none;stroke:#ffffff;stroke-width:0.001" />
    <path
       d="m 30.00252,9.5025198 c -4,-4 4,-4 0,0"
       id="path72"
       style="fill:none;stroke:#000000;stroke-width:0.2" />
    <ellipse
       cx="30.007999"
       cy="11"
       rx="0.167"
       ry="0.167"
       transform="translate(0.00251984,-3.4974802)"
       id="ellipse74"
       style="fill:#000000;stroke:none" />
    <ellipse
       cx="30.007999"
       cy="11"
       rx="0.167"
       ry="0.167"
       transform="translate(0.00251984,-3.4974802)"
       id="ellipse76"
       style="fill:none;stroke:#000000;stroke-width:0.2" />
    <ellipse
       cx="30.007999"
       cy="11"
       rx="0.167"
       ry="0.167"
       transform="translate(0.00251984,-3.4974802)"
       id="ellipse78"
       style="fill:none;stroke:#000000;stroke-width:0.001" />
    <polygon
       points="34,17 32,15 34,13 36,15 "
       transform="translate(0.00251984,-3.4974802)"
       id="polygon80"
       style="fill:none;stroke:#ffffff;stroke-width:0.001" />
    <path
       d="m 32.00252,11.50252 c 4,-4.0000002 4,4 0,0"
       id="path82"
       style="fill:none;stroke:#000000;stroke-width:0.2" />
    <ellipse
       cx="34.007999"
       cy="15"
       rx="0.167"
       ry="0.167"
       transform="translate(0.00251984,-3.4974802)"
       id="ellipse84"
       style="fill:#000000;stroke:none" />
    <ellipse
       cx="34.007999"
       cy="15"
       rx="0.167"
       ry="0.167"
       transform="translate(0.00251984,-3.4974802)"
       id="ellipse86"
       style="fill:none;stroke:#000000;stroke-width:0.2" />
    <ellipse
       cx="34.007999"
       cy="15"
       rx="0.167"
       ry="0.167"
       transform="translate(0.00251984,-3.4974802)"
       id="ellipse88"
       style="fill:none;stroke:#000000;stroke-width:0.001" />
    <polygon
       points="22,21 20,19 22,17 24,19 "
       transform="translate(0.00251984,-3.4974802)"
       id="polygon90"
       style="fill:none;stroke:#ffffff;stroke-width:0.001" />
    <path
       d="m 20.00252,15.50252 c 2,2 1.333,1.333 2,2 1.333,-1.333 1.333,-2.667 0,-4 -1.333,1.333 -1.333,1.333 -2,2"
       id="path92"
       style="fill:none;stroke:#000000;stroke-width:0.2" />
    <ellipse
       cx="22.007999"
       cy="19"
       rx="0.167"
       ry="0.167"
       transform="translate(0.00251984,-3.4974802)"
       id="ellipse94"
       style="fill:#000000;stroke:none" />
    <ellipse
       cx="22.007999"
       cy="19"
       rx="0.167"
       ry="0.167"
       transform="translate(0.00251984,-3.4974802)"
       id="ellipse96"
       style="fill:none;stroke:#000000;stroke-width:0.2" />
    <ellipse
       cx="22.007999"
       cy="19"
       rx="0.167"
       ry="0.167"
       transform="translate(0.00251984,-3.4974802)"
       id="ellipse98"
       style="fill:none;stroke:#000000;stroke-width:0.001" />
    <polygon
       points="18,21 16,19 18,17 20,19 "
       transform="translate(0.00251984,-3.4974802)"
       id="polygon100"
       style="fill:none;stroke:#ffffff;stroke-width:0.001" />
    <path
       d="m 16.00252,15.50252 c 1.333,-1.333 2.667,-1.333 4,0 -1.333,1.333 -2.667,1.333 -4,0"
       id="path102"
       style="fill:none;stroke:#000000;stroke-width:0.2" />
    <ellipse
       cx="18.007999"
       cy="19"
       rx="0.167"
       ry="0.167"
       transform="translate(0.00251984,-3.4974802)"
       id="ellipse104"
       style="fill:#000000;stroke:none" />
    <ellipse
       cx="18.007999"
       cy="19"
       rx="0.167"
       ry="0.167"
       transform="translate(0.00251984,-3.4974802)"
       id="ellipse106"
       style="fill:none;stroke:#000000;stroke-width:0.2" />
    <ellipse
       cx="18.007999"
       cy="19"
       rx="0.167"
       ry="0.167"
       transform="translate(0.00251984,-3.4974802)"
       id="ellipse108"
       style="fill:none;stroke:#000000;stroke-width:0.001" />
    <polygon
       points="14,21 16,19 14,17 12,19 "
       transform="translate(0.00251984,-3.4974802)"
       id="polygon110"
       style="fill:none;stroke:#ffffff;stroke-width:0.001" />
    <path
       d="m 16.00252,15.50252 c -4,-4 -4,4 0,0"
       id="path112"
       style="fill:none;stroke:#000000;stroke-width:0.2" />
    <ellipse
       cx="13.992"
       cy="19"
       rx="0.167"
       ry="0.167"
       transform="translate(0.00251984,-3.4974802)"
       id="ellipse114"
       style="fill:#000000;stroke:none" />
    <ellipse
       cx="13.992"
       cy="19"
       rx="0.167"
       ry="0.167"
       transform="translate(0.00251984,-3.4974802)"
       id="ellipse116"
       style="fill:none;stroke:#000000;stroke-width:0.2" />
    <ellipse
       cx="13.992"
       cy="19"
       rx="0.167"
       ry="0.167"
       transform="translate(0.00251984,-3.4974802)"
       id="ellipse118"
       style="fill:none;stroke:#000000;stroke-width:0.001" />
    <polygon
       points="26,21 24,19 26,17 28,19 "
       transform="translate(0.00251984,-3.4974802)"
       id="polygon120"
       style="fill:none;stroke:#ffffff;stroke-width:0.001" />
    <ellipse
       cx="26.007999"
       cy="19"
       rx="0.167"
       ry="0.167"
       transform="translate(0.00251984,-3.4974802)"
       id="ellipse122"
       style="fill:#000000;stroke:none" />
    <ellipse
       cx="26.007999"
       cy="19"
       rx="0.167"
       ry="0.167"
       transform="translate(0.00251984,-3.4974802)"
       id="ellipse124"
       style="fill:none;stroke:#000000;stroke-width:0.2" />
    <ellipse
       cx="26.007999"
       cy="19"
       rx="0.167"
       ry="0.167"
       transform="translate(0.00251984,-3.4974802)"
       id="ellipse126"
       style="fill:none;stroke:#000000;stroke-width:0.001" />
    <ellipse
       cx="26"
       cy="19"
       rx="1"
       ry="1"
       transform="translate(0.00251984,-3.4974802)"
       id="ellipse128"
       style="fill:none;stroke:#000000;stroke-width:0.2" />
    <polygon
       points="30,17 32,19 30,21 28,19 "
       transform="translate(0.00251984,-3.4974802)"
       id="polygon130"
       style="fill:none;stroke:#ffffff;stroke-width:0.001" />
    <path
       d="m 32.00252,15.50252 c -2,-2 -1.333,-1.333 -2,-2 -1.333,1.333 -1.333,2.667 0,4 1.333,-1.333 1.333,-1.333 2,-2"
       id="path132"
       style="fill:none;stroke:#000000;stroke-width:0.2" />
    <ellipse
       cx="29.992001"
       cy="19"
       rx="0.167"
       ry="0.167"
       transform="translate(0.00251984,-3.4974802)"
       id="ellipse134"
       style="fill:#000000;stroke:none" />
    <ellipse
       cx="29.992001"
       cy="19"
       rx="0.167"
       ry="0.167"
       transform="translate(0.00251984,-3.4974802)"
       id="ellipse136"
       style="fill:none;stroke:#000000;stroke-width:0.2" />
    <ellipse
       cx="29.992001"
       cy="19"
       rx="0.167"
       ry="0.167"
       transform="translate(0.00251984,-3.4974802)"
       id="ellipse138"
       style="fill:none;stroke:#000000;stroke-width:0.001" />
    <polygon
       points="34,21 32,19 34,17 36,19 "
       transform="translate(0.00251984,-3.4974802)"
       id="polygon140"
       style="fill:none;stroke:#ffffff;stroke-width:0.001" />
    <path
       d="m 32.00252,15.50252 c 1.333,-1.333 2.667,-1.333 4,0 -1.333,1.333 -2.667,1.333 -4,0"
       id="path142"
       style="fill:none;stroke:#000000;stroke-width:0.2" />
    <ellipse
       cx="34.007999"
       cy="19"
       rx="0.167"
       ry="0.167"
       transform="translate(0.00251984,-3.4974802)"
       id="ellipse144"
       style="fill:#000000;stroke:none" />
    <ellipse
       cx="34.007999"
       cy="19"
       rx="0.167"
       ry="0.167"
       transform="translate(0.00251984,-3.4974802)"
       id="ellipse146"
       style="fill:none;stroke:#000000;stroke-width:0.2" />
    <ellipse
       cx="34.007999"
       cy="19"
       rx="0.167"
       ry="0.167"
       transform="translate(0.00251984,-3.4974802)"
       id="ellipse148"
       style="fill:none;stroke:#000000;stroke-width:0.001" />
    <polygon
       points="38,21 36,19 38,17 40,19 "
       transform="translate(0.00251984,-3.4974802)"
       id="polygon150"
       style="fill:none;stroke:#ffffff;stroke-width:0.001" />
    <path
       d="m 36.00252,15.50252 c 4,-4 4,4 0,0"
       id="path152"
       style="fill:none;stroke:#000000;stroke-width:0.2" />
    <ellipse
       cx="38.007999"
       cy="19"
       rx="0.167"
       ry="0.167"
       transform="translate(0.00251984,-3.4974802)"
       id="ellipse154"
       style="fill:#000000;stroke:none" />
    <ellipse
       cx="38.007999"
       cy="19"
       rx="0.167"
       ry="0.167"
       transform="translate(0.00251984,-3.4974802)"
       id="ellipse156"
       style="fill:none;stroke:#000000;stroke-width:0.2" />
    <ellipse
       cx="38.007999"
       cy="19"
       rx="0.167"
       ry="0.167"
       transform="translate(0.00251984,-3.4974802)"
       id="ellipse158"
       style="fill:none;stroke:#000000;stroke-width:0.001" />
    <polygon
       points="26,21 24,23 26,25 28,23 "
       transform="translate(0.00251984,-3.4974802)"
       id="polygon160"
       style="fill:none;stroke:#ffffff;stroke-width:0.001" />
    <path
       d="m 26.00252,21.50252 c -1.333,-1.333 -0.667,-0.667 -2,-2 1.333,-1.333 2.667,-1.333 4,0 -0.667,0.667 -1.333,1.333 -2,2"
       id="path162"
       style="fill:none;stroke:#000000;stroke-width:0.2" />
    <ellipse
       cx="26.007999"
       cy="23"
       rx="0.167"
       ry="0.167"
       transform="translate(0.00251984,-3.4974802)"
       id="ellipse164"
       style="fill:#000000;stroke:none" />
    <ellipse
       cx="26.007999"
       cy="23"
       rx="0.167"
       ry="0.167"
       transform="translate(0.00251984,-3.4974802)"
       id="ellipse166"
       style="fill:none;stroke:#000000;stroke-width:0.2" />
    <ellipse
       cx="26.007999"
       cy="23"
       rx="0.167"
       ry="0.167"
       transform="translate(0.00251984,-3.4974802)"
       id="ellipse168"
       style="fill:none;stroke:#000000;stroke-width:0.001" />
    <polygon
       points="22,25 20,23 22,21 24,23 "
       transform="translate(0.00251984,-3.4974802)"
       id="polygon170"
       style="fill:none;stroke:#000000;stroke-width:0.2" />
    <ellipse
       cx="22.007999"
       cy="23"
       rx="0.167"
       ry="0.167"
       transform="translate(0.00251984,-3.4974802)"
       id="ellipse172"
       style="fill:#000000;stroke:none" />
    <ellipse
       cx="22.007999"
       cy="23"
       rx="0.167"
       ry="0.167"
       transform="translate(0.00251984,-3.4974802)"
       id="ellipse174"
       style="fill:none;stroke:#000000;stroke-width:0.2" />
    <ellipse
       cx="22.007999"
       cy="23"
       rx="0.167"
       ry="0.167"
       transform="translate(0.00251984,-3.4974802)"
       id="ellipse176"
       style="fill:none;stroke:#000000;stroke-width:0.001" />
    <polygon
       points="18,25 20,23 18,21 16,23 "
       transform="translate(0.00251984,-3.4974802)"
       id="polygon178"
       style="fill:none;stroke:#ffffff;stroke-width:0.001" />
    <path
       d="m 20.00252,19.50252 c -4,-4 -4,4 0,0"
       id="path180"
       style="fill:none;stroke:#000000;stroke-width:0.2" />
    <ellipse
       cx="17.992001"
       cy="23"
       rx="0.167"
       ry="0.167"
       transform="translate(0.00251984,-3.4974802)"
       id="ellipse182"
       style="fill:#000000;stroke:none" />
    <ellipse
       cx="17.992001"
       cy="23"
       rx="0.167"
       ry="0.167"
       transform="translate(0.00251984,-3.4974802)"
       id="ellipse184"
       style="fill:none;stroke:#000000;stroke-width:0.2" />
    <ellipse
       cx="17.992001"
       cy="23"
       rx="0.167"
       ry="0.167"
       transform="translate(0.00251984,-3.4974802)"
       id="ellipse186"
       style="fill:none;stroke:#000000;stroke-width:0.001" />
    <polygon
       points="30,25 28,23 30,21 32,23 "
       transform="translate(0.00251984,-3.4974802)"
       id="polygon188"
       style="fill:none;stroke:#000000;stroke-width:0.2" />
    <ellipse
       cx="30.007999"
       cy="23"
       rx="0.167"
       ry="0.167"
       transform="translate(0.00251984,-3.4974802)"
       id="ellipse190"
       style="fill:#000000;stroke:none" />
    <ellipse
       cx="30.007999"
       cy="23"
       rx="0.167"
       ry="0.167"
       transform="translate(0.00251984,-3.4974802)"
       id="ellipse192"
       style="fill:none;stroke:#000000;stroke-width:0.2" />
    <ellipse
       cx="30.007999"
       cy="23"
       rx="0.167"
       ry="0.167"
       transform="translate(0.00251984,-3.4974802)"
       id="ellipse194"
       style="fill:none;stroke:#000000;stroke-width:0.001" />
    <polygon
       points="34,25 32,23 34,21 36,23 "
       transform="translate(0.00251984,-3.4974802)"
       id="polygon196"
       style="fill:none;stroke:#ffffff;stroke-width:0.001" />
    <path
       d="m 32.00252,19.50252 c 4,-4 4,4 0,0"
       id="path198"
       style="fill:none;stroke:#000000;stroke-width:0.2" />
    <ellipse
       cx="34.007999"
       cy="23"
       rx="0.167"
       ry="0.167"
       transform="translate(0.00251984,-3.4974802)"
       id="ellipse200"
       style="fill:#000000;stroke:none" />
    <ellipse
       cx="34.007999"
       cy="23"
       rx="0.167"
       ry="0.167"
       transform="translate(0.00251984,-3.4974802)"
       id="ellipse202"
       style="fill:none;stroke:#000000;stroke-width:0.2" />
    <ellipse
       cx="34.007999"
       cy="23"
       rx="0.167"
       ry="0.167"
       transform="translate(0.00251984,-3.4974802)"
       id="ellipse204"
       style="fill:none;stroke:#000000;stroke-width:0.001" />
    <polygon
       points="26,29 24,27 26,25 28,27 "
       transform="translate(0.00251984,-3.4974802)"
       id="polygon206"
       style="fill:none;stroke:#ffffff;stroke-width:0.001" />
    <path
       d="m 26.00252,25.50252 c -1.333,-1.333 -1.333,-2.667 0,-4 1.333,1.333 1.333,2.667 0,4"
       id="path208"
       style="fill:none;stroke:#000000;stroke-width:0.2" />
    <ellipse
       cx="26.007999"
       cy="27"
       rx="0.167"
       ry="0.167"
       transform="translate(0.00251984,-3.4974802)"
       id="ellipse210"
       style="fill:#000000;stroke:none" />
    <ellipse
       cx="26.007999"
       cy="27"
       rx="0.167"
       ry="0.167"
       transform="translate(0.00251984,-3.4974802)"
       id="ellipse212"
       style="fill:none;stroke:#000000;stroke-width:0.2" />
    <ellipse
       cx="26.007999"
       cy="27"
       rx="0.167"
       ry="0.167"
       transform="translate(0.00251984,-3.4974802)"
       id="ellipse214"
       style="fill:none;stroke:#000000;stroke-width:0.001" />
    <polygon
       points="22,25 20,27 22,29 24,27 "
       transform="translate(0.00251984,-3.4974802)"
       id="polygon216"
       style="fill:none;stroke:#ffffff;stroke-width:0.001" />
    <path
       d="m 22.00252,21.50252 c -4,4 4,4 0,0"
       id="path218"
       style="fill:none;stroke:#000000;stroke-width:0.2" />
    <ellipse
       cx="22.007999"
       cy="27"
       rx="0.167"
       ry="0.167"
       transform="translate(0.00251984,-3.4974802)"
       id="ellipse220"
       style="fill:#000000;stroke:none" />
    <ellipse
       cx="22.007999"
       cy="27"
       rx="0.167"
       ry="0.167"
       transform="translate(0.00251984,-3.4974802)"
       id="ellipse222"
       style="fill:none;stroke:#000000;stroke-width:0.2" />
    <ellipse
       cx="22.007999"
       cy="27"
       rx="0.167"
       ry="0.167"
       transform="translate(0.00251984,-3.4974802)"
       id="ellipse224"
       style="fill:none;stroke:#000000;stroke-width:0.001" />
    <polygon
       points="30,25 28,27 30,29 32,27 "
       transform="translate(0.00251984,-3.4974802)"
       id="polygon226"
       style="fill:none;stroke:#ffffff;stroke-width:0.001" />
    <path
       d="m 30.00252,21.50252 c -4,4 4,4 0,0"
       id="path228"
       style="fill:none;stroke:#000000;stroke-width:0.2" />
    <ellipse
       cx="30.007999"
       cy="27"
       rx="0.167"
       ry="0.167"
       transform="translate(0.00251984,-3.4974802)"
       id="ellipse230"
       style="fill:#000000;stroke:none" />
    <ellipse
       cx="30.007999"
       cy="27"
       rx="0.167"
       ry="0.167"
       transform="translate(0.00251984,-3.4974802)"
       id="ellipse232"
       style="fill:none;stroke:#000000;stroke-width:0.2" />
    <ellipse
       cx="30.007999"
       cy="27"
       rx="0.167"
       ry="0.167"
       transform="translate(0.00251984,-3.4974802)"
       id="ellipse234"
       style="fill:none;stroke:#000000;stroke-width:0.001" />
    <polygon
       points="26,29 24,31 26,33 28,31 "
       transform="translate(0.00251984,-3.4974802)"
       id="polygon236"
       style="fill:none;stroke:#ffffff;stroke-width:0.001" />
    <path
       d="m 26.00252,25.50252 c -4,4 4,4 0,0"
       id="path238"
       style="fill:none;stroke:#000000;stroke-width:0.2" />
    <ellipse
       cx="26.007999"
       cy="31"
       rx="0.167"
       ry="0.167"
       transform="translate(0.00251984,-3.4974802)"
       id="ellipse240"
       style="fill:#000000;stroke:none" />
    <ellipse
       cx="26.007999"
       cy="31"
       rx="0.167"
       ry="0.167"
       transform="translate(0.00251984,-3.4974802)"
       id="ellipse242"
       style="fill:none;stroke:#000000;stroke-width:0.2" />
    <ellipse
       cx="26.007999"
       cy="31"
       rx="0.167"
       ry="0.167"
       transform="translate(0.00251984,-3.4974802)"
       id="ellipse244"
       style="fill:none;stroke:#000000;stroke-width:0.001" />
  </g>
</svg>
