<?xml version="1.0" encoding="utf-8"?>
<!-- Generator: Adobe Illustrator 19.1.0, SVG Export Plug-In . SVG Version: 6.00 Build 0)  -->
<svg version="1.1" id="Layer_1" xmlns="http://www.w3.org/2000/svg" xmlns:xlink="http://www.w3.org/1999/xlink" x="0px" y="0px"
	 viewBox="0 0 500 500" style="enable-background:new 0 0 500 500;" xml:space="preserve">
<style type="text/css">
	.st0{fill:#F8B017;}
	.st1{fill:none;}
	.st2{fill:#F5AF19;}
	.st3{fill:#E5D7C8;}
	.st4{fill:#F4AE19;}
	.st5{fill:#F7AF17;}
	.st6{fill:#0FA2D4;}
</style>
<g>
	<g>
		<g>
			<polygon class="st5" points="222.3,314.4 222.3,314.2 222.2,314.2 			"/>
		</g>
	</g>
	<g>
		<g>
			<polygon class="st5" points="251.5,323.3 193.3,323.3 193.3,321.1 251.5,321.4 			"/>
		</g>
	</g>
	<g>
		<g>
			<polygon class="st5" points="251.5,327.9 193.3,327.9 193.3,325.7 251.5,326 			"/>
		</g>
	</g>
	<g>
		<g>
			<polygon class="st5" points="251.5,332.1 193.3,332.1 193.3,329.9 251.5,330.2 			"/>
		</g>
	</g>
	<g>
		<g>
			<polygon class="st5" points="251.5,337.8 193.3,337.8 193.3,335.5 251.5,335.8 			"/>
		</g>
	</g>
	<g>
		<g>
			<polygon class="st5" points="271.2,364.7 192.4,364.7 192.4,362.5 271.2,362.8 			"/>
		</g>
	</g>
	<g>
		<g>
			<polygon class="st5" points="299.8,401.8 191.9,401.8 191.9,399.6 299.7,399.9 			"/>
		</g>
	</g>
	<g>
		<g>
			<polygon class="st5" points="191.9,400 191.9,302.3 194,302.3 193.7,399.9 			"/>
		</g>
	</g>
	<g>
		<g>
			<path class="st5" d="M268.4,352.6h-9.2v-30.4h9.2V352.6z M260.9,350.9h6v-27.1h-6V350.9z"/>
		</g>
	</g>
	<g>
		<g>
			<path class="st5" d="M276.6,385.7h-13.7v-13.2h13.7V385.7z M264.5,384H275v-9.9h-10.5V384z"/>
		</g>
	</g>
	<g>
		<g>
			<path class="st5" d="M223.4,356.5h-23.6v-13.2h23.6V356.5z M201.4,354.9h20.5V345h-20.5V354.9z"/>
		</g>
	</g>
	<g>
		<g>
			<path class="st5" d="M260.8,346.1h-29.5v-10h29.5V346.1z M232.9,344.4h26.3v-6.6h-26.3V344.4z"/>
		</g>
	</g>
	<g>
		<g>
			<path class="st5" d="M220.2,385.7h-13.7v-13.2h13.7V385.7z M208.2,384h10.5v-9.9h-10.5V384z"/>
		</g>
	</g>
	<g>
		<g>
			<path class="st5" d="M250.7,401.7h-19.7v-27h19.7V401.7z M232.7,400h16.5v-23.7h-16.5V400z"/>
		</g>
	</g>
	<g>
		<g>
			<rect x="269" y="373.3" class="st5" width="1.6" height="11.5"/>
		</g>
	</g>
	<g>
		<g>
			<rect x="212.7" y="373.4" class="st5" width="1.6" height="11.5"/>
		</g>
	</g>
	<g>
		<g>
			<rect x="207.1" y="343.9" class="st5" width="1.6" height="11.5"/>
		</g>
	</g>
	<g>
		<g>
			<rect x="214.9" y="344" class="st5" width="1.6" height="11.5"/>
		</g>
	</g>
	<g>
		<g>
			<path class="st5" d="M203.5,318.3h-6V312h6V318.3z M199.1,316.6h2.8v-2.9h-2.8V316.6z"/>
		</g>
	</g>
	<g>
		<g>
			<path class="st5" d="M213,318.3h-6V312h6V318.3z M208.6,316.6h2.8v-2.9h-2.8V316.6z"/>
		</g>
	</g>
	<g>
		<g>
			<path class="st5" d="M222.4,318.3h-6V312h6V318.3z M218,316.6h2.8v-2.9H218V316.6z"/>
		</g>
	</g>
	<g>
		<g>
			<path class="st5" d="M231.9,318.3h-6V312h6V318.3z M227.5,316.6h2.8v-2.9h-2.8V316.6z"/>
		</g>
	</g>
	<g>
		<g>
			<path class="st5" d="M241.4,318.3h-6V312h6V318.3z M237,316.6h2.8v-2.9H237V316.6z"/>
		</g>
	</g>
	<g>
		<g>
			<path class="st5" d="M250.8,318.3h-6V312h6V318.3z M246.4,316.6h2.8v-2.9h-2.8V316.6z"/>
		</g>
	</g>
	<g>
		<g>
			<path class="st5" d="M260.3,318.3h-6V312h6V318.3z M255.9,316.6h2.8v-2.9h-2.8V316.6z"/>
		</g>
	</g>
	<g>
		<g>
			<g>
				<path class="st5" d="M308.1,132.1v-2.9l0,0v-4.4l-7.1-3v0l-18.8-7.8v-3.2l0-0.8l0,0l-0.2-0.6l-0.4-0.2c-0.5-0.2-0.9-0.4-1.4-0.6
					l-3.1-2.2v-3l-0.3-0.9l-0.4-0.2c-0.6-0.2-1.1-0.3-1.7-0.4c0-0.1,0.1-0.2,0.1-0.3v-2c0-0.7-0.6-1.3-1.3-1.3s-1.3,0.6-1.3,1.3v2
					c0,0.1,0,0.2,0,0.2c-1.4,0.3-2.3,0.9-2.4,1.1l-0.3,0.3v3.2l-4,2.9c0,0-0.2,0.1-0.3,0.2l-0.3,0.2v0.6l0,0v0.7l0,0l0,0.1v4
					l-9.2,3.9v-6.6c0-0.6-0.4-1-1-1c-0.5,0-1,0.5-1,1v7.5l-5.1,2.1v0l-7.1,3v5.5l0,0l0,0v1.8l10.7,0.3l-0.1,16.4l-3.5,1.5v0l-7.1,3
					v7.6l10.6-4.2l-0.5,118.1l-0.2,28.5l0,1.3c-5.8,0-11.2-0.1-16.1,0l-19.7,0.2c-0.5,0-22,0.1-22.5,0.1l-1.4,0.6l1.4,1.4l24.7,0
					c9.3,0,23.4-0.1,33.6-0.1l0,0l1.2,0c3.2,0,10.3,0,13.3-0.1v1.7h-74l1.5,2.1h72.4v3.8h0.2v7.2l-39.3-0.3l1.4,2.2l23.5,0.2l0,2.2
					l-17.6,0.1l0,6.3l0,3.6l3.2,2.1h21.4c0.4-0.1,0.7-0.2,1.1-0.2c0.2,0,0.4,0,0.5,0.1v-2h-24.2v-3.5l24.2,0v-0.1
					c0-0.8,0.1-1.5,0.4-2.1l-4.2,0l-0.1-6.5l11.7,0v-19.4l-1.2,0.2c-1.1,0-6.3-0.1-13.3-0.1l0-0.6l18.9-4.1v45v2.5v7.1
					c0,0.9,0,1.9,0,1.9l9.7,0.2l0.1,6.2l-29.8,0.1l1.2,1.9h28.5v22.4l0.1,13l2,0.1l0-13v-32.1l0.7,0.5l0.6,44.8l2.1,0l-0.7-46.1
					l-12.5-8.2v-46.4l22.4,3.8l0.6,95.9l0,0.9l2,1.2l-1.4-244.6l9.9,3.9v-7.5l-7.1-3v0l-3.4-1.4l-3.6-2l0.2-14.8H308.1z M236.2,330
					v-2l15.6-0.1l0.1,2.2L236.2,330z M254,330l-0.2-6.5l0.5,0l0.3,6.6L254,330z M294.3,130l0-2.9l7.3,2.9H294.3z M271.7,104.3
					c0.5-0.3,1.6-0.6,3.2-0.1v1c-0.8-0.2-1.9-0.3-3.2,0.2V104.3z M267.1,110c0,0,4.8-4.4,11.1-1.1l2.1,1.5l0.1,3l-6-2.1l-7.3,2.8
					l-0.1-2.1C267.1,111.7,267.1,110,267.1,110z M247.7,130.1l4.7-1.8l0,2L247.7,130.1z M272.6,297.5l-18.9,4.1l0.1-26.5l18.8-6.8
					V297.5z M272.6,266l-18.8,6.8l0.2-55.1l18.6-6.8V266z M272.6,208.6l-18.6,6.8l0.1-29.6l18.5-6.5V208.6z M272.6,177l-18.4,6.5
					l0.1-27.7l18.3-7.2V177z M283.5,354.3h-8.8v-5.8L283.5,354.3z M274.6,297.5v-29.3l22.3,6.2l0.2,26.9L274.6,297.5z M296.4,185.8
					l0.2,29.2l-21.9-6.5v-29.3L296.4,185.8z M274.6,177v-29.2l0.2-0.1l21.4,8.4l0.2,27.5L274.6,177z M296.6,217.2l0.3,54.9
					l-22.3-6.2v-55.2L296.6,217.2z M306.1,154.4l0,3.2L274,144.6l-29.9,12.7l0-3l30.3-12.5L306.1,154.4z M286.8,144.4l-2.3-1v0
					l-8.8-3.7l-0.9-0.4l0,0l-0.2-0.1v-13.6l9.8,3.4l0.1,14l0,0l0,0l7.4,2.8v-13.1l0.2-0.3l-0.1,14.1L286.8,144.4L286.8,144.4z
					 M286.6,138.4l-0.1-6.5l3,1.2L286.6,138.4z M290,136.5v6.4l-2.9-1.1L290,136.5z M274.6,123.4L274.6,123.4L274.6,123.4
					c-0.3-0.1-0.5-0.2-0.7-0.2c-0.1,0-0.2-0.1-0.4-0.2l-19.3,6.9l0-2.4l20.5-8l17.4,6.8l0,3.3L274.6,123.4z M254.4,132.2l18.2-6.5
					v14.7l-18.3,7.6L254.4,132.2z M274,115.5l-29.9,12.7l0-3l30.3-12.5l31.8,12.6l0,3.2L274,115.5z"/>
			</g>
		</g>
	</g>
</g>
</svg>
