<?xml version="1.0" encoding="utf-8"?>
<!-- Generator: Adobe Illustrator 19.1.0, SVG Export Plug-In . SVG Version: 6.00 Build 0)  -->
<svg version="1.1" id="Layer_1" xmlns="http://www.w3.org/2000/svg" xmlns:xlink="http://www.w3.org/1999/xlink" x="0px" y="0px"
	 viewBox="0 0 500 500" style="enable-background:new 0 0 500 500;" xml:space="preserve">
<style type="text/css">
	.st0{fill:#F8B017;}
	.st1{fill:none;}
	.st2{fill:#F5AF19;}
	.st3{fill:#E5D7C8;}
	.st4{fill:#F4AE19;}
	.st5{fill:#F7AF17;}
	.st6{fill:#0FA2D4;}
</style>
<g>
	<g>
		<g>
			<g>
				<path class="st0" d="M355.7,333.8c-0.2,0.2-0.3,0.3-0.5,0.4l2.5,2.6c1.1-1,2-2,3-3H355.7z M325.1,334.2l2.3,2.8
					c0.2-0.2,1.4-1.2,3-3.1h-5C325.3,334.1,325.1,334.2,325.1,334.2z M270,334.1l2.2,2.8c1.4-1,2.6-2.1,3.9-3.1h-5.6
					C270.3,333.9,270.1,334,270,334.1z M144.2,333.8c-11.9-11.5-17.1-24.3-15.4-38.1c5.3-43.4,75.6-83.9,76.3-84.3
					c0.7-0.4,1.1-1.2,0.8-2c-0.2-0.8-0.9-1.4-1.7-1.4h-11.5c-0.3,0-0.5,0.1-0.7,0.2c-0.3,0.2-39.3,16.8-82.4,57.3
					c-14.7,13.8-21.7,27.7-20.6,41.3c1.3,18.6,16.9,29.7,17.5,30.2c0.3,0.2,0.7,0.3,1,0.3h150.3c1,0,1.8-0.8,1.8-1.7v-1.8H144.2z
					 M108.1,333.8c-2.5-1.9-14.5-11.9-15.6-27.2c-0.9-12.5,5.7-25.5,19.5-38.5c40.6-38.1,77.3-54.8,81.1-56.5h4.8
					c-17.2,10.7-67.9,45.3-72.6,83.6c-1.7,14,3,26.9,14,38.6H108.1z"/>
			</g>
		</g>
		<g>
			<g>
				<path class="st0" d="M227.8,337c-19.2-14.7-29.4-32.2-30.4-51.9c-1.7-33.8,24.1-64,33.1-73.5h-14.3
					c-36.2,32.6-55.1,63.8-54.6,90.2c0.4,21.3,13.1,32.3,13.2,32.4l-2.3,2.7c-0.6-0.5-14.1-12.1-14.5-35
					c-0.5-28,18.5-59.4,56.3-93.4c0.3-0.3,0.7-0.5,1.2-0.5h19.3c0.7,0,1.4,0.4,1.7,1.1c0.3,0.7,0.1,1.5-0.4,2
					c-0.4,0.3-37,35.3-35.1,73.8c0.9,18.6,10.7,35.1,29,49.2L227.8,337z"/>
			</g>
		</g>
	</g>
	<g>
		<g>
			<g>
				<path class="st0" d="M411.1,306.8c-1.4,18.4-17.6,29.8-18.6,30.4c-0.1,0.1-0.1,0.1-0.1,0.1H257.8c1,0,1.8-0.8,1.8-1.7v-1.8h10.9
					c-0.1,0.1-0.3,0.2-0.5,0.3l2.2,2.8c1.4-1,2.6-2.1,3.9-3.1h49.4c-0.2,0.3-0.4,0.4-0.4,0.4l2.3,2.8c0.2-0.2,1.4-1.2,3-3.1h25.2
					c-0.2,0.2-0.3,0.3-0.5,0.4l2.5,2.6c1.1-1,2-2,3-3h31.7c0.2-0.1,14-10.3,15.2-27.2c0.8-12.5-5.7-25.5-19.6-38.5
					c-40.6-38.1-77.2-54.8-81.1-56.5h-4.8c17.2,10.7,68,45.3,72.6,83.6c1.7,14-3,26.9-14,38.6h-5c11.9-11.5,17.2-24.3,15.5-38.1
					c-5.2-43.4-75.6-83.9-76.3-84.3c-0.7-0.4-1.1-1.2-0.8-2c0.2-0.8,0.9-1.4,1.7-1.4h11.6c0.2,0,0.4,0.1,0.7,0.2
					c0.4,0.2,39.3,16.8,82.5,57.3C405.1,279.3,412,293.2,411.1,306.8z"/>
			</g>
			<g>
				<path class="st0" d="M360.7,333.8c-1,1-1.9,2-3,3l-2.5-2.6c0.2-0.2,0.3-0.3,0.5-0.4H360.7z"/>
			</g>
		</g>
		<g>
			<g>
				<path class="st0" d="M341.9,301.9c-0.3,16.4-7.3,27-11.5,31.9c-1.7,1.9-2.9,3-3,3.1l-2.3-2.8c0,0,0.2-0.1,0.4-0.4
					c2.1-2,12.5-12.9,12.8-32.1c0.4-26.4-18.5-57.5-54.6-90.1h-14.3c9.1,9.5,34.8,39.7,33.1,73.5c-0.9,18.3-9.8,34.7-26.5,48.7
					c-1.2,1.1-2.5,2.1-3.9,3.1l-2.2-2.8c0.2-0.1,0.3-0.2,0.5-0.3c18.1-14,27.6-30.4,28.6-48.9c1.9-38.5-34.7-73.5-35.1-73.8
					c-0.5-0.5-0.7-1.3-0.4-2c0.3-0.7,1-1.1,1.7-1.1h19.3c0.4,0,0.8,0.2,1.2,0.4C323.4,242.4,342.4,273.9,341.9,301.9z"/>
			</g>
		</g>
	</g>
	<g>
		<g>
			<path class="st0" d="M257.6,291.9c1,0,1.8-0.8,1.8-1.8v-10l11.8-10c0.6-0.5,0.8-1.3,0.5-2.1l-5.2-12.5c-0.3-0.7-1-1.1-1.6-1.1
				h-1.7c-1,0-1.8,0.8-1.8,1.8v8h-3.6v-7.7c0-1-0.8-1.8-1.8-1.8h-1.6v-92.2c-1,0.8-2.2,1.3-3.6,1.5v92.5c0,1,0.8,1.7,1.8,1.7h1.6
				v7.8c0,1,0.8,1.8,1.8,1.8h7.2c1,0,1.8-0.8,1.8-1.8v-5l2.9,7.1l-11.4,9.7c-0.4,0.3-0.7,0.8-0.7,1.4v9.1h-3.3c-1,0-1.8,0.8-1.8,1.7
				v41c0,1,0.8,1.8,1.8,1.8h3.5v0.9h-12.7v-1l3.2,0.1c0.5,0,0.9-0.2,1.2-0.5c0.3-0.3,0.6-0.8,0.6-1.3V290c0-1-0.8-1.7-1.8-1.7h-1.1
				v-8.9c0-0.6-0.3-1.1-0.7-1.4l-13.4-9.5l3.6-7.7v5.5c0,1,0.8,1.8,1.7,1.8h6.9c1,0,1.7-0.8,1.7-1.8v-7.8h1.2c1,0,1.8-0.8,1.8-1.7
				v-92.5c-1.4-0.2-2.6-0.7-3.6-1.5v92.2h-1.2c-1,0-1.8,0.8-1.8,1.8v7.8h-3.3v-7.8c0-1-0.8-1.8-1.8-1.8h-1.8c-0.7,0-1.4,0.4-1.6,1
				l-5.7,12.4c-0.4,0.8-0.1,1.7,0.6,2.2l13.8,9.8v9.7c0,1,0.8,1.8,1.8,1.8h1.1v37.5h-3.2c-0.5-0.1-0.9,0.2-1.2,0.5
				c-0.3,0.3-0.6,0.8-0.6,1.2v4.5c0,1,0.8,1.8,1.8,1.8h16.2c1,0,1.8-0.8,1.8-1.7v-1.8l0.1-2.7c0-0.4-0.2-0.9-0.6-1.2
				c-0.3-0.3-0.8-0.5-1.2-0.5h-3.5v-37.4H257.6z"/>
		</g>
	</g>
</g>
</svg>
