<?xml version="1.0" encoding="utf-8"?>
<!-- Generator: Adobe Illustrator 19.1.0, SVG Export Plug-In . SVG Version: 6.00 Build 0)  -->
<svg version="1.1" id="Layer_1" xmlns="http://www.w3.org/2000/svg" xmlns:xlink="http://www.w3.org/1999/xlink" x="0px" y="0px"
	 viewBox="0 0 500 500" style="enable-background:new 0 0 500 500;" xml:space="preserve">
<style type="text/css">
	.st0{fill:#F8B017;}
	.st1{fill:none;}
	.st2{fill:#F5AF19;}
	.st3{fill:#E5D7C8;}
	.st4{fill:#F4AE19;}
	.st5{fill:#F7AF17;}
	.st6{fill:#0FA2D4;}
</style>
<g>
	<g>
		<path class="st0" d="M203.9,240c-0.6-1.1-1.4-2.4-2.8-3.1c-2.2-1-4.4-1.8-6.3-2.4l0.1-0.2c0.8-2,1.7-4.1,2.4-6.3
			c0.6-1.9-0.3-5.1-2.2-6.3c-1.5-1-3.7-0.5-5.1,0.1c-0.6,0.3-1.2,0.7-1.5,1.1c-1.6,1.8-3.1,3.7-4.5,5.6c-1.6-1.4-3.3-2.8-5.1-4.1
			c-1.3-0.9-2.9-0.9-4.2-0.8c-0.4,0-0.7,0-1.1,0l-2.7-0.2l0,2.7c0,0.3,0,0.6-0.1,1.2c-0.2,1.3-0.4,3,0.5,4.5
			c1.1,1.9,2.4,3.6,3.7,5.2c-1.8,1.1-3.7,2.3-5.5,3.7c-1.3,1-1.7,2.5-2.1,3.8c-0.1,0.3-0.2,0.6-0.3,0.8l-1.1,2.5l2.6,0.9
			c0.4,0.1,0.7,0.3,1.1,0.5l0,0c1.2,0.6,2.7,1.3,4.4,0.9c2.1-0.5,4.2-1.2,6.1-1.9c0.4,1.9,0.8,3.8,1.6,5.7c0.6,1.6,1.9,2.6,2.9,3.4
			c0.3,0.3,0.7,0.5,1,0.8l2.3,2.2l1.7-2.7c0.2-0.4,0.5-0.8,0.8-1.1c0.8-1.1,1.9-2.5,2.1-4.1c0.3-1.9,0.3-3.8,0.2-5.5
			c2.2,0,4.4,0.1,6.7-0.1c1.2-0.1,2.4-0.8,3.6-1.7c0.2-0.2,0.5-0.3,0.7-0.5l2.4-1.4l-1.6-2.3C204.3,240.7,204.2,240.4,203.9,240z
			 M198.9,241.6c-2.1,0.2-4.3,0.2-6.4,0.1l-0.6,0c-0.7,0-1.3,0-2,0l-2.6,0l0,2.6c0,0.7,0,1.4,0.1,2.1c0.1,1.7,0.1,3.5-0.1,5.2
			c0,0.2-0.2,0.6-0.5,1c-0.2-0.2-0.4-0.4-0.5-0.6c-0.7-1.7-1.1-3.6-1.5-5.7c-0.2-0.7-0.3-1.5-0.5-2.2l-0.7-2.7l-2.7,0.9
			c-0.7,0.2-1.4,0.5-2.1,0.7l-0.4,0.1c-1.8,0.7-3.8,1.4-5.5,1.8c-0.1,0-0.3-0.1-0.6-0.2c0.1-0.1,0.1-0.2,0.1-0.3
			c1.6-1.2,3.5-2.4,5.2-3.4c0.8-0.5,1.5-0.9,2.3-1.4l2.4-1.5l-1.7-2.2c-0.5-0.7-1.1-1.4-1.6-2.1c-1.2-1.5-2.5-3.1-3.4-4.7
			c0-0.1,0-0.4,0-0.6c0.1,0,0.2,0,0.2,0c1.6,1.1,3.1,2.3,4.7,3.8c0.7,0.6,1.3,1.1,2,1.7l2,1.7l1.6-2.1c0.6-0.7,1.1-1.5,1.6-2.2
			c1.2-1.7,2.7-3.6,4.1-5.2l0.1,0l0,0.1c-0.6,2-1.4,3.9-2.3,6c-0.4,0.8-0.7,1.7-1,2.5l-1,2.5l2.5,0.9c0.8,0.3,1.6,0.5,2.4,0.8
			c1.9,0.6,4.1,1.4,5.9,2.2C198.8,241.4,198.9,241.5,198.9,241.6L198.9,241.6z"/>
	</g>
	<g>
		<path class="st0" d="M299.5,255.1c0.3,0,0.7,0.1,1.1,0.2l0.2,0l0.2-1l-0.2,1c1.3,0.3,2.9,0.6,4.5,0.1c1.6-0.5,3.6-1.5,5.3-2.4
			c0.7,2,1.5,4.1,2.5,6c0.7,1.4,2,2.1,3.2,2.8c0.3,0.2,0.6,0.3,0.8,0.5l2.3,1.7l1.4-2.5c0.2-0.3,0.4-0.6,0.6-1
			c0.7-1.1,1.7-2.4,1.6-4.1c0-2.2-0.4-4.4-0.7-6.4c2,0,4.1-0.1,6.1-0.5c1.5-0.3,2.7-1.4,3.8-2.4c0.3-0.3,0.5-0.5,0.8-0.7l2.3-1.8
			l-2.1-2c-0.2-0.2-0.5-0.5-0.8-0.9c-0.8-1-1.8-2.2-3.4-2.7c-2-0.6-4.1-1-6-1.3l0-0.1c0.5-2.2,1.1-4.6,1.4-6.9
			c0.2-1.6-0.5-3.5-1.4-4.6c-0.6-0.7-1.3-1.2-2.2-1.3c-2-0.2-4.6,0.8-5.7,2.4c-1.3,1.9-2.4,3.9-3.6,6c-1.7-1.2-3.4-2.3-5.3-3.3
			c-1.5-0.7-3-0.6-4.4-0.4c-0.4,0.1-0.8,0.1-1.1,0.1l-3,0l0.5,2.9c0.1,0.3,0.1,0.7,0.1,1.2c0.1,1.3,0.2,2.8,1.2,4.1
			c1.3,1.8,2.8,3.3,4.2,4.7c-1.4,1-2.9,2.1-4.1,3.4c-1.2,1.2-1.6,2.9-2,4.1l-0.1,0.3c-0.1,0.4-0.2,0.7-0.3,1l-1.2,3.1L299.5,255.1z
			 M303.5,249.7c1.1-1.2,2.5-2.2,3.9-3.2l0.3-0.2c0.6-0.4,1.1-0.8,1.7-1.2l2.2-1.7l-1.9-2.1c-0.5-0.5-1-1.1-1.5-1.6l-0.2-0.2
			c-1.4-1.5-2.9-3-4.1-4.5c0-0.1-0.1-0.2-0.1-0.4c0.2,0,0.3,0,0.4,0c1.7,0.9,3.4,2,5,3.1c0.7,0.5,1.4,1,2.1,1.4l2.3,1.5l1.3-2.4
			c0.4-0.8,0.9-1.6,1.3-2.4c1-1.8,2-3.7,3.2-5.4c-0.3,2.1-0.8,4.3-1.3,6.2c-0.2,0.9-0.4,1.8-0.6,2.7l-0.6,2.6l2.6,0.5
			c0.8,0.1,1.5,0.3,2.3,0.4c1.9,0.3,3.9,0.6,5.7,1.2c0.1,0,0.2,0.2,0.4,0.4c-0.1,0.1-0.3,0.2-0.4,0.3c-1.8,0.3-3.7,0.4-5.7,0.4
			c-0.9,0-1.7,0-2.6,0.1l-2.8,0.1l0.4,2.8c0.1,0.9,0.3,1.8,0.4,2.7c0.3,2,0.6,4,0.7,5.8c0,0.1-0.1,0.2-0.2,0.4
			c-0.1-0.1-0.1-0.1-0.1-0.1c-0.9-1.7-1.6-3.6-2.4-5.6l-0.1-0.4c-0.3-0.7-0.6-1.5-0.8-2.2l-1-2.6l-2.5,1.2c-0.7,0.3-1.3,0.7-2,1.1
			l-0.3,0.1c-1.7,0.9-3.5,1.8-4.9,2.3c-0.1,0-0.3,0-0.5,0C303.2,250.2,303.4,249.9,303.5,249.7z"/>
	</g>
	<g>
		<path class="st0" d="M318,153.8c-0.6-0.4-1.2-0.8-1.9-1.3c-1.7-1.2-3.4-2.5-5.5-2.8l-0.9-0.2c-8.5-1.5-17.4-3.1-26.2-3.7
			c-27.7-1.8-52.3-1.5-75,0.9c-7.4,0.8-14.9,2.3-21.3,3.7c-2.4,0.5-6.2,2.8-6.7,5.7c-0.5,3,2.2,6.4,4.2,7.7c3.3,2.2,6.9,3.9,10.4,5
			c2,0.6,3,1.5,3.9,3.6c2.4,6,2.4,11.8-0.1,17.8l-1.1,2.6l0.6,0.2l-18.3,15.2l0.4,1.5c-0.7-0.2-1.3-0.3-2-0.6l-1.6-0.5l-2.7,3
			c-1.4,1.6-3,3.4-4.7,5.2c-10.3,11.1-17,22.1-20.4,33.6c-0.9,2-8.8,19.9,2.3,44.6l0.1,0.3c0.1,0.2,0.1,0.4,0.2,0.6
			c7,17.2,18.9,31.1,35.3,41.3c19.3,12,40.2,18.1,62.1,18c8.7,0,17.7-1,26.8-3c9.5-2,18.4-5.1,26.4-9c15.2-7.4,27.9-18.2,37.7-32
			c2.3-3.3,4.5-7.1,6.5-11.4c12.7-23.8,6.9-42.7,4.9-47.8c-0.9-3.4-1.9-6.7-3.2-9.8c-4.9-11.5-12.7-21.7-25.3-33.1l-1-0.9l-1.3,0.4
			c-0.1,0-0.1,0-0.2,0l-18.7-15.4l-3.2,20.5c-0.3,0.1-0.7,0.1-1,0.2l3.8-21.4l0.9-0.2l-1.2-2.7c-2.7-6-2.6-11.9,0.1-18.3
			c0.7-1.6,1.5-2.3,2.9-2.7c3.3-1,7-2.4,9.6-4.3c1.8-1.3,3-3.2,4.1-5.1c0.4-0.6,0.8-1.3,1.2-1.9l1.6-2.2L318,153.8z M203.7,196.4
			l16.6,3.9L209.1,213L203.7,196.4z M223.7,198.9c1,0.2,2.1,0.2,3.1,0.3l9.2,20c-0.4,0-0.7,0-1.1,0l-8.8-18.8l-15.5,16.5
			c-0.7-0.1-1.3-0.3-2-0.4l15.4-17.5L223.7,198.9z M248.5,200.5c0.4,0,0.9,0,1.3,0l-12.2,18.8c-0.4,0-0.7,0-1.1,0L248.5,200.5z
			 M236.5,215.3l-6.4-13.8l14.7,0.7L236.5,215.3z M296.9,214.1c-1,0.2-2,0.3-3,0.5l0.1-1.3l-21.3-14.7c0.6-0.1,1.2-0.2,1.8-0.3
			l-0.5,0.1L296.9,214.1z M291.5,214.1l-22.7,3.2l4.9-15.5L291.5,214.1z M266.2,218.6c-0.3,0-0.7,0.1-1,0.1l6.3-19.9
			c0.3,0,0.7-0.1,1-0.1L266.2,218.6z M273.7,238.6L273.7,238.6c0.7,0,1.5,0,2.3-0.1c1.8-0.1,3.7-0.1,5.5,0.1c0.2,0,0.4,0.1,0.7,0.3
			c-0.2,0.2-0.3,0.3-0.4,0.4c-1.7,0.7-3.5,1.2-5.4,1.6c-0.8,0.2-1.6,0.4-2.4,0.6l-2.6,0.7l0.9,2.6c0.3,0.8,0.6,1.7,0.9,2.5
			c0.7,2,1.5,4,2,6.1c0,0,0,0.1,0,0.1l-0.1,0c-1.3-1.5-2.4-3.2-3.7-5.1c-0.5-0.7-1-1.5-1.5-2.2l-1.5-2.2l-2.1,1.6
			c-0.6,0.5-1.2,1-1.9,1.5c-1.6,1.3-3.2,2.5-4.9,3.6c-0.1,0-0.2,0-0.4,0c0-0.2,0-0.4,0.1-0.5c1-1.5,2.2-3,3.6-4.5
			c0.6-0.7,1.2-1.3,1.7-2l1.8-2.2l-2.4-1.6c-0.7-0.5-1.4-0.9-2.2-1.4c-1.7-1.1-3.5-2.2-4.9-3.4c0-0.1-0.1-0.2-0.2-0.4
			c0.2-0.1,0.4-0.1,0.5-0.1c1.8,0.5,3.6,1.2,5.3,2c0.8,0.3,1.6,0.7,2.4,1l2.6,1l0.8-2.6c0.2-0.7,0.4-1.3,0.6-2l0.2-0.7
			c0.7-2.2,1.3-4.3,2-6l0.1-0.1c0.2,2.1,0.2,4.2,0.1,6.3l0,0.5c0,0.7,0,1.3,0,2l0,2.6L273.7,238.6z M267.1,205.5l-0.3-0.2
			c-0.5-0.4-0.9-0.8-1.3-1.1c-1-0.9-1.8-1.6-2.8-1.3l-0.3,0.1c-0.8,0.4-1.3,1.1-1.9,1.9c-0.2,0.3-0.4,0.5-0.6,0.8l-0.7,0.8l0.8,0.7
			c0.2,0.2,0.4,0.4,0.7,0.6c0.7,0.7,1.4,1.4,2.4,1.5c0.8,0,1.6-0.5,2.5-1.3c0.3-0.3,0.6-0.5,1-0.8l-2.3,7.3l-9.4-12.3l13.8-1.2
			L267.1,205.5z M265,218.7c-0.4,0-0.8,0.1-1.2,0.1l-14-18.4c0.4,0,0.8,0,1.2,0L265,218.7z M260.3,217.6l-8,0
			c0.1-0.2,0.3-0.4,0.4-0.6c0.6-1,1.2-1.8,1.2-2.8c0-0.5-0.3-1.1-0.9-1.6c-0.6-0.6-1.7-1.2-2.6-1.1c-0.2,0-0.5,0.1-0.7,0.2
			c-0.9,0.4-2.2,1.8-2.2,3.1c0,1,0.7,1.7,1.5,2.6c0.1,0.1,0.2,0.2,0.3,0.3l-8.1,0l8.8-13.6L260.3,217.6z M225.7,204.1l6.4,13.8
			l-17.8-1.7L225.7,204.1z M201.1,195.3l6.8,21c-0.5-0.1-1-0.2-1.5-0.3l0-0.3c-0.4-3.8-1.6-7.1-2.8-10.3
			C202.4,202,201.3,198.8,201.1,195.3z M198.5,196.3L198.5,196.3c0.3,3.5,1.5,6.8,2.6,9.9c0.9,2.5,1.8,5.1,2.4,7.8l-20.1-5.2
			L198.5,196.3z M190.2,333.2L190.2,333.2c-0.1,0-0.3-0.1-0.4-0.2c-15.1-9.4-26.1-22.1-32.8-37.8c13.9,3.5,28.1,6.1,42.5,7.8
			c-0.8,1-1.6,2.1-1.9,3.4c-0.5,1.7-0.6,3.4-0.6,4.9c-2.1-0.4-4.1-0.8-6.2-0.9c-1.7-0.1-2.9,0.6-3.9,1.2l-0.9,0.5l-3.1,1.3l1.7,2.6
			c0.2,0.3,0.4,0.7,0.6,1c0.6,1.1,1.3,2.5,2.6,3.3c1.8,1.1,3.7,2,5.6,2.9c-1,1.7-2.1,3.6-2.9,5.5
			C189.7,330.2,189.9,331.8,190.2,333.2z M207.5,316.9L207.5,316.9c0.7-0.1,1.5-0.3,2.2-0.4l0.4-0.1c2-0.4,4-0.8,5.8-0.9
			c0.1,0,0.2,0.1,0.4,0.1c-0.1,0.1-0.1,0.1-0.1,0.1c-1.4,0.9-3.4,1.8-5.4,2.8c-0.7,0.3-1.4,0.7-2.3,1.1l-2.4,1.2l1.3,2.3
			c0.4,0.8,0.8,1.5,1.3,2.4c1,1.8,2,3.6,2.7,5.2c0,0,0,0.2,0,0.4c-0.1,0-0.2,0-0.2,0c-1.5-1.2-2.8-2.7-4.3-4.3
			c-0.6-0.7-1.2-1.3-1.8-2l-1.9-2l-1.9,2c-0.5,0.6-1,1.1-1.7,1.9c-1.3,1.5-2.7,3.1-4.1,4.3c0,0-0.2,0.1-0.4,0.1c0-0.2,0-0.4,0-0.4
			c0.7-1.8,1.6-3.4,2.7-5.2c0.4-0.8,0.9-1.5,1.3-2.3l1.3-2.4l-2.5-1.2c-0.8-0.4-1.5-0.7-2.3-1.1c-1.8-0.8-3.7-1.7-5.3-2.7
			c0,0-0.2-0.2-0.2-0.3c0.3-0.1,0.4-0.1,0.4-0.1c1.8,0.1,3.7,0.5,5.7,0.9c0.9,0.2,1.8,0.4,2.8,0.5l2.8,0.5l0.2-2.9
			c0.1-0.8,0.1-1.6,0.1-2.4c0-1.6,0-3.1,0.4-4.3c0.1-0.4,0.4-0.8,0.7-1.3c0.3,0.4,0.5,0.7,0.6,1.1c0.4,1.4,0.5,3.1,0.6,4.7l0,0.3
			c0,0.7,0.1,1.4,0.2,2l0.3,2.7L207.5,316.9z M304.1,327.5c0.2,1.9,0.3,3.7,0.2,5.4c0,0.1-0.1,0.4-0.3,0.7c-0.3-0.3-0.6-0.5-0.7-0.7
			c-0.6-1.5-0.9-3.2-1.3-5.1c-0.2-0.9-0.3-1.7-0.5-2.6l-0.7-3l-2.8,1.2c-2,0.8-4.1,2.1-5.8,2.4c-0.5,0.1-1.1,0.1-1.7,0
			c0.3-0.5,0.6-0.9,1-1.2c1.4-1.2,3.6-2,5.5-3.1l2.6-1.4l-1.8-2.4c-0.6-0.7-1.1-1.5-1.7-2.2c-1.4-1.7-2.6-3.3-3.6-4.9
			c0,0,0-0.2,0-0.3l0.1,0c1.6,1,3.2,2.3,4.8,3.7c0.7,0.6,1.4,1.2,2.2,1.8l2.2,1.8l1.5-2.4c0.4-0.6,0.8-1.3,1.2-2
			c0.9-1.5,1.7-3,2.8-4.1c0.1-0.1,0.5-0.3,0.9-0.5c0,0.3,0,0.7,0,0.9c-0.4,1.5-1.1,3.1-1.8,4.7l-0.1,0.3c-0.3,0.7-0.6,1.3-0.9,2
			l-1.1,2.7l2.8,0.8c0.8,0.2,1.5,0.4,2.3,0.6l0.3,0.1c1.9,0.5,3.7,1,5.3,1.7c0.1,0.1,0.3,0.3,0.5,0.5c-0.3,0.1-0.4,0.2-0.4,0.2
			c-1.8,0.1-3.6-0.1-5.7-0.3c-0.9-0.1-1.8-0.2-2.7-0.2l-2.9-0.2l0.2,2.9C304,325.8,304,326.7,304.1,327.5z M309.3,333.6
			c0-0.1,0-0.2,0-0.3c0.2-1.9,0-3.8-0.1-5.8c2,0.2,4,0.4,6.1,0.2c1.3-0.1,2.6-0.8,4.1-1.8c0.3-0.2,0.6-0.4,0.9-0.5
			C316.9,328.5,313.2,331.2,309.3,333.6z M335.8,308.4c-3.9,5.5-8.3,10.5-13.1,15l-1.5-1.8c-0.3-0.3-0.5-0.7-0.8-1.1
			c-0.8-1.1-1.7-2.5-3.2-3.2c-1.9-0.9-3.8-1.4-5.8-1.9c0.7-1.6,1.4-3.2,1.9-5c0.4-1.6,0.1-3.2-0.2-4.5c-0.1-0.4-0.2-0.9-0.2-1.3
			l-0.4-3.4l-3.2,1.4c-0.4,0.2-0.9,0.3-1.4,0.5c-1.6,0.5-3.3,1.2-4.3,2.3c-1.3,1.3-2.2,2.8-3.1,4.4c-1.6-1.4-3.3-2.8-5.2-4
			c-1.4-0.9-2.9-0.8-4.2-0.7c-0.4,0-0.7,0-1,0l-2.7-0.1l0.1,2.7c0,0.3,0,0.6-0.1,1.1c-0.1,1.2-0.2,2.8,0.6,4.2
			c1.1,1.8,2.4,3.5,3.8,5.3c-1.3,0.6-2.5,1.4-3.7,2.4c-1.3,1.2-2.2,2.6-3.1,4.2c-0.3,0.5-0.5,0.9-0.8,1.3l-2.2,3.5l4.1,0.5
			c0.6,0.1,1.2,0.2,1.8,0.3c1.6,0.3,3.3,0.6,5.1,0.3c1.4-0.2,2.8-0.8,4.1-1.4c0.3,1.7,0.7,3.6,1.5,5.4c0.6,1.5,1.8,2.5,2.9,3.3
			c-8.1,4.1-17,7.2-26.6,9.3c-5.3,1.1-10.6,1.8-15.8,2.3l0.7-1.4c0.1-0.3,0.3-0.5,0.6-0.9c0.7-1,1.5-2.3,1.5-3.9
			c0-2.2-0.3-4.4-0.6-6.4c2.2-0.1,4.5-0.2,6.7-0.7c1.4-0.3,2.6-1.3,3.7-2.5c0.2-0.2,0.4-0.4,0.6-0.6l2-1.8l-1.9-1.9
			c-0.2-0.2-0.4-0.5-0.6-0.7l0,0c-0.7-0.9-1.6-2.1-3.1-2.6c-2.2-0.7-4.4-1.1-6.6-1.5c0.6-2,1.1-4.1,1.4-6.2c0.2-1.6-0.5-3.1-1.1-4.4
			c-0.1-0.3-0.3-0.6-0.4-1l-1-2.8l-2.8,1.5c-0.2,0.1-0.5,0.2-0.8,0.3c-0.3,0.1-0.7,0.3-1.1,0.5c-0.7,0.3-1.6,0.9-2.3,1.9
			c-1.3,1.8-2.3,3.7-3.4,5.6c-1.9-1.2-3.8-2.5-5.9-3.5c-1.5-0.7-3.1-0.4-4.5-0.1c-0.3,0.1-0.6,0.1-0.8,0.2l-2.6,0.3l0.4,2.6
			c0,0.3,0,0.6,0.1,1c0,1.2,0.1,2.7,1,3.9c1.5,1.9,3.1,3.6,4.6,5.2c-1.5,1.1-3.1,2.3-4.6,3.7c-1.2,1.2-1.6,2.8-1.9,4.2
			c-0.1,0.4-0.2,0.8-0.3,1.2l-1,2.9l3,0.4c0.4,0.1,0.8,0.1,1.2,0.2c1.2,0.3,2.8,0.7,4.3,0.1c1.7-0.6,3.6-1.4,5.7-2.5
			c0.7,1.9,1.5,4.1,2.6,6.1c0.8,1.4,2.1,2.1,3.3,2.7c0.3,0.2,0.6,0.3,0.9,0.5l0.9,0.6c-21.8,1.5-42.4-2.9-61.7-13.6
			c1.1-0.2,2.4-0.5,3.3-1.3c1.7-1.4,3.1-3,4.5-4.6c1.4,1.6,2.9,3.2,4.6,4.7c1.2,1.1,2.8,1.2,4.1,1.3c0.3,0,0.7,0.1,1,0.1l2.7,0.5
			l0.4-2.7c0.1-0.3,0.1-0.7,0.2-1c0.3-1.2,0.7-2.7,0.1-4.2c-0.9-2.1-2-4.2-3-6c0.6-0.3,1.3-0.6,2-0.9c1.5-0.7,2.7-1.4,3.8-2
			c1.3-0.8,2-2.1,2.6-3.2c0.2-0.3,0.3-0.6,0.5-0.9l1.7-2.5l-2.8-1.3c-0.3-0.1-0.6-0.3-1-0.5c-1.1-0.7-2.5-1.5-4.2-1.4
			c-2.1,0.1-4.2,0.5-6.3,0.9c-0.1-1.7-0.3-3.4-0.8-5.1c-0.2-0.9-0.7-1.6-1.1-2.3c42.8,4.1,87.4,0.7,136.3-10.5
			C341.7,298.8,339.1,303.7,335.8,308.4z M248.6,328.2c-0.6-0.7-1.2-1.3-1.8-2c-1.4-1.5-3.1-3.2-4.3-4.7c0,0,0-0.1,0-0.2
			c0,0,0.2,0,0.3,0c1.8,0.9,3.4,2,5.3,3.2c0.7,0.5,1.5,1,2.3,1.5l2.3,1.4l1.3-2.3c0.4-0.6,0.7-1.3,1.1-1.9l0.2-0.4
			c1-1.8,2-3.7,3.1-5.3c0,0,0,0,0.1-0.1c0.1,0.2,0.1,0.3,0.1,0.3c-0.2,1.9-0.8,3.9-1.3,5.9c-0.2,0.8-0.5,1.7-0.7,2.5l-0.7,2.6
			l2.6,0.5c0.9,0.2,1.7,0.3,2.7,0.5c2,0.4,4.1,0.8,5.9,1.3c0,0,0.1,0.1,0.2,0.1c-0.1,0.1-0.1,0.1-0.1,0.1c-2,0.4-4.3,0.5-6.2,0.6
			c-0.9,0-1.8,0.1-2.7,0.2l-2.7,0.2l0.3,2.7c0.1,0.6,0.2,1.3,0.3,1.9l0.1,0.6c0.3,2,0.6,4.1,0.6,6c0,0.1-0.1,0.2-0.2,0.3l-0.1,0
			c-0.9-1.8-1.7-3.8-2.4-5.8c-0.3-0.8-0.6-1.7-0.9-2.5l-1-2.6l-2.9,1.4c-1.1,0.5-2.3,1.2-3.6,1.8c-1,0.5-2.3,1.1-3.6,1.5
			c-0.1,0-0.2,0-0.4,0c0.1-0.3,0.2-0.5,0.2-0.6c1.2-1.3,2.8-2.4,4.3-3.5l0.5-0.3c0.5-0.4,1-0.7,1.5-1.1l2.2-1.7L248.6,328.2z
			 M346.7,287.5c-70.6,16.7-133.5,17.3-192.7,1.7c-2.9-7.8-4.1-15.6-3.6-23.1c0.6,0.3,1.2,0.5,2,0.7c25.4,6.9,52.3,10.7,80,11.2
			c5,0.1,10.1,0.2,15.3,0.1c18.4,0,33.3-1.1,47-3.2c11.7-1.9,23.5-4.1,35-6.2l0.4-0.1c6-1.1,12-2.3,18-3.3c0.5-0.1,0.9-0.2,1.3-0.3
			C349.9,270.4,349.8,278.3,346.7,287.5z M303.1,197.3l13.4,11l-15.7,3.9L303.1,197.3z M320.5,214c11.4,10.5,18.5,19.9,23,30.4
			c1.4,3.2,2.4,6.8,3.3,10.3l0.1,0.5c0.4,1.4,0.7,2.7,1.1,4.1c0.1,0.5,0.1,0.7,0.1,0.7c-0.2,0-0.5,0.2-0.9,0.3c-6,1.1-12,2.2-18,3.3
			l-0.4,0.1c-11.4,2.1-23.2,4.3-34.8,6.2c-20.7,3.3-41.7,3.4-61.4,3c-0.6,0-1.2-0.1-1.8-0.1l1.4-2c0.2-0.3,0.4-0.5,0.7-0.9
			c0.8-1,1.9-2.2,2.1-3.9c0.3-2.1,0.2-4.2,0.2-6.1l0.2,0c2.3,0,4.7,0.1,7-0.2c1.4-0.1,2.6-1.1,3.6-2c0.2-0.2,0.5-0.4,0.7-0.6
			l2.1-1.6l-1.6-2.1c-0.1-0.2-0.2-0.4-0.5-0.7c-0.6-0.9-1.3-2.1-2.7-2.7c-2.2-0.9-4.4-1.7-6.6-2.5c0.8-1.9,1.7-4.2,2.4-6.6
			c0.6-2-0.4-5.2-2.3-6.3c-1.3-0.7-3-0.6-4.8,0.3c-0.7,0.3-1.3,0.8-1.7,1.2c-1.6,1.7-2.9,3.6-4.3,5.4c-1.5-1.4-3-2.7-4.7-3.9
			c-1.4-0.9-2.9-0.9-4.2-0.9c-0.4,0-0.9,0-1.3,0l-2.9-0.3l0.1,2.9c0,0.4,0,0.7-0.1,1.2c-0.1,1.3-0.2,2.9,0.6,4.3
			c1,1.8,2.2,3.4,3.6,5.2c-1.7,1-3.6,2.1-5.3,3.5c-1.3,1-1.8,2.6-2.2,3.8c-0.1,0.4-0.2,0.8-0.4,1.1l-1.1,2.7l2.8,0.8
			c0.4,0.1,0.7,0.3,1.1,0.4c1.2,0.5,2.7,1.1,4.4,0.7c2.1-0.5,4-1.2,5.9-1.9c0.4,2,0.9,4.1,1.6,6.1c0.6,1.6,1.9,2.5,2.9,3.3
			c0.3,0.2,0.6,0.5,0.9,0.7l1.7,1.5c-26.4-0.7-52-4.3-76.2-10.9c-2-0.5-2-0.6-1.7-2.7c2.3-13.4,9-25.8,21.2-38.9
			c1.7-1.8,3.3-3.7,4.8-5.3l0.5-0.5c28.4,9,57.5,12,88.8,9.2c-0.4,0.4-0.8,0.9-1,1.5c-0.9,2.2-1.6,4.5-2.2,6.6
			c-1.8-0.8-3.7-1.6-5.7-2.1c-1.6-0.4-3.1,0.1-4.4,0.5c-0.3,0.1-0.7,0.2-1,0.3l-2.9,0.6l1,2.8c0.1,0.3,0.2,0.6,0.3,1.1
			c0.3,1.3,0.7,2.9,2,4c1.7,1.4,3.5,2.6,5.2,3.7c-1.3,1.5-2.7,3.1-3.8,4.8c-0.9,1.4-0.9,3-0.9,4.5c0,0.3,0,0.7,0,1l-0.3,3l3-0.2
			c0.4,0,0.8,0,1.2,0c1.2,0,2.6,0.1,3.9-0.5l0.3-0.2c1.9-1.1,3.7-2.5,5.2-3.7c1.3,1.9,2.6,3.8,4.1,5.6c1,1.2,2.5,1.5,3.7,1.8
			c0.3,0.1,0.6,0.1,0.9,0.2l2.4,0.8l0.8-2.4c0.1-0.3,0.2-0.6,0.4-0.9c0.5-1.1,1.2-2.5,0.8-4.1c-0.6-2.3-1.3-4.5-2.1-6.6
			c1.9-0.5,3.8-1,5.7-1.8l0.3-0.1c1.4-0.7,2.3-1.9,3.1-3c0.2-0.3,0.5-0.6,0.7-0.9l2.2-2.4l-2.8-1.6c-0.4-0.2-0.7-0.5-1.1-0.7
			c-1.1-0.7-2.4-1.6-4-1.8c-2-0.3-4.1-0.2-5.9-0.2c0-2.2,0.1-4.4-0.2-6.7c-0.1-1.6-1.1-2.7-1.9-3.7l0-0.1
			C288.8,221.3,304.4,218.2,320.5,214z M223.5,249.3c-0.5-0.7-1-1.4-1.6-2.1c-1.2-1.6-2.4-3.2-3.4-4.8c0,0,0-0.3,0-0.5
			c0.2,0,0.4,0,0.4,0c1.6,1.1,3.1,2.4,4.4,3.7c0.6,0.6,1.3,1.2,1.9,1.7l2.1,1.8l1.7-2.2c0.5-0.6,1-1.3,1.4-1.9l0.2-0.3
			c1.3-1.7,2.6-3.5,3.9-5l0.1-0.1c-0.6,2.1-1.4,4.2-2.3,6.2c-0.3,0.8-0.6,1.6-0.9,2.4l-0.9,2.5l5.1,1.8c2,0.7,4.2,1.4,5.9,2.1l0,0
			c-2.1,0.2-4.2,0.2-6.5,0.1c-0.9,0-1.8,0-2.8,0l-2.6,0l0,2.6c0,0.6,0,1.2,0,1.9l0,0.3c0.1,1.8,0.1,3.9-0.1,5.8
			c0,0.1-0.1,0.3-0.3,0.4c-0.2-0.1-0.3-0.2-0.3-0.2c-0.7-1.9-1.1-3.9-1.5-5.9c-0.2-0.9-0.4-1.7-0.5-2.6l-0.6-2.8l-2.7,1
			c-0.8,0.3-1.6,0.6-2.4,0.9c-1.8,0.7-3.8,1.5-5.6,1.9c0,0-0.3-0.1-0.5-0.1c0.1-0.2,0.1-0.3,0.1-0.3c1.5-1.2,3.1-2.2,5-3.3
			c0.8-0.4,1.5-0.9,2.3-1.3l2.4-1.5L223.5,249.3z M295.8,210.8l-16.6-11.4l19.5-4.7L295.8,210.8z M313.1,156.8
			c-0.9,1.4-1.7,2.8-2.7,3.5c-2,1.5-5.4,2.7-8.1,3.5c-2.9,0.9-4.8,2.6-6.1,5.6c-2.9,6.7-3.3,13.2-1.2,19.6
			c-33.2,8.4-62.8,8.6-90.5,0.5c2-6.4,1.7-12.6-0.9-19c-1.4-3.5-3.7-5.5-7.2-6.6c-3-0.9-6.1-2.4-9-4.3c-1.1-0.7-2-2.3-2.1-2.5
			c0.2-0.3,1.7-1.5,2.8-1.7c6.3-1.4,13.6-2.9,20.7-3.7c22.4-2.3,46.7-2.6,74.2-0.8c8.6,0.5,17.2,2.1,25.6,3.6l0.9,0.2
			c1,0.2,2.2,1,3.5,2l0,0L313.1,156.8z"/>
	</g>
	<g>
		<path class="st0" d="M274.6,211l-0.8,0.8l0.9,0.8c0.2,0.2,0.4,0.4,0.7,0.7c0.7,0.7,1.4,1.5,2.4,1.6c0.4,0,0.7,0,1.1-0.2
			c0.5-0.2,1-0.7,1.5-1.1c0.4-0.3,0.8-0.7,1.2-1l1.1-0.8l-1.1-0.8c-0.5-0.3-0.9-0.7-1.2-1c-0.9-0.8-1.7-1.5-2.7-1.3
			c-0.9,0.2-1.7,1-2.4,1.8C275,210.5,274.8,210.8,274.6,211z"/>
	</g>
	<g>
		<path class="st0" d="M288.9,203.3c0.2,0.2,0.4,0.4,0.7,0.6c0.7,0.7,1.4,1.5,2.4,1.5l0,0c0.3,0,0.6-0.1,0.9-0.2
			c0.5-0.3,1-0.7,1.6-1.2c0.3-0.3,0.7-0.7,1.1-1l1.1-0.9l-1.2-0.8c-0.5-0.3-0.9-0.6-1.3-1c-1-0.8-1.8-1.4-2.8-1.2
			c-1,0.2-1.6,1.1-2.2,1.9c-0.2,0.3-0.4,0.5-0.6,0.8l-0.7,0.8L288.9,203.3z"/>
	</g>
	<g>
		<path class="st0" d="M207.8,204.3c0.2,0.2,0.4,0.4,0.7,0.6c0.7,0.7,1.4,1.5,2.5,1.5c0.4,0,0.7-0.1,1.1-0.2c0.5-0.2,1-0.7,1.5-1.2
			c0.3-0.3,0.7-0.7,1.2-1l1.1-0.8l-1.1-0.8c-0.5-0.4-0.9-0.7-1.3-1.1c-1-0.9-1.8-1.6-2.7-1.3l-0.4,0.2c-0.8,0.4-1.4,1.1-1.9,1.8
			c-0.2,0.3-0.4,0.5-0.6,0.8l-0.8,0.8L207.8,204.3z"/>
	</g>
	<g>
		<path class="st0" d="M224.4,207.8l-0.9-1.1l-0.8,1.2c-0.3,0.5-0.6,0.9-0.9,1.3c-0.7,0.9-1.3,1.7-1.2,2.7c0.2,1,1,1.7,1.7,2.3
			c0.2,0.2,0.5,0.4,0.7,0.6l0.8,0.8l0.8-0.8c0.2-0.2,0.5-0.5,0.7-0.7c0.7-0.7,1.5-1.4,1.7-2.4c0.2-1-0.5-1.7-1.4-2.7
			C225.2,208.7,224.8,208.3,224.4,207.8z"/>
	</g>
	<g>
		<path class="st0" d="M234.4,207.6c0.6,0.7,1.2,1.6,2.2,1.7c0.6,0.1,1.1-0.1,1.5-0.3c0.4-0.2,0.8-0.4,1.2-0.7
			c0.4-0.2,0.8-0.5,1.3-0.8l1.3-0.7l-1-1c-0.4-0.4-0.8-0.8-1.2-1.2c-0.9-1-1.6-1.8-2.6-1.6c-1,0.2-1.8,1-2.5,1.7
			c-0.2,0.2-0.5,0.5-0.7,0.7l-0.8,0.7l0.8,0.8C234,207.1,234.2,207.3,234.4,207.6z"/>
	</g>
</g>
</svg>
