<?xml version="1.0" encoding="utf-8"?>
<!-- Generator: Adobe Illustrator 19.1.0, SVG Export Plug-In . SVG Version: 6.00 Build 0)  -->
<svg version="1.1" id="Layer_1" xmlns="http://www.w3.org/2000/svg" xmlns:xlink="http://www.w3.org/1999/xlink" x="0px" y="0px"
	 viewBox="0 0 500 500" style="enable-background:new 0 0 500 500;" xml:space="preserve">
<style type="text/css">
	.st0{fill:#F8B017;}
	.st1{fill:none;}
	.st2{fill:#F5AF19;}
	.st3{fill:#E5D7C8;}
	.st4{fill:#F4AE19;}
	.st5{fill:#F7AF17;}
	.st6{fill:#0FA2D4;}
</style>
<g>
	<g>
		<path class="st0" d="M249.5,252.9c-13.4,0-26-1.1-35.4-3.1c-10.2-2.1-13.8-4.7-13.8-6.2c0-1.5,3.6-4.1,13.8-6.2
			c9.4-2,22-3.1,35.4-3.1c13.4,0,26,1.1,35.4,3.1c10.2,2.1,13.8,4.7,13.8,6.2c0,1.5-3.6,4.1-13.8,6.2
			C275.4,251.8,262.8,252.9,249.5,252.9z"/>
	</g>
	<g>
		<path class="st0" d="M249.1,370.2c-12.5,0-24.9-0.4-36.9-1.1c-2.4-0.1-4.4-1.4-5.6-3.5c-1.2-2.1-1.2-4.5,0-6.6l4.3-7.9l-2.6-0.2
			c-18.3-1.2-63.3-5.2-86.1-16.3c-8.1-4-12.2-8.4-12.2-13.3v-91.1c0.2-11.7,23.9-18.9,43.7-22.8c24.7-4.9,52.2-6.7,62.9-7.2l1.6-0.1
			v-10.5h-7c-3,0-5.4-2.4-5.4-5.4v-39.8c0-2.9,2.4-5.3,5.4-5.3h7v-6.9c0-1.4,1.1-2.5,2.5-2.5c1.4,0,2.5,1.1,2.5,2.5v6.9h17
			c1.4,0,2.5,1.1,2.5,2.5c0,1.4-1.1,2.5-2.5,2.5h-29.4v40.6h78.3v-10.6c0-1.4,1.1-2.5,2.5-2.5s2.5,1.1,2.5,2.5v10.2
			c0,3-2.4,5.4-5.4,5.4h-7v10.5l1.6,0.1c15.8,0.8,69.1,4.4,94.5,16.8c8.1,4,12.2,8.4,12.2,13.3v91c0,11.2-21.8,18.2-40,22.1
			c-21.6,4.6-45.8,6.7-58.2,7.5l-2.6,0.2l4.2,7.7c1.1,2.1,1.1,4.5,0,6.7c-1.2,2.1-3.2,3.4-5.6,3.6
			C275.1,369.8,262.2,370.2,249.1,370.2z M211,361.4c-0.3,0.6-0.3,1.3,0,1.8c0.3,0.6,0.9,0.9,1.5,1c12,0.7,24.3,1.1,36.6,1.1
			c12.9,0,25.7-0.4,38.3-1.2c0.7,0,1.3-0.4,1.6-1c0.3-0.6,0.3-1.3,0-1.9l-5.3-9.8l-1.1,0.1c-10.5,0.5-21.5,0.8-32.5,0.8
			s-22-0.3-32.5-0.8l-1.1-0.1L211,361.4z M238.5,347.2c4.3,0.1,8,0.1,11.6,0.1c3.6,0,7.1,0,11.4-0.1l1.6,0V329h-26.3v18.1
			L238.5,347.2z M219,346.6c5.2,0.3,7.7,0.3,10.1,0.4l2.8,0.1V330c0-3.3,2.7-5.9,5.9-5.9h24.4c3.2,0,5.9,2.7,5.9,5.9V347l2.6-0.1
			c2.8-0.1,5-0.2,10.3-0.4l1.6-0.1v-40.6c0-1.2-1-2.2-2.2-2.2h-60.7c-1.2,0-2.2,1-2.2,2.2v40.6L219,346.6z M287.5,346.2l1.8-0.1
			c21.5-1.3,41.4-3.8,57.4-7.1c28.2-5.8,38.3-13,38.3-17.7V308l-2.6,1.7c-21,13.7-76.8,18.1-93.4,19.1l-1.6,0.1V346.2z M115,321.3
			c0,2.7,3.1,8.2,24.1,14.2c12.5,3.6,35.1,8.3,71.6,10.6l1.8,0.1v-17.4l-1.6-0.1c-16.6-1-72.4-5.4-93.3-19.1L115,308V321.3z
			 M287.5,323.9l1.8-0.1c26.9-1.7,51.2-5.1,68.5-9.7C374.8,309.6,385,304,385,299v-13.1l-2.6,1.7c-20.9,13.7-76.7,18.1-93.3,19.1
			l-1.6,0.1V323.9z M115,299c0,2.8,3.2,8.3,24.5,14.3c12.5,3.5,35.1,8.2,71.2,10.5l1.8,0.1v-17.2l-1.6-0.1
			c-16.6-1-72.4-5.4-93.3-19.1l-2.6-1.7V299z M280.4,298.7c2,0,4.1,1,5.4,2.5l0.5,0.7l0.8,0c27.7-1.6,52.7-5.1,70.5-9.8
			c17.1-4.5,27.3-10.2,27.3-15.1v-14.1l-2.6,1.7c-18.7,12.3-70.7,20.2-132.5,20.2c-61.7,0-113.7-7.9-132.4-20.2l-2.6-1.7v14.1
			c0,2.8,3.2,8.3,24.8,14.4c12.8,3.6,35.9,8.3,73,10.5l0.8,0l0.5-0.6c1.3-1.6,3.4-2.5,5.5-2.5H280.4z M115,253.8
			c0,4.7,10.1,11.9,38.3,17.7c25.8,5.3,60.2,8.3,96.7,8.3s70.9-2.9,96.7-8.3c28.2-5.8,38.3-13,38.3-17.7v-14.6l-2.6,1.7
			c-18.7,12.3-70.6,20.2-132.3,20.2c-61.8,0-113.8-7.9-132.5-20.2l-2.6-1.7V253.8z M168,241.9c1.1,2.5,8.2,6.5,24.4,9.6
			c15.6,3,36,4.7,57.5,4.7c21.5,0,42-1.7,57.6-4.7c16.3-3.2,23.3-7.2,24.4-9.6l0.3-0.7l-0.3-0.7c-1.1-2.5-8.2-6.5-24.4-9.6
			c-7-1.4-15.1-2.5-24-3.3l-1.8-0.2v10.1c0,1.4-1.1,2.5-2.5,2.5s-2.5-1.1-2.5-2.5v-10.4l-1.6-0.1c-8.2-0.5-16.7-0.8-25.2-0.8
			c-8.5,0-17,0.3-25.2,0.8l-1.6,0.1v9.1c0,1.4-1.1,2.5-2.5,2.5c-1.4,0-2.5-1.1-2.5-2.5v-8.7l-1.8,0.2c-8.9,0.8-17,1.9-24,3.3
			c-16.3,3.2-23.3,7.2-24.4,9.6l-0.3,0.7L168,241.9z M216.5,205.2c-23.8,1.2-45.7,3.8-63.2,7.4c-28.2,5.8-38.3,13-38.3,17.7
			c0,4.7,10.1,11.9,38.3,17.7c3.6,0.7,7.4,1.5,11.5,2.1l5.9,1l-4.6-3.9c-2.2-1.9-3.2-3.8-3.2-6c0-8.8,19.6-15.6,53.8-18.6l1.5-0.1
			v-17.4L216.5,205.2z M283.2,222.6c34.2,3,53.8,9.8,53.8,18.6c0,2.1-1.1,4.1-3.2,6l-4.6,3.9l5.9-1c4.1-0.7,7.8-1.4,11.5-2.1
			c28.2-5.8,38.3-13,38.3-17.7c0-2.9-3.5-8.7-26.6-14.9c-13.4-3.6-37.3-8.3-74.9-10.2l-1.8-0.1v17.4L283.2,222.6z M223.2,222.1
			l1.8-0.1c8-0.5,16.4-0.8,25-0.8s17,0.3,25,0.8l1.8,0.1v-17.3l-1.6-0.1c-8.3-0.3-16.7-0.5-25.2-0.5c-8.4,0-16.9,0.2-25.2,0.5
			l-1.6,0.1V222.1z M250,199.4c8.4,0,16.8,0.2,25,0.5l1.7,0.1v-10.3h-53.5v10.3l1.7-0.1C233.2,199.5,241.6,199.4,250,199.4z"/>
	</g>
	<g>
		<path class="st0" d="M225.6,173.7c-1.4,0-2.5-1.1-2.5-2.5c0-1.4,1.1-2.5,2.5-2.5h9.1c1.4,0,2.5,1.1,2.5,2.5c0,1.4-1.1,2.5-2.5,2.5
			H225.6z"/>
	</g>
	<g>
		<path class="st0" d="M225.6,173.2c-1.1,0-2.1-0.9-2.1-2.1c0-1.1,0.9-2.1,2.1-2.1h9.1c1.1,0,2.1,0.9,2.1,2.1c0,1.1-0.9,2.1-2.1,2.1
			H225.6z"/>
	</g>
	<g>
		<path class="st0" d="M225.6,172c-0.5,0-0.8-0.4-0.8-0.8s0.4-0.8,0.8-0.8h9.1c0.5,0,0.8,0.4,0.8,0.8s-0.4,0.8-0.8,0.8H225.6z"/>
	</g>
	<g>
		<path class="st0" d="M265.3,173.7c-1.4,0-2.5-1.1-2.5-2.5c0-1.4,1.1-2.5,2.5-2.5h9.1c1.4,0,2.5,1.1,2.5,2.5c0,1.4-1.1,2.5-2.5,2.5
			H265.3z"/>
	</g>
	<g>
		<path class="st0" d="M265.3,173.2c-1.1,0-2.1-0.9-2.1-2.1c0-1.1,0.9-2.1,2.1-2.1h9.1c1.1,0,2.1,0.9,2.1,2.1c0,1.1-0.9,2.1-2.1,2.1
			H265.3z"/>
	</g>
	<g>
		<path class="st0" d="M265.3,172c-0.5,0-0.8-0.4-0.8-0.8s0.4-0.8,0.8-0.8h9.1c0.5,0,0.8,0.4,0.8,0.8s-0.4,0.8-0.8,0.8H265.3z"/>
	</g>
	<g>
		<path class="st0" d="M249.1,173.7c-1.4,0-2.5-1.1-2.5-2.5c0-1.4,1.1-2.5,2.5-2.5h1.8c1.4,0,2.5,1.1,2.5,2.5c0,1.4-1.1,2.5-2.5,2.5
			H249.1z"/>
	</g>
	<g>
		<path class="st0" d="M249.1,173.2c-1.1,0-2.1-0.9-2.1-2.1c0-1.1,0.9-2.1,2.1-2.1h1.8c1.1,0,2.1,0.9,2.1,2.1c0,1.1-0.9,2.1-2.1,2.1
			H249.1z"/>
	</g>
	<g>
		<path class="st0" d="M249.1,172c-0.5,0-0.8-0.4-0.8-0.8s0.4-0.8,0.8-0.8h1.8c0.5,0,0.8,0.4,0.8,0.8s-0.4,0.8-0.8,0.8H249.1z"/>
	</g>
	<g>
		<path class="st0" d="M268.9,160c-1.4,0-2.5-1.1-2.5-2.5s1.1-2.5,2.5-2.5h1.8c1.4,0,2.5,1.1,2.5,2.5s-1.1,2.5-2.5,2.5H268.9z"/>
	</g>
	<g>
		<path class="st0" d="M268.9,159.6c-1.1,0-2.1-0.9-2.1-2.1c0-1.1,0.9-2.1,2.1-2.1h1.8c1.1,0,2.1,0.9,2.1,2.1c0,1.1-0.9,2.1-2.1,2.1
			H268.9z"/>
	</g>
	<g>
		<path class="st0" d="M268.9,158.4c-0.5,0-0.8-0.4-0.8-0.8c0-0.5,0.4-0.8,0.8-0.8h1.8c0.5,0,0.8,0.4,0.8,0.8c0,0.5-0.4,0.8-0.8,0.8
			H268.9z"/>
	</g>
	<g>
		<path class="st0" d="M229.2,160c-1.4,0-2.5-1.1-2.5-2.5s1.1-2.5,2.5-2.5h1.8c1.4,0,2.5,1.1,2.5,2.5s-1.1,2.5-2.5,2.5H229.2z"/>
	</g>
	<g>
		<path class="st0" d="M229.2,159.6c-1.1,0-2.1-0.9-2.1-2.1c0-1.1,0.9-2.1,2.1-2.1h1.8c1.1,0,2.1,0.9,2.1,2.1c0,1.1-0.9,2.1-2.1,2.1
			H229.2z"/>
	</g>
	<g>
		<path class="st0" d="M229.2,158.4c-0.5,0-0.8-0.4-0.8-0.8c0-0.5,0.4-0.8,0.8-0.8h1.8c0.5,0,0.8,0.4,0.8,0.8c0,0.5-0.4,0.8-0.8,0.8
			H229.2z"/>
	</g>
	<g>
		<path class="st0" d="M291.6,156.7c-1.1,0-2.1-0.9-2.1-2.1v-11h-29.9c-1.1,0-2.1-0.9-2.1-2.1c0-1.1,0.9-2.1,2.1-2.1h17.5v-7.3
			c0-1.1,0.9-2.1,2.1-2.1c1.1,0,2.1,0.9,2.1,2.1v7.3h7.4c2.7,0,4.9,2.2,4.9,4.9v10.2C293.7,155.8,292.7,156.7,291.6,156.7z"/>
	</g>
	<g>
		<path class="st0" d="M291.6,155.5c-0.5,0-0.8-0.4-0.8-0.8v-12.3h-31.1c-0.5,0-0.8-0.4-0.8-0.8c0-0.5,0.4-0.8,0.8-0.8h18.8v-8.5
			c0-0.5,0.4-0.8,0.8-0.8s0.8,0.4,0.8,0.8v8.5h8.6c2,0,3.7,1.7,3.7,3.7v10.2C292.4,155.1,292.1,155.5,291.6,155.5z"/>
	</g>
</g>
</svg>
