<?xml version="1.0" encoding="utf-8"?>
<!-- Generator: Adobe Illustrator 19.1.0, SVG Export Plug-In . SVG Version: 6.00 Build 0)  -->
<svg version="1.1" id="Layer_1" xmlns="http://www.w3.org/2000/svg" xmlns:xlink="http://www.w3.org/1999/xlink" x="0px" y="0px"
	 viewBox="0 0 500 500" style="enable-background:new 0 0 500 500;" xml:space="preserve">
<style type="text/css">
	.st0{fill:#F8B017;}
	.st1{fill:none;}
	.st2{fill:#F5AF19;}
	.st3{fill:#E5D7C8;}
	.st4{fill:#F4AE19;}
	.st5{fill:#F7AF17;}
	.st6{fill:#0FA2D4;}
</style>
<g>
	<g>
		<g>
			<g>
				<path class="st0" d="M296.7,149.8h-93.6v-16.1h93.6V149.8z M204.3,148.4h91.2v-13.3h-91.2V148.4z"/>
				<path class="st0" d="M297.3,150.3h-94.7v-17.2h94.7V150.3z M203.7,149.2h92.5v-14.9h-92.5V149.2z M296.1,149h-92.3v-14.4h92.3
					V149z M204.9,147.9h90.1v-12.2h-90.1V147.9z"/>
			</g>
		</g>
	</g>
	<g>
		<g>
			<g>
				<path class="st0" d="M303.9,173.7H195.8v-24.9h108.1V173.7z M197.1,172.3h105.7v-22.2H197.1V172.3z"/>
				<path class="st0" d="M304.5,174.3H195.3v-26.1h109.2V174.3z M196.4,173.2h107v-23.8h-107V173.2z M303.3,172.9H196.5v-23.3h106.8
					V172.9z M197.6,171.8h104.6v-21.1H197.6V171.8z"/>
			</g>
		</g>
	</g>
	<g>
		<g>
			<g>
				<path class="st0" d="M313,197.3H184.4v-24.9H313V197.3z M185.6,195.9h126.2v-22.2H185.6V195.9z"/>
				<path class="st0" d="M313.6,197.9H183.8v-26.1h129.7V197.9z M184.9,196.7h127.5v-23.8H184.9V196.7z M312.4,196.5H185v-23.3
					h127.3V196.5z M186.1,195.4h125.1v-21.1H186.1V195.4z"/>
			</g>
		</g>
	</g>
	<g>
		<g>
			<g>
				<path class="st0" d="M323.5,224.5H173.9v-28.6h149.6V224.5z M175.1,223.1h147.1v-25.9H175.1V223.1z"/>
				<path class="st0" d="M324,225H173.3v-29.8H324V225z M174.5,223.9h148.4v-27.5H174.5V223.9z M322.8,223.7H174.6v-27h148.3V223.7z
					 M175.7,222.5h146v-24.8h-146V222.5z"/>
			</g>
		</g>
	</g>
	<g>
		<g>
			<g>
				<path class="st0" d="M335.5,249.9H161.8v-26.5h173.7V249.9z M163,248.6h171.3v-23.8H163V248.6z"/>
				<path class="st0" d="M336.1,250.5H161.3v-27.7h174.8V250.5z M162.4,249.4H335v-25.4H162.4V249.4z M334.9,249.1H162.5v-24.9
					h172.4V249.1z M163.6,248h170.2v-22.7H163.6V248z"/>
			</g>
		</g>
	</g>
	<g>
		<g>
			<g>
				<path class="st0" d="M345,275.2H153.6v-26.5H345V275.2z M154.8,273.9h189V250h-189V273.9z"/>
				<path class="st0" d="M345.6,275.8H153v-27.7h192.5V275.8z M154.1,274.7h190.3v-25.4H154.1V274.7z M344.4,274.4H154.2v-24.9
					h190.1V274.4z M155.3,273.3h187.9v-22.7H155.3V273.3z"/>
			</g>
		</g>
	</g>
	<g>
		<g>
			<g>
				<path class="st0" d="M353.9,287.9H146.7v-14h207.2V287.9z M147.9,286.5h204.9v-11.2H147.9V286.5z"/>
				<path class="st0" d="M354.5,288.4H146.1v-15.1h208.4V288.4z M147.3,287.3h206.1v-12.8H147.3V287.3z M353.3,287.1h-206v-12.3h206
					V287.1z M148.4,285.9h203.8v-10.1H148.4V285.9z"/>
			</g>
		</g>
	</g>
	<g>
		<g>
			<g>
				<polygon class="st0" points="357.2,304.8 296.9,304.8 296.9,303.5 356,303.5 356,287.9 144,287.9 144,303.5 200.4,303.5 
					200.4,304.8 142.8,304.8 142.8,286.6 357.2,286.6 				"/>
				<path class="st0" d="M357.7,305.4h-61.4v-2.5h59.1v-14.4H144.6v14.4H201v2.5h-58.7V286h215.5V305.4z M297.5,304.3h59.2v-17.2
					H143.4v17.2h56.5V304h-56.4v-16.7h213.1V304h-59.1V304.3z"/>
			</g>
		</g>
	</g>
	<g>
		<g>
			<g>
				<path class="st0" d="M276.6,173.7h-51.5V164h51.5V173.7z M226.3,172.3h49.1v-7h-49.1V172.3z"/>
				<path class="st0" d="M277.2,174.3h-52.6v-10.9h52.6V174.3z M225.7,173.2h50.4v-8.6h-50.4V173.2z M276,172.9h-50.2v-8.1H276
					V172.9z M226.9,171.8h48v-5.9h-48V171.8z"/>
			</g>
		</g>
	</g>
	<g>
		<g>
			<g>
				<path class="st0" d="M276.9,224.9h-51.5v-9.7h51.5V224.9z M226.6,223.5h49.1v-7h-49.1V223.5z"/>
				<path class="st0" d="M277.5,225.4h-52.6v-10.9h52.6V225.4z M226,224.3h50.4v-8.6H226V224.3z M276.3,224.1h-50.2v-8.1h50.2V224.1
					z M227.2,222.9h48v-5.9h-48V222.9z"/>
			</g>
		</g>
	</g>
	<g>
		<g>
			<g>
				<path class="st0" d="M204.9,197.2h-6v-12.8c0-0.9,0.3-1.8,0.9-2.4c1.1-1.3,3.2-1.3,4.3,0c0.6,0.7,0.9,1.5,0.9,2.5V197.2z
					 M200.1,195.8h3.6v-11.4c0-0.6-0.2-1.1-0.5-1.5c-0.7-0.8-1.9-0.8-2.6,0c-0.3,0.4-0.5,0.9-0.5,1.5V195.8z"/>
				<path class="st0" d="M205.5,197.7h-7.2v-13.4c0-1,0.3-2,1-2.8c0.7-0.8,1.6-1.2,2.6-1.2h0c1,0,1.9,0.4,2.6,1.2
					c0.7,0.8,1,1.8,1,2.8V197.7z M199.4,196.6h4.9v-12.2c0-0.8-0.2-1.5-0.7-2.1c-0.4-0.5-1.1-0.8-1.7-0.8h0c-0.7,0-1.3,0.3-1.7,0.8
					c-0.5,0.6-0.7,1.3-0.7,2.1V196.6z M204.3,196.4h-4.7v-12c0-0.7,0.2-1.3,0.7-1.8c0.4-0.5,1.1-0.8,1.7-0.8h0
					c0.7,0,1.3,0.3,1.7,0.8c0.4,0.5,0.7,1.2,0.7,1.9V196.4z M200.6,195.3h2.5v-10.9c0-0.4-0.1-0.8-0.4-1.1c-0.2-0.3-0.5-0.4-0.9-0.4
					h0c-0.3,0-0.6,0.1-0.9,0.4c-0.3,0.3-0.4,0.7-0.4,1.1V195.3z"/>
			</g>
		</g>
	</g>
	<g>
		<g>
			<g>
				<path class="st0" d="M188.3,217.3c-1.1,0-2.1-0.9-2.4-2.1l0-0.2v-8.8c0-0.7,0.2-1.4,0.7-1.9c0.9-1,2.5-1,3.4,0
					c0.4,0.5,0.7,1.2,0.7,1.9l0,9c-0.2,1.2-1.1,2-2.2,2.1C188.4,217.3,188.4,217.3,188.3,217.3z M187.2,214.9c0.2,0.6,0.7,1.1,1.3,1
					c0.5,0,0.9-0.5,1.1-1v-8.7c0-0.4-0.1-0.7-0.3-1c-0.4-0.5-1.2-0.5-1.6,0c-0.2,0.3-0.3,0.6-0.3,0.9V214.9z"/>
				<path class="st0" d="M188.3,217.8c-1.4,0-2.6-1.1-2.9-2.6l0-0.2l0-8.9c0-0.8,0.3-1.7,0.8-2.3c0.5-0.6,1.3-1,2.1-1h0
					c0.8,0,1.6,0.4,2.1,1c0.5,0.6,0.8,1.4,0.8,2.3l0,9c-0.3,1.5-1.4,2.6-2.7,2.7C188.5,217.8,188.4,217.8,188.3,217.8z M188.3,204
					L188.3,204c-0.5,0-0.9,0.2-1.3,0.6c-0.4,0.4-0.6,1-0.5,1.5l0,8.9c0.2,0.9,1,1.6,1.8,1.6l0.1,0c0.8-0.1,1.5-0.8,1.7-1.7v-8.8
					c0-0.6-0.2-1.1-0.5-1.6C189.2,204.2,188.8,204,188.3,204z M188.3,216.5c-0.8,0-1.5-0.6-1.7-1.5l0-0.1v-8.7
					c0-0.5,0.2-0.9,0.5-1.3c0.6-0.7,1.8-0.7,2.5,0c0.3,0.4,0.5,0.8,0.5,1.3v8.7c-0.2,0.9-0.8,1.5-1.6,1.6
					C188.4,216.5,188.4,216.5,188.3,216.5z M187.7,214.8c0.1,0.3,0.3,0.6,0.6,0.5c0.2,0,0.5-0.3,0.6-0.6l0-8.6
					c0-0.2-0.1-0.4-0.2-0.6c-0.2-0.2-0.6-0.2-0.8,0c-0.1,0.1-0.2,0.3-0.2,0.6V214.8z"/>
			</g>
		</g>
	</g>
	<g>
		<g>
			<g>
				<path class="st0" d="M200.7,217.3c-1.1,0-2.1-0.9-2.4-2.1l0-0.2v-8.8c0-0.7,0.2-1.4,0.7-1.9c0.9-1,2.5-1,3.4,0
					c0.4,0.5,0.7,1.2,0.7,1.9l0,9c-0.2,1.2-1.1,2.1-2.1,2.1C200.8,217.3,200.7,217.3,200.7,217.3z M199.5,214.9
					c0.2,0.6,0.7,1.1,1.3,1c0.5,0,0.9-0.5,1.1-1v-8.7c0-0.4-0.1-0.7-0.3-1c-0.4-0.5-1.2-0.5-1.6,0c-0.2,0.3-0.3,0.6-0.3,0.9V214.9z"
					/>
				<path class="st0" d="M200.7,217.8c-1.4,0-2.6-1.1-2.9-2.6l0-0.2l0-8.9c0-0.8,0.3-1.6,0.8-2.3c0.5-0.6,1.3-1,2.1-1l0,0
					c0.8,0,1.6,0.4,2.1,1c0.5,0.6,0.8,1.4,0.8,2.3l0,8.9c-0.3,1.5-1.4,2.6-2.7,2.7C200.8,217.8,200.7,217.8,200.7,217.8z M200.6,204
					c-0.5,0-0.9,0.2-1.3,0.6c-0.4,0.4-0.6,1-0.5,1.5l0,8.9c0.2,0.9,1,1.6,1.8,1.6l0.1,0c0.8-0.1,1.5-0.8,1.6-1.7l0-8.8
					c0-0.6-0.2-1.1-0.5-1.6C201.6,204.2,201.1,204,200.6,204L200.6,204z M200.6,216.5c-0.8,0-1.5-0.6-1.7-1.4l0-0.1v-8.7
					c0-0.5,0.2-1,0.5-1.3c0.6-0.7,1.8-0.7,2.5,0c0.3,0.4,0.5,0.8,0.5,1.3v8.7c-0.2,0.9-0.8,1.5-1.6,1.6
					C200.7,216.5,200.7,216.5,200.6,216.5z M200,214.8c0.1,0.3,0.4,0.6,0.6,0.5c0.2,0,0.5-0.3,0.6-0.6l0-8.6c0-0.2-0.1-0.4-0.2-0.6
					c-0.2-0.2-0.6-0.2-0.8,0c-0.1,0.1-0.2,0.3-0.2,0.6V214.8z"/>
			</g>
		</g>
	</g>
	<g>
		<g>
			<g>
				<g>
					<path class="st0" d="M224.1,117.6c-0.6,0-1.2-0.5-1.4-1.3l0-0.1v-5.2c0-0.4,0.1-0.8,0.4-1.1c0.5-0.6,1.4-0.6,2,0
						c0.3,0.3,0.4,0.7,0.4,1.1l0,5.2c-0.1,0.7-0.7,1.2-1.3,1.3C224.2,117.6,224.1,117.6,224.1,117.6z M223.4,116.2
						c0.1,0.4,0.4,0.6,0.7,0.6c0.3,0,0.5-0.3,0.6-0.6v-5.1c0-0.2-0.1-0.4-0.2-0.6c-0.3-0.3-0.7-0.3-1,0c-0.1,0.1-0.2,0.3-0.2,0.5
						V116.2z"/>
					<path class="st0" d="M224.1,118.1c-0.9,0-1.7-0.7-1.9-1.7l0-0.2l0-5.2c0-0.5,0.2-1.1,0.5-1.5s0.9-0.6,1.4-0.6h0
						c0.5,0,1.1,0.2,1.4,0.6c0.3,0.4,0.5,0.9,0.5,1.5l0,5.2c-0.2,1-0.9,1.7-1.8,1.8L224.1,118.1z M224,116.1c0,0.1,0.1,0.1,0.1,0.1
						h0c0,0,0.1-0.1,0.1-0.2l0-5c0-0.1,0-0.1-0.1-0.2c-0.2,0-0.2,0.1-0.2,0.2V116.1z"/>
				</g>
			</g>
		</g>
		<g>
			<g>
				<g>
					<path class="st0" d="M234.4,117.6c-0.6,0-1.2-0.5-1.4-1.3l0-0.1v-5.2c0-0.4,0.1-0.8,0.4-1.1c0.5-0.6,1.4-0.6,2,0
						c0.3,0.3,0.4,0.7,0.4,1.1l0,5.2c-0.1,0.7-0.7,1.2-1.3,1.3L234.4,117.6z M233.7,116.2c0.1,0.4,0.4,0.6,0.7,0.6
						c0.3,0,0.5-0.3,0.6-0.6v-5.1c0-0.2-0.1-0.4-0.2-0.6c-0.3-0.3-0.7-0.3-1,0c-0.1,0.1-0.2,0.3-0.2,0.5V116.2z"/>
					<path class="st0" d="M234.4,118.1c-0.9,0-1.7-0.7-1.9-1.7l0-0.2l0-5.2c0-0.5,0.2-1.1,0.5-1.5c0.4-0.4,0.9-0.6,1.4-0.6h0
						c0.5,0,1.1,0.2,1.4,0.6c0.4,0.4,0.5,1,0.5,1.5l0,5.2c-0.2,1-0.9,1.7-1.8,1.8L234.4,118.1z M234.3,116.1c0,0.1,0.1,0.1,0.1,0.1
						h0c0,0,0.1-0.1,0.1-0.2l0-5c0-0.1,0-0.1-0.1-0.2c-0.2,0-0.2,0.1-0.2,0.2V116.1z"/>
				</g>
			</g>
		</g>
		<g>
			<g>
				<g>
					<path class="st0" d="M244.7,117.6c-0.6,0-1.2-0.5-1.4-1.3l0-0.1v-5.2c0-0.4,0.1-0.8,0.4-1.1c0.5-0.6,1.4-0.6,2,0
						c0.3,0.3,0.4,0.7,0.4,1.1l0,5.2c-0.1,0.7-0.7,1.2-1.3,1.3C244.9,117.6,244.8,117.6,244.7,117.6z M244.1,116.2
						c0.1,0.4,0.4,0.6,0.7,0.6c0.3,0,0.5-0.3,0.6-0.6v-5.1c0-0.2-0.1-0.4-0.2-0.6c-0.3-0.3-0.7-0.3-1,0c-0.1,0.1-0.2,0.3-0.2,0.5
						V116.2z"/>
					<path class="st0" d="M244.7,118.1c-0.9,0-1.7-0.7-1.9-1.7l0-0.2l0-5.2c0-0.5,0.2-1.1,0.5-1.5c0.7-0.8,2.1-0.8,2.8,0
						c0.4,0.4,0.5,1,0.5,1.5l0,5.2c-0.2,1-0.9,1.7-1.8,1.8L244.7,118.1z M244.6,116.1c0,0.1,0.1,0.1,0.1,0.1l0,0
						c0,0,0.1-0.1,0.1-0.2l0-5c0-0.1,0-0.1-0.1-0.2c-0.2,0-0.2,0.1-0.2,0.2V116.1z"/>
				</g>
			</g>
		</g>
		<g>
			<g>
				<g>
					<path class="st0" d="M255.1,117.6c-0.6,0-1.2-0.5-1.4-1.3l0-0.1v-5.2c0-0.4,0.1-0.8,0.4-1.1c0.5-0.6,1.4-0.6,2,0
						c0.3,0.3,0.4,0.7,0.4,1.1l0,5.2c-0.1,0.7-0.7,1.2-1.3,1.3C255.2,117.6,255.1,117.6,255.1,117.6z M254.4,116.2
						c0.1,0.4,0.4,0.6,0.7,0.6c0.3,0,0.5-0.3,0.6-0.6v-5.1c0-0.2-0.1-0.4-0.2-0.6c-0.3-0.3-0.7-0.3-1,0c-0.1,0.1-0.2,0.3-0.2,0.5
						V116.2z"/>
					<path class="st0" d="M255.1,118.1c-0.9,0-1.7-0.7-1.9-1.7l0-0.2l0-5.2c0-0.5,0.2-1.1,0.5-1.5c0.4-0.4,0.9-0.6,1.4-0.6h0
						c0.5,0,1,0.2,1.4,0.6s0.5,0.9,0.5,1.5l0,5.2c-0.2,1-0.9,1.7-1.8,1.8L255.1,118.1z M254.9,116.1c0.1,0.2,0.2,0.2,0.2,0l0-5
						c0-0.1,0-0.1-0.1-0.2c-0.2,0.1-0.2,0.1-0.2,0.2V116.1z"/>
				</g>
			</g>
		</g>
		<g>
			<g>
				<g>
					<path class="st0" d="M265.4,117.6c-0.6,0-1.2-0.5-1.4-1.3l0-0.1v-5.2c0-0.4,0.1-0.8,0.4-1.1c0.5-0.6,1.4-0.6,2,0
						c0.3,0.3,0.4,0.7,0.4,1.1l0,5.2c-0.1,0.7-0.7,1.2-1.3,1.3C265.5,117.6,265.4,117.6,265.4,117.6z M264.7,116.2
						c0.1,0.4,0.4,0.6,0.7,0.6c0.3,0,0.5-0.3,0.6-0.6v-5.1c0-0.2-0.1-0.4-0.2-0.6c-0.3-0.3-0.7-0.3-1,0c-0.1,0.1-0.2,0.3-0.2,0.5
						V116.2z"/>
					<path class="st0" d="M265.4,118.1c-0.9,0-1.7-0.7-1.9-1.7l0-0.2l0-5.2c0-0.5,0.2-1.1,0.5-1.5c0.4-0.4,0.9-0.6,1.4-0.6h0
						c0.5,0,1,0.2,1.4,0.6c0.4,0.4,0.5,0.9,0.5,1.5l0,5.2c-0.2,1-0.9,1.7-1.8,1.8L265.4,118.1z M265.3,116.1c0.1,0.2,0.2,0.2,0.2,0
						l0-5c0-0.1,0-0.1-0.1-0.2c-0.2,0.1-0.2,0.1-0.2,0.2V116.1z"/>
				</g>
			</g>
		</g>
		<g>
			<g>
				<g>
					<path class="st0" d="M275.7,117.6c-0.6,0-1.2-0.5-1.4-1.3l0-0.1v-5.2c0-0.4,0.1-0.8,0.4-1.1c0.5-0.6,1.4-0.6,2,0
						c0.3,0.3,0.4,0.7,0.4,1.1l0,5.2c-0.1,0.7-0.7,1.2-1.3,1.3L275.7,117.6z M275,116.2c0.1,0.4,0.4,0.6,0.7,0.6
						c0.3,0,0.5-0.3,0.6-0.6v-5.1c0-0.2-0.1-0.4-0.2-0.6c-0.3-0.3-0.7-0.3-1,0c-0.1,0.1-0.2,0.3-0.2,0.5V116.2z"/>
					<path class="st0" d="M275.7,118.1c-0.9,0-1.7-0.7-1.9-1.7l0-0.2l0-5.2c0-0.5,0.2-1.1,0.5-1.5c0.7-0.8,2.1-0.8,2.8,0
						c0.4,0.4,0.5,0.9,0.5,1.5l0,5.2c-0.2,1-0.9,1.7-1.8,1.8L275.7,118.1z M275.6,116.1c0.1,0.2,0.2,0.1,0.2,0l0-5
						c0-0.1,0-0.1-0.1-0.2c-0.2,0.1-0.2,0.1-0.2,0.2V116.1z"/>
				</g>
			</g>
		</g>
	</g>
	<g>
		<g>
			<g>
				<path class="st0" d="M213,217.3c-1.1,0-2.1-0.9-2.4-2.1l0-0.2v-8.8c0-0.7,0.2-1.4,0.7-1.9c0.9-1,2.5-1,3.4,0
					c0.4,0.5,0.7,1.2,0.7,1.9l0,9c-0.2,1.2-1.1,2.1-2.1,2.1C213.1,217.3,213.1,217.3,213,217.3z M211.8,214.9c0.2,0.6,0.7,1.1,1.3,1
					c0.5,0,0.9-0.5,1.1-1v-8.7c0-0.4-0.1-0.7-0.3-1c-0.4-0.5-1.2-0.5-1.6,0c-0.2,0.3-0.3,0.6-0.3,0.9V214.9z"/>
				<path class="st0" d="M213,217.8c-1.4,0-2.6-1.1-2.9-2.6l0-0.2l0-8.9c0-0.8,0.3-1.6,0.8-2.3c0.5-0.6,1.3-1,2.1-1l0,0
					c0.8,0,1.6,0.4,2.1,1c0.5,0.6,0.8,1.4,0.8,2.3l0,8.9c-0.3,1.5-1.4,2.6-2.7,2.7C213.1,217.8,213.1,217.8,213,217.8z M213,204
					c-0.5,0-0.9,0.2-1.3,0.6c-0.4,0.4-0.6,1-0.5,1.5l0,8.9c0.2,0.9,1,1.6,1.8,1.6l0.1,0c0.8-0.1,1.5-0.8,1.6-1.7l0-8.8
					c0-0.6-0.2-1.1-0.5-1.6C213.9,204.2,213.5,204,213,204L213,204z M213,216.5c-0.8,0-1.5-0.6-1.7-1.4l0-0.1v-8.7
					c0-0.5,0.2-1,0.5-1.3c0.3-0.4,0.8-0.6,1.2-0.6h0c0.5,0,0.9,0.2,1.2,0.6c0.3,0.4,0.5,0.8,0.5,1.3v8.7c-0.2,0.9-0.8,1.5-1.6,1.6
					C213.1,216.5,213,216.5,213,216.5z M212.4,214.8c0.1,0.3,0.4,0.6,0.6,0.5c0.2,0,0.5-0.3,0.6-0.6l0-8.6c0-0.2-0.1-0.4-0.2-0.6
					c-0.1-0.1-0.2-0.2-0.4-0.2h0c-0.1,0-0.3,0.1-0.4,0.2c-0.1,0.1-0.2,0.3-0.2,0.6V214.8z"/>
			</g>
		</g>
	</g>
	<g>
		<g>
			<g>
				<path class="st0" d="M287.4,217.3c-1.1,0-2.1-0.9-2.4-2.1l0-0.2v-8.8c0-0.7,0.2-1.4,0.7-1.9c0.9-1,2.5-1,3.4,0
					c0.4,0.5,0.7,1.2,0.7,1.9l0,9c-0.2,1.2-1.1,2.1-2.1,2.1C287.6,217.3,287.5,217.3,287.4,217.3z M286.3,214.9
					c0.2,0.6,0.7,1.1,1.3,1c0.5,0,0.9-0.5,1.1-1v-8.7c0-0.4-0.1-0.7-0.3-1c-0.4-0.5-1.2-0.5-1.6,0c-0.2,0.3-0.3,0.6-0.3,0.9V214.9z"
					/>
				<path class="st0" d="M287.4,217.8c-1.4,0-2.6-1.1-2.9-2.6l0-0.2l0-8.9c0-0.8,0.3-1.6,0.8-2.3c0.5-0.6,1.3-1,2.1-1h0
					c0.8,0,1.6,0.4,2.1,1c0.5,0.6,0.8,1.4,0.8,2.3l0,8.9c-0.3,1.5-1.4,2.6-2.7,2.7C287.6,217.8,287.5,217.8,287.4,217.8z M287.4,204
					c-0.5,0-0.9,0.2-1.3,0.6c-0.4,0.4-0.5,1-0.5,1.5l0,8.9c0.2,0.9,1,1.6,1.8,1.6l0.1,0c0.8-0.1,1.5-0.8,1.6-1.7v-8.8
					c0-0.6-0.2-1.1-0.5-1.6C288.4,204.2,287.9,204,287.4,204L287.4,204z M287.4,216.5c-0.8,0-1.5-0.6-1.7-1.4l0-0.1v-8.7
					c0-0.5,0.2-0.9,0.5-1.3c0.6-0.7,1.8-0.7,2.5,0c0.3,0.4,0.5,0.8,0.5,1.3v8.7c-0.2,0.9-0.8,1.5-1.6,1.6
					C287.5,216.5,287.5,216.5,287.4,216.5z M286.8,214.8c0.1,0.4,0.4,0.5,0.6,0.5c0.3,0,0.5-0.3,0.6-0.6l0-8.6
					c0-0.2-0.1-0.4-0.2-0.6c-0.2-0.3-0.6-0.2-0.8,0c-0.1,0.1-0.2,0.4-0.2,0.6V214.8z"/>
			</g>
		</g>
	</g>
	<g>
		<g>
			<g>
				<path class="st0" d="M299.8,217.3c-1.1,0-2.1-0.9-2.4-2.1l0-0.2v-8.8c0-0.7,0.2-1.4,0.7-1.9c0.9-1,2.5-1,3.4,0
					c0.4,0.5,0.7,1.2,0.7,1.9l0,9c-0.2,1.2-1.1,2-2.2,2.1C299.9,217.3,299.8,217.3,299.8,217.3z M298.6,214.9c0.2,0.6,0.7,1.1,1.3,1
					c0.5,0,0.9-0.5,1.1-1v-8.7c0-0.4-0.1-0.7-0.3-1c-0.4-0.5-1.2-0.5-1.6,0c-0.2,0.3-0.3,0.6-0.3,0.9V214.9z"/>
				<path class="st0" d="M299.8,217.8c-1.4,0-2.6-1.1-2.9-2.6l0-0.2v-8.9c0-0.8,0.3-1.6,0.8-2.3c0.5-0.6,1.3-1,2.1-1h0
					c0.8,0,1.6,0.4,2.1,1c0.5,0.6,0.8,1.4,0.8,2.3l0,9c-0.3,1.5-1.4,2.6-2.7,2.7L299.8,217.8z M299.8,204L299.8,204
					c-0.5,0-0.9,0.2-1.3,0.6c-0.4,0.4-0.5,1-0.5,1.5l0,8.9c0.2,0.9,1,1.6,1.8,1.6l0.1,0c0.8-0.1,1.5-0.8,1.7-1.7v-8.8
					c0-0.6-0.2-1.1-0.5-1.6C300.7,204.3,300.2,204,299.8,204z M299.8,216.5c-0.8,0-1.5-0.6-1.7-1.4l0-0.1v-8.7
					c0-0.5,0.2-0.9,0.5-1.3c0.6-0.7,1.8-0.7,2.5,0c0.3,0.4,0.5,0.8,0.5,1.3v8.7c-0.2,0.9-0.8,1.5-1.6,1.6
					C299.9,216.5,299.8,216.5,299.8,216.5z M299.2,214.8c0.1,0.3,0.4,0.6,0.6,0.5c0.2,0,0.5-0.3,0.6-0.6l0-8.6
					c0-0.2-0.1-0.4-0.2-0.6c-0.2-0.3-0.6-0.2-0.8,0c-0.1,0.1-0.2,0.3-0.2,0.6V214.8z"/>
			</g>
		</g>
	</g>
	<g>
		<g>
			<path class="st0" d="M312.1,217.3c-1.1,0-2.1-0.9-2.4-2.1l0-0.2v-8.8c0-0.7,0.2-1.4,0.7-1.9c0.9-1,2.5-1,3.4,0
				c0.4,0.5,0.7,1.2,0.7,1.9l0,9c-0.2,1.2-1.1,2-2.2,2.1C312.2,217.3,312.2,217.3,312.1,217.3z M310.9,214.9c0.2,0.6,0.7,1.1,1.3,1
				c0.5,0,0.9-0.5,1.1-1v-8.7c0-0.4-0.1-0.7-0.3-1c-0.4-0.5-1.2-0.5-1.6,0c-0.2,0.3-0.3,0.6-0.3,0.9V214.9z"/>
			<path class="st0" d="M312.1,217.8c-1.4,0-2.6-1.1-2.9-2.6l0-0.2v-8.9c0-0.8,0.3-1.6,0.8-2.3c0.5-0.6,1.3-1,2.1-1h0
				c0.8,0,1.6,0.4,2.1,1c0.5,0.6,0.8,1.4,0.8,2.3l0,9c-0.3,1.5-1.4,2.6-2.7,2.7C312.2,217.8,312.2,217.8,312.1,217.8z M312.1,204
				L312.1,204c-0.5,0-0.9,0.2-1.3,0.6c-0.4,0.4-0.5,1-0.5,1.5l0,8.9c0.2,0.9,1,1.6,1.8,1.6l0.1,0c0.8-0.1,1.5-0.8,1.7-1.7v-8.8
				c0-0.6-0.2-1.1-0.5-1.6C313,204.3,312.6,204,312.1,204z M312.1,216.5c-0.8,0-1.5-0.6-1.7-1.5l0-0.1v-8.7c0-0.5,0.2-0.9,0.5-1.3
				c0.6-0.7,1.8-0.7,2.5,0c0.3,0.4,0.5,0.8,0.5,1.3v8.7c-0.2,0.9-0.8,1.5-1.6,1.6C312.2,216.5,312.2,216.5,312.1,216.5z
				 M311.5,214.8c0.1,0.3,0.4,0.6,0.6,0.5c0.2,0,0.5-0.3,0.6-0.6l0-8.6c0-0.2-0.1-0.4-0.2-0.6c-0.2-0.3-0.6-0.2-0.8,0
				c-0.1,0.1-0.2,0.3-0.2,0.6V214.8z"/>
		</g>
	</g>
	<g>
		<g>
			<g>
				<path class="st0" d="M215.8,197.2h-6v-12.8c0-0.9,0.3-1.8,0.9-2.4c1.1-1.3,3.2-1.3,4.3,0c0.6,0.7,0.9,1.5,0.9,2.5V197.2z
					 M210.9,195.8h3.6v-11.4c0-0.6-0.2-1.1-0.5-1.5c-0.7-0.8-1.9-0.8-2.6,0c-0.3,0.4-0.5,0.9-0.5,1.5V195.8z"/>
				<path class="st0" d="M216.3,197.7h-7.2v-13.4c0-1,0.3-2,1-2.8c0.7-0.8,1.6-1.2,2.6-1.2h0c1,0,1.9,0.4,2.6,1.2
					c0.7,0.8,1,1.8,1,2.8V197.7z M210.3,196.6h4.9v-12.2c0-0.8-0.2-1.5-0.7-2.1c-0.4-0.5-1.1-0.8-1.7-0.8h0c-0.7,0-1.3,0.3-1.7,0.8
					c-0.5,0.6-0.7,1.3-0.7,2.1V196.6z M215.1,196.4h-4.7v-12c0-0.7,0.2-1.3,0.7-1.8c0.4-0.5,1.1-0.8,1.7-0.8h0
					c0.7,0,1.3,0.3,1.7,0.8c0.4,0.5,0.7,1.2,0.7,1.9V196.4z M211.5,195.3h2.5v-10.9c0-0.4-0.1-0.8-0.4-1.1c-0.2-0.3-0.5-0.4-0.9-0.4
					h0c-0.3,0-0.6,0.1-0.9,0.4c-0.3,0.3-0.4,0.7-0.4,1.1V195.3z"/>
			</g>
		</g>
	</g>
	<g>
		<g>
			<g>
				<path class="st0" d="M226.6,197.2h-6v-12.8c0-0.9,0.3-1.8,0.9-2.4c1.1-1.3,3.2-1.3,4.3,0c0.6,0.7,0.9,1.5,0.9,2.5V197.2z
					 M221.8,195.8h3.6v-11.4c0-0.6-0.2-1.1-0.5-1.5c-0.7-0.8-1.9-0.8-2.6,0c-0.3,0.4-0.5,0.9-0.5,1.5V195.8z"/>
				<path class="st0" d="M227.2,197.7h-7.2v-13.4c0-1,0.3-2,1-2.8c0.7-0.8,1.6-1.2,2.6-1.2h0c1,0,1.9,0.4,2.6,1.2
					c0.7,0.8,1,1.8,1,2.8V197.7z M221.2,196.6h4.9v-12.2c0-0.8-0.2-1.5-0.7-2.1c-0.4-0.5-1.1-0.8-1.7-0.8h0c-0.7,0-1.3,0.3-1.7,0.8
					c-0.5,0.6-0.7,1.3-0.7,2.1V196.6z M226,196.4h-4.7v-12c0-0.7,0.2-1.3,0.7-1.8c0.4-0.5,1.1-0.8,1.7-0.8h0c0.7,0,1.3,0.3,1.7,0.8
					c0.4,0.5,0.7,1.2,0.7,1.9V196.4z M222.4,195.3h2.5v-10.9c0-0.4-0.1-0.8-0.4-1.1c-0.2-0.3-0.5-0.4-0.9-0.4h0
					c-0.3,0-0.6,0.1-0.9,0.4c-0.3,0.3-0.4,0.7-0.4,1.1V195.3z"/>
			</g>
		</g>
	</g>
	<g>
		<g>
			<g>
				<path class="st0" d="M237.5,197.2h-6v-12.8c0-0.9,0.3-1.8,0.9-2.4c1.1-1.3,3.2-1.3,4.3,0c0.6,0.7,0.9,1.5,0.9,2.5V197.2z
					 M232.7,195.8h3.6v-11.4c0-0.6-0.2-1.1-0.5-1.5c-0.7-0.8-1.9-0.8-2.6,0c-0.3,0.4-0.5,0.9-0.5,1.5V195.8z"/>
				<path class="st0" d="M238.1,197.7h-7.2v-13.4c0-1,0.3-2,1-2.8c0.7-0.8,1.6-1.2,2.6-1.2h0c1,0,1.9,0.4,2.6,1.2
					c0.7,0.8,1,1.8,1,2.8V197.7z M232,196.6h4.9v-12.2c0-0.8-0.2-1.5-0.7-2.1c-0.4-0.5-1.1-0.8-1.7-0.8h0c-0.7,0-1.3,0.3-1.7,0.8
					c-0.5,0.6-0.7,1.3-0.7,2.1V196.6z M236.9,196.4h-4.7v-12c0-0.7,0.2-1.3,0.7-1.8c0.4-0.5,1.1-0.8,1.7-0.8h0
					c0.7,0,1.3,0.3,1.7,0.8c0.4,0.5,0.7,1.2,0.7,1.9V196.4z M233.2,195.3h2.5v-10.9c0-0.4-0.1-0.8-0.4-1.1c-0.2-0.3-0.5-0.4-0.9-0.4
					h0c-0.3,0-0.6,0.1-0.9,0.4c-0.3,0.3-0.4,0.7-0.4,1.1V195.3z"/>
			</g>
		</g>
	</g>
	<g>
		<g>
			<g>
				<path class="st0" d="M248.4,197.2h-6v-12.8c0-0.9,0.3-1.8,0.9-2.4c1.1-1.3,3.2-1.3,4.3,0c0.6,0.7,0.9,1.5,0.9,2.5V197.2z
					 M243.6,195.8h3.6v-11.4c0-0.6-0.2-1.1-0.5-1.5c-0.7-0.8-1.9-0.8-2.6,0c-0.3,0.4-0.5,0.9-0.5,1.5V195.8z"/>
				<path class="st0" d="M248.9,197.7h-7.2v-13.4c0-1,0.3-2,1-2.8c0.7-0.8,1.6-1.2,2.6-1.2h0c1,0,1.9,0.4,2.6,1.2
					c0.7,0.8,1,1.8,1,2.8V197.7z M242.9,196.6h4.9v-12.2c0-0.8-0.2-1.5-0.7-2.1c-0.4-0.5-1.1-0.8-1.7-0.8h0c-0.7,0-1.3,0.3-1.7,0.8
					c-0.5,0.6-0.7,1.3-0.7,2.1V196.6z M247.7,196.4H243v-12c0-0.7,0.2-1.3,0.7-1.8c0.4-0.5,1.1-0.8,1.7-0.8h0c0.7,0,1.3,0.3,1.7,0.8
					c0.4,0.5,0.7,1.2,0.7,1.9V196.4z M244.1,195.3h2.5v-10.9c0-0.4-0.1-0.8-0.4-1.1c-0.2-0.3-0.5-0.4-0.9-0.4h0
					c-0.3,0-0.6,0.1-0.9,0.4c-0.3,0.3-0.4,0.7-0.4,1.1V195.3z"/>
			</g>
		</g>
	</g>
	<g>
		<g>
			<g>
				<path class="st0" d="M259.3,197.2h-6v-12.8c0-0.9,0.3-1.8,0.9-2.4c1.1-1.3,3.2-1.3,4.3,0c0.6,0.7,0.9,1.5,0.9,2.5V197.2z
					 M254.4,195.8h3.6v-11.4c0-0.6-0.2-1.1-0.5-1.5c-0.7-0.8-1.9-0.8-2.6,0c-0.3,0.4-0.5,0.9-0.5,1.5V195.8z"/>
				<path class="st0" d="M259.8,197.7h-7.2v-13.4c0-1,0.3-2,1-2.8c0.7-0.8,1.6-1.2,2.6-1.2c0,0,0,0,0,0c1,0,1.9,0.4,2.6,1.2
					c0.7,0.8,1,1.8,1,2.8V197.7z M253.8,196.6h4.9v-12.2c0-0.8-0.2-1.5-0.7-2.1c-0.4-0.5-1.1-0.8-1.7-0.8c0,0,0,0,0,0
					c-0.7,0-1.3,0.3-1.7,0.8c-0.5,0.6-0.7,1.3-0.7,2.1V196.6z M258.6,196.4h-4.7v-12c0-0.7,0.2-1.3,0.7-1.8c0.4-0.5,1.1-0.8,1.7-0.8
					c0,0,0,0,0,0c0.7,0,1.3,0.3,1.7,0.8c0.4,0.5,0.7,1.2,0.7,1.9V196.4z M255,195.3h2.5v-10.9c0-0.4-0.1-0.8-0.4-1.1
					c-0.2-0.3-0.5-0.4-0.9-0.4c0,0,0,0,0,0c-0.3,0-0.6,0.1-0.9,0.4c-0.3,0.3-0.4,0.7-0.4,1.1V195.3z"/>
			</g>
		</g>
	</g>
	<g>
		<g>
			<g>
				<path class="st0" d="M270.1,197.2h-6v-12.8c0-0.9,0.3-1.8,0.9-2.4c1.1-1.3,3.2-1.3,4.3,0c0.6,0.7,0.9,1.5,0.9,2.5V197.2z
					 M265.3,195.8h3.6v-11.4c0-0.6-0.2-1.1-0.5-1.5c-0.7-0.8-1.9-0.8-2.6,0c-0.3,0.4-0.5,0.9-0.5,1.5V195.8z"/>
				<path class="st0" d="M270.7,197.7h-7.2v-13.4c0-1,0.3-2,1-2.8c0.7-0.8,1.6-1.2,2.6-1.2h0c1,0,1.9,0.4,2.6,1.2
					c0.7,0.8,1,1.8,1,2.8V197.7z M264.6,196.6h4.9v-12.2c0-0.8-0.2-1.5-0.7-2.1c-0.4-0.5-1.1-0.8-1.7-0.8h0c-0.7,0-1.3,0.3-1.7,0.8
					c-0.5,0.6-0.7,1.3-0.7,2.1V196.6z M269.5,196.4h-4.7v-12c0-0.7,0.2-1.3,0.7-1.8c0.4-0.5,1.1-0.8,1.7-0.8h0
					c0.7,0,1.3,0.3,1.7,0.8c0.4,0.5,0.7,1.2,0.7,1.9V196.4z M265.9,195.3h2.5v-10.9c0-0.4-0.1-0.8-0.4-1.1c-0.2-0.3-0.5-0.4-0.9-0.4
					h0c-0.3,0-0.6,0.1-0.9,0.4c-0.3,0.3-0.4,0.7-0.4,1.1V195.3z"/>
			</g>
		</g>
	</g>
	<g>
		<g>
			<g>
				<path class="st0" d="M281,197.2h-6v-12.8c0-0.9,0.3-1.8,0.9-2.4c1.1-1.3,3.2-1.3,4.3,0c0.6,0.7,0.9,1.5,0.9,2.5V197.2z
					 M276.2,195.8h3.6v-11.4c0-0.6-0.2-1.1-0.5-1.5c-0.7-0.8-1.9-0.8-2.6,0c-0.3,0.4-0.5,0.9-0.5,1.5V195.8z"/>
				<path class="st0" d="M281.6,197.7h-7.2v-13.4c0-1,0.3-2,1-2.8c1.3-1.5,3.8-1.5,5.1,0c0.7,0.8,1,1.8,1,2.8V197.7z M275.5,196.6
					h4.9v-12.2c0-0.8-0.2-1.5-0.7-2.1c-0.9-1-2.6-1-3.5,0c-0.5,0.6-0.7,1.3-0.7,2.1V196.6z M280.3,196.4h-4.7v-12
					c0-0.7,0.2-1.3,0.7-1.8c0.4-0.5,1.1-0.8,1.7-0.8h0c0.7,0,1.3,0.3,1.7,0.8c0.4,0.5,0.7,1.2,0.7,1.9V196.4z M276.7,195.3h2.5
					v-10.9c0-0.4-0.1-0.8-0.4-1.1c-0.2-0.3-0.5-0.4-0.9-0.4h0c-0.3,0-0.6,0.1-0.9,0.4c-0.3,0.3-0.4,0.7-0.4,1.1V195.3z"/>
			</g>
		</g>
	</g>
	<g>
		<g>
			<g>
				<path class="st0" d="M291.9,197.2h-6v-12.8c0-0.9,0.3-1.8,0.9-2.4c1.1-1.3,3.2-1.3,4.3,0c0.6,0.7,0.9,1.5,0.9,2.5V197.2z
					 M287,195.8h3.6v-11.4c0-0.6-0.2-1.1-0.5-1.5c-0.7-0.8-1.9-0.8-2.6,0c-0.3,0.4-0.5,0.9-0.5,1.5V195.8z"/>
				<path class="st0" d="M292.4,197.7h-7.2v-13.4c0-1,0.3-2,1-2.8c1.3-1.5,3.8-1.5,5.1,0c0.7,0.8,1,1.8,1,2.8V197.7z M286.4,196.6
					h4.9v-12.2c0-0.8-0.2-1.5-0.7-2.1c-0.9-1-2.6-1-3.5,0c-0.5,0.6-0.7,1.3-0.7,2.1V196.6z M291.2,196.4h-4.7v-12
					c0-0.7,0.2-1.3,0.7-1.8c0.4-0.5,1.1-0.8,1.7-0.8h0c0.7,0,1.3,0.3,1.7,0.8c0.4,0.5,0.7,1.2,0.7,1.9V196.4z M287.6,195.3h2.5
					v-10.9c0-0.4-0.1-0.8-0.4-1.1c-0.2-0.3-0.5-0.4-0.9-0.4h0c-0.3,0-0.6,0.1-0.9,0.4c-0.3,0.3-0.4,0.7-0.4,1.1V195.3z"/>
			</g>
		</g>
	</g>
	<g>
		<g>
			<g>
				<path class="st0" d="M302.7,197.2h-6v-12.8c0-0.9,0.3-1.8,0.9-2.4c1.1-1.3,3.2-1.3,4.3,0c0.6,0.7,0.9,1.5,0.9,2.5V197.2z
					 M297.9,195.8h3.6v-11.4c0-0.6-0.2-1.1-0.5-1.5c-0.7-0.8-1.9-0.8-2.6,0c-0.3,0.4-0.5,0.9-0.5,1.5V195.8z"/>
				<path class="st0" d="M303.3,197.7h-7.2v-13.4c0-1,0.3-2,1-2.8c1.3-1.5,3.8-1.5,5.1,0c0.7,0.8,1,1.8,1,2.8V197.7z M297.3,196.6
					h4.9v-12.2c0-0.8-0.2-1.5-0.7-2.1c-0.9-1-2.6-1-3.5,0c-0.5,0.6-0.7,1.3-0.7,2.1V196.6z M302.1,196.4h-4.7v-12
					c0-0.7,0.2-1.3,0.7-1.8c0.4-0.5,1.1-0.8,1.7-0.8h0c0.7,0,1.3,0.3,1.7,0.8c0.4,0.5,0.7,1.2,0.7,1.9V196.4z M298.5,195.3h2.5
					v-10.9c0-0.4-0.1-0.8-0.4-1.1c-0.2-0.3-0.5-0.4-0.9-0.4h0c-0.3,0-0.6,0.1-0.9,0.4c-0.3,0.3-0.4,0.7-0.4,1.1V195.3z"/>
			</g>
		</g>
	</g>
	<g>
		<g>
			<g>
				<path class="st0" d="M273.2,216.5h-45.4v-8.3h45.4V216.5z M229.1,215.1h43v-5.5h-43V215.1z"/>
				<path class="st0" d="M273.8,217.1h-46.5v-9.4h46.5V217.1z M228.4,215.9h44.3v-7.1h-44.3V215.9z M272.6,215.7h-44.1V209h44.1
					V215.7z M229.6,214.6h41.9v-4.4h-41.9V214.6z"/>
			</g>
		</g>
	</g>
	<g>
		<g>
			<g>
				<path class="st0" d="M289.5,275.2h-76.5v-9.7h76.5V275.2z M214.1,273.8h74.1v-7h-74.1V273.8z"/>
				<path class="st0" d="M290,275.7h-77.7v-10.9H290V275.7z M213.5,274.6h75.4V266h-75.4V274.6z M288.8,274.4h-75.2v-8.1h75.2V274.4
					z M214.7,273.2h73v-5.9h-73V273.2z"/>
			</g>
		</g>
	</g>
	<g>
		<g>
			<g>
				<path class="st0" d="M283.9,266.8h-67.4v-8.3h67.4V266.8z M217.7,265.4h65v-5.5h-65V265.4z"/>
				<path class="st0" d="M284.5,267.3H216V258h68.5V267.3z M217.1,266.2h66.3v-7.1h-66.3V266.2z M283.3,266h-66.1v-6.6h66.1V266z
					 M218.3,264.9h63.9v-4.4h-63.9V264.9z"/>
			</g>
		</g>
	</g>
	<g>
		<g>
			<g>
				<path class="st0" d="M188.9,249.9h-13.3v-15l0.2-0.2c0.6-0.7,3-3,6.5-3c0.9,0,4,0.2,6.5,3l0.2,0.2V249.9z M176.8,248.6h10.9v-13
					c-2.1-2.3-4.7-2.5-5.4-2.5c-2.8,0-4.7,1.7-5.4,2.5V248.6z"/>
				<path class="st0" d="M189.5,250.5h-14.4v-15.7l0.3-0.4c0.7-0.8,3.2-3.2,6.9-3.2c1,0,4.2,0.2,6.9,3.2l0.3,0.4V250.5z
					 M176.2,249.4h12.2l0-14.3c-2.3-2.7-5.2-2.9-6-2.9c-3.3,0-5.5,2.2-6,2.9l0,0V249.4z M188.3,249.1h-12v-13.8l0.2-0.2
					c0.7-0.8,2.8-2.6,5.8-2.6c0.8,0,3.6,0.2,5.8,2.6l0.1,0.2V249.1z M177.4,248h9.8v-12.3c-1.9-2-4.2-2.1-4.9-2.1
					c-2.4,0-4.1,1.4-4.9,2.1V248z"/>
			</g>
		</g>
	</g>
	<g>
		<g>
			<g>
				<path class="st0" d="M212.2,249.9h-13.3v-15l0.2-0.2c0.6-0.7,3-3,6.5-3c0.9,0,4,0.2,6.5,3l0.2,0.2V249.9z M200.1,248.6h10.9v-13
					c-2.1-2.3-4.7-2.5-5.4-2.5c-2.8,0-4.7,1.7-5.4,2.5V248.6z"/>
				<path class="st0" d="M212.7,250.5h-14.4v-15.7l0.3-0.4c0.7-0.8,3.1-3.2,6.9-3.2c1,0,4.2,0.2,6.9,3.2l0.3,0.4V250.5z
					 M199.4,249.4h12.2l0-14.3c-2.3-2.7-5.2-2.9-6-2.9c-3.3,0-5.5,2.2-6,2.9l0,0V249.4z M211.5,249.1h-12v-13.8l0.2-0.2
					c0.7-0.8,2.8-2.6,5.8-2.6c0.8,0,3.6,0.2,5.8,2.6l0.1,0.2V249.1z M200.6,248h9.8v-12.3c-1.9-2-4.2-2.1-4.9-2.1
					c-2.4,0-4.1,1.4-4.9,2.1V248z"/>
			</g>
		</g>
	</g>
	<g>
		<g>
			<g>
				<path class="st0" d="M235.4,249.9h-13.3v-15l0.2-0.2c0.6-0.7,3-3,6.5-3c0.9,0,4,0.2,6.5,3l0.2,0.2V249.9z M223.3,248.6h10.9v-13
					c-2.1-2.3-4.7-2.5-5.4-2.5c-2.8,0-4.7,1.7-5.4,2.5V248.6z"/>
				<path class="st0" d="M236,250.5h-14.4v-15.7l0.3-0.4c0.7-0.8,3.1-3.2,6.9-3.2c1,0,4.2,0.2,6.9,3.2l0.3,0.4V250.5z M222.7,249.4
					h12.2l0-14.3c-2.3-2.7-5.2-2.9-6-2.9c-3.3,0-5.5,2.2-6,2.9l0,0V249.4z M234.8,249.1h-12v-13.8l0.2-0.2c0.7-0.8,2.8-2.6,5.8-2.6
					c0.8,0,3.6,0.2,5.8,2.6l0.1,0.2V249.1z M223.9,248h9.8v-12.3c-1.9-2-4.2-2.1-4.9-2.1c-2.4,0-4.1,1.4-4.9,2.1V248z"/>
			</g>
		</g>
	</g>
	<g>
		<g>
			<g>
				<path class="st0" d="M258.7,249.9h-13.3v-15l0.2-0.2c0.6-0.7,3-3,6.5-3c0.9,0,4,0.2,6.5,3l0.2,0.2V249.9z M246.6,248.6h10.9v-13
					c-2.1-2.3-4.7-2.5-5.4-2.5c-2.8,0-4.7,1.7-5.4,2.5V248.6z"/>
				<path class="st0" d="M259.2,250.5h-14.4v-15.7l0.3-0.4c0.7-0.8,3.1-3.2,6.9-3.2c1,0,4.2,0.2,6.9,3.2l0.3,0.4V250.5z
					 M245.9,249.4h12.2l0-14.3c-2.3-2.7-5.2-2.9-6-2.9c-3.3,0-5.5,2.2-6,2.9l0,0V249.4z M258,249.1h-12v-13.8l0.2-0.2
					c0.8-0.8,2.8-2.6,5.8-2.6c0.8,0,3.6,0.2,5.8,2.6l0.1,0.2V249.1z M247.1,248h9.8v-12.3c-1.9-2-4.2-2.1-4.9-2.1
					c-2.4,0-4.1,1.4-4.9,2.1V248z"/>
			</g>
		</g>
	</g>
	<g>
		<g>
			<g>
				<path class="st0" d="M281.9,249.9h-13.3v-15l0.2-0.2c0.6-0.7,3-3,6.5-3c0.9,0,4,0.2,6.5,3l0.2,0.2V249.9z M269.8,248.6h10.9v-13
					c-2.1-2.3-4.7-2.5-5.4-2.5c-2.8,0-4.7,1.7-5.4,2.5V248.6z"/>
				<path class="st0" d="M282.5,250.5h-14.4v-15.7l0.3-0.4c0.7-0.8,3.1-3.2,6.9-3.2c1,0,4.2,0.2,6.9,3.2l0.3,0.4V250.5z
					 M269.2,249.4h12.2l0-14.3c-2.3-2.7-5.2-2.9-6-2.9c-3.3,0-5.5,2.2-6,2.9l0,0V249.4z M281.3,249.1h-12v-13.8l0.2-0.2
					c0.7-0.8,2.8-2.6,5.8-2.6c0.8,0,3.6,0.2,5.8,2.6l0.1,0.2V249.1z M270.4,248h9.8v-12.3c-1.9-2-4.2-2.1-4.9-2.1
					c-2.4,0-4.1,1.4-4.9,2.1V248z"/>
			</g>
		</g>
	</g>
	<g>
		<g>
			<g>
				<path class="st0" d="M305.2,249.9h-13.3v-15l0.2-0.2c0.6-0.7,3-3,6.5-3c0.9,0,4,0.2,6.5,3l0.2,0.2V249.9z M293.1,248.6h10.9v-13
					c-2.1-2.3-4.7-2.5-5.4-2.5c-2.8,0-4.7,1.7-5.4,2.5V248.6z"/>
				<path class="st0" d="M305.7,250.5h-14.4v-15.7l0.3-0.4c0.7-0.8,3.1-3.2,6.9-3.2c1,0,4.2,0.2,6.9,3.2l0.3,0.4V250.5z
					 M292.4,249.4h12.2l0-14.3c-2.3-2.7-5.2-2.9-6-2.9c-3.3,0-5.5,2.2-6,2.9l0,0V249.4z M304.5,249.1h-12v-13.8l0.2-0.2
					c0.8-0.8,2.8-2.6,5.8-2.6c0.8,0,3.6,0.2,5.8,2.6l0.1,0.2V249.1z M293.6,248h9.8v-12.3c-1.9-2-4.2-2.1-4.9-2.1
					c-2.4,0-4.1,1.4-4.9,2.1V248z"/>
			</g>
		</g>
	</g>
	<g>
		<g>
			<path class="st0" d="M328.4,249.9h-13.3v-15l0.2-0.2c0.6-0.7,3-3,6.5-3c0.9,0,4,0.2,6.5,3l0.2,0.2V249.9z M316.3,248.6h10.9v-13
				c-2.1-2.3-4.7-2.5-5.4-2.5c-2.8,0-4.7,1.7-5.4,2.5V248.6z"/>
			<path class="st0" d="M329,250.5h-14.4v-15.7l0.3-0.4c0.7-0.8,3.1-3.2,6.9-3.2c1,0,4.2,0.2,6.9,3.2l0.3,0.4V250.5z M315.7,249.4
				h12.2l0-14.3c-2.3-2.7-5.2-2.9-6-2.9c-3.3,0-5.5,2.2-6,2.9l0,0V249.4z M327.8,249.1h-12v-13.8l0.2-0.2c0.7-0.8,2.8-2.6,5.8-2.6
				c0.8,0,3.6,0.2,5.8,2.6l0.1,0.2V249.1z M316.9,248h9.8v-12.3c-1.9-2-4.2-2.1-4.9-2.1c-2.4,0-4.1,1.4-4.9,2.1V248z"/>
		</g>
	</g>
	<g>
		<g>
			<path class="st0" d="M167.5,265.4c-2.6,0-4.6-2.4-4.6-5.2s2.1-5.2,4.6-5.2s4.6,2.4,4.6,5.2S170,265.4,167.5,265.4z M167.5,256.3
				c-1.9,0-3.4,1.7-3.4,3.9s1.5,3.9,3.4,3.9c1.9,0,3.4-1.7,3.4-3.9S169.4,256.3,167.5,256.3z"/>
			<path class="st0" d="M167.5,266c-2.9,0-5.2-2.6-5.2-5.8c0-3.2,2.3-5.8,5.2-5.8c2.9,0,5.2,2.6,5.2,5.8
				C172.7,263.4,170.3,266,167.5,266z M167.5,255.5c-2.2,0-4.1,2.1-4.1,4.7c0,2.6,1.8,4.7,4.1,4.7c2.2,0,4.1-2.1,4.1-4.7
				C171.5,257.6,169.7,255.5,167.5,255.5z M167.5,264.6c-2.2,0-4-2-4-4.4c0-2.4,1.8-4.4,4-4.4c2.2,0,4,2,4,4.4
				C171.4,262.6,169.7,264.6,167.5,264.6z M167.5,256.9c-1.6,0-2.9,1.5-2.9,3.3c0,1.8,1.3,3.3,2.9,3.3c1.6,0,2.9-1.5,2.9-3.3
				C170.3,258.4,169,256.9,167.5,256.9z"/>
		</g>
	</g>
	<g>
		<g>
			<g>
				<path class="st0" d="M184,265.4c-2.6,0-4.6-2.4-4.6-5.2s2.1-5.2,4.6-5.2c2.6,0,4.6,2.4,4.6,5.2S186.5,265.4,184,265.4z
					 M184,256.3c-1.9,0-3.4,1.7-3.4,3.9s1.5,3.9,3.4,3.9c1.9,0,3.4-1.7,3.4-3.9S185.8,256.3,184,256.3z"/>
				<path class="st0" d="M184,266c-2.9,0-5.2-2.6-5.2-5.8c0-3.2,2.3-5.8,5.2-5.8c2.9,0,5.2,2.6,5.2,5.8
					C189.1,263.4,186.8,266,184,266z M184,255.5c-2.2,0-4.1,2.1-4.1,4.7c0,2.6,1.8,4.7,4.1,4.7c2.2,0,4.1-2.1,4.1-4.7
					C188,257.6,186.2,255.5,184,255.5z M184,264.6c-2.2,0-4-2-4-4.4c0-2.4,1.8-4.4,4-4.4s4,2,4,4.4
					C187.9,262.6,186.1,264.6,184,264.6z M184,256.9c-1.6,0-2.9,1.5-2.9,3.3c0,1.8,1.3,3.3,2.9,3.3s2.9-1.5,2.9-3.3
					C186.8,258.4,185.5,256.9,184,256.9z"/>
			</g>
		</g>
	</g>
	<g>
		<g>
			<g>
				<path class="st0" d="M200.4,265.4c-2.6,0-4.6-2.4-4.6-5.2s2.1-5.2,4.6-5.2s4.6,2.4,4.6,5.2S203,265.4,200.4,265.4z M200.4,256.3
					c-1.9,0-3.4,1.7-3.4,3.9s1.5,3.9,3.4,3.9s3.4-1.7,3.4-3.9S202.3,256.3,200.4,256.3z"/>
				<path class="st0" d="M200.4,266c-2.9,0-5.2-2.6-5.2-5.8c0-3.2,2.3-5.8,5.2-5.8c2.9,0,5.2,2.6,5.2,5.8
					C205.6,263.4,203.3,266,200.4,266z M200.4,255.5c-2.2,0-4.1,2.1-4.1,4.7c0,2.6,1.8,4.7,4.1,4.7c2.2,0,4.1-2.1,4.1-4.7
					C204.5,257.6,202.7,255.5,200.4,255.5z M200.4,264.6c-2.2,0-4-2-4-4.4c0-2.4,1.8-4.4,4-4.4c2.2,0,4,2,4,4.4
					C204.4,262.6,202.6,264.6,200.4,264.6z M200.4,256.9c-1.6,0-2.9,1.5-2.9,3.3c0,1.8,1.3,3.3,2.9,3.3c1.6,0,2.9-1.5,2.9-3.3
					C203.3,258.4,202,256.9,200.4,256.9z"/>
			</g>
		</g>
	</g>
	<g>
		<g>
			<g>
				<path class="st0" d="M299.8,265.4c-2.6,0-4.6-2.4-4.6-5.2s2.1-5.2,4.6-5.2c2.6,0,4.6,2.4,4.6,5.2S302.3,265.4,299.8,265.4z
					 M299.8,256.3c-1.9,0-3.4,1.7-3.4,3.9s1.5,3.9,3.4,3.9c1.9,0,3.4-1.7,3.4-3.9S301.6,256.3,299.8,256.3z"/>
				<path class="st0" d="M299.8,266c-2.9,0-5.2-2.6-5.2-5.8c0-3.2,2.3-5.8,5.2-5.8c2.9,0,5.2,2.6,5.2,5.8
					C304.9,263.4,302.6,266,299.8,266z M299.8,255.5c-2.2,0-4.1,2.1-4.1,4.7c0,2.6,1.8,4.7,4.1,4.7c2.2,0,4.1-2.1,4.1-4.7
					C303.8,257.6,302,255.5,299.8,255.5z M299.8,264.6c-2.2,0-4-2-4-4.4c0-2.4,1.8-4.4,4-4.4c2.2,0,4,2,4,4.4
					C303.7,262.6,302,264.6,299.8,264.6z M299.8,256.9c-1.6,0-2.9,1.5-2.9,3.3c0,1.8,1.3,3.3,2.9,3.3c1.6,0,2.9-1.5,2.9-3.3
					C302.6,258.4,301.3,256.9,299.8,256.9z"/>
			</g>
		</g>
	</g>
	<g>
		<g>
			<path class="st0" d="M316.2,265.4c-2.6,0-4.6-2.4-4.6-5.2s2.1-5.2,4.6-5.2c2.6,0,4.6,2.4,4.6,5.2S318.8,265.4,316.2,265.4z
				 M316.2,256.3c-1.9,0-3.4,1.7-3.4,3.9s1.5,3.9,3.4,3.9c1.9,0,3.4-1.7,3.4-3.9S318.1,256.3,316.2,256.3z"/>
			<path class="st0" d="M316.2,266c-2.9,0-5.2-2.6-5.2-5.8c0-3.2,2.3-5.8,5.2-5.8c2.9,0,5.2,2.6,5.2,5.8
				C321.4,263.4,319.1,266,316.2,266z M316.2,255.5c-2.2,0-4.1,2.1-4.1,4.7c0,2.6,1.8,4.7,4.1,4.7c2.2,0,4.1-2.1,4.1-4.7
				C320.3,257.6,318.5,255.5,316.2,255.5z M316.2,264.6c-2.2,0-4-2-4-4.4c0-2.4,1.8-4.4,4-4.4c2.2,0,4,2,4,4.4
				C320.2,262.6,318.4,264.6,316.2,264.6z M316.2,256.9c-1.6,0-2.9,1.5-2.9,3.3c0,1.8,1.3,3.3,2.9,3.3c1.6,0,2.9-1.5,2.9-3.3
				C319.1,258.4,317.8,256.9,316.2,256.9z"/>
		</g>
	</g>
	<g>
		<g>
			<path class="st0" d="M332.7,265.4c-2.6,0-4.6-2.4-4.6-5.2s2.1-5.2,4.6-5.2c2.6,0,4.6,2.4,4.6,5.2S335.3,265.4,332.7,265.4z
				 M332.7,256.3c-1.9,0-3.4,1.7-3.4,3.9s1.5,3.9,3.4,3.9s3.4-1.7,3.4-3.9S334.6,256.3,332.7,256.3z"/>
			<path class="st0" d="M332.7,266c-2.9,0-5.2-2.6-5.2-5.8c0-3.2,2.3-5.8,5.2-5.8c2.9,0,5.2,2.6,5.2,5.8
				C337.9,263.4,335.6,266,332.7,266z M332.7,255.5c-2.2,0-4.1,2.1-4.1,4.7c0,2.6,1.8,4.7,4.1,4.7c2.2,0,4.1-2.1,4.1-4.7
				C336.8,257.6,335,255.5,332.7,255.5z M332.7,264.6c-2.2,0-4-2-4-4.4c0-2.4,1.8-4.4,4-4.4c2.2,0,4,2,4,4.4
				C336.7,262.6,334.9,264.6,332.7,264.6z M332.7,256.9c-1.6,0-2.9,1.5-2.9,3.3c0,1.8,1.3,3.3,2.9,3.3c1.6,0,2.9-1.5,2.9-3.3
				C335.6,258.4,334.3,256.9,332.7,256.9z"/>
		</g>
	</g>
	<g>
		<g>
			<g>
				<path class="st0" d="M288.6,314.2h-79.9c-4.8,0-8.7-4.4-8.7-9.9s3.9-9.9,8.7-9.9h79.9c4.8,0,8.7,4.4,8.7,9.9
					S293.4,314.2,288.6,314.2z M208.7,295.8c-4.1,0-7.5,3.8-7.5,8.5s3.4,8.5,7.5,8.5h79.9c4.1,0,7.5-3.8,7.5-8.5s-3.4-8.5-7.5-8.5
					H208.7z"/>
				<path class="st0" d="M288.6,314.7h-79.9c-5.1,0-9.3-4.7-9.3-10.4c0-5.7,4.2-10.4,9.3-10.4h79.9c5.1,0,9.3,4.7,9.3,10.4
					C297.9,310.1,293.7,314.7,288.6,314.7z M208.7,295c-4.5,0-8.1,4.2-8.1,9.3c0,5.1,3.7,9.3,8.1,9.3h79.9c4.5,0,8.1-4.2,8.1-9.3
					c0-5.1-3.7-9.3-8.1-9.3H208.7z M288.6,313.4h-79.9c-4.4,0-8.1-4.1-8.1-9c0-5,3.6-9,8.1-9h79.9c4.4,0,8.1,4.1,8.1,9
					C296.7,309.3,293,313.4,288.6,313.4z M208.7,296.4c-3.8,0-6.9,3.6-6.9,7.9c0,4.4,3.1,7.9,6.9,7.9h79.9c3.8,0,6.9-3.6,6.9-7.9
					c0-4.4-3.1-7.9-6.9-7.9H208.7z"/>
			</g>
		</g>
	</g>
	<g>
		<g>
			<g>
				<polygon class="st0" points="213.1,342.5 142.8,342.5 142.8,304.2 144,304.2 144,341.2 211.9,341.2 211.9,313.5 213.1,313.5 
									"/>
				<path class="st0" d="M213.6,343.1h-71.4v-39.5h2.3v37h66.7v-27.7h2.3V343.1z M143.4,342h69.1v-27.9h-0.1v27.7h-68.9v-37h-0.1
					V342z"/>
			</g>
		</g>
	</g>
	<g>
		<g>
			<g>
				<path class="st0" d="M213.1,390.4l-73.1-1.3l-0.7-43.2c0-1.4,0.4-2.5,1.1-3.3c1.2-1.3,3-1.3,3-1.3l0,1.4h0c0,0-1.3,0-2.2,0.9
					c-0.5,0.6-0.7,1.3-0.7,2.4l0.8,42.6l70.5,0.6v-47.2h1.2V390.4z"/>
				<path class="st0" d="M213.6,391.1l-0.7-0.1l-73.7,0.1l-0.6-45.2c0-1.5,0.4-2.8,1.3-3.7c1.2-1.4,2.9-1.5,3.4-1.5l0.6,0l0,0.6
					l0,1.9l-0.5,0c0,0-1.1,0-1.8,0.8c-0.4,0.4-0.6,1.1-0.6,2l0.3,42.6l70-0.1v-47h2.3V391.1z M139.9,389.1l72.6,0.6v-47.3h-0.1v47.3
					l-0.7-0.1L139.9,389.1v-43.2c0-1.2,0.3-2.1,0.9-2.7c0.6-0.7,1.5-1,2-1.1l0-0.2c-0.6,0.1-1.4,0.4-2,1.1c-0.6,0.7-1,1.7-1,3
					L139.9,389.1z"/>
			</g>
		</g>
	</g>
	<g>
		<g>
			<g>
				<polygon class="st0" points="226.6,390.4 212.5,390.4 212.5,389 225.4,389 225.4,313.5 226.6,313.5 				"/>
				<path class="st0" d="M227.2,390.9h-15.3v-2.5h13v-75.5h2.3V390.9z M213,389.8h13.1v-75.8H226v75.5h-13V389.8z"/>
			</g>
		</g>
	</g>
	<g>
		<g>
			<g>
				<path class="st0" d="M191,390.4h-27.2v-25.3H191V390.4z M165.1,389h24.8v-22.6h-24.8V389z"/>
				<path class="st0" d="M191.6,390.9h-28.3v-26.4h28.3V390.9z M164.4,389.8h26.1v-24.2h-26.1V389.8z M190.4,389.6h-25.9v-23.7h25.9
					V389.6z M165.6,388.5h23.6V367h-23.6V388.5z"/>
			</g>
		</g>
	</g>
	<g>
		<g>
			<g>
				<path class="st0" d="M189.6,366.5h-25.7c-2.6,0-4.7-2.4-4.7-5.3c0-2.9,2.1-5.3,4.7-5.3h25.7c2.6,0,4.7,2.4,4.7,5.3
					C194.2,364.1,192.1,366.5,189.6,366.5z M163.9,357.2c-1.9,0-3.5,1.8-3.5,3.9c0,2.2,1.6,3.9,3.5,3.9h25.7c1.9,0,3.5-1.8,3.5-3.9
					c0-2.2-1.6-3.9-3.5-3.9H163.9z"/>
				<path class="st0" d="M189.6,367h-25.7c-2.9,0-5.2-2.6-5.2-5.9s2.3-5.9,5.2-5.9h25.7c2.9,0,5.2,2.6,5.2,5.9S192.4,367,189.6,367z
					 M163.9,356.4c-2.3,0-4.1,2.1-4.1,4.7c0,2.6,1.8,4.7,4.1,4.7h25.7c2.3,0,4.1-2.1,4.1-4.7c0-2.6-1.8-4.7-4.1-4.7H163.9z
					 M189.6,365.7h-25.7c-2.2,0-4-2-4-4.5c0-2.5,1.8-4.5,4-4.5h25.7c2.2,0,4,2,4,4.5C193.6,363.6,191.8,365.7,189.6,365.7z
					 M163.9,357.8c-1.6,0-2.9,1.5-2.9,3.4c0,1.9,1.3,3.4,2.9,3.4h25.7c1.6,0,2.9-1.5,2.9-3.4c0-1.9-1.3-3.4-2.9-3.4H163.9z"/>
			</g>
		</g>
	</g>
	<g>
		<g>
			<path class="st0" d="M161.2,342.5h-6l0-17.6c0.4-1.6,1.8-2.7,3.2-2.5c1.3,0.1,2.4,1.1,2.7,2.5l0,0.2V342.5z M156.4,341.2h3.6v-16
				c-0.3-0.8-0.9-1.4-1.7-1.5c-0.8-0.1-1.7,0.5-2,1.5V341.2z"/>
			<path class="st0" d="M161.8,343.1h-7.2l0.1-18.3c0.5-1.9,2.1-3.1,3.8-2.9c1.5,0.1,2.8,1.3,3.2,2.9l0,0.3L161.8,343.1z M155.7,342
				h4.9l0-17c-0.3-1.1-1.2-2-2.2-2.1c-1.1,0-2.2,0.8-2.6,2.1L155.7,342z M160.6,341.7h-4.7l0-16.7c0.4-1.2,1.4-2,2.5-1.9
				c1,0.1,1.8,0.8,2.1,1.9l0,0.2V341.7z M157,340.6h2.5v-15.3c-0.2-0.6-0.7-1-1.2-1c0,0-0.1,0-0.1,0c-0.5,0-1,0.4-1.3,1V340.6z"/>
		</g>
	</g>
	<g>
		<g>
			<path class="st0" d="M171.1,342.5h-6l0-17.6c0.4-1.6,1.8-2.7,3.2-2.5c1.3,0.1,2.4,1.1,2.7,2.5l0,0.2V342.5z M166.3,341.2h3.6v-16
				c-0.3-0.8-0.9-1.4-1.7-1.5c-0.8-0.1-1.7,0.5-2,1.5V341.2z"/>
			<path class="st0" d="M171.6,343.1h-7.2l0.1-18.3c0.5-1.9,2.1-3.1,3.8-2.9c1.5,0.1,2.8,1.3,3.2,2.9l0,0.3L171.6,343.1z M165.6,342
				h4.9l0-17c-0.3-1.1-1.2-2-2.2-2.1c-1.2-0.1-2.2,0.8-2.6,2.1L165.6,342z M170.4,341.7h-4.7l0-16.7c0.4-1.2,1.5-2,2.5-1.9
				c1,0.1,1.8,0.8,2.1,1.9l0,0.2V341.7z M166.8,340.6h2.5v-15.3c-0.2-0.6-0.7-1-1.1-1c0,0-0.1,0-0.1,0c-0.5,0-1,0.4-1.3,1V340.6z"/>
		</g>
	</g>
	<g>
		<g>
			<path class="st0" d="M181,342.5h-6l0-17.6c0.4-1.6,1.8-2.7,3.2-2.5c1.3,0.1,2.4,1.1,2.7,2.5l0,0.2V342.5z M176.1,341.2h3.6v-16
				c-0.3-0.8-0.9-1.4-1.7-1.5c-0.8-0.1-1.7,0.5-2,1.5V341.2z"/>
			<path class="st0" d="M181.5,343.1h-7.2l0.1-18.3c0.5-1.9,2.1-3.1,3.8-2.9c1.5,0.1,2.8,1.3,3.2,2.9l0,0.3L181.5,343.1z M175.5,342
				h4.9l0-17c-0.3-1.1-1.2-2-2.2-2.1c-0.1,0-0.1,0-0.2,0c-1.1,0-2.1,0.8-2.4,2.1L175.5,342z M180.3,341.7h-4.7l0-16.7
				c0.4-1.2,1.5-1.9,2.5-1.9c1,0.1,1.8,0.8,2.1,1.9l0,0.2V341.7z M176.7,340.6h2.5v-15.3c-0.2-0.6-0.7-1-1.2-1
				c-0.6-0.1-1.1,0.4-1.4,1V340.6z"/>
		</g>
	</g>
	<g>
		<g>
			<g>
				<path class="st0" d="M190.8,342.5h-6l0-17.6c0.4-1.6,1.8-2.7,3.2-2.5c1.3,0.1,2.4,1.1,2.7,2.5l0,0.2V342.5z M186,341.2h3.6v-16
					c-0.3-0.8-0.9-1.4-1.7-1.5c-0.8-0.1-1.7,0.5-2,1.5V341.2z"/>
				<path class="st0" d="M191.4,343.1h-7.2l0.1-18.3c0.5-1.8,1.9-3,3.5-3c0.1,0,0.2,0,0.3,0c1.5,0.1,2.8,1.3,3.2,2.9l0,0.3
					L191.4,343.1z M185.3,342h4.9l0-17c-0.3-1.1-1.2-2-2.2-2.1c-0.1,0-0.1,0-0.2,0c-1.1,0-2.1,0.8-2.4,2.1L185.3,342z M190.2,341.7
					h-4.7l0-16.7c0.4-1.2,1.5-2,2.5-1.9c1,0.1,1.8,0.8,2.1,1.9l0,0.2V341.7z M186.5,340.6h2.5v-15.3c-0.2-0.6-0.7-1-1.1-1
					c0,0-0.1,0-0.1,0c-0.5,0-1,0.4-1.3,1V340.6z"/>
			</g>
		</g>
	</g>
	<g>
		<g>
			<g>
				<path class="st0" d="M200.7,342.5h-6l0-17.6c0.4-1.6,1.8-2.7,3.2-2.5c1.3,0.1,2.4,1.1,2.7,2.5l0,0.2V342.5z M195.8,341.2h3.6
					v-16c-0.3-0.8-0.9-1.4-1.7-1.5c-0.8-0.1-1.7,0.5-2,1.5V341.2z"/>
				<path class="st0" d="M201.2,343.1h-7.2l0-18.3c0.5-1.9,2.1-3.1,3.8-2.9c1.5,0.1,2.8,1.3,3.2,2.9l0,0.3L201.2,343.1z M195.2,342
					h4.9l0-17c-0.3-1.1-1.2-2-2.2-2.1c-0.1,0-0.1,0-0.2,0c-1.1,0-2.1,0.8-2.4,2.1L195.2,342z M200,341.7h-4.7l0-16.7
					c0.4-1.2,1.4-2,2.5-1.9c1,0.1,1.8,0.8,2.1,1.9l0,0.2V341.7z M196.4,340.6h2.5v-15.3c-0.2-0.6-0.7-1-1.1-1c0,0-0.1,0-0.1,0
					c-0.5,0-1,0.4-1.3,1V340.6z"/>
			</g>
		</g>
	</g>
	<g>
		<g>
			<g>
				<g>
					<polygon class="st0" points="357.2,342.6 286.9,342.6 286.9,313.6 288.1,313.6 288.1,341.2 356,341.2 356,304.2 357.2,304.2 
											"/>
					<path class="st0" d="M357.7,343.2h-71.4V313h2.3v27.7h66.7v-37h2.3V343.2z M287.5,342h69.1v-37.3h-0.1v37h-68.9v-27.7h-0.1V342
						z"/>
				</g>
			</g>
		</g>
		<g>
			<g>
				<g>
					<path class="st0" d="M360.7,390.4h-73.8v-48.5h1.2v47.2h71.4v-43.2c0-1-0.3-1.8-0.7-2.4c-0.8-0.9-2.1-0.9-2.2-0.9h0l0-1.4
						c0.1,0,1.8,0,3,1.3c0.7,0.8,1.1,1.9,1.1,3.3V390.4z"/>
					<path class="st0" d="M361.3,391h-74.9v-49.6h2.3v47.2h70.2v-42.6c0-0.9-0.2-1.5-0.6-2c-0.7-0.7-1.7-0.8-1.7-0.8l-0.6,0l0-2.3
						l0.4-0.1c0.3-0.1,2.3,0,3.6,1.5c0.8,0.9,1.3,2.2,1.3,3.7V391z M287.5,389.9h72.7v-44c0-1.3-0.3-2.2-1-3c-0.7-0.7-1.5-1-2-1.1
						l0,0.3c0.5,0.1,1.4,0.4,2,1.1c0.6,0.7,0.9,1.6,0.9,2.7v43.7h-72.5v-47.2h-0.1V389.9z"/>
				</g>
			</g>
		</g>
		<g>
			<g>
				<g>
					<polygon class="st0" points="287.5,390.4 273.3,390.4 273.3,313.6 274.6,313.6 274.6,389.1 287.5,389.1 					"/>
					<path class="st0" d="M288.1,391h-15.3v-78h2.3v75.5h13V391z M273.9,389.9H287v-0.2h-13v-75.5h-0.1V389.9z"/>
				</g>
			</g>
		</g>
		<g>
			<g>
				<g>
					<path class="st0" d="M336.2,390.4H309v-25.3h27.2V390.4z M310.2,389.1h24.8v-22.6h-24.8V389.1z"/>
					<path class="st0" d="M336.7,391h-28.3v-26.4h28.3V391z M309.5,389.9h26.1v-24.2h-26.1V389.9z M335.5,389.6h-25.9V366h25.9
						V389.6z M310.7,388.5h23.6v-21.4h-23.6V388.5z"/>
				</g>
			</g>
		</g>
		<g>
			<g>
				<g>
					<path class="st0" d="M336.1,366.5h-25.7c-2.6,0-4.7-2.4-4.7-5.3c0-2.9,2.1-5.3,4.7-5.3h25.7c2.6,0,4.7,2.4,4.7,5.3
						C340.8,364.1,338.7,366.5,336.1,366.5z M310.4,357.3c-1.9,0-3.5,1.8-3.5,3.9c0,2.2,1.6,3.9,3.5,3.9h25.7c1.9,0,3.5-1.8,3.5-3.9
						c0-2.2-1.6-3.9-3.5-3.9H310.4z"/>
					<path class="st0" d="M336.1,367.1h-25.7c-2.9,0-5.2-2.6-5.2-5.9c0-3.2,2.3-5.9,5.2-5.9h25.7c2.9,0,5.2,2.6,5.2,5.9
						C341.3,364.5,339,367.1,336.1,367.1z M310.4,356.5c-2.3,0-4.1,2.1-4.1,4.7c0,2.6,1.8,4.7,4.1,4.7h25.7c2.3,0,4.1-2.1,4.1-4.7
						c0-2.6-1.8-4.7-4.1-4.7H310.4z M336.1,365.7h-25.7c-2.2,0-4-2-4-4.5c0-2.5,1.8-4.5,4-4.5h25.7c2.2,0,4,2,4,4.5
						C340.1,363.7,338.3,365.7,336.1,365.7z M310.4,357.9c-1.6,0-2.9,1.5-2.9,3.4c0,1.9,1.3,3.4,2.9,3.4h25.7c1.6,0,2.9-1.5,2.9-3.4
						c0-1.9-1.3-3.4-2.9-3.4H310.4z"/>
				</g>
			</g>
		</g>
		<g>
			<g>
				<g>
					<path class="st0" d="M344.8,342.6h-6l0-17.6c0.4-1.4,1.5-2.4,2.7-2.5c1.5-0.1,2.8,0.9,3.2,2.5l0,0.2V342.6z M340,341.2h3.6
						v-15.9c-0.3-0.9-1.1-1.5-2-1.5c-0.7,0.1-1.4,0.7-1.7,1.5V341.2z"/>
					<path class="st0" d="M345.4,343.2h-7.2l0.1-18.3c0.4-1.6,1.7-2.8,3.2-2.9c1.7-0.2,3.3,1.1,3.8,2.9l0,0.3L345.4,343.2z
						 M339.3,342h4.9l0-17c-0.4-1.3-1.5-2.2-2.6-2.1c-1,0.1-1.9,0.9-2.2,2.1L339.3,342z M344.2,341.8h-4.7l0-16.7
						c0.3-1,1.2-1.8,2.1-1.9c1.1,0,2.2,0.7,2.5,1.9l0,0.2V341.8z M340.5,340.7h2.5v-15.3c-0.2-0.6-0.7-1.1-1.4-1
						c-0.5,0-0.9,0.4-1.1,1V340.7z"/>
				</g>
			</g>
		</g>
		<g>
			<g>
				<g>
					<path class="st0" d="M334.9,342.6h-6l0-17.6c0.4-1.4,1.5-2.4,2.7-2.5c1.4-0.2,2.8,0.9,3.2,2.5l0,0.2V342.6z M330.1,341.2h3.6
						v-15.9c-0.3-0.9-1.1-1.5-2-1.5c-0.7,0.1-1.4,0.7-1.7,1.5V341.2z"/>
					<path class="st0" d="M335.5,343.2h-7.2l0.1-18.3c0.4-1.6,1.7-2.8,3.2-2.9c0.1,0,0.2,0,0.3,0c1.6,0,3,1.2,3.5,3l0,0.3
						L335.5,343.2z M329.5,342h4.9l0-17c-0.4-1.3-1.6-2.1-2.6-2.1c-1,0.1-1.9,0.9-2.2,2.1L329.5,342z M334.3,341.8h-4.7l0-16.7
						c0.3-1.1,1.2-1.8,2.1-1.9c1.1,0,2.2,0.7,2.5,1.9l0,0.2V341.8z M330.7,340.7h2.5v-15.3c-0.2-0.6-0.7-1-1.3-1l-0.1,0
						c-0.5,0-0.9,0.4-1.1,1V340.7z"/>
				</g>
			</g>
		</g>
		<g>
			<g>
				<g>
					<path class="st0" d="M325.1,342.6h-6l0-17.6c0.4-1.4,1.5-2.4,2.7-2.5c1.4-0.2,2.8,0.9,3.2,2.5l0,0.2V342.6z M320.3,341.2h3.6
						v-15.9c-0.3-0.9-1.1-1.5-2-1.5c-0.7,0.1-1.4,0.7-1.7,1.5V341.2z"/>
					<path class="st0" d="M325.6,343.2h-7.2l0-18.3c0.4-1.6,1.7-2.8,3.2-2.9c1.6-0.2,3.3,1,3.8,2.9l0,0.3L325.6,343.2z M319.6,342
						h4.9l0-17c-0.4-1.3-1.6-2.2-2.6-2.1c-1,0.1-1.9,0.9-2.2,2.1L319.6,342z M324.4,341.8h-4.7l0-16.7c0.3-1,1.2-1.8,2.1-1.9
						c1.2,0,2.2,0.7,2.5,1.9l0,0.2V341.8z M320.8,340.7h2.5v-15.3c-0.2-0.6-0.7-1-1.3-1l-0.1,0c-0.5,0-0.9,0.4-1.1,1V340.7z"/>
				</g>
			</g>
		</g>
		<g>
			<g>
				<g>
					<path class="st0" d="M315.2,342.6h-6l0-17.6c0.4-1.4,1.5-2.4,2.7-2.5c1.4-0.1,2.8,0.9,3.2,2.5l0,0.2V342.6z M310.4,341.2h3.6
						v-15.9c-0.3-0.9-1.1-1.5-2-1.5c-0.7,0.1-1.4,0.7-1.7,1.5V341.2z"/>
					<path class="st0" d="M315.8,343.2h-7.2l0-18.3c0.4-1.6,1.7-2.8,3.2-2.9c1.7-0.1,3.3,1.1,3.8,2.9l0,0.3L315.8,343.2z M309.7,342
						h4.9l0-17c-0.3-1.2-1.3-2.1-2.4-2.1c-0.1,0-0.1,0-0.2,0c-1,0.1-1.9,0.9-2.2,2.1L309.7,342z M314.6,341.8h-4.7l0-16.7
						c0.3-1.1,1.2-1.8,2.1-1.9c0,0,0.1,0,0.2,0c1.1,0,2,0.8,2.4,1.9l0,0.2V341.8z M310.9,340.7h2.5v-15.3c-0.2-0.6-0.7-1-1.3-1
						l-0.1,0c-0.5,0-0.9,0.4-1.1,1V340.7z"/>
				</g>
			</g>
		</g>
		<g>
			<g>
				<g>
					<path class="st0" d="M305.4,342.6h-6l0-17.6c0.4-1.4,1.5-2.4,2.7-2.5c1.4-0.2,2.8,0.9,3.2,2.5l0,0.2V342.6z M300.5,341.2h3.6
						v-15.9c-0.3-0.9-1.1-1.5-2-1.5c-0.7,0.1-1.4,0.7-1.7,1.5V341.2z"/>
					<path class="st0" d="M305.9,343.2h-7.2l0-18.3c0.4-1.6,1.7-2.8,3.2-2.9c1.6-0.2,3.3,1.1,3.8,2.9l0,0.3L305.9,343.2z M299.9,342
						h4.9l0-17c-0.3-1.2-1.4-2.1-2.4-2.1c-0.1,0-0.1,0-0.2,0c-1,0.1-1.9,0.9-2.2,2.1L299.9,342z M304.7,341.8H300l0-16.7
						c0.3-1,1.2-1.8,2.1-1.9c0,0,0.1,0,0.2,0c1.1,0,2,0.8,2.4,1.9l0,0.2V341.8z M301.1,340.7h2.5v-15.3c-0.2-0.6-0.7-1-1.3-1l-0.1,0
						c-0.5,0-0.9,0.4-1.1,1V340.7z"/>
				</g>
			</g>
		</g>
	</g>
	<g>
		<g>
			<g>
				<rect x="226" y="389" class="st0" width="47.9" height="1.4"/>
				<path class="st0" d="M274.5,390.9h-49v-2.5h49V390.9z M226.6,389.8h46.8v-0.3h-46.8V389.8z"/>
			</g>
		</g>
	</g>
	<g>
		<g>
			<rect x="229.1" y="138.3" class="st0" width="41.5" height="1.4"/>
			<path class="st0" d="M271.2,140.3h-42.6v-2.5h42.6V140.3z M229.7,139.2h40.4v-0.2h-40.4V139.2z"/>
		</g>
	</g>
	<g>
		<g>
			<rect x="217.9" y="144" class="st0" width="63" height="1.4"/>
			<path class="st0" d="M281.5,145.9h-64.1v-2.5h64.1V145.9z M218.5,144.8h61.9v-0.3h-61.9V144.8z"/>
		</g>
	</g>
	<g>
		<g>
			<g>
				<g>
					<path class="st0" d="M283.7,135h-67.6v-18.5h67.6V135z M217.1,133.6h65.5v-15.7h-65.5V133.6z"/>
					<path class="st0" d="M284.3,135.5h-68.8V116h68.8V135.5z M216.6,134.4h66.5v-0.3h-66.5V134.4z M217.7,133h64.4v-14.6h-64.4V133
						z M216.6,117.3h66.5v-0.3h-66.5V117.3z"/>
				</g>
			</g>
		</g>
		<g>
			<g>
				<g>
					<path class="st0" d="M217.3,135.1h-6v-20.2c0-1.4,0.3-2.8,0.9-3.9c1.1-2.1,3.2-2.1,4.3,0c0.6,1,0.9,2.4,0.9,3.9V135.1z
						 M212.5,133.7h3.6v-18.8c0-0.9-0.2-1.7-0.5-2.3c-0.7-1.3-1.9-1.3-2.6,0c-0.3,0.6-0.5,1.5-0.5,2.3V133.7z"/>
					<path class="st0" d="M217.8,135.7h-7.2v-20.7c0-1.5,0.3-3,0.9-4.1c0.6-1.2,1.6-1.9,2.6-1.9c1,0,2,0.7,2.6,1.9
						c0.6,1.1,1,2.6,0.9,4.1V135.7z M211.8,134.5h4.9v-19.6c0-1.4-0.3-2.6-0.8-3.6c-0.9-1.6-2.4-1.6-3.3,0c-0.5,1-0.8,2.2-0.8,3.6
						V134.5z M216.6,134.3h-4.7v-19.4c0-1,0.2-1.9,0.6-2.6c0.4-0.8,1.1-1.2,1.8-1.2h0c0.7,0,1.3,0.4,1.8,1.2
						c0.4,0.7,0.6,1.7,0.6,2.6V134.3z M213,133.2h2.5v-18.3c0-0.8-0.1-1.5-0.4-2.1c-0.2-0.4-0.5-0.7-0.8-0.7h0
						c-0.3,0-0.6,0.2-0.8,0.7c-0.3,0.5-0.5,1.3-0.5,2.1V133.2z"/>
				</g>
			</g>
		</g>
		<g>
			<g>
				<g>
					<path class="st0" d="M288.5,135.1h-6v-20.2c0-1.4,0.3-2.8,0.9-3.9c1.1-2.1,3.2-2.1,4.3,0c0.6,1,0.9,2.4,0.9,3.9V135.1z
						 M283.7,133.7h3.6v-18.8c0-0.9-0.2-1.7-0.5-2.3c-0.7-1.3-1.9-1.3-2.6,0c-0.3,0.6-0.5,1.5-0.5,2.3V133.7z"/>
					<path class="st0" d="M289.1,135.7h-7.2v-20.7c0-1.5,0.3-3,0.9-4.1c0.6-1.2,1.6-1.9,2.6-1.9c1,0,2,0.7,2.6,1.9
						c0.6,1.1,1,2.6,0.9,4.1V135.7z M283.1,134.5h4.9v-19.6c0-1.4-0.3-2.6-0.8-3.6c-0.9-1.6-2.4-1.6-3.3,0c-0.5,1-0.8,2.2-0.8,3.6
						V134.5z M287.9,134.3h-4.7v-19.4c0-0.9,0.2-1.9,0.6-2.6c0.4-0.8,1.1-1.2,1.8-1.2h0c0.7,0,1.3,0.5,1.8,1.2
						c0.4,0.7,0.6,1.6,0.6,2.6V134.3z M284.3,133.2h2.5v-18.3c0-0.8-0.2-1.5-0.5-2.1c-0.2-0.4-0.5-0.7-0.8-0.7h0
						c-0.3,0-0.6,0.2-0.8,0.7c-0.3,0.6-0.5,1.3-0.4,2V133.2z"/>
				</g>
			</g>
		</g>
		<g>
			<g>
				<path class="st0" d="M249.9,134.6c-4.3,0-7.8-4-7.8-8.9c0-4.9,3.5-8.9,7.8-8.9s7.8,4,7.8,8.9
					C257.7,130.6,254.2,134.6,249.9,134.6z M249.9,118.2c-3.7,0-6.6,3.4-6.6,7.5c0,4.1,3,7.5,6.6,7.5c3.7,0,6.6-3.4,6.6-7.5
					C256.5,121.6,253.6,118.2,249.9,118.2z"/>
				<path class="st0" d="M249.9,135.2c-4.6,0-8.4-4.2-8.4-9.4s3.8-9.4,8.4-9.4s8.4,4.2,8.4,9.4S254.5,135.2,249.9,135.2z
					 M249.9,117.4c-4,0-7.3,3.7-7.3,8.3c0,4.6,3.3,8.3,7.3,8.3c4,0,7.3-3.7,7.3-8.3C257.2,121.2,253.9,117.4,249.9,117.4z
					 M249.9,133.8c-4,0-7.2-3.6-7.2-8.1c0-4.4,3.2-8.1,7.2-8.1s7.2,3.6,7.2,8.1C257.1,130.2,253.9,133.8,249.9,133.8z M249.9,118.8
					c-3.4,0-6.1,3.1-6.1,7c0,3.8,2.7,7,6.1,7s6.1-3.1,6.1-7C256,121.9,253.2,118.8,249.9,118.8z"/>
			</g>
		</g>
	</g>
</g>
</svg>
