<?xml version="1.0" encoding="utf-8"?>
<!-- Generator: Adobe Illustrator 19.1.0, SVG Export Plug-In . SVG Version: 6.00 Build 0)  -->
<svg version="1.1" id="Layer_1" xmlns="http://www.w3.org/2000/svg" xmlns:xlink="http://www.w3.org/1999/xlink" x="0px" y="0px"
	 viewBox="0 0 500 500" style="enable-background:new 0 0 500 500;" xml:space="preserve">
<style type="text/css">
	.st0{fill:#F8B017;}
	.st1{fill:none;}
	.st2{fill:#F5AF19;}
	.st3{fill:#E5D7C8;}
	.st4{fill:#F4AE19;}
	.st5{fill:#F7AF17;}
	.st6{fill:#0FA2D4;}
</style>
<g>
	<path class="st0" d="M326.2,263.6c-7.7-7.8-20-12.4-27.5-14.7c0.5-4.7,1-9.5,1.5-14.2l1.9-17.4c0.1-0.5-0.1-0.9-0.5-1.2
		c-0.1-0.1-0.2,0-0.3,0c1.9-1.3,3.9-2.6,5.7-4.1c3.4-2.9,5.3-6.4,5.3-10c0-3.7-1.7-7.2-5.1-10.2c-3.6-3.2-8-5.9-12.5-7.9
		c-16.6-7.2-34.2-8.1-47.6-8c-13.6,0.1-25.7,1.7-37.1,5.1c-7.8,2.3-16.7,5.4-23.5,12.6c-5.5,5.9-5.6,12.7-0.2,18.1
		c2.1,2.1,4.6,3.9,7.2,5.6c-0.1,0-0.2,0-0.3,0c-0.4,0.3-0.5,0.7-0.5,1.2l4.2,32.2c-7.4,1.1-21,7.9-26.5,13.5
		c-4.1,4.2-6.1,8.6-5.9,12.9c0.2,4.2,2.4,8,6.5,11.5c4.3,3.6,9.4,6.7,14.8,9.2c-0.7-0.2-1.5-0.4-2.2-0.7l-1.9-0.7
		c-0.4-0.1-0.9-0.1-1.3,0.2c-0.4,0.3-0.5,0.7-0.5,1.2l0.2,2c0.2,1.4,0.4,2.8,0.6,4.2l0.1,0.5c0.5,3.3,0.9,6.4,0.8,9.4
		c-0.5,10.6,4.6,17.6,15.5,21.5l1.6,0.6c1.6,0.6,3.4,1.2,5.2,1.7c6.7,1.8,13.6,3.2,20.5,4.1c7.7,1,15.5,1.5,23.3,1.4
		c11.4-0.1,23-1.4,34.6-3.8c7.9-1.7,15.5-5,22.7-8.2l1-0.4c3.1-1.4,6.8-5,7.4-8.5c1-5.6,1.5-11.3,1.9-17.2c0.2-2.2,0.3-4.4,0.5-6.6
		l0.2-2c0-0.5-0.2-0.9-0.5-1.2c-0.4-0.3-0.8-0.3-1.3-0.2l-1.8,0.7c-0.1,0-0.3,0.1-0.4,0.1c4.9-2.4,10-5.5,14.2-10.1
		C333.1,278.6,333,270.5,326.2,263.6z M185.9,303.3c42,13.8,82.9,13.4,124.8-1.2l-0.2,2.6c-0.4,5.5-0.9,11.1-1.9,16.6
		c-0.3,1.4-2.3,3.8-4.5,4.8l-1,0.4c-7,3.1-14.3,6.4-21.7,7.9c-26.1,5.5-51.7,4.9-76.1-1.6c-1.6-0.4-3.2-1-4.8-1.6l-1.7-0.6
		c-8.9-3.2-12.5-8.1-12.1-16.5c0.2-3.5-0.4-7-0.9-10.4L185.9,303.3z M197.3,253.8l0.2,1.2c1.3,9.6,2.9,24,4.3,35.6l0.9,7.3
		c-7.7-1.9-16.9-5-24.4-11.7c-3.8-3.4-5.8-7.1-5.8-10.9c0-3.6,1.9-7.1,5.3-10.2c3.1-2.7,7-4.9,10.8-6.9c1.6-0.9,3.2-1.7,4.7-2.7
		c0.6-0.4,2.5-1,3.9-1.5L197.3,253.8z M317.8,263.5c3.6,3,5.6,6.5,5.7,10.1c0.1,3.8-1.9,7.7-5.7,11.3c-4.7,4.4-10.8,7.8-18.5,10.3
		c-2,0.7-4.1,1.2-6.1,1.8c0.4-1.7,0.7-3.4,0.8-4.3c0.7-7.8,1.6-15.6,2.5-23.3c0.4-3.8,0.9-7.6,1.3-11.3c0.2-1.7,0.4-3.5,0.6-5.2
		c1.5,0.6,3.3,1.3,3.9,1.6c1.6,0.9,3.2,1.8,4.9,2.6C310.7,258.9,314.6,260.9,317.8,263.5z M288.8,292.1c-0.4,3.9-0.9,5.6-1.3,6.4
		c-25.3,6.2-51.9,6.4-79.2,0.6c-0.3-1-0.6-2.5-0.7-4.9c0-0.6-0.1-1.1-0.1-1.6c-1.5-12.8-3.2-25.7-4.9-38.4l-4-30.4
		c32.7,11,65.5,10.7,97.7-1l-0.8,7.3c-1,9-1.9,18.1-2.9,27.2c-0.4,3.8-0.8,7.6-1.3,11.4C290.4,276.4,289.5,284.3,288.8,292.1z
		 M268.5,182.2c7.9,1,16.1,3,24.1,6.4c4.1,1.8,7.9,4.2,11.2,7c2.2,2,3.4,4.1,3.4,6.3c0,2.1-1.2,4.2-3.5,6.1
		c-4.1,3.4-8.7,6.2-13.5,8.1c-15.3,6.1-32.3,8.3-53.4,7.1c-10.4-0.6-24-2-36.5-8.1c-4-1.9-7.6-4.4-10.4-7.3c-3.4-3.5-3.3-7,0.3-11
		c5.9-6.3,14-9.1,21.2-11.2c10.6-3.1,21.9-4.7,34.5-4.8l0,0l1.2,0C253.4,181,260.7,181.2,268.5,182.2z"/>
</g>
</svg>
