<?xml version="1.0" encoding="UTF-8" standalone="no"?>
<svg
   xmlns:dc="http://purl.org/dc/elements/1.1/"
   xmlns:cc="http://creativecommons.org/ns#"
   xmlns:rdf="http://www.w3.org/1999/02/22-rdf-syntax-ns#"
   xmlns:svg="http://www.w3.org/2000/svg"
   xmlns="http://www.w3.org/2000/svg"
   xmlns:sodipodi="http://sodipodi.sourceforge.net/DTD/sodipodi-0.dtd"
   xmlns:inkscape="http://www.inkscape.org/namespaces/inkscape"
   class="logo-typography"
   height="17vw"
   viewBox="0 0 2327.5 741"
   id="svg2"
   version="1.1"
   inkscape:version="0.48.5 r10040"
   width="100%"
   sodipodi:docname="typography.svg"
   inkscape:export-filename="/home/vijaykumar/projects/inpycon2019-tasks/art/typography-white.png"
   inkscape:export-xdpi="63.389999"
   inkscape:export-ydpi="63.389999">
  <metadata
     id="metadata32">
    <rdf:RDF>
      <cc:Work
         rdf:about="">
        <dc:format>image/svg+xml</dc:format>
        <dc:type
           rdf:resource="http://purl.org/dc/dcmitype/StillImage" />
        <dc:title></dc:title>
      </cc:Work>
    </rdf:RDF>
  </metadata>
  <sodipodi:namedview
     pagecolor="#ffffff"
     bordercolor="#666666"
     borderopacity="1"
     objecttolerance="10"
     gridtolerance="10"
     guidetolerance="10"
     inkscape:pageopacity="0"
     inkscape:pageshadow="2"
     inkscape:window-width="1366"
     inkscape:window-height="719"
     id="namedview30"
     showgrid="false"
     inkscape:zoom="0.39616208"
     inkscape:cx="728.32216"
     inkscape:cy="370.5"
     inkscape:window-x="0"
     inkscape:window-y="26"
     inkscape:window-maximized="1"
     inkscape:current-layer="svg2" />
  <defs
     id="defs4">
    <style
       id="style6">@font-face{font-family:&quot;Luxa&quot;;src:url(&quot;/2019/assets/fonts/luxa.ttf&quot;) format(&quot;truetype&quot;)}</style>
  </defs>
  <style
     id="style8">.st0{fill:#18a5d1}.st2{fill:#f3b20c}.st3{font-family:'Luxa'}.st4{font-size:335px}</style>
  <path
     class="st0"
     d="M1483.7 536.5c-12 .3-23.2 6.3-30.2 16.1-5.9 6.5-10.5 11.6-20 11.6s-14.1-5.1-20-11.6c-6.8-10.1-18.1-16.1-30.2-16.1-12.1 0-23.4 6-30.2 16.1-5.9 6.5-10.5 11.6-19.9 11.6-9.5 0-14.1-5.1-20-11.6-6.8-10.1-18.1-16.1-30.2-16.1-12.1 0-23.4 6-30.2 16.1-5.9 6.5-10.5 11.6-19.9 11.6-9.5 0-14.1-5.1-19.9-11.6-7-9.8-18.2-15.8-30.2-16.1-12 .3-23.2 6.3-30.2 16.1-5.9 6.5-10.5 11.6-19.9 11.6-9.5 0-14.1-5.1-19.9-11.6-7-9.8-18.2-15.8-30.2-16.1-3.8 0-6.9 3.1-6.9 6.9s3.1 6.9 6.9 6.9c9.5 0 14.1 5.1 19.9 11.6 7 9.8 18.2 15.8 30.2 16.1 12-.3 23.2-6.3 30.2-16.1 5.9-6.5 10.5-11.6 19.9-11.6 9.5 0 14.1 5.1 19.9 11.6 7 9.8 18.2 15.8 30.2 16.1 12-.3 23.2-6.3 30.2-16.1 5.9-6.5 10.5-11.6 19.9-11.6 9.5 0 14.1 5.1 20 11.6 6.8 10.1 18.1 16.1 30.2 16.1 12.1 0 23.4-6 30.2-16.1 5.9-6.5 10.5-11.6 19.9-11.6 9.5 0 14.1 5.1 20 11.6 6.8 10.1 18.1 16.1 30.2 16.1 12.1 0 23.5-6 30.2-16.1 5.9-6.5 10.5-11.6 20-11.6 3.8 0 6.9-3.1 6.9-6.9s-3.1-6.9-6.9-6.9z"
     id="path14" />
  <path
     d="M1082.5 508.8c9.5 0 14.1 5.1 19.9 11.6 7 9.8 18.2 15.8 30.2 16.1 12-.3 23.2-6.3 30.2-16.1 5.9-6.5 10.5-11.6 19.9-11.6 9.5 0 14.1 5.1 19.9 11.6 7 9.8 18.2 15.8 30.2 16.1 12-.3 23.2-6.3 30.2-16.1 5.9-6.5 10.5-11.6 19.9-11.6 9.5 0 14.1 5.1 20 11.6 6.8 10.1 18.1 16.1 30.2 16.1 12.1 0 23.4-6 30.2-16.1 5.9-6.5 10.5-11.6 19.9-11.6 9.5 0 14.1 5.1 20 11.6 6.8 10.1 18.1 16.1 30.2 16.1 12.1 0 23.5-6 30.2-16.1 5.9-6.5 10.5-11.6 20-11.6 3.8 0 6.9-3.1 6.9-6.9s-3.1-6.9-6.9-6.9c-12 .3-23.2 6.3-30.2 16.1-5.9 6.5-10.5 11.6-20 11.6s-14.1-5.1-20-11.6c-6.8-10.1-18.1-16.1-30.2-16.1-12.1 0-23.4 6-30.2 16.1-1.1 1.2-2.2 2.4-3.2 3.5l-24.2-164.8h19.7c3.8 0 6.9-3.1 6.9-6.9v-62.3c0-3.8-3.1-6.9-6.9-6.9s-6.9 3.1-6.9 6.9v6.9h-13.8V246h13.8c3.8 0 6.9-3.1 6.9-6.9 0-31.7-23.9-58.3-55.3-61.8V170c0-3.8-3.1-6.9-6.9-6.9s-6.9 3.1-6.9 6.9v7.3c-31.5 3.5-55.3 30.2-55.3 61.8 0 3.8 3.1 6.9 6.9 6.9h13.8v41.5h-13.8v-6.9c0-3.8-3.1-6.9-6.9-6.9s-6.9 3.1-6.9 6.9v62.3c0 3.8 3.1 6.9 6.9 6.9h19.7l-24.2 164.9c-1.1-1.1-2.2-2.3-3.3-3.6-7-9.8-18.2-15.8-30.2-16.1-12 .3-23.2 6.3-30.2 16.1-5.9 6.5-10.5 11.6-19.9 11.6-9.5 0-14.1-5.1-19.9-11.6-7-9.8-18.2-15.8-30.2-16.1-3.8 0-6.9 3.1-6.9 6.9s2.9 6.9 6.7 6.9zm243.5-62.2h-85.7l4.1-27.7h77.5l4.1 27.7zm2 13.8l2 13.8h-93.8l2-13.8h89.8zm-8.1-55.3h-73.5l2-13.8h69.4l2.1 13.8zm-6.6 106c-6.8-10.1-18.1-16.1-30.2-16.1-12.1 0-23.4 6-30.2 16.1-5.9 6.5-10.5 11.6-19.9 11.6-1.3 0-2.5-.1-3.8-.3l5-34.3h97.9l5 34.2c-1.3.2-2.6.3-3.9.4-9.5 0-14.1-5.1-19.9-11.6zm-30.2-320.4c24.1 0 44.5 17.7 47.9 41.5h-95.9c3.6-23.8 24-41.5 48-41.5zm-27.7 55.3h55.3v41.5H1290v-6.9c0-3.8-3.1-6.9-6.9-6.9s-6.9 3.1-6.9 6.9v6.9h-20.8V246zm-27.6 55.3h110.7v34.6h-110.7v-34.6zm83.9 48.4l4.1 27.7h-65.4l4.1-27.7h57.2z"
     fill="#444"
     id="path16"
     style="fill:#ffffff;fill-opacity:1" />
  <path
     class="st2"
     d="M1231.7 304.8h103v27.3h-103z"
     id="path18" />
  <path
     class="st0"
     d="M1483.7 495c-12 .3-23.2 6.3-30.2 16.1-5.9 6.5-10.5 11.6-20 11.6s-14.1-5.1-20-11.6c-6.8-10.1-18.1-16.1-30.2-16.1-12.1 0-23.4 6-30.2 16.1-5.9 6.5-10.5 11.6-19.9 11.6-9.5 0-14.1-5.1-20-11.6-6.8-10.1-18.1-16.1-30.2-16.1-12.1 0-23.4 6-30.2 16.1-5.9 6.5-10.5 11.6-19.9 11.6-9.5 0-14.1-5.1-19.9-11.6-7-9.8-18.2-15.8-30.2-16.1-12 .3-23.2 6.3-30.2 16.1-5.9 6.5-10.5 11.6-19.9 11.6-9.5 0-14.1-5.1-19.9-11.6-7-9.8-18.2-15.8-30.2-16.1-3.8 0-6.9 3.1-6.9 6.9s3.1 6.9 6.9 6.9c9.5 0 14.1 5.1 19.9 11.6 7 9.8 18.2 15.8 30.2 16.1 12-.3 23.2-6.3 30.2-16.1 5.9-6.5 10.5-11.6 19.9-11.6 9.5 0 14.1 5.1 19.9 11.6 7 9.8 18.2 15.8 30.2 16.1 12-.3 23.2-6.3 30.2-16.1 5.9-6.5 10.5-11.6 19.9-11.6 9.5 0 14.1 5.1 20 11.6 6.8 10.1 18.1 16.1 30.2 16.1 12.1 0 23.4-6 30.2-16.1 5.9-6.5 10.5-11.6 19.9-11.6 9.5 0 14.1 5.1 20 11.6 6.8 10.1 18.1 16.1 30.2 16.1 12.1 0 23.5-6 30.2-16.1 5.9-6.5 10.5-11.6 20-11.6 3.8 0 6.9-3.1 6.9-6.9s-3.1-6.9-6.9-6.9z"
     id="path20" />
  <text
     transform="translate(1422.965 488.08)"
     class="st2 st3 st4"
     id="text22">INDIA</text>
  <text
     transform="translate(1445.043 235.76)"
     class="st0 st3"
     font-size="123.1"
     id="text24">Chennai, 2019</text>
  <path
     opacity=".6"
     fill="#f3b20c"
     d="M1213.8 222.2l3.1 10.2-213.6 102.9-23.6-66.7z"
     id="path26" />
  <text
     transform="translate(43.694 487.33)"
     class="st0 st3 st4"
     id="text28">PYCON</text>
</svg>
