<?xml version="1.0" encoding="utf-8"?>
<!-- Generator: Adobe Illustrator 19.1.0, SVG Export Plug-In . SVG Version: 6.00 Build 0)  -->
<svg version="1.1" id="Layer_1" xmlns="http://www.w3.org/2000/svg" xmlns:xlink="http://www.w3.org/1999/xlink" x="0px" y="0px"
	 viewBox="0 0 500 500" style="enable-background:new 0 0 500 500;" xml:space="preserve">
<style type="text/css">
	.st0{fill:#F8B017;}
	.st1{fill:none;}
	.st2{fill:#F5AF19;}
	.st3{fill:#E5D7C8;}
	.st4{fill:#F4AE19;}
	.st5{fill:#F7AF17;}
	.st6{fill:#0FA2D4;}
</style>
<g>
	<g>
		<g>
			<g>
				<path class="st2" d="M325,381.2c-0.1,4.3-3.3,7.2-7.8,7.1c-4.3-0.2-7.2-3.4-7-7.8c0.2-4.1,3.3-7,7.5-7
					C321.6,373.5,325.1,377.2,325,381.2z"/>
			</g>
		</g>
		<g>
			<g>
				<path class="st2" d="M317.6,389.3c-0.1,0-0.3,0-0.4,0c-2.4-0.1-4.5-1-5.9-2.6c-1.5-1.6-2.2-3.8-2.1-6.3c0.2-4.6,3.8-8,8.4-8
					c0,0,0.1,0,0.1,0c2.1,0,4.3,1,5.9,2.6c1.6,1.7,2.5,3.9,2.5,6.1c-0.1,2.3-1,4.4-2.5,5.9C322,388.5,319.9,389.3,317.6,389.3z
					 M317.6,374.5c-3.6,0-6.2,2.5-6.4,6c-0.1,1.9,0.5,3.6,1.6,4.8c1.1,1.2,2.6,1.9,4.5,1.9c1.9,0.1,3.6-0.5,4.9-1.6
					c1.2-1.1,1.8-2.6,1.9-4.4l0,0c0-1.7-0.6-3.4-1.9-4.7C320.8,375.3,319.2,374.5,317.6,374.5L317.6,374.5z"/>
			</g>
		</g>
	</g>
	<g>
		<g>
			<g>
				<g>
					<path class="st2" d="M283.6,216.5c-0.3-1.7-0.5-3.1-0.8-4.5c-0.4-2.2-0.8-4.2-1-6.1c-0.3-2.3-1.7-4.2-3.6-5
						c-1.9-0.8-4-0.4-5.8,0.9l0,0c-1.5,1.1-2.9,2.4-4.6,4.3c-2,2.3-2.7,8.8-1.8,12.6c0.4,1.8,1.1,3,2.1,3.4c3.4,1.6,6.5,2.4,9,2.4
						c0.7,0,1.4-0.1,2-0.2c1.9-0.4,2.9-3.1,3.7-5.4c0.3-0.7,0.5-1.4,0.7-1.8C283.6,216.9,283.6,216.7,283.6,216.5z M280.9,218.2
						c-0.5,1.3-1.4,3.9-2.2,4.1c-2.4,0.5-5.8-0.2-9.8-2.1c-0.1,0-0.6-0.3-0.9-2c-0.8-3.5-0.1-9.2,1.4-10.8c1.6-1.8,2.9-3,4.3-4.1
						c1.2-0.9,2.6-1.1,3.7-0.6c1.3,0.5,2.1,1.8,2.3,3.4c0.3,2,0.6,3.9,1,6.2c0.2,1.3,0.5,2.6,0.7,4.2
						C281.3,217,281.1,217.6,280.9,218.2z"/>
				</g>
				<g>
					<path class="st2" d="M227.2,202.1c-1.6-1.2-4.1-2.1-6-1.4c-1.2,0.4-2,1.4-2.3,2.8v0c-0.3,1.3-0.6,2.5-0.9,3.8
						c-1.3,4.6-2.6,9.5,0.3,14.4c0.6,1.1,2.1,2.9,3.8,3c0.5,0,1,0.1,1.5,0.1c2.9,0,5.1-0.7,6.7-2.2c2-1.9,3-4.8,3-9
						C234.6,208.6,231,205,227.2,202.1z M231.3,213.2c0,0.1,0,0.2,0,0.3c0,3.7-0.8,6.2-2.3,7.6c-1.4,1.3-3.6,1.9-6.6,1.6
						c-0.6-0.1-1.6-1-2.2-2c-2.4-4.2-1.3-8.4-0.1-12.8c0.4-1.3,0.7-2.6,1-3.9c0.2-0.9,0.6-1.1,1-1.3c1-0.4,2.7,0.1,4,1.1
						C230.6,207.3,232.1,210,231.3,213.2z"/>
				</g>
				<g>
					<path class="st2" d="M285.8,221.9c-0.3,0-0.6,0.2-0.7,0.4c-2.6,3.8-2.6,24.3,0.1,28.4c0.2,0.3,0.5,0.5,0.8,0.5h0
						c0.3,0,0.7-0.2,0.8-0.4c2.9-4.3,2.8-25.7-0.2-28.6C286.4,222,286.1,221.9,285.8,221.9z M286,247.3c-1.2-5.3-1.2-16.7-0.1-21.7
						C287.1,230.3,287.4,241.8,286,247.3z"/>
				</g>
				<g>
					<path class="st2" d="M349.3,210L349.3,210c-3.6-27.8-16.3-51-37.5-69c-7.4-6.2-14.8-12.1-20.4-16.6
						c-6.1-4.8-12.2-9.6-18.3-14.4c-6.1-4.8-12.2-9.6-18.3-14.3c-3.4-2.7-6.6-2.7-9.9,0c-4.4,3.5-8.9,7-13.3,10.5
						c-5.9,4.6-12.1,9.4-18,14.3c-2,1.7-4,3.5-5.8,5.3c-2.6,2.5-5.3,5.1-8.3,7.1c-27.6,18.2-44,44.2-48.6,77.1
						c-0.6,4.1-0.3,7,0.9,8.4c2.4,2.8,2.4,5.6,2.4,8.9l0,1.2c0,1.7,0,3.4,0,5.2c0,3.9-0.1,8,0.1,12c0,1.6,0.3,3.1,0.6,4.6
						c0.3,1.8,0.6,3.6,0.5,5.3c-0.2,4.4-0.7,8.8-1.2,13.1c-0.2,1.7-0.4,3.4-0.6,5c0,0.3,0.1,0.6,0.3,0.8c0.1,0.1,0.2,0.2,0.3,0.2
						l0,2.7c0,2.9,0,5.8-0.1,8.7c-0.2,4.3,1.7,6.4,5.9,6.7c4.9,0.4,9.9,6,10,9.7c0.1,3.7,0.1,5.5,1.3,6.6c1.2,1.1,3.1,0.9,6.9,0.6
						c1.1-0.1,2.2-0.2,3.3-0.4l1.5-0.2c4.2-0.5,8.4-1,12.6-1.6c8.9-1.2,18-2.4,27-2.7c39.3-1.3,71,0.4,99.9,5.1
						c1.3,0.2,2.5,0.4,3.4,0.4c1,0,1.7-0.2,2.3-0.7c1.2-1,1.3-2.7,1.5-5.6c0.2-5.5,5.1-10.7,10.5-11c3.9-0.2,5.8-2.2,5.8-5.9
						c0-3.4,0-6.8,0-10.2c0-5.1,0-10.3-0.1-15.4c0-1.8-0.3-3.6-0.5-5.3c-0.2-1.7-0.4-3.4-0.5-5.1c0-1.4,0.2-2.8,0.5-4.2
						c0.2-1.4,0.5-2.9,0.5-4.3c0.1-3.5,0.1-7.1,0.1-10.6c0-2.5,0-5,0-7.5c0-0.8,0-2.9,0.5-3.4C350.3,217.9,349.7,213.7,349.3,210z
						 M346.6,206.2c0.2,1.3,0.4,2.7,0.6,4.1c0.1,0.8,0.2,1.5,0.2,2.3c-0.3-0.3-0.6-0.7-0.8-1.1c-0.8-1.2-1.7-2.4-3-2.5
						c-0.6,0-1.2-0.1-1.8-0.1c1.8,0,3.3-0.4,4.1-1.4C346.3,207.2,346.5,206.7,346.6,206.2z M345.4,213.3c-0.1,0.1-0.3,0.3-0.4,0.4
						c-0.6,0.7-1.3,1.5-1.9,1.5c-2,0.3-4.1,0.2-6.3,0.2c-0.8,0-1.6,0-2.3,0c-0.1,0-0.2-0.1-0.3-0.1c-0.9,0-1.8,0-2.7,0
						c-2.1,0.1-4.3,0.1-6.4-0.2c-0.5-0.1-1.1-0.8-1.7-1.5c-0.2-0.2-0.3-0.4-0.5-0.5c0.1-0.2,0.3-0.4,0.4-0.6
						c0.4-0.5,1.1-1.5,1.4-1.5c6.4-0.3,12.7-0.3,18.8,0.1c0.3,0.1,1,1.1,1.4,1.6C345.1,212.9,345.3,213.1,345.4,213.3z M344.5,204.2
						c0.2,0.7,0.3,1.6-0.1,2.1c-0.4,0.5-1.3,0.6-2,0.6c-2.9,0-5.9,0-8.8,0c-0.1,0-0.2,0-0.3,0l-2.3,0c-1.8,0-3.5,0-5.3,0
						c-1.4,0-2.1-0.3-2.5-0.8c-0.4-0.6-0.2-1.6,0-2.3c3.6-10.3,1.1-20.3-1.3-29.9l-0.7-2.7c-0.9-3.7-0.6-5.2-0.3-5.6l0,0
						c0.4-0.4,1.3-0.6,2.4-0.6c0.5,0,1.1,0,1.7,0.1c2.4,0.4,4.7,1.5,5.2,2.6c4.4,8.9,8.2,17.1,11.6,25c1,2.4,1.6,5.2,2.1,7.9
						C344.1,201.9,344.3,203.1,344.5,204.2z M342.6,189.7c-3-6.9-6.3-14-10-21.6C336.7,174.8,340.1,182,342.6,189.7z M322.2,156.3
						c-1.9,0.9-3.4,1.2-4.7,0.9c-1.2-0.3-2.2-1.2-3-2.6c-1.9-3.3-3.8-6.5-5.7-9.8l-1.8-3.1L322.2,156.3z M241.1,103l1.3-1
						c7.7-5.8,7.7-5.8,14.9,0.4c4.7,4,9.1,8.5,13.3,12.8c1.4,1.4,2.8,2.9,4.2,4.3c0.6,0.6,1.1,1.4,1.8,2.5c0.1,0.1,0.2,0.3,0.2,0.4
						l-54.9-0.1l-0.2-0.3l3.8-4c3.8-4,7.7-8,11.6-12C238.4,105,239.8,104,241.1,103z M232.7,107.8c0.1,0,0.1-0.1,0.2-0.1
						c-2.9,3-5.8,6-8.7,9l-4,4.2c0.1-0.1,0.1-0.2,0.2-0.3c0.3-0.4,0.2-1-0.2-1.3l-0.9-0.8C223.8,114.8,228.3,111.3,232.7,107.8z
						 M218,120l0.2,0.2c-0.8,1.3-1.6,2.6-2.3,3.9c-2.4,4-4.9,8.1-7.7,11.9c-0.5,0.6-2.3,0.7-3.7,0.8c-0.6,0-1.1,0.1-1.7,0.1
						l-0.1-0.2L218,120z M195.9,139.3l-1-0.9c1.8-1.3,3.7-2.6,5.6-3.9c1.9-1.2,3.6-2.7,5.3-4.2l-4.9,5.3c-0.3,0.3-0.3,0.7-0.2,1
						l0.5,1.6c0.2,0.5,0.7,0.8,1.2,0.7c0.7-0.1,1.5-0.2,2.3-0.2c2.1-0.1,4.2-0.2,5.2-1.6c2.9-3.8,5.4-8,7.9-12c0.6-1,1.2-2,1.8-3
						c0,0.2,0.1,0.5,0.2,0.6l1.1,1.4c0.2,0.2,0.5,0.4,0.8,0.4l57.3,0.1c0.4,0,0.7-0.2,0.9-0.5c0.2-0.3,0.2-0.7-0.1-1.1
						c-0.5-0.7-0.9-1.4-1.2-1.9c-0.7-1.2-1.3-2.1-2.1-2.9c-1.4-1.4-2.8-2.8-4.2-4.3c-2.7-2.8-5.5-5.6-8.3-8.3
						c2.6,2.1,5.3,4.1,7.9,6.2c2.8,2.2,5.7,4.5,8.5,6.7l-1,0.9c-0.4,0.3-0.4,0.9-0.2,1.3l2.5,4.2c0.4,0.7,0.9,1.4,1.3,2.2
						c-0.3-0.2-0.7-0.4-1-0.6c-1-0.6-2-1.2-3.2-1.4c-1.5-0.3-3-0.3-4.5-0.2c-0.5,0-0.9,0-1.4,0l-6.8,0c-14.4,0-28.9,0-43.3,0l-0.6,0
						c-2.2,0-5.4-0.1-6.2,4.4c-0.1,0.3,0,0.6,0.2,0.8c0.2,0.2,0.5,0.4,0.8,0.4l65.3,0.1c0.5,0,0.9-0.3,1-0.7l0.4-1.5l0-0.1
						c1.3,2.1,2.6,4.3,3.9,6.4c2.8,4.8,5.8,5.5,12.1,2.8c0.3-0.1,0.5-0.4,0.6-0.8c0.1-0.3,0-0.7-0.3-0.9l-10.5-10.1
						c0.2,0.1,0.4,0.3,0.5,0.4c4.4,3.4,9.8,7.8,15.4,12.4c-0.1,0.1-0.2,0.1-0.2,0.2l-1,1c-0.3,0.3-0.4,0.8-0.1,1.2l2.8,4.9
						c0.5,0.9,1.1,1.8,1.6,2.8c-3.7-5.9-6.6-6.6-14.8-4.5c-0.3,0.1-0.5,0.2-0.6,0.5s-0.2,0.5-0.1,0.8c0.6,2.1,1.2,4.2,1.8,6.3
						c2.2,7.5,4.4,14.8,4.3,22.1c-0.8-2.7-3.6-2.7-6-2.7c-11.5,0-23,0-34.5,0l-8.6,0l-12.3,0c-10.6,0-21.2,0-31.7-0.1
						c-2.7-0.1-4.3,0.5-5.2,1.5c-0.3,0.3-0.5,0.7-0.6,1.2c-0.1-6.3,1.6-12.4,3.4-18.7c0.9-3.3,1.9-6.7,2.6-10.1
						c0.1-0.3,0-0.6-0.2-0.8c-0.2-0.2-0.4-0.4-0.7-0.4c-0.8-0.1-1.5-0.2-2.3-0.3c-0.5-0.1-1.1-0.2-1.6-0.3l5.2-0.2
						c0.3,0,0.5-0.1,0.7-0.3c0.2-0.2,0.3-0.5,0.3-0.7l-0.1-1.6c0-0.5-0.5-1-1-1l-7.8,0c-0.6,0-1,0.4-1,1l-0.1,1.9
						c0,0.3,0.1,0.6,0.3,0.8c0,0,0.1,0,0.1,0c-1.5,0.2-2.9,0.9-4,2.5c-1,1.4-1.9,2.7-2.8,4.1c0.8-1.3,1.5-2.6,2.2-3.9
						c0.9-1.6,1.8-3.2,2.8-4.9C196.3,140.2,196.3,139.7,195.9,139.3z M281.8,121l15.7,15.1c-4.6,1.7-6.2,0.7-8.1-2.5
						c-1.9-3.3-3.9-6.6-5.9-9.8L281.8,121z M281.4,128.4l-63.1-0.1c0.6-1.5,1.9-1.6,3.8-1.5l0.6,0c14.4,0,28.9,0,43.3,0l6.8,0
						c0,0,0,0,0.1,0c0.5,0,0.9,0,1.4,0c1.4,0,2.8-0.1,4,0.2c0.8,0.2,1.7,0.6,2.6,1.2C281.1,128.2,281.3,128.3,281.4,128.4z
						 M319.5,182.3c0.3,1.6,0.5,3.2,0.2,3.6c-0.4,0.5-2,0.5-3.7,0.5c-5.2,0-10.5,0-15.7-0.1l-0.6,0c-0.1,0-0.4-0.1-0.7-0.2
						c4.8-12.2,1.3-23.8-2-35.1c-0.5-1.8-1-3.5-1.5-5.3c7-1.8,8.8-0.9,12.2,4.9C313.6,161.3,317.5,171.7,319.5,182.3z M297.2,175.9
						c-0.2,0.2-0.7,0.6-2.5,0.6l-1.2,0c-0.5,0-0.9,0-1.4,0l-14.2,0c-23.6,0-47.2,0-70.8-0.1h0c-0.4,0-0.8,0-1.3,0.1
						c-2.5,0.1-3.3,0-3.5-1.1c-0.2-1.2,0.1-1.6,0.2-1.7c0.3-0.4,1.1-0.8,3.6-0.8c10.6,0.1,21.2,0.1,31.7,0.1l12.3,0l8.6,0
						c11.5,0,23,0,34.7,0c2.4,0,3.5,0.1,3.8,1.3C297.4,175.1,297.4,175.7,297.2,175.9z M201.1,186.3l-3.7,0c-5.5,0-10.6,0-15.6-0.2
						c-0.5-0.2-1.4-1.6-1.4-2.1c2.1-13.8,7.2-26.5,15.1-37.6c0.9-1.2,2-1.7,3.6-1.7c1,0,2.2,0.2,3.5,0.4c0.4,0.1,0.9,0.2,1.3,0.2
						c-0.6,3-1.5,6-2.3,8.9C198.8,164.4,195.8,174.9,201.1,186.3z M193.2,141.5c-0.6,1-1.1,2-1.7,3c-2.2,3.8-4.4,7.8-6.9,11.4
						c-1.2,1.7-3.1,1.9-7,0.6L193.2,141.5z M156.4,199.1c2.4-10.5,6.5-20.3,12.5-30c2.1-3.4,7-5.1,10.4-3.5c0.3,0.3,0.7,1.6,0.6,2.4
						c-0.3,1.7-0.9,3.5-1.4,5.2c-0.5,1.6-1,3.3-1.4,5l-0.2,0.8c-1.6,7.9-3.3,16.1-0.3,24.5c0.3,0.9,0.6,2,0.1,2.7
						c-0.4,0.5-1.4,0.8-2.9,0.8c-1.1-0.1-2.3-0.1-3.4-0.1c-0.8,0-1.5,0-2.3,0l-5.3,0c-3.9,0-6.5,0-7.1-0.7
						C155,205.2,155.6,202.7,156.4,199.1z M175.2,210.8c0.3,0,1,1,1.4,1.5c0.2,0.2,0.3,0.4,0.5,0.6c-0.1,0.2-0.3,0.3-0.4,0.5
						c-0.6,0.6-1.3,1.4-1.7,1.5c-2.2,0.3-4.5,0.2-6.7,0.2c-1.8,0-3.6,0-5.3,0c-2.1,0.1-4.1,0.1-6.1-0.2c-0.5-0.1-1.2-0.8-1.8-1.5
						c-0.1-0.1-0.3-0.3-0.4-0.4c0.2-0.2,0.3-0.4,0.5-0.7c0.4-0.5,1-1.4,1.3-1.5C162.6,210.5,169,210.5,175.2,210.8z M152.8,210.3
						c0.2-1.4,0.4-2.8,0.7-4.2c0.1,0.5,0.3,0.9,0.6,1.2c0.8,1,2.1,1.3,4.4,1.5c-0.7,0-1.4,0.1-2.1,0.1c-1.2,0.1-2.1,1.2-2.9,2.4
						c-0.3,0.4-0.6,0.8-0.9,1.1C152.6,211.7,152.6,211,152.8,210.3z M164.6,290.3l0.1-0.2c0.3,0,0.7-0.1,1-0.1
						c1.1-0.1,2.3-0.2,2.8,0.1c0.4,0.3,0.6,1.5,0.8,2.4c0.1,0.3,0.1,0.7,0.2,1l-0.1,0.1L164.6,290.3z M168.9,295.9
						c0.3,0.1,0.7,0.1,1-0.1l1.3-0.9c0.1-0.1,0.2-0.1,0.2-0.2c0,0.8,0,1.8,0,2.8c0,0.8,0,1.7,0,2.6
						C170.9,298.7,170,297.2,168.9,295.9z M172.5,307.7c-0.3-0.3-0.4-1-0.5-2.1c0.3,0.6,0.6,1.2,1.1,1.6c0.4,0.4,1,0.7,1.6,0.9
						C173.5,308,172.8,307.9,172.5,307.7z M179.5,305.9l-1.4,0.2c-1.8,0.2-3,0.1-3.6-0.5c-0.6-0.6-0.9-1.7-0.9-3.3
						c0-1.8,0-3.4,0-4.7c0-9,0-9,6.5-9.6c1.7-0.2,3.7-0.4,6.2-0.8c5.9-0.9,11.9-1.6,17.7-2.4c2.5-0.3,5.1-0.6,7.6-1
						c1.4-0.2,2.6-0.3,3.5-0.3c0.7,0,1.2,0.1,1.4,0.3c0.6,0.5,0.6,2.4,0.6,5l0,3.5c0,1.1,0,2,0,2.9c0,6.4,0,6.4-8.9,7.2
						C198.6,303.2,188.9,304.5,179.5,305.9z M163.8,270.5c0-2.3,1-3.4,3.3-3.6l1.2-0.1c1.5-0.1,3-0.3,4.5-0.6
						c0.7-0.1,1.4-0.2,1.9-0.2c1.7,0,2.6,0.7,3.1,3c0.3,1.6,3,3.8,4.8,3.5c1.7-0.2,4.5-2.3,4.5-4.2c0.2-3.5,1.9-4.3,5.4-4.7
						c4-0.5,8.1-1,12.1-1.5c2.6-0.3,5.3-0.7,7.9-1c1.9-0.3,3.3-0.3,3.8,0.1c0.5,0.5,0.7,1.9,0.7,3.9c0,1.1,0,2.1,0,3.2l0,3.5
						c0,7.3,0,7.3-5.1,7.8c-1.1,0.1-2.5,0.3-4.1,0.5c-6.6,0.9-13.3,1.8-19.9,2.7c-6.7,0.9-13.5,1.7-20.2,2.7
						c-1.8,0.3-2.9,0.1-3.5-0.4c-0.5-0.5-0.8-1.5-0.7-3C163.9,278,163.8,274,163.8,270.5z M177.7,258.6c0,0.5,0.1,1.3-0.1,1.5
						c-2,2.6-4.8,2.7-7.9,2.7c-1.5,0-3,0.1-4.4,0.4c-0.7,0.1-1.1,0.1-1.4-0.1c-0.6-0.5-0.6-2.2-0.6-2.9c0-7,0-13.9,0-20.8l0-9.7
						c0.1,0,0.2-0.1,0.3-0.1l6.6,5.5c0.3,0.2,0.6,0.5,0.8,0.8c0.9,0.8,1.8,1.7,2.9,1.8c3.7,0.2,3.8,2,3.8,5.7l0,0.8
						c0,2.3,0,4.5,0,6.8c0,2.3,0,4.5,0,6.8C177.7,258.1,177.7,258.4,177.7,258.6z M193.4,256.3c0.2,1.3,0.6,2.3,1.4,2.9
						c1,0.9,2.6,1.3,4.8,1.1c2.8-0.3,5.7-0.6,8.6-0.9c-1.3,0.2-2.6,0.3-3.8,0.5c-4,0.5-8.1,1.1-12.1,1.5c-1,0.1-1.9,0.3-2.8,0.5
						c0.3-0.3,0.7-0.6,1.1-0.9c1.2-0.9,2.3-1.8,2.6-3.1l0,0C193.3,257.5,193.4,256.9,193.4,256.3z M193.4,249.8c0-0.1,0-0.2,0-0.3
						c0,0.5,0,1,0,1.5C193.4,250.6,193.4,250.2,193.4,249.8z M195.4,237.5c0-2.8,0.9-4,3.9-4.7l0.3-0.1c3.1-0.7,5.4-1.3,6.8-1.3
						c0.5,0,1,0.1,1.2,0.3c0.9,0.7,0.9,3.6,0.9,8.3c0,0.7,0,1.4,0,2c-0.1,2.4-0.1,5,0.5,7.4c0.5,1.9,2.8,4.2,4.9,4.8
						c1.4,0.4,2.8,0.2,3.8-0.6c1.2-0.9,2-2.5,2.1-4.3c0.2-3.8,0.2-7.6,0.3-11.3c0-1.6,0-3.3,0.1-4.9c0.1-2.1,0.9-4,2.4-5
						c1.3-1,3-1.2,4.7-0.8c0.4,0.1,1.3,1.4,1.4,2.2c0.2,2.9,0.1,6,0.1,8.9c0,1.1,0,2.3,0,3.4v11c0,2.3-0.9,3.2-3.4,3.3
						c-8.5,0.7-17.2,1.4-25.8,2.3c-1.6,0.2-2.6,0-3.2-0.5c-0.6-0.5-0.8-1.5-0.8-3C195.5,249.6,195.6,243.6,195.4,237.5z
						 M259.1,229.3c-1.1-1-2.6-1.5-4.7-1.4h0c-3.5,0.2-7.1,0.1-10.1,0c-1.9,0-3.4,0.5-4.3,1.4c-1,1-1.5,2.5-1.5,4.4
						c0,5.3,0,11-0.1,18.1c0,2.9-0.4,3.9-2.5,4c-0.8,0-1.4-0.2-1.8-0.5c-0.7-0.6-0.7-2-0.7-3.4c0-3.6,0-7.3,0-10.9
						c0-3.6,0-7.1,0-10.7c0-1.4,0.3-2.4,0.9-3c0.6-0.6,1.6-0.9,3.1-0.9c0.1,0,0.1,0,0.2,0c2.8,0,5.5,0,8.2,0l3.8,0
						c0.1,0,0.2,0,0.3,0h12.3c2.5,0,3.6,1.1,3.6,3.5l0,5.3c0,5.7,0.1,11.7-0.2,17.5c0,0.5-1.1,1.5-1.8,2.1c-0.2,0.2-0.4,0.3-0.6,0.5
						c-0.2-0.2-0.4-0.4-0.6-0.6c-0.8-0.7-1.6-1.6-1.7-2.1c-0.3-6.2-0.2-12.4-0.1-18.4C260.7,231.9,260.2,230.3,259.1,229.3z
						 M271.2,240.9l0-2.5c0-2.4,0-4.8,0.1-7.2c0-0.3,0-0.7,0-1.1c0-0.9,0-2.1,0.4-2.5c0.3-0.3,0.8-0.3,1.3-0.2
						c0.5,0.1,1,0.1,1.5,0.1c3.2,0.2,5.1,0.5,5.3,3.6c0.2,2.8,0.2,5.6,0.1,8.4c0,1.4,0,2.9,0,4.3l0,1c0,1.4,0.1,2.9,0.2,4.3
						c0.3,3.4,2.3,5.3,5.5,5.3c0,0,0.1,0,0.1,0c3.2,0,5.3-2,5.5-5.3v0c0.2-3,0.2-6.1,0.2-9.1c0-1.5,0-3.1,0.1-4.6
						c0-1.5,0.2-3.1,0.7-3.6c0.6-0.5,2.1-0.2,3.6,0.1c7.7,1.5,7.7,1.5,7.7,9.6l0,4.4c0,2.9,0,5.9,0,8.8c0,1.6-0.3,2.6-0.9,3.1
						c-0.6,0.5-1.6,0.7-3.1,0.5c-8.4-1-16.8-1.7-25-2.3c-2.5-0.2-3.4-1.2-3.4-3.4c0-2.5,0-5.1,0-7.6l0-3.8
						C271.2,241.1,271.2,241,271.2,240.9z M336.5,236.5c0.1,2.1,0.2,4.2,0.4,6.4c0.2,2.9,0.4,5.9,0.5,8.8c0,3-0.4,6.4-1.1,10.6
						c-0.1,0.4-1.2,1.1-1.6,1.1h0c-4.4-0.2-7.7-0.6-10.7-1.3c-0.5-0.1-1.6-1.6-1.7-2.5c-0.2-6.2-0.1-12.5,0-18.9
						c0-0.9,0.3-1.7,0.5-1.9c3.2-2.1,6.5-4.1,10-6.2c1.2-0.7,2.4-1.5,3.7-2.3c0,0.2,0,0.5,0,0.7
						C336.4,233.1,336.4,234.8,336.5,236.5z M323.5,264.1c1.9,0.4,4,0.8,6.3,1c-1.8-0.1-3.5,0-5.2,0c-0.8,0-1.6,0-2.4,0.1
						c-0.9,0-1.1,0.9-1.3,1.3c0,0.2-0.1,0.5-0.2,0.5c-0.5,0.5-1.1,1.1-1.6,1.6c0.7-1.4,1.2-4.3,1.4-7.7
						C321,262.4,322.3,263.8,323.5,264.1z M319.1,271.4c1.1-1,2.1-1.9,3.1-2.9c0.4-0.4,0.5-0.8,0.6-1.2c0.6,0,1.2,0,1.8,0
						c2.9-0.1,5.9-0.2,8.8,0.3c0.7,0.1,2,1.8,2.5,3.4c0.3,1.2,0.2,2.7,0.2,4.2c0,0.7-0.1,1.4-0.1,2.2l0,1.1c0,4.1,0,6.8-0.7,7.4
						c-0.5,0.5-2.4,0.2-4.9-0.2c-1-0.2-2.2-0.3-3.5-0.5c-4.6-0.6-9.1-1.2-13.7-1.9c-8.9-1.2-18.2-2.5-27.3-3.6c-3-0.3-4-1.5-3.9-4.3
						c0.1-2.9,0.1-5.7,0.1-8.6l0-2.8c0-1.2,0.3-2.1,0.8-2.5c0.5-0.4,1.3-0.6,2.4-0.4l5.7,0.8c6.1,0.8,12.2,1.7,18.3,2.4
						c2,0.3,2.8,1.1,3.4,3.4c0.4,1.5,1.5,2.6,2.6,3.7c0.4,0.4,0.8,0.8,1.2,1.3c0.2,0.2,0.4,0.3,0.7,0.4c0.4,0,0.6-0.1,0.8-0.3
						L319.1,271.4z M281.4,259.6c-0.7,0.6-1.2,1.4-1.4,2.5c-0.2-2.3-0.9-3.4-2.7-3.9c2,0.2,4,0.3,6.1,0.5
						C282.6,258.9,282,259.2,281.4,259.6z M278.1,264.9c0,1.6,0,3.1,0,4.7c0,1.9,0,3.9,0,5.8v0c0,1.2-0.2,2.1-0.7,2.6
						c-0.5,0.5-1.3,0.7-2.4,0.7c-8.2,0-16.3,0-24.5,0c-8.8,0-17.7,0-26.5-0.1c-2.1,0-3-0.9-3-3.1l0-3.4c0-2.8,0-5.7-0.1-8.5
						c0-1.4,0.2-2.4,0.8-2.9c0.6-0.6,1.6-0.9,3.1-0.9c0.1,0,0.1,0,0.2,0c6.1,0.1,12.3,0.1,18.4,0.1l12,0c5.9,0,11.8,0,17.6,0.1
						C278.1,260,278.1,260,278.1,264.9z M219.1,276.7c0.3,2.3,1.7,3.7,4,4c-1.1,0.2-1.9,0.6-2.6,1.3c-1,1-1.4,2.4-1.4,4.3
						c-0.1-2-0.4-3.3-1.3-4.1c-0.7-0.6-1.6-0.8-2.8-0.8c-1,0-2.2,0.1-3.7,0.3c-2.5,0.3-5.1,0.7-7.6,1c-1.4,0.2-2.8,0.4-4.2,0.5
						c2.9-0.4,5.9-0.8,8.8-1.2c1.6-0.2,2.9-0.4,4-0.5C217.3,281,218.7,280.5,219.1,276.7z M217.7,259.5c-0.5-0.4-1.1-0.6-1.8-0.7
						c2-0.2,4.1-0.3,6.1-0.5c-0.7,0.2-1.2,0.6-1.7,1.1c-0.7,0.7-1.2,1.7-1.3,2.9C218.8,261,218.5,260.1,217.7,259.5z M191.4,252
						c0.1,2,0.2,3.8-0.2,5.6c-0.1,0.6-1,1.2-1.9,1.8c-0.2,0.1-0.3,0.2-0.5,0.4c-0.1-0.1-0.2-0.2-0.3-0.4c-0.6-0.6-1.2-1.4-1.2-1.9
						c-0.2-4-0.2-8.2-0.1-12.1c0-1.5,0-3,0-4.6c0-1.2,0.2-2.1,0.6-2.4c0.1-0.1,0.3-0.2,0.6-0.2c0.2,0,0.4,0,0.7,0.1
						c0.8,0.2,2,1.6,2.1,2.4c0.3,2,0.2,4,0.2,6.1c0,0.7,0,1.5,0,2.2c0,0.1,0,0.2,0,0.3C191.3,250.3,191.3,251.2,191.4,252z
						 M188.3,284.7c1.7-0.2,3.5-0.4,5.2-0.7c-2.5,0.3-5.1,0.7-7.6,1.1c-2.5,0.4-4.5,0.6-6.2,0.7c-0.4,0-0.8,0.1-1.1,0.1
						C181.9,285.5,185.1,285.1,188.3,284.7z M215.7,303.2c2.6-0.9,3.2-2.5,3.3-5.7v0.2c0,1.9,0.4,3.2,1.4,4.1
						c0.5,0.5,1.1,0.8,1.9,1.1C220.1,302.9,217.9,303,215.7,303.2z M274.8,301.1c-14,0-27.9-0.1-41.9-0.1c-2.9,0-5.8,0-8.7,0h0
						c-1.1,0-1.9-0.2-2.4-0.7c-0.5-0.5-0.8-1.4-0.8-2.7l0-3.6c0-2.6,0-5.2,0-7.8c0-1.4,0.2-2.3,0.8-2.8c0.6-0.6,1.5-0.8,3-0.8
						c6,0.1,12,0.1,18.1,0.1l7,0l6.8,0c5.7,0,11.6,0.1,17.4,0c1.6,0,2.7,0.3,3.2,0.8c0.5,0.6,0.8,1.5,0.7,2.9
						c-0.2,3.9-0.1,7.9,0,11.5c0,1.2-0.2,2-0.7,2.4C276.9,300.9,276,301.1,274.8,301.1L274.8,301.1z M275.8,303.1
						c1.3-0.1,2.3-0.6,3-1.3c0.6-0.6,1-1.5,1.2-2.5c0.4,2.2,1.8,3.6,4.1,4.3C281.4,303.4,278.6,303.2,275.8,303.1z M320.5,306.1
						c-1-0.1-2.1-0.3-3.4-0.4c-5.9-0.7-11.8-1.4-17.7-2.1c-4.4-0.6-8.9-1.1-13.3-1.6c-3.1-0.4-4.3-1.7-4.2-4.7
						c0.1-2.5,0.1-5.1,0.1-7.6c0-1.1,0-2.3,0-3.4c0-1.1,0.2-1.9,0.7-2.3c0.3-0.3,0.8-0.4,1.5-0.4c0.2,0,0.5,0,0.8,0.1
						c12.5,1.7,25,3.3,37.5,5c2.5,0.3,3.5,1.5,3.3,3.9c-0.1,1.3-0.1,2.5,0,3.8l0,1.6v0c0.1,4.3,0.1,7.6-0.8,8.4
						C324.4,306.7,322.7,306.4,320.5,306.1z M326.8,308.1c-0.3,0.2-0.9,0.3-1.7,0.2c0.4-0.1,0.8-0.3,1.2-0.6c0.6-0.5,1-1.3,1.2-2.4
						C327.4,306.8,327.2,307.8,326.8,308.1z M330.3,293.9L330.3,293.9c0-0.4,0-0.7,0-1.1c0.1-0.7,0.3-2.1,0.5-2.3
						c0.7-0.4,1.9-0.3,3.1-0.2c0.3,0,0.7,0.1,1,0.1L330.3,293.9z M345.1,219.7c-1.1,1.1-1.2,3.1-1.2,4.9c0,2.5,0,5,0,7.6
						c0,3.4,0,7-0.1,10.5c0,1.3-0.2,2.6-0.5,4c-0.2,1.5-0.5,3-0.5,4.6c0,1.8,0.3,3.6,0.5,5.3c0.2,1.7,0.4,3.4,0.5,5
						c0.1,5.1,0.1,10.3,0.1,15.4c0,3.4,0,6.8,0,10.2c0,2.6-1,3.6-3.8,3.8c-1.1,0.1-2.2,0.3-3.3,0.7l0.2-0.2c0.4-0.3,0.5-0.7,0.4-1.1
						l-0.4-1.3c-0.3-0.9-1.6-0.7-2.6-0.8c-1.5-0.1-3.1-0.3-4.4,0.4c-1.1,0.7-1.3,2.3-1.5,3.8c-0.1,0.5-0.1,1.1-0.2,1.6
						c-0.1,0.4,0.1,0.9,0.5,1.1l1.3,0.7c0.2,0.1,0.5,0.2,0.8,0.1c-1.5,1.8-2.5,3.9-3,6.1c0-1.2,0-2.7,0-4.4l0-1.6c0-1.2,0-2.4,0-3.6
						c0.2-3.5-1.5-5.7-5.1-6.1c-12.5-1.6-25-3.3-37.5-5c-1.7-0.2-3,0.1-3.9,0.8c-0.7,0.6-1.1,1.4-1.3,2.4c-0.2-1.1-0.6-2-1.2-2.7
						c-0.6-0.7-1.5-1.1-2.6-1.3c1.1-0.2,2-0.6,2.7-1.3c0.6-0.6,0.9-1.3,1.1-2.2c0.6,2.5,2.4,3.8,5.6,4.2c9.1,1.1,18.4,2.4,27.3,3.6
						c4.6,0.6,9.1,1.3,13.7,1.9h0c1.3,0.2,2.5,0.3,3.5,0.5c3.4,0.5,5.3,0.8,6.6-0.3c1.2-1,1.4-2.8,1.4-6.6c0.3,4.1,0.9,7.7,1.8,9.1
						c0.2,0.3,0.5,0.6,0.9,0.5c0.3,0,0.7-0.2,0.8-0.4c3.1-4.5,2.8-25.6-0.3-28.6c-0.2-0.2-0.5-0.3-0.8-0.3c-0.3,0-0.6,0.2-0.7,0.4
						c-0.9,1.4-1.5,5.1-1.7,9.3c0-0.1,0-0.2-0.1-0.3c-0.5-1.8-2.2-4.5-4.2-4.8c-0.1,0-0.3,0-0.4-0.1c0.4,0,0.8,0,1.2,0.1
						c0,0,0.1,0,0.1,0c1.3,0,3.4-1.4,3.6-2.8c0.8-4.3,1.2-7.9,1.2-11c0-1.5-0.1-3-0.2-4.4l0,0c0.4,0.2,0.8,0.1,1.1-0.1
						c2.7-2.3,3.6-10.7,3.2-17.6c-0.2-3.5-0.9-9.7-3.2-11.3c-0.3-0.2-0.7-0.2-1.1-0.1c-0.3,0.2-0.5,0.5-0.5,0.9c0,6.9,0,13.6,0,20.2
						c-0.1-1-0.1-2-0.2-3c-0.1-1.7-0.1-3.3-0.1-5.2c0-0.8,0-1.7,0-2.6c0-0.4-0.2-0.7-0.5-0.9c-0.3-0.2-0.7-0.2-1,0
						c-1.9,1.1-3.6,2.2-5.3,3.2c-3.5,2.1-6.8,4.1-10,6.2c-1.1,0.8-1.4,2.6-1.4,3.8c0,1.8-0.1,3.6-0.1,5.4c-0.3-2.6-0.8-4.7-1.5-5.7
						c-0.2-0.3-0.5-0.4-0.8-0.4c-0.3,0.1-0.7,0.2-0.9,0.5c-3.1,4.7-2.7,25.7,0.4,28.6c0.2,0.2,0.4,0.3,0.7,0.3c0.1,0,0.1,0,0.2,0
						c-0.2,0.2-0.3,0.3-0.5,0.5l-0.5,0.4c-0.2-0.2-0.4-0.4-0.6-0.6c-0.9-0.9-1.8-1.8-2.1-2.8c-0.6-2.2-1.4-3.8-3.6-4.6
						c0.1,0,0.1,0,0.1,0c0.4,0.1,0.8,0,1.3-0.2c0.8-0.5,2.1-2.1,2.3-3.4l0,0c0.2-2.1,0.2-4.3,0.1-6.3c0-0.8,0-1.7,0-2.5
						c0-0.9,0-1.8,0-2.7c0.1-2.3,0.1-4.8-0.2-7.1c-0.2-1.6-2.4-3.4-3.9-3.5c-1.1-0.2-2.7,0.6-3.7,1.4c-0.6,0.5-0.8,1-0.9,1.5
						c-0.4,7.5-0.4,13.7,0,19.3c0.1,1.8,3,2.9,4.3,3.3c-0.3-0.1-0.7-0.1-1-0.2c-6.1-0.8-12.2-1.6-18.3-2.4l-2.6-0.4
						c3.6,0.3,7.2,0.7,10.9,1.1c2.1,0.3,3.7-0.1,4.7-1c1.1-0.9,1.6-2.4,1.6-4.6c0-2.9,0-5.8,0-8.7l0-4.4c0-9.4-0.4-9.8-9.4-11.6
						c-2.5-0.5-4.1-0.6-5.3,0.4c-1.2,0.9-1.4,2.6-1.5,5.1c0,1.5-0.1,3.1-0.1,4.6c0,3-0.1,6-0.2,9c-0.1,2.2-1.2,3.3-3.4,3.3
						c0,0-0.1,0-0.1,0c-2.2,0-3.3-1.1-3.5-3.5c-0.2-1.3-0.2-2.8-0.2-4.1l0-1c0-1.4,0-2.9,0-4.3c0-2.8,0-5.7-0.2-8.5
						c-0.4-5-4.3-5.3-7.2-5.5c-0.5,0-0.9-0.1-1.4-0.1c-1.2-0.1-2.2,0.1-2.9,0.7c-1.1,1-1.1,2.7-1.1,4c0,0.3,0,0.7,0,1
						c-0.1,2.4-0.1,4.9-0.1,7.3l0,2.8c0,0.1,0,0.2,0.1,0.3l0,3.5c0,2.5,0,5.1,0,7.6c0,2.9,1.4,4.7,4.2,5.3c-0.1,0-0.2,0-0.2,0
						c-3.2,0-6.5-0.1-9.7-0.1c0.2,0,0.4-0.1,0.5-0.3c0.3-0.4,0.8-0.7,1.2-1.1c1.2-1.1,2.5-2.2,2.5-3.6c0.3-5.9,0.2-11.9,0.2-17.6
						l0-5.3c0-3.6-2-5.6-5.7-5.6h-12c-0.1,0-0.2,0-0.3,0l-4.1,0c-2.7,0-5.5,0-8.2,0c-0.1,0-0.1,0-0.2,0c-2,0-3.5,0.5-4.5,1.5
						c-1,1-1.5,2.5-1.5,4.5c0,3.6,0,7.1,0,10.7c0,3.6,0,7.3,0,10.9c0,1.7,0.1,3.6,1.4,4.8c0.8,0.8,1.9,1.1,3.3,1.1
						c4.5-0.1,4.5-3.9,4.5-6c0.1-7,0.1-12.8,0.1-18.1c0-1.4,0.3-2.4,0.9-2.9c0.6-0.6,1.6-0.9,2.9-0.8c3,0.1,6.6,0.2,10.2,0
						c1.5-0.1,2.6,0.2,3.2,0.8c0.7,0.6,1,1.8,1,3.4c-0.1,6-0.2,12.3,0.2,18.6c0.1,1.4,1.2,2.4,2.3,3.5c0.4,0.4,0.9,0.9,1.2,1.3
						c0.1,0.2,0.3,0.3,0.5,0.4c-2.5,0-4.9,0-7.4,0l-12,0c-5.6,0-11.3,0-16.9,0c2.7-0.5,4.1-2.3,4.1-5.2v-11c0-1.1,0-2.2,0-3.4
						c0-2.9,0.1-6-0.1-9c-0.1-1.5-1.4-3.7-2.9-4.1c-2.3-0.6-4.6-0.2-6.5,1.1c-1.9,1.5-3.1,3.9-3.2,6.6c0,1.6,0,3.3-0.1,4.9
						c0,3.7-0.1,7.5-0.3,11.3c0,1.2-0.5,2.2-1.2,2.8c-0.6,0.4-1.3,0.5-2.1,0.3c-1.4-0.4-3.1-2-3.4-3.3c-0.5-2.1-0.5-4.4-0.4-6.8
						c0-0.7,0-1.4,0-2.1c0-5.9,0-8.6-1.7-9.9c-1.7-1.3-4.2-0.7-9.7,0.6l-0.3,0.1c-3.9,0.9-5.5,3-5.4,6.8c0,1.5,0.1,3,0.1,4.5
						c0-0.5-0.1-1-0.2-1.4c-0.3-1.6-1.9-3.7-3.6-4.1c-1.2-0.3-2.2-0.2-3,0.4c-1,0.7-1.4,2.1-1.4,4c0,1.5,0,3,0,4.6
						c0,4-0.1,8.1,0.1,12.2c0,1.2,0.9,2.2,1.7,3.1c0.3,0.4,0.6,0.7,0.9,1.1c0.2,0.2,0.4,0.4,0.7,0.4c-1.9,0.8-3.3,2.4-3.5,5.8
						c0,0.6-1.7,2.1-2.8,2.3c-0.5,0-2.3-1.2-2.5-1.9c-0.6-2.9-2-4.1-3.8-4.5c1.2-0.5,2.3-1.3,3.3-2.6c0.1-0.1,0.2-0.2,0.2-0.3
						c0.3,3.7,0.9,6.9,1.8,8.1c0.2,0.3,0.5,0.5,0.9,0.4c0.3,0,0.7-0.2,0.8-0.5c3-4.7,2.6-25.8-0.5-28.6c-0.2-0.2-0.5-0.3-0.8-0.3
						c-0.3,0-0.6,0.2-0.7,0.5c-0.5,0.8-0.9,2.2-1.2,4.1c0-0.2,0-0.5,0-0.7l0-0.8c0.1-3.3,0.2-7.4-5.7-7.8c-0.4,0-1.1-0.7-1.6-1.2
						c-0.3-0.3-0.6-0.6-1-0.9l-7-5.8c-0.3-0.2-0.7-0.3-1-0.2c-0.5,0.2-0.9,0.3-1.4,0.5c-0.1,0-0.1,0-0.2,0.1
						c-0.3-4.6-1.2-8.5-2.4-9.6c-0.2-0.2-0.5-0.3-0.8-0.2c-0.3,0-0.6,0.2-0.7,0.5c-2.6,4.2-2.3,24.6,0.4,28.4
						c0.2,0.3,0.5,0.4,0.9,0.4c0.3,0,0.7-0.2,0.8-0.5c0.5-0.8,0.9-2.2,1.3-3.8c0,5.7,0,11.3,0,17c0,1.7,0.2,3.5,1.4,4.4
						c0.5,0.4,1.1,0.6,1.9,0.7c-1.6,0.8-2.6,2.2-2.8,4.2c-0.3-4-0.9-7.5-1.8-8.9c-0.2-0.3-0.5-0.5-0.8-0.5c-0.4,0.1-0.7,0.2-0.9,0.4
						c-3.1,4.4-2.9,25.5,0.2,28.6c0.2,0.2,0.5,0.3,0.8,0.3c0.3,0,0.6-0.2,0.7-0.4c0.8-1.1,1.3-3.7,1.6-7c-0.1,2.1,0.4,3.4,1.4,4.3
						c1.4,1.3,3.6,1.1,5.2,0.9c3-0.4,5.9-0.8,8.9-1.2c-4.6,0.7-5.5,2-5.6,7.1c-0.1-0.3-0.1-0.7-0.2-1c-0.3-1.5-0.5-3-1.6-3.8
						c-1.1-0.8-2.7-0.6-4.2-0.5c-1,0.1-2.3-0.1-2.5,0.8l-0.5,1.6c-0.1,0.4,0,0.8,0.2,1c-0.9-0.3-1.7-0.5-2.6-0.6
						c-3.2-0.2-4.2-1.4-4.1-4.6c0.1-2.9,0.1-5.9,0.1-8.8l0-3.5c0-0.4-0.2-0.7-0.5-0.9c0.1-1.4,0.3-2.7,0.5-4.1
						c0.5-4.4,1-8.9,1.2-13.3c0.1-1.9-0.2-3.9-0.6-5.7c-0.3-1.5-0.5-2.9-0.5-4.3c-0.1-4-0.1-8-0.1-12c0-1.7,0-3.5,0-5.2l0-1.2
						c0-3.4,0-6.9-2.9-10.2c-0.5-0.6-0.8-1.7-0.8-3.3l0,0c0.3,0.3,0.6,0.6,1,1c0.9,1,1.8,2,3,2.2c2.1,0.3,4.3,0.3,6.4,0.2
						c1.7,0,3.5,0,5.2,0c2.3,0.1,4.7,0.1,7-0.2c1.2-0.1,2.1-1.2,3-2.2c0.3-0.4,0.6-0.7,1-1c0,0,0.1-0.1,0.1-0.1
						c0.1,5.8,0.8,11.4,2.2,13c0.2,0.2,0.5,0.3,0.8,0.3c0.3,0,0.6-0.1,0.8-0.4c2.7-3.3,2.9-23.7,0.3-28.3c-0.2-0.3-0.5-0.5-0.8-0.5
						c-0.3,0-0.7,0.1-0.9,0.4c-1.5,1.9-2.3,8.1-2.3,14.3c0,0,0-0.1-0.1-0.1c-0.3-0.3-0.6-0.8-0.9-1.2c-0.8-1.1-1.7-2.3-3-2.4
						c-0.1,0-0.2,0-0.3,0c1.6-0.1,2.7-0.7,3.4-1.6c0.8-1.1,0.8-2.6,0.2-4.6c-2.8-7.8-1.2-15.4,0.4-23.4l0.2-0.8
						c0.3-1.6,0.8-3.2,1.3-4.8c0.5-1.7,1.1-3.6,1.5-5.4c0.2-1.4-0.4-4-1.7-4.6c-3.6-1.7-8.5-0.5-11.6,2.4c1.4-2.1,2.8-4.2,4.4-6.3
						c-0.1,0.2-0.2,0.4-0.2,0.6l0,1.1c0,0.6,0.5,1,1,1l8.8,0c0.3,0,0.5-0.1,0.7-0.3c0.2-0.2,0.3-0.5,0.3-0.7l0-1.1c0-0.6-0.5-1-1-1
						l-8.8,0c-0.3,0-0.5,0.1-0.7,0.3c0,0,0,0-0.1,0.1c0.6-0.8,1.2-1.6,1.9-2.4c0.1,0.2,0.3,0.3,0.5,0.3c4,1.5,8.4,2.8,10.9-0.7
						c0.9-1.3,1.7-2.6,2.6-3.9c-5.3,9.4-8.8,19.6-10.5,30.6c-0.2,1.3,1,2.8,1.2,3.1c0.7,0.8,1.4,1.3,2,1.3
						c5.1,0.2,10.3,0.2,15.8,0.2l5.3,0c0.4,0,0.7-0.2,0.9-0.5c0.2-0.3,0.2-0.7,0-1c-1.8-3.5-2.8-6.9-3.2-10.2c0.9,2.2,3.6,2,5.4,1.9
						c0.4,0,0.8,0,1.2,0h0c23.6,0.1,47.2,0.1,70.8,0.1l14.2,0c0.5,0,1,0,1.5,0l1.2,0c2.1,0,3.4-0.5,4.1-1.5c0.1-0.1,0.1-0.2,0.2-0.2
						c-0.3,3.1-1.1,6.2-2.4,9.4c-0.1,0.3-0.1,0.6,0,0.8c0.1,0.3,0.3,0.5,0.6,0.6c0.3,0.1,0.6,0.2,0.9,0.3c0.5,0.2,1,0.4,1.5,0.4
						l0.6,0c1.4,0,2.7,0,4,0.1c-1.8,0-3.6,0-5.3,0h0c-5.3,0-6.2,3.9-6.3,7.3c0,0.3,0.1,0.5,0.3,0.7c0.2,0.2,0.5,0.3,0.7,0.3h24.3
						c1.3,0,3,0,4-1.1c0.7-0.7,1-1.7,1-3c-0.1-4.2-3.5-4.2-5.2-4.2c0,0,0,0,0,0c1.6-0.1,2.8-0.4,3.5-1.2c1-1.2,0.7-2.9,0.3-5.3
						c-1.9-10.4-5.6-20.4-11.3-30.7c0.8,1.4,1.7,2.9,2.5,4.3c1.1,1.9,2.6,3.1,4.3,3.6c2.1,0.5,4.5-0.1,7.4-1.8
						c0.1-0.1,0.2-0.2,0.3-0.3c0.7,0.9,1.4,1.8,2.1,2.7c-0.2-0.1-0.4-0.2-0.6-0.2l-8.9,0c-0.3,0-0.5,0.1-0.7,0.3
						c-0.2,0.2-0.3,0.5-0.3,0.7v1.1c0,0.6,0.5,1,1,1l8.9,0c0.3,0,0.5-0.1,0.7-0.3c0.2-0.2,0.3-0.5,0.3-0.7v-1.1c0-0.1,0-0.2-0.1-0.3
						c1.4,1.8,2.6,3.6,3.9,5.5c-1.4-1.3-3.7-2.2-5.8-2.5c-2.6-0.4-4.7,0-5.8,1.1c-1.2,1.2-1.3,3.6-0.3,7.5l0.7,2.7
						c2.5,9.7,4.8,18.9,1.4,28.7c-0.8,2.1-0.3,3.4,0.2,4.2c0.5,0.7,1.6,1.6,3.9,1.6c-0.2,0-0.4,0-0.7,0c-1.2,0.1-2.1,1.2-3,2.3
						c-0.3,0.4-0.6,0.8-0.9,1.1l-0.1,0.1c-0.1-6.1-0.8-12.3-2.3-14.2c-0.2-0.3-0.5-0.4-0.9-0.4c-0.3,0-0.6,0.2-0.8,0.5
						c-2.7,4.7-2.7,25.7,0.8,28.4c0.2,0.2,0.5,0.2,0.8,0.2c0.3-0.1,0.5-0.2,0.7-0.5c1.1-1.9,1.6-7.2,1.7-12.8c0,0,0.1,0.1,0.1,0.1
						c0.3,0.3,0.7,0.7,1,1.1c0.8,1,1.7,2,3,2.2c2.2,0.3,4.5,0.3,6.7,0.2c0.8,0,1.5,0,2.3,0c0.1,0,0.2,0.1,0.3,0.1c0.9,0,1.7,0,2.6,0
						c2.2,0.1,4.5,0.1,6.7-0.2h0c1.3-0.2,2.2-1.2,3.1-2.2c0.3-0.3,0.6-0.7,0.9-1c0,0,0,0,0.1-0.1C347.5,216.1,347,218,345.1,219.7z
						 M340.7,264.5c1.2,4.7,1.4,16.2,0.1,21.6C339.7,280.8,339.6,269.5,340.7,264.5z M340.7,241.7c0-5.9,0-11.8,0-17.9
						c0.3,1.5,0.6,3.5,0.7,5.9C341.8,234.2,341.4,238.6,340.7,241.7z M317.9,265.8c-1.2-4.7-1.5-16.1-0.1-21.6
						C318.8,249.4,318.9,260.7,317.9,265.8z M312.7,252.4c0,2.1,0.1,4.1-0.1,6.1c-0.1,0.5-0.8,1.5-1.2,1.8c-1.6-0.4-2.9-1.3-3.1-1.5
						c-0.3-5.6-0.3-11.7,0-18.9c0.2-0.4,1.6-1.2,2.3-1.2l0.1,0c0.7,0.1,1.9,1.2,2,1.7c0.3,2.2,0.2,4.6,0.2,6.8c0,0.9,0,1.8,0,2.7
						C312.6,250.8,312.7,251.6,312.7,252.4z M182,244c1.2,4.7,1.5,16.1,0.2,21.6C181,260.4,180.9,249.1,182,244z M159.2,243.6
						c-1.2-5.2-1.3-16.5-0.2-21.7C160.1,226.6,160.4,238,159.2,243.6z M159.1,285.7c-1.1-4.8-1.4-16.2,0-21.6
						C160.2,269.4,160.1,280.7,159.1,285.7z M182.3,201.7c1.1,5.5,0.9,16.6-0.1,21.5C181.1,218.3,181,206.9,182.3,201.7z
						 M317.7,190.6c2.3,0,3.1,0.3,3.1,2.2c0,0.7-0.1,1.3-0.4,1.5c-0.4,0.5-1.4,0.5-2.7,0.4h-23c0.4-3.5,1.8-4.2,4.2-4.2
						C305.1,190.6,311.4,190.5,317.7,190.6z M317.9,223.5c-1.2-4.5-1.6-15.9-0.3-21.6C318.8,207,319,218.3,317.9,223.5z"/>
				</g>
				<g>
					<path class="st2" d="M269.2,203c0.4-0.3,0.5-0.7,0.4-1.1c-0.1-0.4-0.5-0.7-1-0.7c-13.1,0-25,0-36.9,0c-0.5,0-0.8,0.3-1,0.7
						c-0.1,0.4,0,0.9,0.4,1.2c4,2.6,3.9,6.3,3.9,10.2c0,0.7,0,1.3,0,2c0.1,6.5,1.1,7.5,7.7,7.6c2.1,0,4.2,0,6.3,0
						c3.2,0,6.3,0,9.5,0.1c0.1,0,0.2,0,0.3,0c2,0,3.5-0.5,4.6-1.5c1.1-1.1,1.6-2.8,1.6-5.1c0-0.6,0-1.3-0.1-1.9
						C264.7,210.1,264.6,206.2,269.2,203z M262.8,214.4c0,0.6,0,1.2,0,1.8c0,1.8-0.3,3-1,3.6c-0.7,0.7-1.8,1-3.4,0.9
						c-1.9-0.1-3.8-0.1-5.7-0.1c-1.3,0-2.6,0-3.9,0c-2.1,0-4.2,0-6.3,0c-5.4,0-5.6-0.3-5.6-5.6c0-0.6,0-1.3,0-1.9
						c0-3.3,0.1-7.1-2.6-10.1c10.2,0,20.4,0,31.4,0C262.6,206.6,262.7,210.7,262.8,214.4z"/>
				</g>
				<g>
					<path class="st2" d="M214.1,208.5C214.2,208.5,214.2,208.5,214.1,208.5c0.4,0,0.7-0.2,0.8-0.5c2.6-3.9,2.5-24.3-0.1-28.5
						c-0.2-0.3-0.5-0.5-0.9-0.5h0c-0.3,0-0.7,0.2-0.8,0.5c-3,4.5-2.8,25.6,0.3,28.6C213.6,208.4,213.9,208.5,214.1,208.5z
						 M213.9,183.1c1.2,5.3,1.2,16.7,0.1,21.7C212.8,200.1,212.6,188.6,213.9,183.1z"/>
				</g>
				<g>
					<path class="st2" d="M202,166.7c1,1.3,2.9,1.6,6.1,1.6c10.1,0,20.1,0,30.2,0.1l24.4,0c6.7,0,13.3,0,20,0c3.2,0,6.4,0,9.6,0
						c2.5,0,4.3-0.3,5.2-1.5c1-1.3,0.5-3.2-0.1-5.1c-3-9.2-6.3-18.1-9.8-26.4c-0.9-2.1-4.2-4.4-6.5-4.4c-20.7-0.3-41.7-0.3-62.6-0.1
						c-2.4,0-5.7,2.2-6.6,4.3c-4,9.3-7.1,17.7-9.6,25.6C201.4,163.4,201.1,165.4,202,166.7z M204.2,161.3c2.5-7.8,5.6-16.1,9.6-25.4
						c0.6-1.4,3.2-3,4.7-3c20.9-0.2,41.9-0.2,62.6,0.1c1.5,0,4.1,1.7,4.6,3.1c3.4,8.2,6.7,17.1,9.7,26.3c0.6,1.7,0.7,2.8,0.4,3.2
						c-0.5,0.7-2.8,0.7-3.5,0.7c-9.9,0-19.7,0-29.6,0l-12.7,0l-11.7,0c-10,0-20.1,0-30.1-0.1c-1.9,0-4-0.1-4.4-0.7
						C203.2,164.8,203.8,162.8,204.2,161.3z"/>
				</g>
				<g>
					<path class="st2" d="M206.5,191.8c-1.1-1.4-2.2-2.9-3.7-3c-7.8-0.5-15.5-0.4-22.1-0.2c-1.6,0.1-3.4,2.7-3.3,4.3
						c0.1,1.6,2.4,3.5,3.9,3.6c2.9,0.2,5.9,0.2,8.8,0.2c1.3,0,2.6,0,4,0h12.1c0.4,0,0.7-0.2,0.9-0.5c0.2-0.3,0.3-0.6,0.4-0.8
						c0.1-0.3,0.3-0.5,0.4-0.8c0.2-0.4,0.1-0.9-0.2-1.2C207.3,192.9,206.9,192.4,206.5,191.8z M205.7,194.4c0,0.1-0.1,0.2-0.1,0.2
						h-11.5c-0.8,0-1.6,0-2.4,0c-0.5,0-1.1,0-1.6,0c-2.9,0-5.8,0-8.7-0.2c-0.7-0.1-1.9-1.2-2-1.6c0-0.6,1-2,1.4-2.1
						c6.5-0.2,14.2-0.4,21.9,0.1c0.5,0,1.5,1.3,2.2,2.2c0.3,0.4,0.6,0.8,0.9,1.2C205.8,194.3,205.7,194.4,205.7,194.4z"/>
				</g>
				<g>
					<path class="st2" d="M292.8,142.7l8.8,0c0.6,0,1-0.4,1-1l0-1.2c0-0.3-0.1-0.5-0.3-0.7c-0.2-0.2-0.5-0.3-0.7-0.3l-8.8,0
						c-0.5,0-1,0.4-1,0.9l-0.1,1.2c0,0.3,0.1,0.6,0.3,0.8C292.3,142.5,292.5,142.7,292.8,142.7z"/>
				</g>
				<g>
					<path class="st2" d="M285.9,179.6c-0.3,0-0.6,0.2-0.8,0.4c-2.7,3.8-2.6,24.2,0.1,28.4c0.2,0.3,0.5,0.5,0.8,0.5h0
						c0.3,0,0.6-0.2,0.8-0.4c2.9-4.2,2.8-25.6-0.2-28.6C286.5,179.7,286.1,179.5,285.9,179.6z M286.1,205
						c-1.2-5.3-1.2-16.7-0.1-21.8C287.2,188,287.4,199.6,286.1,205z"/>
				</g>
				<g>
					<path class="st2" d="M213.6,221.8c-0.3,0-0.6,0.2-0.7,0.4c-2.5,3.7-2.4,24.4,0.1,28.4c0.2,0.3,0.5,0.5,0.9,0.5
						c0.3,0,0.7-0.2,0.8-0.4c3.1-4.5,2.9-25.6-0.3-28.6C214.2,221.9,213.9,221.8,213.6,221.8z M213.9,247.2
						c-1.1-5.3-1.2-16.6-0.1-21.6C215,230.3,215.2,241.7,213.9,247.2z"/>
				</g>
			</g>
			<g>
				<g>
					<g>
						<path class="st2" d="M180.7,406.3c-8.2,0-16.3-4.5-21-12.3c-6-9.8-4.8-21.9,2.9-30.2c2.4-2.6,3.3-5,3.2-8.2
							c-0.1-2-0.1-4-0.1-6c0-2.1,0.1-4.2-0.1-6.3c-0.1-0.9-0.6-1.9-1.1-2.9c-0.3-0.5-0.5-1-0.7-1.6c-0.1-0.2-0.1-0.3-0.1-0.5
							c0.3-2.3,1.1-4,2.6-5.1c1.6-1.2,3.8-1.6,6.3-1.2c0.9,0.1,1.7,0.1,2.2,0c0.7-0.2,1.5-0.3,2.2-0.4c1.5-0.2,3.5-0.5,3.9-1.2
							c1.8-2.8,0.1-7.4-2.6-9.5c-2.3-1.7-4.6-3.5-6.7-6.1c-0.2-0.3-0.3-0.7-0.2-1c0.1-0.3,0.4-0.6,0.8-0.7
							c49.6-8.9,101.5-9.1,154.5-0.6c0.3,0.1,0.6,0.3,0.8,0.6l0.6,1.5c0.2,0.4,0.1,0.9-0.3,1.2l-2.1,1.6c-1.7,1.2-3.3,2.5-4.9,3.7
							c-2.6,2-4,7.5-2.6,10.1c0.2,0.4,1.2,0.8,2,0.9c2.7,0.2,5.9,0.3,9.1,0.1c4.5-0.4,7.4,1.7,9,6.5c0.1,0.3,0.1,0.6-0.1,0.9
							s-0.5,0.4-0.8,0.5c-3.4,0.3-3.8,2-3.6,5.8c0.1,2.3,0.1,4.6,0,6.7c-0.4,5.8,0.8,9.8,4.1,13.8c6.9,8.2,6.7,21.5-0.3,30.3
							c-7,8.8-18.4,11.9-29.7,8c-10.2-3.5-19.9-3.3-28.7,0.4c-3.8,1.6-7.8,1.5-12.3-0.4c-2.6-1.1-5.2-1.8-7.5-1.9
							c-6.6-0.4-11.9-0.4-16.6,0c-2,0.2-4,0.6-6,1.1c-2,0.5-4.1,1-6.2,1.2c-3.8,0.3-7.5-0.1-11.7-0.6c-1.2-0.2-2.4-0.5-3.6-0.9
							c-1.3-0.4-2.6-0.8-3.8-0.9l-0.5,0c-7.9-0.1-15.3-0.2-23,2.5C185.6,405.9,183.1,406.3,180.7,406.3z M165.7,338.3
							c0.2,0.4,0.4,0.8,0.6,1.2c0.6,1.2,1.2,2.4,1.3,3.7c0.1,2.2,0.1,4.4,0.1,6.5c0,1.9-0.1,3.9,0.1,5.8c0.2,3.8-0.9,6.7-3.7,9.7
							c-7,7.6-8.1,18.7-2.6,27.7c5.6,9.2,16.5,13.5,25.8,10.1c4.3-1.6,8.7-2.2,13-2.5l-0.4,0c-0.4,0-0.8-0.2-0.9-0.6l-0.6-1.2
							c-0.2-0.4-0.1-0.8,0.2-1.1c5.1-5.7,7.3-12.2,6.5-19.1c-0.3-2.5-0.9-5.2-1.9-7.9c-0.3-0.9-0.7-2.3-0.1-3.5
							c0.4-0.9,1.3-1.5,2.6-1.8l11.4-3.3c1.5-0.4,2.7-0.3,3.6,0.3c0.9,0.7,1.3,1.8,1.3,3.5c0,1.1,0,2.2,0,3.3c0,2.6,0.1,5.2-0.2,7.8
							c-0.2,1.9-1.5,4.2-3,5.4c-4.5,3.5-6.3,7.7-5.2,12.8c0.4,1.9,0.2,3.2-0.6,4.1c-0.5,0.6-1.2,0.9-2,1.1l0.4,0c1.5,0,3,0.5,4.4,1
							c1.1,0.4,2.2,0.7,3.2,0.8c4,0.5,7.7,0.9,11.2,0.6c1.9-0.2,3.9-0.6,5.9-1.1c2.1-0.5,4.2-1,6.4-1.2c0.1,0,0.1,0,0.2,0
							c-0.8,0-1.6,0-2.4-0.1c-0.6,0-1.2-0.4-1.9-1.1c-0.7-0.8-1.5-2.1-1.4-3.1c0.3-7.6,0.8-8.1,8.8-8.1l1.9,0c2.2,0,4.3,0,6.5,0
							c6.3,0.1,6.9,0.6,7.6,7.1c0.1,0.7,0.1,1.5,0.2,2.4l0.2,1.8c0,0.3-0.1,0.6-0.3,0.8c-0.2,0.2-0.5,0.3-0.8,0.3l0,0l-1,0
							c2.4,0.2,5,0.9,7.5,2c3.9,1.7,7.3,1.9,10.7,0.4c3.2-1.4,6.4-2.3,9.8-2.8c-0.8-0.3-1.5-1.1-1.8-1.5c-0.3-0.4-1.2-1.6-1-2.6
							c0.5-4.4-1.2-7.7-3.1-11.5c-0.4-0.8-0.8-1.6-1.2-2.4c-2.2-4.6-2.6-11.5-0.9-16.8c0.3-1,0.9-1.8,1.7-2.1c1.7-0.8,3.8,0.1,5.9,1
							c1,0.4,2,0.9,2.8,1c1.5,0.3,2.7,1.4,3.8,2.4c0.4,0.4,0.9,0.8,1.3,1.1c0.3,0.3,0.4,0.9,0.3,1.3c-2.4,14.9-2.4,14.9,4.3,28.9
							c0.2,0.3,0.1,0.7-0.1,1c-0.1,0.1-0.2,0.2-0.3,0.3c2.8,0.4,5.7,1.1,8.7,2.2c10.4,3.6,21,0.7,27.4-7.4
							c6.5-8.1,6.6-20.3,0.3-27.7c-3.6-4.3-5-8.9-4.6-15.2c0.1-2.1,0.1-4.3,0-6.5c-0.1-2.4-0.4-6.7,4.2-7.7c-0.4-1-0.9-1.8-1.5-2.4
							c0,0.1,0,0.1,0,0.2l0,1.3c0,0.5-0.4,1-0.9,1c-0.4,0.1-0.9,0.2-1.3,0.2c-1,0.2-2,0.4-3.1,0.4c-12,0-24.1,0-36.1,0l-0.7,0
							c-1.3,0-2.7,0-4-0.4c-8.7-3.1-17.9-3-26.8-2.8c-3.1,0.1-6.4,0.1-9.6,0l-1.2,0c-5.4-0.2-10.9-0.3-16.3,0.1
							c-4.5,0.3-9,0.9-13.4,1.5c-2.2,0.3-4.3,0.6-6.5,0.8l-1.6,0.2c-1.9,0.2-3.9,0.5-5.9,0.5c-12.2,0.1-24.2,0-34.4,0
							c-1.2,0-2.4-0.2-3.5-0.4c-0.5-0.1-1-0.2-1.5-0.2c-0.5-0.1-0.9-0.5-0.9-1.1l0.1-1.6C166.3,336.2,165.9,337.1,165.7,338.3z
							 M283.2,365.1c-0.2,0-0.4,0-0.6,0.1c-0.1,0-0.4,0.2-0.6,0.9c-1.5,4.8-1.2,11.1,0.8,15.3c0.4,0.8,0.8,1.6,1.2,2.4
							c2,4,4,7.7,3.3,12.7c0,0.5,1.1,1.9,1.6,2c2.2,0.3,4.5,0.2,7.1,0.2c0.5,0,1.1,0,1.6,0c-6.2-13.1-6.1-13.9-3.8-28.5
							c-0.3-0.3-0.6-0.6-1-0.9c-1-0.9-1.9-1.7-2.8-1.9c-1-0.2-2.1-0.7-3.2-1.1C285.6,365.7,284.2,365.1,283.2,365.1z M205.1,398.6
							c1.3,0,2.6,0,3.9,0.1c1.3,0,2.1-0.1,2.4-0.5c0.3-0.4,0.4-1.2,0.1-2.4c-1.2-5.9,0.8-10.9,6-14.9c1.1-0.8,2.1-2.6,2.2-4
							c0.3-2.5,0.2-5,0.2-7.5c0-1.1,0-2.2,0-3.3c0-1-0.2-1.6-0.5-1.9c-0.3-0.2-0.9-0.2-1.7,0l-11.4,3.3c-0.7,0.2-1.2,0.5-1.3,0.8
							c-0.2,0.4-0.1,1,0.2,1.9c1,2.8,1.6,5.6,1.9,8.3c0.9,7.3-1.3,14.1-6.5,20.1l2.1,0C203.5,398.6,204.3,398.6,205.1,398.6z
							 M249.5,390.3c-0.6,0-1.2,0-1.9,0l-1.9,0c-6.5,0-6.5,0-6.7,6.1c0,0.5,0.9,1.9,1.4,2c5,0.2,10.1,0.2,15.5,0.2l4,0l-0.1-0.7
							c-0.1-0.9-0.1-1.6-0.2-2.3c-0.6-5.2-0.6-5.2-5.6-5.2C252.6,390.3,251.1,390.3,249.5,390.3z M293.1,336.8c12,0,24.1,0.1,36.1,0
							c0.7,0,1.3-0.1,2.1-0.2c-1.1-0.2-2.1-0.3-3.2-0.3c-5.7,0-11.4,0-17.1-0.1c-5.6,0-11.2,0-16.8-0.1l-0.9,0c-2.1,0-4.4,0-6.4-0.6
							c-8.6-2.7-17.5-2.8-25.8-2.7c-6.2,0.1-12.4,0.1-18.6,0c-4.4,0-8.8,0-13.1,0c-1.6,0-3.2,0.2-4.8,0.4l-1.7,0.2
							c-2.5,0.3-5,0.6-7.5,0.9c-5.4,0.7-11,1.4-16.5,1.7c-5.8,0.3-11.6,0.2-17.3,0.2c-2.9,0-5.8-0.1-8.7-0.1c-1.1,0-2.1,0.1-3.3,0.3
							c1.1,0.2,2.1,0.3,3.1,0.3c10.1,0.1,22.1,0.1,34.3,0c1.9,0,3.8-0.3,5.7-0.5l1.7-0.2c2.2-0.3,4.3-0.5,6.5-0.8
							c4.4-0.6,9-1.2,13.5-1.5c5.5-0.4,11.1-0.2,16.5-0.1l1.2,0c3.2,0.1,6.4,0,9.5,0c9.1-0.2,18.4-0.3,27.5,2.9
							c0.9,0.3,2.1,0.3,3.3,0.3L293.1,336.8z M327.5,334.3c0.2,0,0.4,0,0.6,0c1.3,0,2.6,0.2,3.8,0.4c0.5,0.1,1,0.2,1.5,0.2
							c-1-0.6-2.3-0.9-3.9-0.7C328.8,334.2,328.1,334.2,327.5,334.3z M170.8,333.9c-1.1,0-2,0.2-2.8,0.6c0.4,0,0.9-0.1,1.3-0.1
							c1.2-0.1,2.3-0.3,3.5-0.3c0,0,0.1,0,0.1,0c-0.2,0-0.4,0-0.7-0.1C171.8,333.9,171.3,333.9,170.8,333.9z M273,331
							c4.8,0.3,9.7,1.1,14.5,2.6c1.8,0.6,3.8,0.6,5.8,0.6l0.9,0c5.6,0,11.2,0,16.8,0.1c4,0,7.9,0,11.9,0c-1,0-1.9-0.1-2.8-0.1
							c-1.3-0.1-3-0.8-3.7-1.9c-0.1-0.3-0.3-0.5-0.4-0.8c-0.2,0.4-0.4,0.8-0.7,1.1c-0.8,0.9-2,1.4-3.6,1.4c0,0-0.1,0-0.1,0
							c-4.3,0-4.5-3.6-4.6-5.4c-0.2-3.4,1.8-7.3,5.2-10.3c-0.1,0.1-0.3,0.2-0.4,0.3c-4.2,2.4-5.8,5.5-5.2,9.8
							c0.1,0.9,0.2,2.6-0.7,3.4c-1,0.9-2.6,2.1-4.2,2.1c-1.4,0-3.7-1.4-3.9-2.8c-0.7-3.9-1.5-8.3,3.1-11.3c1.2-0.8,2.4-1.7,3.5-2.6
							c1.4-1.1,2.8-2.1,4.3-3.1c1-0.6,2.2-0.9,3.4-1.1c0.3-0.1,0.6-0.1,1-0.2c-2.6-0.4-5.3-0.7-7.9-1c0.3,0,0.6,0.2,1,0.3
							c0.3,0.1,0.7,0.3,1.2,0.5c0.4,0.1,0.6,0.4,0.7,0.8c0.1,0.4-0.1,0.7-0.4,1c-0.6,0.5-1.2,1-1.7,1.5c-1,0.9-2,1.7-3,2.3
							c-4.8,2.8-6.6,6-6,10.8c0.2,1.8-2,4.1-3.6,4.8c-1,0.5-2.6-0.2-3.2-0.5c-0.8-0.4-1.8-1.1-2-2c-0.9-4.6-0.8-7,0.5-8.1
							c3.7-3.2,7.8-5.9,11.8-8.5c1.3-0.8,2.5-1.7,3.8-2.5c0.3-0.2,0.5-0.2,0.8-0.2c-2.2-0.3-4.4-0.5-6.6-0.7
							c0.1,0.1,0.2,0.2,0.3,0.4l0.6,1.4c0.2,0.4,0,0.9-0.3,1.2c-0.7,0.5-1.4,1.1-2.1,1.6c-1.6,1.2-3.2,2.5-4.9,3.6
							c-3.5,2.1-4.9,4.6-4.7,8.3c0.1,1.7-1.8,4.7-3.4,4.9c-1.7,0.2-3.3-0.3-4.3-1.3c-0.7-0.7-1.4-1.9-1.2-3.9
							c0.3-2.4,0.7-4.8,2.2-6.1c4-3.5,8.5-6.6,12.4-9.2c1-0.7,2.2-0.8,3.4-0.9c0.3,0,0.5-0.1,0.8-0.1c-2.2-0.2-4.4-0.4-6.6-0.6
							l0.4,1.8c0.1,0.4,0,0.8-0.4,1.1c-0.9,0.7-1.8,1.3-2.7,2c-2,1.6-4.2,3.2-6.3,4.7c-2.8,1.9-3.9,3.8-3.7,6.3
							c0.1,1.5-0.3,2.8-1.2,3.6C275.9,330.4,274.6,330.9,273,331z M174.7,334.1c2.3,0,4.6,0,6.9,0.1c5.6,0.1,11.5,0.1,17.2-0.2
							c2.4-0.1,4.7-0.3,7.1-0.6c-1.3-0.3-3.5-1.9-3.3-3.3c0.9-6.1-2.3-9.5-6.5-12.6c0.4,0.4,0.9,0.8,1.3,1.3c3.4,3.8,5,8,4.3,11.2
							c-0.4,1.6-2.5,3.3-4.1,3.5c-1.3,0.1-3.4-1.1-4.2-1.9c-0.4-0.4-0.6-0.8-0.5-1.3c1-6.8-3-10.6-7.8-14c1.4,1.1,2.6,2.4,3.6,3.6
							c3.1,3.9,4.2,8,3,11c-0.5,1.3-2.4,2.7-3.8,2.7h0c-1.3,0-4-0.9-4.5-2.5c-0.1-0.2-0.1-0.5-0.2-0.7c-0.2,0.4-0.4,0.8-0.6,1.2
							c-1,1.5-3.2,1.8-5.3,2.1c-0.7,0.1-1.4,0.2-2.1,0.4C175.1,334,174.9,334,174.7,334.1z M204.7,316.9c0.1,0,0.1,0.1,0.2,0.1
							c4.2,3.5,6.7,7.4,6.6,10.5c0,1.5-0.1,3.2-1,4.4c-0.4,0.5-1.1,0.9-1.8,1.2c1.9-0.2,3.9-0.5,5.8-0.7c-0.9-0.4-1.7-1.1-1.8-1.2
							c-0.7-0.6-1-1.2-0.9-1.8C212.7,323.1,209,320,204.7,316.9z M214.7,317.3c1.3,1.1,2.6,2.2,3.8,3.4c1.4,1.5,2.1,4.2,2.1,8.3
							c0,1.3-1.6,2.4-3,3c1.7-0.2,3.3-0.4,5-0.6l1.7-0.2c1.2-0.1,2.3-0.3,3.5-0.4c-0.6,0-1.2,0-1.8,0c-1.4,0-3.1-1.3-3.9-2.1
							c-0.6-0.7-1-1.3-0.9-1.9c0.3-4.4-2.4-6.5-5.8-8.9C215.2,317.7,215,317.5,214.7,317.3z M321.2,316c-2.5,0.2-5.2,1.5-7.5,3.6
							c-2.9,2.6-4.6,5.9-4.5,8.7c0.1,2.6,0.5,3.5,2.5,3.5h0.1c0.9,0,1.6-0.2,2-0.7c0.6-0.6,0.6-1.7,0.5-2.5
							c-0.6-5.4,1.5-9.4,6.4-12.2C320.9,316.2,321,316.1,321.2,316z M304.8,313.9c-1,0.7-2.1,1.4-3.1,2.1c-3.9,2.6-8,5.3-11.6,8.4
							c-0.2,0.1-0.9,1.1,0.2,6.2c0.2,0.3,1.8,1.1,2.3,1c1.1-0.5,2.4-2.1,2.3-2.7c-0.6-5.6,1.6-9.6,7-12.8c0.9-0.5,1.7-1.2,2.7-2.1
							C304.7,314,304.7,313.9,304.8,313.9z M312.9,314.7c-0.1,0-0.2,0-0.3,0.1c-1,0.2-2,0.4-2.7,0.9c-1.4,0.9-2.8,2-4.2,3
							c-1.2,0.9-2.4,1.8-3.6,2.7c-3.4,2.3-2.9,5.5-2.2,9.1c0.2,0.4,1.3,1.2,1.8,1.2h0c0.7,0,1.8-0.6,2.8-1.6c0.1-0.1,0.2-0.7,0-1.6
							c-0.7-5.1,1.3-9,6.2-11.8c0.7-0.4,1.3-1,1.9-1.7C312.8,314.8,312.9,314.7,312.9,314.7z M204.7,330.2c0.3,0.4,1.2,1.1,1.8,1.2
							c0.7,0.1,2-0.3,2.4-0.8c0.5-0.6,0.5-2,0.5-3.1c0.1-2.4-2.3-5.8-5.9-8.9c-3-2.5-6.2-4.1-8.6-4.6
							C200.3,317.8,205.9,321.7,204.7,330.2z M177.9,315.4c0.4,0.3,0.8,0.6,1.2,0.9c1.8,1.3,3.7,2.7,4.7,4.6c0.9,1.8,1,3.8,1.2,5.8
							c0.1,1.3,0.2,2.6,0.5,3.8c0.2,0.3,1.6,1,2.5,1h0c0.6,0,1.7-0.8,1.9-1.4c0.9-2.3-0.1-5.7-2.7-9
							C184.4,317.5,180.8,315.4,177.9,315.4z M195.1,330.2c0.5,0.5,1.9,1.2,2.4,1.2c0.7-0.1,2-1.2,2.2-1.9c0.6-2.5-0.9-6.1-3.8-9.3
							c-2.9-3.2-6.5-5.3-9.4-5.5C191.6,318.3,196.1,322.6,195.1,330.2z M213.8,329.5c0.3,0.4,1.3,1.1,1.7,1.1c1.2-0.3,2.8-1.4,3-1.8
							c0-3.4-0.5-5.6-1.5-6.7c-3.2-3.2-7.2-5.9-11-8.4l-0.7-0.5c-0.7-0.5-1.8-0.6-2.9-0.8c-0.1,0-0.2,0-0.3,0c0.4,0.4,0.7,0.7,1.1,1
							l1.4,1C209.7,317.9,214.9,321.5,213.8,329.5z M297,312.7c-0.2,0-0.3,0-0.5,0.1c-1,0.1-1.9,0.2-2.5,0.6
							c-3.8,2.6-8.2,5.6-12.2,9c-1.1,0.9-1.4,3.6-1.5,4.8c-0.1,1,0.1,1.7,0.6,2.2c0.6,0.6,1.5,0.9,2.6,0.7c0.5-0.2,1.7-1.9,1.6-2.8
							c-0.2-4.5,1.6-7.7,5.7-10.2c1.6-1,3.2-2.2,4.7-3.4C296.1,313.4,296.6,313.1,297,312.7z M210.3,311.3c0.5,0.4,1.1,0.8,1.6,1.3
							c1.5,1.2,3.1,2.4,4.7,3.5c3.7,2.6,7,5.3,6.7,10.7c0.2,0.5,2,1.9,2.8,1.9c12.4,0.2,25.1,0.2,37.4,0.2l8.9,0h0
							c1.4,0,2.4-0.3,2.9-0.8c0.4-0.5,0.6-1.2,0.6-2.1c-0.2-4.2,2.4-6.5,4.6-8.1c2.1-1.5,4.2-3.1,6.3-4.6c0.7-0.5,1.4-1.1,2.1-1.6
							l-0.1-0.5c-25.7-1.5-52-1.6-78.3-0.2L210.3,311.3z M314.6,312.7c0.1,0.1,0.1,0.2,0.2,0.3l0.6,1.3c0.2,0.4,0.1,0.9-0.2,1.2
							c-0.3,0.3-0.6,0.6-0.9,0.9c-0.2,0.2-0.5,0.5-0.7,0.7c2.9-2.2,6.2-3.4,9.2-3.1C320,313.5,317.3,313.1,314.6,312.7z
							 M323.8,314.1c0.3,0.1,0.5,0.3,0.6,0.6c0.1,0.4,0,0.8-0.2,1c-0.3,0.3-0.5,0.5-0.7,0.8c0.3-0.3,0.7-0.5,1-0.8l1.5-1.1l-0.1-0.2
							C325.2,314.3,324.5,314.2,323.8,314.1z M203.9,310.7c0.9,0.2,1.8,0.4,2.5,0.9l0.7,0.5c1.7,1.1,3.5,2.3,5.2,3.5
							c-0.6-0.4-1.1-0.9-1.7-1.3c-0.7-0.6-1.4-1.1-2.1-1.7c-0.3-0.2-0.5-0.7-0.4-1.1l0.3-1.3C207,310.4,205.5,310.5,203.9,310.7z
							 M180.7,313.7c1.2,0.4,2.4,1,3.6,1.8c-0.4-0.4-0.4-0.9-0.4-1.2c0-0.3,0-0.7,0.2-1c0,0,0.1-0.1,0.1-0.1
							C183,313.4,181.8,313.6,180.7,313.7z M187.5,312.7c1.5,0.3,3.2,0.9,4.8,1.8c-0.1-0.2-0.2-0.3-0.3-0.5
							c-0.1-0.2-0.2-0.3-0.3-0.5c-0.2-0.3-0.3-0.7-0.1-1c0.1-0.3,0.3-0.5,0.6-0.6C190.6,312.3,189.1,312.5,187.5,312.7z
							 M193.7,311.9c2.4,0,5.2,1.1,7.7,2.7c-0.3-0.3-0.6-0.6-0.9-0.9c-0.2-0.2-0.4-0.4-0.6-0.6c-0.3-0.3-0.4-0.7-0.3-1.1l0.3-0.8
							c-2.1,0.2-4.2,0.5-6.3,0.8C193.6,311.9,193.6,311.9,193.7,311.9z M225.3,401.1c-0.1,0-0.3,0-0.4,0c-4.4-0.2-7.6-3.8-7.5-8.4
							c0.1-4.8,3.2-8,7.8-8c0,0,0.1,0,0.1,0c2.3,0,4.4,0.9,5.9,2.4c1.5,1.5,2.3,3.6,2.2,5.9l0,0c0,2.3-1,4.4-2.6,5.9
							C229.3,400.3,227.4,401.1,225.3,401.1z M225.2,386.8c-3.5,0-5.7,2.3-5.7,5.9c-0.1,3.6,2.2,6.2,5.6,6.3
							c1.7,0.1,3.2-0.5,4.4-1.6c1.2-1.1,1.9-2.7,1.9-4.5c0-1.8-0.5-3.3-1.6-4.5C228.6,387.4,227,386.8,225.2,386.8
							C225.2,386.8,225.2,386.8,225.2,386.8z M273.7,401.1C273.7,401.1,273.7,401.1,273.7,401.1c-4.6,0-8.5-3.9-8.5-8.2
							c0-4.3,3.6-7.9,8-8.1c2.4-0.1,4.6,0.7,6.2,2.2c1.5,1.4,2.4,3.4,2.4,5.7l0,0c0,2.3-0.8,4.5-2.4,6.1
							C277.8,400.2,275.8,401.1,273.7,401.1z M273.6,386.8c-0.1,0-0.2,0-0.3,0c-3.3,0.1-6,2.8-6,6c0,3.3,3,6.1,6.4,6.2
							c0,0,0,0,0.1,0c1.6,0,3-0.6,4.2-1.8c1.2-1.2,1.9-2.8,1.8-4.6l0,0c0-1.7-0.6-3.2-1.8-4.2C276.8,387.4,275.3,386.8,273.6,386.8z
							 M317.5,398.1c-4.5,0-8.8-1.8-12.1-5c-3.3-3.2-5.1-7.5-5.1-12.1c-0.1-9,7.8-17.1,16.8-17.3c4.4-0.1,8.9,1.6,12.3,4.9
							c3.4,3.2,5.2,7.5,5.3,12.1c0.1,4.6-1.6,9-4.9,12.2c-3.2,3.3-7.5,5.1-12.1,5.2l0,0C317.7,398.1,317.6,398.1,317.5,398.1z
							 M317.5,365.8c-0.1,0-0.2,0-0.3,0c-7.9,0.2-14.9,7.3-14.8,15.2c0,4,1.6,7.8,4.5,10.6c2.9,2.8,6.7,4.4,10.6,4.4
							c0.1,0,0.1,0,0.2,0l0,0c4.1,0,7.9-1.7,10.7-4.6c2.8-2.9,4.3-6.7,4.3-10.8c-0.1-4-1.7-7.8-4.7-10.6
							C325.1,367.3,321.4,365.8,317.5,365.8z M181.4,397.9c-0.1,0-0.2,0-0.3,0c-9.5-0.2-16.7-7.5-16.6-17.2l0,0
							c0-4.8,1.9-9.3,5.2-12.5c3.2-3.1,7.4-4.7,12-4.7c9.6,0.2,16.7,7.8,16.6,17.7c-0.1,4.6-1.8,8.8-5,11.9
							C190.1,396.3,185.9,397.9,181.4,397.9z M166.5,380.8c-0.1,8.5,6.2,15,14.6,15.1c0.1,0,0.2,0,0.3,0c4,0,7.7-1.5,10.5-4.1
							c2.8-2.7,4.3-6.4,4.4-10.4c0.1-8.8-6.2-15.5-14.6-15.7c-4-0.1-7.7,1.4-10.5,4.1C168.2,372.6,166.5,376.5,166.5,380.8
							L166.5,380.8z M252.7,387.7c-0.9,0-1.9,0-2.8-0.1c-1.5,0-3-0.1-4.4,0c-4.5,0.2-9.2-0.2-13.2-4.5c-0.6-0.7-1.7-1-2.8-1.4
							c-1.1-0.4-2.3-0.8-3.2-1.5c-1.6-1.2-3.2-3.5-3.1-5.5c0-1.8,3-4,4.8-4c5.7-0.2,11.5-0.2,17.1-0.1c1.9,0,3.8,0,5.6,0
							c0.1,0,0.2,0,0.2,0l0,0l6.6,0c5,0,10,0,15,0h0c2.5,0,5.8,0.5,6,5.1c0.2,3.9-2.3,4.4-4.5,4.9l-0.7,0.2
							c-1.9,0.4-3.6,1.3-5.5,2.2c-1,0.5-2.1,1-3.1,1.5c-0.6,0.3-1.2,0.5-1.8,0.8c-2,0.9-4.1,1.8-6.3,2.2
							C255.3,387.6,254,387.7,252.7,387.7z M247.2,385.5c0.9,0,1.9,0,2.8,0.1c2.2,0.1,4.3,0.1,6.3-0.2c1.9-0.3,3.8-1.1,5.7-2
							c0.6-0.3,1.3-0.6,1.9-0.8c1-0.4,2-0.9,3-1.4c1.9-0.9,3.8-1.9,5.9-2.4l0.7-0.2c2.2-0.5,3-0.7,2.9-2.8c-0.1-2.4-1.1-3.1-4-3.1h0
							c-5,0-10,0-15,0l-6.3,0c-0.1,0-0.2,0-0.3,0l0,0c-2,0-3.9,0-5.9,0c-5.6,0-11.3-0.1-17,0.1c-0.9,0-2.7,1.5-2.8,2.1
							c0,1,1,2.8,2.3,3.8c0.7,0.5,1.6,0.8,2.7,1.2c1.3,0.5,2.7,0.9,3.7,2c3.2,3.5,7,4,11.6,3.8C246,385.5,246.6,385.5,247.2,385.5z
							 M275.5,369.4L275.5,369.4l-49.8-0.1c-0.5,0-1-0.4-1-0.9l-0.1-0.9c0-0.3,0.1-0.6,0.2-0.8c0.2-0.2,0.5-0.3,0.8-0.3l0,0
							l49.9,0.1c0.6,0,1,0.5,1,1l0,0.9c0,0.3-0.1,0.5-0.3,0.7C276.1,369.3,275.8,369.4,275.5,369.4z M254.6,365.4
							c-6.3,0-12.5,0-18.6-0.1l-10.7,0c-0.6,0-1-0.5-1-1l0-1.7c0-0.3,0.1-0.5,0.3-0.7c0.2-0.2,0.5-0.3,0.7-0.3l0,0l50.6,0.1
							c0.6,0,1,0.5,1,1l0,1.6c0,0.6-0.4,1-1,1C268.8,365.3,261.7,365.4,254.6,365.4z"/>
					</g>
				</g>
			</g>
		</g>
		<g>
			<g>
				<g>
					<path class="st2" d="M188.9,380.7c0.1,3.9-3.1,7.2-7.1,7.4c-4.2,0.2-7.8-3-7.9-7c-0.1-4.1,3.3-7.6,7.4-7.8
						C185.2,373.2,188.8,376.6,188.9,380.7z"/>
				</g>
			</g>
			<g>
				<g>
					<path class="st2" d="M181.4,389.2c-2.2,0-4.4-0.8-6-2.3c-1.6-1.5-2.6-3.5-2.6-5.7c-0.1-2.2,0.8-4.4,2.4-6.1
						c1.6-1.7,3.8-2.7,6-2.7c2.2-0.1,4.4,0.8,6.1,2.4c1.7,1.6,2.6,3.7,2.7,6v0c0.1,4.5-3.5,8.3-8.1,8.5
						C181.7,389.1,181.5,389.2,181.4,389.2z M181.4,374.3c-0.1,0-0.1,0-0.2,0c-1.7,0-3.3,0.8-4.5,2.1c-1.2,1.3-1.9,2.9-1.8,4.6
						c0,1.6,0.7,3.1,2,4.3c1.3,1.2,3.1,1.8,4.9,1.8c3.4-0.2,6.2-3.1,6.2-6.4l0,0c0-1.7-0.8-3.3-2.1-4.6
						C184.6,375,183,374.3,181.4,374.3z"/>
				</g>
			</g>
		</g>
		<g>
			<g>
				<g>
					<path class="st2" d="M278.4,393.7c-1.6,1.1-3.2,3-4.8,2.9c-1.3,0-3.8-2.5-3.6-3.5c0.2-1.6,2.2-4,3.6-4.2c1.5-0.2,3.2,1.9,4.9,3
						C278.4,392.5,278.4,393.1,278.4,393.7z"/>
				</g>
			</g>
			<g>
				<g>
					<path class="st2" d="M273.6,397.6L273.6,397.6c-1.3,0-2.8-1.2-3.6-2.2c-0.8-0.9-1.2-1.8-1.1-2.5c0.3-2,2.5-4.8,4.5-5
						c1.4-0.2,2.8,0.9,4.1,2c0.5,0.4,1,0.8,1.4,1.1c0.3,0.2,0.5,0.5,0.5,0.8l0,1.8c0,0.3-0.2,0.7-0.5,0.9c-0.5,0.3-0.9,0.7-1.4,1.1
						C276.3,396.6,275,397.6,273.6,397.6z M273.7,389.9C273.7,389.9,273.7,389.9,273.7,389.9c-0.9,0.1-2.6,2-2.8,3.3
						c0.1,0.6,1.9,2.4,2.6,2.4h0c0.7,0,1.7-0.8,2.7-1.6c0.4-0.3,0.7-0.6,1.1-0.8v-0.7c-0.4-0.3-0.8-0.6-1.1-0.9
						C275.4,390.8,274.3,389.9,273.7,389.9z"/>
				</g>
			</g>
		</g>
		<g>
			<g>
				<g>
					<path class="st2" d="M224.2,397.4c-1-1.6-2.9-3.3-2.7-4.9c0.1-1.4,2.6-3.9,3.7-3.7c1.7,0.3,3.9,2.3,4.1,3.9
						c0.2,1.4-2,3.1-3.1,4.7C225.5,397.5,224.8,397.4,224.2,397.4z"/>
				</g>
			</g>
			<g>
				<g>
					<path class="st2" d="M226.1,398.5L226.1,398.5l-1.9,0c-0.4,0-0.7-0.2-0.9-0.5c-0.3-0.5-0.6-0.9-1-1.4c-1-1.3-2-2.6-1.9-4.1
						c0.1-1.4,1.6-3.1,2.6-3.8c0.8-0.6,1.6-0.9,2.2-0.8c2,0.4,4.6,2.7,4.9,4.7c0.2,1.4-1,2.8-2.1,4.1c-0.4,0.5-0.8,0.9-1.2,1.4
						C226.8,398.3,226.5,398.5,226.1,398.5z M224.8,396.4l0.9,0c0.3-0.4,0.6-0.8,1-1.1c0.7-0.8,1.7-1.9,1.6-2.4
						c-0.2-1.1-2-2.8-3.3-3c-0.6,0.1-2.4,2-2.4,2.8c-0.1,0.7,0.8,1.7,1.5,2.7C224.2,395.7,224.5,396.1,224.8,396.4z"/>
				</g>
			</g>
		</g>
	</g>
</g>
</svg>
