<?xml version="1.0" encoding="utf-8"?>
<!-- Generator: Adobe Illustrator 19.1.0, SVG Export Plug-In . SVG Version: 6.00 Build 0)  -->
<svg version="1.1" id="Layer_1" xmlns="http://www.w3.org/2000/svg" xmlns:xlink="http://www.w3.org/1999/xlink" x="0px" y="0px"
	 viewBox="0 0 500 500" style="enable-background:new 0 0 500 500;" xml:space="preserve">
<style type="text/css">
	.st0{fill:#F8B017;}
	.st1{fill:none;}
	.st2{fill:#F5AF19;}
	.st3{fill:#E5D7C8;}
	.st4{fill:#F4AE19;}
	.st5{fill:#F7AF17;}
	.st6{fill:#0FA2D4;}
</style>
<g>
	<g>
		<path class="st1" d="M113.4,302c0.2,0.4,0.3,1.1,0.6,1.2c0.6,0.2,0.9-0.3,0.9-0.9c0-0.2,0.1-0.5,0.3-0.7c1.9-2,3.9-3.9,6-6
			c1,1.2,1.9,2.4,2.8,3.5c1,1.2,1,1.2,2.2,0.2c0.9-0.8,1.8-1.5,2.8-2.3c-1.1-1.4-2.2-2.7-3.4-4.2c3.5-1.7,6.9-3.3,10.3-4.9
			c11.6-5.5,23.2-11.1,34.8-16.6c18.1-8.6,36.2-17.3,54.3-25.9c17.1-8.1,34.2-16.3,51.2-24.4c17.4-8.3,34.8-16.6,52.2-24.9
			c0.7-0.3,0.8-0.7,0.5-1.4c-0.5-0.9-0.9-1.9-1.4-3.1c2.4-1.1,4.7-2.2,7-3.3c0.9,1.4,1.7,2.8,2.5,4.2c1.5-0.7,2.9-1.4,4.4-2.1
			c0.2,0.3,0.4,0.6,0.7,1c-0.5,0.2-0.8,0.4-1.2,0.6c-10.5,5-21.1,10-31.6,15.1c-18.7,9.2-37.3,18.5-55.9,27.9
			c-14,7-28,14.2-41.9,21.3c-5.2,2.7-10.3,5.6-15.5,8.3c-3.8,2-6.6,4.9-9,8.4c-3.1,4.5-6.2,9-9.7,13.3c-4.9,6-11.2,10.4-17.9,14.2
			c-8,4.5-16.3,8.1-25.1,10.3c-5.2,1.3-10.4,2-15.7,1.8c-4.6-0.2-9-1.1-13-3.4c-0.4-0.2-0.8-0.5-1.1-0.7c-3.4-1.8-4.4-4.7-3.8-8.3
			c0.6-4.1,2.5-7.6,5.4-10.7c5.5-5.8,11.4-11,18.1-15.3c7.7-5.1,16.1-8.6,25-11c7.6-2.1,15.5-3,23.3-3.4c0.4,0,0.8,0,1.2,0
			c0,0,0.1,0.1,0.3,0.2c-1.7,0.8-3.3,1.6-4.9,2.3c-15.9,7.5-31.8,15-47.7,22.6c-1.1,0.5-1.8,0.5-2.4-0.6c-0.3-0.4-0.6-0.8-1.1-1.3
			c-1.3,1.1-2.5,2.1-3.7,3.3c0.5,0.6,0.8,1.1,1.2,1.6c0.1,0.1,0.1,0.2,0.2,0.3c-1.6,1.4-3.1,2.8-4.7,4.2c-0.8,0.8-1.6,1.6-2.4,2.4
			c-0.2,0.2-0.5,0.4-0.8,0.6c-0.3,0.3-0.7,0.6-1,0.9c0.3,0.3,0.7,0.6,1.2,1.1c0.1,0.8,0.3,0.9,1.4,0.7l0,0c0,0.6-0.3,1.3,0.6,1.4
			c0.7,0.1,0.9-0.4,0.9-1c0-0.2,0.2-0.4,0.3-0.6c2.2-2.2,4.4-4.4,6.7-6.7c0.4,0.4,0.6,0.7,1,1.1c-1.6,1.5-3,3-4.6,4.5
			c-1,0.9-2.1,1.7-3.2,2.6c-0.2,0.2-0.3,0.6-0.2,0.9c0.1,0.2,0.5,0.5,0.7,0.5c0.3-0.1,0.6-0.4,0.8-0.6c0.4-0.5,0.5-1.2,1-1.6
			c2-1.9,4-3.7,6.1-5.6c0.1,0.1,0.4,0.4,1,1c-0.9,0.7-1.7,1.3-2.5,2c-1.3,1.3-2.6,2.6-3.9,3.9c-0.2,0.2-0.5,0.5-0.8,0.6
			c-0.6,0.1-1.2,0.4-0.9,1.1C112.2,301.8,112.9,301.8,113.4,302L113.4,302z"/>
	</g>
	<g>
		<path class="st1" d="M113.4,302c0.2,0.4,0.3,1.1,0.6,1.2c0.6,0.2,0.9-0.3,0.9-0.9c0-0.2,0.1-0.5,0.3-0.7c1.9-2,3.9-3.9,6-6
			c1,1.2,1.9,2.4,2.8,3.5c1,1.2,1,1.2,2.2,0.2c0.9-0.8,1.8-1.5,2.8-2.3c-1.1-1.4-2.2-2.7-3.4-4.2c3.5-1.7,6.9-3.3,10.3-4.9
			c11.6-5.5,23.2-11.1,34.8-16.6c18.1-8.6,36.2-17.3,54.3-25.9c17.1-8.1,34.2-16.3,51.2-24.4c17.4-8.3,34.8-16.6,52.2-24.9
			c0.7-0.3,0.8-0.7,0.5-1.4c-0.5-0.9-0.9-1.9-1.4-3.1c2.4-1.1,4.7-2.2,7-3.3c0.9,1.4,1.7,2.8,2.5,4.2c1.5-0.7,2.9-1.4,4.4-2.1
			c0.2,0.3,0.4,0.6,0.7,1c-0.5,0.2-0.8,0.4-1.2,0.6c-10.5,5-21.1,10-31.6,15.1c-18.7,9.2-37.3,18.5-55.9,27.9
			c-14,7-28,14.2-41.9,21.3c-5.2,2.7-10.3,5.6-15.5,8.3c-3.8,2-6.6,4.9-9,8.4c-3.1,4.5-6.2,9-9.7,13.3c-4.9,6-11.2,10.4-17.9,14.2
			c-8,4.5-16.3,8.1-25.1,10.3c-5.2,1.3-10.4,2-15.7,1.8c-4.6-0.2-9-1.1-13-3.4c-0.4-0.2-0.8-0.5-1.1-0.7c-3.4-1.8-4.4-4.7-3.8-8.3
			c0.6-4.1,2.5-7.6,5.4-10.7c5.5-5.8,11.4-11,18.1-15.3c7.7-5.1,16.1-8.6,25-11c7.6-2.1,15.5-3,23.3-3.4c0.4,0,0.8,0,1.2,0
			c0,0,0.1,0.1,0.3,0.2c-1.7,0.8-3.3,1.6-4.9,2.3c-15.9,7.5-31.8,15-47.7,22.6c-1.1,0.5-1.8,0.5-2.4-0.6c-0.3-0.4-0.6-0.8-1.1-1.3
			c-1.3,1.1-2.5,2.1-3.7,3.3c0.5,0.6,0.8,1.1,1.2,1.6c0.1,0.1,0.1,0.2,0.2,0.3c-1.6,1.4-3.1,2.8-4.7,4.2c-0.8,0.8-1.6,1.6-2.4,2.4
			c-0.2,0.2-0.5,0.4-0.8,0.6c-0.3,0.3-0.7,0.6-1,0.9c0.3,0.3,0.7,0.6,1.2,1.1c0.1,0.8,0.3,0.9,1.4,0.7l0,0c0,0.6-0.3,1.3,0.6,1.4
			c0.7,0.1,0.9-0.4,0.9-1c0-0.2,0.2-0.4,0.3-0.6c2.2-2.2,4.4-4.4,6.7-6.7c0.4,0.4,0.6,0.7,1,1.1c-1.6,1.5-3,3-4.6,4.5
			c-1,0.9-2.1,1.7-3.2,2.6c-0.2,0.2-0.3,0.6-0.2,0.9c0.1,0.2,0.5,0.5,0.7,0.5c0.3-0.1,0.6-0.4,0.8-0.6c0.4-0.5,0.5-1.2,1-1.6
			c2-1.9,4-3.7,6.1-5.6c0.1,0.1,0.4,0.4,1,1c-0.9,0.7-1.7,1.3-2.5,2c-1.3,1.3-2.6,2.6-3.9,3.9c-0.2,0.2-0.5,0.5-0.8,0.6
			c-0.6,0.1-1.2,0.4-0.9,1.1C112.2,301.8,112.9,301.8,113.4,302L113.4,302z"/>
	</g>
	<g>
		<path class="st1" d="M309.1,222.7c0.5,0.4,0.9,0.7,1.4,1.1c4.9,3.4,10.3,3.8,16,2.5c6.2-1.5,11.2-4.8,14.5-10.3
			c1.7-2.9,2.6-6.1,2.2-9.5c-0.1-0.7,0.1-1,0.8-1.3c1.7-0.7,3.4-1.5,5.1-2.4c0.8-0.4,1.6-0.4,2.4,0c5,2.2,7.7,6.2,8.5,11.4
			c1.1,7,0.6,13.8-2.3,20.3c-0.4,1-1,1.9-1.5,2.8c-1.1,2.1-3.2,3-5.2,3.7c-13,5-25.1,3.5-36-5.3c-3.7-3-5.7-7.2-6.1-12
			c0-0.2,0-0.4,0-0.7C308.9,223,309,222.9,309.1,222.7z M337.2,243.9c0.6-0.7,1-1.1,1.1-1.6c0.1-0.7-0.3-1.1-1-1.1
			c-0.7,0-1.3,0.3-1.2,1.1C336.1,242.7,336.7,243.1,337.2,243.9z M334.1,230.4c0.2,0,0.3,0,0.5,0c0.3-0.4,0.9-0.9,0.8-1.2
			c-0.1-0.4-0.7-1-1.1-1c-0.4,0-1,0.6-1.1,1C333.2,229.5,333.8,230,334.1,230.4z M319,231.9c0-0.2,0-0.3,0-0.5
			c-0.4-0.3-0.8-0.9-1.2-0.9c-0.4,0-0.8,0.6-1.2,1c0.4,0.4,0.7,1,1.1,1.1C318.1,232.7,318.6,232.1,319,231.9z M349.6,232.9
			c0,0.2,0,0.3,0,0.5c0.4,0.3,0.9,0.9,1.2,0.8c0.4,0,1-0.6,1.1-1c0.2-0.6-0.3-1.2-1-1.1C350.5,232.2,350.1,232.6,349.6,232.9z
			 M356.9,213.5c-0.7-0.5-1.2-1-1.6-1c-0.4,0-0.7,0.6-1.1,1c0.4,0.4,0.8,1,1.3,1.1C355.7,214.7,356.2,214.1,356.9,213.5z
			 M346.8,219.6c-0.5,0.7-1.1,1.1-1,1.4c0.1,0.4,0.6,1.1,1,1.2c0.7,0.2,1.2-0.4,1.1-1.1C347.8,220.7,347.3,220.3,346.8,219.6z"/>
	</g>
	<g>
		<path class="st1" d="M309.1,222.7c0.5,0.4,0.9,0.7,1.4,1.1c4.9,3.4,10.3,3.8,16,2.5c6.2-1.5,11.2-4.8,14.5-10.3
			c1.7-2.9,2.6-6.1,2.2-9.5c-0.1-0.7,0.1-1,0.8-1.3c1.7-0.7,3.4-1.5,5.1-2.4c0.8-0.4,1.6-0.4,2.4,0c5,2.2,7.7,6.2,8.5,11.4
			c1.1,7,0.6,13.8-2.3,20.3c-0.4,1-1,1.9-1.5,2.8c-1.1,2.1-3.2,3-5.2,3.7c-13,5-25.1,3.5-36-5.3c-3.7-3-5.7-7.2-6.1-12
			c0-0.2,0-0.4,0-0.7C308.9,223,309,222.9,309.1,222.7z M337.2,243.9c0.6-0.7,1-1.1,1.1-1.6c0.1-0.7-0.3-1.1-1-1.1
			c-0.7,0-1.3,0.3-1.2,1.1C336.1,242.7,336.7,243.1,337.2,243.9z M334.1,230.4c0.2,0,0.3,0,0.5,0c0.3-0.4,0.9-0.9,0.8-1.2
			c-0.1-0.4-0.7-1-1.1-1c-0.4,0-1,0.6-1.1,1C333.2,229.5,333.8,230,334.1,230.4z M319,231.9c0-0.2,0-0.3,0-0.5
			c-0.4-0.3-0.8-0.9-1.2-0.9c-0.4,0-0.8,0.6-1.2,1c0.4,0.4,0.7,1,1.1,1.1C318.1,232.7,318.6,232.1,319,231.9z M349.6,232.9
			c0,0.2,0,0.3,0,0.5c0.4,0.3,0.9,0.9,1.2,0.8c0.4,0,1-0.6,1.1-1c0.2-0.6-0.3-1.2-1-1.1C350.5,232.2,350.1,232.6,349.6,232.9z
			 M356.9,213.5c-0.7-0.5-1.2-1-1.6-1c-0.4,0-0.7,0.6-1.1,1c0.4,0.4,0.8,1,1.3,1.1C355.7,214.7,356.2,214.1,356.9,213.5z
			 M346.8,219.6c-0.5,0.7-1.1,1.1-1,1.4c0.1,0.4,0.6,1.1,1,1.2c0.7,0.2,1.2-0.4,1.1-1.1C347.8,220.7,347.3,220.3,346.8,219.6z"/>
	</g>
	<g>
		<path class="st1" d="M371.7,208.2c0.6-0.9,1.1-1.7-0.3-2.4c-0.4,0.4-0.9,0.8-1.4,1.2c-0.3,0.2-0.7,0.2-1,0.1
			c-0.1,0-0.2-0.6-0.2-0.8c0.1-1.1,0.3-2.2-1.1-2.7c-0.7-0.3-0.6-0.9,0.2-1.2c0.7-0.3,0.9-0.7,0.9-1.4c-0.3-4.9,2-8.1,6.7-8.8
			c0.6-0.1,1.3-0.5,1.9-0.9c0.5-0.4,1-0.4,1.6-0.3c1.8,0.4,3.6,0.7,5.4,0.9c1.3,0.1,2.6-1.3,2.9-2.9c0.2-1.3-0.4-2.5-1.7-3
			c-0.5-0.2-1.2-0.4-1.7-0.4c-1.2,0.2-1.7-0.3-2.1-1.4c-1.9-4.9-3.8-9.7-5.8-14.6c-0.1-0.2-0.2-0.5-0.2-0.7c9.2-3,16.6,0.1,19.9,9.8
			c1.4,4.1,1.2,8.3,0.4,12.4c-0.2,1-0.2,1.6,1,1.9c1.4,0.3,2,1.5,1.7,2.9c-0.3,1.5-0.8,2.9-2.4,3.6c-0.4,0.1-0.7,0.4-1,0.7
			c-0.5,0.5-0.4,0.8,0.2,1.1c2.1,0.8,2.8,2.8,1.3,4.5c-0.7,0.8-1.8,1.5-2.9,1.9c-1.6,0.6-1.7,0.6-0.6,1.8c0.6,0.6,0.8,1.4,0.4,2.1
			c-0.4,0.7-0.9,1.4-1.5,2c-0.2,0.2-0.9,0.3-1.2,0.2c-1.4-0.7-1.4-0.7-2.1,0.8c-0.5-0.2-1-0.4-1.5-0.7c-0.9-0.5-1.2-0.4-1.2,0.7
			c0,0.4,0,0.7,0,1.1c0,0.3,0.1,0.6,0,0.9c-0.2,0.7-0.2,1.6-1.2,1.7c-0.8,0.1-1.5-0.6-1.7-1.7c-0.1-0.3,0-0.6-0.2-0.9
			c-0.3-0.3-0.6-0.6-1-0.8c-0.2,0.3-0.5,0.6-0.6,1c-0.2,0.7-0.4,1.4-0.6,2.1c-0.2,0-0.4,0-0.6,0.1c-0.2-0.6-0.5-1.2-0.7-1.9
			c-0.2-0.3-0.4-0.7-0.5-1c-0.2,0.3-0.4,0.6-0.5,0.9c-0.3,0.6-0.6,1.2-0.9,1.7c-0.5-0.5-1.1-0.9-1.4-1.4c-1.6-2.6-0.1-6.6,2.9-8
			c0.9-0.4,1.8-0.8,2.6-1.3c1.4-0.9,1.7-2.1,0.9-3.4c-1.1-1.8-2.4-2.2-3.9-1.3c-0.2,0.1-0.6,0.2-0.9,0.1c-1.4-0.5-2.2-0.3-3,0.9
			c-0.4,0.6-0.6,1.3-0.9,2C373.4,206.6,372.9,207.7,371.7,208.2z"/>
	</g>
	<g>
		<path class="st1" d="M371.7,208.2c0.6-0.9,1.1-1.7-0.3-2.4c-0.4,0.4-0.9,0.8-1.4,1.2c-0.3,0.2-0.7,0.2-1,0.1
			c-0.1,0-0.2-0.6-0.2-0.8c0.1-1.1,0.3-2.2-1.1-2.7c-0.7-0.3-0.6-0.9,0.2-1.2c0.7-0.3,0.9-0.7,0.9-1.4c-0.3-4.9,2-8.1,6.7-8.8
			c0.6-0.1,1.3-0.5,1.9-0.9c0.5-0.4,1-0.4,1.6-0.3c1.8,0.4,3.6,0.7,5.4,0.9c1.3,0.1,2.6-1.3,2.9-2.9c0.2-1.3-0.4-2.5-1.7-3
			c-0.5-0.2-1.2-0.4-1.7-0.4c-1.2,0.2-1.7-0.3-2.1-1.4c-1.9-4.9-3.8-9.7-5.8-14.6c-0.1-0.2-0.2-0.5-0.2-0.7c9.2-3,16.6,0.1,19.9,9.8
			c1.4,4.1,1.2,8.3,0.4,12.4c-0.2,1-0.2,1.6,1,1.9c1.4,0.3,2,1.5,1.7,2.9c-0.3,1.5-0.8,2.9-2.4,3.6c-0.4,0.1-0.7,0.4-1,0.7
			c-0.5,0.5-0.4,0.8,0.2,1.1c2.1,0.8,2.8,2.8,1.3,4.5c-0.7,0.8-1.8,1.5-2.9,1.9c-1.6,0.6-1.7,0.6-0.6,1.8c0.6,0.6,0.8,1.4,0.4,2.1
			c-0.4,0.7-0.9,1.4-1.5,2c-0.2,0.2-0.9,0.3-1.2,0.2c-1.4-0.7-1.4-0.7-2.1,0.8c-0.5-0.2-1-0.4-1.5-0.7c-0.9-0.5-1.2-0.4-1.2,0.7
			c0,0.4,0,0.7,0,1.1c0,0.3,0.1,0.6,0,0.9c-0.2,0.7-0.2,1.6-1.2,1.7c-0.8,0.1-1.5-0.6-1.7-1.7c-0.1-0.3,0-0.6-0.2-0.9
			c-0.3-0.3-0.6-0.6-1-0.8c-0.2,0.3-0.5,0.6-0.6,1c-0.2,0.7-0.4,1.4-0.6,2.1c-0.2,0-0.4,0-0.6,0.1c-0.2-0.6-0.5-1.2-0.7-1.9
			c-0.2-0.3-0.4-0.7-0.5-1c-0.2,0.3-0.4,0.6-0.5,0.9c-0.3,0.6-0.6,1.2-0.9,1.7c-0.5-0.5-1.1-0.9-1.4-1.4c-1.6-2.6-0.1-6.6,2.9-8
			c0.9-0.4,1.8-0.8,2.6-1.3c1.4-0.9,1.7-2.1,0.9-3.4c-1.1-1.8-2.4-2.2-3.9-1.3c-0.2,0.1-0.6,0.2-0.9,0.1c-1.4-0.5-2.2-0.3-3,0.9
			c-0.4,0.6-0.6,1.3-0.9,2C373.4,206.6,372.9,207.7,371.7,208.2z"/>
	</g>
	<g>
		<g>
			<path class="st4" d="M281,208.5c-0.9,0.4-1.7,0.8-2.6,1.3c-0.3-1.1-1.2-1.4-2.2-1.6c-1-0.2-1.1-1.5-0.1-2.2
				c1.3-0.9,2.7-1.4,4.3-1.3c1,0.1,1.4,0.8,0.7,1.6C280.5,207,280.5,207.6,281,208.5z"/>
		</g>
		<g>
			<path class="st4" d="M281,208.5c-0.9,0.4-1.7,0.8-2.6,1.3c-0.3-1.1-1.2-1.4-2.2-1.6c-1-0.2-1.1-1.5-0.1-2.2
				c1.3-0.9,2.7-1.4,4.3-1.3c1,0.1,1.4,0.8,0.7,1.6C280.5,207,280.5,207.6,281,208.5z"/>
		</g>
		<g>
			<path class="st4" d="M313.6,193.1c-0.8,0.4-1.6,0.8-2.5,1.2c-0.3-1-0.9-1.4-1.9-1.5c-0.4,0-0.9-0.5-0.9-0.9
				c-0.1-0.4,0.2-1,0.5-1.2c1.3-0.9,2.7-1.5,4.3-1.4c1.2,0.1,1.4,0.7,0.8,1.7c-0.3,0.5-0.4,1.2-0.6,1.8
				C313.4,192.9,313.5,193,313.6,193.1z"/>
		</g>
		<g>
			<path class="st4" d="M313.6,193.1c-0.8,0.4-1.6,0.8-2.5,1.2c-0.3-1-0.9-1.4-1.9-1.5c-0.4,0-0.9-0.5-0.9-0.9
				c-0.1-0.4,0.2-1,0.5-1.2c1.3-0.9,2.7-1.5,4.3-1.4c1.2,0.1,1.4,0.7,0.8,1.7c-0.3,0.5-0.4,1.2-0.6,1.8
				C313.4,192.9,313.5,193,313.6,193.1z"/>
		</g>
		<g>
			<path class="st4" d="M324.8,189c-1.1,0.5-2.1,1-3.3,1.5c-0.4-1.3-1.2-1.8-2.5-2c-0.5,0-1.1-0.7-1.2-1.1c-0.1-0.5,0.3-1.3,0.7-1.6
				c1.6-1.2,3.5-1.9,5.6-1.8c1.5,0.1,1.8,0.9,1.1,2.2c-0.4,0.7-0.5,1.5-0.7,2.3C324.5,188.8,324.6,188.9,324.8,189z"/>
		</g>
		<g>
			<path class="st4" d="M324.8,189c-1.1,0.5-2.1,1-3.3,1.5c-0.4-1.3-1.2-1.8-2.5-2c-0.5,0-1.1-0.7-1.2-1.1c-0.1-0.5,0.3-1.3,0.7-1.6
				c1.6-1.2,3.5-1.9,5.6-1.8c1.5,0.1,1.8,0.9,1.1,2.2c-0.4,0.7-0.5,1.5-0.7,2.3C324.5,188.8,324.6,188.9,324.8,189z"/>
		</g>
		<g>
			<path class="st4" d="M334.3,184.6c-1.1,0.5-2.1,1-3.3,1.5c-0.4-1.3-1.2-1.8-2.5-2c-0.5,0-1.1-0.7-1.2-1.1
				c-0.1-0.5,0.3-1.3,0.7-1.6c1.6-1.2,3.5-1.9,5.6-1.8c1.5,0.1,1.8,0.9,1.1,2.2c-0.4,0.7-0.5,1.5-0.7,2.3
				C334,184.4,334.2,184.5,334.3,184.6z"/>
		</g>
		<g>
			<path class="st4" d="M334.3,184.6c-1.1,0.5-2.1,1-3.3,1.5c-0.4-1.3-1.2-1.8-2.5-2c-0.5,0-1.1-0.7-1.2-1.1
				c-0.1-0.5,0.3-1.3,0.7-1.6c1.6-1.2,3.5-1.9,5.6-1.8c1.5,0.1,1.8,0.9,1.1,2.2c-0.4,0.7-0.5,1.5-0.7,2.3
				C334,184.4,334.2,184.5,334.3,184.6z"/>
		</g>
		<g>
			<path class="st4" d="M343.6,180.7c-1.1,0.5-2.1,1-3.3,1.5c-0.4-1.3-1.2-1.8-2.5-2c-0.5,0-1.1-0.7-1.2-1.1
				c-0.1-0.5,0.3-1.3,0.7-1.6c1.6-1.2,3.5-1.9,5.6-1.8c1.5,0.1,1.8,0.9,1.1,2.2c-0.4,0.7-0.5,1.5-0.7,2.3
				C343.3,180.5,343.5,180.6,343.6,180.7z"/>
		</g>
		<g>
			<path class="st4" d="M343.6,180.7c-1.1,0.5-2.1,1-3.3,1.5c-0.4-1.3-1.2-1.8-2.5-2c-0.5,0-1.1-0.7-1.2-1.1
				c-0.1-0.5,0.3-1.3,0.7-1.6c1.6-1.2,3.5-1.9,5.6-1.8c1.5,0.1,1.8,0.9,1.1,2.2c-0.4,0.7-0.5,1.5-0.7,2.3
				C343.3,180.5,343.5,180.6,343.6,180.7z"/>
		</g>
		<g>
			<path class="st4" d="M353.1,176.4c-1.1,0.5-1.6,0.8-2.8,1.4c-0.4-1.3-1.8-1.8-3.1-1.9c-0.5,0-1.4-0.4-1.5-0.8
				c-0.1-0.5,0.3-1.3,0.7-1.6c1.6-1.2,3.5-1.9,5.6-1.8c1.5,0.1,1.5,0.9,0.8,2.3c-0.4,0.7,0.3,1.3,0.1,2.1
				C353,176.2,353,176.3,353.1,176.4z"/>
		</g>
		<g>
			<path class="st4" d="M353.1,176.4c-1.1,0.5-1.6,0.8-2.8,1.4c-0.4-1.3-1.8-1.8-3.1-1.9c-0.5,0-1.4-0.4-1.5-0.8
				c-0.1-0.5,0.3-1.3,0.7-1.6c1.6-1.2,3.5-1.9,5.6-1.8c1.5,0.1,1.5,0.9,0.8,2.3c-0.4,0.7,0.3,1.3,0.1,2.1
				C353,176.2,353,176.3,353.1,176.4z"/>
		</g>
		<g>
			<path class="st4" d="M302.5,198.3c-0.9,0.4-1.7,0.8-2.6,1.2c-0.3-0.9-0.9-1.4-2-1.4c-0.3,0-0.9-0.5-0.9-0.8
				c0-0.4,0.2-1.1,0.5-1.4c1.3-1,2.8-1.5,4.4-1.4c0.9,0.1,1.3,0.8,0.7,1.6C302.1,196.8,302,197.5,302.5,198.3z"/>
		</g>
		<g>
			<path class="st4" d="M302.5,198.3c-0.9,0.4-1.7,0.8-2.6,1.2c-0.3-0.9-0.9-1.4-2-1.4c-0.3,0-0.9-0.5-0.9-0.8
				c0-0.4,0.2-1.1,0.5-1.4c1.3-1,2.8-1.5,4.4-1.4c0.9,0.1,1.3,0.8,0.7,1.6C302.1,196.8,302,197.5,302.5,198.3z"/>
		</g>
		<g>
			<path class="st4" d="M292.2,203.2c-0.9,0.4-1.7,0.8-2.6,1.3c-0.3-1.1-1-1.6-2.1-1.7c-0.9-0.1-1.2-1.3-0.4-1.9
				c1.3-1.1,2.9-1.7,4.7-1.5c1,0.1,1.3,0.8,0.7,1.6C291.8,201.7,291.7,202.3,292.2,203.2z"/>
		</g>
		<g>
			<path class="st4" d="M292.2,203.2c-0.9,0.4-1.7,0.8-2.6,1.3c-0.3-1.1-1-1.6-2.1-1.7c-0.9-0.1-1.2-1.3-0.4-1.9
				c1.3-1.1,2.9-1.7,4.7-1.5c1,0.1,1.3,0.8,0.7,1.6C291.8,201.7,291.7,202.3,292.2,203.2z"/>
		</g>
		<g>
			<path class="st4" d="M258.4,219.1c-0.4,0.2-0.9,0.4-1.3,0.6c-0.7,0.4-1.3,0.6-1.8-0.3c-0.1-0.2-0.7-0.2-1.1-0.4
				c-0.4-0.2-1.1-0.5-1.1-0.8c-0.1-0.5,0.2-1.2,0.5-1.5c1.2-1,2.6-1.4,4.2-1.3c1.2,0.1,1.4,0.7,0.8,1.8c-0.3,0.5-0.4,1.2-0.5,1.7
				C258.2,218.9,258.3,219,258.4,219.1z"/>
		</g>
		<g>
			<path class="st4" d="M258.4,219.1c-0.4,0.2-0.9,0.4-1.3,0.6c-0.7,0.4-1.3,0.6-1.8-0.3c-0.1-0.2-0.7-0.2-1.1-0.4
				c-0.4-0.2-1.1-0.5-1.1-0.8c-0.1-0.5,0.2-1.2,0.5-1.5c1.2-1,2.6-1.4,4.2-1.3c1.2,0.1,1.4,0.7,0.8,1.8c-0.3,0.5-0.4,1.2-0.5,1.7
				C258.2,218.9,258.3,219,258.4,219.1z"/>
		</g>
		<g>
			<path class="st4" d="M247.3,224.4c-0.8,0.4-1.6,0.8-2.4,1.2c0-0.1,0-0.2,0.1-0.4c-0.7-0.3-1.3-0.6-2-0.9
				c-0.4-0.2-0.9-0.5-0.9-0.8c-0.1-0.4,0.1-1.1,0.4-1.3c1.2-1,2.7-1.5,4.3-1.4c1.2,0,1.5,0.8,0.9,1.7c-0.3,0.5-0.4,1.1-0.6,1.7
				C247.1,224.2,247.2,224.3,247.3,224.4z"/>
		</g>
		<g>
			<path class="st4" d="M247.3,224.4c-0.8,0.4-1.6,0.8-2.4,1.2c0-0.1,0-0.2,0.1-0.4c-0.7-0.3-1.3-0.6-2-0.9
				c-0.4-0.2-0.9-0.5-0.9-0.8c-0.1-0.4,0.1-1.1,0.4-1.3c1.2-1,2.7-1.5,4.3-1.4c1.2,0,1.5,0.8,0.9,1.7c-0.3,0.5-0.4,1.1-0.6,1.7
				C247.1,224.2,247.2,224.3,247.3,224.4z"/>
		</g>
		<g>
			<path class="st4" d="M269.7,213.8c-0.8,0.4-1.6,0.8-2.5,1.2c-0.3-1.1-1.1-1.4-2-1.5c-0.9-0.2-1.2-1.2-0.5-1.8
				c1.3-1.2,2.9-1.7,4.7-1.6c1,0.1,1.2,0.8,0.7,1.7c-0.3,0.6-0.4,1.2-0.6,1.8C269.5,213.7,269.6,213.7,269.7,213.8z"/>
		</g>
		<g>
			<path class="st4" d="M269.7,213.8c-0.8,0.4-1.6,0.8-2.5,1.2c-0.3-1.1-1.1-1.4-2-1.5c-0.9-0.2-1.2-1.2-0.5-1.8
				c1.3-1.2,2.9-1.7,4.7-1.6c1,0.1,1.2,0.8,0.7,1.7c-0.3,0.6-0.4,1.2-0.6,1.8C269.5,213.7,269.6,213.7,269.7,213.8z"/>
		</g>
		<g>
			<path class="st4" d="M233.6,230.5c-0.6-0.3-1.2-0.5-1.8-0.8c-0.4-0.2-1-0.5-1-0.8c-0.1-0.5,0.2-1.3,0.5-1.4
				c1.3-0.6,2.7-1.1,4.1-1.3c1.2-0.2,1.5,0.7,0.9,1.8c-0.2,0.4-0.2,0.9-0.4,1.3c-0.1,0.3-0.3,0.5-0.4,0.7c-0.1,0.1-0.2,0.1-0.3,0.2
				c-0.5,0.2-1.1,0.5-1.6,0.7C233.6,230.7,233.6,230.6,233.6,230.5z"/>
		</g>
		<g>
			<path class="st4" d="M233.6,230.5c-0.6-0.3-1.2-0.5-1.8-0.8c-0.4-0.2-1-0.5-1-0.8c-0.1-0.5,0.2-1.3,0.5-1.4
				c1.3-0.6,2.7-1.1,4.1-1.3c1.2-0.2,1.5,0.7,0.9,1.8c-0.2,0.4-0.2,0.9-0.4,1.3c-0.1,0.3-0.3,0.5-0.4,0.7c-0.1,0.1-0.2,0.1-0.3,0.2
				c-0.5,0.2-1.1,0.5-1.6,0.7C233.6,230.7,233.6,230.6,233.6,230.5z"/>
		</g>
		<g>
			<path class="st4" d="M223.9,231.1c0.7,0.4,1.3,0.5,1.5,0.9c0.1,0.4-0.2,0.9-0.3,1.4c-0.1,0.2-0.3,0.4-0.4,0.7
				c-0.1,0.3,0,0.9-0.2,1c-0.6,0.4-1.2,0.6-1.9,0.9l-0.1,0c-0.9-0.5-2-0.9-2.8-1.5c-0.6-0.5-0.3-1.3,0.3-1.7
				C221.3,232.1,222.7,231.7,223.9,231.1z"/>
		</g>
		<g>
			<path class="st4" d="M223.9,231.1c0.7,0.4,1.3,0.5,1.5,0.9c0.1,0.4-0.2,0.9-0.3,1.4c-0.1,0.2-0.3,0.4-0.4,0.7
				c-0.1,0.3,0,0.9-0.2,1c-0.6,0.4-1.2,0.6-1.9,0.9l-0.1,0c-0.9-0.5-2-0.9-2.8-1.5c-0.6-0.5-0.3-1.3,0.3-1.7
				C221.3,232.1,222.7,231.7,223.9,231.1z"/>
		</g>
		<g>
			<path class="st4" d="M213.6,240.2c-0.8,0.4-1.6,0.7-2,1c-0.9-0.4-1.5-0.7-2.2-0.9c-1.1-0.3-1.5-1.3-0.7-2c1.3-1.3,3-1.7,4.8-1.5
				c0.9,0.1,1,0.8,0.5,1.7c-0.3,0.5-0.4,1-0.6,1.6C213.4,240.1,213.5,240.2,213.6,240.2z"/>
		</g>
		<g>
			<path class="st4" d="M213.6,240.2c-0.8,0.4-1.6,0.7-2,1c-0.9-0.4-1.5-0.7-2.2-0.9c-1.1-0.3-1.5-1.3-0.7-2c1.3-1.3,3-1.7,4.8-1.5
				c0.9,0.1,1,0.8,0.5,1.7c-0.3,0.5-0.4,1-0.6,1.6C213.4,240.1,213.5,240.2,213.6,240.2z"/>
		</g>
		<g>
			<path class="st4" d="M200,246.4c-0.6-0.2-1.2-0.4-1.7-0.7c-0.4-0.2-1-0.5-1.1-0.9c-0.1-0.3,0.2-1,0.5-1.2
				c1.3-0.9,2.7-1.5,4.3-1.4c1.2,0.1,1.5,0.7,0.9,1.7c-0.2,0.4-0.3,0.9-0.5,1.3c-0.1,0.2-0.3,0.5-0.6,0.6c-0.6,0.3-1.3,0.6-1.9,0.9
				C199.9,246.5,200,246.5,200,246.4z"/>
		</g>
		<g>
			<path class="st4" d="M200,246.4c-0.6-0.2-1.2-0.4-1.7-0.7c-0.4-0.2-1-0.5-1.1-0.9c-0.1-0.3,0.2-1,0.5-1.2
				c1.3-0.9,2.7-1.5,4.3-1.4c1.2,0.1,1.5,0.7,0.9,1.7c-0.2,0.4-0.3,0.9-0.5,1.3c-0.1,0.2-0.3,0.5-0.6,0.6c-0.6,0.3-1.3,0.6-1.9,0.9
				C199.9,246.5,200,246.5,200,246.4z"/>
		</g>
		<g>
			<path class="st4" d="M190.3,247.2c0.6,0.3,1.3,0.5,1.4,0.8c0.2,0.4-0.2,0.9-0.3,1.4c-0.1,0.2-0.3,0.3-0.3,0.4
				c0.2,1.2-0.9,1.3-1.6,1.7c-0.5,0.3-0.9,0.5-1.3-0.2c-0.2-0.2-0.7-0.1-1-0.3c-0.5-0.2-1.1-0.5-1.2-0.9c-0.1-0.5,0.2-1.2,0.6-1.5
				C187.8,248.1,189,247.6,190.3,247.2z"/>
		</g>
		<g>
			<path class="st4" d="M190.3,247.2c0.6,0.3,1.3,0.5,1.4,0.8c0.2,0.4-0.2,0.9-0.3,1.4c-0.1,0.2-0.3,0.3-0.3,0.4
				c0.2,1.2-0.9,1.3-1.6,1.7c-0.5,0.3-0.9,0.5-1.3-0.2c-0.2-0.2-0.7-0.1-1-0.3c-0.5-0.2-1.1-0.5-1.2-0.9c-0.1-0.5,0.2-1.2,0.6-1.5
				C187.8,248.1,189,247.6,190.3,247.2z"/>
		</g>
	</g>
	<g>
		<g>
			<path class="st4" d="M337.2,243.9c-0.6-0.7-1.1-1.1-1.1-1.6c-0.1-0.7,0.5-1.1,1.2-1.1c0.7,0,1.2,0.5,1,1.1
				C338.3,242.7,337.8,243.1,337.2,243.9z"/>
		</g>
		<g>
			<path class="st4" d="M337.2,243.9c-0.6-0.7-1.1-1.1-1.1-1.6c-0.1-0.7,0.5-1.1,1.2-1.1c0.7,0,1.2,0.5,1,1.1
				C338.3,242.7,337.8,243.1,337.2,243.9z"/>
		</g>
		<g>
			<path class="st4" d="M334.1,230.4c-0.3-0.4-0.9-0.9-0.8-1.2c0.1-0.4,0.7-1,1.1-1c0.4,0,1,0.6,1.1,1c0.1,0.4-0.5,0.8-0.8,1.2
				C334.4,230.4,334.2,230.4,334.1,230.4z"/>
		</g>
		<g>
			<path class="st4" d="M334.1,230.4c-0.3-0.4-0.9-0.9-0.8-1.2c0.1-0.4,0.7-1,1.1-1c0.4,0,1,0.6,1.1,1c0.1,0.4-0.5,0.8-0.8,1.2
				C334.4,230.4,334.2,230.4,334.1,230.4z"/>
		</g>
		<g>
			<path class="st4" d="M319,231.9c-0.4,0.3-0.9,0.8-1.3,0.7c-0.4-0.1-0.8-0.7-1.1-1.1c0.4-0.4,0.8-1,1.2-1c0.4,0,0.8,0.6,1.2,0.9
				C319,231.5,319,231.7,319,231.9z"/>
		</g>
		<g>
			<path class="st4" d="M319,231.9c-0.4,0.3-0.9,0.8-1.3,0.7c-0.4-0.1-0.8-0.7-1.1-1.1c0.4-0.4,0.8-1,1.2-1c0.4,0,0.8,0.6,1.2,0.9
				C319,231.5,319,231.7,319,231.9z"/>
		</g>
		<g>
			<path class="st4" d="M349.6,232.9c0.4-0.3,0.9-0.7,1.3-0.8c0.7-0.1,1.2,0.5,1,1.1c-0.1,0.4-0.7,1-1.1,1c-0.4,0-0.8-0.5-1.2-0.8
				C349.6,233.2,349.6,233.1,349.6,232.9z"/>
		</g>
		<g>
			<path class="st4" d="M349.6,232.9c0.4-0.3,0.9-0.7,1.3-0.8c0.7-0.1,1.2,0.5,1,1.1c-0.1,0.4-0.7,1-1.1,1c-0.4,0-0.8-0.5-1.2-0.8
				C349.6,233.2,349.6,233.1,349.6,232.9z"/>
		</g>
		<g>
			<path class="st4" d="M356.9,213.5c-0.7,0.6-1.2,1.2-1.4,1.1c-0.5-0.2-0.8-0.7-1.3-1.1c0.4-0.4,0.7-1,1.1-1
				C355.7,212.5,356.2,213,356.9,213.5z"/>
		</g>
		<g>
			<path class="st4" d="M356.9,213.5c-0.7,0.6-1.2,1.2-1.4,1.1c-0.5-0.2-0.8-0.7-1.3-1.1c0.4-0.4,0.7-1,1.1-1
				C355.7,212.5,356.2,213,356.9,213.5z"/>
		</g>
		<g>
			<path class="st4" d="M346.8,219.6c0.5,0.7,1,1,1.1,1.5c0.1,0.7-0.4,1.3-1.1,1.1c-0.4-0.1-0.9-0.7-1-1.2
				C345.7,220.8,346.3,220.3,346.8,219.6z"/>
		</g>
		<g>
			<path class="st4" d="M346.8,219.6c0.5,0.7,1,1,1.1,1.5c0.1,0.7-0.4,1.3-1.1,1.1c-0.4-0.1-0.9-0.7-1-1.2
				C345.7,220.8,346.3,220.3,346.8,219.6z"/>
		</g>
	</g>
	<g>
		<path class="st0" d="M402.4,196.2c0.4-1.7-0.4-3-2-3.5c-0.3-0.1-0.6-0.2-0.9-0.3c0-0.3,0.1-0.4,0.1-0.5c0.8-4,1-8.1,0-12.1
			c-2.2-8.4-8.6-13.2-17.3-12.5c-2.3,0.2-4.6,0.5-6.9,0.8c-0.2-1.2-0.9-1.2-2-0.8c-4.8,1.8-9.7,3.4-14.2,5c-0.8,0.1-1.4,0-1.8,0.2
			c-1.5,0.6-3,1.4-4.7,2.2c0.2-0.4,0.2-0.6,0.3-0.8c0.9-1.7,0.3-2.7-1.7-2.6c-2.1,0.1-3.9,1-5.2,2.6c-0.5,0.5-0.6,0.8-0.4,1.4
			c0.1,0.5,2.7,0.9,3.3,1.3c0.1,0-1,0.4-1.5,0.7c-1.8,0.9-3.6,1.7-5.5,2.6c-2.4,1.1-0.1,0-2.3,1.1c-2.5,1.2-0.6,0.3-2.5,1.2
			c-1.7,0.8-0.7,0.3-1.7,0.8c-7.1,3.4-14.2,6.7-21.2,10c-0.7-0.6-0.4-1-0.1-1.5c0.7-1.1,0.4-2-0.6-2.4c-2-0.7-6.2,1.2-7,3.2
			c-0.5,1-0.1,1.8,1,2.1c0.2,0.1,0.5,0,0.8,0.1c0.2,0.1,0.5,0.3,0.6,0.5c0,0.2-0.2,0.5-0.4,0.6c-1.8,0.9-3.7,1.8-5.9,2.8
			c0.2-0.7,0.1-1.2,0.3-1.6c0.8-1.5,0.3-2.6-1.4-2.6c-2.3-0.1-4.2,0.9-5.7,2.5c-0.4,0.5-0.8,1.4-0.6,2c0.1,0.5,1,0.7,1.6,1
			c0.3,0.2,0.7,0.4,1.3,0.8c-1.2,0.6-2.1,1-2.9,1.4c-0.8,0.4-1.7,0.8-2.5,1.2c-0.1-0.1-0.2-0.2-0.4-0.2c0.1-0.5,0.2-0.9,0.4-1.3
			c0.7-1.3,0.2-2.4-1.3-2.5c-2.4-0.1-4.4,0.8-6,2.6c-1.2,1.4-0.8,2.5,1,2.9c0.4,0.1,0.8,0.4,1.4,0.8c-2.4,1.1-4.4,2.1-6.4,3
			c-0.7-0.5-0.5-1-0.1-1.5c0.8-1.3,0.3-2.4-1.2-2.5c-2.4-0.1-4.5,0.8-6.1,2.6c-1.2,1.3-0.7,2.5,1,2.8c0.4,0.1,0.8,0.4,1.2,0.7
			c0,0.1-0.1,0.2-0.1,0.3c-2,0.9-4,1.9-6.3,3c0.1-0.7,0.1-1.1,0.2-1.4c0.9-1.5,0.4-2.7-1.3-2.7c-2.3,0-4.3,0.9-5.8,2.7
			c-1.2,1.4-0.7,2.5,1.2,2.8c0.4,0.1,0.7,0.4,1.2,0.7c-2.1,1-3.8,1.8-5.6,2.6c-0.3,0.1-0.7,0-1.1,0c0.1-0.3,0.1-0.7,0.3-1
			c0.8-1.4,0.3-2.5-1.3-2.5c-2.2-0.1-4.1,0.8-5.6,2.4c-0.5,0.5-0.9,1.4-0.8,2c0.1,0.5,1.1,0.7,1.7,1.1c0.3,0.2,0.5,0.4,0.8,0.6
			c-0.2,0.2-0.4,0.5-0.6,0.6c-1.6,0.8-3.1,1.5-4.7,2.2c-0.2,0.1-0.5,0-0.8,0.1c0-0.3,0.1-0.6,0.1-0.9c0.1-0.6,0.6-1.5,0.3-1.9
			c-0.4-0.5-1.3-0.8-2-0.8c-1.8,0-3.4,0.8-4.7,1.9c-0.7,0.6-1.5,1.3-1.3,2.4c0.2,1,1.1,1.1,2,1.2c0.2,0,0.4,0.3,0.5,0.5
			c0,0.1-0.2,0.4-0.3,0.5c-1.9,0.9-3.8,1.8-5.7,2.7c-0.1-0.1-0.2-0.1-0.3-0.2c0.1-0.3,0.1-0.7,0.3-1c0.9-1.6,0.3-2.8-1.5-2.7
			c-2.3,0.1-4.2,1-5.7,2.7c-1.2,1.4-0.6,2.5,1.1,2.8c0.3,0.1,0.7,0.3,1,0.5c0,0.1,0,0.2-0.1,0.4c-2,0.9-4,1.9-6,2.8
			c-0.1-0.1-0.2-0.2-0.3-0.2c0.2-0.3,0.3-0.7,0.5-1c0.8-1.3,0.3-2.4-1.2-2.5c-2.5-0.1-4.6,0.9-6.2,2.8c-1,1.3-0.5,2.3,1,2.6
			c0.4,0.1,0.7,0.2,1,0.3c0,0.1,0,0.2,0,0.4c-2.1,1-4.1,1.9-6.2,2.9c-0.1-0.1-0.2-0.2-0.3-0.2c0.1-0.3,0.2-0.7,0.4-1
			c0.8-1.4,0.3-2.5-1.4-2.5c-2.3-0.1-4.3,0.9-5.9,2.6c-1.2,1.4-0.7,2.5,1.1,2.9c0.3,0.1,0.5,0.3,0.8,0.4c-0.2,0.2-0.4,0.4-0.6,0.6
			c-1.6,0.8-3.3,1.5-4.9,2.3c-0.2,0.1-0.4,0.1-0.9,0.1c0.3-0.5,0.5-0.7,0.6-1c0.8-1.4,0.4-2.4-1.2-2.4c-2.5-0.1-4.6,0.8-6.2,2.8
			c-1,1.2-0.5,2.3,1.1,2.6c0.3,0.1,0.6,0.1,1,0.2c0,0.1,0,0.2,0,0.3c-2.1,1-4.1,1.9-6.2,2.9c-0.1-0.5,0.1-0.7,0.2-0.9
			c0.9-1.5,0.4-2.6-1.4-2.6c-2.1,0-4,0.8-5.4,2.3c-0.5,0.5-0.9,1.4-0.8,2.1c0.1,0.9,1.1,1,1.8,1.1c0.1,0,0.3,0.1,0.4,0.1
			c0,0.1,0.1,0.2,0.1,0.3c-1.5,0.7-3,1.4-4.6,2.1c-0.8,0.3-1.6,0.6-2.4,0.6c-6.5,0-13,0.3-19.5,1.1c-10,1.1-19.6,3.8-28.8,8.1
			c-10.9,5.1-20.3,12.4-28.4,21.3c-1.2,1.4-2.5,2.9-3.3,4.5c-2,3.9-2.9,8-1.3,12.3c0.9,2.5,1.9,4.9,3.2,7.3
			c3.6,6.9,8.2,12.8,13.8,17.7c7.9,5.8,31.5,20.1,58.9,10.1c22.3-10.4,23.5-29.1,23.5-29.1l11.2-31.5c0,0,45-34.4,93.7-55l2.7-1.1
			l0.2,2.1c0.8,6.2,5.9,24.3,37.6,23.4c1.5,0,2.8-0.2,4.1-0.3c5.8-3,10-7.6,12.2-13.9c2-5.8,2.4-11.8,1.5-17.9
			c-0.6-4.5-2.5-8.3-6.3-11c-1-0.7-2.1-1.2-3.3-1.9c1.2-0.6,2.3-1.1,3.5-1.6c9.1-4.2,18.2-8.3,27.3-12.5c0.4-0.2,0.7-0.7,1.1-1
			c0.2-0.2,0.6-0.2,1-0.2c1.1,0,2,0.4,2.4,1.4c0.5,1.1-0.1,2-0.8,2.8c-0.7,0.8-1.6,0.7-2.5,0.4c-0.8-0.2-1.5-0.6-2.2-0.9
			c-1.3-0.6-2.5-0.3-3.7,0.4c-0.8,0.5-1.7,0.9-2.6,1.1c-3.3,0.8-5.4,2.7-6.2,6c-0.3,1.3-0.3,2.6-0.4,3.9c-0.5,0.3-1.1,0.6-1.2,1.1
			c-0.1,0.4,0.2,1.2,0.6,1.4c1.1,0.6,1,1.4,0.8,2.3c-0.3,1.1,0.6,1.8,1.7,1.5c0.3-0.1,0.7-0.3,1-0.4c0.1,1.9,0.7,2.3,2.6,1.9
			c2.2-0.4,3.5-1.8,4.2-3.9c0.3-0.8,0.7-1.6,1.3-2.2c0.7-0.8,1.7-0.6,2.6,0.5c0.9,1.1,1,2,0.1,2.7c-0.7,0.5-1.4,0.9-2.2,1.2
			c-2.2,0.9-3.5,2.5-4.3,4.7c-0.8,2.2-0.2,4.2,1.4,5.8c1,1,2.4,1.4,3.9,0.9c1.3-0.4,1.8-1.4,1.9-2.7c0-0.1,0.1-0.2,0.2-0.4
			c0.6,2.9,1.3,3.4,4,3.4c0.2,0,0.4,0,0.6,0c2.2,0,3.3-1.3,3-3.5c-0.1-0.5,0-1-0.1-1.6c0.4,0.2,0.6,0.3,0.8,0.4
			c2.2,1.3,3.9,1,5.6-0.8c1.7-1.8,1.7-2.6,0.1-5c0,0,0,0,0-0.1c0.7-0.3,1.5-0.5,2.2-0.8c1.8-0.8,2.6-2.2,2.5-4.1
			c0-1.6-0.8-2.5-2.7-2.7c0.6-0.4,0.8-0.8,1.2-0.9C401.5,199.3,402,197.8,402.4,196.2z M348.2,175.3c-0.4,0-1-0.4-1.1-0.7
			c-0.1-0.4,0.1-1.1,0.4-1.4c1.2-1,2.7-1.7,4.3-1.6c1,0.1,1.5,0.7,0.9,1.4c-0.8,0.9-0.5,1.7,0,2.6c0.1,0.2,0.2,0.5,0.3,0.8
			c-0.8,0.4-1.7,0.9-2.5,1.3c-0.2-0.4-0.5-0.8-0.7-1.3C349.5,175.7,349,175.3,348.2,175.3z M308.2,191.9c-0.1-0.4,0.2-1,0.5-1.2
			c1.3-0.9,2.7-1.5,4.3-1.4c1.2,0.1,1.4,0.7,0.8,1.7c-0.3,0.5-0.4,1.2-0.6,1.8c0.1,0.1,0.2,0.2,0.3,0.3c-0.8,0.4-1.6,0.8-2.5,1.2
			c-0.3-1-0.9-1.4-1.9-1.5C308.8,192.7,308.3,192.2,308.2,191.9z M297.9,198.1c-0.3,0-0.9-0.5-0.9-0.8c0-0.4,0.2-1.1,0.5-1.4
			c1.3-1,2.8-1.5,4.4-1.4c0.9,0.1,1.3,0.8,0.7,1.6c-0.6,0.7-0.7,1.3-0.2,2.2c-0.9,0.4-1.7,0.8-2.6,1.2
			C299.5,198.6,298.9,198.1,297.9,198.1z M287.5,202.8c-0.9-0.1-1.2-1.3-0.4-1.9c1.3-1.1,2.9-1.7,4.7-1.5c1,0.1,1.3,0.8,0.7,1.6
			c-0.6,0.7-0.7,1.3-0.1,2.2c-0.9,0.4-1.7,0.8-2.6,1.3C289.3,203.3,288.6,202.9,287.5,202.8z M276.2,208.1c-1-0.2-1.1-1.5-0.1-2.2
			c1.3-0.9,2.7-1.4,4.3-1.3c1,0.1,1.4,0.8,0.7,1.6c-0.6,0.7-0.6,1.3-0.1,2.2c-0.9,0.4-1.7,0.8-2.6,1.3
			C278,208.6,277.2,208.3,276.2,208.1z M265.1,213.5c-0.9-0.2-1.2-1.2-0.5-1.8c1.3-1.2,2.9-1.7,4.7-1.6c1,0.1,1.2,0.8,0.7,1.7
			c-0.3,0.6-0.4,1.2-0.6,1.8c0.1,0.1,0.2,0.1,0.3,0.2c-0.8,0.4-1.6,0.8-2.5,1.2C266.9,213.9,266.1,213.6,265.1,213.5z M253.2,218.2
			c-0.1-0.5,0.2-1.2,0.5-1.5c1.2-1,2.6-1.4,4.2-1.3c1.2,0.1,1.4,0.7,0.8,1.8c-0.3,0.5-0.4,1.2-0.5,1.7c0.1,0.1,0.2,0.1,0.3,0.2
			c-0.4,0.2-0.9,0.4-1.3,0.6c-0.7,0.4-1.3,0.6-1.8-0.3c-0.1-0.2-0.7-0.2-1.1-0.4C253.9,218.8,253.2,218.5,253.2,218.2z M242,223.5
			c-0.1-0.4,0.1-1.1,0.4-1.3c1.2-1,2.7-1.5,4.3-1.4c1.2,0,1.5,0.8,0.9,1.7c-0.3,0.5-0.4,1.1-0.6,1.7c0.1,0.1,0.2,0.1,0.3,0.2
			c-0.8,0.4-1.6,0.8-2.4,1.2c0-0.1,0-0.2,0.1-0.4c-0.7-0.3-1.3-0.6-2-0.9C242.6,224.1,242,223.8,242,223.5z M230.8,228.8
			c-0.1-0.5,0.2-1.3,0.5-1.4c1.3-0.6,2.7-1.1,4.1-1.3c1.2-0.2,1.5,0.7,0.9,1.8c-0.2,0.4-0.2,0.9-0.4,1.3c-0.1,0.3-0.3,0.5-0.4,0.7
			c-0.1,0.1-0.2,0.1-0.3,0.2c-0.5,0.2-1.1,0.5-1.6,0.7c0-0.1,0-0.2,0-0.3c-0.6-0.3-1.2-0.5-1.8-0.8
			C231.4,229.4,230.8,229.1,230.8,228.8z M219.8,234.4c-0.6-0.5-0.3-1.3,0.3-1.7c1.2-0.6,2.6-1.1,3.8-1.6c0.7,0.4,1.3,0.5,1.5,0.9
			c0.1,0.4-0.2,0.9-0.3,1.4c-0.1,0.2-0.3,0.4-0.4,0.7c-0.1,0.3,0,0.9-0.2,1c-0.6,0.4-1.2,0.6-1.9,0.9l-0.1,0
			C221.6,235.5,220.6,235.1,219.8,234.4z M208.7,238.3c1.3-1.3,3-1.7,4.8-1.5c0.9,0.1,1,0.8,0.5,1.7c-0.3,0.5-0.4,1-0.6,1.6
			c0.1,0.1,0.2,0.1,0.3,0.2c-0.8,0.4-1.6,0.7-2,1c-0.9-0.4-1.5-0.7-2.2-0.9C208.3,240.1,207.8,239.1,208.7,238.3z M197.1,244.7
			c-0.1-0.3,0.2-1,0.5-1.2c1.3-0.9,2.7-1.5,4.3-1.4c1.2,0.1,1.5,0.7,0.9,1.7c-0.2,0.4-0.3,0.9-0.5,1.3c-0.1,0.2-0.3,0.5-0.6,0.6
			c-0.6,0.3-1.3,0.6-1.9,0.9c0-0.1,0.1-0.2,0.1-0.3c-0.6-0.2-1.2-0.4-1.7-0.7C197.8,245.4,197.3,245.1,197.1,244.7z M186,250.2
			c-0.1-0.5,0.2-1.2,0.6-1.5c1.2-0.6,2.4-1.1,3.6-1.5c0.6,0.3,1.3,0.5,1.4,0.8c0.2,0.4-0.2,0.9-0.3,1.4c0,0.2-0.3,0.3-0.3,0.4
			c0.2,1.2-0.9,1.3-1.6,1.7c-0.5,0.3-0.9,0.5-1.3-0.2c-0.2-0.2-0.7-0.1-1-0.3C186.7,250.8,186.1,250.5,186,250.2z M351.4,202.7
			c5,2.2,7.7,6.2,8.5,11.4c1.1,7,0.6,13.8-2.3,20.3c-0.4,1-1,1.9-1.5,2.8c-1.1,2.1-3.2,3-5.2,3.7c-13,5-25.1,3.5-36-5.3
			c-3.7-3-5.7-7.2-6.1-12c0-0.2,0-0.4,0-0.7c0-0.1,0.1-0.2,0.1-0.4c0.5,0.4,0.9,0.7,1.4,1.1c4.9,3.4,10.3,3.8,16,2.5
			c6.2-1.5,11.2-4.8,14.5-10.3c1.7-2.9,2.6-6.1,2.2-9.5c-0.1-0.7,0.1-1,0.8-1.3c1.7-0.7,3.4-1.5,5.1-2.4
			C349.9,202.3,350.6,202.3,351.4,202.7z M311.6,219.5l27.8-12.4c0,0,1.3,9-8,13.7C318.1,227.3,311.6,219.5,311.6,219.5z M281,229.6
			l-37.1,20.7l-35.5,23.7l1.9-3.2c-2.4,2.2-4,4.9-5.1,8c-2.6,7.3-5.1,14.7-7.7,22c-2,5.6-3.7,11.4-6.2,16.8
			c-4.9,10.4-13.3,16.8-24.3,19.6c-17.8,4.5-34.5,1.2-49.8-8.8c-4.4-2.9-7.6-7-10.6-11.3c-1.4-2-2.6-4.1-3.9-6.1
			c0.1-0.1,0.2-0.1,0.3-0.2c0.7,0.2,1.3,0.3,2.1,0.5c0,2.7,1.1,4.7,3.8,5.4c2.1,0.5,3.8-0.3,5.2-2.1c0.6,2.8,2.1,4.5,4.9,4.6
			c2.3,0.1,3.9-1.2,4.8-3.5c1.1,2,2.6,3.2,4.8,3.1c2.2-0.1,3.6-1.3,4.5-3.3c1.5,1.9,3.4,2.6,5.6,1.9c2-0.7,3-2.2,3.3-4.4
			c1.6,1.5,3.4,2.1,5.5,1.3c2.1-0.8,3-2.5,3.2-4.8c1.8,1.3,3.6,1.9,5.6,0.9c2-0.9,2.7-2.7,2.9-4.7c4.9,1.7,8.1-0.2,7.9-4.8
			c2,0.6,3.9,0.7,5.5-0.7c1.6-1.4,2-3.2,1.5-5.2c5.4,0.2,7.2-1.7,6.3-6.9c2,0.1,3.9-0.2,5.1-2.1c1.2-1.8,1.1-3.6,0.2-5.5
			c4.2,0.6,7.3-2.8,5.7-7.1c2,0.6,3.9,0.4,5.4-1.1c1.5-1.5,1.8-3.2,1.1-5.4c1.8,0.4,3.5,0.3,4.9-0.8c1.4-1.2,2-2.7,1.8-4.3
			c1.2,0.2,2.5,0.5,3.6,0.4c2.3-0.2,3.9-2.2,4.1-4.6c0-0.8,0.3-1.1,1.1-0.9c2.7,0.4,4.3-0.5,5.6-2.9c0.3-0.5,0.9-0.9,1.4-1.1
			c7.4-3.8,14.9-7.6,22.3-11.4c19.7-9.9,39.5-19.8,59.3-29.6c13.2-6.5,26.4-12.8,39.7-19.1c0.3-0.1,0.7-0.1,1-0.1
			c-0.1,0.3-0.1,0.7-0.3,1c-0.8,1.5-0.2,2.5,1.4,2.5c2.4,0,4.4-1,5.8-2.8c0.4-0.4,0.6-1.3,0.4-1.8c-0.2-0.4-1-0.6-1.6-0.9
			c-0.2-0.1-0.5-0.1-0.8-0.2c0-0.1-0.1-0.3-0.1-0.4c2.1-1,4.1-1.9,6.2-2.9c0.1,0.1,0.2,0.2,0.3,0.3c-0.2,0.3-0.4,0.6-0.6,0.9
			c-0.6,1.2-0.2,2.2,1.2,2.3c2.7,0.1,4.8-0.9,6.4-3.1c0.9-1.2,0.3-2.3-1.1-2.4c-0.3,0-0.6-0.1-0.9-0.1c0-0.1-0.1-0.2-0.1-0.3
			c2.2-1,4.3-2.1,6.6-3.2c-1.8-2.4-3.5-4.7-5.3-7.1l0.3,1.9c1.4,1.5,2.5,3.2,3.9,5c-2,0.9-3.9,1.8-5.9,2.8c-0.2-0.5-0.4-0.8-0.7-1.3
			c1.7-0.8,3.3-1.7,5.1-2.5c-1-1.3-1.9-2.4-2.8-3.6c0.1-0.1,0.2-0.2,0.4-0.3l-3.5,1.6c0.2,0.1,0.3,0.2,0.5,0.4
			c0.6,0.9,1.3,1.7,2,2.7c-7.4,3.6-14.7,7.2-22.2,10.8c-0.7-1.2-1.3-2.2-1.9-3.4c0.9-0.5,1.7-0.9,2.5-1.4c1.3-0.7,2.5-1.3,3.8-2
			L198,252.8c1.4-0.6,2.7-1.3,4.1-1.9c0.2,0.4,0.4,0.7,0.6,1.1c-3.2,1.5-6.3,3-9.5,4.5c-0.2-0.4-0.4-0.7-0.6-1.2l-1.4,0.7
			c0.6,0.8,0.7,1.2-0.2,1.6c-9.4,4.4-18.7,8.9-28.1,13.3c-12.9,6.1-25.8,12.2-38.7,18.3c-0.8,0.4-1.3,0.3-1.7-0.7
			c20-9.5,40-18.9,60-28.4l-1.7,0.2c-3.1,1.5-6.2,2.9-9.2,4.4c-16.1,7.6-32.2,15.3-48.4,22.9c-0.6,0.3-1.3,0.9-1.8-0.4
			c3.1-1.5,6.1-2.9,9.2-4.4c14.7-7,29.5-14,44.2-21c0.8-0.4,1.6-0.8,2.4-1.1l-1.6,0.2c-18.3,8.7-36.4,17.3-54.7,25.9
			c-0.2-0.3-0.4-0.6-0.6-1c1.6-0.8,3-1.5,4.5-2.2c15.7-7.5,31.4-14.9,47.2-22.4l-1.6,0.2c-0.5,0.2-1,0.5-1.5,0.7
			c-15.9,7.5-31.8,15-47.7,22.6c-1.1,0.5-1.8,0.5-2.4-0.6c-0.3-0.4-0.6-0.8-1.1-1.3c-1.3,1.1-2.5,2.1-3.7,3.3
			c0.5,0.6,0.8,1.1,1.2,1.6c0.1,0.1,0.1,0.2,0.2,0.3c-1.6,1.4-3.1,2.8-4.7,4.2c-0.8,0.8-1.6,1.6-2.4,2.4c-0.2,0.2-0.5,0.4-0.8,0.6
			c-0.3,0.3-0.7,0.6-1,0.9c0.3,0.3,0.7,0.6,1.2,1.1c0.1,0.8,0.3,0.9,1.4,0.7c-0.1,0.6-0.3,1.3,0.6,1.4c0.7,0.1,0.9-0.4,0.9-1
			c0-0.2,0.2-0.4,0.3-0.6c2.2-2.2,4.4-4.4,6.7-6.7c0.4,0.4,0.6,0.7,1,1.1c-1.6,1.5-3,3-4.6,4.5c-1,0.9-2.1,1.7-3.2,2.6
			c-0.2,0.2-0.3,0.6-0.2,0.9c0.1,0.2,0.5,0.5,0.7,0.5c0.3-0.1,0.6-0.4,0.8-0.6c0.4-0.5,0.5-1.2,0.9-1.6c2-1.9,4-3.7,6.1-5.6
			c0.1,0.1,0.4,0.4,1,1c-0.9,0.7-1.7,1.3-2.5,2c-1.3,1.3-2.6,2.6-3.9,3.9c-0.2,0.2-0.5,0.5-0.8,0.6c-0.6,0.1-1.2,0.4-0.9,1.1
			c0.1,0.3,0.9,0.3,1.3,0.5c0.2,0.4,0.3,1,0.6,1.1c0.6,0.2,0.9-0.3,0.9-0.9c0-0.2,0.1-0.5,0.3-0.7c1.9-2,3.9-3.9,6-6
			c1,1.2,1.9,2.4,2.8,3.5c1,1.2,1,1.2,2.2,0.2c0.9-0.8,1.8-1.5,2.8-2.3c-1.1-1.4-2.2-2.7-3.4-4.2c3.5-1.7,6.9-3.3,10.3-4.9
			c11.6-5.5,23.2-11.1,34.8-16.6c18.1-8.6,36.2-17.3,54.3-25.9c17.1-8.1,34.2-16.3,51.2-24.4c17.4-8.3,34.8-16.6,52.2-24.9
			c0.7-0.3,0.8-0.7,0.5-1.4c-0.5-0.9-0.9-1.9-1.4-3.1c2.4-1.1,4.7-2.2,7-3.3c0.9,1.4,1.7,2.8,2.5,4.2c1.5-0.7,2.9-1.4,4.4-2.1
			c0.2,0.3,0.4,0.6,0.7,1c-0.5,0.2-0.8,0.4-1.2,0.6c-10.5,5-21.1,9.9-31.6,15.1c-18.7,9.2-37.3,18.5-55.9,27.9
			c-14,7-28,14.2-41.9,21.3c-5.2,2.7-10.3,5.6-15.5,8.3c-3.8,2-6.6,4.9-9,8.4c-3.1,4.5-6.2,9-9.7,13.3c-4.9,6-11.2,10.4-17.9,14.2
			c-8,4.5-16.3,8.1-25.1,10.3c-5.2,1.3-10.4,2-15.7,1.8c-4.6-0.2-9-1.1-13-3.4c-0.4-0.2-0.8-0.5-1.1-0.7c-1.1-0.6-1.9-1.4-2.6-2.2
			l-0.1,0.1c0,0-13.4-16.7,31.7-39.5c19.7-9.2,44.1-8.8,48.8-8.6l177.8-84.4c-0.2-0.3-0.4-0.6-0.7-0.9c0.9-0.4,1.7-0.8,2.5-1.1
			c3.2-1.2,6.5-2.4,9.7-3.6c0.6-0.2,1.1-0.3,1.4,0.5c1.6,4.1,3.3,8.3,4.9,12.4l0,0l1.6,3.8L281,229.6z M346.6,189.4
			c0.4,0.9,0.8,1.7,2.1,1.6c0.8-0.1,1.1,0.7,0.7,1.4c-0.9,1.5-2.4,2.4-4.1,2.7c-0.9,0.2-1.8-0.8-1.3-1.5c1-1.3,0.3-2.4-0.3-3.5
			c-0.1-0.2-0.1-0.3-0.3-0.7c0.9-0.4,1.7-0.8,2.6-1.2C346.2,188.7,346.4,189.1,346.6,189.4z M346.5,188.1c2-1,4-2,6.1-3
			c0.2,0.4,0.4,0.8,0.7,1.3c-2.1,1-4.1,1.9-6.2,2.9C346.9,188.8,346.8,188.5,346.5,188.1z M355.2,185.5c-0.7-1.2-0.7-1.3,0.6-1.9
			c0.4-0.2,0.9-0.4,1.4-0.6c0.2,0.5,0.5,0.8,0.6,1.2c0.4,0.9,0.8,1.5,2,1.5c0.8-0.1,1.2,0.6,0.8,1.4c-0.9,1.6-2.5,2.5-4.3,2.8
			c-0.9,0.2-1.6-0.8-1-1.6C356,187.2,355.8,186.4,355.2,185.5z M316.3,198.7c3.4-1.7,6.9-3.3,10.4-4.9c0.5,0.5,0.6,0.8-0.1,1.1
			c-3.5,1.7-7,3.3-10.4,5c-0.1-0.1-0.3-0.2-0.4-0.3C315.9,199.3,316,198.9,316.3,198.7z M315.4,198.5c-0.1-0.1-0.2-0.1-0.3-0.2
			c0.2-0.3,0.2-0.7,0.5-0.8c3.3-1.6,6.7-3.2,10.1-4.7c0.2-0.1,0.5,0.1,0.7,0.1c-0.1,0.2-0.2,0.6-0.3,0.7
			C322.5,195.2,318.9,196.9,315.4,198.5z M317,200.1c3-1.4,6-2.9,8.9-4.3c0.4-0.2,0.9-0.4,1.3-0.6c0.1,0.1,0.2,0.1,0.4,0.2
			c-0.1,0.3-0.2,0.7-0.4,0.8c-3.3,1.6-6.6,3.2-9.9,4.8c-0.2,0.1-0.6,0-0.8-0.1C316.6,200.6,316.7,200.2,317,200.1z M314.1,199.7
			c0.5,0.5,0.5,0.9-0.2,1.2c-3.2,1.5-6.4,3.1-9.8,4.7c-0.2-0.4-0.3-0.6-0.4-0.9C307.2,203,310.7,201.4,314.1,199.7z M303.6,204.1
			c-0.1-0.1-0.2-0.2-0.3-0.2c0.1-0.3,0.2-0.7,0.4-0.8c3.1-1.5,6.2-2.9,9.3-4.4c0.2-0.1,0.6,0.1,0.9,0.1c0,0.1,0,0.3,0,0.4
			C310.4,200.9,307,202.5,303.6,204.1z M305,205.8c1.4-0.7,2.8-1.4,4.3-2.1c1.7-0.8,3.3-1.6,5-2.3c0.2-0.1,0.5,0.1,0.8,0.1
			c-0.2,0.2-0.3,0.6-0.5,0.7c-3,1.5-6.1,2.9-9.1,4.4c-0.2,0.1-0.3,0.1-0.6,0.2c-0.1-0.1-0.3-0.3-0.3-0.4
			C304.6,206.2,304.8,205.9,305,205.8z M283.4,214.3c3-1.4,5.9-2.8,9.3-4.4c-0.2,0.6-0.2,1.2-0.4,1.3c-3,1.5-6,2.9-9,4.3
			C282.7,215,282.7,214.6,283.4,214.3z M282.6,214.1c-0.1-0.1-0.2-0.1-0.3-0.2c0.1-0.3,0.1-0.8,0.3-0.9c3-1.5,6-2.9,9-4.3
			c0.1,0.1,0.2,0.1,0.3,0.2c-0.1,0.3-0.1,0.8-0.3,0.9C288.6,211.3,285.6,212.7,282.6,214.1z M283.9,215.9c2.8-1.4,5.7-2.7,8.5-4.1
			c0.2-0.1,0.5,0,0.8,0.1c0.1,0.1,0.1,0.3,0.2,0.4c-0.2,0.1-0.4,0.2-0.6,0.3c-2.9,1.4-5.7,2.7-8.6,4.1c-0.2,0.1-0.5-0.1-0.7-0.1
			C283.6,216.3,283.7,216,283.9,215.9z M293.8,207.7c2.4-1.1,4.8-2.3,7.2-3.4c0.2-0.1,0.6,0,0.9,0.1c-0.2,0.3-0.3,0.6-0.5,0.8
			c-2.6,1.3-5.2,2.5-7.8,3.7C293.2,208.3,293.2,208,293.8,207.7z M294.3,209.2c2.6-1.3,5.2-2.5,7.9-3.8c0.5,0.5,0.6,0.9-0.1,1.2
			c-2.6,1.2-5.2,2.5-7.8,3.7c-0.1-0.1-0.3-0.1-0.4-0.2C294,209.8,294.1,209.3,294.3,209.2z M294.4,210.8c2.8-1.3,5.6-2.7,8.4-4
			c0.1,0.1,0.2,0.1,0.3,0.2c-0.1,0.3-0.2,0.7-0.4,0.8c-2.5,1.2-5,2.4-7.5,3.6c-0.2,0.1-0.6-0.1-0.9-0.2
			C294.4,211.1,294.4,210.9,294.4,210.8z M194.7,258.2c2.7-1.3,5.5-2.5,8.2-3.8c0.6-0.3,1-0.2,1,0.6c-3.1,1.5-6.2,3-9.3,4.4
			C193.9,258.9,194,258.5,194.7,258.2z M193.8,258.1c-0.2-0.3-0.3-0.6-0.5-1.1c3.2-1.5,6.4-3,9.5-4.5c0.2,0.4,0.3,0.6,0.5,1
			C200.2,255.1,197,256.6,193.8,258.1z M203.5,250.2c3.2-1.5,6.3-3,9.6-4.5c0.2,0.4,0.3,0.7,0.5,1.1c-3.2,1.5-6.3,3-9.6,4.5
			C203.9,251,203.7,250.6,203.5,250.2z M213.8,247.3c0.2,0.3,0.3,0.6,0.5,1c-3.2,1.5-6.3,3-9.5,4.6c-0.2-0.4-0.3-0.7-0.5-1
			C207.5,250.3,210.6,248.9,213.8,247.3z M214,249.1c0.2-0.1,0.6,0.1,0.9,0.2c0,0.1-0.1,0.3-0.1,0.4c-2.9,1.4-5.9,2.8-8.8,4.2
			c-0.7,0.3-0.8,0-0.9-0.6C208,251.9,211,250.5,214,249.1z M215.2,244.7c3-1.4,6-2.8,9.1-4.2c0.2-0.1,0.6,0.1,0.9,0.2
			c-0.1,0.3-0.2,0.7-0.4,0.8c-3.2,1.6-6.5,3.1-9.8,4.6C214.5,245.5,214.5,245,215.2,244.7z M215.8,246.5c3.3-1.6,6.5-3.1,9.9-4.7
			c0.2,0.3,0.3,0.6,0.5,1c-3.5,1.7-6.9,3.3-10.3,4.9c-0.1-0.1-0.3-0.1-0.4-0.2C215.5,247.1,215.5,246.6,215.8,246.5z M226.2,243.3
			c0.6,0.5,0.5,0.8-0.1,1.1c-3,1.4-6,2.9-9.1,4.3c-0.6,0.3-1,0.2-1.1-0.6C219.4,246.5,222.8,244.9,226.2,243.3z M227,239.2
			c3-1.4,5.9-2.8,8.9-4.2c0.4,0.5,0.8,0.9-0.1,1.3c-3,1.4-5.9,2.8-8.9,4.2C226.5,240,226.2,239.6,227,239.2z M227.3,241
			c2.9-1.4,5.9-2.9,8.8-4.2c0.2-0.1,0.7,0.2,1,0.3c0,0.1,0,0.3,0,0.4c-3.2,1.5-6.3,3-9.5,4.5c-0.2-0.3-0.3-0.6-0.4-0.8
			C227.2,241.1,227.3,241,227.3,241z M228.4,242.2c3-1.4,5.9-2.8,8.9-4.2c0.5,0.6,0.5,0.9-0.1,1.1c-3,1.4-5.9,2.8-8.9,4.2
			C227.8,242.9,227.6,242.6,228.4,242.2z M238.1,234c2.7-1.2,5.3-2.5,8-3.7c0.6-0.3,1.1-0.5,1.3,0.6c-3.1,1.5-6.2,3-9.4,4.5
			C237.4,234.7,237.4,234.3,238.1,234z M244.8,232.6c0.7-0.3,1.5-0.7,2.2-1c0.7-0.4,0.9-0.1,1.1,0.7c-3.2,1.5-6.3,3-9.5,4.5
			c-0.2-0.4-0.3-0.6-0.5-1C240.4,234.7,242.6,233.7,244.8,232.6z M238.8,237.3c3-1.4,5.9-2.8,8.9-4.2c0.2-0.1,0.6,0.1,1,0.2
			c0,0.1,0,0.2,0,0.4c-2.4,1.2-4.9,2.3-7.3,3.5c-0.5,0.3-1,0.6-1.6,0.7c-0.3,0.1-0.7-0.1-1-0.1C238.8,237.6,238.8,237.4,238.8,237.3
			z M248.5,229.1c0.7-0.3,1.3-0.7,2-1c2.2-1.1,4.4-2.1,6.7-3.1c0.3-0.1,0.7,0,1.1,0.1c-0.2,0.3-0.3,0.7-0.6,0.8
			c-2.7,1.3-5.4,2.6-8,3.8C249.1,230,248.6,230.1,248.5,229.1z M258.6,226.1c0.4,0.5,0.7,0.9-0.1,1.2c-3,1.4-5.9,2.8-9,4.3
			c-0.2-0.4-0.3-0.6-0.5-1C252.3,229.1,255.4,227.6,258.6,226.1z M250.3,231.8c2.8-1.4,5.6-2.7,8.5-4c0.2-0.1,0.6,0.1,0.9,0.2
			c0,0.1,0,0.2,0,0.4c-3.1,1.5-6.3,3-9.4,4.5c-0.1-0.1-0.3-0.2-0.4-0.3C250,232.3,250.1,231.9,250.3,231.8z M259.5,224.4
			c0-0.1,0-0.3,0-0.4c1.5-0.7,3-1.4,4.4-2.1c1.6-0.7,3.1-1.5,4.7-2.2c0.6-0.3,1-0.2,1.1,0.7c-3.1,1.5-6.1,2.9-9.2,4.3
			C260.2,224.7,259.8,224.4,259.5,224.4z M260.8,225c2.8-1.3,5.6-2.7,8.4-4c0.7-0.3,1-0.2,1.1,0.6c-3.2,1.5-6.5,3.1-9.7,4.6
			C260,225.7,260.1,225.3,260.8,225z M261.3,226.6c3.1-1.5,6.2-3,9.4-4.5c0.1,0.3,0.2,0.5,0.4,0.8c-2.7,1.3-5.4,2.6-8,3.8
			c-0.5,0.2-0.9,0.5-1.4,0.6c-0.2,0.1-0.5-0.1-0.7-0.1C261,227.1,261.1,226.7,261.3,226.6z M270.8,218.9c0-0.1,0.1-0.3,0.1-0.4
			c3.2-1.5,6.5-3.1,9.7-4.6c0.1,0.1,0.2,0.2,0.3,0.2c-0.1,0.3-0.2,0.8-0.4,0.9c-3,1.5-5.9,2.9-8.9,4.2
			C271.4,219.4,271.1,219,270.8,218.9z M281.2,215.3c0.5,0.6,0.5,0.9-0.2,1.3c-3,1.4-6,2.9-9.1,4.3c-0.2-0.3-0.4-0.6-0.6-0.9
			C274.7,218.4,277.9,216.9,281.2,215.3z M272.6,221.2c2.9-1.4,5.8-2.8,8.8-4.2c0.2-0.1,0.5,0,0.7,0.1c-0.2,0.3-0.3,0.6-0.5,0.8
			c-3,1.5-6,2.9-9,4.3c-0.1-0.1-0.3-0.1-0.4-0.2C272.4,221.7,272.4,221.3,272.6,221.2z M131.8,288.1c12.6-6,25.2-12,37.8-17.9
			c6.1-2.9,12.1-5.8,18.2-8.7c1.4-0.6,2.7-1.3,4.1-2c0.6-0.3,1-0.2,1.1,0.6c-2.2,1.1-4.5,2.2-6.7,3.3c-4.1,2-8.2,3.9-12.3,5.9
			c-14.6,6.9-29.1,13.8-43.7,20.7c-1.4,0.7-2.8,1.3-4.2,2c-0.6,0.3-1,0.3-1.3-0.5C127.1,290.4,129.4,289.2,131.8,288.1z
			 M123.6,290.1c22.8-10.8,45.5-21.6,68.4-32.4c0.2,0.3,0.3,0.6,0.5,1c-1.2,0.6-2.4,1.3-3.6,1.8c-5.6,2.6-11.2,5.3-16.7,7.9
			c-12.2,5.8-24.3,11.6-36.5,17.3c-3.5,1.7-7,3.3-10.5,5C124.3,291.1,123.9,291.1,123.6,290.1z M120.3,295.8c-1.5,1.5-3,3-4.6,4.5
			c-0.7,0.6-1.5,1.1-2.3,1.7c0-1,0.6-1.7,1.3-2.3c1.9-1.6,3.7-3.3,5.7-5.1C120.9,294.8,120.9,295.2,120.3,295.8z M110.3,295.9
			c2.1-1.9,4.2-3.9,6.4-5.9c0.1,0.1,0.3,0.3,0.7,0.7c-1.4,1.4-2.7,2.6-4.1,4c-0.7,0.7-1.4,1.5-2.2,2.2c-0.6,0.5-1.4,0.8-2.1,1.2
			C109.1,297.2,109.6,296.5,110.3,295.9z M108,296.7c0.1-0.5,0.1-0.9,0.3-1.1c2.3-2.4,4.7-4.7,7.2-7.2c0.4,0.4,0.6,0.6,0.8,0.8
			C114.7,291.3,108.9,296.6,108,296.7z M396.3,199.5c-0.4,0.1-0.7,0.4-1,0.7c-0.5,0.5-0.4,0.8,0.2,1.1c2.1,0.8,2.8,2.8,1.3,4.5
			c-0.7,0.8-1.8,1.5-2.9,1.9c-1.6,0.6-1.7,0.6-0.6,1.8c0.6,0.6,0.8,1.4,0.4,2.1c-0.4,0.7-0.9,1.4-1.5,2c-0.2,0.2-0.9,0.3-1.2,0.2
			c-1.4-0.7-1.4-0.7-2.1,0.8c-0.5-0.2-1-0.4-1.5-0.7c-0.9-0.5-1.2-0.4-1.2,0.7c0,0.4,0,0.7,0,1.1c0,0.3,0.1,0.6,0,0.9
			c-0.2,0.7-0.2,1.6-1.2,1.7c-0.8,0.1-1.5-0.6-1.7-1.7c-0.1-0.3,0-0.6-0.2-0.9c-0.3-0.3-0.6-0.6-1-0.8c-0.2,0.3-0.5,0.6-0.6,1
			c-0.2,0.7-0.4,1.4-0.6,2.1c-0.2,0-0.4,0-0.6,0.1c-0.2-0.6-0.5-1.2-0.7-1.9c-0.2-0.3-0.4-0.7-0.5-1c-0.2,0.3-0.4,0.6-0.5,0.9
			c-0.3,0.6-0.6,1.2-0.9,1.7c-0.5-0.5-1.1-0.9-1.4-1.4c-1.6-2.6-0.1-6.6,2.9-8c0.9-0.4,1.8-0.8,2.6-1.3c1.4-0.9,1.7-2.1,0.9-3.4
			c-1.1-1.8-2.5-2.2-3.9-1.3c-0.2,0.1-0.6,0.2-0.9,0.1c-1.4-0.5-2.2-0.3-3,0.9c-0.4,0.6-0.6,1.3-0.9,2c-0.4,1.1-1,2.1-2.2,2.6
			c0.6-0.9,1.1-1.7-0.3-2.4c-0.4,0.4-0.9,0.8-1.4,1.2c-0.3,0.2-0.7,0.2-1,0.1c-0.1,0-0.2-0.6-0.2-0.8c0.1-1.1,0.3-2.2-1.1-2.7
			c-0.7-0.3-0.6-0.9,0.2-1.2c0.7-0.3,0.9-0.7,0.9-1.4c-0.3-4.9,2-8.1,6.7-8.8c0.6-0.1,1.3-0.5,1.8-0.9c0.5-0.4,1-0.4,1.6-0.3
			c1.8,0.4,3.6,0.7,5.4,0.9c1.3,0.1,2.6-1.3,2.9-2.9c0.2-1.3-0.4-2.5-1.7-3c-0.5-0.2-1.2-0.4-1.7-0.4c-1.2,0.2-1.7-0.3-2.1-1.4
			c-1.9-4.9-3.8-9.7-5.8-14.6c-0.1-0.2-0.2-0.5-0.2-0.7c9.2-3,16.6,0.1,19.9,9.8c1.4,4.1,1.2,8.3,0.4,12.4c-0.2,1-0.2,1.6,1,1.9
			c1.4,0.3,2,1.5,1.7,2.9C398.4,197.4,398,198.8,396.3,199.5z"/>
	</g>
</g>
</svg>
