<?xml version="1.0" encoding="utf-8"?>
<!-- Generator: Adobe Illustrator 19.1.0, SVG Export Plug-In . SVG Version: 6.00 Build 0)  -->
<svg version="1.1" id="Layer_1" xmlns="http://www.w3.org/2000/svg" xmlns:xlink="http://www.w3.org/1999/xlink" x="0px" y="0px"
	 viewBox="0 0 500 195.2" style="enable-background:new 0 0 500 195.2;" xml:space="preserve">
<style type="text/css">
	.st0{fill:#F8B017;}
	.st1{fill:none;}
	.st2{fill:#F5AF19;}
	.st3{fill:#E5D7C8;}
	.st4{fill:#F4AE19;}
	.st5{fill:#F7AF17;}
	.st6{fill:#0FA2D4;}
</style>
<g>
	<g>
		<path class="st6" d="M475.5,55.6c-7.7-2.8-11.6-11.4-8.7-19c1.1-3,3.3-5.4,6.3-6.8c2.9-1.3,6.2-1.5,9.2-0.4
			c2.5,0.9,4.4,2.7,5.5,5.1c1.1,2.4,1.2,5.1,0.3,7.5c-0.7,2-2.2,3.6-4.2,4.5c-2,0.9-4.1,1-6.2,0.2c-3.4-1.3-5.2-5.1-3.9-8.5
			c1.1-2.8,4.2-4.3,7.1-3.3c2.4,0.9,3.6,3.5,2.7,5.9l-1.8-0.7c0.5-1.4-0.2-2.9-1.6-3.4c-1.8-0.7-3.9,0.3-4.6,2.1
			c-0.9,2.4,0.3,5.1,2.8,6c1.5,0.6,3.2,0.5,4.7-0.2c1.5-0.7,2.6-1.9,3.2-3.4c0.7-2,0.6-4.1-0.2-6s-2.4-3.4-4.4-4.1
			c-2.5-0.9-5.3-0.8-7.7,0.3c-2.4,1.1-4.3,3.1-5.2,5.7c-2.5,6.6,0.9,14,7.6,16.5L475.5,55.6z"/>
	</g>
	<g>
		<path class="st6" d="M80.8,167.3c-3.5,0-7-1.1-9.9-3.2c-3.7-2.6-6.2-6.6-6.9-11.1c-1.3-7.5,3.9-14.7,11.4-15.9
			c6.1-1,12,3.1,13,9.3c0.8,5-2.6,9.8-7.6,10.6c-4.1,0.7-8-2.1-8.7-6.2c-0.6-3.4,1.7-6.6,5.1-7.2c1.4-0.2,2.7,0.1,3.9,0.9
			c1.1,0.8,1.9,2,2.1,3.4l-1.9,0.3c-0.1-0.9-0.6-1.6-1.3-2.1c-0.7-0.5-1.6-0.7-2.4-0.6c-2.3,0.4-3.9,2.6-3.5,4.9
			c0.5,3.1,3.4,5.1,6.5,4.6c3.9-0.7,6.6-4.4,6-8.4c-0.8-5.1-5.7-8.5-10.7-7.7c-6.5,1.1-10.9,7.2-9.8,13.7c0.7,4,2.8,7.5,6.1,9.8
			c3.3,2.3,7.3,3.3,11.3,2.6l0.3,1.9C82.7,167.2,81.8,167.3,80.8,167.3z"/>
	</g>
	<g>
		<path class="st6" d="M458.2,147c-4.9,0-9.6-1.5-13.6-4.4c-5.1-3.7-8.5-9.1-9.5-15.3c-0.8-5,0.3-10.1,3.3-14.2
			c3-4.1,7.3-6.9,12.4-7.7c4.1-0.7,8.1,0.3,11.5,2.7c3.4,2.4,5.6,5.9,6.2,10c0.6,3.3-0.2,6.6-2.2,9.3c-1.9,2.7-4.8,4.5-8.1,5.1
			c-5.6,0.9-10.8-2.8-11.8-8.4c-0.4-2.2,0.1-4.4,1.4-6.2c1.3-1.8,3.2-3,5.4-3.4c1.8-0.3,3.6,0.1,5.1,1.2c1.5,1.1,2.5,2.7,2.8,4.5
			l-1.9,0.3c-0.2-1.3-0.9-2.4-2-3.2c-1.1-0.8-2.4-1.1-3.7-0.9c-1.7,0.3-3.2,1.2-4.2,2.6c-1,1.4-1.4,3.1-1.1,4.8
			c0.7,4.5,5,7.5,9.5,6.8c2.8-0.5,5.2-2,6.9-4.3c1.6-2.3,2.3-5.1,1.8-7.9c-0.6-3.5-2.5-6.6-5.5-8.7c-2.9-2.1-6.5-2.9-10-2.3
			c-4.5,0.8-8.4,3.2-11.1,6.9c-2.6,3.7-3.7,8.2-2.9,12.7c0.9,5.7,4.1,10.7,8.7,14c4.7,3.4,10.4,4.7,16.1,3.7l0.3,1.9
			C460.8,146.9,459.5,147,458.2,147z"/>
	</g>
	<g>
		<path class="st6" d="M295.2,140.8c-14.8-3-25-17.6-22.7-32.5c0.9-5.8,4-10.8,8.6-14c4.7-3.3,10.4-4.4,16.1-3.3
			c9.4,1.9,15.8,11.1,14.4,20.6c-0.6,3.7-2.5,6.9-5.5,8.9c-3,2.1-6.6,2.8-10.3,2.1c-6-1.2-10.1-7.1-9.2-13.2
			c0.4-2.4,1.6-4.4,3.6-5.8c1.9-1.4,4.3-1.8,6.7-1.4c3.9,0.8,6.6,4.6,6,8.6c-0.2,1.6-1.1,2.9-2.4,3.8c-1.3,0.9-2.9,1.2-4.4,0.9
			c-2.6-0.5-4.4-3.1-4-5.7l1.9,0.3c-0.2,1.6,0.9,3.2,2.5,3.5c1,0.2,2.1,0,2.9-0.6c0.8-0.6,1.4-1.5,1.6-2.5c0.5-2.9-1.5-5.8-4.4-6.4
			c-1.8-0.4-3.7,0-5.2,1c-1.5,1-2.5,2.6-2.8,4.5c-0.8,5,2.7,9.9,7.6,10.9c3.1,0.6,6.2,0,8.8-1.8c2.5-1.8,4.2-4.5,4.7-7.6
			c1.3-8.4-4.5-16.7-12.8-18.3c-5.2-1-10.4,0-14.6,3c-4.2,3-7,7.5-7.8,12.7c-2.1,13.9,7.4,27.5,21.2,30.3L295.2,140.8z"/>
	</g>
	<g>
		<path class="st6" d="M90.5,193.3c-13.6-19.9-8.5-47.2,11.4-60.8c15.8-10.8,37.4-6.8,48.2,9c4.1,6.1,5.7,13.4,4.3,20.6
			s-5.4,13.5-11.5,17.6c-9.9,6.8-23.5,4.3-30.3-5.7c-5.4-7.9-3.4-18.8,4.5-24.2c3.1-2.1,6.8-2.9,10.4-2.2c3.6,0.7,6.8,2.7,8.9,5.8
			c1.7,2.5,2.3,5.4,1.8,8.3c-0.5,2.9-2.2,5.5-4.7,7.1c-4.1,2.8-9.7,1.8-12.5-2.3c-2.3-3.3-1.4-7.9,1.9-10.1c2.7-1.9,6.4-1.2,8.3,1.5
			c1.5,2.2,1,5.3-1.3,6.8c-0.9,0.6-2,0.8-3,0.6c-1.1-0.2-2-0.8-2.6-1.7l1.6-1.1c0.7,0.9,2,1.2,2.9,0.5c1.3-0.9,1.7-2.7,0.8-4.1
			c-0.6-0.9-1.5-1.5-2.6-1.7c-1.1-0.2-2.1,0-3,0.6c-1.2,0.8-2,2-2.2,3.4c-0.3,1.4,0,2.8,0.8,4c1.1,1.5,2.7,2.6,4.5,2.9
			c1.8,0.4,3.7,0,5.3-1.1c2-1.4,3.4-3.5,3.8-5.9c0.4-2.4-0.1-4.9-1.5-6.9c-1.8-2.6-4.5-4.4-7.7-5c-3.1-0.6-6.3,0.1-8.9,1.9
			c-3.4,2.3-5.7,5.8-6.4,9.9c-0.8,4.1,0.1,8.2,2.4,11.6c3,4.4,7.5,7.3,12.7,8.3c5.2,1,10.5-0.1,14.9-3.1c5.6-3.9,9.4-9.7,10.7-16.4
			c1.3-6.7-0.2-13.5-4-19.1c-4.9-7.2-12.4-12-21-13.7c-8.6-1.6-17.3,0.2-24.5,5.2c-19,13-23.9,39.1-10.9,58.1L90.5,193.3z"/>
	</g>
	<g>
		<path class="st6" d="M425.3,114.6c-13.6-19.9-8.5-47.2,11.4-60.8c7.6-5.2,16.8-7.2,25.9-5.5c9.1,1.7,17,6.8,22.2,14.5
			c4.1,6.1,5.7,13.4,4.3,20.6c-1.3,7.2-5.4,13.5-11.5,17.6c-4.8,3.3-10.6,4.5-16.3,3.5c-5.7-1.1-10.7-4.3-14-9.1
			c-2.6-3.8-3.6-8.5-2.8-13c0.9-4.6,3.4-8.5,7.3-11.2c3.1-2.1,6.8-2.9,10.4-2.2c3.6,0.7,6.8,2.7,8.9,5.8c3.5,5.1,2.2,12-2.9,15.5
			c-2,1.4-4.4,1.9-6.7,1.4s-4.4-1.8-5.8-3.8c-2.3-3.3-1.4-7.9,1.9-10.1c1.3-0.9,2.9-1.2,4.4-0.9c1.6,0.3,2.9,1.2,3.8,2.5
			c0.7,1.1,1,2.4,0.8,3.7c-0.2,1.3-1,2.4-2,3.1c-0.9,0.6-2,0.8-3,0.6c-1.1-0.2-2-0.8-2.6-1.7l1.6-1.1c0.7,0.9,2,1.2,2.9,0.5
			c0.6-0.4,1.1-1.1,1.2-1.9c0.1-0.8,0-1.5-0.5-2.2c-1.2-1.8-3.7-2.3-5.5-1c-2.4,1.7-3,5-1.4,7.4c1.1,1.5,2.7,2.6,4.5,2.9
			c1.8,0.4,3.7,0,5.3-1.1c4.2-2.9,5.2-8.6,2.4-12.8c-1.8-2.6-4.5-4.4-7.7-5c-3.1-0.6-6.3,0.1-8.9,1.9c-3.4,2.3-5.7,5.8-6.4,9.9
			c-0.8,4.1,0.1,8.2,2.4,11.6c3,4.4,7.5,7.3,12.7,8.3c5.2,1,10.5-0.1,14.9-3.1c5.6-3.9,9.4-9.7,10.7-16.4c1.3-6.7-0.2-13.5-4-19.1
			c-4.9-7.2-12.4-12-21-13.7c-8.6-1.6-17.3,0.2-24.5,5.2c-19,13-23.9,39.1-10.9,58.1L425.3,114.6z"/>
	</g>
	<g>
		<path class="st6" d="M168.6,174.7c-4.3-6.1-6-13.6-4.7-21c1.3-7.4,5.4-13.9,11.5-18.2c4.9-3.5,10.8-4.8,16.7-3.8
			c5.9,1,11,4.3,14.5,9.1c5.7,8,3.7,19.2-4.3,24.8c-3.1,2.2-6.9,3-10.6,2.4c-3.7-0.6-7-2.7-9.2-5.8c-3.6-5.1-2.4-12.3,2.7-15.9
			c4.1-2.9,9.9-1.9,12.8,2.2c2.4,3.4,1.6,8-1.8,10.4c-2.7,1.9-6.5,1.3-8.5-1.5c-1.6-2.2-1-5.4,1.2-6.9c0.9-0.6,2-0.9,3.1-0.7
			c1.1,0.2,2,0.8,2.7,1.7l-1.6,1.1c-0.3-0.5-0.8-0.8-1.4-0.9c-0.6-0.1-1.1,0-1.6,0.4c-1.4,1-1.7,2.9-0.7,4.2
			c0.6,0.9,1.6,1.5,2.7,1.7c1.1,0.2,2.2-0.1,3.1-0.7c1.2-0.8,2-2.1,2.2-3.5c0.2-1.4-0.1-2.9-0.9-4.1c-2.3-3.3-6.8-4-10.1-1.7
			c-4.3,3-5.3,8.9-2.3,13.2c1.9,2.7,4.7,4.5,7.9,5c3.2,0.6,6.5-0.2,9.2-2.1c7.1-5,8.9-15,3.8-22.1c-3.1-4.5-7.8-7.4-13.2-8.3
			c-5.4-0.9-10.8,0.3-15.2,3.4c-5.7,4-9.5,10.1-10.7,17c-1.2,6.9,0.4,13.8,4.4,19.6L168.6,174.7z"/>
	</g>
	<g>
		<path class="st6" d="M208.4,173c-2.5-5-3-10.7-1.3-16c1.7-5.3,5.4-9.7,10.4-12.2c8.3-4.3,18.6-0.9,22.8,7.4
			c3.5,6.8,0.8,15.1-6,18.5c-5.5,2.8-12.3,0.6-15.1-4.9c-2.3-4.5-0.5-10,4-12.3c3.7-1.9,8.2-0.4,10.1,3.3c1.6,3.1,0.3,6.8-2.7,8.4
			c-2.5,1.3-5.7,0.3-7-2.3c-1.1-2.1-0.2-4.7,1.9-5.8c0.9-0.4,1.9-0.5,2.8-0.2c0.9,0.3,1.7,0.9,2.1,1.8l-1.7,0.9
			c-0.2-0.4-0.6-0.7-1-0.8c-0.4-0.1-0.9-0.1-1.3,0.1c-1.2,0.6-1.6,2-1,3.2c0.8,1.6,2.7,2.2,4.3,1.4c2.1-1.1,2.9-3.6,1.9-5.7
			c-1.4-2.7-4.8-3.8-7.5-2.4c-3.5,1.8-4.9,6.2-3.1,9.7c2.3,4.5,7.9,6.4,12.5,4c5.8-3,8.1-10.1,5.1-15.9c-3.8-7.4-12.8-10.3-20.2-6.5
			c-4.5,2.3-7.9,6.2-9.4,11.1c-1.6,4.8-1.2,10,1.2,14.5L208.4,173z"/>
	</g>
	<g>
		<path class="st6" d="M248.7,176.1c-5.9-5.4-9.3-12.8-9.6-20.8c-0.3-8,2.5-15.6,7.9-21.5c4.6-4.9,10.8-7.8,17.5-8.1
			c6.7-0.3,13.1,2.1,18,6.6c8.6,7.9,9.1,21.3,1.2,29.9c-3.2,3.5-7.6,5.5-12.4,5.7c-4.8,0.2-9.3-1.5-12.8-4.7
			c-3-2.7-4.7-6.4-4.8-10.5c-0.2-4,1.3-7.9,4-10.8c2.3-2.5,5.5-4,8.9-4.1c3.4-0.1,6.7,1.1,9.2,3.4c4.4,4,4.7,10.9,0.6,15.3
			c-3.4,3.7-9.3,4-13,0.5c-1.5-1.4-2.4-3.4-2.5-5.4c-0.1-2.1,0.7-4.1,2.1-5.6c1.2-1.3,2.9-2.1,4.7-2.2c1.8-0.1,3.5,0.6,4.8,1.8
			c1.1,1,1.8,2.5,1.9,4c0.1,1.5-0.5,3-1.5,4.1c-1.9,2-5,2.1-7,0.3c-0.8-0.8-1.3-1.8-1.4-3c0-1.2,0.4-2.3,1.1-3.1
			c1.4-1.5,3.8-1.6,5.3-0.2l-1.3,1.4c-0.7-0.7-1.9-0.6-2.6,0.1c-0.4,0.5-0.7,1.1-0.6,1.7c0,0.6,0.3,1.2,0.8,1.6
			c0.6,0.5,1.4,0.8,2.2,0.8c0.8,0,1.6-0.4,2.1-1c0.7-0.7,1-1.7,1-2.7c0-1-0.5-2-1.2-2.6c-0.9-0.9-2.1-1.3-3.4-1.3
			c-1.3,0.1-2.4,0.6-3.3,1.5c-1.1,1.2-1.6,2.7-1.6,4.2c0.1,1.6,0.7,3,1.9,4.1c2.9,2.7,7.5,2.5,10.2-0.4c3.3-3.6,3.1-9.2-0.5-12.5
			c-2.1-2-4.8-3-7.7-2.9c-2.9,0.1-5.5,1.3-7.5,3.5c-2.4,2.6-3.6,5.9-3.5,9.4c0.1,3.5,1.6,6.7,4.2,9.1c3.1,2.9,7.2,4.4,11.4,4.2
			c4.2-0.2,8.2-2,11-5.1c3.5-3.8,5.3-8.7,5.1-13.8c-0.2-5.1-2.4-9.9-6.2-13.3c-9.4-8.7-24.1-8.1-32.7,1.3
			c-5.1,5.5-7.7,12.6-7.4,20.1c0.3,7.5,3.5,14.3,9,19.4L248.7,176.1z"/>
	</g>
	<g>
		<path class="st6" d="M151.7,148c-3.5-3.8-5.3-8.7-5.1-13.8c0.2-5.1,2.4-9.9,6.1-13.4c2.9-2.7,6.7-4.2,10.8-4
			c4,0.2,7.7,1.9,10.4,4.8c2.1,2.3,3.2,5.3,3.1,8.4c-0.1,3.1-1.5,6-3.8,8.2c-3.7,3.5-9.6,3.3-13.1-0.5c-2.8-3-2.6-7.6,0.4-10.4
			c1.2-1.1,2.6-1.6,4.2-1.6c1.6,0.1,3,0.7,4.1,1.9c0.9,0.9,1.3,2.1,1.3,3.4c0,1.3-0.6,2.4-1.5,3.3c-1.6,1.5-4,1.4-5.5-0.2l1.4-1.3
			c0.7,0.8,1.9,0.8,2.7,0.1c0.5-0.5,0.9-1.2,0.9-1.9c0-0.7-0.2-1.5-0.7-2c-0.7-0.8-1.7-1.2-2.7-1.3c-1,0-2,0.3-2.8,1
			c-2.2,2-2.3,5.4-0.3,7.6c2.7,3,7.4,3.1,10.3,0.4c1.9-1.8,3-4.2,3.1-6.8c0.1-2.6-0.8-5.1-2.6-7c-2.4-2.6-5.6-4-9.1-4.2
			c-3.5-0.1-6.8,1.1-9.4,3.5c-3.4,3.1-5.3,7.4-5.5,12c-0.2,4.6,1.5,9,4.6,12.4L151.7,148z"/>
	</g>
	<g>
		<path class="st6" d="M89.4,147.3c-9.9-7.1-16.4-17.6-18.4-29.6c-2-12,0.8-24.1,7.9-34c11.3-15.8,33.4-19.5,49.2-8.1
			c5.9,4.3,9.9,10.6,11.1,17.8c1.2,7.2-0.5,14.4-4.7,20.4c-6.8,9.5-20.1,11.7-29.6,4.9c-3.6-2.6-6-6.4-6.7-10.8
			c-0.7-4.4,0.3-8.7,2.9-12.3c2-2.8,5-4.7,8.4-5.2c3.4-0.6,6.8,0.2,9.7,2.3c4.6,3.3,5.6,9.6,2.4,14.2c-2.6,3.6-7.6,4.4-11.2,1.9
			c-2.9-2.1-3.5-6.1-1.5-9c1.7-2.3,4.9-2.8,7.2-1.2c0.9,0.7,1.5,1.6,1.7,2.7c0.2,1.1-0.1,2.2-0.7,3.1l-1.6-1.1
			c0.7-1,0.5-2.4-0.5-3.1c-1.4-1-3.4-0.7-4.5,0.7c-1.4,2-1,4.8,1,6.2c2.7,2,6.6,1.3,8.5-1.4c2.6-3.7,1.8-8.8-1.9-11.5
			c-2.4-1.7-5.3-2.4-8.2-1.9c-2.9,0.5-5.4,2.1-7.1,4.4c-2.3,3.2-3.2,7-2.5,10.9c0.6,3.8,2.7,7.2,5.9,9.5c4.2,3,9.3,4.2,14.4,3.3
			c5.1-0.8,9.5-3.6,12.5-7.8c3.9-5.5,5.5-12.2,4.4-18.9c-1.1-6.7-4.8-12.5-10.3-16.5c-14.9-10.7-35.8-7.2-46.5,7.7
			c-6.8,9.5-9.5,21-7.6,32.5s8.2,21.6,17.6,28.3L89.4,147.3z"/>
	</g>
	<g>
		<path class="st6" d="M325.6,125.5c-20.4-14.6-25.1-43.2-10.5-63.6c5.5-7.7,13.6-12.7,22.9-14.3c9.3-1.5,18.6,0.6,26.3,6.1
			c5.9,4.3,9.9,10.6,11.1,17.8c1.2,7.2-0.5,14.4-4.7,20.4c-6.8,9.5-20.1,11.7-29.6,4.9c-3.6-2.6-6-6.4-6.7-10.8
			c-0.7-4.4,0.3-8.7,2.9-12.3c2-2.8,5-4.7,8.4-5.2c3.4-0.6,6.8,0.2,9.7,2.2c4.6,3.3,5.6,9.6,2.4,14.2c-1.3,1.8-3.1,2.9-5.2,3.3
			c-2.1,0.3-4.3-0.1-6-1.4c-2.9-2.1-3.5-6.1-1.5-9c0.8-1.1,2-1.9,3.4-2.1c1.4-0.2,2.7,0.1,3.9,0.9c0.9,0.7,1.5,1.6,1.7,2.7
			c0.2,1.1-0.1,2.2-0.7,3.1l-1.6-1.1c0.3-0.5,0.5-1.1,0.4-1.7c-0.1-0.6-0.4-1.1-0.9-1.5c-0.7-0.5-1.5-0.7-2.4-0.6
			c-0.8,0.1-1.6,0.6-2.1,1.3c-1.4,2-1,4.8,1,6.2c1.3,0.9,2.9,1.3,4.5,1.1c1.6-0.3,3-1.1,4-2.5c2.6-3.7,1.8-8.8-1.9-11.5
			c-4.9-3.5-11.8-2.4-15.3,2.5c-2.3,3.2-3.2,7-2.5,10.9c0.6,3.8,2.7,7.2,5.9,9.5c4.2,3,9.3,4.2,14.4,3.3c5.1-0.8,9.5-3.6,12.5-7.8
			c3.9-5.5,5.5-12.2,4.4-18.9c-1.1-6.7-4.8-12.5-10.3-16.5c-7.2-5.2-16-7.2-24.8-5.8c-8.8,1.5-16.5,6.2-21.6,13.5
			c-14,19.6-9.5,46.9,10.1,60.9L325.6,125.5z"/>
	</g>
	<g>
		<path class="st6" d="M396.1,171.9c-16.5-11.8-20.3-34.9-8.5-51.4c9.2-12.8,27-15.8,39.8-6.6c9.9,7.1,12.2,21,5.1,30.9
			c-2.7,3.7-6.7,6.2-11.2,7c-4.6,0.7-9.1-0.3-12.9-3c-6.1-4.3-7.4-12.8-3.1-18.8c1.6-2.3,4.1-3.8,6.9-4.3c2.8-0.5,5.6,0.2,7.9,1.8
			c3.8,2.7,4.6,7.9,1.9,11.7c-1,1.4-2.6,2.4-4.3,2.7c-1.8,0.3-3.5-0.1-5-1.2c-2.4-1.7-3-5.1-1.2-7.5c0.7-0.9,1.7-1.6,2.8-1.8
			c1.1-0.2,2.3,0.1,3.2,0.8c1.6,1.1,2,3.4,0.8,5l-1.6-1.1c0.5-0.7,0.3-1.7-0.4-2.2c-1.1-0.8-2.6-0.5-3.3,0.6
			c-0.5,0.7-0.7,1.6-0.6,2.5c0.1,0.9,0.6,1.7,1.4,2.2c1,0.7,2.3,1,3.5,0.8c1.2-0.2,2.3-0.9,3.1-1.9c2.1-2.9,1.4-6.9-1.5-9
			c-3.9-2.8-9.3-1.9-12.1,2c-3.7,5.2-2.5,12.4,2.7,16.1c3.3,2.4,7.4,3.3,11.4,2.7c4-0.7,7.6-2.9,9.9-6.2c6.5-9.1,4.4-21.7-4.7-28.2
			c-11.9-8.5-28.5-5.8-37.1,6.1c-11.2,15.6-7.6,37.5,8,48.6L396.1,171.9z"/>
	</g>
	<g>
		<path class="st6" d="M27.2,183.5c-16.2-11.7-20-34.5-8.4-50.8c4.4-6.1,10.9-10.2,18.3-11.4c7.4-1.2,14.8,0.5,20.9,4.9
			c9.8,7,12,20.8,5,30.6c-2.6,3.7-6.6,6.2-11.1,6.9c-4.5,0.7-9-0.3-12.7-3c-6-4.3-7.3-12.7-3.1-18.6c1.6-2.3,4-3.8,6.8-4.3
			c2.8-0.4,5.5,0.2,7.8,1.8c3.7,2.7,4.6,7.9,1.9,11.6c-1,1.4-2.5,2.4-4.3,2.7c-1.7,0.3-3.5-0.1-4.9-1.1c-2.4-1.7-2.9-5-1.2-7.4
			c0.7-0.9,1.7-1.6,2.8-1.7c1.1-0.2,2.3,0.1,3.2,0.8c1.6,1.1,1.9,3.3,0.8,4.9l-1.6-1.1c0.5-0.7,0.3-1.7-0.4-2.2
			c-0.5-0.4-1.1-0.5-1.7-0.4c-0.6,0.1-1.2,0.4-1.5,0.9c-1.1,1.5-0.7,3.6,0.8,4.7c1,0.7,2.2,1,3.4,0.8c1.2-0.2,2.3-0.9,3-1.9
			c2-2.8,1.4-6.8-1.5-8.9c-1.8-1.3-4.1-1.9-6.3-1.5c-2.2,0.4-4.2,1.6-5.5,3.5c-3.6,5.1-2.5,12.3,2.6,15.9c3.3,2.3,7.2,3.3,11.2,2.6
			c4-0.7,7.4-2.8,9.8-6.1c6.4-9,4.3-21.5-4.6-27.9c-5.7-4.1-12.6-5.7-19.4-4.6c-6.9,1.1-12.9,4.9-17,10.6c-11,15.5-7.5,37,7.9,48.1
			L27.2,183.5z"/>
	</g>
	<g>
		<path class="st6" d="M41.7,122.1c-3.6-4.5-5.2-10.2-4.5-15.9c0.7-5.7,3.5-10.8,8.1-14.4c3.5-2.8,7.9-4,12.4-3.5
			c4.5,0.5,8.4,2.8,11.2,6.3c4.5,5.7,3.5,14-2.2,18.5c-4.5,3.5-11,2.8-14.5-1.7c-2.8-3.5-2.2-8.7,1.4-11.5c2.8-2.2,6.9-1.7,9.1,1.1
			c1.8,2.3,1.4,5.6-0.9,7.3c-1.8,1.5-4.5,1.1-6-0.7l1.5-1.2c0.8,1,2.2,1.2,3.2,0.4c1.4-1.1,1.7-3.2,0.5-4.6c-1.6-2-4.4-2.3-6.4-0.8
			c-2.7,2.1-3.2,6-1,8.7c2.9,3.6,8.1,4.2,11.8,1.4c4.8-3.8,5.7-10.9,1.9-15.7c-5.1-6.4-14.4-7.5-20.8-2.5c-8.5,6.7-10,19-3.3,27.5
			L41.7,122.1z"/>
	</g>
	<g>
		<path class="st6" d="M407.5,75c-6.2-5.5-10.1-13.7-10.6-22.6c-0.5-8.5,2.2-16.6,7.3-22.4c8.7-9.7,23.7-10.6,33.4-2
			c3.7,3.2,5.9,7.7,6.1,12.5c0.3,4.9-1.4,9.6-4.6,13.2c-5.3,5.9-14.4,6.4-20.3,1.2c-2.3-2-3.6-4.7-3.8-7.7c-0.2-3,0.8-5.9,2.8-8.1
			c3.3-3.6,8.9-4,12.6-0.8c1.4,1.2,2.3,3,2.4,4.8c0.1,1.9-0.5,3.7-1.8,5.1c-2.1,2.3-5.7,2.5-8,0.5l1.3-1.5c1.5,1.3,3.9,1.2,5.2-0.3
			c0.9-1,1.4-2.3,1.3-3.7c-0.1-1.3-0.7-2.6-1.7-3.5c-2.9-2.5-7.3-2.2-9.8,0.6c-1.7,1.9-2.5,4.2-2.3,6.7c0.1,2.5,1.2,4.7,3.1,6.3
			c5.1,4.5,13,4,17.6-1.1c2.9-3.3,4.4-7.5,4.1-11.8c-0.3-4.3-2.2-8.3-5.5-11.2c-8.9-7.9-22.7-7-30.6,1.9c-4.8,5.4-7.3,13-6.8,21
			c0.5,8.4,4.1,16.1,9.9,21.2L407.5,75z"/>
	</g>
	<g>
		<path class="st6" d="M381.4,77.7c-4.3-2.2-7.5-6-8.9-10.6c-1.5-4.6-1-9.5,1.2-13.8c3.6-6.9,12.2-9.6,19.1-6
			c5.4,2.8,7.6,9.6,4.7,15c-2.2,4.3-7.5,6-11.8,3.7c-1.7-0.9-2.9-2.3-3.4-4.1s-0.4-3.7,0.5-5.3c0.7-1.3,1.9-2.3,3.3-2.8
			c1.4-0.4,2.9-0.3,4.3,0.4c2.2,1.1,3.1,3.9,1.9,6.1c-0.5,0.9-1.2,1.5-2.2,1.8c-0.9,0.3-1.9,0.2-2.8-0.2l0.9-1.7
			c0.4,0.2,0.9,0.3,1.3,0.1c0.4-0.1,0.8-0.4,1-0.9c0.7-1.3,0.2-2.8-1.1-3.5c-0.9-0.4-1.8-0.5-2.8-0.2c-0.9,0.3-1.7,0.9-2.1,1.8
			c-0.6,1.2-0.7,2.5-0.3,3.8c0.4,1.3,1.3,2.3,2.5,2.9c3.3,1.7,7.5,0.4,9.2-2.9c2.3-4.5,0.6-10-3.9-12.3c-6-3.1-13.4-0.8-16.5,5.2
			c-2,3.8-2.4,8.2-1.1,12.3c1.3,4.1,4.1,7.5,8,9.5L381.4,77.7z"/>
	</g>
	<g>
		<path class="st6" d="M360.2,53.5c-6.6-9.1-4.7-22,4.2-28.7c3.4-2.5,7.5-3.6,11.6-3c4.2,0.6,7.8,2.9,10.4,6.3
			c4,5.5,2.9,13.4-2.6,17.5c-2.1,1.6-4.6,2.2-7.2,1.8c-2.6-0.4-4.8-1.8-6.4-3.9c-2.5-3.5-1.8-8.3,1.6-10.9c1.3-1,2.9-1.4,4.5-1.2
			c1.6,0.2,3.1,1.1,4,2.5c1.6,2.2,1.2,5.4-1,7c-0.9,0.7-1.9,0.9-3,0.8c-1.1-0.2-2-0.7-2.6-1.6l1.6-1.2c0.3,0.5,0.8,0.7,1.4,0.8
			c0.5,0.1,1.1-0.1,1.5-0.4c1.3-1,1.6-2.9,0.6-4.3c-0.7-0.9-1.6-1.5-2.7-1.7c-1.1-0.2-2.2,0.1-3.1,0.8c-2.5,1.9-3.1,5.6-1.2,8.2
			c1.2,1.7,3,2.8,5.1,3.1c2,0.3,4.1-0.2,5.7-1.5c4.6-3.5,5.6-10.1,2.2-14.8c-2.2-3-5.4-5-9.1-5.5c-3.6-0.5-7.2,0.4-10.2,2.6
			c-8.1,6.1-9.8,17.8-3.8,26L360.2,53.5z"/>
	</g>
	<g>
		<path class="st6" d="M353.7,172.8c-3.6-4.5-5.2-10.2-4.5-15.9c0.7-5.7,3.5-10.8,8.1-14.4c3.5-2.8,7.9-4,12.4-3.5
			c4.5,0.5,8.4,2.8,11.2,6.3c4.5,5.7,3.5,14-2.2,18.5c-2.2,1.7-4.9,2.5-7.6,2.1c-2.7-0.3-5.2-1.7-6.9-3.9c-1.4-1.7-2-3.9-1.7-6
			c0.3-2.2,1.3-4.1,3.1-5.5c1.4-1.1,3.1-1.6,4.8-1.4c1.7,0.2,3.3,1.1,4.3,2.4c0.9,1.1,1.2,2.5,1.1,3.9c-0.2,1.4-0.9,2.6-2,3.5
			c-0.9,0.7-2,1-3.1,0.9c-1.1-0.1-2.1-0.7-2.8-1.6l1.5-1.2c0.4,0.5,0.9,0.8,1.5,0.9c0.6,0.1,1.2-0.1,1.7-0.5
			c1.4-1.1,1.7-3.2,0.5-4.6c-0.8-1-1.8-1.6-3-1.7c-1.2-0.2-2.4,0.2-3.3,0.9c-1.3,1-2.1,2.5-2.3,4.1c-0.2,1.6,0.3,3.3,1.3,4.6
			c1.4,1.8,3.4,2.9,5.6,3.1c2.2,0.3,4.4-0.4,6.2-1.7c4.8-3.8,5.7-10.9,1.9-15.7c-2.5-3.1-6-5.1-9.9-5.6c-3.9-0.5-7.8,0.6-10.9,3.1
			c-4.1,3.2-6.7,7.9-7.3,13.1c-0.6,5.2,0.8,10.3,4.1,14.4L353.7,172.8z"/>
	</g>
	<g>
		<path class="st6" d="M42,122.4C16.7,111.1,5.3,81.3,16.6,55.9c4.2-9.5,11.9-16.8,21.6-20.5c9.7-3.7,20.3-3.4,29.8,0.8
			c7.4,3.3,13,9.2,15.9,16.7c2.9,7.5,2.7,15.7-0.6,23.1C78,87.8,64.1,93.1,52.3,87.9C43.1,83.8,39,73,43.1,63.8
			c1.5-3.5,4.4-6.1,7.9-7.5c3.6-1.4,7.4-1.3,10.9,0.3c2.7,1.2,4.8,3.4,5.9,6.2c1.1,2.8,1,5.8-0.2,8.5c-2,4.4-7.2,6.4-11.6,4.5
			c-1.7-0.8-3-2.1-3.7-3.9c-0.7-1.7-0.6-3.6,0.1-5.4c1.3-2.8,4.6-4.1,7.4-2.8c1.1,0.5,2,1.4,2.4,2.5c0.4,1.1,0.4,2.4-0.1,3.5
			c-0.8,1.9-3,2.7-4.9,1.9l0.8-1.8c0.9,0.4,1.9,0,2.3-0.9c0.6-1.3,0-2.8-1.3-3.4c-1.8-0.8-4,0-4.8,1.8c-0.5,1.2-0.6,2.6-0.1,3.9
			c0.5,1.3,1.4,2.3,2.7,2.8c3.5,1.5,7.5,0,9-3.5c1-2.2,1.1-4.8,0.2-7c-0.9-2.3-2.6-4.1-4.8-5.1c-3-1.3-6.3-1.4-9.4-0.3
			c-3.1,1.2-5.5,3.5-6.8,6.5c-3.6,8.2,0,17.8,8.2,21.5c10.8,4.8,23.5-0.1,28.3-10.9c3.1-6.9,3.3-14.5,0.6-21.6
			c-2.7-7-8-12.6-14.8-15.7c-9-4-19.1-4.3-28.3-0.8c-9.2,3.5-16.5,10.4-20.5,19.5c-5.3,11.8-5.6,24.9-1,37s13.7,21.6,25.5,26.9
			L42,122.4z"/>
	</g>
	<g>
		<path class="st6" d="M210.9,150.8c-6.7-7.3-10.3-16.9-10-27c0.3-10.2,4.4-19.5,11.7-26.2c5.6-5.2,12.9-7.9,20.6-7.6
			c7.7,0.3,14.7,3.6,20,9.2c8.4,9,7.8,23.2-1.2,31.5c-3.4,3.1-7.8,4.8-12.5,4.6c-4.6-0.2-8.9-2.2-12.1-5.6
			c-5.1-5.5-4.8-14.1,0.7-19.2c4.3-4,11.1-3.7,15.1,0.6c3.2,3.4,2.9,8.8-0.5,11.9c-2.7,2.5-7,2.3-9.5-0.4c-1-1.1-1.5-2.4-1.4-3.9
			c0.1-1.4,0.7-2.8,1.7-3.7c0.9-0.8,1.9-1.2,3.1-1.2c1.2,0,2.2,0.5,3,1.4c0.6,0.7,1,1.6,1,2.6c0,1-0.4,1.8-1.1,2.5l-1.3-1.4
			c0.3-0.3,0.5-0.7,0.5-1.1c0-0.4-0.1-0.8-0.4-1.2c-0.4-0.5-1-0.7-1.7-0.8c-0.7,0-1.3,0.2-1.7,0.6c-1.4,1.3-1.5,3.4-0.2,4.8
			c1.8,1.9,4.8,2,6.7,0.3c2.6-2.4,2.8-6.5,0.4-9.1c-1.6-1.7-3.7-2.7-6.1-2.8c-2.3-0.1-4.5,0.7-6.2,2.3c-4.7,4.4-5,11.7-0.6,16.4
			c2.8,3,6.6,4.8,10.7,4.9c4.1,0.2,8-1.3,11.1-4.1c8.2-7.6,8.7-20.5,1.1-28.7c-4.9-5.2-11.5-8.3-18.6-8.6c-7.1-0.3-14,2.2-19.2,7.1
			c-6.9,6.3-10.8,15.1-11.1,24.8c-0.3,9.6,3.1,18.7,9.5,25.6L210.9,150.8z"/>
	</g>
	<g>
		<path class="st6" d="M387.1,122.8c-14-8.8-18.2-27.4-9.4-41.4c6.9-10.9,21.3-14.1,32.1-7.3c8.5,5.3,11,16.6,5.7,25
			c-4.2,6.6-12.9,8.6-19.6,4.4c-5.2-3.3-6.7-10.2-3.5-15.3c1.3-2,3.2-3.4,5.5-3.9c2.3-0.5,4.6-0.1,6.6,1.1c3.3,2.1,4.2,6.4,2.2,9.6
			c-1.6,2.6-5.1,3.4-7.7,1.7c-2.1-1.3-2.7-4.1-1.4-6.2c0.5-0.8,1.3-1.4,2.3-1.6c1-0.2,2,0,2.8,0.5c0.7,0.4,1.2,1.1,1.4,1.9
			c0.2,0.8,0,1.6-0.4,2.3l-1.7-1c0.2-0.3,0.2-0.5,0.1-0.8c-0.1-0.3-0.2-0.5-0.5-0.7c-0.4-0.3-0.9-0.3-1.3-0.2
			c-0.5,0.1-0.8,0.4-1.1,0.8c-0.8,1.2-0.4,2.8,0.8,3.5c1.7,1.1,3.9,0.6,5-1.1c1.5-2.3,0.8-5.4-1.6-6.9c-3.2-2-7.4-1.1-9.4,2.1
			c-2.7,4.3-1.4,9.9,2.9,12.6c5.7,3.6,13.3,1.9,16.8-3.8c4.8-7.5,2.5-17.6-5-22.3c-10-6.3-23.2-3.3-29.4,6.7
			c-8.3,13.1-4.3,30.4,8.8,38.7L387.1,122.8z"/>
	</g>
	<g>
		<path class="st6" d="M179,134.3c-7.4-7.4-7.4-19.5,0-26.9c5.8-5.8,15.2-5.8,21,0c2.2,2.2,3.4,5.1,3.4,8.2c0,3.1-1.2,6-3.4,8.2
			c-1.7,1.7-4,2.7-6.5,2.7c-2.4,0-4.8-1-6.5-2.7c-2.8-2.8-2.8-7.4,0-10.3c2.3-2.3,6-2.3,8.2,0c1.8,1.8,1.8,4.8,0,6.6
			c-1.4,1.5-4,1.5-5.4,0l1.4-1.4c0.7,0.7,1.9,0.7,2.7,0c0.5-0.5,0.8-1.2,0.8-1.9s-0.3-1.4-0.8-1.9c-1.5-1.5-4-1.5-5.5,0
			c-2.1,2.1-2.1,5.4,0,7.5c2.7,2.7,7.5,2.7,10.2,0c1.8-1.8,2.8-4.3,2.8-6.8c0-2.6-1-5-2.8-6.8c-5-5-13.2-5-18.2,0
			c-6.6,6.6-6.6,17.4,0,24.1L179,134.3z"/>
	</g>
	<g>
		<path class="st6" d="M174.2,121.2c-11.2-10-17.7-23.7-18.5-38.5c-0.7-14.8,4.4-29.2,14.4-40.4c7.7-8.7,18.4-13.8,29.9-14.5
			c11.6-0.7,22.7,3.2,31.4,10.9c6.7,6,10.7,14.2,11.2,23.2c0.5,9-2.5,17.6-8.5,24.3c-9.6,10.7-26.1,11.7-36.8,2.1
			c-8.3-7.4-9.1-20.3-1.6-28.6c5.8-6.5,15.8-7.1,22.3-1.3c2.5,2.2,3.9,5.2,4.1,8.5c0.2,3.3-0.9,6.5-3.1,8.9
			c-1.7,1.9-4.1,3.1-6.7,3.2c-2.6,0.2-5.1-0.7-7-2.5c-1.5-1.4-2.4-3.3-2.6-5.3c-0.1-2.1,0.6-4,1.9-5.6c1.1-1.2,2.6-2,4.2-2
			c1.7-0.1,3.2,0.5,4.5,1.6c2,1.8,2.2,5,0.4,7c-1.5,1.7-4,1.8-5.7,0.3l1.3-1.5c0.9,0.8,2.2,0.7,2.9-0.2c1.1-1.2,1-3.1-0.2-4.2
			c-0.8-0.7-1.9-1.1-3-1.1c-1.1,0.1-2.1,0.6-2.9,1.4c-1,1.1-1.5,2.6-1.5,4.2s0.8,2.9,1.9,4c1.6,1.4,3.5,2.1,5.6,2
			c2.1-0.1,4-1,5.4-2.6c3.8-4.3,3.4-10.9-0.8-14.7c-5.7-5.1-14.5-4.6-19.6,1.1c-3.3,3.6-4.9,8.4-4.6,13.2c0.3,4.9,2.4,9.4,6.1,12.6
			c9.9,8.8,25.2,8,34-2c5.6-6.3,8.5-14.4,8-22.9c-0.5-8.4-4.2-16.2-10.5-21.8c-8.3-7.4-18.9-11.1-30-10.5
			c-11.1,0.6-21.2,5.5-28.6,13.8c-19.9,22.3-18.1,56.5,4,76.2L174.2,121.2z"/>
	</g>
	<g>
		<path class="st6" d="M89,74.4c-11.9-18.9-6.2-43.9,12.7-55.7c7.1-4.5,15.5-5.9,23.6-4c8.2,1.9,15.1,6.8,19.5,13.9
			c3.5,5.5,4.6,12,3.1,18.3s-5.3,11.7-10.8,15.2c-4.3,2.7-9.3,3.5-14.3,2.4c-4.9-1.1-9.1-4.1-11.8-8.4c-4.3-6.9-2.2-16,4.6-20.4
			c2.6-1.6,5.7-2.2,8.7-1.5c3,0.7,5.6,2.5,7.2,5.1c1.3,2.1,1.7,4.5,1.2,6.9c-0.5,2.4-2,4.4-4,5.7c-1.6,1-3.6,1.4-5.5,0.9
			c-1.9-0.4-3.5-1.6-4.5-3.2c-0.8-1.3-1.1-2.9-0.7-4.4c0.3-1.5,1.3-2.8,2.6-3.6c2.2-1.4,5.1-0.7,6.5,1.5c0.5,0.9,0.7,1.9,0.5,2.9
			c-0.2,1-0.8,1.8-1.7,2.4l-1-1.7c0.4-0.3,0.7-0.7,0.8-1.2s0-1-0.2-1.4c-0.8-1.3-2.5-1.7-3.8-0.9c-0.9,0.5-1.5,1.4-1.7,2.4
			c-0.2,1-0.1,2,0.5,2.9c0.8,1.2,1.9,2,3.3,2.3c1.4,0.3,2.8,0.1,4-0.7c1.6-1,2.7-2.6,3.2-4.5c0.4-1.9,0.1-3.8-0.9-5.4
			c-1.4-2.2-3.5-3.7-6-4.3c-2.5-0.6-5.1-0.1-7.3,1.2c-6,3.8-7.8,11.7-4,17.7c2.4,3.8,6.2,6.5,10.6,7.5c4.4,1,9,0.2,12.8-2.2
			c5.1-3.2,8.6-8.1,9.9-13.9c1.3-5.8,0.3-11.8-2.9-16.9c-4.2-6.6-10.7-11.3-18.3-13c-7.6-1.7-15.5-0.4-22.1,3.8
			c-8.7,5.5-14.8,14-17,24s-0.5,20.3,4.9,29L89,74.4z"/>
	</g>
	<g>
		<path class="st6" d="M356.1,145.9c-13.5-5.9-19.7-21.7-13.8-35.2c4.6-10.5,16.8-15.3,27.3-10.7c8.2,3.6,11.9,13.1,8.4,21.3
			c-2.8,6.4-10.3,9.3-16.7,6.5c-5-2.2-7.3-8.1-5.1-13.1c1.7-4,6.4-5.8,10.4-4.1c3.2,1.4,4.6,5.1,3.2,8.3c-1.1,2.6-4.1,3.7-6.7,2.6
			c-1-0.4-1.8-1.2-2.2-2.3c-0.4-1-0.4-2.1,0.1-3.2l1.8,0.8c-0.2,0.5-0.2,1.1,0,1.7c0.2,0.5,0.6,1,1.1,1.2c1.6,0.7,3.4,0,4.1-1.6
			c1-2.2,0-4.7-2.2-5.7c-3-1.3-6.5,0.1-7.8,3.1c-1.8,4,0.1,8.8,4.1,10.5c5.4,2.4,11.7-0.1,14.1-5.5c3.1-7.2-0.2-15.6-7.3-18.7
			c-9.5-4.1-20.6,0.2-24.7,9.7c-5.5,12.5,0.3,27.1,12.8,32.6L356.1,145.9z"/>
	</g>
	<g>
		<path class="st6" d="M39.3,35.9c-6.9-7.4-6.4-19,1-25.9c2.8-2.6,6.5-4,10.3-3.8c3.8,0.2,7.3,1.8,9.9,4.6c2,2.2,3.1,5.1,3,8.1
			c-0.1,3-1.4,5.8-3.6,7.8c-3.6,3.3-9.2,3.1-12.5-0.5c-2.6-2.9-2.5-7.3,0.4-9.9c1.1-1,2.6-1.5,4-1.5c1.5,0.1,2.9,0.7,3.9,1.8
			c0.8,0.9,1.3,2.1,1.2,3.3c0,1.2-0.6,2.3-1.5,3.2c-0.7,0.7-1.7,1-2.7,1c-1,0-1.9-0.5-2.6-1.2l1.4-1.3c0.3,0.3,0.8,0.5,1.2,0.6
			c0.4,0,0.9-0.1,1.3-0.5c0.5-0.5,0.8-1.1,0.8-1.8c0-0.7-0.2-1.4-0.7-1.9c-0.7-0.7-1.6-1.1-2.6-1.2c-1-0.1-1.9,0.3-2.6,1
			c-2.1,1.9-2.2,5.1-0.3,7.2c2.6,2.8,7,3,9.7,0.4c1.8-1.7,2.9-4,3-6.4c0.1-2.5-0.8-4.8-2.4-6.7c-2.2-2.4-5.3-3.8-8.6-4
			c-3.3-0.1-6.4,1-8.9,3.3c-6.6,6.1-7,16.5-0.9,23.1L39.3,35.9z"/>
	</g>
	<g>
		<path class="st6" d="M68,38.7c-8.5-9.2-7.9-23.6,1.3-32.1c3.5-3.2,8-4.8,12.7-4.7c4.7,0.2,9.1,2.2,12.3,5.7
			c5.2,5.6,4.8,14.4-0.8,19.5c-2.1,2-4.9,3-7.8,2.9c-2.9-0.1-5.6-1.4-7.5-3.5c-1.6-1.7-2.4-3.9-2.3-6.2c0.1-2.3,1.1-4.4,2.7-6
			c2.8-2.6,7.1-2.4,9.6,0.4c1,1.1,1.5,2.5,1.4,3.9c-0.1,1.5-0.7,2.8-1.8,3.8c-1.8,1.7-4.6,1.5-6.3-0.3l1.4-1.3
			c0.9,1,2.5,1.1,3.5,0.1c0.7-0.6,1.1-1.5,1.1-2.4c0-0.9-0.3-1.8-0.9-2.5c-1.8-2-4.9-2.1-6.9-0.3c-1.3,1.2-2,2.8-2.1,4.6
			c-0.1,1.8,0.5,3.5,1.7,4.7c1.6,1.7,3.8,2.8,6.2,2.9c2.3,0.1,4.6-0.7,6.4-2.4c4.8-4.4,5.1-12,0.7-16.8c-2.8-3.1-6.7-4.9-10.9-5
			C77.7,3.7,73.7,5.2,70.6,8c-8.4,7.8-8.9,20.9-1.2,29.3L68,38.7z"/>
	</g>
	<g>
		<path class="st6" d="M19.4,49.8c-4.2-2.4-7.1-6.2-8.4-10.8c-1.3-4.6-0.7-9.4,1.7-13.6c3.8-6.7,12.3-9.1,19-5.3
			c2.5,1.4,4.4,3.8,5.2,6.6c0.8,2.8,0.4,5.8-1,8.3c-2.4,4.2-7.6,5.6-11.8,3.3c-1.6-0.9-2.8-2.4-3.2-4.2c-0.5-1.8-0.3-3.6,0.6-5.2
			c1.5-2.6,4.9-3.6,7.5-2.1c2.1,1.2,2.9,4,1.7,6.1c-1,1.8-3.2,2.4-5,1.4l1-1.7c0.8,0.5,1.9,0.2,2.3-0.6c0.7-1.2,0.3-2.7-0.9-3.4
			c-1.7-1-3.9-0.4-4.8,1.3c-0.6,1.1-0.8,2.5-0.5,3.7s1.2,2.3,2.3,3c1.6,0.9,3.4,1.1,5.1,0.6c1.7-0.5,3.2-1.6,4-3.2
			c1.2-2.1,1.5-4.5,0.8-6.8c-0.6-2.3-2.1-4.2-4.2-5.4c-5.8-3.3-13.1-1.2-16.4,4.5c-2.1,3.7-2.6,8-1.5,12.1s3.8,7.5,7.5,9.6
			L19.4,49.8z"/>
	</g>
	<g>
		<path class="st6" d="M280.1,94.8c-2.4,0-4.9-0.6-7.1-1.7c-3.8-1.9-6.6-5.2-8-9.2c-1-3.2-0.8-6.5,0.7-9.5c1.5-3,4.1-5.2,7.2-6.2
			c2.5-0.8,5.2-0.6,7.5,0.5c2.3,1.2,4.1,3.2,4.9,5.7c1.3,4.1-0.9,8.5-4.9,9.8c-1.6,0.5-3.3,0.4-4.7-0.3c-1.5-0.7-2.6-2-3.1-3.6
			l1.9-0.6c0.4,1.1,1.1,1.9,2.1,2.5c1,0.5,2.2,0.6,3.2,0.2c1.5-0.5,2.7-1.5,3.4-2.9c0.7-1.4,0.8-3,0.3-4.4c-0.7-2-2.1-3.6-3.9-4.6
			c-1.9-0.9-4-1.1-6-0.4c-2.7,0.9-4.8,2.8-6.1,5.3c-1.3,2.5-1.5,5.4-0.6,8c1.2,3.5,3.7,6.4,7,8.1c3.3,1.7,7.1,2,10.7,0.8
			c9.7-3.2,14.9-13.7,11.7-23.3c-2-6.2-6.4-11.2-12.2-14.1c-5.8-2.9-12.4-3.4-18.6-1.4c-8.1,2.7-14.7,8.4-18.5,16
			c-3.8,7.6-4.5,16.3-1.8,24.4l-1.9,0.6c-2.8-8.6-2.2-17.8,1.9-25.9c4.1-8.1,11-14.1,19.6-17c6.7-2.2,13.8-1.7,20.1,1.5
			c6.3,3.2,10.9,8.6,13.2,15.2c1.7,5.2,1.3,10.7-1.1,15.6c-2.4,4.9-6.7,8.5-11.8,10.2C283.4,94.5,281.7,94.8,280.1,94.8z"/>
	</g>
	<g>
		<path class="st6" d="M165.3,50.9c-5-1.4-9.1-4.7-11.6-9.3s-3.1-9.8-1.6-14.8c2.3-8,10.7-12.7,18.8-10.3c6.3,1.8,9.9,8.4,8.1,14.7
			c-0.7,2.4-2.3,4.4-4.5,5.6c-2.2,1.2-4.7,1.5-7.1,0.8c-3.9-1.1-6.2-5.3-5.1-9.2c0.4-1.5,1.4-2.8,2.8-3.5c1.4-0.8,3-0.9,4.5-0.5
			c2.5,0.7,4,3.4,3.3,5.9c-0.6,2.1-2.8,3.3-4.8,2.7l0.5-1.9c0.5,0.1,1,0.1,1.5-0.2c0.5-0.3,0.8-0.7,0.9-1.2c0.4-1.5-0.4-3.1-1.9-3.5
			c-1-0.3-2.1-0.2-3,0.3c-0.9,0.5-1.6,1.4-1.9,2.4c-0.8,2.9,0.8,5.9,3.7,6.8c1.9,0.5,3.9,0.3,5.6-0.6c1.7-1,3-2.5,3.5-4.4
			c1.5-5.2-1.5-10.8-6.8-12.3c-7-2-14.3,2-16.3,9c-1.3,4.5-0.8,9.2,1.5,13.3c2.2,4.1,6,7,10.4,8.3L165.3,50.9z"/>
	</g>
	<g>
		<path class="st6" d="M253,60.1c-6.5-1.7-11.8-5.8-14.9-11.5c-3-5.5-3.6-11.8-1.7-17.8c3.1-9.8,13.9-15.6,24.1-12.9
			c3.9,1,7.2,3.5,9.1,7c1.8,3.3,2.2,7.2,1.1,10.8c-1.9,6-8.5,9.5-14.7,7.9c-2.4-0.6-4.4-2.2-5.6-4.3c-1.1-2.1-1.4-4.4-0.7-6.7
			c1.2-3.7,5.3-5.9,9.2-4.9c1.5,0.4,2.8,1.4,3.6,2.7c0.7,1.3,0.9,2.8,0.4,4.3c-0.8,2.4-3.4,3.8-5.9,3.2l0.5-1.9
			c1.5,0.4,3.1-0.4,3.5-1.9c0.3-0.9,0.2-1.9-0.3-2.7c-0.5-0.9-1.3-1.5-2.3-1.8c-2.9-0.8-5.9,0.9-6.8,3.6c-0.6,1.7-0.4,3.6,0.5,5.2
			c0.9,1.7,2.5,2.9,4.4,3.4c5.2,1.4,10.8-1.6,12.3-6.6c1-3.1,0.7-6.4-0.9-9.3c-1.6-3-4.4-5.1-7.8-6c-9.2-2.4-18.9,2.8-21.7,11.6
			c-1.7,5.5-1.2,11.3,1.6,16.2c2.9,5.2,7.7,8.9,13.7,10.5L253,60.1z"/>
	</g>
	<g>
		<path class="st6" d="M309.8,74c-6.8-1.8-12.3-6-15.5-11.9c-3.1-5.7-3.8-12.2-1.8-18.5c3.2-10.2,14.5-16.2,25.1-13.4
			c4.1,1.1,7.4,3.7,9.4,7.2c1.9,3.5,2.3,7.4,1.1,11.2c-2,6.2-8.8,9.9-15.3,8.2c-2.5-0.7-4.6-2.3-5.8-4.5c-1.2-2.1-1.4-4.6-0.7-7
			c1.2-3.9,5.5-6.2,9.5-5.1c1.6,0.4,2.9,1.4,3.7,2.8c0.8,1.4,0.9,2.9,0.4,4.4c-0.8,2.5-3.5,4-6.1,3.3l0.5-1.9c1.6,0.4,3.3-0.5,3.7-2
			c0.3-1,0.2-2-0.3-2.9c-0.5-0.9-1.4-1.6-2.5-1.9c-3-0.8-6.2,0.9-7.2,3.8c-0.6,1.8-0.4,3.8,0.5,5.4c1,1.7,2.6,3,4.6,3.5
			c5.5,1.5,11.3-1.6,12.9-6.9c1-3.3,0.7-6.7-0.9-9.7c-1.7-3.1-4.6-5.3-8.2-6.3c-9.6-2.6-19.8,2.9-22.7,12.1
			c-1.8,5.7-1.2,11.8,1.6,17c3,5.4,8.1,9.3,14.3,11L309.8,74z"/>
	</g>
	<g>
		<path class="st6" d="M272.4,52c-3.1-3.3-4.7-7.6-4.4-12c0.3-4.2,2.2-8.1,5.4-10.8c5.3-4.5,13.7-3.9,18.5,1.3
			c1.9,2.1,2.9,4.7,2.7,7.4c-0.2,2.6-1.3,5-3.4,6.7c-3.3,2.8-8.5,2.4-11.5-0.8c-1.2-1.3-1.8-2.9-1.7-4.7c0.1-1.7,0.9-3.2,2.1-4.2
			c2.1-1.8,5.4-1.6,7.4,0.5c0.8,0.8,1.2,1.9,1.1,3c-0.1,1.1-0.6,2.1-1.4,2.8c-1.4,1.2-3.6,1-4.9-0.3l1.4-1.3
			c0.6,0.6,1.6,0.7,2.2,0.2c0.4-0.4,0.7-0.9,0.7-1.4c0-0.6-0.2-1.1-0.6-1.6c-1.2-1.3-3.3-1.5-4.7-0.4c-0.9,0.7-1.4,1.7-1.4,2.9
			c-0.1,1.2,0.4,2.3,1.2,3.2c2.3,2.5,6.3,2.8,8.8,0.7c1.6-1.4,2.5-3.2,2.7-5.3c0.1-2.2-0.6-4.3-2.2-5.9c-4.2-4.5-11.3-5-15.8-1.2
			c-2.8,2.4-4.5,5.8-4.8,9.5c-0.2,3.8,1.1,7.6,3.9,10.5L272.4,52z"/>
	</g>
	<g>
		<path class="st6" d="M289.8,172.9c-7-19.5,3.1-41.1,22.7-48.2c15.1-5.4,31.9,2.4,37.3,17.6c2,5.7,1.8,11.8-0.8,17.3
			c-2.6,5.5-7.1,9.6-12.8,11.7c-4.4,1.6-9.2,1.4-13.5-0.6c-4.3-2-7.5-5.6-9.1-10c-1.2-3.5-1.1-7.2,0.5-10.5c1.6-3.3,4.3-5.9,7.8-7.1
			c5.6-2,11.8,0.9,13.9,6.5c1.6,4.4-0.7,9.3-5.1,10.9c-3.5,1.3-7.4-0.6-8.7-4.1l1.8-0.7c0.9,2.5,3.7,3.8,6.2,2.9
			c3.4-1.2,5.2-5,4-8.4c-1.7-4.6-6.7-7-11.3-5.3c-3,1.1-5.3,3.2-6.7,6.1c-1.3,2.9-1.5,6.1-0.4,9c1.4,3.9,4.3,7.1,8.1,8.9
			c3.8,1.8,8,2,12,0.6c5.2-1.9,9.4-5.7,11.7-10.7c2.4-5,2.6-10.6,0.7-15.8c-5.1-14.1-20.7-21.5-34.8-16.4
			c-18.5,6.7-28.1,27.2-21.5,45.7L289.8,172.9z"/>
	</g>
	<g>
		<path class="st6" d="M427.4,116.1c-3.2-3.3-4.9-7.7-4.8-12.3c0.1-4.6,2-8.9,5.3-12.1c2.6-2.5,6.1-3.8,9.6-3.7
			c3.6,0.1,7,1.6,9.5,4.2c4,4.2,3.9,10.9-0.3,15c-1.6,1.5-3.7,2.4-6,2.3c-2.2,0-4.3-1-5.9-2.6c-1.2-1.3-1.9-3-1.9-4.8
			c0-1.8,0.8-3.4,2.1-4.7c1-1,2.3-1.5,3.8-1.5c1.4,0,2.8,0.6,3.8,1.6c0.8,0.8,1.2,1.9,1.2,3.1c0,1.2-0.5,2.2-1.3,3
			c-1.4,1.4-3.7,1.3-5-0.1l1.4-1.4c0.6,0.6,1.6,0.7,2.3,0c0.5-0.4,0.7-1,0.7-1.7c0-0.6-0.2-1.2-0.7-1.7c-0.6-0.7-1.5-1-2.4-1
			c-0.9,0-1.8,0.3-2.4,0.9c-0.9,0.9-1.4,2-1.5,3.3c0,1.3,0.4,2.4,1.3,3.4c1.2,1.2,2.8,1.9,4.5,2c1.7,0,3.3-0.6,4.6-1.8
			c3.4-3.3,3.6-8.8,0.3-12.2c-2.1-2.2-5-3.5-8.1-3.6c-3.1-0.1-6,1.1-8.2,3.2c-3,2.8-4.6,6.6-4.7,10.7c-0.1,4.1,1.4,8,4.3,10.9
			L427.4,116.1z"/>
	</g>
	<g>
		<path class="st6" d="M170.7,117.7c-10.8-8.6-13.2-23-5.8-34.2c2.8-4.2,7.1-7.1,12-8.1c5-1,10,0,14.3,2.8
			c6.8,4.5,8.7,13.7,4.2,20.5c-3.5,5.3-10.8,6.8-16.1,3.3c-2-1.3-3.4-3.4-3.9-5.8c-0.5-2.4,0-4.8,1.3-6.9c1.1-1.6,2.7-2.7,4.6-3.1
			c1.9-0.4,3.8,0,5.5,1.1c2.7,1.8,3.4,5.4,1.6,8.1c-1.4,2.2-4.3,2.8-6.5,1.3c-1.8-1.2-2.3-3.6-1.1-5.3l1.6,1.1
			c-0.6,0.9-0.3,2,0.5,2.6c1.3,0.8,3,0.5,3.8-0.8c1.2-1.8,0.7-4.2-1.1-5.3c-1.2-0.8-2.6-1.1-4-0.8c-1.4,0.3-2.6,1.1-3.4,2.3
			c-1.1,1.6-1.4,3.5-1,5.4c0.4,1.9,1.5,3.5,3.1,4.6c4.4,2.9,10.4,1.7,13.4-2.7c3.9-5.9,2.3-13.9-3.6-17.8c-3.8-2.5-8.3-3.4-12.8-2.5
			c-4.5,0.9-8.3,3.5-10.8,7.3c-6.8,10.3-4.6,23.6,5.4,31.6L170.7,117.7z"/>
	</g>
	<g>
		<path class="st6" d="M170.6,117.7c-10.6-10-12.9-23.4-5.8-34.1l1.6,1.1c-6.6,9.9-4.4,22.3,5.5,31.6L170.6,117.7z"/>
	</g>
</g>
</svg>
