<?xml version="1.0" encoding="utf-8"?>
<!-- Generator: Adobe Illustrator 19.1.0, SVG Export Plug-In . SVG Version: 6.00 Build 0)  -->
<svg version="1.1" id="Layer_1" xmlns="http://www.w3.org/2000/svg" xmlns:xlink="http://www.w3.org/1999/xlink" x="0px" y="0px"
	 viewBox="0 0 500 500" style="enable-background:new 0 0 500 500;" xml:space="preserve">
<style type="text/css">
	.st0{fill:#F8B017;}
	.st1{fill:none;}
	.st2{fill:#F5AF19;}
	.st3{fill:#E5D7C8;}
	.st4{fill:#F4AE19;}
	.st5{fill:#F7AF17;}
	.st6{fill:#0FA2D4;}
</style>
<g>
	<g>
		<path class="st6" d="M142.1,347.6c-2.9-3.7-4.3-8.3-3.7-12.9c0.5-4.7,2.8-8.9,6.5-11.8c3-2.4,6.7-3.4,10.4-3
			c3.8,0.4,7.1,2.3,9.5,5.2c3.9,4.9,3.1,12.1-1.8,16.1c-4,3.2-9.8,2.5-13-1.4c-1.3-1.6-1.8-3.5-1.6-5.5c0.2-2,1.2-3.8,2.8-5
			c2.6-2.1,6.5-1.7,8.6,1c1.7,2.1,1.4,5.3-0.8,7c-0.9,0.7-1.9,1-3,0.9c-1.1-0.1-2.1-0.7-2.7-1.5c-1.2-1.4-0.9-3.6,0.5-4.7
			c0.6-0.5,1.3-0.7,2.1-0.6c0.7,0.1,1.4,0.4,1.9,1l-0.8,0.6c-0.3-0.4-0.7-0.6-1.2-0.7c-0.5-0.1-0.9,0.1-1.3,0.4
			c-1,0.8-1.2,2.3-0.4,3.3c1.1,1.3,3,1.5,4.3,0.5c1.7-1.4,2-3.9,0.6-5.6c-1.8-2.2-5-2.6-7.2-0.8c-1.4,1.1-2.2,2.6-2.4,4.4
			c-0.2,1.7,0.3,3.4,1.4,4.8c1.4,1.7,3.3,2.8,5.5,3c2.2,0.2,4.3-0.4,6.1-1.8c4.5-3.6,5.2-10.2,1.6-14.7c-4.5-5.7-12.8-6.6-18.5-2.1
			c-3.5,2.8-5.6,6.7-6.1,11.1c-0.5,4.4,0.8,8.7,3.5,12.2L142.1,347.6z"/>
	</g>
	<g>
		<path class="st6" d="M159.1,361.3c-4.8-5.4-4.3-13.6,1-18.4c4.3-3.9,11-3.5,14.8,0.8c1.5,1.7,2.3,3.9,2.1,6.1
			c-0.1,2.3-1.1,4.4-2.8,5.9c-2.8,2.5-7.2,2.3-9.8-0.6c-1-1.1-1.5-2.6-1.4-4.1c0.1-1.5,0.7-2.9,1.9-3.9c1.9-1.7,4.8-1.5,6.5,0.4
			c1.4,1.6,1.3,3.9-0.3,5.3c-0.6,0.6-1.4,0.8-2.3,0.8c-0.8,0-1.6-0.4-2.2-1c-1-1.1-0.9-2.7,0.2-3.7c0.4-0.4,1-0.6,1.6-0.6
			c0.6,0,1.1,0.3,1.5,0.7l-0.7,0.7c-0.4-0.5-1.2-0.5-1.7-0.1c-0.7,0.6-0.7,1.6-0.1,2.3c0.4,0.4,0.9,0.7,1.5,0.7
			c0.6,0,1.1-0.2,1.5-0.5c1.1-1,1.2-2.8,0.2-3.9c-1.3-1.5-3.6-1.6-5.1-0.3c-0.9,0.8-1.5,2-1.5,3.2c-0.1,1.2,0.3,2.4,1.2,3.3
			c2.2,2.4,5.9,2.6,8.3,0.5c1.5-1.3,2.4-3.2,2.5-5.2c0.1-2-0.6-3.9-1.9-5.4c-3.5-3.9-9.5-4.3-13.4-0.8c-4.9,4.4-5.4,12-1,17
			L159.1,361.3z"/>
	</g>
	<g>
		<path class="st6" d="M177.5,368c-4.8-3.5-5.9-10.2-2.4-15c2.8-3.9,8.3-4.8,12.2-2c3.2,2.3,3.9,6.7,1.6,9.9
			c-0.9,1.2-2.2,2.1-3.7,2.3c-1.5,0.3-3-0.1-4.3-1c-2.1-1.5-2.6-4.5-1.1-6.6c1.2-1.7,3.7-2.1,5.4-0.9c0.7,0.5,1.1,1.2,1.3,2.1
			c0.1,0.8-0.1,1.7-0.6,2.4c-0.4,0.6-1,1-1.7,1.1c-0.7,0.1-1.4-0.1-2-0.5c-0.5-0.3-0.8-0.9-0.9-1.4c-0.1-0.6,0-1.2,0.4-1.7
			c0.6-0.8,1.8-1,2.6-0.4l-0.6,0.8c-0.4-0.3-0.9-0.2-1.2,0.2c-0.2,0.3-0.3,0.6-0.2,0.9c0.1,0.3,0.2,0.6,0.5,0.8
			c0.4,0.3,0.8,0.4,1.2,0.3c0.4-0.1,0.8-0.3,1.1-0.7c0.3-0.5,0.5-1.1,0.4-1.6s-0.4-1.1-0.9-1.4c-1.3-0.9-3.1-0.6-4,0.7
			c-1.2,1.7-0.8,4,0.8,5.2c1,0.7,2.3,1,3.5,0.8c1.3-0.2,2.4-0.9,3.1-1.9c2-2.7,1.3-6.5-1.4-8.5c-3.5-2.5-8.3-1.7-10.8,1.8
			c-3.1,4.4-2.2,10.5,2.2,13.6L177.5,368z"/>
	</g>
	<g>
		<path class="st6" d="M177.5,351c-3.7-6.5-1.6-15.1,4.7-18.7c2.5-1.4,5.4-1.8,8.1-1.1c2.8,0.7,5.1,2.5,6.5,5
			c2.4,4.2,1,9.5-3.2,11.9c-1.6,0.9-3.5,1.2-5.3,0.7c-1.8-0.5-3.3-1.7-4.3-3.3c-1.6-2.8-0.6-6.3,2.1-7.9c1.1-0.6,2.3-0.8,3.5-0.5
			c1.2,0.3,2.2,1.1,2.9,2.2c1.1,1.8,0.4,4.2-1.4,5.3c-0.7,0.4-1.6,0.5-2.4,0.3c-0.8-0.2-1.5-0.8-1.9-1.5c-0.7-1.3-0.3-2.9,1-3.6
			c0.5-0.3,1.1-0.4,1.7-0.2c0.6,0.2,1.1,0.5,1.3,1l-0.9,0.5c-0.2-0.3-0.4-0.5-0.7-0.6c-0.3-0.1-0.6,0-0.9,0.1
			c-0.8,0.5-1.1,1.5-0.6,2.3c0.3,0.5,0.8,0.9,1.3,1c0.6,0.2,1.1,0.1,1.6-0.2c1.4-0.8,1.8-2.5,1-3.9c-0.5-0.9-1.3-1.5-2.2-1.7
			c-0.9-0.3-1.9-0.1-2.8,0.4c-2.3,1.3-3,4.2-1.7,6.5c0.8,1.4,2.1,2.4,3.7,2.8c1.6,0.4,3.2,0.2,4.6-0.6c3.7-2.1,4.9-6.9,2.8-10.6
			c-1.3-2.3-3.4-3.9-5.9-4.6c-2.5-0.7-5.1-0.3-7.3,1c-5.8,3.4-7.8,11.3-4.3,17.3L177.5,351z"/>
	</g>
	<g>
		<path class="st6" d="M194.1,371c-6.6-6.6-6.6-17.4,0-24c2.6-2.6,6-4,9.7-4s7.1,1.4,9.7,4c4.3,4.3,4.3,11.3,0,15.6
			c-3.5,3.5-9.2,3.5-12.7,0c-2.8-2.8-2.8-7.4,0-10.3c1.1-1.1,2.6-1.7,4.2-1.7s3.1,0.6,4.2,1.7c1.9,1.9,1.9,4.9,0,6.8
			c-1.5,1.5-4.1,1.5-5.6,0c-1.3-1.3-1.3-3.3,0-4.6c1-1,2.8-1,3.8,0l-0.7,0.7c-0.6-0.6-1.8-0.6-2.4,0c-0.9,0.9-0.9,2.3,0,3.2
			c1.1,1.1,3.1,1.1,4.2,0c1.5-1.5,1.5-3.9,0-5.4c-1.9-1.9-5-1.9-6.9,0c-2.4,2.4-2.4,6.4,0,8.9c3.1,3.1,8.1,3.1,11.2,0
			c3.9-3.9,3.9-10.3,0-14.2c-2.4-2.4-5.6-3.7-9-3.7c-3.4,0-6.6,1.3-9,3.7c-6.2,6.2-6.2,16.4,0,22.6L194.1,371z"/>
	</g>
	<g>
		<path class="st6" d="M218.4,369c-4.6-4.6-4.6-12.1,0-16.7c3.7-3.7,9.8-3.7,13.5,0c3,3,3,7.9,0,10.9c-2.5,2.5-6.4,2.5-8.9,0
			c-2-2-2-5.3,0-7.3c1.6-1.6,4.3-1.6,6,0c1.4,1.4,1.4,3.5,0,4.9l-0.7-0.7c1-1,1-2.5,0-3.5c-1.3-1.3-3.3-1.2-4.5,0
			c-1.6,1.6-1.6,4.2,0,5.8c2.1,2.1,5.4,2.1,7.5,0c2.6-2.6,2.6-6.9,0-9.5c-3.3-3.3-8.8-3.3-12.1,0c-4.2,4.2-4.2,11.1,0,15.3
			L218.4,369z"/>
	</g>
	<g>
		<path class="st6" d="M264.9,346.2c-1.7,0-3.4-0.3-5-1c-3.1-1.3-5.5-3.8-6.7-6.9c-2.1-5.2,0.5-11.2,5.7-13.2c2-0.8,4.3-0.8,6.3,0.1
			c2,0.9,3.6,2.5,4.4,4.5c0.7,1.7,0.6,3.5-0.1,5.1c-0.7,1.6-2,2.9-3.7,3.6c-2.8,1.1-6-0.2-7.1-3c-0.4-1.1-0.4-2.3,0-3.4
			c0.5-1.1,1.3-1.9,2.4-2.4c1.9-0.8,4,0.2,4.8,2l-0.9,0.4c-0.3-0.7-0.8-1.2-1.4-1.5c-0.7-0.3-1.4-0.3-2,0c-1.8,0.7-2.6,2.7-1.9,4.5
			c0.9,2.3,3.5,3.4,5.8,2.5c1.4-0.6,2.5-1.6,3.1-3c0.6-1.4,0.6-3,0.1-4.4c-0.7-1.8-2.1-3.2-3.9-4c-1.8-0.8-3.8-0.8-5.6-0.1
			c-2.3,0.9-4.1,2.7-5,4.9s-1,4.8-0.1,7c1.2,2.9,3.4,5.1,6.2,6.4c2.9,1.2,6,1.3,8.9,0.1l0.4,0.9
			C268.1,345.9,266.5,346.2,264.9,346.2z"/>
	</g>
	<g>
		<path class="st6" d="M260.9,308.1c-1.1,0-2.1-0.2-3.1-0.6c-1.9-0.8-3.5-2.4-4.2-4.3c-1.3-3.3,0.3-7.1,3.6-8.4
			c2.7-1.1,5.8,0.2,6.8,2.9c0.4,1.1,0.4,2.2,0,3.3c-0.5,1.1-1.3,1.9-2.4,2.3c-0.9,0.4-1.8,0.3-2.7,0c-0.9-0.4-1.5-1.1-1.9-1.9
			c-0.6-1.5,0.1-3.2,1.6-3.8c0.6-0.2,1.3-0.2,1.9,0c0.6,0.3,1.1,0.7,1.3,1.3l-0.9,0.4c-0.3-0.7-1.1-1.1-1.9-0.8
			c-0.5,0.2-0.9,0.6-1.1,1c-0.2,0.5-0.2,1,0,1.5c0.5,1.3,2,1.9,3.3,1.4c1.7-0.7,2.5-2.6,1.8-4.3c-0.9-2.2-3.4-3.2-5.5-2.4
			c-2.8,1.1-4.2,4.3-3,7.1c0.7,1.7,2,3.1,3.7,3.8c1.7,0.7,3.6,0.8,5.3,0.1l0.4,0.9C262.9,307.9,261.9,308.1,260.9,308.1z"/>
	</g>
	<g>
		<path class="st6" d="M361.3,214.8c-3.9-1.4-5.9-5.8-4.5-9.7c0.6-1.5,1.7-2.8,3.2-3.4c1.5-0.7,3.2-0.8,4.7-0.2
			c1.3,0.5,2.3,1.4,2.8,2.6c0.6,1.2,0.6,2.6,0.1,3.8c-0.4,1-1.1,1.8-2.1,2.3c-1,0.5-2.1,0.5-3.1,0.1c-1.8-0.6-2.6-2.6-2-4.4
			c0.5-1.5,2.2-2.2,3.6-1.7c1.2,0.4,1.8,1.8,1.4,3l-0.9-0.3c0.3-0.7-0.1-1.5-0.8-1.7c-0.9-0.3-2,0.1-2.3,1.1
			c-0.5,1.2,0.2,2.6,1.4,3.1c0.8,0.3,1.6,0.3,2.4-0.1c0.8-0.3,1.3-1,1.6-1.7c0.4-1,0.3-2.1-0.1-3.1s-1.2-1.7-2.3-2.1
			c-1.3-0.5-2.7-0.4-3.9,0.2c-1.2,0.6-2.2,1.6-2.7,2.9c-1.3,3.4,0.5,7.2,3.9,8.4L361.3,214.8z"/>
	</g>
	<g>
		<path class="st6" d="M272.4,327.5c-3.3,0-6.5-1-8.9-2.9c-2.5-1.9-4-4.6-4.4-7.8c-0.7-5.7,3.2-10.7,8.7-11.5
			c2.2-0.3,4.4,0.3,6.1,1.6c1.8,1.3,2.9,3.3,3.2,5.4c0.2,1.8-0.2,3.5-1.3,5s-2.6,2.4-4.4,2.6c-1.4,0.2-2.9-0.2-4-1s-1.9-2.2-2.1-3.6
			c-0.2-1.2,0.1-2.4,0.9-3.3s1.8-1.6,2.9-1.7c2-0.3,3.9,1.1,4.2,3.1l-1,0.1c-0.2-1.5-1.6-2.5-3-2.3c-1.9,0.3-3.2,2-3,3.9
			c0.2,1.2,0.8,2.2,1.7,2.9c1,0.7,2.1,1,3.3,0.9c1.5-0.2,2.8-1,3.8-2.2c0.9-1.2,1.3-2.7,1.1-4.2c-0.3-1.9-1.3-3.6-2.8-4.8
			c-1.5-1.2-3.5-1.7-5.4-1.4c-5,0.7-8.4,5.3-7.8,10.4c0.3,2.9,1.7,5.4,4,7.2c2.7,2.1,6.6,3.1,10.4,2.5l0.1,1
			C273.9,327.4,273.1,327.5,272.4,327.5z"/>
	</g>
	<g>
		<path class="st6" d="M239.1,335.8c-2-0.5-3.8-1.8-4.8-3.6s-1.4-3.9-0.9-5.9c0.4-1.7,1.4-3.1,2.9-3.9c1.5-0.9,3.2-1.1,4.8-0.7
			c2.8,0.7,4.5,3.5,3.8,6.3c-0.3,1.1-1,2-1.9,2.6c-1,0.6-2.1,0.8-3.2,0.5c-0.9-0.2-1.7-0.8-2.2-1.6s-0.6-1.7-0.4-2.7
			c0.2-0.8,0.7-1.4,1.3-1.8c0.7-0.4,1.4-0.5,2.2-0.3c0.6,0.2,1.2,0.5,1.5,1.1c0.3,0.6,0.4,1.2,0.3,1.8l-1-0.2c0.1-0.4,0-0.8-0.2-1.1
			c-0.2-0.3-0.5-0.6-0.9-0.6c-0.5-0.1-1,0-1.4,0.2c-0.4,0.3-0.7,0.7-0.9,1.2c-0.2,0.7-0.1,1.3,0.3,1.9c0.3,0.6,0.9,1,1.5,1.1
			c0.8,0.2,1.7,0.1,2.5-0.4c0.7-0.5,1.3-1.2,1.5-2c0.6-2.3-0.8-4.5-3.1-5.1c-1.4-0.3-2.8-0.1-4.1,0.6c-1.2,0.7-2.1,1.9-2.5,3.3
			c-0.4,1.8-0.2,3.6,0.8,5.2c0.9,1.6,2.4,2.7,4.2,3.1L239.1,335.8z"/>
	</g>
	<g>
		<path class="st6" d="M166.5,280c-1.8,0-3.5-0.6-5-1.6c-1.9-1.4-3.1-3.4-3.5-5.7c-0.6-3.8,2-7.5,5.8-8.1c3.1-0.5,6.1,1.6,6.6,4.7
			c0.4,2.6-1.3,5-3.9,5.4c-2.1,0.4-4.1-1.1-4.4-3.2c-0.3-1.7,0.9-3.4,2.6-3.7c0.7-0.1,1.4,0,2,0.5c0.6,0.4,1,1,1.1,1.7l-1,0.2
			c-0.1-0.4-0.3-0.8-0.7-1.1s-0.8-0.4-1.2-0.3c-1.2,0.2-2,1.3-1.8,2.5c0.3,1.6,1.7,2.6,3.3,2.4c2-0.3,3.4-2.2,3-4.3
			c-0.4-2.6-2.9-4.3-5.5-3.9c-3.3,0.6-5.5,3.7-5,7c0.3,2,1.4,3.8,3.1,5c1.7,1.2,3.7,1.7,5.7,1.3l0.2,1C167.4,280,167,280,166.5,280z
			"/>
	</g>
	<g>
		<path class="st6" d="M352.5,261.5c-2.5,0-4.9-0.8-7-2.2c-2.6-1.9-4.3-4.6-4.9-7.8c-0.4-2.6,0.2-5.1,1.7-7.2s3.7-3.5,6.3-3.9
			c2.1-0.3,4.2,0.1,5.9,1.4c1.7,1.2,2.8,3,3.2,5.1c0.3,1.7-0.1,3.4-1.1,4.8c-1,1.4-2.5,2.3-4.2,2.6c-2.8,0.5-5.5-1.5-6-4.3
			c-0.2-1.1,0.1-2.3,0.7-3.2c0.7-0.9,1.6-1.5,2.8-1.7c0.9-0.2,1.9,0.1,2.6,0.6c0.8,0.5,1.3,1.4,1.4,2.3l-1,0.2
			c-0.1-0.7-0.5-1.2-1-1.6c-0.5-0.4-1.2-0.5-1.9-0.4c-0.9,0.1-1.6,0.6-2.1,1.3c-0.5,0.7-0.7,1.6-0.6,2.4c0.4,2.3,2.6,3.8,4.9,3.5
			c1.4-0.2,2.7-1,3.5-2.2c0.8-1.2,1.2-2.6,0.9-4c-0.3-1.8-1.3-3.4-2.8-4.5c-1.5-1.1-3.3-1.5-5.1-1.2c-2.3,0.4-4.3,1.6-5.7,3.5
			c-1.4,1.9-1.9,4.2-1.5,6.5c0.5,2.9,2.1,5.4,4.5,7.2c2.4,1.7,5.3,2.4,8.2,1.9l0.2,1C353.8,261.4,353.2,261.5,352.5,261.5z"/>
	</g>
	<g>
		<path class="st6" d="M195.9,313.6c-3.8-0.7-7-2.8-9.2-5.9s-3-6.9-2.4-10.7c1.1-6.2,7-10.3,13.2-9.2c4.9,0.9,8.2,5.6,7.3,10.5
			c-0.3,1.9-1.4,3.6-3,4.7c-1.6,1.1-3.5,1.5-5.4,1.2c-3.2-0.6-5.3-3.6-4.7-6.7c0.4-2.5,2.9-4.2,5.4-3.8c1,0.2,1.9,0.7,2.4,1.6
			c0.6,0.8,0.8,1.8,0.6,2.8c-0.1,0.8-0.6,1.5-1.3,2c-0.7,0.5-1.5,0.7-2.3,0.5c-0.7-0.1-1.2-0.5-1.6-1c-0.4-0.6-0.5-1.2-0.4-1.9
			l1,0.2c-0.1,0.4,0,0.8,0.3,1.1c0.2,0.3,0.6,0.6,1,0.6c0.5,0.1,1.1,0,1.6-0.3c0.5-0.3,0.8-0.8,0.9-1.3c0.1-0.7,0-1.5-0.5-2.1
			c-0.4-0.6-1.1-1-1.8-1.1c-1-0.2-1.9,0-2.7,0.6c-0.8,0.6-1.3,1.4-1.5,2.4c-0.5,2.6,1.3,5.1,3.9,5.6c1.6,0.3,3.3-0.1,4.7-1
			c1.4-1,2.3-2.4,2.6-4c0.8-4.4-2.2-8.6-6.5-9.3c-5.6-1-11,2.8-12,8.4c-0.6,3.5,0.2,7,2.2,10c2,2.9,5.1,4.9,8.6,5.5L195.9,313.6z"/>
	</g>
	<g>
		<path class="st6" d="M269.3,258.3c-7.6-1.5-12.8-9-11.6-16.6c0.5-2.9,2-5.5,4.4-7.2c2.4-1.7,5.3-2.3,8.2-1.7
			c4.8,1,8.1,5.7,7.3,10.5c-0.3,1.9-1.3,3.5-2.8,4.6c-1.5,1.1-3.4,1.4-5.2,1.1c-3.1-0.6-5.2-3.6-4.7-6.7c0.2-1.2,0.8-2.3,1.8-3
			c1-0.7,2.2-0.9,3.4-0.7c2,0.4,3.4,2.4,3.1,4.4c-0.1,0.8-0.6,1.5-1.2,2c-0.7,0.5-1.5,0.6-2.3,0.5c-1.3-0.3-2.3-1.6-2-2.9l1,0.2
			c-0.1,0.8,0.4,1.6,1.3,1.8c0.5,0.1,1.1,0,1.5-0.3c0.4-0.3,0.7-0.8,0.8-1.3c0.2-1.5-0.8-2.9-2.3-3.2c-0.9-0.2-1.9,0-2.6,0.5
			s-1.3,1.3-1.4,2.3c-0.4,2.6,1.4,5.1,3.9,5.6c1.6,0.3,3.2,0,4.5-0.9c1.3-0.9,2.1-2.3,2.4-3.9c0.7-4.3-2.3-8.5-6.5-9.4
			c-2.6-0.5-5.3,0-7.5,1.5c-2.2,1.5-3.6,3.8-4,6.5c-1.1,7.1,3.8,14,10.8,15.5L269.3,258.3z"/>
	</g>
	<g>
		<path class="st6" d="M323.1,205.5c-8.6-1.5-14.4-9.8-12.8-18.4c1.2-6.8,7.8-11.4,14.6-10.2c5.4,1,9.1,6.2,8.1,11.6
			c-0.4,2.1-1.5,3.9-3.3,5.1c-1.7,1.2-3.9,1.7-6,1.3c-3.5-0.6-5.8-3.9-5.2-7.4c0.5-2.8,3.2-4.7,5.9-4.2c2.3,0.4,3.8,2.6,3.4,4.8
			c-0.3,1.8-2.1,3.1-3.9,2.7c-1.5-0.3-2.5-1.7-2.2-3.2l1,0.2c-0.2,1,0.5,1.9,1.4,2c1.3,0.2,2.5-0.6,2.7-1.9c0.3-1.7-0.8-3.3-2.5-3.6
			c-2.2-0.4-4.4,1.1-4.8,3.3c-0.5,2.9,1.4,5.7,4.4,6.2c1.8,0.3,3.7-0.1,5.2-1.2c1.5-1.1,2.5-2.7,2.9-4.5c0.9-4.9-2.4-9.6-7.3-10.4
			c-6.3-1.1-12.3,3.1-13.4,9.4c-1.4,8.1,4,15.8,12,17.2L323.1,205.5z"/>
	</g>
	<g>
		<path class="st6" d="M354.1,211.8c-8.6-1.5-14.4-9.8-12.8-18.4c1.2-6.8,7.7-11.4,14.6-10.2c5.4,1,9.1,6.2,8.1,11.6
			c-0.4,2.1-1.5,3.9-3.3,5.1c-1.7,1.2-3.9,1.7-6,1.3c-3.5-0.6-5.8-3.9-5.2-7.4c0.5-2.8,3.2-4.7,5.9-4.2c2.3,0.4,3.8,2.6,3.4,4.8
			c-0.3,1.8-2.1,3-3.9,2.7c-1.5-0.3-2.5-1.7-2.2-3.2l1,0.2c-0.2,1,0.5,1.9,1.4,2c1.3,0.2,2.5-0.6,2.7-1.9c0.3-1.7-0.8-3.3-2.5-3.6
			c-2.3-0.4-4.4,1.1-4.8,3.3c-0.5,2.9,1.4,5.7,4.4,6.2c1.8,0.3,3.7-0.1,5.2-1.2c1.5-1.1,2.5-2.7,2.9-4.5c0.9-4.9-2.4-9.6-7.3-10.4
			c-6.3-1.1-12.3,3.1-13.4,9.4c-1.4,8.1,4,15.8,12,17.2L354.1,211.8z"/>
	</g>
	<g>
		<path class="st6" d="M245.5,364.7c-9.2-1.7-15.5-10.6-13.9-19.9c0.6-3.6,2.6-6.7,5.5-8.7c2.9-2.1,6.5-2.8,10.1-2.2
			c5.8,1.1,9.8,6.7,8.7,12.5c-0.4,2.3-1.6,4.2-3.5,5.5c-1.9,1.3-4.1,1.8-6.4,1.4c-3.7-0.7-6.2-4.3-5.6-8c0.3-1.4,1-2.7,2.2-3.5
			c1.2-0.8,2.7-1.2,4.1-0.9c2.4,0.4,4,2.8,3.6,5.2c-0.2,0.9-0.7,1.8-1.5,2.3c-0.8,0.5-1.7,0.8-2.7,0.6c-1.6-0.3-2.7-1.8-2.4-3.4
			l1,0.2c-0.2,1.1,0.5,2.1,1.6,2.3c0.7,0.1,1.4,0,1.9-0.4c0.6-0.4,0.9-1,1.1-1.7c0.3-1.9-0.9-3.7-2.8-4c-1.2-0.2-2.4,0-3.4,0.7
			c-1,0.7-1.6,1.7-1.8,2.9c-0.5,3.2,1.6,6.2,4.8,6.8c2,0.4,4-0.1,5.6-1.2c1.6-1.2,2.7-2.9,3.1-4.9c0.9-5.3-2.6-10.4-7.9-11.4
			c-3.3-0.6-6.6,0.1-9.3,2c-2.7,1.9-4.5,4.8-5.1,8.1c-1.5,8.7,4.4,17.1,13.1,18.7L245.5,364.7z"/>
	</g>
	<g>
		<path class="st6" d="M166.9,317.7c-6.9-3.7-9.5-12.3-5.9-19.3c1.4-2.7,3.8-4.7,6.6-5.6c2.8-0.9,5.9-0.6,8.5,0.8
			c4.3,2.3,6,7.8,3.7,12.2c-0.9,1.7-2.4,3-4.2,3.5c-1.8,0.6-3.7,0.4-5.4-0.5c-2.8-1.5-3.8-5-2.4-7.8c0.6-1.1,1.5-1.9,2.7-2.3
			c1.2-0.4,2.4-0.2,3.5,0.3c1.8,1,2.5,3.3,1.6,5.1c-0.4,0.7-1,1.3-1.8,1.5c-0.8,0.2-1.6,0.2-2.3-0.2c-1.2-0.7-1.7-2.2-1-3.4l0.9,0.5
			c-0.4,0.7-0.1,1.7,0.6,2.1c0.5,0.3,1,0.3,1.5,0.1c0.5-0.2,1-0.5,1.2-1c0.7-1.4,0.2-3-1.1-3.8c-0.8-0.5-1.8-0.5-2.7-0.3
			c-0.9,0.3-1.7,0.9-2.1,1.8c-1.2,2.3-0.3,5.2,2,6.5c1.4,0.8,3.1,0.9,4.6,0.4c1.6-0.5,2.9-1.6,3.6-3c2-3.9,0.6-8.8-3.3-10.8
			c-2.4-1.3-5.1-1.5-7.7-0.7c-2.6,0.8-4.8,2.6-6,5.1c-3.4,6.5-0.9,14.5,5.5,17.9L166.9,317.7z"/>
	</g>
	<g>
		<path class="st6" d="M200.6,344.3c-3.6-2.6-4.3-7.6-1.6-11.2c2.1-2.9,6.2-3.5,9.1-1.4c2.3,1.7,2.8,5,1.1,7.3
			c-0.7,0.9-1.6,1.5-2.8,1.7c-1.1,0.2-2.2-0.1-3.1-0.8c-0.7-0.5-1.2-1.3-1.4-2.2c-0.1-0.9,0.1-1.8,0.6-2.5c0.9-1.2,2.7-1.5,3.9-0.6
			c0.5,0.4,0.8,0.9,0.9,1.5s-0.1,1.2-0.4,1.7l-0.8-0.6c0.2-0.3,0.3-0.6,0.2-1c-0.1-0.3-0.2-0.6-0.5-0.9c-0.8-0.6-1.9-0.4-2.5,0.4
			c-0.4,0.5-0.5,1.2-0.4,1.8c0.1,0.6,0.4,1.2,1,1.6c0.7,0.5,1.5,0.7,2.4,0.6c0.8-0.1,1.6-0.6,2.1-1.3c1.4-1.9,1-4.5-0.9-5.9
			c-2.4-1.8-5.9-1.3-7.7,1.2c-2.4,3.2-1.7,7.5,1.4,9.8L200.6,344.3z"/>
	</g>
	<g>
		<path class="st6" d="M148.7,299.9c-2.4-3-3.5-6.8-3-10.7c0.5-3.8,2.4-7.3,5.4-9.7c5-3.9,12.3-3.1,16.2,1.9
			c1.5,1.9,2.2,4.3,1.9,6.8c-0.3,2.4-1.5,4.6-3.4,6.1c-1.5,1.2-3.5,1.8-5.4,1.5c-1.9-0.2-3.7-1.2-4.9-2.7c-1-1.2-1.4-2.8-1.2-4.3
			c0.2-1.6,1-3,2.2-3.9c2-1.6,5-1.3,6.6,0.8c0.6,0.8,0.9,1.8,0.8,2.8c-0.1,1-0.6,1.9-1.4,2.6c-0.7,0.5-1.5,0.7-2.3,0.6
			c-0.8-0.1-1.6-0.5-2.1-1.2c-0.4-0.5-0.6-1.2-0.5-1.9c0.1-0.7,0.4-1.3,1-1.7c0.4-0.4,1-0.5,1.6-0.4c0.6,0.1,1.1,0.3,1.4,0.8
			c0.3,0.4,0.4,0.8,0.4,1.3c-0.1,0.5-0.3,0.9-0.7,1.2l-0.6-0.8c0.2-0.1,0.3-0.3,0.3-0.5s0-0.4-0.2-0.6c-0.2-0.2-0.5-0.4-0.8-0.4
			c-0.3,0-0.6,0-0.8,0.2c-0.3,0.3-0.5,0.6-0.6,1c0,0.4,0.1,0.8,0.3,1.2c0.7,0.9,2.1,1.1,3,0.4c0.6-0.5,1-1.1,1.1-1.9
			c0.1-0.8-0.1-1.5-0.6-2.1c-1.3-1.6-3.6-1.9-5.2-0.6c-1,0.8-1.7,2-1.8,3.3s0.2,2.6,1,3.6c2.2,2.7,6.1,3.2,8.9,1.1
			c3.5-2.8,4.2-7.9,1.4-11.5c-3.6-4.6-10.2-5.3-14.8-1.8c-2.8,2.2-4.6,5.4-5.1,9c-0.4,3.6,0.6,7.1,2.8,9.9L148.7,299.9z"/>
	</g>
	<g>
		<path class="st6" d="M136.5,304c-2.2-1.4-3.6-3.6-4.2-6.1c-0.5-2.5,0-5.1,1.4-7.3c2.3-3.6,7.1-4.6,10.7-2.2
			c2.8,1.9,3.7,5.7,1.8,8.5c-0.7,1.1-1.8,1.9-3.1,2.1c-1.3,0.3-2.6,0-3.7-0.7c-0.9-0.6-1.5-1.5-1.7-2.5s0-2.1,0.6-3
			c0.5-0.7,1.2-1.2,2.1-1.4c0.9-0.2,1.7,0,2.5,0.5c0.6,0.4,1,1,1.2,1.7c0.1,0.7,0,1.4-0.4,2c-0.3,0.5-0.8,0.8-1.4,1
			c-0.6,0.1-1.2,0-1.7-0.3c-0.4-0.3-0.7-0.7-0.8-1.2s0-1,0.3-1.4l0.8,0.5c-0.1,0.2-0.2,0.4-0.1,0.6s0.2,0.4,0.4,0.5
			c0.3,0.2,0.6,0.2,0.9,0.2s0.6-0.3,0.8-0.5c0.2-0.4,0.3-0.8,0.2-1.3c-0.1-0.4-0.3-0.8-0.7-1.1c-1-0.7-2.5-0.4-3.1,0.7
			c-0.4,0.7-0.6,1.5-0.4,2.3c0.2,0.8,0.6,1.5,1.3,1.9c0.9,0.6,1.9,0.8,3,0.6c1-0.2,1.9-0.8,2.5-1.7c0.8-1.2,1-2.5,0.7-3.9
			s-1.1-2.5-2.2-3.3c-3.1-2-7.3-1.1-9.3,2c-1.3,1.9-1.7,4.2-1.2,6.5c0.5,2.3,1.8,4.2,3.7,5.5L136.5,304z"/>
	</g>
	<g>
		<path class="st6" d="M171.4,293.2c-7-10.2-4.4-24.1,5.8-31c8-5.5,19.1-3.5,24.6,4.6c2.1,3.1,2.9,6.8,2.2,10.5s-2.8,6.9-5.9,9
			c-5.1,3.5-12,2.2-15.5-2.9c-2.8-4-1.7-9.6,2.3-12.3c1.6-1.1,3.4-1.5,5.3-1.1c1.9,0.3,3.5,1.4,4.5,3c0.9,1.3,1.2,2.8,0.9,4.3
			c-0.3,1.5-1.1,2.8-2.4,3.6c-2.1,1.4-4.9,0.9-6.4-1.2c-1.2-1.7-0.7-4,1-5.2c1.4-0.9,3.3-0.6,4.2,0.8c0.8,1.1,0.5,2.7-0.6,3.5
			c-0.5,0.3-1,0.4-1.5,0.3c-0.5-0.1-1-0.4-1.3-0.9l0.8-0.6c0.3,0.5,1,0.6,1.5,0.3c0.7-0.5,0.9-1.4,0.4-2.1c-0.3-0.4-0.8-0.7-1.3-0.8
			c-0.5-0.1-1.1,0-1.5,0.3c-0.6,0.4-1,1-1.1,1.7c-0.1,0.7,0,1.4,0.4,2c0.5,0.8,1.4,1.3,2.3,1.5c0.9,0.2,1.9,0,2.7-0.6
			c1-0.7,1.7-1.8,2-3c0.2-1.2,0-2.5-0.7-3.5c-0.9-1.3-2.3-2.2-3.9-2.5c-1.6-0.3-3.2,0-4.6,1c-1.7,1.2-2.9,3-3.3,5
			c-0.4,2.1,0.1,4.2,1.2,5.9c1.5,2.2,3.8,3.7,6.5,4.2c2.7,0.5,5.4-0.1,7.6-1.6c2.9-2,4.8-4.9,5.4-8.3s-0.1-6.9-2.1-9.7
			c-2.5-3.7-6.3-6.1-10.7-7c-4.4-0.8-8.8,0.1-12.5,2.6c-9.7,6.6-12.2,19.9-5.5,29.6L171.4,293.2z"/>
	</g>
	<g>
		<path class="st6" d="M335.7,244.9c-7-10.2-4.4-24.1,5.8-31c3.9-2.7,8.6-3.7,13.2-2.8c4.6,0.9,8.7,3.5,11.3,7.4
			c2.1,3.1,2.9,6.8,2.2,10.5s-2.8,6.9-5.9,9c-2.5,1.7-5.4,2.3-8.3,1.8c-2.9-0.5-5.5-2.2-7.1-4.7c-1.3-2-1.8-4.3-1.4-6.6
			c0.4-2.3,1.8-4.4,3.7-5.7c1.6-1.1,3.4-1.5,5.3-1.1c1.9,0.3,3.5,1.4,4.5,3c1.8,2.6,1.1,6.1-1.5,7.9c-1,0.7-2.2,1-3.4,0.7
			s-2.2-0.9-2.9-1.9c-1.2-1.7-0.7-4,1-5.2c0.7-0.5,1.5-0.6,2.3-0.5c0.8,0.1,1.5,0.6,1.9,1.3c0.4,0.5,0.5,1.2,0.4,1.9s-0.5,1.2-1,1.6
			c-0.5,0.3-1,0.4-1.5,0.3c-0.5-0.1-1-0.4-1.3-0.9l0.8-0.6c0.3,0.5,1,0.6,1.5,0.3c0.3-0.2,0.5-0.6,0.6-1c0.1-0.4,0-0.8-0.2-1.1
			c-0.6-0.9-1.9-1.2-2.8-0.5c-1.2,0.8-1.5,2.5-0.7,3.8c0.5,0.8,1.4,1.3,2.3,1.5c0.9,0.2,1.9,0,2.7-0.6c2.1-1.5,2.7-4.4,1.2-6.5
			c-0.9-1.3-2.3-2.2-3.9-2.5c-1.6-0.3-3.2,0-4.6,1c-1.7,1.2-2.9,3-3.3,5.1c-0.4,2.1,0.1,4.2,1.2,5.9c1.5,2.2,3.8,3.7,6.5,4.2
			c2.7,0.5,5.4-0.1,7.6-1.6c2.9-2,4.8-4.9,5.4-8.3s-0.1-6.9-2.1-9.7c-2.5-3.7-6.3-6.1-10.7-7c-4.4-0.8-8.8,0.1-12.5,2.6
			c-9.7,6.6-12.2,19.9-5.5,29.6L335.7,244.9z"/>
	</g>
	<g>
		<path class="st6" d="M173.7,293.8c-0.9-1.9-1-4.1-0.3-6.1c0.7-2,2.2-3.6,4.1-4.6c3.2-1.5,7.1-0.2,8.6,3c0.6,1.2,0.7,2.6,0.2,3.9
			c-0.5,1.3-1.4,2.3-2.7,2.9c-2.1,1-4.6,0.1-5.6-2c-0.4-0.8-0.4-1.7-0.1-2.6c0.3-0.9,0.9-1.5,1.7-1.9c1.4-0.7,3-0.1,3.7,1.3
			c0.3,0.5,0.3,1.2,0.1,1.7c-0.2,0.6-0.6,1-1.2,1.3c-1,0.5-2.1,0-2.5-0.9l0.9-0.4c0.2,0.5,0.8,0.6,1.2,0.4c0.3-0.1,0.5-0.4,0.7-0.7
			c0.1-0.3,0.1-0.7-0.1-1c-0.4-0.9-1.5-1.3-2.4-0.8c-0.6,0.3-1,0.8-1.2,1.4c-0.2,0.6-0.2,1.2,0.1,1.8c0.8,1.6,2.7,2.2,4.2,1.5
			c1-0.5,1.8-1.3,2.1-2.4c0.4-1,0.3-2.2-0.2-3.1c-1.3-2.7-4.6-3.8-7.3-2.6c-1.7,0.8-3,2.2-3.6,4c-0.6,1.8-0.5,3.6,0.3,5.3
			L173.7,293.8z"/>
	</g>
	<g>
		<path class="st6" d="M204.7,275.6c-2.2-3.1-3.1-6.9-2.4-10.7c0.7-3.8,2.7-7.1,5.9-9.3c2.5-1.8,5.5-2.4,8.5-1.9
			c3,0.5,5.6,2.2,7.4,4.7c2.9,4.1,1.9,9.8-2.2,12.7c-1.6,1.1-3.5,1.5-5.4,1.2c-1.9-0.3-3.6-1.4-4.7-3c-1.9-2.6-1.2-6.3,1.4-8.1
			c2.1-1.5,5-1,6.5,1.1c1.2,1.7,0.8,4.1-0.9,5.3c-1.4,1-3.3,0.7-4.3-0.7c-0.8-1.1-0.5-2.7,0.6-3.5c0.5-0.3,1-0.5,1.6-0.4
			c0.6,0.1,1,0.4,1.4,0.9l-0.8,0.6c-0.2-0.2-0.4-0.4-0.7-0.5c-0.3-0.1-0.6,0-0.8,0.2c-0.7,0.5-0.9,1.5-0.4,2.2
			c0.3,0.5,0.8,0.8,1.4,0.9c0.6,0.1,1.1,0,1.6-0.4c0.6-0.4,1-1.1,1.1-1.8c0.1-0.7,0-1.5-0.5-2.1c-1.2-1.7-3.5-2.1-5.1-0.9
			c-2.2,1.5-2.7,4.6-1.2,6.7c1,1.4,2.4,2.3,4.1,2.6c1.6,0.3,3.3-0.1,4.7-1.1c3.6-2.6,4.5-7.6,1.9-11.3c-1.6-2.3-4-3.8-6.7-4.3
			c-2.7-0.5-5.5,0.2-7.8,1.8c-2.9,2.1-4.9,5.1-5.5,8.7c-0.6,3.5,0.2,7.1,2.3,10L204.7,275.6z"/>
	</g>
	<g>
		<path class="st6" d="M225,274.7c-1.3-2.5-1.5-5.4-0.7-8.2s2.8-4.9,5.3-6.2c4.3-2.2,9.5-0.5,11.7,3.8c1.8,3.5,0.4,7.7-3.1,9.5
			c-2.8,1.4-6.3,0.3-7.7-2.5c-1.2-2.3-0.3-5.1,2-6.3c1.9-1,4.2-0.2,5.2,1.7c0.8,1.6,0.2,3.5-1.4,4.3c-1.3,0.7-2.9,0.1-3.6-1.1
			c-0.6-1.1-0.1-2.4,1-3c0.4-0.2,1-0.3,1.4-0.1c0.5,0.2,0.9,0.5,1.1,0.9l-0.9,0.5c-0.1-0.2-0.3-0.4-0.5-0.4
			c-0.2-0.1-0.5-0.1-0.7,0.1c-0.6,0.3-0.8,1-0.5,1.6c0.4,0.8,1.4,1.1,2.2,0.7c1.1-0.5,1.5-1.9,0.9-2.9c-0.7-1.4-2.4-2-3.8-1.2
			c-1.8,0.9-2.5,3.1-1.6,4.9c1.2,2.3,4,3.2,6.4,2.1c3-1.5,4.1-5.2,2.6-8.1c-1.9-3.8-6.5-5.3-10.3-3.3c-2.3,1.2-4,3.2-4.8,5.6
			c-0.8,2.5-0.6,5.1,0.6,7.4L225,274.7z"/>
	</g>
	<g>
		<path class="st6" d="M334.3,188.9c-3.1-4.7-1.9-11,2.8-14.1c3.8-2.5,8.9-1.5,11.5,2.3c1,1.5,1.3,3.3,1,5c-0.4,1.8-1.4,3.3-2.9,4.3
			c-1.2,0.8-2.7,1.1-4.1,0.8c-1.4-0.3-2.7-1.1-3.5-2.3c-1.4-2-0.8-4.8,1.2-6.2c0.8-0.5,1.8-0.7,2.8-0.5c1,0.2,1.8,0.7,2.3,1.6
			c0.5,0.7,0.6,1.5,0.5,2.3c-0.2,0.8-0.6,1.5-1.3,1.9c-1.2,0.8-2.7,0.5-3.5-0.7c-0.3-0.5-0.4-1-0.3-1.6c0.1-0.6,0.4-1,0.9-1.4
			c0.8-0.6,1.9-0.3,2.5,0.5l-0.8,0.6c-0.1-0.2-0.3-0.3-0.5-0.3c-0.2,0-0.4,0-0.6,0.1c-0.5,0.3-0.7,1-0.3,1.6
			c0.5,0.7,1.4,0.9,2.1,0.4c0.5-0.3,0.8-0.8,0.9-1.3c0.1-0.5,0-1.1-0.3-1.5c-0.4-0.6-1-1-1.7-1.1c-0.7-0.1-1.4,0-2,0.4
			c-1.6,1.1-2,3.2-1,4.8c0.7,1,1.7,1.7,2.8,1.9c1.2,0.2,2.4,0,3.4-0.7c1.3-0.8,2.1-2.1,2.4-3.6c0.3-1.5,0-3-0.9-4.3
			c-1.1-1.6-2.7-2.7-4.6-3.1c-1.9-0.4-3.8,0-5.4,1.1c-4.2,2.8-5.4,8.5-2.5,12.8L334.3,188.9z"/>
	</g>
	<g>
		<path class="st6" d="M245.6,276.3c-3-2.8-4.7-6.5-4.9-10.6c-0.2-4.1,1.3-8,4-10.9c2.3-2.5,5.5-4,8.9-4.1c3.4-0.1,6.7,1.1,9.2,3.4
			c4.4,4,4.6,10.9,0.6,15.2c-1.6,1.8-3.9,2.8-6.3,2.9c-2.4,0.1-4.8-0.8-6.5-2.4c-1.5-1.4-2.4-3.3-2.5-5.3c-0.1-2.1,0.6-4,2-5.5
			c1.2-1.3,2.8-2,4.5-2.1c1.7-0.1,3.4,0.5,4.7,1.7c2.2,2.1,2.4,5.6,0.3,7.8c-1.8,1.9-4.7,2-6.6,0.3c-0.8-0.7-1.2-1.7-1.3-2.8
			c0-1.1,0.3-2.1,1.1-2.9c0.6-0.7,1.5-1.1,2.4-1.1c0.9,0,1.8,0.3,2.5,0.9c0.6,0.5,0.9,1.3,0.9,2c0,0.8-0.2,1.5-0.8,2.1
			c-1,1-2.6,1.1-3.6,0.1c-0.4-0.4-0.7-0.9-0.7-1.5c0-0.6,0.2-1.2,0.6-1.6c0.7-0.8,1.9-0.8,2.7-0.1l-0.7,0.7c-0.4-0.3-1-0.3-1.3,0.1
			c-0.2,0.2-0.3,0.5-0.3,0.9c0,0.3,0.2,0.6,0.4,0.8c0.3,0.3,0.7,0.4,1.1,0.4c0.4,0,0.8-0.2,1.1-0.5c0.4-0.4,0.5-0.9,0.5-1.4
			c0-0.5-0.2-1-0.6-1.4c-0.5-0.4-1.1-0.7-1.7-0.6c-0.6,0-1.2,0.3-1.7,0.8c-0.5,0.6-0.8,1.4-0.8,2.2c0,0.8,0.4,1.5,1,2.1
			c1.5,1.4,3.8,1.3,5.2-0.2c1.7-1.8,1.6-4.7-0.3-6.4c-1.1-1-2.5-1.5-4-1.5c-1.5,0.1-2.8,0.7-3.8,1.8c-1.2,1.3-1.8,3-1.8,4.8
			s0.8,3.4,2.1,4.6c1.6,1.5,3.6,2.2,5.8,2.1c2.2-0.1,4.2-1,5.6-2.6c1.8-1.9,2.7-4.4,2.6-7c-0.1-2.6-1.2-5-3.1-6.8
			c-4.8-4.4-12.3-4.1-16.7,0.7c-2.6,2.8-3.9,6.4-3.8,10.2c0.2,3.8,1.8,7.3,4.6,9.9L245.6,276.3z"/>
	</g>
	<g>
		<path class="st6" d="M224,323.9c-3.8-2.2-6.6-5.7-7.8-9.9c-1.2-4.2-0.7-8.7,1.5-12.5c1.8-3.2,4.8-5.6,8.3-6.6
			c3.6-1,7.3-0.6,10.5,1.3c2.7,1.5,4.7,4,5.5,7c0.8,3,0.5,6.1-1.1,8.9c-2.7,4.7-8.6,6.4-13.4,3.8c-1.9-1.1-3.3-2.9-3.9-5
			c-0.6-2.1-0.3-4.4,0.8-6.3c1.9-3.4,6.2-4.6,9.5-2.7c2.9,1.6,3.9,5.2,2.3,8.1c-0.7,1.2-1.7,2-3,2.4c-1.3,0.4-2.7,0.2-3.8-0.5
			c-2.1-1.2-2.8-3.8-1.6-5.8c0.5-0.9,1.3-1.5,2.2-1.7c0.9-0.3,1.9-0.1,2.8,0.3c0.7,0.4,1.3,1.1,1.5,1.9c0.2,0.8,0.1,1.7-0.3,2.4
			c-0.4,0.6-0.9,1.1-1.6,1.3c-0.7,0.2-1.4,0.1-2.1-0.2c-1.1-0.6-1.5-2.1-0.9-3.2c0.6-1,1.8-1.3,2.8-0.8l-0.5,0.9
			c-0.5-0.3-1.1-0.1-1.4,0.4c-0.4,0.6-0.1,1.5,0.5,1.8c0.4,0.2,0.9,0.3,1.3,0.2c0.4-0.1,0.8-0.4,1-0.8c0.3-0.5,0.4-1.1,0.2-1.6
			c-0.2-0.6-0.5-1-1-1.3c-0.6-0.3-1.3-0.4-2-0.2c-0.7,0.2-1.3,0.6-1.6,1.3c-0.9,1.6-0.3,3.6,1.3,4.5c0.9,0.5,2,0.7,3.1,0.4
			c1-0.3,1.9-1,2.4-1.9c0.6-1.2,0.8-2.5,0.4-3.8c-0.4-1.3-1.2-2.3-2.3-3c-2.9-1.6-6.6-0.6-8.2,2.3c-1,1.7-1.2,3.7-0.7,5.5
			c0.5,1.9,1.8,3.4,3.4,4.4c4.2,2.4,9.6,0.9,12-3.4c2.9-5.1,1-11.6-4.1-14.5c-3-1.7-6.5-2.1-9.8-1.2c-3.3,0.9-6,3.1-7.7,6.1
			c-2,3.6-2.5,7.8-1.4,11.8c1.1,4,3.7,7.3,7.3,9.3L224,323.9z"/>
	</g>
	<g>
		<path class="st6" d="M214.8,349.6c-3.2-2.6-5.1-6.3-5.4-10.5c-0.3-4.1,1-8.1,3.6-11.4c4.5-5.5,12.7-6.3,18.3-1.8
			c2.3,1.9,3.7,4.5,3.9,7.4c0.3,2.9-0.6,5.7-2.4,8c-1.6,1.9-3.8,3.1-6.2,3.3c-2.5,0.2-4.8-0.5-6.7-2.1c-1.6-1.3-2.6-3.2-2.8-5.3
			c-0.2-2.1,0.4-4.1,1.7-5.7c1.1-1.4,2.7-2.2,4.4-2.4c1.7-0.2,3.5,0.4,4.8,1.5c1.2,0.9,1.9,2.3,2,3.8s-0.3,2.9-1.2,4.1
			c-1.7,2-4.7,2.3-6.7,0.7c-1.7-1.4-2-4-0.6-5.7c0.6-0.7,1.4-1.2,2.3-1.2c0.9-0.1,1.8,0.2,2.5,0.8c0.6,0.5,1,1.2,1.1,2
			c0.1,0.8-0.2,1.6-0.7,2.2c-0.9,1.1-2.5,1.3-3.6,0.4c-0.5-0.4-0.7-0.9-0.8-1.5s0.1-1.2,0.5-1.6c0.7-0.8,1.9-1,2.7-0.3L225,335
			c-0.2-0.2-0.4-0.2-0.7-0.2c-0.3,0-0.5,0.1-0.6,0.3c-0.4,0.5-0.4,1.3,0.2,1.7c0.3,0.3,0.7,0.4,1.1,0.3c0.4,0,0.8-0.2,1.1-0.6
			c0.3-0.4,0.5-0.9,0.4-1.4c-0.1-0.5-0.3-1-0.7-1.3c-0.5-0.4-1.2-0.6-1.8-0.5c-0.7,0.1-1.2,0.4-1.7,0.9c-0.5,0.6-0.8,1.4-0.7,2.2
			s0.5,1.5,1.1,2.1c1.6,1.3,4,1.1,5.3-0.5c0.8-0.9,1.1-2.1,1-3.4c-0.1-1.2-0.7-2.3-1.6-3.1c-1.2-0.9-2.6-1.4-4.1-1.2
			c-1.5,0.1-2.8,0.9-3.8,2c-1.2,1.4-1.7,3.2-1.5,5c0.2,1.8,1,3.4,2.4,4.6c1.7,1.4,3.8,2,6,1.8c2.2-0.2,4.2-1.3,5.5-3
			c1.7-2,2.5-4.6,2.2-7.3s-1.5-5-3.6-6.7c-5.1-4.2-12.7-3.5-16.9,1.6c-2.5,3-3.7,6.8-3.4,10.6c0.3,3.9,2.1,7.4,5,9.8L214.8,349.6z"
			/>
	</g>
	<g>
		<path class="st6" d="M196.1,261.9c-1.8-1.9-2.7-4.4-2.6-7c0.1-2.6,1.2-5,3.1-6.8c1.5-1.4,3.4-2.1,5.5-2c2,0.1,3.9,0.9,5.3,2.4
			c1.1,1.2,1.7,2.7,1.6,4.3c-0.1,1.6-0.7,3.1-1.9,4.2c-1.9,1.8-4.9,1.7-6.7-0.3c-1.4-1.5-1.3-3.9,0.2-5.3c0.6-0.5,1.3-0.8,2.2-0.8
			c0.8,0,1.5,0.4,2.1,1c0.4,0.5,0.7,1.1,0.6,1.7s-0.3,1.2-0.8,1.7c-0.8,0.7-2.1,0.7-2.8-0.1l0.7-0.7c0.4,0.4,1,0.4,1.4,0.1
			c0.3-0.3,0.4-0.6,0.5-1c0-0.4-0.1-0.7-0.4-1c-0.4-0.4-0.9-0.6-1.4-0.6c-0.5,0-1,0.2-1.4,0.5c-1.1,1-1.2,2.8-0.1,3.9
			c1.4,1.5,3.8,1.6,5.3,0.2c1-0.9,1.5-2.1,1.6-3.5c0.1-1.3-0.4-2.6-1.3-3.6c-1.2-1.3-2.9-2.1-4.6-2.1c-1.8-0.1-3.5,0.6-4.8,1.8
			c-1.7,1.6-2.7,3.8-2.8,6.1c-0.1,2.4,0.7,4.6,2.3,6.3L196.1,261.9z"/>
	</g>
	<g>
		<path class="st6" d="M332.8,198.5c-1.2-1.3-1.9-3.1-1.8-4.9c0.1-1.8,0.8-3.5,2.2-4.8c1.1-1,2.4-1.5,3.9-1.4
			c1.4,0.1,2.8,0.7,3.7,1.7c0.8,0.8,1.2,1.9,1.1,3c0,1.1-0.5,2.2-1.4,3c-0.7,0.6-1.5,1-2.4,0.9c-0.9,0-1.7-0.4-2.4-1.1
			c-1-1.1-1-2.8,0.1-3.8c0.4-0.4,1-0.6,1.6-0.6c0.6,0,1.1,0.3,1.5,0.7c0.3,0.4,0.5,0.8,0.5,1.3c0,0.5-0.2,0.9-0.6,1.3
			c-0.6,0.6-1.6,0.5-2.1-0.1l0.7-0.7c0.2,0.2,0.5,0.2,0.7,0c0.2-0.1,0.3-0.3,0.3-0.6c0-0.2-0.1-0.4-0.2-0.6
			c-0.2-0.2-0.5-0.4-0.8-0.4c-0.3,0-0.6,0.1-0.9,0.3c-0.3,0.3-0.5,0.7-0.5,1.2s0.1,0.9,0.5,1.2c0.4,0.5,1,0.7,1.7,0.8
			c0.6,0,1.2-0.2,1.7-0.6c0.6-0.6,1-1.4,1-2.3s-0.3-1.7-0.9-2.3c-0.8-0.9-1.9-1.4-3-1.4c-1.2,0-2.3,0.4-3.1,1.2
			c-2.4,2.2-2.5,5.9-0.3,8.3L332.8,198.5z"/>
	</g>
	<g>
		<path class="st6" d="M170.8,269.8c-5.1-3.6-8.4-9-9.4-15.1c-1-6.1,0.4-12.3,4-17.3c5.8-8.1,17-9.9,25.1-4.2c3,2.2,5,5.4,5.6,9.1
			c0.6,3.7-0.3,7.4-2.4,10.4c-3.5,4.9-10.3,6-15.1,2.5c-1.8-1.3-3-3.3-3.4-5.5c-0.4-2.2,0.2-4.5,1.5-6.3c1-1.4,2.6-2.4,4.3-2.7
			c1.7-0.3,3.5,0.1,4.9,1.1c2.3,1.7,2.9,4.9,1.2,7.3c-1.3,1.8-3.9,2.3-5.7,0.9c-1.5-1.1-1.8-3.1-0.8-4.6c0.8-1.2,2.5-1.5,3.7-0.6
			c0.5,0.3,0.8,0.8,0.9,1.4c0.1,0.6,0,1.1-0.4,1.6l-0.8-0.6c0.4-0.5,0.2-1.2-0.3-1.6c-0.7-0.5-1.8-0.4-2.3,0.4
			c-0.7,1-0.5,2.4,0.5,3.2c1.4,1,3.3,0.7,4.3-0.7c1.3-1.9,0.9-4.5-1-5.9c-1.2-0.9-2.7-1.2-4.2-1c-1.5,0.2-2.8,1.1-3.6,2.3
			c-1.2,1.6-1.6,3.6-1.3,5.6c0.3,2,1.4,3.7,3,4.8c2.1,1.5,4.7,2.1,7.3,1.7c2.6-0.4,4.9-1.8,6.4-4c2-2.8,2.8-6.2,2.2-9.7
			c-0.6-3.4-2.4-6.4-5.2-8.4c-7.6-5.5-18.3-3.7-23.7,3.9c-3.5,4.8-4.8,10.7-3.9,16.6c1,5.9,4.2,11,9,14.5L170.8,269.8z"/>
	</g>
	<g>
		<path class="st6" d="M284.8,250.5c-10.4-7.5-12.8-22-5.4-32.4c2.8-3.9,7-6.5,11.7-7.3c4.7-0.8,9.5,0.3,13.4,3.1
			c3,2.2,5,5.4,5.6,9.1c0.6,3.7-0.3,7.4-2.4,10.4c-3.5,4.9-10.3,6-15.1,2.5c-1.8-1.3-3-3.3-3.4-5.5c-0.4-2.2,0.2-4.5,1.5-6.3
			c1-1.4,2.6-2.4,4.3-2.7c1.7-0.3,3.5,0.1,4.9,1.1c2.3,1.7,2.9,4.9,1.2,7.3c-0.6,0.9-1.6,1.5-2.7,1.7c-1.1,0.2-2.2-0.1-3.1-0.7
			c-1.5-1.1-1.8-3.1-0.8-4.6c0.4-0.6,1-1,1.7-1.1c0.7-0.1,1.4,0,2,0.5c0.5,0.3,0.8,0.8,0.9,1.4c0.1,0.6,0,1.1-0.4,1.6l-0.8-0.6
			c0.2-0.2,0.2-0.6,0.2-0.9s-0.2-0.6-0.5-0.7c-0.4-0.3-0.8-0.4-1.2-0.3c-0.4,0.1-0.8,0.3-1.1,0.7c-0.7,1-0.5,2.4,0.5,3.2
			c0.7,0.5,1.5,0.7,2.3,0.5c0.8-0.1,1.5-0.6,2-1.3c1.3-1.9,0.9-4.5-1-5.9c-2.5-1.8-6-1.2-7.8,1.3c-1.2,1.6-1.6,3.6-1.3,5.6
			c0.3,2,1.4,3.7,3,4.8c2.1,1.5,4.7,2.1,7.3,1.7c2.6-0.4,4.9-1.8,6.4-4c2-2.8,2.8-6.2,2.2-9.7c-0.6-3.4-2.4-6.4-5.2-8.4
			c-3.7-2.6-8.2-3.7-12.7-3c-4.5,0.7-8.4,3.2-11,6.9c-7.1,10-4.8,23.9,5.1,31.1L284.8,250.5z"/>
	</g>
	<g>
		<path class="st6" d="M320.8,274.1c-8.4-6-10.4-17.8-4.3-26.2c4.7-6.5,13.8-8,20.3-3.4c5.1,3.6,6.2,10.7,2.6,15.8
			c-1.4,1.9-3.4,3.2-5.7,3.6c-2.3,0.4-4.7-0.2-6.6-1.5c-3.1-2.2-3.8-6.5-1.6-9.6c0.8-1.2,2.1-2,3.5-2.2c1.4-0.2,2.9,0.1,4,0.9
			c1.9,1.4,2.4,4,1,6c-0.5,0.7-1.3,1.2-2.2,1.4c-0.9,0.1-1.8-0.1-2.5-0.6c-1.2-0.9-1.5-2.6-0.6-3.8c0.3-0.5,0.9-0.8,1.4-0.9
			c0.6-0.1,1.2,0,1.7,0.4c0.8,0.6,1,1.7,0.4,2.5l-0.8-0.6c0.3-0.4,0.2-0.9-0.2-1.1c-0.5-0.4-1.3-0.3-1.7,0.3
			c-0.3,0.4-0.4,0.8-0.3,1.3c0.1,0.5,0.3,0.9,0.7,1.1c0.5,0.4,1.2,0.5,1.8,0.4c0.6-0.1,1.2-0.5,1.6-1c1.1-1.5,0.7-3.5-0.8-4.6
			c-2-1.4-4.7-1-6.2,1c-1.9,2.6-1.3,6.3,1.4,8.2c1.7,1.2,3.8,1.7,5.8,1.4c2.1-0.3,3.9-1.5,5.1-3.2c3.3-4.6,2.2-11.1-2.4-14.4
			c-6.1-4.4-14.6-3-18.9,3.1c-5.7,8-3.9,19.1,4.1,24.8L320.8,274.1z"/>
	</g>
	<g>
		<path class="st6" d="M139.1,288.3c-8.3-6-10.2-17.6-4.3-25.9c2.2-3.1,5.5-5.2,9.3-5.8c3.8-0.6,7.6,0.3,10.7,2.5
			c5,3.6,6.1,10.6,2.6,15.6c-1.4,1.9-3.4,3.2-5.6,3.5c-2.3,0.4-4.6-0.2-6.5-1.5c-3-2.2-3.7-6.5-1.6-9.5c0.8-1.2,2.1-1.9,3.5-2.2
			c1.4-0.2,2.8,0.1,4,0.9c1.9,1.4,2.3,4,1,5.9c-0.5,0.7-1.3,1.2-2.2,1.4c-0.9,0.1-1.8-0.1-2.5-0.6c-1.2-0.9-1.5-2.6-0.6-3.8
			c0.3-0.5,0.8-0.8,1.4-0.9c0.6-0.1,1.2,0,1.6,0.4c0.8,0.6,1,1.7,0.4,2.5l-0.8-0.6c0.3-0.4,0.2-0.9-0.2-1.1
			c-0.3-0.2-0.6-0.3-0.9-0.2c-0.3,0.1-0.6,0.2-0.8,0.5c-0.5,0.8-0.4,1.8,0.4,2.4c0.5,0.4,1.1,0.5,1.8,0.4c0.6-0.1,1.2-0.4,1.5-1
			c1-1.5,0.7-3.5-0.7-4.5c-0.9-0.7-2.1-1-3.2-0.8c-1.1,0.2-2.1,0.8-2.8,1.8c-1.9,2.6-1.3,6.3,1.3,8.1c1.7,1.2,3.7,1.7,5.7,1.3
			c2-0.3,3.8-1.4,5-3.1c3.3-4.6,2.2-11-2.3-14.2c-2.9-2.1-6.4-2.9-9.9-2.3c-3.5,0.6-6.6,2.5-8.7,5.4c-5.6,7.9-3.8,18.9,4,24.6
			L139.1,288.3z"/>
	</g>
	<g>
		<path class="st6" d="M146.5,256.9c-1.8-2.3-2.6-5.2-2.3-8.1c0.3-2.9,1.8-5.5,4.1-7.3c1.8-1.4,4-2.1,6.3-1.8
			c2.3,0.3,4.3,1.4,5.7,3.2c2.3,2.9,1.8,7.1-1.1,9.4c-2.3,1.8-5.6,1.4-7.4-0.9c-1.4-1.8-1.1-4.4,0.7-5.9c1.4-1.1,3.5-0.9,4.7,0.6
			c0.9,1.2,0.7,2.8-0.4,3.7c-0.9,0.7-2.3,0.6-3-0.4l0.8-0.6c0.4,0.5,1.1,0.6,1.6,0.2c0.7-0.6,0.8-1.6,0.3-2.3
			c-0.8-1-2.3-1.2-3.3-0.4c-1.4,1.1-1.6,3.1-0.5,4.5c1.5,1.9,4.2,2.2,6,0.7c2.5-1.9,2.9-5.5,1-8c-2.6-3.3-7.4-3.8-10.6-1.3
			c-4.3,3.4-5.1,9.7-1.7,14L146.5,256.9z"/>
	</g>
	<g>
		<path class="st6" d="M300.9,142.5c-1.4-1.8-2.1-4-1.8-6.3c0.3-2.3,1.4-4.3,3.2-5.7c1.4-1.1,3.2-1.6,4.9-1.4
			c1.8,0.2,3.4,1.1,4.5,2.5c1.8,2.3,1.4,5.6-0.9,7.4c-1.8,1.4-4.4,1.1-5.9-0.7c-1.1-1.4-0.9-3.5,0.6-4.7c0.6-0.4,1.3-0.6,2-0.6
			c0.7,0.1,1.3,0.4,1.8,1c0.7,0.9,0.6,2.3-0.4,3c-0.4,0.3-0.8,0.4-1.3,0.4c-0.5-0.1-0.9-0.3-1.2-0.7l0.8-0.6
			c0.1,0.2,0.3,0.3,0.5,0.3c0.2,0,0.4,0,0.6-0.2c0.5-0.4,0.6-1.1,0.2-1.6c-0.3-0.4-0.7-0.6-1.1-0.6c-0.4-0.1-0.9,0.1-1.2,0.3
			c-1,0.8-1.2,2.3-0.4,3.3c1.1,1.4,3.1,1.6,4.5,0.5c1.9-1.5,2.2-4.2,0.7-6c-2-2.5-5.6-2.9-8-1c-1.6,1.3-2.6,3.1-2.8,5.1
			c-0.2,2,0.3,4,1.6,5.6L300.9,142.5z"/>
	</g>
	<g>
		<path class="st6" d="M326.6,224.7c-3.2-2.8-5.1-7-5.4-11.5c-0.3-4.3,1.1-8.5,3.7-11.4c4.4-4.9,12.1-5.4,17-1
			c1.9,1.6,3,3.9,3.1,6.4c0.1,2.5-0.7,4.9-2.4,6.8c-2.7,3-7.3,3.3-10.4,0.6c-1.1-1-1.8-2.4-1.9-3.9c-0.1-1.5,0.4-3,1.4-4.1
			c1.7-1.9,4.5-2,6.4-0.4c0.7,0.6,1.1,1.5,1.2,2.5c0.1,1-0.3,1.9-0.9,2.6c-1.1,1.2-2.9,1.3-4.1,0.2l0.7-0.8c0.8,0.7,2,0.6,2.7-0.2
			c0.5-0.5,0.7-1.2,0.7-1.9c0-0.7-0.3-1.3-0.9-1.8c-1.5-1.3-3.7-1.1-5,0.3c-0.8,0.9-1.3,2.2-1.2,3.4c0.1,1.3,0.6,2.4,1.6,3.2
			c2.6,2.3,6.6,2.1,9-0.5c1.5-1.7,2.2-3.8,2.1-6c-0.1-2.2-1.1-4.2-2.8-5.7c-4.6-4-11.6-3.6-15.6,1c-2.5,2.7-3.7,6.6-3.5,10.7
			c0.3,4.3,2.1,8.2,5.1,10.8L326.6,224.7z"/>
	</g>
	<g>
		<path class="st6" d="M291.8,211.7c-8.1-4.2-11.3-14.3-7.1-22.5c1.6-3.1,4.3-5.3,7.6-6.4c3.3-1,6.8-0.7,9.8,0.9
			c4.9,2.6,6.8,8.6,4.3,13.5c-2,3.8-6.7,5.3-10.6,3.3c-3-1.6-4.2-5.3-2.6-8.3c1.2-2.4,4.2-3.3,6.5-2.1c0.9,0.5,1.6,1.3,1.9,2.2
			s0.2,2-0.3,2.9c-0.8,1.5-2.6,2.1-4.1,1.3l0.5-0.9c1,0.5,2.3,0.1,2.8-0.9c0.3-0.7,0.4-1.4,0.2-2.2c-0.2-0.7-0.7-1.3-1.4-1.7
			c-1.9-1-4.2-0.2-5.2,1.6c-1.3,2.5-0.3,5.6,2.2,6.9c3.3,1.7,7.5,0.4,9.2-2.9c2.3-4.4,0.6-9.9-3.9-12.2c-2.8-1.5-6.1-1.7-9.1-0.8
			c-3,1-5.5,3-7,5.9c-4,7.7-1,17.1,6.7,21.1L291.8,211.7z"/>
	</g>
	<g>
		<path class="st6" d="M313.3,226.1c-2.2-1.1-3.8-3.1-4.6-5.4c-0.7-2.4-0.5-4.9,0.6-7.1c1.8-3.5,6.2-4.9,9.7-3.1
			c2.8,1.4,3.9,4.9,2.4,7.6c-1.1,2.2-3.8,3-6,1.9c-0.8-0.4-1.5-1.2-1.8-2.1s-0.2-1.9,0.2-2.7c0.4-0.7,0.9-1.2,1.7-1.4
			c0.7-0.2,1.5-0.2,2.2,0.2c1.1,0.6,1.6,2,1,3.1c-0.2,0.4-0.6,0.8-1.1,0.9c-0.5,0.2-1,0.1-1.4-0.1l0.5-0.9c0.2,0.1,0.5,0.1,0.7,0.1
			c0.2-0.1,0.4-0.2,0.5-0.4c0.3-0.6,0.1-1.4-0.6-1.8c-0.4-0.2-0.9-0.3-1.4-0.1c-0.5,0.1-0.9,0.5-1.1,0.9c-0.3,0.6-0.4,1.3-0.2,2
			c0.2,0.7,0.7,1.2,1.3,1.5c1.7,0.9,3.8,0.2,4.7-1.5c1.2-2.3,0.3-5.1-2-6.3c-3-1.6-6.8-0.4-8.4,2.7c-1,2-1.2,4.2-0.5,6.3
			s2.1,3.8,4.1,4.8L313.3,226.1z"/>
	</g>
	<g>
		<path class="st6" d="M288.4,166.3c-3.3-2.5-5.4-6.1-6-10.2c-0.6-4.1,0.5-8.2,3-11.4c4-5.3,11.6-6.3,16.8-2.3
			c2,1.5,3.3,3.7,3.6,6.2c0.3,2.5-0.3,4.9-1.8,6.9c-1.2,1.6-2.9,2.5-4.8,2.8c-1.9,0.3-3.9-0.2-5.4-1.4c-2.5-1.9-3-5.5-1.1-8
			c0.7-1,1.8-1.6,3-1.7c1.2-0.2,2.4,0.2,3.3,0.9c1.6,1.2,1.9,3.5,0.7,5c-0.5,0.6-1.1,1-1.9,1.1c-0.8,0.1-1.5-0.1-2.1-0.6l0.6-0.8
			c0.8,0.6,2,0.5,2.6-0.4c0.9-1.1,0.6-2.8-0.5-3.6c-0.7-0.6-1.7-0.8-2.6-0.7c-0.9,0.1-1.8,0.6-2.3,1.4c-1.6,2.1-1.2,5,0.9,6.6
			c1.3,1,3,1.5,4.7,1.2c1.7-0.2,3.1-1.1,4.2-2.4c2.8-3.7,2.1-8.9-1.6-11.7c-2.3-1.8-5.2-2.5-8.1-2.2c-2.9,0.4-5.5,1.9-7.3,4.2
			c-2.3,3.1-3.3,6.9-2.8,10.7c0.5,3.8,2.5,7.2,5.6,9.6L288.4,166.3z"/>
	</g>
	<g>
		<path class="st6" d="M307.7,160.5c-4.9-9.2-1.6-21,7.1-25.6c3.3-1.8,7.1-2.2,10.8-1.1c3.6,1.1,6.6,3.5,8.4,6.9
			c2.8,5.4,0.8,12-4.5,14.9c-2,1.1-4.3,1.3-6.5,0.6c-2.2-0.7-4-2.1-5.1-4.2c-1.7-3.3-0.5-7.3,2.8-9.1c1.2-0.7,2.7-0.8,4-0.4
			c1.3,0.4,2.4,1.3,3.1,2.6c1.1,2,0.3,4.6-1.7,5.6c-0.8,0.4-1.7,0.5-2.5,0.3c-0.8-0.3-1.5-0.8-2-1.6l0.9-0.5
			c0.3,0.5,0.8,0.9,1.4,1.1c0.6,0.2,1.2,0.1,1.8-0.2c1.5-0.8,2.1-2.8,1.3-4.3c-0.5-1-1.4-1.7-2.5-2.1c-1.1-0.3-2.2-0.2-3.2,0.3
			c-2.8,1.5-3.8,5-2.4,7.7c0.9,1.8,2.5,3.1,4.5,3.7c1.9,0.6,4,0.4,5.7-0.6c4.9-2.6,6.7-8.7,4.1-13.6c-1.6-3.1-4.4-5.4-7.8-6.4
			c-3.3-1-6.9-0.7-10,1c-8.1,4.3-11.2,15.7-6.7,24.3L307.7,160.5z"/>
	</g>
	<g>
		<path class="st6" d="M302.5,213.8c-3.4-4.6-2.4-11.2,2.1-14.7c1.7-1.3,3.8-1.8,5.9-1.5c2.1,0.3,4,1.5,5.3,3.2
			c2.1,2.8,1.5,6.8-1.3,8.9c-1.1,0.8-2.4,1.1-3.7,0.9c-1.3-0.2-2.5-0.9-3.3-2c-1.3-1.8-0.9-4.3,0.8-5.6c0.7-0.5,1.5-0.7,2.3-0.6
			c0.8,0.1,1.6,0.6,2.1,1.3c0.8,1.1,0.6,2.7-0.5,3.6c-0.4,0.3-1,0.5-1.5,0.4c-0.5-0.1-1-0.4-1.4-0.8l0.8-0.6
			c0.2,0.2,0.4,0.4,0.7,0.4c0.3,0,0.5,0,0.8-0.2c0.7-0.5,0.8-1.5,0.3-2.2c-0.3-0.5-0.8-0.8-1.4-0.9c-0.6-0.1-1.1,0.1-1.6,0.4
			c-1.3,1-1.6,2.9-0.6,4.2c0.6,0.9,1.5,1.4,2.6,1.6c1,0.2,2.1-0.1,2.9-0.8c2.3-1.8,2.8-5.2,1.1-7.6c-1.1-1.5-2.8-2.5-4.6-2.8
			c-1.8-0.3-3.7,0.2-5.2,1.3c-4.1,3.1-5,9.1-1.9,13.3L302.5,213.8z"/>
	</g>
	<g>
		<path class="st6" d="M299.2,274.6c-1.8-2.3-2.6-5.2-2.3-8.1c0.3-2.9,1.8-5.5,4.1-7.3c1.8-1.4,4-2.1,6.3-1.8
			c2.3,0.3,4.3,1.4,5.7,3.2c2.3,2.9,1.8,7.1-1.1,9.4c-1.1,0.9-2.5,1.3-3.9,1.1c-1.4-0.2-2.6-0.9-3.5-2c-0.7-0.9-1-2-0.9-3.1
			c0.1-1.1,0.7-2.1,1.6-2.8c0.7-0.5,1.6-0.8,2.4-0.7c0.9,0.1,1.7,0.5,2.2,1.2c0.4,0.6,0.6,1.3,0.6,2s-0.4,1.3-1,1.8
			c-0.5,0.4-1,0.5-1.6,0.5c-0.6-0.1-1.1-0.4-1.4-0.8l0.8-0.6c0.2,0.2,0.5,0.4,0.8,0.4c0.3,0,0.6,0,0.9-0.2c0.7-0.6,0.8-1.6,0.3-2.3
			c-0.4-0.5-0.9-0.8-1.5-0.9c-0.6-0.1-1.2,0.1-1.7,0.5c-0.7,0.5-1.1,1.3-1.2,2.1c-0.1,0.8,0.1,1.7,0.7,2.3c0.7,0.9,1.7,1.5,2.9,1.6
			c1.1,0.1,2.3-0.2,3.1-0.9c2.5-1.9,2.9-5.5,1-8c-1.3-1.6-3-2.6-5.1-2.8c-2-0.2-4,0.3-5.6,1.6c-2.1,1.7-3.4,4-3.7,6.7
			c-0.3,2.7,0.4,5.3,2.1,7.4L299.2,274.6z"/>
	</g>
	<g>
		<path class="st6" d="M146.7,257.1c-12.9-5.8-18.8-21-13-33.9c2.2-4.8,6.1-8.6,11-10.5c5-1.9,10.4-1.8,15.2,0.4
			c3.8,1.7,6.6,4.7,8.1,8.5c1.5,3.8,1.4,8-0.3,11.8c-2.7,6-9.8,8.7-15.8,6c-4.7-2.1-6.8-7.6-4.7-12.3c0.8-1.8,2.2-3.1,4-3.8
			c1.8-0.7,3.8-0.6,5.6,0.1c1.4,0.6,2.5,1.7,3,3.2c0.5,1.4,0.5,3-0.1,4.4c-1,2.3-3.7,3.3-5.9,2.3c-0.9-0.4-1.5-1.1-1.9-2
			s-0.3-1.9,0.1-2.7c0.6-1.4,2.3-2.1,3.8-1.5c0.6,0.3,1,0.7,1.2,1.3c0.2,0.6,0.2,1.2,0,1.8c-0.4,1-1.6,1.4-2.5,1l0.4-0.9
			c0.5,0.2,1,0,1.2-0.5c0.3-0.7,0-1.4-0.7-1.7c-0.9-0.4-2,0-2.5,0.9c-0.3,0.6-0.3,1.3-0.1,2s0.7,1.1,1.4,1.4c1.8,0.8,3.8,0,4.6-1.8
			c0.5-1.1,0.5-2.4,0.1-3.6s-1.3-2.1-2.5-2.6c-1.5-0.7-3.2-0.7-4.8-0.1c-1.6,0.6-2.8,1.8-3.5,3.3c-1.9,4.2,0,9.1,4.2,11
			c5.5,2.5,12,0,14.4-5.5c1.6-3.5,1.7-7.4,0.3-11c-1.4-3.6-4.1-6.4-7.6-8c-4.6-2.1-9.7-2.2-14.4-0.4c-4.7,1.8-8.4,5.3-10.5,9.9
			c-2.7,6-2.9,12.7-0.5,18.9s7,11,13,13.7L146.7,257.1z"/>
	</g>
	<g>
		<path class="st6" d="M226.3,263.4c-3.4-3.7-5.3-8.6-5.1-13.8c0.2-5.2,2.3-9.9,6-13.4c2.9-2.7,6.6-4,10.5-3.9
			c3.9,0.2,7.5,1.8,10.2,4.7c4.3,4.6,4,11.8-0.6,16.1c-1.7,1.6-4,2.4-6.4,2.4c-2.4-0.1-4.6-1.1-6.2-2.8c-2.6-2.8-2.4-7.2,0.4-9.8
			c2.2-2,5.7-1.9,7.7,0.3c1.6,1.7,1.5,4.5-0.2,6.1c-1.4,1.3-3.6,1.2-4.8-0.2c-0.5-0.5-0.8-1.2-0.7-2s0.3-1.4,0.9-1.9
			c0.4-0.4,1-0.6,1.6-0.6c0.6,0,1.1,0.3,1.5,0.7c0.3,0.4,0.5,0.8,0.5,1.3c0,0.5-0.2,0.9-0.6,1.3l-0.7-0.7c0.2-0.1,0.3-0.4,0.3-0.6
			c0-0.2-0.1-0.4-0.2-0.6c-0.2-0.2-0.5-0.4-0.9-0.4c-0.3,0-0.6,0.1-0.9,0.3c-0.7,0.7-0.7,1.8-0.1,2.5c0.9,1,2.4,1,3.4,0.1
			c1.3-1.2,1.4-3.3,0.2-4.7c-0.8-0.9-1.9-1.4-3.1-1.4c-1.2-0.1-2.3,0.4-3.2,1.2c-2.4,2.2-2.5,6-0.3,8.4c1.4,1.5,3.4,2.4,5.5,2.5
			c2.1,0.1,4.1-0.7,5.6-2.1c4.2-3.9,4.5-10.5,0.6-14.7c-2.5-2.7-5.8-4.2-9.5-4.4c-3.6-0.1-7.1,1.1-9.8,3.6
			c-3.5,3.2-5.5,7.7-5.6,12.6c-0.1,4.9,1.6,9.5,4.8,13.1L226.3,263.4z"/>
	</g>
	<g>
		<path class="st6" d="M332.6,182.9c-8.3-6-10.3-17.7-4.6-26.1c2.1-3.2,5.4-5.3,9.1-5.9c3.7-0.7,7.5,0.2,10.6,2.5
			c5,3.6,6.2,10.6,2.8,15.7c-1.3,1.9-3.3,3.2-5.5,3.6c-2.3,0.4-4.5-0.1-6.4-1.5c-3-2.2-3.8-6.5-1.7-9.6c0.8-1.2,2-2,3.4-2.2
			c1.4-0.2,2.8,0.1,3.9,0.9c1.9,1.4,2.3,4,1.1,5.9c-0.5,0.7-1.3,1.2-2.1,1.4c-0.9,0.2-1.8-0.1-2.5-0.6c-1.2-0.9-1.5-2.6-0.7-3.8
			c0.3-0.5,0.8-0.8,1.4-0.9c0.6-0.1,1.1,0,1.6,0.4c0.8,0.6,1,1.7,0.4,2.5l-0.8-0.6c0.3-0.4,0.2-0.9-0.2-1.1
			c-0.3-0.2-0.6-0.3-0.9-0.2c-0.3,0.1-0.6,0.2-0.7,0.5c-0.5,0.8-0.3,1.9,0.4,2.4c0.5,0.4,1.1,0.5,1.7,0.4c0.6-0.1,1.1-0.4,1.5-1
			c1-1.5,0.6-3.5-0.8-4.6c-0.9-0.7-2.1-0.9-3.2-0.7c-1.1,0.2-2.1,0.8-2.7,1.8c-1.8,2.6-1.1,6.3,1.5,8.2c1.7,1.2,3.7,1.7,5.7,1.3
			c2-0.3,3.7-1.5,4.8-3.2c3.1-4.6,2-11-2.5-14.3c-2.9-2.1-6.4-2.9-9.8-2.3c-3.4,0.6-6.4,2.6-8.4,5.5c-5.4,8-3.4,19,4.4,24.7
			L332.6,182.9z"/>
	</g>
	<g>
		<path class="st6" d="M316.2,249.1c-7.1-4.5-9.3-14-4.8-21.1c3.5-5.5,10.9-7.2,16.4-3.7c4.3,2.7,5.6,8.5,2.9,12.8
			c-2.1,3.4-6.6,4.4-10,2.3c-2.6-1.7-3.4-5.2-1.8-7.8c0.6-1,1.6-1.7,2.8-2c1.2-0.3,2.4-0.1,3.4,0.6c1.7,1,2.2,3.2,1.1,4.9
			c-0.8,1.3-2.6,1.7-3.9,0.9c-1.1-0.7-1.4-2.1-0.7-3.2c0.3-0.4,0.7-0.7,1.2-0.8c0.5-0.1,1,0,1.4,0.2c0.4,0.2,0.6,0.6,0.7,1
			c0.1,0.4,0,0.8-0.2,1.2l-0.8-0.5c0.1-0.1,0.1-0.3,0.1-0.4c0-0.1-0.1-0.3-0.3-0.4c-0.2-0.1-0.4-0.2-0.7-0.1
			c-0.2,0.1-0.4,0.2-0.6,0.4c-0.4,0.6-0.2,1.4,0.4,1.8c0.9,0.5,2,0.3,2.6-0.6c0.8-1.2,0.4-2.8-0.8-3.5c-1.6-1-3.8-0.5-4.8,1.1
			c-1.4,2.2-0.7,5.1,1.5,6.4c2.9,1.8,6.8,1,8.6-1.9c2.4-3.9,1.3-9-2.6-11.4c-5.1-3.2-11.8-1.7-15,3.4c-4.2,6.7-2.2,15.5,4.5,19.7
			L316.2,249.1z"/>
	</g>
	<g>
		<path class="st6" d="M210,255c-3.8-3.8-3.8-9.9,0-13.7c3-3,7.8-3,10.7,0c1.1,1.1,1.7,2.6,1.7,4.2s-0.6,3.1-1.7,4.2
			c-0.9,0.9-2.1,1.4-3.3,1.4c-1.3,0-2.4-0.5-3.3-1.4c-1.4-1.4-1.4-3.8,0-5.2c1.2-1.2,3-1.2,4.2,0c0.9,0.9,0.9,2.5,0,3.4
			c-0.7,0.7-2,0.7-2.8,0l0.7-0.7c0.4,0.4,1,0.4,1.4,0c0.3-0.3,0.4-0.6,0.4-1s-0.1-0.7-0.4-1c-0.8-0.8-2-0.8-2.8,0
			c-1.1,1.1-1.1,2.8,0,3.8c1.4,1.4,3.8,1.4,5.2,0c0.9-0.9,1.4-2.2,1.4-3.5c0-1.3-0.5-2.6-1.4-3.5c-2.6-2.6-6.7-2.6-9.3,0
			c-3.4,3.4-3.4,8.9,0,12.3L210,255z"/>
	</g>
	<g>
		<path class="st6" d="M353.4,164.7c-2.7-2.7-2.7-7.1,0-9.8c1-1,2.4-1.6,3.9-1.6s2.8,0.6,3.9,1.6c0.8,0.8,1.3,1.9,1.3,3
			c0,1.2-0.4,2.2-1.3,3c-1.3,1.3-3.6,1.3-4.8,0c-0.5-0.5-0.8-1.2-0.8-1.9c0-0.7,0.3-1.4,0.8-1.9c0.8-0.8,2.3-0.8,3.2,0
			c0.3,0.3,0.5,0.8,0.5,1.3c0,0.5-0.2,0.9-0.5,1.3c-0.6,0.6-1.6,0.6-2.2,0l0.7-0.7c0.2,0.2,0.5,0.2,0.7,0c0.2-0.2,0.2-0.4,0.2-0.6
			c0-0.2-0.1-0.4-0.2-0.6c-0.5-0.5-1.3-0.5-1.7,0c-0.3,0.3-0.5,0.8-0.5,1.2c0,0.5,0.2,0.9,0.5,1.2c0.9,0.9,2.5,0.9,3.4,0
			c0.6-0.6,1-1.5,1-2.3c0-0.9-0.3-1.7-1-2.3c-1.7-1.7-4.6-1.7-6.3,0c-1.1,1.1-1.7,2.6-1.7,4.2c0,1.6,0.6,3.1,1.7,4.2L353.4,164.7z"
			/>
	</g>
	<g>
		<path class="st6" d="M315.5,168c-1.3-1.6-1.9-3.7-1.6-5.7s1.3-3.9,3-5.1c2.7-2,6.6-1.5,8.7,1.2c0.8,1,1.1,2.3,1,3.5
			c-0.2,1.3-0.8,2.4-1.9,3.1c-1.7,1.3-4.1,0.9-5.4-0.7c-0.5-0.6-0.7-1.4-0.6-2.2s0.5-1.5,1.2-2c1.1-0.8,2.6-0.6,3.5,0.5
			c0.3,0.4,0.5,0.9,0.4,1.5c-0.1,0.5-0.3,1-0.8,1.3c-0.7,0.5-1.8,0.4-2.3-0.3l0.8-0.6c0.2,0.3,0.7,0.3,1,0.1
			c0.2-0.2,0.3-0.4,0.4-0.6c0-0.3,0-0.5-0.2-0.7c-0.5-0.6-1.4-0.8-2.1-0.3c-0.4,0.3-0.7,0.8-0.8,1.3c-0.1,0.5,0.1,1.1,0.4,1.5
			c1,1.2,2.8,1.5,4,0.5c0.8-0.6,1.3-1.5,1.5-2.5c0.1-1-0.1-2-0.8-2.8c-1.7-2.2-5-2.7-7.3-1c-1.5,1.1-2.4,2.7-2.6,4.4s0.3,3.5,1.4,5
			L315.5,168z"/>
	</g>
	<g>
		<path class="st6" d="M351.6,184c-2.4-2.4-3.8-5.7-3.8-9.1s1.3-6.7,3.8-9.1c3.9-3.9,10.2-3.9,14.1,0c3,3,3,8,0,11
			c-1.2,1.2-2.7,1.8-4.3,1.8c-1.6,0-3.2-0.6-4.3-1.8c-0.9-0.9-1.4-2.1-1.4-3.4s0.5-2.5,1.4-3.4c1.5-1.5,3.9-1.5,5.4,0
			c1.2,1.2,1.2,3.1,0,4.3c-1,1-2.5,1-3.5,0l0.7-0.7c0.6,0.6,1.5,0.6,2.1,0c0.8-0.8,0.8-2.1,0-2.9c-1.1-1.1-2.9-1.1-4,0
			c-0.7,0.7-1.1,1.7-1.1,2.7s0.4,2,1.1,2.7c2,2,5.2,2,7.2,0c2.6-2.6,2.6-7,0-9.6c-3.5-3.5-9.2-3.5-12.7,0c-2.2,2.2-3.5,5.2-3.5,8.4
			c0,3.2,1.2,6.1,3.5,8.4L351.6,184z"/>
	</g>
	<g>
		<path class="st6" d="M207.6,248.3c-5.7-5.1-9.1-12.1-9.4-19.7c-0.4-7.6,2.2-14.9,7.3-20.6c3.9-4.4,9.4-7,15.3-7.4
			c5.9-0.4,11.6,1.6,16,5.6c3.4,3,5.4,7.2,5.7,11.8c0.3,4.6-1.3,9-4.3,12.4c-4.9,5.5-13.3,6-18.8,1.1c-4.3-3.8-4.6-10.3-0.8-14.6
			c3-3.3,8.1-3.6,11.4-0.7c1.3,1.1,2,2.7,2.1,4.4c0.1,1.7-0.5,3.3-1.6,4.6c-0.9,1-2.1,1.6-3.4,1.7c-1.3,0.1-2.6-0.4-3.6-1.3
			c-0.8-0.7-1.3-1.7-1.3-2.7c-0.1-1.1,0.3-2.1,1-2.8c0.6-0.6,1.3-1,2.2-1c0.8,0,1.6,0.2,2.3,0.8c1,0.9,1.1,2.5,0.2,3.6
			c-0.8,0.8-2.1,0.9-2.9,0.2l0.7-0.7c0.4,0.4,1.1,0.4,1.5-0.1c0.6-0.6,0.5-1.6-0.1-2.2c-0.4-0.4-1-0.6-1.5-0.5
			c-0.6,0-1.1,0.3-1.5,0.7c-0.5,0.6-0.8,1.3-0.7,2.1s0.4,1.5,1,2c0.8,0.7,1.8,1,2.9,1c1.1-0.1,2-0.5,2.7-1.3c2-2.2,1.8-5.6-0.4-7.5
			c-2.9-2.6-7.4-2.3-10,0.6c-1.7,1.9-2.5,4.3-2.4,6.8s1.2,4.8,3.1,6.4c5.1,4.5,12.9,4.1,17.4-1c2.9-3.2,4.3-7.4,4.1-11.7
			c-0.2-4.3-2.2-8.3-5.4-11.1c-4.2-3.8-9.7-5.6-15.3-5.3c-5.6,0.3-10.8,2.8-14.6,7c-10.2,11.4-9.2,28.8,2,38.9L207.6,248.3z"/>
	</g>
	<g>
		<path class="st6" d="M170.6,232.6c-6.1-9.6-3.1-22.4,6.5-28.4c3.6-2.3,7.9-3,12.1-2.1c4.2,0.9,7.7,3.5,10,7.1
			c1.8,2.8,2.3,6.1,1.6,9.4s-2.7,6-5.5,7.7c-2.2,1.4-4.8,1.8-7.3,1.2c-2.5-0.6-4.7-2.1-6-4.3c-2.2-3.5-1.1-8.2,2.4-10.4
			c1.3-0.8,2.9-1.1,4.5-0.8c1.5,0.4,2.8,1.3,3.7,2.6c0.7,1.1,0.9,2.3,0.6,3.5c-0.3,1.2-1,2.2-2.1,2.9c-0.8,0.5-1.8,0.7-2.8,0.5
			c-1-0.2-1.8-0.8-2.3-1.6c-0.4-0.7-0.6-1.5-0.4-2.2c0.2-0.8,0.6-1.4,1.3-1.8c1.1-0.7,2.6-0.4,3.3,0.8c0.3,0.4,0.4,1,0.3,1.5
			c-0.1,0.5-0.4,0.9-0.9,1.2l-0.5-0.8c0.2-0.1,0.4-0.3,0.4-0.6s0-0.5-0.1-0.7c-0.4-0.7-1.3-0.8-1.9-0.4c-0.4,0.3-0.8,0.7-0.9,1.2
			s0,1,0.3,1.5c0.4,0.6,1,1,1.7,1.2c0.7,0.2,1.4,0,2-0.3c0.8-0.5,1.4-1.3,1.6-2.3c0.2-1,0.1-1.9-0.5-2.8c-0.7-1.1-1.8-1.9-3.1-2.2
			c-1.3-0.3-2.6-0.1-3.7,0.6c-3,1.9-4,6-2.1,9c1.2,2,3.1,3.3,5.4,3.8c2.3,0.5,4.6,0.1,6.5-1.1c2.6-1.6,4.4-4.1,5-7.1
			c0.7-3,0.2-6-1.5-8.6c-2.1-3.4-5.4-5.7-9.3-6.6c-3.9-0.9-7.9-0.2-11.3,1.9c-4.4,2.8-7.5,7.1-8.7,12.3s-0.3,10.4,2.5,14.8
			L170.6,232.6z"/>
	</g>
	<g>
		<path class="st6" d="M300.4,260.9c-6.9-3-10-11.1-7-17.9c2.3-5.4,8.6-7.8,13.9-5.5c4.2,1.8,6.1,6.7,4.3,10.9
			c-1.4,3.3-5.2,4.8-8.5,3.3c-2.6-1.1-3.7-4.1-2.6-6.7c0.9-2,3.3-3,5.3-2.1c1.6,0.7,2.4,2.6,1.7,4.2c-0.6,1.3-2.1,1.9-3.4,1.3
			c-0.5-0.2-0.9-0.6-1.1-1.2s-0.2-1.1,0-1.6l0.9,0.4c-0.1,0.3-0.1,0.6,0,0.8c0.1,0.3,0.3,0.5,0.6,0.6c0.8,0.3,1.7,0,2.1-0.8
			c0.5-1.1,0-2.4-1.1-2.9c-1.5-0.7-3.3,0-4,1.6c-0.9,2.1,0,4.5,2.1,5.4c2.8,1.2,6-0.1,7.2-2.8c1.6-3.7-0.1-8-3.7-9.6
			c-4.8-2.1-10.5,0.1-12.6,4.9c-2.8,6.4,0.1,13.8,6.5,16.6L300.4,260.9z"/>
	</g>
	<g>
		<path class="st6" d="M196.2,336.8c-3.3-3.2-5.1-7.4-5.1-12c0-4.5,1.7-8.9,4.9-12.1c2.5-2.5,5.8-4,9.3-4c0.1,0,0.1,0,0.2,0
			c3.5,0,6.7,1.3,9.2,3.7c4.1,3.9,4.2,10.5,0.2,14.5c-1.5,1.5-3.5,2.4-5.6,2.4c-2.1,0-4.2-0.8-5.7-2.3c-1.2-1.2-1.9-2.7-1.9-4.4
			c0-1.7,0.6-3.3,1.8-4.5c0.9-0.9,2.2-1.5,3.5-1.5c1.3,0,2.6,0.5,3.5,1.4c1.5,1.5,1.6,4,0.1,5.5c-0.6,0.6-1.4,0.9-2.2,0.9
			c0,0,0,0,0,0c-0.8,0-1.6-0.3-2.2-0.9c-0.5-0.5-0.8-1.1-0.8-1.8c0-0.7,0.2-1.3,0.7-1.8l0.7,0.7c-0.3,0.3-0.4,0.7-0.4,1.1
			c0,0.4,0.2,0.8,0.5,1.1c0.4,0.4,0.9,0.6,1.5,0.6c0.6,0,1.1-0.2,1.5-0.6c1.1-1.2,1.1-3-0.1-4.1c-0.7-0.7-1.7-1.1-2.7-1.1
			c0,0,0,0-0.1,0c-1.1,0-2,0.4-2.8,1.2c-1,1-1.5,2.3-1.5,3.8c0,1.4,0.6,2.7,1.6,3.7c1.3,1.3,3.1,2,5,2c1.9,0,3.6-0.8,4.9-2.1
			c3.6-3.7,3.5-9.5-0.2-13.1c-2.3-2.3-5.4-3.5-8.7-3.4c-3.3,0-6.3,1.4-8.6,3.7c-3,3.1-4.6,7.1-4.6,11.4c0,4.3,1.7,8.3,4.8,11.3
			L196.2,336.8z"/>
	</g>
	<g>
		<path class="st6" d="M170.1,325.7c-1.9-1.7-3.1-4-3.3-6.6c-0.2-2.6,0.7-5.1,2.4-7c2.7-3.1,7.5-3.4,10.6-0.7
			c2.5,2.1,2.7,5.9,0.6,8.3c-0.8,0.9-1.9,1.5-3.2,1.6c-1.2,0.1-2.4-0.3-3.4-1.1c-0.7-0.6-1.2-1.5-1.3-2.5c-0.1-1,0.3-1.9,0.9-2.7
			c1.1-1.2,2.9-1.4,4.2-0.3c1,0.9,1.1,2.4,0.2,3.4c-0.7,0.8-1.9,0.9-2.8,0.2c-0.3-0.3-0.5-0.7-0.5-1.1s0.1-0.8,0.4-1.2l0.8,0.7
			c-0.1,0.1-0.2,0.3-0.2,0.4c0,0.2,0.1,0.3,0.2,0.4c0.4,0.3,1,0.3,1.3-0.1c0.2-0.3,0.4-0.6,0.3-1c0-0.4-0.2-0.7-0.5-1
			c-0.4-0.3-0.9-0.5-1.4-0.5c-0.5,0-1,0.3-1.3,0.7c-1,1.1-0.9,2.8,0.3,3.8c0.7,0.6,1.7,0.9,2.6,0.9c1-0.1,1.9-0.5,2.5-1.2
			c1.8-2,1.6-5.1-0.5-6.9c-2.7-2.4-6.8-2.1-9.2,0.6c-1.5,1.7-2.3,4-2.1,6.3c0.2,2.3,1.2,4.4,2.9,5.9L170.1,325.7z"/>
	</g>
	<g>
		<path class="st6" d="M183.2,319.7c-2.8-2.5-3.1-6.8-0.7-9.6c1.9-2.2,5.3-2.5,7.6-0.5c0.9,0.7,1.4,1.8,1.4,2.9
			c0.1,1.1-0.3,2.2-1,3.1c-1.2,1.4-3.4,1.5-4.8,0.3c-1.1-1-1.2-2.7-0.3-3.8c0.8-0.9,2.2-1,3.1-0.2c0.8,0.7,0.8,1.8,0.2,2.5
			c-0.3,0.3-0.6,0.5-1,0.5c-0.4,0-0.8-0.1-1.1-0.4c-0.3-0.2-0.4-0.5-0.4-0.9c0-0.3,0.1-0.7,0.3-0.9l0.8,0.7c0,0.1-0.1,0.1-0.1,0.2
			c0,0.1,0,0.1,0.1,0.2c0.1,0.1,0.2,0.1,0.4,0.1c0.1,0,0.3-0.1,0.3-0.2c0.3-0.3,0.3-0.8-0.1-1.1c-0.5-0.4-1.3-0.4-1.7,0.1
			c-0.6,0.7-0.5,1.8,0.2,2.4c1,0.9,2.5,0.8,3.3-0.2c0.6-0.7,0.8-1.5,0.8-2.3c-0.1-0.9-0.4-1.6-1.1-2.2c-1.8-1.6-4.6-1.4-6.1,0.4
			c-2.1,2.4-1.9,6.1,0.6,8.2L183.2,319.7z"/>
	</g>
	<g>
		<path class="st6" d="M337.7,151.5c-1.7-1.5-2.7-3.6-2.9-5.8s0.6-4.5,2.1-6.2c2.4-2.8,6.6-3,9.4-0.6c2.2,1.9,2.4,5.2,0.5,7.4
			c-0.7,0.8-1.7,1.3-2.8,1.4c-1.1,0.1-2.2-0.3-3-1c-0.7-0.6-1.1-1.4-1.1-2.3c-0.1-0.9,0.2-1.7,0.8-2.4c1-1.1,2.6-1.2,3.7-0.3
			c0.4,0.4,0.7,0.9,0.7,1.5c0,0.6-0.1,1.1-0.5,1.6c-0.3,0.4-0.7,0.6-1.2,0.6c-0.5,0-0.9-0.1-1.3-0.4c-0.3-0.3-0.5-0.6-0.5-1
			s0.1-0.8,0.4-1.1l0.8,0.7c-0.1,0.1-0.1,0.2-0.1,0.3c0,0.1,0.1,0.2,0.2,0.3c0.2,0.1,0.4,0.2,0.6,0.2c0.2,0,0.4-0.1,0.5-0.3
			c0.2-0.2,0.3-0.5,0.3-0.8c0-0.3-0.2-0.6-0.4-0.8c-0.7-0.6-1.7-0.5-2.3,0.2c-0.4,0.5-0.6,1.1-0.6,1.7c0,0.6,0.3,1.2,0.8,1.6
			c0.6,0.6,1.4,0.8,2.3,0.8c0.8-0.1,1.6-0.4,2.1-1.1c1.5-1.8,1.3-4.4-0.4-6c-2.3-2-5.9-1.8-8,0.5c-1.3,1.5-2,3.4-1.8,5.4
			c0.1,2,1,3.8,2.6,5.1L337.7,151.5z"/>
	</g>
	<g>
		<path class="st6" d="M171.5,342.2c-2.5-1.3-4.3-3.4-5.1-6.1c-0.8-2.6-0.6-5.5,0.7-7.9c1-1.9,2.7-3.3,4.7-4
			c2.1-0.7,4.3-0.5,6.2,0.5c3.1,1.6,4.3,5.4,2.7,8.5c-1.3,2.4-4.3,3.4-6.7,2.1c-1.9-1-2.7-3.4-1.7-5.3c0.4-0.7,1-1.3,1.8-1.6
			c0.8-0.3,1.7-0.2,2.4,0.2c0.6,0.3,1,0.8,1.3,1.5c0.2,0.6,0.1,1.3-0.2,1.9c-0.5,1-1.8,1.4-2.8,0.9c-0.4-0.2-0.7-0.6-0.8-1
			c-0.1-0.4-0.1-0.9,0.1-1.3l0.9,0.5c-0.1,0.2-0.1,0.4,0,0.5c0.1,0.2,0.2,0.3,0.3,0.4c0.5,0.3,1.2,0.1,1.4-0.5
			c0.2-0.4,0.2-0.8,0.1-1.2s-0.4-0.7-0.8-0.9c-0.5-0.3-1.1-0.3-1.6-0.1c-0.5,0.2-1,0.6-1.3,1.1c-0.7,1.4-0.2,3.2,1.3,4
			c2,1,4.4,0.2,5.4-1.7c1.4-2.6,0.3-5.8-2.3-7.2c-1.7-0.9-3.6-1-5.4-0.5c-1.8,0.6-3.3,1.8-4.2,3.5c-1.2,2.2-1.4,4.8-0.6,7.2
			c0.8,2.4,2.4,4.3,4.6,5.5L171.5,342.2z"/>
	</g>
	<g>
		<path class="st6" d="M140.5,328.8c-4.2-2.2-6.9-5.5-7.9-9.8c-1-4-0.3-8.5,1.9-12.8c1.7-3.2,4.5-5.6,8-6.7
			c3.5-1.1,7.2-0.8,10.4,0.9c5.2,2.7,7.2,9.1,4.6,14.3c-2.1,4.1-7.1,5.6-11.2,3.6c-3.2-1.6-4.4-5.6-2.8-8.7c1.3-2.5,4.4-3.5,6.9-2.2
			c1,0.5,1.7,1.3,2,2.4c0.3,1,0.2,2.1-0.3,3.1c-0.4,0.8-1.1,1.3-1.9,1.6c-0.8,0.3-1.7,0.2-2.5-0.2c-1.3-0.7-1.8-2.2-1.1-3.5l0.9,0.5
			c-0.4,0.8-0.1,1.7,0.7,2.1c0.5,0.3,1.1,0.3,1.7,0.1c0.6-0.2,1-0.6,1.3-1.1c0.4-0.7,0.4-1.5,0.2-2.3c-0.2-0.8-0.8-1.4-1.5-1.8
			c-2-1-4.5-0.3-5.5,1.8c-1.4,2.7-0.3,6,2.3,7.4c3.6,1.8,8,0.4,9.8-3.1c2.4-4.7,0.6-10.5-4.1-13c-3-1.6-6.4-1.8-9.7-0.8
			c-3.2,1-5.9,3.2-7.4,6.3c-2.1,4.1-2.8,8.4-1.9,12.1c0.9,3.9,3.5,7.1,7.4,9.1L140.5,328.8z"/>
	</g>
	<g>
		<path class="st6" d="M183.6,332.5c-3.8-2.4-5-7.6-2.7-11.5c0.9-1.5,2.2-2.5,3.9-2.9c1.6-0.4,3.3-0.1,4.8,0.8
			c2.3,1.5,3.1,4.7,1.7,7.1c-0.5,0.9-1.4,1.6-2.4,1.8c-1,0.2-2.1,0.1-3-0.5c-1.5-0.9-1.9-2.9-1.1-4.4c0.3-0.6,0.9-1,1.6-1.2
			c0.7-0.2,1.3,0,1.9,0.3c1,0.6,1.3,1.9,0.7,2.9c-0.2,0.4-0.6,0.7-1.1,0.8c-0.4,0.1-0.9,0-1.3-0.2c-0.7-0.4-0.9-1.3-0.5-2l0.9,0.5
			c-0.1,0.2-0.1,0.5,0.2,0.6c0.2,0.1,0.3,0.1,0.5,0.1c0.2,0,0.3-0.2,0.4-0.3c0.3-0.5,0.1-1.2-0.4-1.6c-0.3-0.2-0.8-0.3-1.1-0.2
			c-0.4,0.1-0.7,0.3-0.9,0.7c-0.6,1.1-0.3,2.4,0.7,3.1c0.7,0.4,1.5,0.6,2.2,0.4c0.8-0.2,1.4-0.7,1.8-1.3c1.1-1.9,0.5-4.5-1.4-5.7
			c-1.2-0.8-2.6-1-4-0.7s-2.5,1.2-3.3,2.4c-2,3.4-0.9,8,2.4,10.1L183.6,332.5z"/>
	</g>
	<g>
		<path class="st6" d="M145.3,212.9c-3.5-3.8-3.3-9.7,0.5-13.2c1.4-1.3,3.3-2,5.2-1.9c1.9,0.1,3.8,0.9,5.1,2.3
			c1,1.1,1.6,2.6,1.5,4.1c-0.1,1.5-0.7,2.9-1.8,4c-1.8,1.7-4.7,1.6-6.4-0.3c-1.3-1.5-1.3-3.7,0.2-5.1c0.6-0.5,1.3-0.8,2.1-0.8
			c0.8,0,1.5,0.4,2,0.9c0.4,0.5,0.6,1,0.6,1.7c0,0.6-0.3,1.2-0.7,1.6c-0.4,0.3-0.9,0.5-1.4,0.5c-0.5,0-1-0.2-1.3-0.6l0.7-0.7
			c0.2,0.2,0.4,0.3,0.6,0.3c0.2,0,0.5-0.1,0.6-0.2c0.3-0.2,0.4-0.6,0.4-0.9c0-0.4-0.1-0.7-0.4-1c-0.3-0.4-0.8-0.6-1.3-0.6
			c-0.5,0-1,0.2-1.3,0.5c-1,1-1.1,2.6-0.1,3.7c1.3,1.4,3.5,1.5,5,0.2c0.9-0.9,1.5-2,1.5-3.3c0.1-1.3-0.4-2.5-1.3-3.4
			c-1.1-1.2-2.7-2-4.4-2c-1.7-0.1-3.3,0.5-4.5,1.7c-3.4,3.1-3.6,8.4-0.5,11.8L145.3,212.9z"/>
	</g>
	<g>
		<path class="st6" d="M205.3,309.3c-3.5-3.8-3.3-9.7,0.5-13.2c1.4-1.3,3.3-2,5.2-1.9c1.9,0.1,3.8,0.9,5.1,2.3c2.1,2.3,2,6-0.3,8.1
			c-0.9,0.8-2,1.2-3.2,1.2c-1.2,0-2.3-0.6-3.1-1.5c-0.7-0.7-1-1.6-0.9-2.6c0-1,0.4-1.8,1.2-2.5c0.6-0.5,1.3-0.8,2.1-0.8
			c0.8,0,1.5,0.4,2,0.9c0.4,0.5,0.6,1,0.6,1.7c0,0.6-0.3,1.2-0.7,1.6c-0.4,0.3-0.8,0.5-1.4,0.5c-0.5,0-1-0.2-1.3-0.6l0.7-0.7
			c0.2,0.2,0.4,0.3,0.6,0.3c0.3,0,0.5-0.1,0.7-0.2c0.5-0.5,0.6-1.3,0.1-1.9c-0.3-0.4-0.8-0.6-1.3-0.6c-0.5,0-1,0.2-1.3,0.5
			c-0.5,0.5-0.8,1.1-0.8,1.8c0,0.7,0.2,1.4,0.7,1.9c0.6,0.7,1.5,1.1,2.4,1.1c0.9,0,1.8-0.3,2.5-0.9c1.9-1.8,2-4.8,0.3-6.7
			c-1.1-1.2-2.7-2-4.4-2c-1.7-0.1-3.3,0.5-4.5,1.7c-3.4,3.1-3.6,8.4-0.5,11.8L205.3,309.3z"/>
	</g>
	<g>
		<path class="st6" d="M159.9,214.4c-4.3-4.7-4-12,0.7-16.4c1.8-1.6,4.1-2.5,6.5-2.4c2.4,0.1,4.6,1.1,6.3,2.9
			c2.6,2.9,2.5,7.3-0.4,10c-1.1,1-2.5,1.5-4,1.5c-1.5-0.1-2.8-0.7-3.8-1.8c-0.8-0.9-1.2-2-1.2-3.1c0-1.2,0.5-2.2,1.4-3
			c1.4-1.3,3.6-1.2,4.9,0.2c0.5,0.5,0.8,1.3,0.7,2c0,0.7-0.3,1.4-0.9,1.9c-0.9,0.8-2.3,0.8-3.2-0.1l0.7-0.7c0.5,0.5,1.3,0.5,1.8,0.1
			c0.4-0.3,0.6-0.8,0.6-1.2c0-0.5-0.1-0.9-0.5-1.3c-0.9-1-2.5-1.1-3.5-0.1c-0.7,0.6-1,1.4-1.1,2.3c0,0.9,0.3,1.8,0.9,2.4
			c0.8,0.9,1.9,1.4,3.2,1.5c1.2,0,2.4-0.4,3.3-1.2c2.5-2.3,2.6-6.1,0.3-8.5c-1.5-1.6-3.4-2.5-5.6-2.6c-2.2-0.1-4.2,0.7-5.8,2.1
			c-4.3,4-4.6,10.7-0.6,15L159.9,214.4z"/>
	</g>
	<g>
		<path class="st6" d="M135.1,220c-2.1-1.2-3.6-3.2-4.3-5.5c-0.6-2.3-0.3-4.8,0.9-6.9c1.9-3.4,6.3-4.6,9.7-2.7
			c1.3,0.7,2.2,1.9,2.6,3.4c0.4,1.4,0.2,3-0.5,4.3c-1.2,2.1-3.9,2.9-6,1.7c-0.8-0.5-1.4-1.2-1.7-2.1s-0.1-1.9,0.3-2.7
			c0.8-1.4,2.5-1.8,3.8-1.1c1.1,0.6,1.5,2,0.9,3.1c-0.5,0.9-1.7,1.2-2.5,0.7l0.5-0.9c0.4,0.2,0.9,0.1,1.2-0.3
			c0.3-0.6,0.1-1.4-0.5-1.7c-0.9-0.5-2-0.2-2.5,0.7c-0.3,0.6-0.4,1.3-0.2,1.9s0.6,1.2,1.2,1.5c0.8,0.5,1.7,0.6,2.6,0.3
			c0.9-0.2,1.6-0.8,2.1-1.6c0.6-1.1,0.8-2.3,0.4-3.5c-0.3-1.2-1.1-2.2-2.2-2.8c-2.9-1.7-6.7-0.6-8.4,2.3c-1.1,1.9-1.3,4.1-0.8,6.2
			s1.9,3.8,3.8,4.9L135.1,220z"/>
	</g>
	<g>
		<path class="st6" d="M319.9,178.1c-1.3-0.7-2.2-1.9-2.6-3.4c-0.4-1.4-0.2-3,0.5-4.3c1.2-2.1,3.9-2.9,6.1-1.7
			c0.8,0.5,1.4,1.2,1.7,2.1c0.3,0.9,0.1,1.9-0.3,2.7c-0.8,1.4-2.5,1.8-3.9,1.1c-1.1-0.6-1.5-2-0.9-3.1c0.5-0.9,1.7-1.2,2.6-0.7
			c0.7,0.4,1,1.4,0.6,2.1c-0.2,0.3-0.5,0.5-0.8,0.6c-0.3,0.1-0.7,0-1-0.1l0.5-0.9c0.1,0,0.2,0.1,0.2,0c0.1,0,0.1-0.1,0.2-0.1
			c0.2-0.3,0.1-0.6-0.2-0.8c-0.4-0.2-1-0.1-1.2,0.3c-0.3,0.6-0.1,1.4,0.5,1.8c0.9,0.5,2,0.2,2.5-0.7c0.3-0.6,0.4-1.3,0.2-1.9
			c-0.2-0.7-0.6-1.2-1.2-1.5c-1.7-0.9-3.8-0.4-4.7,1.3c-0.6,1.1-0.8,2.3-0.4,3.5c0.3,1.2,1.1,2.2,2.2,2.8L319.9,178.1z"/>
	</g>
	<g>
		<path class="st6" d="M261.6,234.8c-1.3,0-2.5-0.3-3.6-0.9c-1.9-1-3.4-2.6-4.1-4.7c-0.5-1.6-0.4-3.3,0.4-4.9s2.1-2.7,3.7-3.2
			c1.3-0.4,2.6-0.3,3.8,0.3c1.2,0.6,2.1,1.6,2.5,2.9c0.7,2.1-0.4,4.3-2.5,5c-0.8,0.3-1.7,0.2-2.4-0.2c-0.8-0.4-1.3-1-1.6-1.8
			l0.9-0.3c0.2,0.5,0.6,1,1.1,1.3s1.1,0.3,1.7,0.1c0.8-0.2,1.4-0.8,1.7-1.5c0.4-0.7,0.4-1.5,0.2-2.3c-0.3-1-1-1.8-2-2.3
			c-1-0.5-2-0.6-3.1-0.2c-1.4,0.5-2.5,1.4-3.1,2.7c-0.6,1.3-0.7,2.7-0.3,4.1c0.6,1.8,1.9,3.3,3.6,4.1c1.7,0.9,3.6,1,5.4,0.4
			c4.9-1.6,7.6-7,6-11.9c-1-3.1-3.2-5.7-6.2-7.2c-3-1.5-6.3-1.7-9.5-0.7c-4.1,1.4-7.5,4.3-9.4,8.2c-2,3.9-2.3,8.3-0.9,12.4l-0.9,0.3
			c-1.5-4.4-1.1-9.1,1-13.2c2.1-4.1,5.6-7.2,10-8.7c3.4-1.1,7-0.9,10.2,0.7c3.2,1.6,5.6,4.4,6.7,7.8c0.9,2.6,0.7,5.5-0.6,8
			s-3.4,4.3-6,5.2C263.3,234.7,262.5,234.8,261.6,234.8z"/>
	</g>
	<g>
		<path class="st6" d="M285.3,188.1c-2.5-4.9-2.9-10.6-1.2-15.8c1.7-5.3,5.4-9.5,10.3-12.1c7.9-4,17.6-0.8,21.6,7.1
			c3.1,6.1,0.6,13.7-5.5,16.8c-4.8,2.4-10.6,0.5-13-4.3c-0.9-1.8-1.1-3.9-0.4-5.8c0.6-1.9,2-3.5,3.8-4.4c1.4-0.7,3-0.8,4.5-0.3
			c1.5,0.5,2.7,1.5,3.5,3c1.2,2.3,0.2,5.1-2.1,6.3c-1.8,0.9-4.1,0.2-5-1.6l0.9-0.5c0.7,1.3,2.3,1.9,3.6,1.2c1.8-0.9,2.5-3.1,1.6-4.9
			c-0.6-1.2-1.6-2.1-2.9-2.5s-2.6-0.3-3.8,0.3c-3.2,1.6-4.5,5.6-2.9,8.8c1.1,2.1,2.8,3.6,5.1,4.3c2.2,0.7,4.6,0.5,6.6-0.5
			c5.6-2.9,7.9-9.8,5.1-15.4c-1.8-3.6-4.9-6.3-8.8-7.5c-3.8-1.3-7.9-0.9-11.5,0.9c-4.7,2.4-8.2,6.5-9.8,11.5
			c-1.6,5-1.2,10.4,1.1,15.1L285.3,188.1z"/>
	</g>
	<g>
		<path class="st6" d="M203.1,212.4c-2.5-0.7-4.6-2.4-5.9-4.7s-1.6-5-0.8-7.5c1.2-4.1,5.5-6.5,9.6-5.3c3.2,0.9,5.1,4.3,4.1,7.5
			c-0.4,1.2-1.2,2.2-2.3,2.9c-1.1,0.6-2.4,0.8-3.6,0.4c-2-0.6-3.2-2.7-2.6-4.7c0.2-0.8,0.7-1.4,1.4-1.8c0.7-0.4,1.5-0.5,2.3-0.3
			c1.3,0.4,2,1.7,1.7,3c-0.3,1.1-1.4,1.7-2.5,1.4l0.3-1c0.3,0.1,0.5,0,0.8-0.1c0.2-0.1,0.4-0.3,0.5-0.6c0.2-0.8-0.2-1.6-1-1.8
			c-0.5-0.1-1.1-0.1-1.5,0.2c-0.5,0.3-0.8,0.7-1,1.2c-0.4,1.5,0.4,3,1.9,3.4c1,0.3,2,0.2,2.9-0.3c0.9-0.5,1.5-1.3,1.8-2.3
			c0.8-2.7-0.8-5.5-3.5-6.3c-3.6-1-7.3,1-8.3,4.6c-0.7,2.3-0.4,4.7,0.8,6.8c1.1,2.1,3,3.6,5.3,4.3L203.1,212.4z"/>
	</g>
	<g>
		<path class="st6" d="M247.8,217.1c-3.3-0.9-6-3-7.6-5.8c-1.5-2.8-1.8-6-0.9-9.1c1.6-5,7.1-7.9,12.3-6.6c2,0.5,3.7,1.8,4.6,3.6
			c0.9,1.7,1.1,3.7,0.5,5.5c-1,3.1-4.3,4.9-7.5,4c-1.2-0.3-2.3-1.1-2.9-2.2c-0.6-1.1-0.7-2.3-0.3-3.4c0.6-1.9,2.7-3,4.7-2.5
			c0.8,0.2,1.4,0.7,1.8,1.4c0.4,0.7,0.4,1.4,0.2,2.2c-0.4,1.2-1.7,2-3,1.6l0.3-1c0.8,0.2,1.6-0.2,1.8-1c0.1-0.5,0.1-1-0.1-1.4
			c-0.2-0.5-0.7-0.8-1.2-0.9c-1.5-0.4-3,0.4-3.5,1.8c-0.3,0.9-0.2,1.8,0.3,2.6c0.5,0.8,1.3,1.5,2.2,1.7c2.7,0.7,5.5-0.8,6.3-3.3
			c0.5-1.6,0.3-3.3-0.5-4.7c-0.8-1.5-2.3-2.6-4-3.1c-4.7-1.2-9.7,1.4-11.1,5.9c-0.9,2.8-0.6,5.7,0.8,8.3c1.5,2.7,3.9,4.6,7,5.4
			L247.8,217.1z"/>
	</g>
	<g>
		<path class="st6" d="M276.8,224.2c-3.4-0.9-6.3-3.1-7.9-6.1c-1.6-2.9-1.9-6.3-0.9-9.4c1.6-5.2,7.4-8.3,12.8-6.8
			c2.1,0.6,3.8,1.9,4.8,3.7c1,1.8,1.2,3.8,0.6,5.7c-1,3.2-4.5,5-7.8,4.2c-1.3-0.3-2.3-1.2-3-2.3c-0.6-1.1-0.7-2.4-0.3-3.6
			c0.6-2,2.8-3.1,4.9-2.6c0.8,0.2,1.5,0.7,1.9,1.4c0.4,0.7,0.5,1.5,0.2,2.3c-0.4,1.3-1.8,2-3.1,1.7l0.3-1c0.8,0.2,1.7-0.2,1.9-1
			c0.2-0.5,0.1-1-0.1-1.5c-0.3-0.5-0.7-0.8-1.3-1c-1.5-0.4-3.2,0.5-3.6,1.9c-0.3,0.9-0.2,1.9,0.3,2.8c0.5,0.9,1.3,1.5,2.3,1.8
			c2.8,0.7,5.8-0.8,6.6-3.5c0.5-1.7,0.4-3.4-0.5-5c-0.9-1.6-2.4-2.7-4.2-3.2c-4.9-1.3-10.1,1.5-11.6,6.2c-0.9,2.9-0.6,6,0.8,8.7
			c1.5,2.8,4.1,4.8,7.3,5.6L276.8,224.2z"/>
	</g>
	<g>
		<path class="st6" d="M257.7,213c-1.6-1.7-2.4-3.9-2.2-6.1c0.1-2.2,1.1-4.1,2.8-5.5c2.7-2.3,7-2,9.5,0.7c1,1,1.5,2.4,1.4,3.8
			c-0.1,1.3-0.7,2.5-1.7,3.4c-1.7,1.4-4.3,1.2-5.9-0.4c-0.6-0.7-0.9-1.5-0.9-2.4c0-0.8,0.4-1.6,1.1-2.2c1.1-0.9,2.8-0.8,3.8,0.3
			c0.4,0.4,0.6,1,0.6,1.6c0,0.6-0.3,1.1-0.7,1.4c-0.7,0.6-1.8,0.5-2.5-0.2l0.7-0.7c0.3,0.3,0.8,0.4,1.1,0.1c0.2-0.2,0.3-0.4,0.4-0.7
			c0-0.3-0.1-0.6-0.3-0.8c-0.6-0.7-1.7-0.8-2.4-0.2c-0.4,0.4-0.7,0.9-0.7,1.5c0,0.6,0.2,1.2,0.6,1.6c1.2,1.3,3.2,1.4,4.5,0.3
			c0.8-0.7,1.3-1.7,1.4-2.7c0.1-1.1-0.3-2.2-1.1-3c-2.1-2.3-5.8-2.6-8.1-0.6c-1.5,1.2-2.3,2.9-2.4,4.8c-0.1,2,0.6,3.9,2,5.4
			L257.7,213z"/>
	</g>
	<g>
		<path class="st6" d="M266.6,274.7c-3.6-10,1.6-21,11.6-24.6c7.7-2.8,16.3,1.2,19,9c1,2.9,0.9,6-0.4,8.8c-1.3,2.8-3.6,4.9-6.5,6
			c-2.3,0.8-4.7,0.7-6.9-0.3c-2.2-1-3.8-2.8-4.6-5.1c-0.6-1.8-0.5-3.7,0.3-5.4c0.8-1.7,2.2-3,4-3.6c2.9-1,6,0.5,7.1,3.3
			c0.8,2.3-0.4,4.8-2.6,5.6c-1.8,0.6-3.8-0.3-4.4-2.1l0.9-0.3c0.5,1.3,1.9,1.9,3.2,1.5c1.7-0.6,2.7-2.6,2-4.3
			c-0.8-2.3-3.4-3.6-5.8-2.7c-1.5,0.5-2.7,1.7-3.4,3.1s-0.8,3.1-0.2,4.6c0.7,2,2.2,3.6,4.1,4.5c1.9,0.9,4.1,1,6.1,0.3
			c2.7-1,4.8-2.9,6-5.4c1.2-2.6,1.3-5.4,0.4-8.1c-2.6-7.2-10.6-11-17.8-8.4c-9.4,3.4-14.4,13.9-11,23.3L266.6,274.7z"/>
	</g>
	<g>
		<path class="st6" d="M288.9,142.5c-1.5-1.4-2.3-3.3-2.3-5.4c0-2,0.7-4,2.2-5.4c2.3-2.4,6.1-2.4,8.5-0.1c0.9,0.9,1.4,2.1,1.4,3.3
			s-0.5,2.5-1.3,3.4c-0.7,0.7-1.6,1.1-2.6,1.1c0,0,0,0,0,0c-1,0-1.9-0.4-2.6-1.1c-0.6-0.6-0.9-1.3-0.9-2.1c0-0.8,0.3-1.6,0.9-2.1
			c0.5-0.5,1.1-0.7,1.7-0.7c0.6,0,1.3,0.2,1.7,0.7c0.4,0.4,0.6,0.9,0.6,1.4c0,0.5-0.2,1-0.6,1.4l-0.7-0.7c0.2-0.2,0.3-0.4,0.3-0.7
			c0-0.3-0.1-0.5-0.3-0.7c-0.3-0.3-0.6-0.4-1-0.4c-0.4,0-0.7,0.2-1,0.4c-0.4,0.4-0.6,0.9-0.6,1.4s0.2,1,0.6,1.4
			c0.5,0.5,1.2,0.7,2,0.8c0.7,0,1.4-0.3,1.9-0.8c0.7-0.7,1.1-1.7,1.1-2.7c0-1-0.4-1.9-1.1-2.6c-0.9-0.9-2.2-1.4-3.5-1.4
			c0,0,0,0-0.1,0c-1.3,0-2.6,0.6-3.5,1.5c-2.6,2.6-2.5,6.9,0.1,9.4L288.9,142.5z"/>
	</g>
	<g>
		<path class="st6" d="M347.1,154.1c-1-1.3-1.4-3-1.1-4.6c0.3-1.6,1.1-3.1,2.5-4c2.2-1.6,5.2-1.1,6.8,1.1c1.2,1.7,0.9,4.1-0.8,5.4
			c-0.7,0.5-1.5,0.7-2.3,0.5c-0.8-0.1-1.5-0.6-2-1.2c-0.4-0.5-0.5-1.2-0.4-1.8s0.5-1.2,1-1.6c0.4-0.3,1-0.5,1.5-0.4
			c0.5,0.1,1,0.4,1.3,0.8l-0.8,0.6c-0.2-0.2-0.4-0.4-0.7-0.4c-0.3,0-0.5,0-0.8,0.2c-0.3,0.2-0.5,0.6-0.6,1c-0.1,0.4,0,0.8,0.3,1.1
			c0.7,0.9,2,1.1,2.9,0.5c1.3-0.9,1.6-2.7,0.6-4c-1.3-1.7-3.7-2.1-5.4-0.9c-2.3,1.7-2.8,4.9-1.1,7.2L347.1,154.1z"/>
	</g>
	<g>
		<path class="st6" d="M361.8,188.3c-1.1-1.1-1.6-2.6-1.6-4.2c0.1-1.5,0.7-3,1.8-4c1.8-1.7,4.7-1.6,6.5,0.2c0.7,0.7,1,1.6,1,2.6
			s-0.4,1.9-1.1,2.5c-1.2,1.1-3,1-4.1-0.1c-0.9-0.9-0.8-2.4,0.1-3.3c0.8-0.7,2-0.7,2.7,0.1l-0.7,0.7c-0.2-0.2-0.4-0.3-0.6-0.3
			c-0.2,0-0.5,0.1-0.7,0.2c-0.5,0.5-0.6,1.4-0.1,1.9c0.7,0.8,1.9,0.8,2.7,0.1c0.5-0.5,0.8-1.1,0.8-1.8s-0.2-1.4-0.7-1.9
			c-0.7-0.7-1.5-1.1-2.5-1.1c-1,0-1.9,0.3-2.6,1c-0.9,0.9-1.5,2.1-1.5,3.3s0.4,2.5,1.3,3.4L361.8,188.3z"/>
	</g>
	<g>
		<path class="st6" d="M336.8,245.7c-1.6-1.7-2.5-3.9-2.4-6.3c0.1-2.4,1-4.5,2.7-6.2c1.3-1.3,3.1-2,4.9-1.9c1.8,0,3.6,0.8,4.8,2.1
			c2.1,2.2,2,5.6-0.2,7.7c-0.8,0.8-1.9,1.2-3,1.2c-1.1,0-2.2-0.5-3-1.3c-0.6-0.7-1-1.5-0.9-2.4s0.4-1.8,1-2.4
			c0.5-0.5,1.2-0.8,1.9-0.8c0.7,0,1.4,0.3,1.9,0.8c0.4,0.4,0.6,1,0.6,1.6c0,0.6-0.3,1.1-0.7,1.6c-0.7,0.7-1.9,0.7-2.6-0.1l0.7-0.7
			c0.3,0.3,0.8,0.3,1.2,0c0.2-0.2,0.4-0.5,0.4-0.9c0-0.3-0.1-0.6-0.3-0.9c-0.3-0.3-0.8-0.5-1.2-0.5c-0.5,0-0.9,0.2-1.2,0.5
			c-0.5,0.4-0.7,1-0.7,1.7s0.2,1.3,0.7,1.7c0.6,0.6,1.4,1,2.3,1c0.9,0,1.7-0.3,2.3-0.9c1.8-1.7,1.8-4.5,0.1-6.2
			c-1.1-1.1-2.6-1.8-4.1-1.8c-1.6,0-3.1,0.5-4.2,1.6c-1.5,1.4-2.4,3.4-2.4,5.5s0.7,4.1,2.2,5.6L336.8,245.7z"/>
	</g>
	<g>
		<path class="st6" d="M205.8,246.5c-5.5-4.4-6.8-11.7-3-17.4c1.4-2.2,3.6-3.6,6.1-4.1c2.5-0.5,5.1,0,7.3,1.4
			c3.5,2.3,4.4,7,2.1,10.5c-1.8,2.7-5.5,3.5-8.2,1.7c-1-0.7-1.8-1.7-2-3c-0.3-1.2,0-2.5,0.7-3.5c0.5-0.8,1.4-1.4,2.4-1.6
			c1-0.2,2,0,2.8,0.5c1.4,0.9,1.7,2.7,0.8,4.1c-0.7,1.1-2.2,1.4-3.3,0.7c-0.9-0.6-1.1-1.8-0.6-2.7l0.8,0.6c-0.3,0.4-0.2,1,0.3,1.3
			c0.6,0.4,1.5,0.2,1.9-0.4c0.6-0.9,0.3-2.1-0.6-2.7c-0.6-0.4-1.3-0.5-2-0.4c-0.7,0.1-1.3,0.6-1.7,1.2c-0.5,0.8-0.7,1.8-0.5,2.8
			s0.8,1.8,1.6,2.3c2.3,1.5,5.3,0.9,6.8-1.4c2-3,1.2-7.1-1.9-9.1c-1.9-1.3-4.2-1.7-6.5-1.3c-2.3,0.5-4.2,1.8-5.5,3.7
			c-3.5,5.3-2.3,12,2.8,16.1L205.8,246.5z"/>
	</g>
	<g>
		<path class="st6" d="M205.7,246.5c-5.4-5.1-6.6-11.9-2.9-17.4l0.8,0.6c-3.3,5.1-2.2,11.4,2.8,16.1L205.7,246.5z"/>
	</g>
	<g>
		<path class="st6" d="M139.2,342c-0.9-1.5-1.1-3.2-0.7-4.9s1.5-3.1,3-3.9c2.4-1.4,5.6-0.6,7,1.8c1.1,1.9,0.5,4.4-1.5,5.5
			c-0.7,0.4-1.6,0.5-2.4,0.3c-0.8-0.2-1.5-0.8-2-1.5c-0.7-1.2-0.3-2.8,0.9-3.5c0.5-0.3,1.1-0.4,1.6-0.2c0.5,0.1,1,0.5,1.3,1
			l-0.9,0.5c-0.1-0.3-0.4-0.4-0.7-0.5c-0.3-0.1-0.6,0-0.8,0.1c-0.8,0.4-1,1.4-0.6,2.2c0.3,0.5,0.8,0.9,1.3,1
			c0.6,0.2,1.2,0.1,1.7-0.2c1.4-0.8,1.9-2.7,1.1-4.1c-1.1-2-3.6-2.6-5.6-1.5c-2.6,1.5-3.5,4.9-2,7.5L139.2,342z"/>
	</g>
	<g>
		<path class="st6" d="M153.8,357.6c-5.1,0-9.2-4.1-9.2-9.2c0-4,3.2-7.2,7.2-7.2c3.1,0,5.6,2.5,5.6,5.6c0,2.4-2,4.4-4.4,4.4
			c-1.9,0-3.5-1.6-3.5-3.5c0-1.6,1.3-2.8,2.8-2.8c1.3,0,2.3,1,2.3,2.3c0,1-0.8,1.9-1.9,1.9v-1c0.5,0,0.9-0.4,0.9-0.9
			c0-0.7-0.6-1.3-1.3-1.3c-1,0-1.8,0.8-1.8,1.8c0,1.4,1.1,2.5,2.5,2.5c1.9,0,3.4-1.5,3.4-3.4c0-2.5-2.1-4.6-4.6-4.6
			c-3.4,0-6.2,2.8-6.2,6.2c0,4.5,3.7,8.2,8.2,8.2V357.6z"/>
	</g>
</g>
</svg>
